<svg width="1024" height="768" viewBox="0 0 1024 768" fill="none" xmlns="http://www.w3.org/2000/svg">
<rect width="1024" height="768" fill="#808080"/>
<g clip-path="url(#clip0_1_64)">
<rect width="420" height="595" transform="translate(512 87)" fill="black"/>
<path d="M573.034 145.184V144.282H579.48V145.184L577.456 145.426C577.441 146.35 577.427 147.289 577.412 148.242C577.412 149.181 577.412 150.127 577.412 151.08V154.512C577.412 155.627 577.39 156.558 577.346 157.306C577.317 158.054 577.251 158.677 577.148 159.176C577.045 159.675 576.899 160.093 576.708 160.43C576.532 160.767 576.29 161.09 575.982 161.398C575.615 161.765 575.168 162.051 574.64 162.256C574.127 162.476 573.569 162.586 572.968 162.586C572.557 162.586 572.169 162.505 571.802 162.344C571.421 162.197 571.171 161.919 571.054 161.508C571.127 161.097 571.289 160.811 571.538 160.65C571.773 160.489 572.066 160.408 572.418 160.408C572.917 160.408 573.467 160.635 574.068 161.09L574.618 161.53C574.941 161.222 575.161 160.855 575.278 160.43C575.41 160.005 575.476 159.477 575.476 158.846C575.476 158.582 575.469 158.259 575.454 157.878C575.454 157.497 575.447 156.998 575.432 156.382C575.417 155.766 575.403 154.981 575.388 154.028C575.373 153.075 575.351 151.894 575.322 150.486C575.307 149.078 575.293 147.391 575.278 145.426L573.034 145.184ZM585.717 149.276C585.306 149.276 584.888 149.393 584.463 149.628C584.052 149.863 583.693 150.237 583.385 150.75C583.091 151.263 582.901 151.945 582.813 152.796H586.817C587.345 152.796 587.689 152.686 587.851 152.466C588.027 152.246 588.115 151.975 588.115 151.652C588.115 151.227 588.005 150.838 587.785 150.486C587.579 150.119 587.293 149.826 586.927 149.606C586.575 149.386 586.171 149.276 585.717 149.276ZM585.695 159.286C584.213 159.286 583.025 158.809 582.131 157.856C581.236 156.888 580.789 155.561 580.789 153.874C580.789 152.745 581.016 151.762 581.471 150.926C581.94 150.09 582.556 149.437 583.319 148.968C584.096 148.499 584.939 148.264 585.849 148.264C586.611 148.264 587.301 148.433 587.917 148.77C588.533 149.107 589.024 149.591 589.391 150.222C589.757 150.838 589.941 151.593 589.941 152.488C589.941 152.737 589.926 152.972 589.897 153.192C589.867 153.397 589.831 153.573 589.787 153.72H582.769C582.798 155.069 583.135 156.096 583.781 156.8C584.426 157.504 585.277 157.856 586.333 157.856C587.037 157.856 587.623 157.717 588.093 157.438C588.562 157.145 588.995 156.771 589.391 156.316L589.919 156.734C589.508 157.511 588.951 158.135 588.247 158.604C587.543 159.059 586.692 159.286 585.695 159.286ZM596.918 164.258V163.488L598.678 163.18C598.693 162.579 598.7 161.977 598.7 161.376C598.715 160.789 598.722 160.203 598.722 159.616V153.324C598.722 152.723 598.715 152.224 598.7 151.828C598.7 151.432 598.686 151.014 598.656 150.574L596.918 150.376V149.606L599.998 148.264L600.328 148.484L600.46 149.914C601.502 148.814 602.609 148.264 603.782 148.264C604.574 148.264 605.286 148.484 605.916 148.924C606.547 149.364 607.046 149.995 607.412 150.816C607.794 151.623 607.984 152.598 607.984 153.742C607.984 154.871 607.786 155.854 607.39 156.69C606.994 157.511 606.452 158.149 605.762 158.604C605.088 159.059 604.318 159.286 603.452 159.286C602.954 159.286 602.455 159.183 601.956 158.978C601.472 158.773 600.996 158.399 600.526 157.856V159.594C600.526 160.181 600.526 160.767 600.526 161.354C600.541 161.955 600.556 162.557 600.57 163.158L602.572 163.488V164.258H596.918ZM603.254 149.518C602.917 149.518 602.528 149.606 602.088 149.782C601.648 149.943 601.15 150.259 600.592 150.728V156.91C601.003 157.306 601.406 157.592 601.802 157.768C602.198 157.944 602.602 158.032 603.012 158.032C603.834 158.032 604.538 157.702 605.124 157.042C605.711 156.382 606.004 155.341 606.004 153.918C606.004 152.51 605.748 151.425 605.234 150.662C604.721 149.899 604.061 149.518 603.254 149.518ZM614.893 149.276C614.482 149.276 614.064 149.393 613.639 149.628C613.228 149.863 612.869 150.237 612.561 150.75C612.267 151.263 612.077 151.945 611.989 152.796H615.993C616.521 152.796 616.865 152.686 617.027 152.466C617.203 152.246 617.291 151.975 617.291 151.652C617.291 151.227 617.181 150.838 616.961 150.486C616.755 150.119 616.469 149.826 616.103 149.606C615.751 149.386 615.347 149.276 614.893 149.276ZM614.871 159.286C613.389 159.286 612.201 158.809 611.307 157.856C610.412 156.888 609.965 155.561 609.965 153.874C609.965 152.745 610.192 151.762 610.647 150.926C611.116 150.09 611.732 149.437 612.495 148.968C613.272 148.499 614.115 148.264 615.025 148.264C615.787 148.264 616.477 148.433 617.093 148.77C617.709 149.107 618.2 149.591 618.567 150.222C618.933 150.838 619.117 151.593 619.117 152.488C619.117 152.737 619.102 152.972 619.073 153.192C619.043 153.397 619.007 153.573 618.963 153.72H611.945C611.974 155.069 612.311 156.096 612.957 156.8C613.602 157.504 614.453 157.856 615.509 157.856C616.213 157.856 616.799 157.717 617.269 157.438C617.738 157.145 618.171 156.771 618.567 156.316L619.095 156.734C618.684 157.511 618.127 158.135 617.423 158.604C616.719 159.059 615.868 159.286 614.871 159.286ZM621.069 159V158.208L622.697 157.9C622.712 157.343 622.719 156.741 622.719 156.096C622.734 155.451 622.741 154.879 622.741 154.38V153.324C622.741 152.723 622.734 152.224 622.719 151.828C622.719 151.432 622.705 151.014 622.675 150.574L620.937 150.376V149.606L624.017 148.264L624.347 148.484L624.523 150.244C625.066 149.657 625.689 149.181 626.393 148.814C627.097 148.447 627.787 148.264 628.461 148.264C629.415 148.264 630.119 148.587 630.573 149.232C631.043 149.863 631.277 150.897 631.277 152.334V154.38C631.277 154.879 631.277 155.451 631.277 156.096C631.292 156.741 631.307 157.343 631.321 157.9L632.861 158.208V159H627.757V158.208L629.385 157.9C629.4 157.357 629.407 156.763 629.407 156.118C629.422 155.458 629.429 154.879 629.429 154.38V152.51C629.429 151.498 629.283 150.801 628.989 150.42C628.711 150.039 628.249 149.848 627.603 149.848C627.105 149.848 626.621 149.951 626.151 150.156C625.682 150.361 625.169 150.699 624.611 151.168V154.38C624.611 154.864 624.611 155.436 624.611 156.096C624.626 156.741 624.641 157.343 624.655 157.9L626.173 158.208V159H621.069ZM637.931 159.286C637.315 159.286 636.751 159.213 636.237 159.066C635.724 158.934 635.196 158.729 634.653 158.45L634.565 156.03H635.775L636.193 157.944C636.707 158.179 637.301 158.296 637.975 158.296C638.811 158.296 639.427 158.142 639.823 157.834C640.234 157.526 640.439 157.123 640.439 156.624C640.439 156.155 640.271 155.781 639.933 155.502C639.596 155.209 639.083 154.945 638.393 154.71L637.381 154.336C636.575 154.043 635.929 153.661 635.445 153.192C634.961 152.723 634.719 152.114 634.719 151.366C634.719 150.823 634.866 150.317 635.159 149.848C635.453 149.379 635.885 148.997 636.457 148.704C637.029 148.411 637.726 148.264 638.547 148.264C639.149 148.264 639.691 148.345 640.175 148.506C640.674 148.653 641.158 148.873 641.627 149.166L641.539 151.41H640.395L640.043 149.65C639.545 149.401 639.039 149.276 638.525 149.276C637.851 149.276 637.337 149.415 636.985 149.694C636.648 149.958 636.479 150.317 636.479 150.772C636.479 151.256 636.626 151.623 636.919 151.872C637.227 152.121 637.755 152.385 638.503 152.664L639.185 152.906C640.285 153.317 641.063 153.786 641.517 154.314C641.987 154.842 642.221 155.451 642.221 156.14C642.221 156.697 642.06 157.218 641.737 157.702C641.415 158.171 640.938 158.553 640.307 158.846C639.677 159.139 638.885 159.286 637.931 159.286ZM652.222 159.22C651.694 159.22 651.254 159.066 650.902 158.758C650.55 158.45 650.33 158.039 650.242 157.526C649.641 158.113 649.113 158.553 648.658 158.846C648.204 159.139 647.654 159.286 647.008 159.286C646.202 159.286 645.505 159.059 644.918 158.604C644.346 158.135 644.06 157.445 644.06 156.536C644.06 156.111 644.156 155.715 644.346 155.348C644.552 154.981 644.918 154.622 645.446 154.27C645.974 153.918 646.73 153.566 647.712 153.214C648.05 153.097 648.438 152.972 648.878 152.84C649.318 152.708 649.758 152.591 650.198 152.488V151.938C650.198 150.867 650.037 150.156 649.714 149.804C649.392 149.452 648.864 149.276 648.13 149.276C647.969 149.276 647.786 149.283 647.58 149.298C647.39 149.313 647.177 149.349 646.942 149.408L646.524 150.838C646.319 151.542 645.938 151.894 645.38 151.894C644.764 151.894 644.42 151.593 644.346 150.992C644.552 150.156 645.036 149.496 645.798 149.012C646.576 148.513 647.522 148.264 648.636 148.264C649.795 148.264 650.653 148.557 651.21 149.144C651.768 149.716 652.046 150.699 652.046 152.092V156.778C652.046 157.247 652.12 157.585 652.266 157.79C652.413 157.981 652.604 158.076 652.838 158.076C653.029 158.076 653.19 158.032 653.322 157.944C653.454 157.856 653.579 157.739 653.696 157.592L654.136 158.076C653.872 158.501 653.579 158.802 653.256 158.978C652.948 159.139 652.604 159.22 652.222 159.22ZM646.018 156.206C646.018 156.793 646.187 157.211 646.524 157.46C646.862 157.709 647.28 157.834 647.778 157.834C647.998 157.834 648.204 157.805 648.394 157.746C648.6 157.687 648.842 157.577 649.12 157.416C649.399 157.24 649.758 156.991 650.198 156.668V153.302C649.817 153.405 649.443 153.522 649.076 153.654C648.71 153.771 648.409 153.874 648.174 153.962C647.544 154.211 647.074 154.468 646.766 154.732C646.458 154.996 646.253 155.253 646.15 155.502C646.062 155.751 646.018 155.986 646.018 156.206ZM655.034 159V158.208L656.684 157.9C656.698 157.343 656.706 156.741 656.706 156.096C656.72 155.436 656.728 154.864 656.728 154.38V153.346C656.728 152.745 656.72 152.246 656.706 151.85C656.706 151.439 656.691 151.014 656.662 150.574L654.902 150.376V149.606L658.29 148.264L658.62 148.484L658.554 151.476V154.38C658.554 154.864 658.554 155.436 658.554 156.096C658.568 156.741 658.583 157.343 658.598 157.9L660.138 158.208V159H655.034ZM657.63 145.844C657.219 145.844 656.867 145.712 656.574 145.448C656.295 145.184 656.156 144.847 656.156 144.436C656.156 144.011 656.295 143.673 656.574 143.424C656.867 143.16 657.219 143.028 657.63 143.028C658.04 143.028 658.385 143.16 658.664 143.424C658.957 143.673 659.104 144.011 659.104 144.436C659.104 144.847 658.957 145.184 658.664 145.448C658.385 145.712 658.04 145.844 657.63 145.844ZM665.216 159.286C664.6 159.286 664.036 159.213 663.522 159.066C663.009 158.934 662.481 158.729 661.938 158.45L661.85 156.03H663.06L663.478 157.944C663.992 158.179 664.586 158.296 665.26 158.296C666.096 158.296 666.712 158.142 667.108 157.834C667.519 157.526 667.724 157.123 667.724 156.624C667.724 156.155 667.556 155.781 667.218 155.502C666.881 155.209 666.368 154.945 665.678 154.71L664.666 154.336C663.86 154.043 663.214 153.661 662.73 153.192C662.246 152.723 662.004 152.114 662.004 151.366C662.004 150.823 662.151 150.317 662.444 149.848C662.738 149.379 663.17 148.997 663.742 148.704C664.314 148.411 665.011 148.264 665.832 148.264C666.434 148.264 666.976 148.345 667.46 148.506C667.959 148.653 668.443 148.873 668.912 149.166L668.824 151.41H667.68L667.328 149.65C666.83 149.401 666.324 149.276 665.81 149.276C665.136 149.276 664.622 149.415 664.27 149.694C663.933 149.958 663.764 150.317 663.764 150.772C663.764 151.256 663.911 151.623 664.204 151.872C664.512 152.121 665.04 152.385 665.788 152.664L666.47 152.906C667.57 153.317 668.348 153.786 668.802 154.314C669.272 154.842 669.506 155.451 669.506 156.14C669.506 156.697 669.345 157.218 669.022 157.702C668.7 158.171 668.223 158.553 667.592 158.846C666.962 159.139 666.17 159.286 665.216 159.286ZM678.46 153.852C678.46 155.289 678.746 156.345 679.318 157.02C679.905 157.695 680.638 158.032 681.518 158.032C682.002 158.032 682.442 157.929 682.838 157.724C683.234 157.504 683.645 157.145 684.07 156.646V150.728C683.542 150.259 683.073 149.943 682.662 149.782C682.266 149.606 681.878 149.518 681.496 149.518C680.954 149.518 680.448 149.672 679.978 149.98C679.524 150.288 679.157 150.765 678.878 151.41C678.6 152.041 678.46 152.855 678.46 153.852ZM680.968 159.286C680.074 159.286 679.289 159.059 678.614 158.604C677.94 158.149 677.412 157.519 677.03 156.712C676.664 155.905 676.48 154.967 676.48 153.896C676.48 152.767 676.678 151.784 677.074 150.948C677.485 150.097 678.042 149.437 678.746 148.968C679.45 148.499 680.235 148.264 681.1 148.264C681.614 148.264 682.12 148.374 682.618 148.594C683.132 148.814 683.638 149.21 684.136 149.782L685.632 148.264L685.984 148.484L685.918 151.454V159.594C685.918 160.181 685.918 160.775 685.918 161.376C685.933 161.977 685.948 162.579 685.962 163.18L687.722 163.488V164.258H682.068V163.488L684.092 163.158C684.107 162.557 684.114 161.955 684.114 161.354C684.129 160.767 684.136 160.181 684.136 159.594V157.57C683.711 158.157 683.234 158.589 682.706 158.868C682.193 159.147 681.614 159.286 680.968 159.286ZM692.642 159.286C691.748 159.286 691.044 158.993 690.53 158.406C690.017 157.805 689.768 156.778 689.782 155.326L689.848 149.848L688.286 149.518V148.726L691.52 148.418L691.74 148.638L691.63 151.718V155.128C691.63 156.081 691.777 156.756 692.07 157.152C692.364 157.533 692.804 157.724 693.39 157.724C694.417 157.724 695.444 157.247 696.47 156.294L696.536 149.826L694.974 149.518V148.726L698.164 148.418L698.384 148.638L698.318 151.718V157.9L699.814 158.208V159L696.756 159.176L696.536 157.218C695.95 157.937 695.319 158.465 694.644 158.802C693.984 159.125 693.317 159.286 692.642 159.286ZM706.266 149.276C705.855 149.276 705.437 149.393 705.012 149.628C704.601 149.863 704.242 150.237 703.934 150.75C703.64 151.263 703.45 151.945 703.362 152.796H707.366C707.894 152.796 708.238 152.686 708.4 152.466C708.576 152.246 708.664 151.975 708.664 151.652C708.664 151.227 708.554 150.838 708.334 150.486C708.128 150.119 707.842 149.826 707.476 149.606C707.124 149.386 706.72 149.276 706.266 149.276ZM706.244 159.286C704.762 159.286 703.574 158.809 702.68 157.856C701.785 156.888 701.338 155.561 701.338 153.874C701.338 152.745 701.565 151.762 702.02 150.926C702.489 150.09 703.105 149.437 703.868 148.968C704.645 148.499 705.488 148.264 706.398 148.264C707.16 148.264 707.85 148.433 708.466 148.77C709.082 149.107 709.573 149.591 709.94 150.222C710.306 150.838 710.49 151.593 710.49 152.488C710.49 152.737 710.475 152.972 710.446 153.192C710.416 153.397 710.38 153.573 710.336 153.72H703.318C703.347 155.069 703.684 156.096 704.33 156.8C704.975 157.504 705.826 157.856 706.882 157.856C707.586 157.856 708.172 157.717 708.642 157.438C709.111 157.145 709.544 156.771 709.94 156.316L710.468 156.734C710.057 157.511 709.5 158.135 708.796 158.604C708.092 159.059 707.241 159.286 706.244 159.286ZM717.247 159V158.208L719.007 157.9C719.022 157.299 719.029 156.712 719.029 156.14C719.044 155.553 719.051 154.967 719.051 154.38V144.722L717.247 144.502V143.732L720.679 142.742L720.987 142.918L720.899 146.042V154.38C720.899 154.967 720.899 155.553 720.899 156.14C720.914 156.727 720.929 157.313 720.943 157.9L722.703 158.208V159H717.247ZM729.168 149.276C728.757 149.276 728.339 149.393 727.914 149.628C727.503 149.863 727.144 150.237 726.836 150.75C726.543 151.263 726.352 151.945 726.264 152.796H730.268C730.796 152.796 731.141 152.686 731.302 152.466C731.478 152.246 731.566 151.975 731.566 151.652C731.566 151.227 731.456 150.838 731.236 150.486C731.031 150.119 730.745 149.826 730.378 149.606C730.026 149.386 729.623 149.276 729.168 149.276ZM729.146 159.286C727.665 159.286 726.477 158.809 725.582 157.856C724.687 156.888 724.24 155.561 724.24 153.874C724.24 152.745 724.467 151.762 724.922 150.926C725.391 150.09 726.007 149.437 726.77 148.968C727.547 148.499 728.391 148.264 729.3 148.264C730.063 148.264 730.752 148.433 731.368 148.77C731.984 149.107 732.475 149.591 732.842 150.222C733.209 150.838 733.392 151.593 733.392 152.488C733.392 152.737 733.377 152.972 733.348 153.192C733.319 153.397 733.282 153.573 733.238 153.72H726.22C726.249 155.069 726.587 156.096 727.232 156.8C727.877 157.504 728.728 157.856 729.784 157.856C730.488 157.856 731.075 157.717 731.544 157.438C732.013 157.145 732.446 156.771 732.842 156.316L733.37 156.734C732.959 157.511 732.402 158.135 731.698 158.604C730.994 159.059 730.143 159.286 729.146 159.286ZM738.865 159.286C738.249 159.286 737.684 159.213 737.171 159.066C736.658 158.934 736.13 158.729 735.587 158.45L735.499 156.03H736.709L737.127 157.944C737.64 158.179 738.234 158.296 738.909 158.296C739.745 158.296 740.361 158.142 740.757 157.834C741.168 157.526 741.373 157.123 741.373 156.624C741.373 156.155 741.204 155.781 740.867 155.502C740.53 155.209 740.016 154.945 739.327 154.71L738.315 154.336C737.508 154.043 736.863 153.661 736.379 153.192C735.895 152.723 735.653 152.114 735.653 151.366C735.653 150.823 735.8 150.317 736.093 149.848C736.386 149.379 736.819 148.997 737.391 148.704C737.963 148.411 738.66 148.264 739.481 148.264C740.082 148.264 740.625 148.345 741.109 148.506C741.608 148.653 742.092 148.873 742.561 149.166L742.473 151.41H741.329L740.977 149.65C740.478 149.401 739.972 149.276 739.459 149.276C738.784 149.276 738.271 149.415 737.919 149.694C737.582 149.958 737.413 150.317 737.413 150.772C737.413 151.256 737.56 151.623 737.853 151.872C738.161 152.121 738.689 152.385 739.437 152.664L740.119 152.906C741.219 153.317 741.996 153.786 742.451 154.314C742.92 154.842 743.155 155.451 743.155 156.14C743.155 156.697 742.994 157.218 742.671 157.702C742.348 158.171 741.872 158.553 741.241 158.846C740.61 159.139 739.818 159.286 738.865 159.286ZM754.353 154.6C755.057 154.6 755.607 154.336 756.003 153.808C756.399 153.28 756.597 152.613 756.597 151.806C756.597 151.029 756.406 150.398 756.025 149.914C755.658 149.415 755.13 149.166 754.441 149.166C753.751 149.166 753.209 149.423 752.813 149.936C752.417 150.435 752.219 151.087 752.219 151.894C752.219 152.701 752.402 153.353 752.769 153.852C753.15 154.351 753.678 154.6 754.353 154.6ZM754.397 155.48C753.825 155.48 753.282 155.399 752.769 155.238C752.402 155.707 752.219 156.177 752.219 156.646C752.219 156.939 752.299 157.174 752.461 157.35C752.637 157.526 752.981 157.614 753.495 157.614H756.377C757.594 157.614 758.489 157.863 759.061 158.362C759.633 158.861 759.919 159.557 759.919 160.452C759.919 161.083 759.713 161.691 759.303 162.278C758.907 162.865 758.305 163.341 757.499 163.708C756.692 164.075 755.687 164.258 754.485 164.258C752.886 164.258 751.727 164.009 751.009 163.51C750.29 163.011 749.931 162.373 749.931 161.596C749.931 161.127 750.085 160.687 750.393 160.276C750.715 159.88 751.28 159.484 752.087 159.088C751.119 158.824 750.635 158.267 750.635 157.416C750.635 157.064 750.745 156.697 750.965 156.316C751.199 155.935 751.588 155.487 752.131 154.974C751.603 154.681 751.185 154.277 750.877 153.764C750.583 153.251 750.437 152.62 750.437 151.872C750.437 150.713 750.811 149.826 751.559 149.21C752.321 148.579 753.275 148.264 754.419 148.264C755.577 148.264 756.509 148.55 757.213 149.122L759.699 148.264L760.029 148.484V149.87H757.873C758.21 150.413 758.379 151.08 758.379 151.872C758.379 153.031 757.997 153.925 757.235 154.556C756.487 155.172 755.541 155.48 754.397 155.48ZM751.735 161.244C751.735 161.963 751.991 162.476 752.505 162.784C753.018 163.092 753.707 163.246 754.573 163.246C755.775 163.246 756.692 163.026 757.323 162.586C757.953 162.161 758.269 161.64 758.269 161.024C758.269 160.54 758.1 160.129 757.763 159.792C757.425 159.469 756.861 159.308 756.069 159.308H753.495C753.348 159.308 753.194 159.301 753.033 159.286C752.886 159.286 752.739 159.279 752.593 159.264C752.285 159.587 752.065 159.902 751.933 160.21C751.801 160.533 751.735 160.877 751.735 161.244ZM766.229 149.276C765.818 149.276 765.4 149.393 764.975 149.628C764.564 149.863 764.205 150.237 763.897 150.75C763.603 151.263 763.413 151.945 763.325 152.796H767.329C767.857 152.796 768.201 152.686 768.363 152.466C768.539 152.246 768.627 151.975 768.627 151.652C768.627 151.227 768.517 150.838 768.297 150.486C768.091 150.119 767.805 149.826 767.439 149.606C767.087 149.386 766.683 149.276 766.229 149.276ZM766.207 159.286C764.725 159.286 763.537 158.809 762.643 157.856C761.748 156.888 761.301 155.561 761.301 153.874C761.301 152.745 761.528 151.762 761.983 150.926C762.452 150.09 763.068 149.437 763.831 148.968C764.608 148.499 765.451 148.264 766.361 148.264C767.123 148.264 767.813 148.433 768.429 148.77C769.045 149.107 769.536 149.591 769.903 150.222C770.269 150.838 770.453 151.593 770.453 152.488C770.453 152.737 770.438 152.972 770.409 153.192C770.379 153.397 770.343 153.573 770.299 153.72H763.281C763.31 155.069 763.647 156.096 764.293 156.8C764.938 157.504 765.789 157.856 766.845 157.856C767.549 157.856 768.135 157.717 768.605 157.438C769.074 157.145 769.507 156.771 769.903 156.316L770.431 156.734C770.02 157.511 769.463 158.135 768.759 158.604C768.055 159.059 767.204 159.286 766.207 159.286ZM772.405 159V158.208L774.033 157.9C774.048 157.343 774.055 156.741 774.055 156.096C774.07 155.451 774.077 154.879 774.077 154.38V153.324C774.077 152.723 774.07 152.224 774.055 151.828C774.055 151.432 774.041 151.014 774.011 150.574L772.273 150.376V149.606L775.353 148.264L775.683 148.484L775.859 150.244C776.402 149.657 777.025 149.181 777.729 148.814C778.433 148.447 779.123 148.264 779.797 148.264C780.751 148.264 781.455 148.587 781.909 149.232C782.379 149.863 782.613 150.897 782.613 152.334V154.38C782.613 154.879 782.613 155.451 782.613 156.096C782.628 156.741 782.643 157.343 782.657 157.9L784.197 158.208V159H779.093V158.208L780.721 157.9C780.736 157.357 780.743 156.763 780.743 156.118C780.758 155.458 780.765 154.879 780.765 154.38V152.51C780.765 151.498 780.619 150.801 780.325 150.42C780.047 150.039 779.585 149.848 778.939 149.848C778.441 149.848 777.957 149.951 777.487 150.156C777.018 150.361 776.505 150.699 775.947 151.168V154.38C775.947 154.864 775.947 155.436 775.947 156.096C775.962 156.741 775.977 157.343 775.991 157.9L777.509 158.208V159H772.405ZM789.267 159.286C788.651 159.286 788.087 159.213 787.573 159.066C787.06 158.934 786.532 158.729 785.989 158.45L785.901 156.03H787.111L787.529 157.944C788.043 158.179 788.637 158.296 789.311 158.296C790.147 158.296 790.763 158.142 791.159 157.834C791.57 157.526 791.775 157.123 791.775 156.624C791.775 156.155 791.607 155.781 791.269 155.502C790.932 155.209 790.419 154.945 789.729 154.71L788.717 154.336C787.911 154.043 787.265 153.661 786.781 153.192C786.297 152.723 786.055 152.114 786.055 151.366C786.055 150.823 786.202 150.317 786.495 149.848C786.789 149.379 787.221 148.997 787.793 148.704C788.365 148.411 789.062 148.264 789.883 148.264C790.485 148.264 791.027 148.345 791.511 148.506C792.01 148.653 792.494 148.873 792.963 149.166L792.875 151.41H791.731L791.379 149.65C790.881 149.401 790.375 149.276 789.861 149.276C789.187 149.276 788.673 149.415 788.321 149.694C787.984 149.958 787.815 150.317 787.815 150.772C787.815 151.256 787.962 151.623 788.255 151.872C788.563 152.121 789.091 152.385 789.839 152.664L790.521 152.906C791.621 153.317 792.399 153.786 792.853 154.314C793.323 154.842 793.557 155.451 793.557 156.14C793.557 156.697 793.396 157.218 793.073 157.702C792.751 158.171 792.274 158.553 791.643 158.846C791.013 159.139 790.221 159.286 789.267 159.286ZM802.511 153.83C802.511 155.267 802.797 156.331 803.369 157.02C803.956 157.695 804.689 158.032 805.569 158.032C806.053 158.032 806.478 157.937 806.845 157.746C807.226 157.541 807.622 157.211 808.033 156.756V150.662C807.534 150.222 807.087 149.921 806.691 149.76C806.295 149.599 805.914 149.518 805.547 149.518C805.004 149.518 804.498 149.672 804.029 149.98C803.574 150.273 803.208 150.743 802.929 151.388C802.65 152.019 802.511 152.833 802.511 153.83ZM808.253 159.22L808.099 157.702C807.718 158.201 807.278 158.589 806.779 158.868C806.295 159.147 805.708 159.286 805.019 159.286C804.124 159.286 803.34 159.059 802.665 158.604C801.99 158.149 801.462 157.519 801.081 156.712C800.714 155.891 800.531 154.945 800.531 153.874C800.531 152.745 800.736 151.762 801.147 150.926C801.558 150.09 802.115 149.437 802.819 148.968C803.523 148.499 804.322 148.264 805.217 148.264C805.73 148.264 806.222 148.367 806.691 148.572C807.175 148.777 807.644 149.151 808.099 149.694V144.722L806.229 144.502V143.732L809.661 142.742L809.969 142.918L809.881 146.042V157.944L811.663 158.208V159L808.253 159.22ZM817.941 149.276C817.531 149.276 817.113 149.393 816.687 149.628C816.277 149.863 815.917 150.237 815.609 150.75C815.316 151.263 815.125 151.945 815.037 152.796H819.041C819.569 152.796 819.914 152.686 820.075 152.466C820.251 152.246 820.339 151.975 820.339 151.652C820.339 151.227 820.229 150.838 820.009 150.486C819.804 150.119 819.518 149.826 819.151 149.606C818.799 149.386 818.396 149.276 817.941 149.276ZM817.919 159.286C816.438 159.286 815.25 158.809 814.355 157.856C813.461 156.888 813.013 155.561 813.013 153.874C813.013 152.745 813.241 151.762 813.695 150.926C814.165 150.09 814.781 149.437 815.543 148.968C816.321 148.499 817.164 148.264 818.073 148.264C818.836 148.264 819.525 148.433 820.141 148.77C820.757 149.107 821.249 149.591 821.615 150.222C821.982 150.838 822.165 151.593 822.165 152.488C822.165 152.737 822.151 152.972 822.121 153.192C822.092 153.397 822.055 153.573 822.011 153.72H814.993C815.023 155.069 815.36 156.096 816.005 156.8C816.651 157.504 817.501 157.856 818.557 157.856C819.261 157.856 819.848 157.717 820.317 157.438C820.787 157.145 821.219 156.771 821.615 156.316L822.143 156.734C821.733 157.511 821.175 158.135 820.471 158.604C819.767 159.059 818.917 159.286 817.919 159.286ZM839.021 154.754H836.711V159H834.885V154.754H828.901V153.588L835.435 144.59H836.711V153.368H839.021V154.754ZM830.221 153.368H834.885V146.878L830.221 153.368ZM842.299 151.916C842.299 153.617 842.416 154.93 842.651 155.854C842.9 156.778 843.223 157.416 843.619 157.768C844.015 158.12 844.44 158.296 844.895 158.296C845.335 158.296 845.746 158.12 846.127 157.768C846.523 157.401 846.838 156.756 847.073 155.832C847.322 154.908 847.447 153.603 847.447 151.916C847.447 150.2 847.322 148.88 847.073 147.956C846.838 147.032 846.523 146.394 846.127 146.042C845.746 145.675 845.335 145.492 844.895 145.492C844.558 145.492 844.228 145.587 843.905 145.778C843.597 145.969 843.318 146.299 843.069 146.768C842.834 147.237 842.644 147.89 842.497 148.726C842.365 149.562 842.299 150.625 842.299 151.916ZM844.895 144.502C845.672 144.502 846.406 144.744 847.095 145.228C847.799 145.697 848.371 146.475 848.811 147.56C849.266 148.645 849.493 150.097 849.493 151.916C849.493 153.72 849.266 155.165 848.811 156.25C848.371 157.321 847.799 158.098 847.095 158.582C846.406 159.051 845.672 159.286 844.895 159.286C844.118 159.286 843.37 159.051 842.651 158.582C841.947 158.098 841.375 157.321 840.935 156.25C840.495 155.165 840.275 153.72 840.275 151.916C840.275 150.097 840.495 148.645 840.935 147.56C841.375 146.475 841.947 145.697 842.651 145.228C843.37 144.744 844.118 144.502 844.895 144.502ZM581.152 187.22C580.624 187.22 580.184 187.066 579.832 186.758C579.48 186.45 579.26 186.039 579.172 185.526C578.571 186.113 578.043 186.553 577.588 186.846C577.133 187.139 576.583 187.286 575.938 187.286C575.131 187.286 574.435 187.059 573.848 186.604C573.276 186.135 572.99 185.445 572.99 184.536C572.99 184.111 573.085 183.715 573.276 183.348C573.481 182.981 573.848 182.622 574.376 182.27C574.904 181.918 575.659 181.566 576.642 181.214C576.979 181.097 577.368 180.972 577.808 180.84C578.248 180.708 578.688 180.591 579.128 180.488V179.938C579.128 178.867 578.967 178.156 578.644 177.804C578.321 177.452 577.793 177.276 577.06 177.276C576.899 177.276 576.715 177.283 576.51 177.298C576.319 177.313 576.107 177.349 575.872 177.408L575.454 178.838C575.249 179.542 574.867 179.894 574.31 179.894C573.694 179.894 573.349 179.593 573.276 178.992C573.481 178.156 573.965 177.496 574.728 177.012C575.505 176.513 576.451 176.264 577.566 176.264C578.725 176.264 579.583 176.557 580.14 177.144C580.697 177.716 580.976 178.699 580.976 180.092V184.778C580.976 185.247 581.049 185.585 581.196 185.79C581.343 185.981 581.533 186.076 581.768 186.076C581.959 186.076 582.12 186.032 582.252 185.944C582.384 185.856 582.509 185.739 582.626 185.592L583.066 186.076C582.802 186.501 582.509 186.802 582.186 186.978C581.878 187.139 581.533 187.22 581.152 187.22ZM574.948 184.206C574.948 184.793 575.117 185.211 575.454 185.46C575.791 185.709 576.209 185.834 576.708 185.834C576.928 185.834 577.133 185.805 577.324 185.746C577.529 185.687 577.771 185.577 578.05 185.416C578.329 185.24 578.688 184.991 579.128 184.668V181.302C578.747 181.405 578.373 181.522 578.006 181.654C577.639 181.771 577.339 181.874 577.104 181.962C576.473 182.211 576.004 182.468 575.696 182.732C575.388 182.996 575.183 183.253 575.08 183.502C574.992 183.751 574.948 183.986 574.948 184.206ZM583.966 187V186.208L585.594 185.9C585.609 185.343 585.616 184.741 585.616 184.096C585.631 183.451 585.638 182.879 585.638 182.38V181.324C585.638 180.723 585.631 180.224 585.616 179.828C585.616 179.432 585.601 179.014 585.572 178.574L583.834 178.376V177.606L586.914 176.264L587.244 176.484L587.42 178.244C587.963 177.657 588.586 177.181 589.29 176.814C589.994 176.447 590.683 176.264 591.358 176.264C592.311 176.264 593.015 176.587 593.47 177.232C593.939 177.863 594.174 178.897 594.174 180.334V182.38C594.174 182.879 594.174 183.451 594.174 184.096C594.189 184.741 594.203 185.343 594.218 185.9L595.758 186.208V187H590.654V186.208L592.282 185.9C592.297 185.357 592.304 184.763 592.304 184.118C592.319 183.458 592.326 182.879 592.326 182.38V180.51C592.326 179.498 592.179 178.801 591.886 178.42C591.607 178.039 591.145 177.848 590.5 177.848C590.001 177.848 589.517 177.951 589.048 178.156C588.579 178.361 588.065 178.699 587.508 179.168V182.38C587.508 182.864 587.508 183.436 587.508 184.096C587.523 184.741 587.537 185.343 587.552 185.9L589.07 186.208V187H583.966ZM600.828 187.286C600.212 187.286 599.647 187.213 599.134 187.066C598.62 186.934 598.092 186.729 597.55 186.45L597.462 184.03H598.672L599.09 185.944C599.603 186.179 600.197 186.296 600.872 186.296C601.708 186.296 602.324 186.142 602.72 185.834C603.13 185.526 603.336 185.123 603.336 184.624C603.336 184.155 603.167 183.781 602.83 183.502C602.492 183.209 601.979 182.945 601.29 182.71L600.278 182.336C599.471 182.043 598.826 181.661 598.342 181.192C597.858 180.723 597.616 180.114 597.616 179.366C597.616 178.823 597.762 178.317 598.056 177.848C598.349 177.379 598.782 176.997 599.354 176.704C599.926 176.411 600.622 176.264 601.444 176.264C602.045 176.264 602.588 176.345 603.072 176.506C603.57 176.653 604.054 176.873 604.524 177.166L604.436 179.41H603.292L602.94 177.65C602.441 177.401 601.935 177.276 601.422 177.276C600.747 177.276 600.234 177.415 599.882 177.694C599.544 177.958 599.376 178.317 599.376 178.772C599.376 179.256 599.522 179.623 599.816 179.872C600.124 180.121 600.652 180.385 601.4 180.664L602.082 180.906C603.182 181.317 603.959 181.786 604.414 182.314C604.883 182.842 605.118 183.451 605.118 184.14C605.118 184.697 604.956 185.218 604.634 185.702C604.311 186.171 603.834 186.553 603.204 186.846C602.573 187.139 601.781 187.286 600.828 187.286ZM617.02 177.276C616.609 177.276 616.191 177.393 615.766 177.628C615.355 177.863 614.996 178.237 614.688 178.75C614.394 179.263 614.204 179.945 614.116 180.796H618.12C618.648 180.796 618.992 180.686 619.154 180.466C619.33 180.246 619.418 179.975 619.418 179.652C619.418 179.227 619.308 178.838 619.088 178.486C618.882 178.119 618.596 177.826 618.23 177.606C617.878 177.386 617.474 177.276 617.02 177.276ZM616.998 187.286C615.516 187.286 614.328 186.809 613.434 185.856C612.539 184.888 612.092 183.561 612.092 181.874C612.092 180.745 612.319 179.762 612.774 178.926C613.243 178.09 613.859 177.437 614.622 176.968C615.399 176.499 616.242 176.264 617.152 176.264C617.914 176.264 618.604 176.433 619.22 176.77C619.836 177.107 620.327 177.591 620.694 178.222C621.06 178.838 621.244 179.593 621.244 180.488C621.244 180.737 621.229 180.972 621.2 181.192C621.17 181.397 621.134 181.573 621.09 181.72H614.072C614.101 183.069 614.438 184.096 615.084 184.8C615.729 185.504 616.58 185.856 617.636 185.856C618.34 185.856 618.926 185.717 619.396 185.438C619.865 185.145 620.298 184.771 620.694 184.316L621.222 184.734C620.811 185.511 620.254 186.135 619.55 186.604C618.846 187.059 617.995 187.286 616.998 187.286ZM616.052 174.328C616.668 173.287 617.32 172.253 618.01 171.226C618.215 170.889 618.413 170.654 618.604 170.522C618.809 170.39 619.007 170.324 619.198 170.324C619.403 170.324 619.594 170.39 619.77 170.522C619.946 170.654 620.034 170.867 620.034 171.16C620.034 171.307 619.982 171.475 619.88 171.666C619.792 171.842 619.594 172.077 619.286 172.37C618.831 172.781 618.384 173.184 617.944 173.58C617.518 173.961 617.078 174.35 616.624 174.746L616.052 174.328ZM626.826 187.286C626.064 187.286 625.455 187.081 625 186.67C624.546 186.259 624.318 185.629 624.318 184.778C624.318 184.499 624.318 184.228 624.318 183.964C624.333 183.685 624.34 183.333 624.34 182.908V177.716H622.514V176.748L624.472 176.506L625.044 173.558H626.364L626.232 176.55H629.202V177.716H626.21V184.536C626.21 185.093 626.32 185.504 626.54 185.768C626.76 186.017 627.054 186.142 627.42 186.142C627.67 186.142 627.904 186.091 628.124 185.988C628.359 185.885 628.616 185.739 628.894 185.548L629.422 186.12C628.821 186.897 627.956 187.286 626.826 187.286ZM638.623 187.22C638.095 187.22 637.655 187.066 637.303 186.758C636.951 186.45 636.731 186.039 636.643 185.526C636.041 186.113 635.513 186.553 635.059 186.846C634.604 187.139 634.054 187.286 633.409 187.286C632.602 187.286 631.905 187.059 631.319 186.604C630.747 186.135 630.461 185.445 630.461 184.536C630.461 184.111 630.556 183.715 630.747 183.348C630.952 182.981 631.319 182.622 631.847 182.27C632.375 181.918 633.13 181.566 634.113 181.214C634.45 181.097 634.839 180.972 635.279 180.84C635.719 180.708 636.159 180.591 636.599 180.488V179.938C636.599 178.867 636.437 178.156 636.115 177.804C635.792 177.452 635.264 177.276 634.531 177.276C634.369 177.276 634.186 177.283 633.981 177.298C633.79 177.313 633.577 177.349 633.343 177.408L632.925 178.838C632.719 179.542 632.338 179.894 631.781 179.894C631.165 179.894 630.82 179.593 630.747 178.992C630.952 178.156 631.436 177.496 632.199 177.012C632.976 176.513 633.922 176.264 635.037 176.264C636.195 176.264 637.053 176.557 637.611 177.144C638.168 177.716 638.447 178.699 638.447 180.092V184.778C638.447 185.247 638.52 185.585 638.667 185.79C638.813 185.981 639.004 186.076 639.239 186.076C639.429 186.076 639.591 186.032 639.723 185.944C639.855 185.856 639.979 185.739 640.097 185.592L640.537 186.076C640.273 186.501 639.979 186.802 639.657 186.978C639.349 187.139 639.004 187.22 638.623 187.22ZM632.419 184.206C632.419 184.793 632.587 185.211 632.925 185.46C633.262 185.709 633.68 185.834 634.179 185.834C634.399 185.834 634.604 185.805 634.795 185.746C635 185.687 635.242 185.577 635.521 185.416C635.799 185.24 636.159 184.991 636.599 184.668V181.302C636.217 181.405 635.843 181.522 635.477 181.654C635.11 181.771 634.809 181.874 634.575 181.962C633.944 182.211 633.475 182.468 633.167 182.732C632.859 182.996 632.653 183.253 632.551 183.502C632.463 183.751 632.419 183.986 632.419 184.206ZM641.434 187V186.208L643.084 185.9C643.099 185.343 643.106 184.741 643.106 184.096C643.121 183.436 643.128 182.864 643.128 182.38V181.346C643.128 180.745 643.121 180.246 643.106 179.85C643.106 179.439 643.091 179.014 643.062 178.574L641.302 178.376V177.606L644.69 176.264L645.02 176.484L644.954 179.476V182.38C644.954 182.864 644.954 183.436 644.954 184.096C644.969 184.741 644.983 185.343 644.998 185.9L646.538 186.208V187H641.434ZM644.03 173.844C643.619 173.844 643.267 173.712 642.974 173.448C642.695 173.184 642.556 172.847 642.556 172.436C642.556 172.011 642.695 171.673 642.974 171.424C643.267 171.16 643.619 171.028 644.03 171.028C644.441 171.028 644.785 171.16 645.064 171.424C645.357 171.673 645.504 172.011 645.504 172.436C645.504 172.847 645.357 173.184 645.064 173.448C644.785 173.712 644.441 173.844 644.03 173.844ZM653.135 177.276C652.724 177.276 652.306 177.393 651.881 177.628C651.47 177.863 651.111 178.237 650.803 178.75C650.509 179.263 650.319 179.945 650.231 180.796H654.235C654.763 180.796 655.107 180.686 655.269 180.466C655.445 180.246 655.533 179.975 655.533 179.652C655.533 179.227 655.423 178.838 655.203 178.486C654.997 178.119 654.711 177.826 654.345 177.606C653.993 177.386 653.589 177.276 653.135 177.276ZM653.113 187.286C651.631 187.286 650.443 186.809 649.549 185.856C648.654 184.888 648.207 183.561 648.207 181.874C648.207 180.745 648.434 179.762 648.889 178.926C649.358 178.09 649.974 177.437 650.737 176.968C651.514 176.499 652.357 176.264 653.267 176.264C654.029 176.264 654.719 176.433 655.335 176.77C655.951 177.107 656.442 177.591 656.809 178.222C657.175 178.838 657.359 179.593 657.359 180.488C657.359 180.737 657.344 180.972 657.315 181.192C657.285 181.397 657.249 181.573 657.205 181.72H650.187C650.216 183.069 650.553 184.096 651.199 184.8C651.844 185.504 652.695 185.856 653.751 185.856C654.455 185.856 655.041 185.717 655.511 185.438C655.98 185.145 656.413 184.771 656.809 184.316L657.337 184.734C656.926 185.511 656.369 186.135 655.665 186.604C654.961 187.059 654.11 187.286 653.113 187.286ZM659.312 187V186.208L660.94 185.9C660.954 185.343 660.962 184.741 660.962 184.096C660.976 183.451 660.984 182.879 660.984 182.38V181.324C660.984 180.723 660.976 180.224 660.962 179.828C660.962 179.432 660.947 179.014 660.918 178.574L659.18 178.376V177.606L662.26 176.264L662.59 176.484L662.766 178.244C663.308 177.657 663.932 177.181 664.636 176.814C665.34 176.447 666.029 176.264 666.704 176.264C667.657 176.264 668.361 176.587 668.816 177.232C669.285 177.863 669.52 178.897 669.52 180.334V182.38C669.52 182.879 669.52 183.451 669.52 184.096C669.534 184.741 669.549 185.343 669.564 185.9L671.104 186.208V187H666V186.208L667.628 185.9C667.642 185.357 667.65 184.763 667.65 184.118C667.664 183.458 667.672 182.879 667.672 182.38V180.51C667.672 179.498 667.525 178.801 667.232 178.42C666.953 178.039 666.491 177.848 665.846 177.848C665.347 177.848 664.863 177.951 664.394 178.156C663.924 178.361 663.411 178.699 662.854 179.168V182.38C662.854 182.864 662.854 183.436 662.854 184.096C662.868 184.741 662.883 185.343 662.898 185.9L664.416 186.208V187H659.312ZM676.176 187.286C675.413 187.286 674.805 187.081 674.35 186.67C673.895 186.259 673.668 185.629 673.668 184.778C673.668 184.499 673.668 184.228 673.668 183.964C673.683 183.685 673.69 183.333 673.69 182.908V177.716H671.864V176.748L673.822 176.506L674.394 173.558H675.714L675.582 176.55H678.552V177.716H675.56V184.536C675.56 185.093 675.67 185.504 675.89 185.768C676.11 186.017 676.403 186.142 676.77 186.142C677.019 186.142 677.254 186.091 677.474 185.988C677.709 185.885 677.965 185.739 678.244 185.548L678.772 186.12C678.171 186.897 677.305 187.286 676.176 187.286Z" fill="white"/>
<path d="M687.612 206.432V204.95H694.832V206.432L692.742 206.926L686.586 223.228H684.952L678.036 206.812L675.984 206.432V204.95H685.18V206.432L681.836 206.926L686.472 219.086L690.69 206.964L687.612 206.432ZM696.5 223V221.632L699.35 221.1C699.375 220.137 699.388 219.099 699.388 217.984C699.413 216.844 699.426 215.856 699.426 215.02V213.234C699.426 212.195 699.413 211.334 699.388 210.65C699.388 209.941 699.363 209.206 699.312 208.446L696.272 208.104V206.774L702.124 204.456L702.694 204.836L702.58 210.004V215.02C702.58 215.856 702.58 216.844 702.58 217.984C702.605 219.099 702.631 220.137 702.656 221.1L705.316 221.632V223H696.5ZM700.984 200.276C700.275 200.276 699.667 200.048 699.16 199.592C698.679 199.136 698.438 198.553 698.438 197.844C698.438 197.109 698.679 196.527 699.16 196.096C699.667 195.64 700.275 195.412 700.984 195.412C701.693 195.412 702.289 195.64 702.77 196.096C703.277 196.527 703.53 197.109 703.53 197.844C703.53 198.553 703.277 199.136 702.77 199.592C702.289 200.048 701.693 200.276 700.984 200.276ZM716.71 206.204C716.001 206.204 715.279 206.407 714.544 206.812C713.835 207.217 713.214 207.863 712.682 208.75C712.176 209.637 711.846 210.815 711.694 212.284H718.61C719.522 212.284 720.118 212.094 720.396 211.714C720.7 211.334 720.852 210.865 720.852 210.308C720.852 209.573 720.662 208.902 720.282 208.294C719.928 207.661 719.434 207.154 718.8 206.774C718.192 206.394 717.496 206.204 716.71 206.204ZM716.672 223.494C714.114 223.494 712.062 222.671 710.516 221.024C708.971 219.352 708.198 217.059 708.198 214.146C708.198 212.195 708.591 210.498 709.376 209.054C710.187 207.61 711.251 206.483 712.568 205.672C713.911 204.861 715.368 204.456 716.938 204.456C718.256 204.456 719.446 204.747 720.51 205.33C721.574 205.913 722.423 206.749 723.056 207.838C723.69 208.902 724.006 210.207 724.006 211.752C724.006 212.183 723.981 212.588 723.93 212.968C723.88 213.323 723.816 213.627 723.74 213.88H711.618C711.669 216.211 712.252 217.984 713.366 219.2C714.481 220.416 715.95 221.024 717.774 221.024C718.99 221.024 720.004 220.783 720.814 220.302C721.625 219.795 722.372 219.149 723.056 218.364L723.968 219.086C723.259 220.429 722.296 221.505 721.08 222.316C719.864 223.101 718.395 223.494 716.672 223.494ZM734.333 223.494C732.788 223.494 731.572 222.987 730.685 221.974C729.799 220.935 729.368 219.162 729.393 216.654L729.507 207.192L726.809 206.622V205.254L732.395 204.722L732.775 205.102L732.585 210.422V216.312C732.585 217.959 732.839 219.124 733.345 219.808C733.852 220.467 734.612 220.796 735.625 220.796C737.399 220.796 739.172 219.973 740.945 218.326L741.059 207.154L738.361 206.622V205.254L743.871 204.722L744.251 205.102L744.137 210.422V221.1L746.721 221.632V223L741.439 223.304L741.059 219.922C740.046 221.163 738.957 222.075 737.791 222.658C736.651 223.215 735.499 223.494 734.333 223.494ZM760.022 206.432V204.95H767.128V206.432L764.886 206.85L759.452 213.538L764.734 221.1L767.622 221.632V223H758.35V221.632L761.048 221.138L757.324 215.704L753.144 221.138L755.994 221.632V223H748.394V221.632L750.826 221.176L756.374 214.298L751.282 206.85L748.66 206.432V204.95H757.134V206.432L754.816 206.85L758.464 212.132L762.53 206.926L760.022 206.432Z" fill="white"/>
<path d="M664.183 571.294H662.291C662.276 572.262 662.262 573.23 662.247 574.198C662.247 575.151 662.247 576.149 662.247 577.19H663.941C665.129 577.19 666.002 576.904 666.559 576.332C667.131 575.76 667.417 575.034 667.417 574.154C667.417 573.23 667.16 572.526 666.647 572.042C666.134 571.543 665.312 571.294 664.183 571.294ZM658.089 571.184V570.282H664.249C665.936 570.282 667.248 570.619 668.187 571.294C669.126 571.969 669.595 572.915 669.595 574.132C669.595 574.983 669.287 575.76 668.671 576.464C668.055 577.168 667.131 577.63 665.899 577.85C666.544 577.982 667.072 578.268 667.483 578.708C667.908 579.133 668.246 579.779 668.495 580.644L669.441 583.9L671.135 584.098V585C670.915 585.059 670.666 585.11 670.387 585.154C670.123 585.198 669.822 585.22 669.485 585.22C668.796 585.22 668.275 585.117 667.923 584.912C667.586 584.707 667.351 584.34 667.219 583.812L666.339 580.292C666.207 579.691 666.016 579.243 665.767 578.95C665.518 578.642 665.195 578.437 664.799 578.334C664.418 578.231 663.926 578.18 663.325 578.18H662.247C662.247 579.236 662.247 580.226 662.247 581.15C662.262 582.074 662.276 582.976 662.291 583.856L664.315 584.098V585H658.089V584.098L660.113 583.856C660.142 582.932 660.157 581.993 660.157 581.04C660.157 580.087 660.157 579.133 660.157 578.18V577.102C660.157 576.149 660.157 575.203 660.157 574.264C660.157 573.311 660.142 572.365 660.113 571.426L658.089 571.184ZM677.264 585.286C676.414 585.286 675.6 585.088 674.822 584.692C674.06 584.281 673.436 583.673 672.952 582.866C672.468 582.045 672.226 581.033 672.226 579.83C672.226 578.613 672.468 577.593 672.952 576.772C673.436 575.936 674.06 575.313 674.822 574.902C675.6 574.477 676.414 574.264 677.264 574.264C678.115 574.264 678.922 574.477 679.684 574.902C680.462 575.313 681.092 575.936 681.576 576.772C682.075 577.593 682.324 578.613 682.324 579.83C682.324 581.033 682.075 582.045 681.576 582.866C681.092 583.673 680.462 584.281 679.684 584.692C678.922 585.088 678.115 585.286 677.264 585.286ZM677.264 584.296C678.218 584.296 678.951 583.922 679.464 583.174C679.978 582.411 680.234 581.297 680.234 579.83C680.234 578.349 679.978 577.219 679.464 576.442C678.951 575.665 678.218 575.276 677.264 575.276C676.311 575.276 675.578 575.665 675.064 576.442C674.566 577.219 674.316 578.349 674.316 579.83C674.316 581.297 674.566 582.411 675.064 583.174C675.578 583.922 676.311 584.296 677.264 584.296ZM688.525 580.6C689.229 580.6 689.779 580.336 690.175 579.808C690.571 579.28 690.769 578.613 690.769 577.806C690.769 577.029 690.578 576.398 690.197 575.914C689.83 575.415 689.302 575.166 688.613 575.166C687.923 575.166 687.381 575.423 686.985 575.936C686.589 576.435 686.391 577.087 686.391 577.894C686.391 578.701 686.574 579.353 686.941 579.852C687.322 580.351 687.85 580.6 688.525 580.6ZM688.569 581.48C687.997 581.48 687.454 581.399 686.941 581.238C686.574 581.707 686.391 582.177 686.391 582.646C686.391 582.939 686.471 583.174 686.633 583.35C686.809 583.526 687.153 583.614 687.667 583.614H690.549C691.766 583.614 692.661 583.863 693.233 584.362C693.805 584.861 694.091 585.557 694.091 586.452C694.091 587.083 693.885 587.691 693.475 588.278C693.079 588.865 692.477 589.341 691.671 589.708C690.864 590.075 689.859 590.258 688.657 590.258C687.058 590.258 685.899 590.009 685.181 589.51C684.462 589.011 684.103 588.373 684.103 587.596C684.103 587.127 684.257 586.687 684.565 586.276C684.887 585.88 685.452 585.484 686.259 585.088C685.291 584.824 684.807 584.267 684.807 583.416C684.807 583.064 684.917 582.697 685.137 582.316C685.371 581.935 685.76 581.487 686.303 580.974C685.775 580.681 685.357 580.277 685.049 579.764C684.755 579.251 684.609 578.62 684.609 577.872C684.609 576.713 684.983 575.826 685.731 575.21C686.493 574.579 687.447 574.264 688.591 574.264C689.749 574.264 690.681 574.55 691.385 575.122L693.871 574.264L694.201 574.484V575.87H692.045C692.382 576.413 692.551 577.08 692.551 577.872C692.551 579.031 692.169 579.925 691.407 580.556C690.659 581.172 689.713 581.48 688.569 581.48ZM685.907 587.244C685.907 587.963 686.163 588.476 686.677 588.784C687.19 589.092 687.879 589.246 688.745 589.246C689.947 589.246 690.864 589.026 691.495 588.586C692.125 588.161 692.441 587.64 692.441 587.024C692.441 586.54 692.272 586.129 691.935 585.792C691.597 585.469 691.033 585.308 690.241 585.308H687.667C687.52 585.308 687.366 585.301 687.205 585.286C687.058 585.286 686.911 585.279 686.765 585.264C686.457 585.587 686.237 585.902 686.105 586.21C685.973 586.533 685.907 586.877 685.907 587.244ZM700.4 575.276C699.99 575.276 699.572 575.393 699.146 575.628C698.736 575.863 698.376 576.237 698.068 576.75C697.775 577.263 697.584 577.945 697.496 578.796H701.5C702.028 578.796 702.373 578.686 702.534 578.466C702.71 578.246 702.798 577.975 702.798 577.652C702.798 577.227 702.688 576.838 702.468 576.486C702.263 576.119 701.977 575.826 701.61 575.606C701.258 575.386 700.855 575.276 700.4 575.276ZM700.378 585.286C698.897 585.286 697.709 584.809 696.814 583.856C695.92 582.888 695.472 581.561 695.472 579.874C695.472 578.745 695.7 577.762 696.154 576.926C696.624 576.09 697.24 575.437 698.002 574.968C698.78 574.499 699.623 574.264 700.532 574.264C701.295 574.264 701.984 574.433 702.6 574.77C703.216 575.107 703.708 575.591 704.074 576.222C704.441 576.838 704.624 577.593 704.624 578.488C704.624 578.737 704.61 578.972 704.58 579.192C704.551 579.397 704.514 579.573 704.47 579.72H697.452C697.482 581.069 697.819 582.096 698.464 582.8C699.11 583.504 699.96 583.856 701.016 583.856C701.72 583.856 702.307 583.717 702.776 583.438C703.246 583.145 703.678 582.771 704.074 582.316L704.602 582.734C704.192 583.511 703.634 584.135 702.93 584.604C702.226 585.059 701.376 585.286 700.378 585.286ZM706.621 585V584.208L708.205 583.922C708.22 583.365 708.227 582.763 708.227 582.118C708.242 581.458 708.249 580.879 708.249 580.38V579.324C708.249 578.723 708.242 578.224 708.227 577.828C708.227 577.432 708.213 577.014 708.183 576.574L706.445 576.376V575.606L709.525 574.264L709.855 574.484L710.097 577.08C710.464 576.2 710.933 575.511 711.505 575.012C712.092 574.513 712.679 574.264 713.265 574.264C713.603 574.264 713.918 574.337 714.211 574.484C714.505 574.631 714.717 574.829 714.849 575.078C714.849 576.149 714.417 576.684 713.551 576.684C713.302 576.684 713.067 576.64 712.847 576.552C712.627 576.449 712.415 576.31 712.209 576.134L711.945 575.892C711.505 576.215 711.139 576.611 710.845 577.08C710.552 577.549 710.31 578.099 710.119 578.73V580.38C710.119 580.864 710.119 581.429 710.119 582.074C710.134 582.719 710.149 583.321 710.163 583.878L711.967 584.208V585H706.621Z" fill="white"/>
<path d="M584.785 597.136V595.578H603.709L603.975 602.304H601.809L600.973 597.478H592.043C592.018 599.099 591.993 600.721 591.967 602.342C591.967 603.963 591.967 605.559 591.967 607.13H597.857L598.389 603.52H600.137V612.868H598.389L597.857 608.916H591.967C591.967 610.791 591.967 612.551 591.967 614.198C591.993 615.845 592.018 617.453 592.043 619.024L595.577 619.442V621H584.785V619.442L588.281 619.024C588.332 617.428 588.357 615.807 588.357 614.16C588.357 612.513 588.357 610.867 588.357 609.22V607.358C588.357 605.711 588.357 604.077 588.357 602.456C588.357 600.809 588.332 599.175 588.281 597.554L584.785 597.136ZM613.783 604.204C613.073 604.204 612.351 604.407 611.617 604.812C610.907 605.217 610.287 605.863 609.755 606.75C609.248 607.637 608.919 608.815 608.767 610.284H615.683C616.595 610.284 617.19 610.094 617.469 609.714C617.773 609.334 617.925 608.865 617.925 608.308C617.925 607.573 617.735 606.902 617.355 606.294C617 605.661 616.506 605.154 615.873 604.774C615.265 604.394 614.568 604.204 613.783 604.204ZM613.745 621.494C611.186 621.494 609.134 620.671 607.589 619.024C606.043 617.352 605.271 615.059 605.271 612.146C605.271 610.195 605.663 608.498 606.449 607.054C607.259 605.61 608.323 604.483 609.641 603.672C610.983 602.861 612.44 602.456 614.011 602.456C615.328 602.456 616.519 602.747 617.583 603.33C618.647 603.913 619.495 604.749 620.129 605.838C620.762 606.902 621.079 608.207 621.079 609.752C621.079 610.183 621.053 610.588 621.003 610.968C620.952 611.323 620.889 611.627 620.813 611.88H608.691C608.741 614.211 609.324 615.984 610.439 617.2C611.553 618.416 613.023 619.024 614.847 619.024C616.063 619.024 617.076 618.783 617.887 618.302C618.697 617.795 619.445 617.149 620.129 616.364L621.041 617.086C620.331 618.429 619.369 619.505 618.153 620.316C616.937 621.101 615.467 621.494 613.745 621.494ZM628.062 612.07C628.062 614.553 628.556 616.389 629.544 617.58C630.557 618.745 631.824 619.328 633.344 619.328C634.18 619.328 634.914 619.163 635.548 618.834C636.206 618.479 636.89 617.909 637.6 617.124V606.598C636.738 605.838 635.966 605.319 635.282 605.04C634.598 604.761 633.939 604.622 633.306 604.622C632.368 604.622 631.494 604.888 630.684 605.42C629.898 605.927 629.265 606.737 628.784 607.852C628.302 608.941 628.062 610.347 628.062 612.07ZM637.98 621.38L637.714 618.758C637.055 619.619 636.295 620.291 635.434 620.772C634.598 621.253 633.584 621.494 632.394 621.494C630.848 621.494 629.493 621.101 628.328 620.316C627.162 619.531 626.25 618.441 625.592 617.048C624.958 615.629 624.642 613.995 624.642 612.146C624.642 610.195 624.996 608.498 625.706 607.054C626.415 605.61 627.378 604.483 628.594 603.672C629.81 602.861 631.19 602.456 632.736 602.456C633.622 602.456 634.471 602.633 635.282 602.988C636.118 603.343 636.928 603.989 637.714 604.926V596.338L634.484 595.958V594.628L640.412 592.918L640.944 593.222L640.792 598.618V619.176L643.87 619.632V621L637.98 621.38ZM654.714 604.204C654.005 604.204 653.283 604.407 652.548 604.812C651.839 605.217 651.218 605.863 650.686 606.75C650.18 607.637 649.85 608.815 649.698 610.284H656.614C657.526 610.284 658.122 610.094 658.4 609.714C658.704 609.334 658.856 608.865 658.856 608.308C658.856 607.573 658.666 606.902 658.286 606.294C657.932 605.661 657.438 605.154 656.804 604.774C656.196 604.394 655.5 604.204 654.714 604.204ZM654.676 621.494C652.118 621.494 650.066 620.671 648.52 619.024C646.975 617.352 646.202 615.059 646.202 612.146C646.202 610.195 646.595 608.498 647.38 607.054C648.191 605.61 649.255 604.483 650.572 603.672C651.915 602.861 653.372 602.456 654.942 602.456C656.26 602.456 657.45 602.747 658.514 603.33C659.578 603.913 660.427 604.749 661.06 605.838C661.694 606.902 662.01 608.207 662.01 609.752C662.01 610.183 661.985 610.588 661.934 610.968C661.884 611.323 661.82 611.627 661.744 611.88H649.622C649.673 614.211 650.256 615.984 651.37 617.2C652.485 618.416 653.954 619.024 655.778 619.024C656.994 619.024 658.008 618.783 658.818 618.302C659.629 617.795 660.376 617.149 661.06 616.364L661.972 617.086C661.263 618.429 660.3 619.505 659.084 620.316C657.868 621.101 656.399 621.494 654.676 621.494ZM665.459 621V619.632L668.195 619.138C668.221 618.175 668.233 617.137 668.233 616.022C668.259 614.882 668.271 613.881 668.271 613.02V611.196C668.271 610.157 668.259 609.296 668.233 608.612C668.233 607.928 668.208 607.206 668.157 606.446L665.155 606.104V604.774L670.475 602.456L671.045 602.836L671.463 607.32C672.097 605.8 672.907 604.609 673.895 603.748C674.909 602.887 675.922 602.456 676.935 602.456C677.518 602.456 678.063 602.583 678.569 602.836C679.076 603.089 679.443 603.431 679.671 603.862C679.671 605.711 678.924 606.636 677.429 606.636C676.999 606.636 676.593 606.56 676.213 606.408C675.833 606.231 675.466 605.99 675.111 605.686L674.655 605.268C673.895 605.825 673.262 606.509 672.755 607.32C672.249 608.131 671.831 609.081 671.501 610.17V613.02C671.501 613.856 671.501 614.831 671.501 615.946C671.527 617.061 671.552 618.099 671.577 619.062L674.693 619.632V621H665.459ZM689.783 604.204C689.073 604.204 688.351 604.407 687.617 604.812C686.907 605.217 686.287 605.863 685.755 606.75C685.248 607.637 684.919 608.815 684.767 610.284H691.683C692.595 610.284 693.19 610.094 693.469 609.714C693.773 609.334 693.925 608.865 693.925 608.308C693.925 607.573 693.735 606.902 693.355 606.294C693 605.661 692.506 605.154 691.873 604.774C691.265 604.394 690.568 604.204 689.783 604.204ZM689.745 621.494C687.186 621.494 685.134 620.671 683.589 619.024C682.043 617.352 681.271 615.059 681.271 612.146C681.271 610.195 681.663 608.498 682.449 607.054C683.259 605.61 684.323 604.483 685.641 603.672C686.983 602.861 688.44 602.456 690.011 602.456C691.328 602.456 692.519 602.747 693.583 603.33C694.647 603.913 695.495 604.749 696.129 605.838C696.762 606.902 697.079 608.207 697.079 609.752C697.079 610.183 697.053 610.588 697.003 610.968C696.952 611.323 696.889 611.627 696.813 611.88H684.691C684.741 614.211 685.324 615.984 686.439 617.2C687.553 618.416 689.023 619.024 690.847 619.024C692.063 619.024 693.076 618.783 693.887 618.302C694.697 617.795 695.445 617.149 696.129 616.364L697.041 617.086C696.331 618.429 695.369 619.505 694.153 620.316C692.937 621.101 691.467 621.494 689.745 621.494ZM700.528 621V619.632L703.264 619.138C703.289 618.175 703.302 617.137 703.302 616.022C703.327 614.882 703.34 613.881 703.34 613.02V611.196C703.34 610.157 703.327 609.296 703.302 608.612C703.302 607.928 703.276 607.206 703.226 606.446L700.224 606.104V604.774L705.544 602.456L706.114 602.836L706.532 607.32C707.165 605.8 707.976 604.609 708.964 603.748C709.977 602.887 710.99 602.456 712.004 602.456C712.586 602.456 713.131 602.583 713.638 602.836C714.144 603.089 714.512 603.431 714.74 603.862C714.74 605.711 713.992 606.636 712.498 606.636C712.067 606.636 711.662 606.56 711.282 606.408C710.902 606.231 710.534 605.99 710.18 605.686L709.724 605.268C708.964 605.825 708.33 606.509 707.824 607.32C707.317 608.131 706.899 609.081 706.57 610.17V613.02C706.57 613.856 706.57 614.831 706.57 615.946C706.595 617.061 706.62 618.099 706.646 619.062L709.762 619.632V621H700.528Z" fill="white"/>
<line x1="722.25" y1="574" x2="722.25" y2="682" stroke="white" stroke-width="0.5"/>
</g>
<defs>
<clipPath id="clip0_1_64">
<rect width="420" height="595" fill="white" transform="translate(512 87)"/>
</clipPath>
</defs>
</svg>
