<svg width="1024" height="768" viewBox="0 0 1024 768" fill="none" xmlns="http://www.w3.org/2000/svg">
<g clip-path="url(#clip0_8_128)">
<rect width="1024" height="768" fill="black"/>
<rect x="256" width="128" height="768" fill="#01877E"/>
<rect x="384" width="128" height="768" fill="#B6DDDA"/>
<rect x="512" width="128" height="768" fill="#FBB86C"/>
<rect x="640" width="128" height="768" fill="#F9D678"/>
<rect x="768" width="128" height="768" fill="#F3F5EC"/>
<rect x="896" width="128" height="768" fill="white"/>
<rect x="128" width="128" height="768" fill="#13313D"/>
<rect width="128" height="768" fill="black"/>
<path d="M40.0378 666.424H41.5898L41.8458 664.472H40.2778L40.0378 666.424ZM37.0938 666.424H38.4858L38.7418 664.472H37.5738V662.68H38.9498L39.3018 659.896H40.8378L40.5018 662.68H42.0538L42.4058 659.896H43.9578L43.6058 662.68H44.7738V664.472H43.3978L43.1418 666.424H44.3098V668.216H42.9338L42.5818 671H41.0298L41.3818 668.216H39.8138L39.4778 671H37.9258L38.2778 668.216H37.0938V666.424ZM45.0693 665.72C45.0693 664.931 45.0959 664.173 45.1493 663.448C45.2026 662.723 45.3466 662.083 45.5813 661.528C45.8159 660.963 46.1679 660.515 46.6373 660.184C47.1173 659.843 47.7786 659.672 48.6213 659.672C49.3146 659.672 49.8853 659.773 50.3333 659.976C50.7919 660.168 51.1546 660.483 51.4213 660.92C51.6986 661.357 51.8906 661.928 51.9973 662.632C52.1146 663.325 52.1733 664.173 52.1733 665.176C52.1733 665.965 52.1466 666.723 52.0933 667.448C52.0399 668.173 51.8959 668.819 51.6613 669.384C51.4266 669.939 51.0693 670.376 50.5893 670.696C50.1199 671.016 49.4639 671.176 48.6213 671.176C47.9386 671.176 47.3679 671.085 46.9093 670.904C46.4506 670.723 46.0826 670.413 45.8053 669.976C45.5386 669.539 45.3466 668.973 45.2293 668.28C45.1226 667.576 45.0693 666.723 45.0693 665.72ZM47.3733 666.216C47.3733 666.931 47.3893 667.517 47.4213 667.976C47.4639 668.424 47.5333 668.781 47.6293 669.048C47.7253 669.304 47.8533 669.48 48.0133 669.576C48.1733 669.672 48.3759 669.72 48.6213 669.72C48.8773 669.72 49.0853 669.661 49.2453 669.544C49.4053 669.416 49.5279 669.208 49.6133 668.92C49.7093 668.621 49.7733 668.227 49.8053 667.736C49.8479 667.245 49.8693 666.637 49.8693 665.912V664.68C49.8693 663.965 49.8479 663.384 49.8053 662.936C49.7733 662.477 49.7093 662.12 49.6133 661.864C49.5173 661.597 49.3893 661.416 49.2293 661.32C49.0693 661.224 48.8666 661.176 48.6213 661.176C48.3653 661.176 48.1573 661.24 47.9973 661.368C47.8373 661.485 47.7093 661.693 47.6133 661.992C47.5279 662.28 47.4639 662.669 47.4213 663.16C47.3893 663.651 47.3733 664.259 47.3733 664.984V666.216ZM52.7568 665.72C52.7568 664.931 52.7834 664.173 52.8368 663.448C52.8901 662.723 53.0341 662.083 53.2688 661.528C53.5034 660.963 53.8554 660.515 54.3248 660.184C54.8048 659.843 55.4661 659.672 56.3088 659.672C57.0021 659.672 57.5728 659.773 58.0208 659.976C58.4794 660.168 58.8421 660.483 59.1088 660.92C59.3861 661.357 59.5781 661.928 59.6848 662.632C59.8021 663.325 59.8608 664.173 59.8608 665.176C59.8608 665.965 59.8341 666.723 59.7808 667.448C59.7274 668.173 59.5834 668.819 59.3488 669.384C59.1141 669.939 58.7568 670.376 58.2768 670.696C57.8074 671.016 57.1514 671.176 56.3088 671.176C55.6261 671.176 55.0554 671.085 54.5968 670.904C54.1381 670.723 53.7701 670.413 53.4928 669.976C53.2261 669.539 53.0341 668.973 52.9168 668.28C52.8101 667.576 52.7568 666.723 52.7568 665.72ZM55.0608 666.216C55.0608 666.931 55.0768 667.517 55.1088 667.976C55.1514 668.424 55.2208 668.781 55.3168 669.048C55.4128 669.304 55.5408 669.48 55.7008 669.576C55.8608 669.672 56.0634 669.72 56.3088 669.72C56.5648 669.72 56.7728 669.661 56.9328 669.544C57.0928 669.416 57.2154 669.208 57.3008 668.92C57.3968 668.621 57.4608 668.227 57.4928 667.736C57.5354 667.245 57.5568 666.637 57.5568 665.912V664.68C57.5568 663.965 57.5354 663.384 57.4928 662.936C57.4608 662.477 57.3968 662.12 57.3008 661.864C57.2048 661.597 57.0768 661.416 56.9168 661.32C56.7568 661.224 56.5541 661.176 56.3088 661.176C56.0528 661.176 55.8448 661.24 55.6848 661.368C55.5248 661.485 55.3968 661.693 55.3008 661.992C55.2154 662.28 55.1514 662.669 55.1088 663.16C55.0768 663.651 55.0608 664.259 55.0608 664.984V666.216ZM60.4443 665.72C60.4443 664.931 60.4709 664.173 60.5243 663.448C60.5776 662.723 60.7216 662.083 60.9563 661.528C61.1909 660.963 61.5429 660.515 62.0123 660.184C62.4923 659.843 63.1536 659.672 63.9963 659.672C64.6896 659.672 65.2603 659.773 65.7083 659.976C66.1669 660.168 66.5296 660.483 66.7963 660.92C67.0736 661.357 67.2656 661.928 67.3723 662.632C67.4896 663.325 67.5483 664.173 67.5483 665.176C67.5483 665.965 67.5216 666.723 67.4683 667.448C67.4149 668.173 67.2709 668.819 67.0363 669.384C66.8016 669.939 66.4443 670.376 65.9643 670.696C65.4949 671.016 64.8389 671.176 63.9963 671.176C63.3136 671.176 62.7429 671.085 62.2843 670.904C61.8256 670.723 61.4576 670.413 61.1803 669.976C60.9136 669.539 60.7216 668.973 60.6043 668.28C60.4976 667.576 60.4443 666.723 60.4443 665.72ZM62.7483 666.216C62.7483 666.931 62.7643 667.517 62.7963 667.976C62.8389 668.424 62.9083 668.781 63.0043 669.048C63.1003 669.304 63.2283 669.48 63.3883 669.576C63.5483 669.672 63.7509 669.72 63.9963 669.72C64.2523 669.72 64.4603 669.661 64.6203 669.544C64.7803 669.416 64.9029 669.208 64.9883 668.92C65.0843 668.621 65.1483 668.227 65.1803 667.736C65.2229 667.245 65.2443 666.637 65.2443 665.912V664.68C65.2443 663.965 65.2229 663.384 65.1803 662.936C65.1483 662.477 65.0843 662.12 64.9883 661.864C64.8923 661.597 64.7643 661.416 64.6043 661.32C64.4443 661.224 64.2416 661.176 63.9963 661.176C63.7403 661.176 63.5323 661.24 63.3723 661.368C63.2123 661.485 63.0843 661.693 62.9883 661.992C62.9029 662.28 62.8389 662.669 62.7963 663.16C62.7643 663.651 62.7483 664.259 62.7483 664.984V666.216ZM68.1318 665.72C68.1318 664.931 68.1584 664.173 68.2118 663.448C68.2651 662.723 68.4091 662.083 68.6438 661.528C68.8784 660.963 69.2304 660.515 69.6998 660.184C70.1798 659.843 70.8411 659.672 71.6838 659.672C72.3771 659.672 72.9478 659.773 73.3958 659.976C73.8544 660.168 74.2171 660.483 74.4838 660.92C74.7611 661.357 74.9531 661.928 75.0598 662.632C75.1771 663.325 75.2358 664.173 75.2358 665.176C75.2358 665.965 75.2091 666.723 75.1558 667.448C75.1024 668.173 74.9584 668.819 74.7238 669.384C74.4891 669.939 74.1318 670.376 73.6518 670.696C73.1824 671.016 72.5264 671.176 71.6838 671.176C71.0011 671.176 70.4304 671.085 69.9718 670.904C69.5131 670.723 69.1451 670.413 68.8678 669.976C68.6011 669.539 68.4091 668.973 68.2918 668.28C68.1851 667.576 68.1318 666.723 68.1318 665.72ZM70.4358 666.216C70.4358 666.931 70.4518 667.517 70.4838 667.976C70.5264 668.424 70.5958 668.781 70.6918 669.048C70.7878 669.304 70.9158 669.48 71.0758 669.576C71.2358 669.672 71.4384 669.72 71.6838 669.72C71.9398 669.72 72.1478 669.661 72.3078 669.544C72.4678 669.416 72.5904 669.208 72.6758 668.92C72.7718 668.621 72.8358 668.227 72.8678 667.736C72.9104 667.245 72.9318 666.637 72.9318 665.912V664.68C72.9318 663.965 72.9104 663.384 72.8678 662.936C72.8358 662.477 72.7718 662.12 72.6758 661.864C72.5798 661.597 72.4518 661.416 72.2918 661.32C72.1318 661.224 71.9291 661.176 71.6838 661.176C71.4278 661.176 71.2198 661.24 71.0598 661.368C70.8998 661.485 70.7718 661.693 70.6758 661.992C70.5904 662.28 70.5264 662.669 70.4838 663.16C70.4518 663.651 70.4358 664.259 70.4358 664.984V666.216ZM75.8193 665.72C75.8193 664.931 75.8459 664.173 75.8993 663.448C75.9526 662.723 76.0966 662.083 76.3313 661.528C76.5659 660.963 76.9179 660.515 77.3873 660.184C77.8673 659.843 78.5286 659.672 79.3713 659.672C80.0646 659.672 80.6353 659.773 81.0833 659.976C81.5419 660.168 81.9046 660.483 82.1713 660.92C82.4486 661.357 82.6406 661.928 82.7473 662.632C82.8646 663.325 82.9233 664.173 82.9233 665.176C82.9233 665.965 82.8966 666.723 82.8433 667.448C82.7899 668.173 82.6459 668.819 82.4113 669.384C82.1766 669.939 81.8193 670.376 81.3393 670.696C80.8699 671.016 80.2139 671.176 79.3713 671.176C78.6886 671.176 78.1179 671.085 77.6593 670.904C77.2006 670.723 76.8326 670.413 76.5553 669.976C76.2886 669.539 76.0966 668.973 75.9793 668.28C75.8726 667.576 75.8193 666.723 75.8193 665.72ZM78.1233 666.216C78.1233 666.931 78.1393 667.517 78.1713 667.976C78.2139 668.424 78.2833 668.781 78.3793 669.048C78.4753 669.304 78.6033 669.48 78.7633 669.576C78.9233 669.672 79.1259 669.72 79.3713 669.72C79.6273 669.72 79.8353 669.661 79.9953 669.544C80.1553 669.416 80.2779 669.208 80.3633 668.92C80.4593 668.621 80.5233 668.227 80.5553 667.736C80.5979 667.245 80.6193 666.637 80.6193 665.912V664.68C80.6193 663.965 80.5979 663.384 80.5553 662.936C80.5233 662.477 80.4593 662.12 80.3633 661.864C80.2673 661.597 80.1393 661.416 79.9793 661.32C79.8193 661.224 79.6166 661.176 79.3713 661.176C79.1153 661.176 78.9073 661.24 78.7473 661.368C78.5873 661.485 78.4593 661.693 78.3633 661.992C78.2779 662.28 78.2139 662.669 78.1713 663.16C78.1393 663.651 78.1233 664.259 78.1233 664.984V666.216ZM83.5068 665.72C83.5068 664.931 83.5334 664.173 83.5868 663.448C83.6401 662.723 83.7841 662.083 84.0188 661.528C84.2534 660.963 84.6054 660.515 85.0748 660.184C85.5548 659.843 86.2161 659.672 87.0588 659.672C87.7521 659.672 88.3228 659.773 88.7708 659.976C89.2294 660.168 89.5921 660.483 89.8588 660.92C90.1361 661.357 90.3281 661.928 90.4348 662.632C90.5521 663.325 90.6108 664.173 90.6108 665.176C90.6108 665.965 90.5841 666.723 90.5308 667.448C90.4774 668.173 90.3334 668.819 90.0988 669.384C89.8641 669.939 89.5068 670.376 89.0268 670.696C88.5574 671.016 87.9014 671.176 87.0588 671.176C86.3761 671.176 85.8054 671.085 85.3468 670.904C84.8881 670.723 84.5201 670.413 84.2428 669.976C83.9761 669.539 83.7841 668.973 83.6668 668.28C83.5601 667.576 83.5068 666.723 83.5068 665.72ZM85.8108 666.216C85.8108 666.931 85.8268 667.517 85.8588 667.976C85.9014 668.424 85.9708 668.781 86.0668 669.048C86.1628 669.304 86.2908 669.48 86.4508 669.576C86.6108 669.672 86.8134 669.72 87.0588 669.72C87.3148 669.72 87.5228 669.661 87.6828 669.544C87.8428 669.416 87.9654 669.208 88.0508 668.92C88.1468 668.621 88.2108 668.227 88.2428 667.736C88.2854 667.245 88.3068 666.637 88.3068 665.912V664.68C88.3068 663.965 88.2854 663.384 88.2428 662.936C88.2108 662.477 88.1468 662.12 88.0508 661.864C87.9548 661.597 87.8268 661.416 87.6668 661.32C87.5068 661.224 87.3041 661.176 87.0588 661.176C86.8028 661.176 86.5948 661.24 86.4348 661.368C86.2748 661.485 86.1468 661.693 86.0508 661.992C85.9654 662.28 85.9014 662.669 85.8588 663.16C85.8268 663.651 85.8108 664.259 85.8108 664.984V666.216Z" fill="white"/>
<path d="M167.288 666.424H168.84L169.096 664.472H167.528L167.288 666.424ZM164.344 666.424H165.736L165.992 664.472H164.824V662.68H166.2L166.552 659.896H168.088L167.752 662.68H169.304L169.656 659.896H171.208L170.856 662.68H172.024V664.472H170.648L170.392 666.424H171.56V668.216H170.184L169.832 671H168.28L168.632 668.216H167.064L166.728 671H165.176L165.528 668.216H164.344V666.424ZM174.943 671V663H172.687V661.496H172.895C173.663 661.496 174.266 661.352 174.703 661.064C175.151 660.776 175.434 660.312 175.551 659.672H177.247V671H174.943ZM182.247 667.688C182.257 668.349 182.343 668.856 182.503 669.208C182.673 669.549 183.009 669.72 183.511 669.72C183.788 669.72 184.007 669.672 184.167 669.576C184.337 669.48 184.465 669.352 184.551 669.192C184.647 669.021 184.705 668.824 184.727 668.6C184.759 668.376 184.775 668.141 184.775 667.896C184.775 667.64 184.753 667.4 184.711 667.176C184.679 666.941 184.609 666.733 184.503 666.552C184.396 666.371 184.247 666.227 184.055 666.12C183.863 666.013 183.607 665.96 183.287 665.96H182.519V664.456H183.271C183.516 664.456 183.719 664.408 183.879 664.312C184.049 664.205 184.183 664.072 184.279 663.912C184.385 663.741 184.46 663.549 184.503 663.336C184.556 663.123 184.583 662.899 184.583 662.664C184.583 662.12 184.492 661.736 184.311 661.512C184.129 661.288 183.852 661.176 183.479 661.176C183.233 661.176 183.031 661.224 182.871 661.32C182.721 661.405 182.604 661.533 182.519 661.704C182.433 661.864 182.375 662.056 182.343 662.28C182.321 662.504 182.311 662.749 182.311 663.016H180.199C180.199 661.885 180.481 661.048 181.047 660.504C181.612 659.949 182.439 659.672 183.527 659.672C184.561 659.672 185.361 659.907 185.927 660.376C186.503 660.845 186.791 661.581 186.791 662.584C186.791 663.267 186.636 663.827 186.327 664.264C186.028 664.691 185.607 664.963 185.063 665.08V665.112C185.799 665.229 186.316 665.528 186.615 666.008C186.924 666.477 187.079 667.069 187.079 667.784C187.079 668.168 187.031 668.563 186.935 668.968C186.839 669.373 186.652 669.741 186.375 670.072C186.097 670.403 185.713 670.669 185.223 670.872C184.743 671.075 184.108 671.176 183.319 671.176C182.22 671.176 181.399 670.877 180.855 670.28C180.311 669.683 180.039 668.835 180.039 667.736V667.688H182.247ZM189.934 667.688C189.945 668.349 190.03 668.856 190.19 669.208C190.361 669.549 190.697 669.72 191.198 669.72C191.476 669.72 191.694 669.672 191.854 669.576C192.025 669.48 192.153 669.352 192.238 669.192C192.334 669.021 192.393 668.824 192.414 668.6C192.446 668.376 192.462 668.141 192.462 667.896C192.462 667.64 192.441 667.4 192.398 667.176C192.366 666.941 192.297 666.733 192.19 666.552C192.084 666.371 191.934 666.227 191.742 666.12C191.55 666.013 191.294 665.96 190.974 665.96H190.206V664.456H190.958C191.204 664.456 191.406 664.408 191.566 664.312C191.737 664.205 191.87 664.072 191.966 663.912C192.073 663.741 192.148 663.549 192.19 663.336C192.244 663.123 192.27 662.899 192.27 662.664C192.27 662.12 192.18 661.736 191.998 661.512C191.817 661.288 191.54 661.176 191.166 661.176C190.921 661.176 190.718 661.224 190.558 661.32C190.409 661.405 190.292 661.533 190.206 661.704C190.121 661.864 190.062 662.056 190.03 662.28C190.009 662.504 189.998 662.749 189.998 663.016H187.886C187.886 661.885 188.169 661.048 188.734 660.504C189.3 659.949 190.126 659.672 191.214 659.672C192.249 659.672 193.049 659.907 193.614 660.376C194.19 660.845 194.478 661.581 194.478 662.584C194.478 663.267 194.324 663.827 194.014 664.264C193.716 664.691 193.294 664.963 192.75 665.08V665.112C193.486 665.229 194.004 665.528 194.302 666.008C194.612 666.477 194.766 667.069 194.766 667.784C194.766 668.168 194.718 668.563 194.622 668.968C194.526 669.373 194.34 669.741 194.062 670.072C193.785 670.403 193.401 670.669 192.91 670.872C192.43 671.075 191.796 671.176 191.006 671.176C189.908 671.176 189.086 670.877 188.542 670.28C187.998 669.683 187.726 668.835 187.726 667.736V667.688H189.934ZM198.006 671V663H195.75V661.496H195.958C196.726 661.496 197.328 661.352 197.766 661.064C198.214 660.776 198.496 660.312 198.614 659.672H200.31V671H198.006ZM205.309 667.688C205.32 668.349 205.405 668.856 205.565 669.208C205.736 669.549 206.072 669.72 206.573 669.72C206.851 669.72 207.069 669.672 207.229 669.576C207.4 669.48 207.528 669.352 207.613 669.192C207.709 669.021 207.768 668.824 207.789 668.6C207.821 668.376 207.837 668.141 207.837 667.896C207.837 667.64 207.816 667.4 207.773 667.176C207.741 666.941 207.672 666.733 207.565 666.552C207.459 666.371 207.309 666.227 207.117 666.12C206.925 666.013 206.669 665.96 206.349 665.96H205.581V664.456H206.333C206.579 664.456 206.781 664.408 206.941 664.312C207.112 664.205 207.245 664.072 207.341 663.912C207.448 663.741 207.523 663.549 207.565 663.336C207.619 663.123 207.645 662.899 207.645 662.664C207.645 662.12 207.555 661.736 207.373 661.512C207.192 661.288 206.915 661.176 206.541 661.176C206.296 661.176 206.093 661.224 205.933 661.32C205.784 661.405 205.667 661.533 205.581 661.704C205.496 661.864 205.437 662.056 205.405 662.28C205.384 662.504 205.373 662.749 205.373 663.016H203.261C203.261 661.885 203.544 661.048 204.109 660.504C204.675 659.949 205.501 659.672 206.589 659.672C207.624 659.672 208.424 659.907 208.989 660.376C209.565 660.845 209.853 661.581 209.853 662.584C209.853 663.267 209.699 663.827 209.389 664.264C209.091 664.691 208.669 664.963 208.125 665.08V665.112C208.861 665.229 209.379 665.528 209.677 666.008C209.987 666.477 210.141 667.069 210.141 667.784C210.141 668.168 210.093 668.563 209.997 668.968C209.901 669.373 209.715 669.741 209.437 670.072C209.16 670.403 208.776 670.669 208.285 670.872C207.805 671.075 207.171 671.176 206.381 671.176C205.283 671.176 204.461 670.877 203.917 670.28C203.373 669.683 203.101 668.835 203.101 667.736V667.688H205.309ZM213.685 669.304H214.709C215.114 669.304 215.439 669.235 215.685 669.096C215.93 668.957 216.122 668.728 216.261 668.408C216.41 668.088 216.506 667.667 216.549 667.144C216.602 666.621 216.629 665.971 216.629 665.192C216.629 664.541 216.607 663.971 216.565 663.48C216.522 662.989 216.431 662.584 216.293 662.264C216.165 661.933 215.967 661.688 215.701 661.528C215.445 661.357 215.098 661.272 214.661 661.272H213.685V669.304ZM211.381 659.576H215.157C215.957 659.576 216.602 659.709 217.093 659.976C217.583 660.232 217.962 660.605 218.229 661.096C218.506 661.576 218.693 662.157 218.789 662.84C218.885 663.523 218.933 664.285 218.933 665.128C218.933 666.131 218.869 667.005 218.741 667.752C218.623 668.488 218.415 669.096 218.117 669.576C217.818 670.056 217.418 670.413 216.917 670.648C216.415 670.883 215.781 671 215.013 671H211.381V659.576Z" fill="white"/>
<path d="M296.03 666.424H297.582L297.838 664.472H296.27L296.03 666.424ZM293.086 666.424H294.478L294.734 664.472H293.566V662.68H294.942L295.294 659.896H296.83L296.494 662.68H298.046L298.398 659.896H299.95L299.598 662.68H300.766V664.472H299.39L299.134 666.424H300.302V668.216H298.926L298.574 671H297.022L297.374 668.216H295.806L295.47 671H293.918L294.27 668.216H293.086V666.424ZM301.061 665.72C301.061 664.931 301.088 664.173 301.141 663.448C301.195 662.723 301.339 662.083 301.573 661.528C301.808 660.963 302.16 660.515 302.629 660.184C303.109 659.843 303.771 659.672 304.613 659.672C305.307 659.672 305.877 659.773 306.325 659.976C306.784 660.168 307.147 660.483 307.413 660.92C307.691 661.357 307.883 661.928 307.989 662.632C308.107 663.325 308.165 664.173 308.165 665.176C308.165 665.965 308.139 666.723 308.085 667.448C308.032 668.173 307.888 668.819 307.653 669.384C307.419 669.939 307.061 670.376 306.581 670.696C306.112 671.016 305.456 671.176 304.613 671.176C303.931 671.176 303.36 671.085 302.901 670.904C302.443 670.723 302.075 670.413 301.797 669.976C301.531 669.539 301.339 668.973 301.221 668.28C301.115 667.576 301.061 666.723 301.061 665.72ZM303.365 666.216C303.365 666.931 303.381 667.517 303.413 667.976C303.456 668.424 303.525 668.781 303.621 669.048C303.717 669.304 303.845 669.48 304.005 669.576C304.165 669.672 304.368 669.72 304.613 669.72C304.869 669.72 305.077 669.661 305.237 669.544C305.397 669.416 305.52 669.208 305.605 668.92C305.701 668.621 305.765 668.227 305.797 667.736C305.84 667.245 305.861 666.637 305.861 665.912V664.68C305.861 663.965 305.84 663.384 305.797 662.936C305.765 662.477 305.701 662.12 305.605 661.864C305.509 661.597 305.381 661.416 305.221 661.32C305.061 661.224 304.859 661.176 304.613 661.176C304.357 661.176 304.149 661.24 303.989 661.368C303.829 661.485 303.701 661.693 303.605 661.992C303.52 662.28 303.456 662.669 303.413 663.16C303.381 663.651 303.365 664.259 303.365 664.984V666.216ZM311.373 671V663H309.117V661.496H309.325C310.093 661.496 310.696 661.352 311.133 661.064C311.581 660.776 311.864 660.312 311.981 659.672H313.677V671H311.373ZM318.676 667.768C318.676 668.035 318.692 668.291 318.724 668.536C318.767 668.771 318.836 668.979 318.932 669.16C319.039 669.331 319.178 669.469 319.348 669.576C319.519 669.672 319.732 669.72 319.988 669.72C320.244 669.72 320.458 669.672 320.628 669.576C320.799 669.469 320.932 669.331 321.028 669.16C321.135 668.979 321.204 668.771 321.236 668.536C321.279 668.291 321.3 668.035 321.3 667.768C321.3 667.491 321.279 667.235 321.236 667C321.204 666.765 321.135 666.563 321.028 666.392C320.932 666.211 320.799 666.072 320.628 665.976C320.458 665.869 320.244 665.816 319.988 665.816C319.732 665.816 319.519 665.869 319.348 665.976C319.178 666.072 319.039 666.211 318.932 666.392C318.836 666.563 318.767 666.765 318.724 667C318.692 667.235 318.676 667.491 318.676 667.768ZM318.868 662.728C318.868 663.272 318.97 663.672 319.172 663.928C319.375 664.184 319.647 664.312 319.988 664.312C320.33 664.312 320.602 664.184 320.804 663.928C321.007 663.672 321.108 663.272 321.108 662.728C321.108 661.693 320.735 661.176 319.988 661.176C319.242 661.176 318.868 661.693 318.868 662.728ZM316.372 667.8C316.372 667.085 316.532 666.472 316.852 665.96C317.172 665.448 317.652 665.128 318.292 665V664.968C317.983 664.893 317.722 664.776 317.508 664.616C317.306 664.456 317.14 664.275 317.012 664.072C316.884 663.869 316.794 663.656 316.74 663.432C316.687 663.208 316.66 662.995 316.66 662.792C316.66 661.683 316.954 660.888 317.54 660.408C318.138 659.917 318.954 659.672 319.988 659.672C321.023 659.672 321.834 659.917 322.42 660.408C323.018 660.888 323.316 661.683 323.316 662.792C323.316 662.995 323.284 663.208 323.22 663.432C323.167 663.656 323.076 663.869 322.948 664.072C322.82 664.275 322.65 664.456 322.436 664.616C322.234 664.776 321.983 664.893 321.684 664.968V665C322.324 665.128 322.804 665.448 323.124 665.96C323.444 666.472 323.604 667.085 323.604 667.8C323.604 668.131 323.562 668.493 323.476 668.888C323.402 669.283 323.236 669.651 322.98 669.992C322.724 670.333 322.356 670.616 321.876 670.84C321.407 671.064 320.778 671.176 319.988 671.176C319.199 671.176 318.564 671.064 318.084 670.84C317.615 670.616 317.252 670.333 316.996 669.992C316.74 669.651 316.57 669.283 316.484 668.888C316.41 668.493 316.372 668.131 316.372 667.8ZM331.164 659.896V661.656C330.695 662.317 330.273 663.027 329.9 663.784C329.537 664.541 329.217 665.32 328.94 666.12C328.663 666.92 328.433 667.736 328.252 668.568C328.071 669.389 327.932 670.2 327.836 671H325.42C325.505 670.317 325.633 669.603 325.804 668.856C325.975 668.099 326.199 667.331 326.476 666.552C326.764 665.773 327.111 664.989 327.516 664.2C327.921 663.411 328.401 662.637 328.956 661.88H324.188V659.896H331.164ZM338.851 659.896V661.656C338.382 662.317 337.961 663.027 337.587 663.784C337.225 664.541 336.905 665.32 336.627 666.12C336.35 666.92 336.121 667.736 335.939 668.568C335.758 669.389 335.619 670.2 335.523 671H333.107C333.193 670.317 333.321 669.603 333.491 668.856C333.662 668.099 333.886 667.331 334.163 666.552C334.451 665.773 334.798 664.989 335.203 664.2C335.609 663.411 336.089 662.637 336.643 661.88H331.875V659.896H338.851ZM346.395 659.576V661.464H342.315V664.152H346.155V666.04H342.315V669.112H346.555V671H340.011V659.576H346.395Z" fill="white"/>
<path d="M420.585 666.424H422.137L422.393 664.472H420.825L420.585 666.424ZM417.641 666.424H419.033L419.289 664.472H418.121V662.68H419.497L419.849 659.896H421.385L421.049 662.68H422.601L422.953 659.896H424.505L424.153 662.68H425.321V664.472H423.945L423.689 666.424H424.857V668.216H423.481L423.129 671H421.577L421.929 668.216H420.361L420.025 671H418.473L418.825 668.216H417.641V666.424ZM428.432 669.304H429.328C429.883 669.304 430.331 669.181 430.672 668.936C431.013 668.691 431.184 668.237 431.184 667.576C431.184 667.245 431.136 666.973 431.04 666.76C430.955 666.536 430.832 666.36 430.672 666.232C430.523 666.093 430.341 665.997 430.128 665.944C429.915 665.891 429.68 665.864 429.424 665.864H428.432V669.304ZM428.432 664.264H429.088C429.728 664.264 430.192 664.152 430.48 663.928C430.779 663.693 430.928 663.304 430.928 662.76C430.928 662.216 430.795 661.832 430.528 661.608C430.261 661.384 429.84 661.272 429.264 661.272H428.432V664.264ZM426.128 659.576H429.984C430.453 659.576 430.885 659.624 431.28 659.72C431.685 659.816 432.032 659.976 432.32 660.2C432.608 660.424 432.832 660.723 432.992 661.096C433.152 661.469 433.232 661.928 433.232 662.472C433.232 663.091 433.088 663.624 432.8 664.072C432.512 664.509 432.08 664.808 431.504 664.968V665C432.144 665.085 432.651 665.357 433.024 665.816C433.397 666.275 433.584 666.888 433.584 667.656C433.584 668.104 433.525 668.531 433.408 668.936C433.291 669.341 433.088 669.699 432.8 670.008C432.523 670.307 432.155 670.547 431.696 670.728C431.248 670.909 430.688 671 430.016 671H426.128V659.576ZM436.859 667.48C436.859 667.8 436.875 668.099 436.907 668.376C436.939 668.653 436.997 668.893 437.083 669.096C437.179 669.288 437.307 669.443 437.467 669.56C437.637 669.667 437.856 669.72 438.123 669.72C438.4 669.72 438.619 669.667 438.779 669.56C438.949 669.443 439.077 669.283 439.163 669.08C439.248 668.877 439.301 668.643 439.323 668.376C439.355 668.099 439.371 667.8 439.371 667.48C439.371 666.712 439.275 666.163 439.083 665.832C438.891 665.501 438.571 665.336 438.123 665.336C437.664 665.336 437.339 665.501 437.147 665.832C436.955 666.163 436.859 666.712 436.859 667.48ZM439.195 662.552C439.195 662.104 439.115 661.763 438.955 661.528C438.805 661.293 438.539 661.176 438.155 661.176C437.856 661.176 437.611 661.251 437.419 661.4C437.237 661.539 437.093 661.736 436.987 661.992C436.891 662.248 436.827 662.552 436.795 662.904C436.763 663.256 436.747 663.64 436.747 664.056V664.616H436.779C436.971 664.317 437.243 664.083 437.595 663.912C437.957 663.731 438.395 663.64 438.907 663.64C439.408 663.64 439.835 663.731 440.187 663.912C440.539 664.083 440.821 664.328 441.035 664.648C441.259 664.957 441.419 665.331 441.515 665.768C441.621 666.195 441.675 666.664 441.675 667.176C441.675 668.488 441.381 669.485 440.795 670.168C440.219 670.84 439.291 671.176 438.011 671.176C437.221 671.176 436.592 671.037 436.123 670.76C435.653 670.483 435.291 670.104 435.035 669.624C434.789 669.133 434.629 668.568 434.555 667.928C434.48 667.288 434.443 666.621 434.443 665.928C434.443 665.128 434.464 664.355 434.507 663.608C434.56 662.851 434.704 662.184 434.939 661.608C435.184 661.021 435.563 660.552 436.075 660.2C436.587 659.848 437.312 659.672 438.251 659.672C438.656 659.672 439.045 659.72 439.419 659.816C439.803 659.912 440.139 660.072 440.427 660.296C440.715 660.52 440.944 660.819 441.115 661.192C441.296 661.555 441.392 662.008 441.403 662.552H439.195ZM445.122 669.304H446.146C446.552 669.304 446.877 669.235 447.122 669.096C447.368 668.957 447.56 668.728 447.698 668.408C447.848 668.088 447.944 667.667 447.986 667.144C448.04 666.621 448.066 665.971 448.066 665.192C448.066 664.541 448.045 663.971 448.002 663.48C447.96 662.989 447.869 662.584 447.73 662.264C447.602 661.933 447.405 661.688 447.138 661.528C446.882 661.357 446.536 661.272 446.098 661.272H445.122V669.304ZM442.818 659.576H446.594C447.394 659.576 448.04 659.709 448.53 659.976C449.021 660.232 449.4 660.605 449.666 661.096C449.944 661.576 450.13 662.157 450.226 662.84C450.322 663.523 450.37 664.285 450.37 665.128C450.37 666.131 450.306 667.005 450.178 667.752C450.061 668.488 449.853 669.096 449.554 669.576C449.256 670.056 448.856 670.413 448.354 670.648C447.853 670.883 447.218 671 446.45 671H442.818V659.576ZM454.31 669.304H455.334C455.739 669.304 456.064 669.235 456.31 669.096C456.555 668.957 456.747 668.728 456.886 668.408C457.035 668.088 457.131 667.667 457.174 667.144C457.227 666.621 457.254 665.971 457.254 665.192C457.254 664.541 457.232 663.971 457.19 663.48C457.147 662.989 457.056 662.584 456.918 662.264C456.79 661.933 456.592 661.688 456.326 661.528C456.07 661.357 455.723 661.272 455.286 661.272H454.31V669.304ZM452.006 659.576H455.782C456.582 659.576 457.227 659.709 457.718 659.976C458.208 660.232 458.587 660.605 458.854 661.096C459.131 661.576 459.318 662.157 459.414 662.84C459.51 663.523 459.558 664.285 459.558 665.128C459.558 666.131 459.494 667.005 459.366 667.752C459.248 668.488 459.04 669.096 458.742 669.576C458.443 670.056 458.043 670.413 457.542 670.648C457.04 670.883 456.406 671 455.638 671H452.006V659.576ZM463.497 669.304H464.521C464.927 669.304 465.252 669.235 465.497 669.096C465.743 668.957 465.935 668.728 466.073 668.408C466.223 668.088 466.319 667.667 466.361 667.144C466.415 666.621 466.441 665.971 466.441 665.192C466.441 664.541 466.42 663.971 466.377 663.48C466.335 662.989 466.244 662.584 466.105 662.264C465.977 661.933 465.78 661.688 465.513 661.528C465.257 661.357 464.911 661.272 464.473 661.272H463.497V669.304ZM461.193 659.576H464.969C465.769 659.576 466.415 659.709 466.905 659.976C467.396 660.232 467.775 660.605 468.041 661.096C468.319 661.576 468.505 662.157 468.601 662.84C468.697 663.523 468.745 664.285 468.745 665.128C468.745 666.131 468.681 667.005 468.553 667.752C468.436 668.488 468.228 669.096 467.929 669.576C467.631 670.056 467.231 670.413 466.729 670.648C466.228 670.883 465.593 671 464.825 671H461.193V659.576ZM475.037 666.696L473.933 661.56H473.901L472.797 666.696H475.037ZM475.341 659.576L478.365 671H475.965L475.437 668.584H472.397L471.869 671H469.469L472.493 659.576H475.341Z" fill="black"/>
<path d="M550.522 666.424H552.074L552.33 664.472H550.762L550.522 666.424ZM547.578 666.424H548.97L549.226 664.472H548.058V662.68H549.434L549.786 659.896H551.322L550.986 662.68H552.538L552.89 659.896H554.442L554.09 662.68H555.258V664.472H553.882L553.626 666.424H554.794V668.216H553.418L553.066 671H551.514L551.866 668.216H550.298L549.962 671H548.41L548.762 668.216H547.578V666.424ZM556.066 659.576H562.45V661.464H558.37V664.152H562.21V666.04H558.37V671H556.066V659.576ZM565.776 669.304H566.672C567.227 669.304 567.675 669.181 568.016 668.936C568.357 668.691 568.528 668.237 568.528 667.576C568.528 667.245 568.48 666.973 568.384 666.76C568.299 666.536 568.176 666.36 568.016 666.232C567.867 666.093 567.685 665.997 567.472 665.944C567.259 665.891 567.024 665.864 566.768 665.864H565.776V669.304ZM565.776 664.264H566.432C567.072 664.264 567.536 664.152 567.824 663.928C568.123 663.693 568.272 663.304 568.272 662.76C568.272 662.216 568.139 661.832 567.872 661.608C567.605 661.384 567.184 661.272 566.608 661.272H565.776V664.264ZM563.472 659.576H567.328C567.797 659.576 568.229 659.624 568.624 659.72C569.029 659.816 569.376 659.976 569.664 660.2C569.952 660.424 570.176 660.723 570.336 661.096C570.496 661.469 570.576 661.928 570.576 662.472C570.576 663.091 570.432 663.624 570.144 664.072C569.856 664.509 569.424 664.808 568.848 664.968V665C569.488 665.085 569.995 665.357 570.368 665.816C570.741 666.275 570.928 666.888 570.928 667.656C570.928 668.104 570.869 668.531 570.752 668.936C570.635 669.341 570.432 669.699 570.144 670.008C569.867 670.307 569.499 670.547 569.04 670.728C568.592 670.909 568.032 671 567.36 671H563.472V659.576ZM574.667 669.304H575.562C576.117 669.304 576.565 669.181 576.907 668.936C577.248 668.691 577.419 668.237 577.419 667.576C577.419 667.245 577.371 666.973 577.275 666.76C577.189 666.536 577.067 666.36 576.907 666.232C576.757 666.093 576.576 665.997 576.363 665.944C576.149 665.891 575.915 665.864 575.659 665.864H574.667V669.304ZM574.667 664.264H575.323C575.963 664.264 576.427 664.152 576.715 663.928C577.013 663.693 577.163 663.304 577.163 662.76C577.163 662.216 577.029 661.832 576.763 661.608C576.496 661.384 576.075 661.272 575.499 661.272H574.667V664.264ZM572.363 659.576H576.219C576.688 659.576 577.12 659.624 577.515 659.72C577.92 659.816 578.267 659.976 578.555 660.2C578.843 660.424 579.067 660.723 579.227 661.096C579.387 661.469 579.467 661.928 579.467 662.472C579.467 663.091 579.323 663.624 579.035 664.072C578.747 664.509 578.315 664.808 577.739 664.968V665C578.379 665.085 578.885 665.357 579.259 665.816C579.632 666.275 579.819 666.888 579.819 667.656C579.819 668.104 579.76 668.531 579.642 668.936C579.525 669.341 579.323 669.699 579.035 670.008C578.757 670.307 578.389 670.547 577.931 670.728C577.483 670.909 576.923 671 576.251 671H572.363V659.576ZM582.981 667.768C582.981 668.035 582.997 668.291 583.029 668.536C583.072 668.771 583.141 668.979 583.237 669.16C583.344 669.331 583.482 669.469 583.653 669.576C583.824 669.672 584.037 669.72 584.293 669.72C584.549 669.72 584.762 669.672 584.933 669.576C585.104 669.469 585.237 669.331 585.333 669.16C585.44 668.979 585.509 668.771 585.541 668.536C585.584 668.291 585.605 668.035 585.605 667.768C585.605 667.491 585.584 667.235 585.541 667C585.509 666.765 585.44 666.563 585.333 666.392C585.237 666.211 585.104 666.072 584.933 665.976C584.762 665.869 584.549 665.816 584.293 665.816C584.037 665.816 583.824 665.869 583.653 665.976C583.482 666.072 583.344 666.211 583.237 666.392C583.141 666.563 583.072 666.765 583.029 667C582.997 667.235 582.981 667.491 582.981 667.768ZM583.173 662.728C583.173 663.272 583.274 663.672 583.477 663.928C583.68 664.184 583.952 664.312 584.293 664.312C584.634 664.312 584.906 664.184 585.109 663.928C585.312 663.672 585.413 663.272 585.413 662.728C585.413 661.693 585.04 661.176 584.293 661.176C583.546 661.176 583.173 661.693 583.173 662.728ZM580.677 667.8C580.677 667.085 580.837 666.472 581.157 665.96C581.477 665.448 581.957 665.128 582.597 665V664.968C582.288 664.893 582.026 664.776 581.813 664.616C581.61 664.456 581.445 664.275 581.317 664.072C581.189 663.869 581.098 663.656 581.045 663.432C580.992 663.208 580.965 662.995 580.965 662.792C580.965 661.683 581.258 660.888 581.845 660.408C582.442 659.917 583.258 659.672 584.293 659.672C585.328 659.672 586.138 659.917 586.725 660.408C587.322 660.888 587.621 661.683 587.621 662.792C587.621 662.995 587.589 663.208 587.525 663.432C587.472 663.656 587.381 663.869 587.253 664.072C587.125 664.275 586.954 664.456 586.741 664.616C586.538 664.776 586.288 664.893 585.989 664.968V665C586.629 665.128 587.109 665.448 587.429 665.96C587.749 666.472 587.909 667.085 587.909 667.8C587.909 668.131 587.866 668.493 587.781 668.888C587.706 669.283 587.541 669.651 587.285 669.992C587.029 670.333 586.661 670.616 586.181 670.84C585.712 671.064 585.082 671.176 584.293 671.176C583.504 671.176 582.869 671.064 582.389 670.84C581.92 670.616 581.557 670.333 581.301 669.992C581.045 669.651 580.874 669.283 580.789 668.888C580.714 668.493 580.677 668.131 580.677 667.8ZM590.781 667.48C590.781 667.8 590.797 668.099 590.829 668.376C590.861 668.653 590.919 668.893 591.005 669.096C591.101 669.288 591.229 669.443 591.389 669.56C591.559 669.667 591.778 669.72 592.045 669.72C592.322 669.72 592.541 669.667 592.701 669.56C592.871 669.443 592.999 669.283 593.085 669.08C593.17 668.877 593.223 668.643 593.245 668.376C593.277 668.099 593.293 667.8 593.293 667.48C593.293 666.712 593.197 666.163 593.005 665.832C592.813 665.501 592.493 665.336 592.045 665.336C591.586 665.336 591.261 665.501 591.069 665.832C590.877 666.163 590.781 666.712 590.781 667.48ZM593.117 662.552C593.117 662.104 593.037 661.763 592.877 661.528C592.727 661.293 592.461 661.176 592.077 661.176C591.778 661.176 591.533 661.251 591.341 661.4C591.159 661.539 591.015 661.736 590.909 661.992C590.813 662.248 590.749 662.552 590.717 662.904C590.685 663.256 590.669 663.64 590.669 664.056V664.616H590.701C590.893 664.317 591.165 664.083 591.517 663.912C591.879 663.731 592.317 663.64 592.829 663.64C593.33 663.64 593.757 663.731 594.109 663.912C594.461 664.083 594.743 664.328 594.957 664.648C595.181 664.957 595.341 665.331 595.437 665.768C595.543 666.195 595.597 666.664 595.597 667.176C595.597 668.488 595.303 669.485 594.717 670.168C594.141 670.84 593.213 671.176 591.933 671.176C591.143 671.176 590.514 671.037 590.045 670.76C589.575 670.483 589.213 670.104 588.957 669.624C588.711 669.133 588.551 668.568 588.477 667.928C588.402 667.288 588.365 666.621 588.365 665.928C588.365 665.128 588.386 664.355 588.429 663.608C588.482 662.851 588.626 662.184 588.861 661.608C589.106 661.021 589.485 660.552 589.997 660.2C590.509 659.848 591.234 659.672 592.173 659.672C592.578 659.672 592.967 659.72 593.341 659.816C593.725 659.912 594.061 660.072 594.349 660.296C594.637 660.52 594.866 660.819 595.037 661.192C595.218 661.555 595.314 662.008 595.325 662.552H593.117ZM601.508 663.432C601.508 662.6 601.407 661.997 601.204 661.624C601.012 661.24 600.655 661.048 600.132 661.048C599.844 661.048 599.604 661.128 599.412 661.288C599.231 661.437 599.087 661.688 598.98 662.04C598.873 662.381 598.799 662.835 598.756 663.4C598.713 663.955 598.692 664.637 598.692 665.448C598.692 666.312 598.719 667.011 598.772 667.544C598.836 668.077 598.927 668.493 599.044 668.792C599.172 669.08 599.327 669.277 599.508 669.384C599.7 669.48 599.919 669.528 600.164 669.528C600.367 669.528 600.553 669.496 600.724 669.432C600.905 669.357 601.06 669.219 601.188 669.016C601.316 668.803 601.417 668.509 601.492 668.136C601.567 667.752 601.604 667.251 601.604 666.632H603.908C603.908 667.251 603.86 667.837 603.764 668.392C603.668 668.947 603.487 669.432 603.22 669.848C602.964 670.264 602.596 670.589 602.116 670.824C601.647 671.059 601.033 671.176 600.276 671.176C599.412 671.176 598.724 671.037 598.212 670.76C597.7 670.483 597.305 670.083 597.028 669.56C596.761 669.037 596.585 668.413 596.5 667.688C596.425 666.963 596.388 666.163 596.388 665.288C596.388 664.424 596.425 663.629 596.5 662.904C596.585 662.168 596.761 661.539 597.028 661.016C597.305 660.493 597.7 660.088 598.212 659.8C598.724 659.501 599.412 659.352 600.276 659.352C601.097 659.352 601.743 659.485 602.212 659.752C602.692 660.019 603.049 660.36 603.284 660.776C603.519 661.181 603.663 661.624 603.716 662.104C603.78 662.573 603.812 663.016 603.812 663.432H601.508Z" fill="black"/>
<path d="M679.428 666.424H680.98L681.236 664.472H679.668L679.428 666.424ZM676.484 666.424H677.876L678.132 664.472H676.964V662.68H678.34L678.692 659.896H680.228L679.892 662.68H681.444L681.796 659.896H683.348L682.996 662.68H684.164V664.472H682.788L682.532 666.424H683.7V668.216H682.324L681.972 671H680.42L680.772 668.216H679.204L678.868 671H677.316L677.668 668.216H676.484V666.424ZM684.972 659.576H691.356V661.464H687.276V664.152H691.116V666.04H687.276V671H684.972V659.576ZM694.106 663.416C694.106 664.184 694.202 664.733 694.394 665.064C694.586 665.395 694.906 665.56 695.354 665.56C695.813 665.56 696.138 665.395 696.33 665.064C696.522 664.733 696.618 664.184 696.618 663.416C696.618 663.096 696.602 662.797 696.57 662.52C696.538 662.243 696.474 662.008 696.378 661.816C696.293 661.613 696.165 661.459 695.994 661.352C695.834 661.235 695.621 661.176 695.354 661.176C695.077 661.176 694.853 661.235 694.682 661.352C694.522 661.459 694.399 661.613 694.314 661.816C694.229 662.019 694.17 662.259 694.138 662.536C694.117 662.803 694.106 663.096 694.106 663.416ZM694.282 668.36C694.282 668.787 694.357 669.123 694.506 669.368C694.666 669.603 694.938 669.72 695.322 669.72C695.631 669.72 695.877 669.651 696.058 669.512C696.239 669.363 696.378 669.16 696.474 668.904C696.581 668.648 696.65 668.344 696.682 667.992C696.714 667.64 696.73 667.256 696.73 666.84V666.296H696.698C696.506 666.584 696.229 666.819 695.866 667C695.514 667.171 695.082 667.256 694.57 667.256C694.069 667.256 693.642 667.171 693.29 667C692.938 666.819 692.65 666.573 692.426 666.264C692.213 665.944 692.053 665.571 691.946 665.144C691.85 664.707 691.802 664.232 691.802 663.72C691.802 662.408 692.09 661.405 692.666 660.712C693.253 660.019 694.186 659.672 695.466 659.672C696.255 659.672 696.885 659.821 697.354 660.12C697.823 660.408 698.181 660.797 698.426 661.288C698.682 661.768 698.847 662.328 698.922 662.968C698.997 663.608 699.034 664.275 699.034 664.968C699.034 665.779 699.007 666.563 698.954 667.32C698.911 668.067 698.767 668.728 698.522 669.304C698.287 669.88 697.909 670.339 697.386 670.68C696.874 671.011 696.154 671.176 695.226 671.176C694.821 671.176 694.426 671.133 694.042 671.048C693.669 670.973 693.338 670.829 693.05 670.616C692.762 670.392 692.527 670.099 692.346 669.736C692.175 669.363 692.085 668.904 692.074 668.36H694.282ZM702.482 669.304H703.506C703.911 669.304 704.236 669.235 704.482 669.096C704.727 668.957 704.919 668.728 705.058 668.408C705.207 668.088 705.303 667.667 705.346 667.144C705.399 666.621 705.426 665.971 705.426 665.192C705.426 664.541 705.404 663.971 705.362 663.48C705.319 662.989 705.228 662.584 705.09 662.264C704.962 661.933 704.764 661.688 704.498 661.528C704.242 661.357 703.895 661.272 703.458 661.272H702.482V669.304ZM700.178 659.576H703.954C704.754 659.576 705.399 659.709 705.89 659.976C706.38 660.232 706.759 660.605 707.026 661.096C707.303 661.576 707.49 662.157 707.586 662.84C707.682 663.523 707.73 664.285 707.73 665.128C707.73 666.131 707.666 667.005 707.538 667.752C707.42 668.488 707.212 669.096 706.914 669.576C706.615 670.056 706.215 670.413 705.714 670.648C705.212 670.883 704.578 671 703.81 671H700.178V659.576ZM711.093 667.48C711.093 667.8 711.109 668.099 711.141 668.376C711.173 668.653 711.232 668.893 711.317 669.096C711.413 669.288 711.541 669.443 711.701 669.56C711.872 669.667 712.09 669.72 712.357 669.72C712.634 669.72 712.853 669.667 713.013 669.56C713.184 669.443 713.312 669.283 713.397 669.08C713.482 668.877 713.536 668.643 713.557 668.376C713.589 668.099 713.605 667.8 713.605 667.48C713.605 666.712 713.509 666.163 713.317 665.832C713.125 665.501 712.805 665.336 712.357 665.336C711.898 665.336 711.573 665.501 711.381 665.832C711.189 666.163 711.093 666.712 711.093 667.48ZM713.429 662.552C713.429 662.104 713.349 661.763 713.189 661.528C713.04 661.293 712.773 661.176 712.389 661.176C712.09 661.176 711.845 661.251 711.653 661.4C711.472 661.539 711.328 661.736 711.221 661.992C711.125 662.248 711.061 662.552 711.029 662.904C710.997 663.256 710.981 663.64 710.981 664.056V664.616H711.013C711.205 664.317 711.477 664.083 711.829 663.912C712.192 663.731 712.629 663.64 713.141 663.64C713.642 663.64 714.069 663.731 714.421 663.912C714.773 664.083 715.056 664.328 715.269 664.648C715.493 664.957 715.653 665.331 715.749 665.768C715.856 666.195 715.909 666.664 715.909 667.176C715.909 668.488 715.616 669.485 715.029 670.168C714.453 670.84 713.525 671.176 712.245 671.176C711.456 671.176 710.826 671.037 710.357 670.76C709.888 670.483 709.525 670.104 709.269 669.624C709.024 669.133 708.864 668.568 708.789 667.928C708.714 667.288 708.677 666.621 708.677 665.928C708.677 665.128 708.698 664.355 708.741 663.608C708.794 662.851 708.938 662.184 709.173 661.608C709.418 661.021 709.797 660.552 710.309 660.2C710.821 659.848 711.546 659.672 712.485 659.672C712.89 659.672 713.28 659.72 713.653 659.816C714.037 659.912 714.373 660.072 714.661 660.296C714.949 660.52 715.178 660.819 715.349 661.192C715.53 661.555 715.626 662.008 715.637 662.552H713.429ZM723.469 659.896V661.656C722.999 662.317 722.578 663.027 722.205 663.784C721.842 664.541 721.522 665.32 721.245 666.12C720.967 666.92 720.738 667.736 720.557 668.568C720.375 669.389 720.237 670.2 720.141 671H717.725C717.81 670.317 717.938 669.603 718.109 668.856C718.279 668.099 718.503 667.331 718.781 666.552C719.069 665.773 719.415 664.989 719.821 664.2C720.226 663.411 720.706 662.637 721.261 661.88H716.493V659.896H723.469ZM726.356 667.768C726.356 668.035 726.372 668.291 726.404 668.536C726.447 668.771 726.516 668.979 726.612 669.16C726.719 669.331 726.857 669.469 727.028 669.576C727.199 669.672 727.412 669.72 727.668 669.72C727.924 669.72 728.137 669.672 728.308 669.576C728.479 669.469 728.612 669.331 728.708 669.16C728.815 668.979 728.884 668.771 728.916 668.536C728.959 668.291 728.98 668.035 728.98 667.768C728.98 667.491 728.959 667.235 728.916 667C728.884 666.765 728.815 666.563 728.708 666.392C728.612 666.211 728.479 666.072 728.308 665.976C728.137 665.869 727.924 665.816 727.668 665.816C727.412 665.816 727.199 665.869 727.028 665.976C726.857 666.072 726.719 666.211 726.612 666.392C726.516 666.563 726.447 666.765 726.404 667C726.372 667.235 726.356 667.491 726.356 667.768ZM726.548 662.728C726.548 663.272 726.649 663.672 726.852 663.928C727.055 664.184 727.327 664.312 727.668 664.312C728.009 664.312 728.281 664.184 728.484 663.928C728.687 663.672 728.788 663.272 728.788 662.728C728.788 661.693 728.415 661.176 727.668 661.176C726.921 661.176 726.548 661.693 726.548 662.728ZM724.052 667.8C724.052 667.085 724.212 666.472 724.532 665.96C724.852 665.448 725.332 665.128 725.972 665V664.968C725.663 664.893 725.401 664.776 725.188 664.616C724.985 664.456 724.82 664.275 724.692 664.072C724.564 663.869 724.473 663.656 724.42 663.432C724.367 663.208 724.34 662.995 724.34 662.792C724.34 661.683 724.633 660.888 725.22 660.408C725.817 659.917 726.633 659.672 727.668 659.672C728.703 659.672 729.513 659.917 730.1 660.408C730.697 660.888 730.996 661.683 730.996 662.792C730.996 662.995 730.964 663.208 730.9 663.432C730.847 663.656 730.756 663.869 730.628 664.072C730.5 664.275 730.329 664.456 730.116 664.616C729.913 664.776 729.663 664.893 729.364 664.968V665C730.004 665.128 730.484 665.448 730.804 665.96C731.124 666.472 731.284 667.085 731.284 667.8C731.284 668.131 731.241 668.493 731.156 668.888C731.081 669.283 730.916 669.651 730.66 669.992C730.404 670.333 730.036 670.616 729.556 670.84C729.087 671.064 728.457 671.176 727.668 671.176C726.879 671.176 726.244 671.064 725.764 670.84C725.295 670.616 724.932 670.333 724.676 669.992C724.42 669.651 724.249 669.283 724.164 668.888C724.089 668.493 724.052 668.131 724.052 667.8Z" fill="black"/>
<path d="M807.858 666.424H809.41L809.666 664.472H808.098L807.858 666.424ZM804.914 666.424H806.306L806.562 664.472H805.394V662.68H806.77L807.122 659.896H808.658L808.322 662.68H809.874L810.226 659.896H811.778L811.426 662.68H812.594V664.472H811.218L810.962 666.424H812.13V668.216H810.754L810.402 671H808.85L809.202 668.216H807.634L807.298 671H805.746L806.098 668.216H804.914V666.424ZM813.402 659.576H819.786V661.464H815.706V664.152H819.546V666.04H815.706V671H813.402V659.576ZM822.536 667.688C822.546 668.349 822.632 668.856 822.792 669.208C822.962 669.549 823.298 669.72 823.8 669.72C824.077 669.72 824.296 669.672 824.456 669.576C824.626 669.48 824.754 669.352 824.84 669.192C824.936 669.021 824.994 668.824 825.016 668.6C825.048 668.376 825.064 668.141 825.064 667.896C825.064 667.64 825.042 667.4 825 667.176C824.968 666.941 824.898 666.733 824.792 666.552C824.685 666.371 824.536 666.227 824.344 666.12C824.152 666.013 823.896 665.96 823.576 665.96H822.808V664.456H823.56C823.805 664.456 824.008 664.408 824.168 664.312C824.338 664.205 824.472 664.072 824.568 663.912C824.674 663.741 824.749 663.549 824.792 663.336C824.845 663.123 824.872 662.899 824.872 662.664C824.872 662.12 824.781 661.736 824.6 661.512C824.418 661.288 824.141 661.176 823.768 661.176C823.522 661.176 823.32 661.224 823.16 661.32C823.01 661.405 822.893 661.533 822.808 661.704C822.722 661.864 822.664 662.056 822.632 662.28C822.61 662.504 822.6 662.749 822.6 663.016H820.488C820.488 661.885 820.77 661.048 821.336 660.504C821.901 659.949 822.728 659.672 823.816 659.672C824.85 659.672 825.65 659.907 826.216 660.376C826.792 660.845 827.08 661.581 827.08 662.584C827.08 663.267 826.925 663.827 826.616 664.264C826.317 664.691 825.896 664.963 825.352 665.08V665.112C826.088 665.229 826.605 665.528 826.904 666.008C827.213 666.477 827.368 667.069 827.368 667.784C827.368 668.168 827.32 668.563 827.224 668.968C827.128 669.373 826.941 669.741 826.664 670.072C826.386 670.403 826.002 670.669 825.512 670.872C825.032 671.075 824.397 671.176 823.608 671.176C822.509 671.176 821.688 670.877 821.144 670.28C820.6 669.683 820.328 668.835 820.328 667.736V667.688H822.536ZM828.495 659.576H834.879V661.464H830.799V664.152H834.639V666.04H830.799V671H828.495V659.576ZM841.902 661.688H837.726L837.486 664.264H837.518C837.731 663.965 838.008 663.752 838.35 663.624C838.691 663.485 839.107 663.416 839.598 663.416C840.142 663.416 840.59 663.523 840.942 663.736C841.304 663.939 841.587 664.211 841.79 664.552C842.003 664.893 842.152 665.283 842.238 665.72C842.323 666.147 842.366 666.584 842.366 667.032C842.366 667.661 842.312 668.232 842.206 668.744C842.099 669.256 841.907 669.699 841.63 670.072C841.363 670.435 840.995 670.712 840.526 670.904C840.056 671.085 839.459 671.176 838.734 671.176C838.019 671.176 837.438 671.08 836.99 670.888C836.552 670.696 836.216 670.445 835.982 670.136C835.747 669.816 835.587 669.475 835.502 669.112C835.427 668.739 835.39 668.392 835.39 668.072V667.768H837.598C837.598 667.96 837.608 668.163 837.63 668.376C837.651 668.589 837.699 668.792 837.774 668.984C837.859 669.165 837.976 669.32 838.126 669.448C838.275 669.565 838.472 669.624 838.718 669.624C839.198 669.624 839.539 669.443 839.742 669.08C839.955 668.707 840.062 668.152 840.062 667.416C840.062 666.947 840.04 666.557 839.998 666.248C839.955 665.939 839.88 665.693 839.774 665.512C839.678 665.331 839.544 665.203 839.374 665.128C839.203 665.053 838.99 665.016 838.734 665.016C838.403 665.016 838.147 665.112 837.966 665.304C837.795 665.485 837.688 665.736 837.646 666.056H835.582L835.998 659.896H841.902V661.688ZM849.973 659.576V661.464H845.893V664.152H849.733V666.04H845.893V669.112H850.133V671H843.589V659.576H849.973ZM856.172 663.432C856.172 662.6 856.071 661.997 855.868 661.624C855.676 661.24 855.319 661.048 854.796 661.048C854.508 661.048 854.268 661.128 854.076 661.288C853.895 661.437 853.751 661.688 853.644 662.04C853.538 662.381 853.463 662.835 853.42 663.4C853.378 663.955 853.356 664.637 853.356 665.448C853.356 666.312 853.383 667.011 853.436 667.544C853.5 668.077 853.591 668.493 853.708 668.792C853.836 669.08 853.991 669.277 854.172 669.384C854.364 669.48 854.583 669.528 854.828 669.528C855.031 669.528 855.218 669.496 855.388 669.432C855.57 669.357 855.724 669.219 855.852 669.016C855.98 668.803 856.082 668.509 856.156 668.136C856.231 667.752 856.268 667.251 856.268 666.632H858.572C858.572 667.251 858.524 667.837 858.428 668.392C858.332 668.947 858.151 669.432 857.884 669.848C857.628 670.264 857.26 670.589 856.78 670.824C856.311 671.059 855.698 671.176 854.94 671.176C854.076 671.176 853.388 671.037 852.876 670.76C852.364 670.483 851.97 670.083 851.692 669.56C851.426 669.037 851.25 668.413 851.164 667.688C851.09 666.963 851.052 666.163 851.052 665.288C851.052 664.424 851.09 663.629 851.164 662.904C851.25 662.168 851.426 661.539 851.692 661.016C851.97 660.493 852.364 660.088 852.876 659.8C853.388 659.501 854.076 659.352 854.94 659.352C855.762 659.352 856.407 659.485 856.876 659.752C857.356 660.019 857.714 660.36 857.948 660.776C858.183 661.181 858.327 661.624 858.38 662.104C858.444 662.573 858.476 663.016 858.476 663.432H856.172Z" fill="black"/>
<path d="M936.882 666.424H938.434L938.69 664.472H937.122L936.882 666.424ZM933.938 666.424H935.33L935.586 664.472H934.418V662.68H935.794L936.146 659.896H937.682L937.346 662.68H938.898L939.25 659.896H940.802L940.45 662.68H941.618V664.472H940.242L939.986 666.424H941.154V668.216H939.778L939.426 671H937.874L938.226 668.216H936.658L936.322 671H934.77L935.122 668.216H933.938V666.424ZM942.425 659.576H948.809V661.464H944.729V664.152H948.569V666.04H944.729V671H942.425V659.576ZM949.831 659.576H956.215V661.464H952.135V664.152H955.975V666.04H952.135V671H949.831V659.576ZM957.238 659.576H963.622V661.464H959.542V664.152H963.382V666.04H959.542V671H957.238V659.576ZM964.644 659.576H971.028V661.464H966.948V664.152H970.788V666.04H966.948V671H964.644V659.576ZM972.05 659.576H978.434V661.464H974.354V664.152H978.194V666.04H974.354V671H972.05V659.576ZM979.456 659.576H985.84V661.464H981.76V664.152H985.6V666.04H981.76V671H979.456V659.576Z" fill="black"/>
</g>
<defs>
<clipPath id="clip0_8_128">
<rect width="1024" height="768" fill="white"/>
</clipPath>
</defs>
</svg>
