<svg width="1024" height="768" viewBox="0 0 1024 768" fill="none" xmlns="http://www.w3.org/2000/svg">
<rect width="1024" height="768" fill="black"/>
<g clip-path="url(#clip0_12_1190)">
<path d="M896 0H128V768H896V0Z" fill="url(#paint0_linear_12_1190)"/>
<path d="M500.007 34.4275C499.716 34.0059 499.324 33.7006 498.829 33.5116C498.35 33.308 497.841 33.2063 497.303 33.2063C496.983 33.2063 496.67 33.2426 496.365 33.3153C496.074 33.388 495.805 33.5043 495.558 33.6642C495.326 33.8241 495.137 34.0349 494.991 34.2966C494.846 34.5438 494.773 34.8418 494.773 35.1907C494.773 35.7141 494.955 36.1139 495.318 36.3901C495.682 36.6664 496.133 36.9063 496.67 37.1098C497.208 37.3133 497.797 37.5096 498.437 37.6986C499.077 37.8876 499.665 38.1493 500.203 38.4837C500.741 38.818 501.192 39.2615 501.555 39.8139C501.919 40.3664 502.101 41.1006 502.101 42.0165C502.101 42.8451 501.948 43.5721 501.643 44.1972C501.337 44.8078 500.923 45.3167 500.4 45.7237C499.891 46.1308 499.295 46.4361 498.611 46.6396C497.928 46.8432 497.208 46.9449 496.452 46.9449C495.493 46.9449 494.57 46.785 493.683 46.4652C492.796 46.1453 492.033 45.6074 491.393 44.8514L493.465 42.8451C493.799 43.354 494.235 43.7538 494.773 44.0446C495.326 44.3208 495.907 44.4589 496.518 44.4589C496.838 44.4589 497.157 44.4153 497.477 44.328C497.797 44.2408 498.088 44.11 498.35 43.9355C498.611 43.7611 498.822 43.543 498.982 43.2813C499.142 43.0051 499.222 42.6925 499.222 42.3436C499.222 41.7766 499.04 41.3404 498.677 41.0351C498.313 40.7298 497.863 40.4754 497.325 40.2719C496.787 40.0538 496.198 39.8503 495.558 39.6613C494.919 39.4723 494.33 39.2178 493.792 38.898C493.254 38.5636 492.803 38.1275 492.44 37.5896C492.076 37.0371 491.895 36.3029 491.895 35.387C491.895 34.5874 492.055 33.8968 492.374 33.3153C492.709 32.7338 493.138 32.254 493.661 31.876C494.199 31.4835 494.81 31.1927 495.493 31.0037C496.176 30.8147 496.874 30.7202 497.586 30.7202C498.401 30.7202 499.186 30.8438 499.942 31.0909C500.712 31.3381 501.403 31.7452 502.013 32.3122L500.007 34.4275Z" fill="url(#paint1_linear_12_1190)"/>
<path d="M503.169 31.1128H506.331L510.54 42.7798L514.88 31.1128H517.846L511.609 46.5525H509.232L503.169 31.1128Z" fill="url(#paint2_linear_12_1190)"/>
<path d="M492.375 56.1914H495.122V71.6311H492.375V56.1914Z" fill="url(#paint3_linear_12_1190)"/>
<path d="M498.262 61.1635H500.748V62.8427H500.792C501.039 62.3193 501.417 61.8687 501.926 61.4907C502.435 61.0981 503.126 60.9019 503.998 60.9019C504.696 60.9019 505.284 61.0182 505.764 61.2508C506.259 61.4834 506.658 61.7887 506.964 62.1667C507.269 62.5447 507.487 62.9808 507.618 63.4751C507.749 63.9694 507.814 64.4855 507.814 65.0235V71.6311H505.197V66.3319C505.197 66.0411 505.183 65.7213 505.154 65.3724C505.125 65.0089 505.045 64.6745 504.914 64.3692C504.797 64.0494 504.608 63.7877 504.347 63.5842C504.085 63.3661 503.729 63.2571 503.278 63.2571C502.842 63.2571 502.471 63.3297 502.166 63.4751C501.875 63.6205 501.628 63.8168 501.425 64.0639C501.236 64.3111 501.097 64.5946 501.01 64.9144C500.923 65.2343 500.879 65.5686 500.879 65.9176V71.6311H498.262V61.1635Z" fill="url(#paint4_linear_12_1190)"/>
<path d="M519.067 70.0608H519.023C518.645 70.7005 518.136 71.1657 517.497 71.4565C516.857 71.7473 516.166 71.8926 515.425 71.8926C514.611 71.8926 513.884 71.7545 513.244 71.4783C512.619 71.1875 512.081 70.795 511.63 70.3007C511.18 69.8064 510.838 69.2249 510.606 68.5561C510.373 67.8873 510.257 67.1677 510.257 66.3972C510.257 65.6266 510.38 64.907 510.627 64.2382C510.874 63.5695 511.216 62.9879 511.652 62.4936C512.103 61.9993 512.641 61.6141 513.266 61.3378C513.891 61.0471 514.574 60.9017 515.316 60.9017C515.81 60.9017 516.246 60.9526 516.624 61.0543C517.002 61.1561 517.337 61.287 517.628 61.4469C517.918 61.6068 518.165 61.7813 518.369 61.9703C518.572 62.1447 518.74 62.3192 518.871 62.4936H518.936V55.1445H521.553V71.631H519.067V70.0608ZM512.873 66.3972C512.873 66.8042 512.939 67.1968 513.07 67.5748C513.215 67.9528 513.419 68.2871 513.68 68.5779C513.957 68.8687 514.284 69.1013 514.662 69.2757C515.04 69.4502 515.469 69.5374 515.948 69.5374C516.428 69.5374 516.857 69.4502 517.235 69.2757C517.613 69.1013 517.933 68.8687 518.194 68.5779C518.471 68.2871 518.674 67.9528 518.805 67.5748C518.95 67.1968 519.023 66.8042 519.023 66.3972C519.023 65.9901 518.95 65.5976 518.805 65.2196C518.674 64.8416 518.471 64.5072 518.194 64.2164C517.933 63.9257 517.613 63.693 517.235 63.5186C516.857 63.3441 516.428 63.2569 515.948 63.2569C515.469 63.2569 515.04 63.3441 514.662 63.5186C514.284 63.693 513.957 63.9257 513.68 64.2164C513.419 64.5072 513.215 64.8416 513.07 65.2196C512.939 65.5976 512.873 65.9901 512.873 66.3972Z" fill="url(#paint5_linear_12_1190)"/>
<path d="M534.07 71.6311H531.584V69.952H531.541C531.293 70.4753 530.915 70.9333 530.407 71.3258C529.898 71.7038 529.207 71.8928 528.335 71.8928C527.637 71.8928 527.041 71.7838 526.547 71.5657C526.067 71.3331 525.674 71.0278 525.369 70.6498C525.064 70.2573 524.846 69.8139 524.715 69.3196C524.584 68.8253 524.519 68.3091 524.519 67.7712V61.1636H527.135V66.4628C527.135 66.7535 527.15 67.0807 527.179 67.4441C527.208 67.793 527.281 68.1274 527.397 68.4473C527.528 68.7526 527.717 69.0142 527.964 69.2323C528.226 69.4359 528.589 69.5376 529.055 69.5376C529.491 69.5376 529.854 69.4649 530.145 69.3196C530.45 69.1742 530.697 68.9779 530.886 68.7308C531.09 68.4836 531.235 68.2001 531.322 67.8803C531.41 67.5604 531.453 67.226 531.453 66.8771V61.1636H534.07V71.6311Z" fill="url(#paint6_linear_12_1190)"/>
<path d="M542.619 64.0639C542.11 63.3516 541.426 62.9954 540.569 62.9954C540.22 62.9954 539.878 63.0826 539.544 63.2571C539.209 63.4315 539.042 63.715 539.042 64.1075C539.042 64.4274 539.18 64.66 539.456 64.8054C539.733 64.9508 540.082 65.0743 540.503 65.1761C540.925 65.2779 541.376 65.3869 541.855 65.5032C542.35 65.605 542.808 65.7722 543.229 66.0048C543.651 66.2229 544 66.5282 544.276 66.9207C544.552 67.3132 544.69 67.8512 544.69 68.5345C544.69 69.1596 544.552 69.6903 544.276 70.1264C544.014 70.548 543.665 70.8897 543.229 71.1513C542.808 71.413 542.328 71.602 541.79 71.7183C541.252 71.8346 540.714 71.8928 540.176 71.8928C539.362 71.8928 538.613 71.7765 537.93 71.5439C537.247 71.3113 536.636 70.8897 536.098 70.2791L537.843 68.6435C538.177 69.0215 538.533 69.3341 538.911 69.5812C539.304 69.8138 539.776 69.9301 540.329 69.9301C540.518 69.9301 540.714 69.9083 540.918 69.8647C541.121 69.8211 541.31 69.7484 541.485 69.6466C541.659 69.5449 541.797 69.4213 541.899 69.2759C542.015 69.116 542.073 68.9343 542.073 68.7307C542.073 68.3673 541.935 68.0983 541.659 67.9238C541.383 67.7494 541.034 67.6113 540.612 67.5095C540.191 67.3932 539.733 67.2914 539.238 67.2042C538.759 67.1024 538.308 66.9498 537.886 66.7462C537.465 66.5282 537.116 66.2301 536.84 65.8521C536.563 65.4741 536.425 64.9508 536.425 64.282C536.425 63.7005 536.542 63.1989 536.774 62.7773C537.021 62.3411 537.341 61.985 537.734 61.7087C538.126 61.4325 538.577 61.229 539.086 61.0981C539.595 60.9673 540.111 60.9019 540.634 60.9019C541.332 60.9019 542.022 61.0254 542.706 61.2726C543.389 61.5052 543.942 61.9123 544.363 62.4938L542.619 64.0639Z" fill="url(#paint7_linear_12_1190)"/>
<path d="M545.497 63.3879V61.1636H547.656V58.1323H550.273V61.1636H553.152V63.3879H550.273V67.9675C550.273 68.4909 550.368 68.9052 550.557 69.2105C550.76 69.5158 551.153 69.6685 551.734 69.6685C551.967 69.6685 552.221 69.6466 552.498 69.603C552.774 69.5449 552.992 69.4577 553.152 69.3413V71.5439C552.875 71.6747 552.534 71.762 552.127 71.8056C551.734 71.8637 551.385 71.8928 551.08 71.8928C550.382 71.8928 549.808 71.8129 549.357 71.6529C548.921 71.5075 548.572 71.2822 548.31 70.9769C548.063 70.6571 547.889 70.2645 547.787 69.7993C547.7 69.3341 547.656 68.7962 547.656 68.1856V63.3879H545.497Z" fill="url(#paint8_linear_12_1190)"/>
<path d="M555.201 61.1635H557.818V62.8209H557.862C558.153 62.2103 558.567 61.7378 559.105 61.4034C559.643 61.069 560.261 60.9019 560.959 60.9019C561.119 60.9019 561.271 60.9164 561.417 60.9455C561.576 60.9745 561.736 61.0109 561.896 61.0545V63.5842C561.678 63.526 561.46 63.4824 561.242 63.4533C561.039 63.4097 560.835 63.3879 560.631 63.3879C560.021 63.3879 559.527 63.5042 559.149 63.7368C558.785 63.9549 558.502 64.2093 558.298 64.5001C558.109 64.7908 557.978 65.0816 557.906 65.3724C557.847 65.6631 557.818 65.8812 557.818 66.0266V71.6311H555.201V61.1635Z" fill="url(#paint9_linear_12_1190)"/>
<path d="M562.267 61.1636H565.146L568.068 68.4255H568.111L570.728 61.1636H573.454L568.504 73.8773C568.315 74.3716 568.104 74.8005 567.872 75.1639C567.654 75.5419 567.392 75.8545 567.087 76.1017C566.781 76.3634 566.418 76.5524 565.996 76.6687C565.589 76.7995 565.095 76.8649 564.513 76.8649C563.83 76.8649 563.161 76.7777 562.507 76.6032L562.834 74.248C563.038 74.3207 563.248 74.3789 563.466 74.4225C563.699 74.4806 563.932 74.5097 564.164 74.5097C564.484 74.5097 564.753 74.4806 564.971 74.4225C565.189 74.3643 565.371 74.2698 565.516 74.139C565.676 74.0227 565.807 73.8628 565.909 73.6592C566.011 73.4702 566.12 73.2376 566.236 72.9614L566.738 71.7184L562.267 61.1636Z" fill="url(#paint10_linear_12_1190)"/>
<path d="M484.987 30.7202C484.987 30.7202 464.331 37.6057 457.446 44.4911C450.56 51.3766 450.56 72.0329 450.56 72.0329H484.987V30.7202ZM478.09 37.2614C478.094 37.2614 478.098 37.2614 478.102 37.2614C478.558 37.2614 478.996 37.4428 479.319 37.7656C479.642 38.0884 479.823 38.5262 479.823 38.9828C479.823 39.4393 479.642 39.8771 479.319 40.1999C478.996 40.5228 478.558 40.7041 478.102 40.7041C477.876 40.7041 477.652 40.6596 477.443 40.5731C477.234 40.4866 477.045 40.3598 476.885 40.1999C476.725 40.0401 476.598 39.8503 476.512 39.6415C476.425 39.4326 476.38 39.2088 476.38 38.9828C476.38 38.5282 476.56 38.0921 476.881 37.7696C477.201 37.4472 477.636 37.2644 478.09 37.2614ZM477.356 44.3113C477.392 44.3041 477.41 44.3614 477.413 44.4911C477.421 44.8544 477.23 46.1958 476.524 48.1623C475.523 50.9511 473.417 55.1057 469.33 58.8978C467.563 60.5383 465.412 62.0961 462.938 63.3552C462.887 62.6792 462.712 62.0184 462.421 61.4061C464.637 60.3149 466.574 58.9842 468.185 57.6123C473.745 52.874 475.983 47.3043 476.753 45.5052C477.068 44.7702 477.266 44.3298 477.356 44.3113ZM457.442 60.3277C457.443 60.3277 457.444 60.3277 457.445 60.3277C457.898 60.3277 458.345 60.4167 458.763 60.5897C459.181 60.7627 459.56 61.0163 459.88 61.336C460.2 61.6557 460.453 62.0352 460.626 62.4529C460.799 62.8706 460.888 63.3183 460.888 63.7704C460.888 64.2225 460.799 64.6702 460.626 65.0879C460.453 65.5055 460.2 65.8851 459.88 66.2048C459.56 66.5244 459.181 66.778 458.763 66.951C458.345 67.1241 457.898 67.2131 457.445 67.2131C456.993 67.2131 456.546 67.1241 456.128 66.951C455.71 66.778 455.331 66.5244 455.011 66.2048C454.691 65.8851 454.438 65.5055 454.265 65.0879C454.092 64.6702 454.003 64.2225 454.003 63.7704C454.003 62.8579 454.365 61.9828 455.01 61.3373C455.655 60.6918 456.529 60.3286 457.442 60.3277Z" fill="url(#paint11_linear_12_1190)"/>
<path d="M386.015 445.44C370.978 445.44 357.78 440.655 346.423 431.086V337.072C351.575 332.761 357.517 329.29 364.247 326.661C371.083 323.927 377.76 322.56 384.28 322.56C401.001 322.56 415.092 327.608 426.555 337.703L423.715 341.173C413.094 331.709 400.475 326.977 385.858 326.977C373.344 326.977 361.671 331.026 350.839 339.123V429.035C361.461 437.132 373.239 441.181 386.173 441.181C401.001 441.181 413.988 436.028 425.135 425.723C436.282 415.312 442.276 402.692 443.118 387.865H403.525V383.606H447.692C447.692 400.852 441.645 415.469 429.552 427.458C417.458 439.446 402.946 445.44 386.015 445.44ZM343.425 428.404C337.536 422.725 332.909 416.1 329.544 408.529C326.179 400.852 324.497 392.965 324.497 384.868C324.497 366.885 330.806 351.847 343.425 339.754V428.404Z" fill="url(#paint12_linear_12_1190)"/>
<path d="M507.002 443.39H502.27L498.484 431.717H457.629L453.843 443.39H449.111L453.055 431.717H445.325V427.458H454.474L478.135 357.421L507.002 443.39ZM496.907 427.458L477.978 371.46L459.207 427.458H496.907ZM530.032 443.39H511.734L480.028 351.9L489.177 325.242L530.032 443.39Z" fill="url(#paint13_linear_12_1190)"/>
<path d="M562.842 443.39H544.86V329.028H537.604V324.769H562.842V443.39ZM607.641 443.39H566.313V324.769H570.572V438.815H607.641V443.39Z" fill="url(#paint14_linear_12_1190)"/>
<path d="M676.889 443.39H672.156L668.371 431.717H627.516L623.73 443.39H618.998L622.941 431.717H615.212V427.458H624.361L648.022 357.421L676.889 443.39ZM666.793 427.458L647.864 371.46L629.093 427.458H666.793ZM699.919 443.39H681.621L649.915 351.9L659.064 325.242L699.919 443.39Z" fill="url(#paint15_linear_12_1190)"/>
<path d="M397.118 289.362C394.286 291.014 391.277 291.84 388.091 291.84C383.213 291.84 379.064 290.129 375.642 286.707C372.22 283.285 370.508 279.135 370.508 274.258H372.161C372.161 278.663 373.714 282.419 376.822 285.527C379.929 288.634 383.685 290.188 388.091 290.188C390.805 290.188 393.263 289.578 395.466 288.359V260.864L388.091 258.15C386.124 257.442 384.63 256.478 383.607 255.259C382.623 254 382.132 252.683 382.132 251.306C382.132 249.772 382.682 248.474 383.784 247.412C384.885 246.31 386.301 245.76 388.032 245.76C389.291 245.76 390.451 246.114 391.513 246.822C392.575 247.53 393.342 248.474 393.814 249.654L392.28 250.244C391.926 249.379 391.356 248.71 390.569 248.238C389.822 247.727 388.976 247.471 388.032 247.471C386.734 247.471 385.711 247.825 384.964 248.533C384.256 249.241 383.902 250.126 383.902 251.188C383.902 252.211 384.256 253.194 384.964 254.138C385.711 255.043 386.754 255.751 388.091 256.262L397.118 259.743V289.362ZM405.732 274.258C405.732 277.129 405.064 279.843 403.726 282.4C402.389 284.917 400.54 287.002 398.18 288.654V260.333C400.58 261.985 402.428 264.011 403.726 266.41C405.064 268.81 405.732 271.426 405.732 274.258Z" fill="url(#paint16_linear_12_1190)"/>
<path d="M424.908 280.925L421.25 291.663L405.791 246.645H413.167L424.908 280.925ZM436.59 246.645L425.616 278.86L414.701 246.645H416.412L425.616 273.786L434.82 246.645H436.59Z" fill="url(#paint17_linear_12_1190)"/>
<path d="M496.831 291.014H495.061L493.645 286.648H478.364L476.948 291.014H475.177L476.653 286.648H473.761V285.055H477.184L486.034 258.858L496.831 291.014ZM493.055 285.055L485.975 264.109L478.954 285.055H493.055ZM505.445 291.014H498.601L486.742 256.793L490.164 246.822L505.445 291.014Z" fill="url(#paint18_linear_12_1190)"/>
<path d="M520.137 291.014H513.41V248.238H510.696V246.645H520.137V291.014ZM536.893 291.014H521.435V246.645H523.028V289.303H536.893V291.014Z" fill="url(#paint19_linear_12_1190)"/>
<path d="M565.981 279.568C565.981 282.872 564.821 285.684 562.5 288.005C560.218 290.326 557.426 291.486 554.122 291.486C550.817 291.486 547.985 290.326 545.625 288.005C543.305 285.684 542.144 282.872 542.144 279.568V246.645H544.15V279.568C544.15 282.321 545.114 284.681 547.041 286.648C548.969 288.575 551.329 289.539 554.122 289.539C556.875 289.539 559.215 288.575 561.143 286.648C563.07 284.681 564.034 282.321 564.034 279.568V246.645H565.981V279.568ZM562.854 279.45C562.854 281.535 562.205 283.403 560.907 285.055C559.609 286.668 557.957 287.71 555.951 288.182V246.645H562.854V279.45Z" fill="url(#paint20_linear_12_1190)"/>
<path d="M581.085 291.014H574.359V248.238H571.232V246.645H581.085V291.014ZM597.783 291.014H591.057V255.79C591.057 253.902 590.368 252.231 588.992 250.775C587.615 249.32 585.963 248.494 584.036 248.297V291.014H582.325V246.645H582.737C586.395 246.645 589.168 248.022 591.056 250.775V246.645H597.783L597.783 291.014ZM609.465 291.014H607.754V256.144C607.754 254.138 607.085 252.388 605.748 250.893C604.411 249.359 602.739 248.494 600.733 248.297V291.014H599.081V246.645H599.494C602.287 246.645 604.647 247.53 606.574 249.3C608.502 251.07 609.466 253.352 609.466 256.144L609.465 291.014Z" fill="url(#paint21_linear_12_1190)"/>
<path d="M617.43 248.238H614.716V246.645H624.157V291.014H617.43V248.238ZM627.107 291.014H625.455V246.645C629.388 246.645 632.299 248.022 634.187 250.775V246.645H635.839V291.014H634.187V256.144C634.187 254.138 633.499 252.388 632.122 250.893C630.785 249.359 629.113 248.494 627.107 248.297V291.014Z" fill="url(#paint22_linear_12_1190)"/>
<path d="M650.53 291.014H643.804V248.238H641.09V246.645H650.53V291.014ZM653.481 291.014H651.828V246.645H653.481V291.014Z" fill="url(#paint23_linear_12_1190)"/>
<path d="M312.32 491.52H711.68" stroke="url(#paint24_linear_12_1190)" stroke-width="0.999999"/>
<path d="M512 483.84L504.32 491.52L512 499.2L519.68 491.52L512 483.84Z" fill="url(#paint25_linear_12_1190)"/>
<path d="M472.284 531.004C471.874 531.004 471.463 530.836 471.053 530.5C470.654 530.164 470.455 529.81 470.455 529.436C470.455 529.088 470.623 528.603 470.959 527.981L471.333 527.178H471.146C471.046 527.278 470.853 527.359 470.567 527.421C470.293 527.483 469.92 527.514 469.447 527.514C468.514 527.514 468.047 527.689 468.047 528.037C468.047 528.348 468.085 528.634 468.159 528.895C468.383 529.716 468.912 530.339 469.746 530.762C470.418 531.098 471.096 531.266 471.78 531.266C472.228 531.266 472.551 531.26 472.751 531.248C472.949 531.237 473.236 531.187 473.609 531.099C473.982 531.012 474.362 530.9 474.748 530.763C475.681 530.389 476.483 529.96 477.155 529.475C477.989 528.865 478.76 527.764 479.469 526.172C480.328 524.231 480.919 523.055 481.242 522.644C482.064 521.537 482.959 520.983 483.93 520.983C484.888 520.983 485.485 521.176 485.722 521.562C485.921 521.898 486.02 522.302 486.02 522.775C486.059 522.688 486.382 522.246 486.991 521.45C487.389 520.915 487.588 520.43 487.588 519.994L487.553 519.845C487.08 519.584 486.495 519.453 485.799 519.453C485.114 519.453 484.405 519.715 483.671 520.237L481.767 521.637L481.543 521.824L481.394 521.712C481.655 521.114 482.028 520.057 482.514 518.539C482.949 517.17 483.347 516.119 483.708 515.385C484.231 514.277 484.872 513.369 485.631 512.66C483.64 513.307 482.004 514.564 480.722 516.43C479.913 517.612 479.03 519.522 478.072 522.16C477.027 525.071 476.237 527.024 475.702 528.02C475.428 528.53 475.049 529.028 474.563 529.513C474.227 529.849 473.754 530.253 473.145 530.726C472.883 530.913 472.595 531.004 472.284 531.004ZM468.664 528.13H469.242V528.317L469.208 528.392C469.208 528.765 469.251 529.101 469.338 529.4C469.377 529.537 469.421 529.68 469.469 529.829C469.519 529.979 469.581 530.115 469.656 530.24C469.382 530.201 469.127 530.039 468.891 529.754C468.716 529.518 468.629 529.232 468.629 528.896L468.595 528.821L468.664 528.13ZM482.195 514.991L482.382 514.956C481.871 515.74 481.374 516.729 480.889 517.924C480.764 518.222 480.559 518.801 480.273 519.659C480.111 520.132 479.949 520.605 479.787 521.078L478.724 524.232C478.549 524.655 478.375 525.053 478.201 525.426C478.039 525.787 477.828 526.21 477.566 526.695C477.23 527.33 476.783 528.114 476.223 529.047L476.111 529.196C475.986 529.433 475.849 529.607 475.7 529.719C475.551 529.831 475.345 529.886 475.084 529.886C475.482 529.277 475.874 528.568 476.26 527.759C476.646 526.95 477.038 526.004 477.436 524.922L479.34 519.715C480.136 517.786 481.087 516.21 482.195 514.991ZM486.469 521.206V521.598C486.157 521.486 485.902 521.33 485.703 521.131L485.669 521.096C485.432 520.897 485.208 520.754 484.997 520.667C484.897 520.628 484.798 520.603 484.698 520.592C484.611 520.581 484.437 520.575 484.176 520.575C484.238 520.488 484.325 520.426 484.437 520.388C484.561 520.35 484.735 520.33 484.96 520.33C485.184 520.33 485.47 520.411 485.818 520.573C486.166 520.722 486.381 520.932 486.469 521.206ZM466.629 513.181C466.629 514.699 467.158 515.974 468.216 517.007C469.286 518.027 470.53 518.537 471.948 518.537C473.367 518.537 474.592 518.114 475.625 517.268L475.308 517.193L475.009 517.268C474.549 517.554 474.064 517.784 473.554 517.958C473.043 518.095 472.316 518.164 471.37 518.164C470.387 518.164 469.416 517.741 468.458 516.895C467.451 516.011 466.947 514.867 466.947 513.461C466.947 512.042 467.488 510.867 468.57 509.933C469.603 509.05 470.841 508.608 472.284 508.608C473.765 508.608 475.351 508.863 477.044 509.374L482.269 510.904C484.049 511.402 485.486 511.65 486.581 511.65C487.725 511.65 488.596 511.489 489.193 511.165C489.666 510.904 490.226 510.444 490.873 509.784C491.221 509.436 491.464 509.149 491.601 508.925C491.825 508.59 491.937 508.322 491.937 508.123C491.937 508.036 491.931 507.967 491.92 507.917C491.92 507.867 491.914 507.83 491.902 507.805V507.712C491.641 508.234 491.243 508.633 490.708 508.906C490.235 509.13 489.725 509.242 489.177 509.242C488.916 509.242 488.611 509.223 488.263 509.184C487.927 509.146 487.529 509.083 487.069 508.997L485.911 508.792C485.575 508.742 485.103 508.661 484.493 508.549C483.896 508.438 483.224 508.301 482.477 508.139L479.08 507.523C477.787 507.349 476.362 507.262 474.807 507.262C473.226 507.262 471.565 507.716 469.824 508.624C467.696 509.731 466.629 511.252 466.629 513.181ZM476.222 507.806C476.956 507.806 477.691 507.843 478.425 507.918C479.159 507.992 479.936 508.117 480.758 508.291L485.573 509.243C487.265 509.554 488.69 509.709 489.847 509.709C489.66 509.859 489.43 509.977 489.156 510.064C488.883 510.139 488.447 510.176 487.85 510.176C487.203 510.176 486.437 510.108 485.554 509.971C484.671 509.834 483.657 509.628 482.512 509.355C482.201 509.305 481.255 509.068 479.675 508.646L477.939 508.179C477.703 508.117 477.411 508.048 477.062 507.973C476.726 507.899 476.446 507.843 476.222 507.806Z" fill="url(#paint26_linear_12_1190)"/>
<path d="M490.761 525.76C490.761 525.274 490.855 524.714 491.041 524.08L491.489 522.587L490.481 522.493L489.455 522.476C489.119 522.476 488.907 522.487 488.82 522.511C488.422 523.655 487.987 525.105 487.514 526.859L486.375 531.226H488.932L489.268 530.237L489.343 530.125V530.05C490.028 528.396 490.556 527.301 490.93 526.766C491.726 525.609 492.435 525.03 493.057 525.03L494.14 525.047L494.327 525.065L494.402 524.673C494.44 524.499 494.484 524.343 494.532 524.206C494.544 524.167 494.563 524.111 494.59 524.038L494.74 523.348L494.926 522.209C494.005 522.359 493.178 522.788 492.444 523.497C491.983 523.957 491.421 524.714 490.761 525.76ZM489.156 522.979H489.772L487.663 530.612H487.01L489.156 522.979ZM493.467 523.013V524.04L493.038 524.283C492.901 524.357 492.796 524.445 492.721 524.544L491.414 525.346C491.626 524.936 491.918 524.506 492.292 524.059C492.677 523.598 493.069 523.25 493.467 523.013Z" fill="url(#paint27_linear_12_1190)"/>
<path d="M496.621 522.401C496.186 523.334 495.726 524.646 495.24 526.339C494.755 528.031 494.512 529.169 494.512 529.754C494.512 530.351 494.743 530.762 495.203 530.986C495.589 531.148 496.08 531.228 496.677 531.228C497.287 531.228 497.94 530.911 498.637 530.277L499.72 529.194L499.661 529.082L499.72 529.007V528.858L499.589 528.783L498.786 529.679C498.426 530.04 498.133 530.276 497.909 530.388C497.797 530.365 497.685 530.284 497.573 530.145L497.312 529.847C497.362 529.287 497.443 528.74 497.554 528.205C497.666 527.67 497.84 526.979 498.077 526.133C498.624 524.142 498.942 522.923 499.029 522.475L496.621 522.401ZM496.621 522.811L497.349 522.846C497.225 523.468 496.97 524.339 496.584 525.459C495.937 527.4 495.614 528.675 495.614 529.285C495.614 529.894 495.669 530.261 495.781 530.386C495.893 530.51 496.067 530.61 496.304 530.684L496.192 530.815L496.043 530.85C495.757 530.8 495.489 530.669 495.24 530.458C495.004 530.246 494.873 530.047 494.848 529.861L494.906 529.338L494.981 528.89L495.056 528.741C495.056 528.567 495.286 527.615 495.746 525.885C495.858 525.437 495.983 524.958 496.12 524.448C496.269 523.938 496.435 523.396 496.621 522.811ZM496.696 518.201C496.696 518.649 496.889 519.01 497.275 519.284C497.599 519.495 497.966 519.601 498.376 519.601C498.787 519.601 499.141 519.421 499.44 519.06C499.751 518.699 499.907 518.357 499.907 518.034C499.907 517.362 499.708 516.92 499.31 516.709C498.986 516.547 498.613 516.466 498.19 516.466C497.779 516.466 497.424 516.64 497.126 516.988C496.84 517.337 496.696 517.741 496.696 518.201ZM497.648 516.969C497.909 516.969 498.096 517.019 498.208 517.118C498.271 517.168 498.376 517.324 498.525 517.585C498.525 517.909 498.426 518.17 498.227 518.369C498.04 518.556 497.86 518.661 497.686 518.686C497.425 518.686 497.238 518.605 497.126 518.443C497.064 518.306 497.02 518.157 496.996 517.995C496.996 517.746 497.064 517.516 497.201 517.305C497.35 517.093 497.499 516.982 497.648 516.969Z" fill="url(#paint28_linear_12_1190)"/>
<path d="M509.872 513.685C509.611 514.543 509.313 515.644 508.977 516.988L508.118 520.31C507.782 521.629 507.465 522.73 507.166 523.613L507.036 523.389L506.811 523.11L506.625 522.848C506.326 522.55 505.953 522.326 505.505 522.176C505.318 522.127 505.125 522.083 504.926 522.046C504.727 521.996 504.553 521.971 504.404 521.971C504.118 521.971 503.813 522.027 503.489 522.139C503.39 522.177 503.271 522.221 503.134 522.269C503.01 522.308 502.898 522.352 502.798 522.4C501.828 522.885 501.025 523.65 500.391 524.696C499.756 525.728 499.439 526.749 499.439 527.756C499.439 528.752 499.65 529.554 500.073 530.164C500.559 530.873 501.187 531.228 501.958 531.228C502.717 531.228 503.414 531.066 504.049 530.742C504.683 530.406 505.249 529.971 505.747 529.436L506.139 530.742C506.35 531.066 506.686 531.228 507.147 531.228C507.595 531.228 508.148 531.078 508.808 530.78L510.058 530.145C510.655 529.772 511.091 529.28 511.365 528.671L510.655 529.361C510.12 529.896 509.666 530.164 509.293 530.164H509.218C509.044 530.089 508.901 529.952 508.789 529.753C508.714 529.567 508.677 529.355 508.677 529.119C508.839 528.746 508.994 528.173 509.144 527.402L509.48 525.61C509.692 524.739 510.052 523.408 510.562 521.616L511.626 517.603C511.95 516.197 512.205 514.841 512.391 513.535C512.031 513.535 511.595 513.578 511.085 513.665C510.799 513.704 510.55 513.723 510.338 513.723C510.251 513.723 510.17 513.723 510.096 513.723C509.984 513.7 509.91 513.685 509.872 513.685ZM510.526 513.983L510.6 514.058C510.289 515.75 509.966 517.33 509.63 518.798C509.257 520.528 508.883 522.046 508.51 523.352L507.708 526.152C507.397 527.247 507.173 528.136 507.036 528.82V528.895L507.001 528.97C507.001 529.369 507.094 529.717 507.281 530.015C507.455 530.252 507.698 530.451 508.009 530.613L507.747 530.743L507.542 530.801L507.467 530.859C506.957 530.859 506.59 530.636 506.366 530.188C506.229 529.877 506.16 529.441 506.16 528.881C506.16 528.595 506.18 528.328 506.218 528.079C506.257 527.817 506.326 527.556 506.424 527.295L506.816 526.1C506.878 525.926 506.94 525.74 507.003 525.541C507.077 525.342 507.158 525.136 507.245 524.925C507.494 524.228 507.737 523.413 507.973 522.48L509 518.355L509.653 515.836L509.859 515.015L509.989 514.343V514.268C510.076 514.081 510.257 513.988 510.53 513.988L510.526 513.983ZM503.713 522.512C502.818 523.197 502.096 524.036 501.548 525.032C501.001 526.015 500.727 526.954 500.727 527.85C500.727 528.708 500.839 529.368 501.064 529.828C501.288 530.289 501.717 530.612 502.351 530.799C501.431 530.687 500.796 530.451 500.448 530.09C500.099 529.729 499.925 529.007 499.925 527.925C499.925 526.83 500.255 525.753 500.914 524.696C501.586 523.626 502.519 522.898 503.713 522.512ZM505.431 523.128C505.729 523.128 506.047 523.227 506.382 523.426C506.731 523.613 506.948 523.843 507.036 524.117C506.588 525.871 506.233 527.091 505.972 527.775C505.3 529.467 504.628 530.313 503.956 530.313C503.309 530.313 502.861 529.996 502.612 529.361C502.438 528.901 502.351 528.391 502.351 527.831C502.351 527.246 502.606 526.481 503.116 525.535C503.539 524.727 503.993 524.036 504.479 523.464C504.566 523.352 504.696 523.265 504.871 523.203L505.431 523.128Z" fill="url(#paint29_linear_12_1190)"/>
<path d="M513.773 527.906C513.773 528.827 513.972 529.586 514.37 530.183C514.818 530.88 515.403 531.228 516.125 531.228C516.834 531.228 517.493 531.054 518.103 530.706C518.626 530.407 519.105 530.021 519.54 529.548C519.627 529.636 519.708 529.816 519.783 530.09L519.818 530.124C519.929 530.535 520.116 530.815 520.378 530.964C520.639 531.114 521.068 531.188 521.666 531.188C522.238 531.188 522.873 530.933 523.569 530.423C524.278 529.9 524.633 529.303 524.633 528.631C524.384 529.079 524.185 529.365 524.036 529.49C523.949 529.577 523.663 529.763 523.177 530.05C522.991 530.05 522.848 530.03 522.748 529.991C522.574 529.917 522.487 529.587 522.487 529.002C522.487 528.442 522.692 527.49 523.103 526.147L524.167 522.806C523.943 522.744 523.656 522.713 523.308 522.713L522.394 522.695C522.207 522.695 522.064 522.707 521.965 522.73C521.878 522.742 521.735 522.779 521.536 522.842C521.536 522.942 521.536 523.041 521.536 523.14C521.497 523.252 521.466 523.358 521.442 523.458C521.419 523.558 521.338 523.651 521.199 523.738C520.901 523.29 520.528 522.985 520.08 522.823C519.644 522.662 518.997 522.581 518.139 522.581C517.28 522.581 516.322 523.184 515.265 524.391C514.767 524.976 514.394 525.554 514.145 526.127C513.896 526.699 513.771 527.29 513.771 527.9L513.773 527.906ZM517.86 523.053C516.031 524.397 515.117 525.766 515.117 527.159C515.117 528.54 515.198 529.374 515.36 529.66C515.471 529.859 515.733 530.127 516.143 530.463H516.218L516.293 530.538C516.218 530.612 516.113 530.65 515.976 530.65C515.864 530.65 515.714 530.6 515.527 530.501C515.353 530.389 515.192 530.295 515.042 530.221C514.893 530.134 514.787 530.078 514.725 530.053C514.426 529.418 514.277 528.635 514.277 527.701C514.277 526.756 514.607 525.841 515.266 524.958C515.926 524.075 516.79 523.439 517.86 523.053ZM522.116 523.088H522.638C522.539 523.374 522.445 523.642 522.358 523.891C522.284 524.14 522.178 524.432 522.041 524.768V524.88L521.948 524.955C521.624 525.789 521.375 526.572 521.201 527.306C521.039 528.028 520.959 528.607 520.959 529.042C520.959 529.565 520.97 529.863 520.993 529.938L521.051 530.162L521.257 530.293C521.369 530.355 521.425 530.424 521.425 530.498H521.35L521.033 530.533C520.896 530.533 520.74 530.502 520.566 530.44C520.392 530.377 520.305 530.066 520.305 529.506C520.305 528.947 520.373 528.324 520.51 527.64C520.647 526.943 520.871 526.197 521.182 525.401L522.116 523.088ZM519.503 523.349C519.951 523.349 520.274 523.43 520.473 523.592C520.672 523.754 520.772 524.177 520.772 524.861C520.772 525.546 520.541 526.497 520.081 527.717C519.521 529.235 518.781 530.075 517.86 530.236C517.4 530.137 517.082 529.876 516.908 529.452C516.809 529.179 516.759 528.631 516.759 527.81C516.759 526.989 516.983 526.18 517.431 525.384C517.879 524.588 518.57 523.909 519.503 523.349Z" fill="url(#paint30_linear_12_1190)"/>
<path d="M535.348 522.4H532.623V522.475L532.588 522.55L531.524 525.48C531.338 525.99 531.151 526.445 530.964 526.843C530.778 527.229 530.56 527.596 530.311 527.944C529.776 528.728 529.048 529.48 528.128 530.202C528.003 530.277 527.841 530.326 527.642 530.351C527.505 530.351 527.356 530.314 527.194 530.239C527.045 530.164 526.97 529.804 526.97 529.157C526.97 528.51 527.2 527.496 527.661 526.115C527.81 525.667 528.283 524.466 529.079 522.513C527.175 522.513 526.18 522.524 526.093 522.547C525.968 523.107 525.688 524.04 525.253 525.347C524.618 527.288 524.301 528.675 524.301 529.509C524.301 530.318 524.45 530.815 524.749 531.002C524.998 531.126 525.465 531.189 526.149 531.189C526.858 531.189 527.623 530.89 528.445 530.293C529.092 529.845 529.751 529.161 530.423 528.24L530.721 528.52L529.807 531.525L529.079 533.932C528.706 535.027 528.289 535.886 527.828 536.508C527.231 537.316 526.659 537.721 526.111 537.721C525.564 537.721 525.203 537.609 525.029 537.385C524.867 537.173 524.786 536.806 524.786 536.283C524.786 535.761 525.247 535.046 526.167 534.137C527.013 533.304 527.804 532.793 528.538 532.607L528.388 532.458L525.328 534.025C524.183 534.759 523.611 535.506 523.611 536.265C523.611 536.999 523.853 537.491 524.338 537.739C524.699 537.901 525.135 537.982 525.645 537.982C526.205 537.982 526.79 537.914 527.399 537.777C528.021 537.652 528.581 537.484 529.079 537.273C530.161 536.787 531.151 535.531 532.047 533.502C532.631 532.146 533.272 530.162 533.969 527.549C534.367 526.019 534.684 524.812 534.921 523.928C535.157 523.045 535.299 522.537 535.348 522.4ZM532.866 522.848H532.941L533.016 522.906L533.631 522.981C533.445 523.728 533.265 524.437 533.09 525.109C532.929 525.781 532.723 526.565 532.475 527.461C532.027 529.215 531.579 530.689 531.131 531.884C530.845 532.68 530.546 533.42 530.235 534.105C529.924 534.801 529.575 535.461 529.19 536.083C529.028 536.32 528.829 536.525 528.593 536.699C528.443 536.811 528.194 536.935 527.846 537.072H527.771L527.659 537.147C528.094 536.637 528.381 536.276 528.518 536.065C528.779 535.704 528.997 535.306 529.171 534.87L529.6 533.657L529.992 532.407L532.866 522.848Z" fill="url(#paint31_linear_12_1190)"/>
<path d="M554.366 512.154C552.973 512.154 551.554 512.758 550.111 513.964C548.593 515.221 547.834 516.304 547.834 517.212C547.834 518.133 547.977 518.885 548.263 519.47C548.549 520.055 548.879 520.534 549.252 520.907C549.439 521.094 549.632 521.224 549.831 521.299L550.652 521.374C551.001 521.374 551.28 521.231 551.492 520.945L551.959 520.068V519.993L552.183 519.489C552.257 519.327 552.338 519.215 552.425 519.153L551.66 519.47C551.399 519.582 551.02 519.638 550.522 519.638C550.037 519.638 549.638 519.327 549.327 518.705C549.091 518.207 548.973 517.523 548.973 516.652C548.973 515.769 549.408 514.941 550.279 514.17C551.163 513.386 552.058 512.994 552.967 512.994C553.875 512.994 554.69 513.193 555.411 513.591C556.146 513.989 556.6 514.543 556.774 515.252C556.849 515.663 556.886 516.416 556.886 517.511C556.886 518.581 556.289 519.8 555.094 521.169C554.833 521.467 554.559 521.76 554.273 522.046C553.987 522.319 553.608 522.674 553.135 523.11L551.119 524.957L547.853 527.776C546.484 529.07 545.725 530.183 545.576 531.116C545.862 530.606 546.167 530.233 546.49 529.996C546.876 529.723 547.355 529.586 547.928 529.586C548.525 529.586 549.47 529.86 550.764 530.407C551.424 530.681 552.027 530.886 552.575 531.023C553.122 531.16 553.632 531.229 554.105 531.229C555.051 531.229 556.096 530.806 557.24 529.959C558.311 529.188 559.101 528.311 559.611 527.328C559.163 527.9 558.734 528.342 558.323 528.653C557.925 528.964 557.552 529.12 557.203 529.12C556.992 529.12 556.824 529.114 556.699 529.102C556.575 529.091 556.382 529.053 556.12 528.99L555.486 528.823L553.414 528.225C552.705 528.039 552.108 527.902 551.623 527.815C551.137 527.728 550.683 527.684 550.26 527.684C549.688 527.684 549.296 527.696 549.085 527.719C548.873 527.731 548.605 527.768 548.282 527.831C549.103 527.047 550.702 526.027 553.078 524.77C555.455 523.514 557.104 522.487 558.024 521.691C559.58 520.385 560.357 518.941 560.357 517.361C560.357 515.806 559.723 514.524 558.454 513.516C557.284 512.608 555.921 512.154 554.366 512.154ZM547.517 529.157C547.616 529.107 547.766 529.057 547.965 529.007L549.029 528.972C549.589 528.972 550.335 529.122 551.268 529.421L553.657 530.204C554.279 530.379 554.92 530.466 555.58 530.466C555.679 530.466 555.785 530.466 555.897 530.466C556.046 530.443 556.158 530.431 556.233 530.431C555.971 530.543 555.667 530.63 555.318 530.692C554.97 530.755 554.727 530.792 554.59 530.804C554.466 530.804 554.366 530.804 554.292 530.804L547.517 529.157ZM558.341 516.932C558.341 518.437 557.881 519.781 556.96 520.963C556.177 521.984 555.044 522.867 553.564 523.613L555.43 521.374C556.052 520.64 556.512 519.918 556.811 519.209C557.172 518.35 557.352 517.523 557.352 516.727C557.352 515.893 557.178 515.203 556.83 514.655C556.618 514.294 556.245 513.84 555.71 513.293L555.878 513.258L556.232 513.293L556.512 513.423L556.773 513.629L557.035 513.834C557.557 514.245 557.918 514.699 558.117 515.197C558.267 515.595 558.341 516.173 558.341 516.932Z" fill="url(#paint32_linear_12_1190)"/>
<path d="M563.418 513.031C563.355 513.367 563.287 513.666 563.212 513.927C563.138 514.176 563.026 514.506 562.876 514.916L561.775 517.996L561.924 517.697L562.073 517.399C562.521 516.528 563.019 515.868 563.566 515.42C564.213 514.873 564.966 514.599 565.825 514.599L567.131 514.954L569.035 515.794C569.719 516.067 570.31 516.204 570.808 516.204C571.343 516.204 571.841 516.098 572.301 515.887C573.309 515.439 573.869 515.215 573.981 515.215C574.08 515.215 574.242 515.29 574.466 515.439C573.57 516.708 572.083 518.363 570.005 520.403C567.753 522.618 566.217 524.26 565.396 525.33C563.915 527.259 562.975 529.225 562.577 531.228H565.899C566.061 530.544 566.26 529.878 566.497 529.231C566.733 528.584 567.032 527.9 567.392 527.178C567.691 526.556 568.008 525.946 568.344 525.349C568.693 524.74 569.091 524.099 569.539 523.427C569.912 522.854 570.528 521.971 571.386 520.777L573.29 518.108C573.626 517.598 573.925 517.119 574.186 516.671C574.46 516.21 574.702 515.756 574.914 515.308C575.126 514.86 575.275 514.45 575.362 514.077C575.449 513.691 575.493 513.28 575.493 512.845V512.77H575.119L575.154 512.805L575.229 512.992V513.179V513.346C575.055 513.545 574.763 513.726 574.352 513.887C574.178 513.95 573.979 513.999 573.755 514.037C573.543 514.075 573.307 514.095 573.045 514.095C572.56 514.095 571.758 513.821 570.638 513.273C569.518 512.726 568.635 512.452 567.988 512.452C567.328 512.452 566.582 512.776 565.748 513.423C564.915 514.057 564.236 514.412 563.714 514.487L563.975 513.815C564.161 513.379 564.255 513.006 564.255 512.695L564.22 512.583L564.145 512.548L563.865 512.606L563.604 512.83L563.418 513.031ZM570.902 520.217L568.158 523.371C567.076 524.652 566.255 525.766 565.695 526.711C564.948 527.98 564.444 529.268 564.183 530.575C564.133 530.598 564.077 530.617 564.015 530.633C563.953 530.644 563.847 530.65 563.698 530.65C563.449 530.65 563.294 530.662 563.232 530.685C563.381 529.304 563.885 527.942 564.743 526.598C565.403 525.528 566.354 524.383 567.599 523.164C567.947 522.815 568.401 522.392 568.961 521.895C569.534 521.384 570.18 520.826 570.902 520.217ZM566.161 513.423C566.709 513.062 567.275 512.882 567.86 512.882C568.444 512.882 569.384 513.143 570.678 513.666C571.984 514.189 573.129 514.45 574.112 514.45C574.1 514.611 573.988 514.723 573.776 514.786L573.16 514.861L572.973 514.954C572.649 514.954 572.301 514.917 571.928 514.842C571.554 514.767 571.137 514.643 570.677 514.469L568.457 513.648C567.859 513.461 567.299 513.368 566.777 513.368C566.578 513.368 566.373 513.384 566.161 513.423Z" fill="url(#paint33_linear_12_1190)"/>
<path d="M576.762 529.884C576.762 530.369 576.918 530.749 577.229 531.023C577.552 531.284 577.963 531.415 578.461 531.415C578.958 531.415 579.357 531.203 579.655 530.78C579.892 530.419 580.01 529.971 580.01 529.436C579.848 529.026 579.661 528.733 579.45 528.559C579.251 528.373 578.933 528.279 578.498 528.279C578.05 528.279 577.645 528.435 577.285 528.746C576.936 529.057 576.762 529.436 576.762 529.884ZM577.751 528.82C578.149 528.82 578.442 529.013 578.628 529.399C578.628 529.648 578.535 529.897 578.349 530.146C578.175 530.382 577.988 530.5 577.789 530.5C577.503 530.5 577.304 530.42 577.192 530.258C577.105 530.059 577.061 529.866 577.061 529.679C577.061 529.455 577.161 529.237 577.36 529.026C577.459 528.914 577.59 528.846 577.751 528.82Z" fill="url(#paint34_linear_12_1190)"/>
<path d="M581.353 524.92V526.245C581.353 526.718 581.403 527.103 581.503 527.402C581.739 528.447 582.336 529.349 583.294 530.108C584.265 530.855 585.186 531.228 586.056 531.228C586.965 531.228 587.761 531.166 588.445 531.041C589.13 530.904 589.758 530.711 590.33 530.462C592.085 529.691 593.628 528.067 594.959 525.591C596.178 523.289 596.788 521.112 596.788 519.059C596.788 517.018 596.471 515.482 595.836 514.449C595.052 513.18 593.372 512.545 590.797 512.545C588.234 512.545 585.976 513.839 584.022 516.427C582.243 518.792 581.353 521.623 581.353 524.92ZM591.936 512.77C592.881 512.77 593.484 513.106 593.746 513.778C593.87 514.126 593.932 515.065 593.932 516.596C593.932 517.405 593.864 518.226 593.727 519.059C593.59 519.881 593.366 520.783 593.055 521.766C592.831 522.5 592.526 523.321 592.14 524.229C591.754 525.138 591.3 526.096 590.778 527.103L589.919 528.708C589.546 529.355 589.21 529.841 588.912 530.164C588.613 530.45 588.221 530.656 587.736 530.78C587.263 530.905 586.697 530.967 586.037 530.967C585.353 530.967 584.843 530.793 584.507 530.445C584.183 530.084 584.022 529.275 584.022 528.018C584.022 526.762 584.227 525.337 584.638 523.744C584.973 522.45 585.515 520.988 586.261 519.358C586.498 518.848 586.79 518.245 587.138 517.548C587.499 516.851 587.941 516.011 588.464 515.029C588.638 514.693 588.818 514.4 589.005 514.151C589.204 513.903 589.446 513.678 589.732 513.479C590.018 513.28 590.361 513.106 590.759 512.957C591.17 512.832 591.562 512.77 591.936 512.77ZM594.156 513.722C594.555 514.319 594.835 515.041 594.996 515.887C595.046 516.186 595.09 516.59 595.127 517.1C595.166 517.597 595.185 518.151 595.185 518.761C595.185 520.03 594.762 521.703 593.916 523.781C593.082 525.847 592.093 527.464 590.948 528.634L590.407 529.119L589.53 529.922C591.036 527.968 592.211 525.903 593.058 523.725C593.493 522.581 593.829 521.492 594.065 520.459C594.302 519.427 594.42 518.5 594.42 517.678C594.42 516.795 594.401 516.042 594.362 515.42C594.323 514.798 594.255 514.232 594.156 513.722ZM583.332 529.772C582.784 529.374 582.38 528.665 582.119 527.645C581.957 526.911 581.876 526.307 581.876 525.834C581.876 525.623 581.876 525.423 581.876 525.237C581.876 525.05 581.888 524.908 581.911 524.808C582.097 522.917 582.365 521.399 582.713 520.254C583.124 518.886 583.727 517.697 584.524 516.689C585.382 515.632 586.577 514.668 588.107 513.797C586.539 515.302 585.252 517.169 584.244 519.396C583.199 521.698 582.676 523.495 582.676 524.789C582.676 526.058 582.769 527.116 582.956 527.962L583.332 529.772Z" fill="url(#paint35_linear_12_1190)"/>
<path d="M612.839 512.583C612.192 512.932 611.501 513.181 610.767 513.33C610.468 513.392 610.138 513.442 609.778 513.479C609.429 513.518 609.075 513.537 608.714 513.537C608.03 513.537 607.383 513.481 606.773 513.369C606.163 513.245 605.572 513.083 605 512.884L604.029 515.478L603.134 518.073L602.219 520.723C603.053 520.238 603.749 519.902 604.309 519.715C604.981 519.491 605.74 519.379 606.586 519.379C607.432 519.379 608.054 519.653 608.453 520.2C608.801 520.685 608.975 521.581 608.975 522.888C608.975 524.194 608.726 525.494 608.229 526.788C607.669 528.281 606.748 529.519 605.466 530.502C605.13 530.739 604.795 530.925 604.459 531.062C604.135 531.174 603.675 531.23 603.077 531.23C602.505 531.23 601.958 530.963 601.435 530.428C600.913 529.88 600.651 529.289 600.651 528.655C600.651 528.02 600.825 527.454 601.174 526.956C601.522 526.446 601.908 526.073 602.331 525.837C602.157 525.837 601.852 525.899 601.416 526.023L600.875 526.153L599.755 526.284L598.356 526.302C598.281 526.401 598.219 526.544 598.169 526.731L598.135 528.168C598.135 528.939 598.688 529.711 599.796 530.482C600.766 531.154 602.209 531.49 604.126 531.49C606.029 531.49 607.808 530.83 609.463 529.511C611.23 528.08 612.113 526.376 612.113 524.398C612.113 522.407 611.622 520.995 610.639 520.161C609.743 519.415 608.773 519.041 607.727 519.041C606.682 519.041 605.749 519.116 604.928 519.265L602.987 519.602L603.528 518.09C603.665 517.704 603.752 517.486 603.789 517.437V517.269L604.088 516.373L604.405 515.515C604.729 515.515 605.003 515.515 605.226 515.515C605.451 515.515 605.793 515.539 606.253 515.589L608.175 515.664C608.884 515.664 609.724 515.422 610.695 514.936C611.765 514.377 612.478 513.591 612.839 512.583ZM608.285 519.694C608.957 519.694 609.498 520.136 609.908 521.019C610.232 521.741 610.394 522.531 610.394 523.39C610.394 524.26 610.157 525.262 609.684 526.394C609.498 526.867 609.274 527.34 609.013 527.813C608.764 528.273 608.471 528.752 608.135 529.25L607.352 529.735C607.028 529.934 606.767 530.052 606.568 530.09C607.426 529.057 608.111 527.956 608.621 526.786C609.143 525.617 609.405 524.659 609.405 523.912C609.405 523.141 609.367 522.55 609.293 522.139L609.087 520.982L608.285 519.694ZM598.505 527.477C598.505 527.178 598.561 526.948 598.673 526.786C598.797 526.612 599.009 526.525 599.307 526.525H599.531C599.531 526.836 599.531 527.16 599.531 527.496C599.531 527.819 599.556 528.211 599.606 528.671C599.669 529.119 599.824 529.536 600.073 529.922C599.526 529.81 599.121 529.524 598.86 529.063C598.624 528.59 598.505 528.062 598.505 527.477ZM605.205 513.423L607.202 513.74C607.862 513.803 608.49 513.834 609.087 513.834C609.747 513.834 610.437 513.734 611.159 513.535C610.948 513.946 610.549 514.226 609.964 514.375C609.641 514.45 609.174 514.487 608.565 514.487C607.98 514.487 607.476 514.462 607.053 514.412C606.63 514.35 606.257 514.294 605.933 514.245C605.609 514.195 605.298 514.132 605 514.058L605.205 513.423Z" fill="url(#paint36_linear_12_1190)"/>
<path d="M614.145 529.884C614.145 530.369 614.301 530.749 614.612 531.023C614.935 531.284 615.346 531.415 615.844 531.415C616.341 531.415 616.739 531.203 617.038 530.78C617.274 530.419 617.393 529.971 617.393 529.436C617.231 529.026 617.044 528.733 616.832 528.559C616.634 528.373 616.316 528.279 615.881 528.279C615.433 528.279 615.028 528.435 614.667 528.746C614.319 529.057 614.145 529.436 614.145 529.884ZM615.134 528.82C615.532 528.82 615.825 529.013 616.011 529.399C616.011 529.648 615.918 529.897 615.732 530.146C615.557 530.382 615.371 530.5 615.172 530.5C614.886 530.5 614.687 530.42 614.575 530.258C614.488 530.059 614.444 529.866 614.444 529.679C614.444 529.455 614.543 529.237 614.742 529.026C614.842 528.914 614.972 528.846 615.134 528.82Z" fill="url(#paint37_linear_12_1190)"/>
<path d="M627.639 512.154C626.245 512.154 624.827 512.758 623.384 513.964C621.866 515.221 621.107 516.304 621.107 517.212C621.107 518.133 621.25 518.885 621.536 519.47C621.822 520.055 622.151 520.534 622.525 520.907C622.711 521.094 622.904 521.224 623.103 521.299L623.925 521.374C624.273 521.374 624.553 521.231 624.765 520.945L625.231 520.068V519.993L625.455 519.489C625.53 519.327 625.611 519.215 625.698 519.153L624.933 519.47C624.672 519.582 624.292 519.638 623.794 519.638C623.309 519.638 622.911 519.327 622.6 518.705C622.363 518.207 622.245 517.523 622.245 516.652C622.245 515.769 622.681 514.941 623.552 514.17C624.435 513.386 625.331 512.994 626.239 512.994C627.147 512.994 627.963 513.193 628.684 513.591C629.418 513.989 629.872 514.543 630.047 515.252C630.121 515.663 630.159 516.416 630.159 517.511C630.159 518.581 629.561 519.8 628.367 521.169C628.106 521.467 627.832 521.76 627.546 522.046C627.26 522.319 626.88 522.674 626.407 523.11L624.392 524.957L621.125 527.776C619.757 529.07 618.998 530.183 618.849 531.116C619.135 530.606 619.439 530.233 619.763 529.996C620.149 529.723 620.628 529.586 621.2 529.586C621.797 529.586 622.743 529.86 624.037 530.407C624.696 530.681 625.3 530.886 625.847 531.023C626.395 531.16 626.905 531.229 627.378 531.229C628.323 531.229 629.369 530.806 630.513 529.959C631.583 529.188 632.373 528.311 632.883 527.328C632.435 527.9 632.006 528.342 631.596 528.653C631.198 528.964 630.824 529.12 630.476 529.12C630.264 529.12 630.096 529.114 629.972 529.102C629.847 529.091 629.654 529.053 629.393 528.99L628.759 528.823L626.687 528.225C625.978 528.039 625.381 527.902 624.895 527.815C624.41 527.728 623.956 527.684 623.533 527.684C622.961 527.684 622.569 527.696 622.357 527.719C622.146 527.731 621.878 527.768 621.554 527.831C622.376 527.047 623.975 526.027 626.351 524.77C628.728 523.514 630.376 522.487 631.297 521.691C632.852 520.385 633.63 518.941 633.63 517.361C633.63 515.806 632.995 514.524 631.726 513.516C630.557 512.608 629.194 512.154 627.639 512.154ZM620.789 529.157C620.889 529.107 621.038 529.057 621.237 529.007L622.301 528.972C622.861 528.972 623.608 529.122 624.541 529.421L626.93 530.204C627.552 530.379 628.193 530.466 628.852 530.466C628.952 530.466 629.057 530.466 629.17 530.466C629.319 530.443 629.431 530.431 629.506 530.431C629.244 530.543 628.94 530.63 628.591 530.692C628.243 530.755 628 530.792 627.863 530.804C627.739 530.804 627.639 530.804 627.565 530.804L620.789 529.157ZM631.614 516.932C631.614 518.437 631.154 519.781 630.233 520.963C629.449 521.984 628.317 522.867 626.836 523.613L628.703 521.374C629.325 520.64 629.785 519.918 630.084 519.209C630.444 518.35 630.625 517.523 630.625 516.727C630.625 515.893 630.45 515.203 630.102 514.655C629.891 514.294 629.518 513.84 628.982 513.293L629.15 513.258L629.505 513.293L629.785 513.423L630.046 513.629L630.307 513.834C630.83 514.245 631.191 514.699 631.39 515.197C631.539 515.595 631.614 516.173 631.614 516.932Z" fill="url(#paint38_linear_12_1190)"/>
<path d="M643.876 512.154C642.482 512.154 641.064 512.758 639.621 513.964C638.103 515.221 637.344 516.304 637.344 517.212C637.344 518.133 637.487 518.885 637.773 519.47C638.059 520.055 638.389 520.534 638.762 520.907C638.948 521.094 639.141 521.224 639.341 521.299L640.162 521.374C640.51 521.374 640.79 521.231 641.002 520.945L641.468 520.068V519.993L641.693 519.489C641.767 519.327 641.848 519.215 641.935 519.153L641.17 519.47C640.909 519.582 640.529 519.638 640.032 519.638C639.546 519.638 639.148 519.327 638.837 518.705C638.601 518.207 638.483 517.523 638.483 516.652C638.483 515.769 638.918 514.941 639.789 514.17C640.672 513.386 641.568 512.994 642.476 512.994C643.385 512.994 644.2 513.193 644.921 513.591C645.656 513.989 646.11 514.543 646.284 515.252C646.359 515.663 646.396 516.416 646.396 517.511C646.396 518.581 645.799 519.8 644.604 521.169C644.343 521.467 644.069 521.76 643.783 522.046C643.497 522.319 643.117 522.674 642.645 523.11L640.629 524.957L637.363 527.776C635.994 529.07 635.235 530.183 635.086 531.116C635.372 530.606 635.677 530.233 636 529.996C636.386 529.723 636.865 529.586 637.437 529.586C638.035 529.586 638.98 529.86 640.274 530.407C640.934 530.681 641.537 530.886 642.085 531.023C642.632 531.16 643.142 531.229 643.615 531.229C644.561 531.229 645.606 530.806 646.751 529.959C647.821 529.188 648.611 528.311 649.121 527.328C648.673 527.9 648.244 528.342 647.833 528.653C647.435 528.964 647.061 529.12 646.713 529.12C646.501 529.12 646.334 529.114 646.209 529.102C646.085 529.091 645.892 529.053 645.63 528.99L644.996 528.823L642.924 528.225C642.215 528.039 641.618 527.902 641.133 527.815C640.647 527.728 640.193 527.684 639.77 527.684C639.198 527.684 638.806 527.696 638.594 527.719C638.383 527.731 638.115 527.768 637.792 527.831C638.613 527.047 640.212 526.027 642.588 524.77C644.965 523.514 646.613 522.487 647.534 521.691C649.089 520.385 649.867 518.941 649.867 517.361C649.867 515.806 649.233 514.524 647.963 513.516C646.794 512.608 645.431 512.154 643.876 512.154ZM637.026 529.157C637.126 529.107 637.275 529.057 637.475 529.007L638.539 528.972C639.098 528.972 639.845 529.122 640.778 529.421L643.167 530.204C643.789 530.379 644.43 530.466 645.089 530.466C645.189 530.466 645.295 530.466 645.407 530.466C645.556 530.443 645.668 530.431 645.743 530.431C645.482 530.543 645.177 530.63 644.829 530.692C644.48 530.755 644.238 530.792 644.101 530.804C643.976 530.804 643.877 530.804 643.802 530.804L637.026 529.157ZM647.851 516.932C647.851 518.437 647.391 519.781 646.47 520.963C645.686 521.984 644.554 522.867 643.073 523.613L644.94 521.374C645.562 520.64 646.022 519.918 646.321 519.209C646.682 518.35 646.862 517.523 646.862 516.727C646.862 515.893 646.688 515.203 646.339 514.655C646.128 514.294 645.755 513.84 645.22 513.293L645.387 513.258L645.742 513.293L646.022 513.423L646.283 513.629L646.544 513.834C647.067 514.245 647.428 514.699 647.627 515.197C647.776 515.595 647.851 516.173 647.851 516.932Z" fill="url(#paint39_linear_12_1190)"/>
<path d="M358.4 552.96H665.6" stroke="url(#paint40_linear_12_1190)" stroke-width="0.999999"/>
<path d="M849.92 168.96V15.3599H880.64V46.0798L634.88 46.0799" stroke="url(#paint41_linear_12_1190)" stroke-width="0.999999"/>
<path d="M865.28 46.0799L849.92 30.7199L865.28 15.3599L880.64 30.7199L865.28 46.0799Z" fill="url(#paint42_linear_12_1190)"/>
<path d="M711.68 30.7202H865.28" stroke="url(#paint43_linear_12_1190)" stroke-width="0.999999"/>
<path d="M865.28 130.56L857.6 122.88L865.28 115.2L872.96 122.88L865.28 130.56Z" fill="url(#paint44_linear_12_1190)"/>
<path d="M865.28 123.648V31.4878" stroke="url(#paint45_linear_12_1190)" stroke-width="0.999999"/>
<path d="M711.68 38.4L704 30.72L711.68 23.04L719.36 30.72L711.68 38.4Z" fill="url(#paint46_linear_12_1190)"/>
<path d="M865.28 38.4L857.6 30.72L865.28 23.04L872.96 30.72L865.28 38.4Z" fill="url(#paint47_linear_12_1190)"/>
<path d="M819.2 46.0801L849.92 76.8" stroke="url(#paint48_linear_12_1190)" stroke-width="0.999999"/>
<path d="M235.52 384L204.8 353.28V76.8003H419.84L450.56 107.52H573.44L604.16 76.8003H819.2V353.28L788.48 384L819.2 414.72V691.2H588.8L558.08 660.48H465.92L435.2 691.2L204.8 691.2V414.72L235.52 384Z" stroke="url(#paint49_linear_12_1190)" stroke-width="0.999999"/>
<path d="M372.846 523.726C372.846 525.256 373.517 526.538 374.861 527.57C376.081 528.491 377.574 528.951 379.34 528.951C381.107 528.951 382.756 528.317 384.286 527.048C385.879 525.716 386.675 524.236 386.675 522.606C386.675 520.976 386.308 519.819 385.574 519.134C384.989 518.587 383.981 518.164 382.551 517.865C382.476 517.842 382.376 517.83 382.252 517.83L381.412 517.795C380.939 517.795 380.311 518.075 379.527 518.635C378.918 519.083 378.32 519.699 377.736 520.483L377.96 520.744C378.146 520.122 378.563 519.556 379.21 519.046C379.857 518.523 380.523 518.262 381.207 518.262C381.891 518.262 382.426 518.492 382.812 518.953C383.198 519.413 383.391 520.377 383.391 521.845C383.391 523.326 382.955 524.769 382.085 526.175C381.102 527.756 380.094 528.546 379.061 528.546C378.041 528.546 377.257 528.427 376.71 528.191C376.05 527.892 375.683 527.569 375.608 527.22L375.55 526.287V523.744C375.55 522.313 376.11 520.279 377.23 517.641C378.362 515.003 379.918 512.739 381.896 510.848C382.207 510.636 382.562 510.487 382.96 510.4C383.171 510.361 383.395 510.33 383.632 510.306C383.88 510.283 384.154 510.271 384.453 510.271C385.025 510.271 385.498 510.377 385.871 510.589C386.332 510.863 386.562 511.192 386.562 511.578C386.562 511.976 386.537 512.287 386.487 512.511C386.448 512.735 386.398 512.903 386.338 513.015C386.4 512.89 386.605 512.673 386.953 512.362C387.588 511.789 387.918 511.447 387.943 511.335C387.943 511.248 387.918 511.161 387.868 511.074L387.756 510.888C387.345 510.44 386.816 510.141 386.169 509.992C385.833 509.917 384.882 509.88 383.314 509.88C381.759 509.88 380.066 510.602 378.237 512.045C376.595 513.351 375.27 515.106 374.262 517.308C373.789 518.378 373.435 519.436 373.198 520.481C372.962 521.526 372.846 522.606 372.846 523.726ZM382.849 518.556C383.235 518.556 383.565 518.674 383.838 518.91C384.112 519.147 384.336 519.495 384.51 519.955C384.709 520.553 384.809 521.318 384.809 522.251C384.809 523.172 384.435 524.298 383.689 525.629C383.266 526.351 382.855 526.892 382.457 527.253C382.059 527.601 381.654 527.775 381.244 527.775C382.015 527.041 382.637 526.133 383.11 525.051C383.583 523.956 383.819 522.842 383.819 521.71C383.819 520.553 383.496 519.501 382.849 518.556ZM374.021 526.32C373.785 526.009 373.555 525.598 373.331 525.088C373.107 524.578 372.995 524.111 372.995 523.688C372.995 523.34 373 523.085 373.012 522.923C373.035 522.761 373.085 522.45 373.161 521.99C373.236 521.517 373.367 520.913 373.553 520.179C373.752 519.445 374.138 518.475 374.71 517.268C375.382 515.825 376.079 514.636 376.801 513.703C377.684 512.559 378.493 511.986 379.227 511.986C377.609 513.405 376.365 515.14 375.494 517.193C374.797 518.898 374.331 520.994 374.094 523.483L373.964 525.069L374.021 526.32Z" fill="url(#paint50_linear_12_1190)"/>
<path d="M402.427 515.924L401.83 518.294C401.382 520.173 400.791 521.38 400.057 521.915L399.516 522.307C399.404 522.406 399.305 522.531 399.217 522.68L400.375 522.12C400.237 522.73 400.063 523.427 399.852 524.21C399.653 524.994 399.442 525.753 399.217 526.487L397.948 530.798L396.698 535.147C396.847 535.297 397.121 535.371 397.519 535.371L398.527 535.336C398.701 535.336 398.826 535.342 398.9 535.354C398.987 535.377 399.106 535.42 399.255 535.484C399.38 535.186 399.51 534.812 399.647 534.365C399.796 533.929 399.946 533.438 400.095 532.89C400.244 532.355 400.35 531.976 400.413 531.752C400.524 531.366 400.649 530.943 400.786 530.483C401.059 529.537 401.339 528.71 401.626 528C401.937 528.237 402.267 528.405 402.615 528.504C402.789 528.554 403.038 528.592 403.361 528.616C403.697 528.64 404.145 528.651 404.705 528.651C405.763 528.651 406.938 528.054 408.232 526.859C409.539 525.652 410.192 524.377 410.192 523.033C410.192 521.702 409.856 520.719 409.184 520.085C408.525 519.45 407.704 519.133 406.721 519.133L404.294 519.469L404.108 519.544C404.195 518.946 404.332 518.256 404.519 517.472L404.985 515.531C404.886 515.531 404.457 515.631 403.698 515.83C403.337 515.904 403.02 515.942 402.746 515.942C402.609 515.942 402.502 515.936 402.427 515.924ZM402.688 516.372L403.304 516.466C403.192 517.312 402.968 518.307 402.632 519.452C402.558 519.738 402.452 520.111 402.315 520.572C402.178 521.032 401.979 521.654 401.718 522.438L400.859 525.406C400.673 526.165 400.548 526.662 400.486 526.899C400.386 527.285 400.237 527.801 400.038 528.448L399.124 531.509L398.228 534.532L397.929 534.738L397.593 534.812C397.444 534.812 397.313 534.732 397.201 534.57L399.012 528.504L400.841 522.42L402.688 516.372ZM403.92 520.236C404.306 519.912 404.779 519.75 405.339 519.75C405.886 519.75 406.309 520.142 406.608 520.926C406.707 521.225 406.782 521.536 406.832 521.859C406.882 522.183 406.907 522.575 406.907 523.035C406.907 523.856 406.608 524.914 406.011 526.208C405.314 527.688 404.711 528.429 404.2 528.429C403.703 528.429 403.385 528.373 403.249 528.261C403.112 528.149 403.031 528.012 403.006 527.851C403.006 527.764 403.018 527.676 403.041 527.589C403.064 527.502 403.12 527.359 403.209 527.16C403.296 526.949 403.352 526.756 403.376 526.581L403.264 526.469C403.152 526.469 403.028 526.494 402.891 526.544L402.574 526.694H402.201C402.263 526.295 402.419 525.605 402.667 524.622C402.916 523.627 403.09 523.048 403.19 522.886L403.395 522.102L403.92 520.236ZM406.552 519.825H406.627L406.72 519.79C407.28 519.79 407.697 519.989 407.97 520.388C408.256 520.773 408.399 521.42 408.399 522.329C408.399 522.789 408.362 523.237 408.287 523.672C408.213 524.095 408.088 524.525 407.914 524.96C407.516 526.018 406.85 526.802 405.917 527.312C406.303 526.702 406.639 525.899 406.925 524.904C407.211 523.909 407.354 523.125 407.354 522.552C407.354 521.918 407.285 521.395 407.148 520.985C407.037 520.537 406.838 520.149 406.552 519.825Z" fill="url(#paint51_linear_12_1190)"/>
<path d="M410.695 527.383C410.695 527.869 410.851 528.248 411.162 528.522C411.485 528.783 411.896 528.914 412.393 528.914C412.891 528.914 413.289 528.702 413.588 528.279C413.824 527.918 413.943 527.471 413.943 526.935C413.781 526.525 413.594 526.232 413.382 526.058C413.184 525.872 412.866 525.778 412.431 525.778C411.983 525.778 411.578 525.934 411.217 526.245C410.869 526.556 410.695 526.935 410.695 527.383ZM411.684 526.32C412.082 526.32 412.375 526.512 412.561 526.898C412.561 527.147 412.468 527.396 412.281 527.645C412.107 527.881 411.921 527.999 411.721 527.999C411.435 527.999 411.236 527.919 411.124 527.757C411.037 527.558 410.993 527.365 410.993 527.178C410.993 526.954 411.093 526.736 411.292 526.525C411.391 526.413 411.522 526.345 411.684 526.32Z" fill="url(#paint52_linear_12_1190)"/>
<path d="M424.917 523.147L424.562 523.651L424.226 524.211L424.191 523.875C424.191 523.738 424.197 523.632 424.208 523.558C424.232 523.483 424.275 523.347 424.339 523.148C424.401 522.949 424.451 522.837 424.488 522.812L424.694 522.214L424.769 521.654V521.579L424.734 521.504C424.772 521.081 424.592 520.745 424.193 520.496C423.832 520.248 423.421 520.123 422.961 520.123L422.886 520.088C422.115 520.088 421.381 520.455 420.684 521.19C420.609 521.264 420.366 521.606 419.956 522.216C419.545 522.826 418.967 523.709 418.22 524.866L418.612 523.205C418.873 521.998 419.103 521.09 419.303 520.48L418.519 520.331L417.697 520.273C417.449 520.273 417.225 520.298 417.026 520.348C416.839 520.387 416.665 520.468 416.503 520.591C416.391 520.951 416.174 521.661 415.85 522.718C415.601 523.552 415.414 524.186 415.29 524.622C414.892 526.103 414.587 527.471 414.376 528.728H416.858L418.071 526.171C418.581 525.051 419.01 524.199 419.359 523.614C419.869 522.768 420.448 522.028 421.095 521.393L421.356 521.358L421.729 521.416C421.841 521.44 421.897 521.72 421.897 522.256C421.897 522.53 421.841 522.903 421.729 523.376C421.617 523.849 421.437 524.459 421.188 525.205L420.068 528.695L422.662 528.62L423.726 526.175C424.05 525.441 424.355 524.801 424.641 524.253C424.927 523.706 425.194 523.233 425.443 522.835C426.14 521.715 426.632 521.155 426.918 521.155C427.204 521.155 427.403 521.186 427.515 521.248C427.639 521.311 427.702 521.528 427.702 521.902C427.702 522.3 427.484 523.09 427.049 524.272C426.85 524.857 426.694 525.379 426.582 525.84C426.47 526.288 426.414 526.655 426.414 526.941C426.414 527.526 426.613 527.961 427.011 528.247C427.36 528.496 427.845 528.62 428.467 528.62C429.102 528.62 429.711 528.39 430.296 527.93C430.781 527.544 431.217 526.997 431.602 526.288C431.341 526.399 431.136 526.592 430.987 526.866L430.912 526.941C430.825 527.115 430.657 527.277 430.408 527.426C430.209 527.538 430.016 527.607 429.829 527.632C429.68 527.632 429.537 527.589 429.4 527.501C429.288 527.402 429.232 527.184 429.232 526.848C429.232 526.488 429.375 525.921 429.661 525.15C430.271 523.433 430.576 522.301 430.576 521.753C430.576 521.168 430.458 520.733 430.221 520.447C429.997 520.16 429.518 520.017 428.784 520.017C428.087 520.017 427.347 520.372 426.563 521.081C426.053 521.554 425.505 522.244 424.921 523.153L424.917 523.147ZM416.929 520.702L417.656 520.814C417.507 521.474 417.246 522.401 416.873 523.595L415.473 528.224C415.249 528.262 415.106 528.306 415.044 528.354L414.82 528.186L416.929 520.702ZM427.865 520.814L428.444 520.779C428.768 520.779 428.93 521.078 428.93 521.675C428.93 522.011 428.886 522.378 428.799 522.776C428.712 523.162 428.556 523.679 428.332 524.325C427.934 525.495 427.735 526.297 427.735 526.733C427.735 527.193 427.746 527.461 427.77 527.535L428.05 527.89L428.236 528.002L428.348 528.189L428.087 528.263C427.676 528.189 427.359 528.046 427.135 527.835C426.923 527.61 426.817 527.274 426.817 526.827C426.817 526.354 427.016 525.483 427.415 524.214C427.614 523.567 427.763 523.057 427.863 522.683C427.962 522.31 428.012 522.042 428.012 521.881L427.954 521.209L427.865 520.814ZM422.005 521.113L422.154 521.001L422.472 520.926C422.646 520.937 422.808 521.018 422.957 521.168C423.094 521.28 423.163 521.566 423.163 522.027C423.163 522.462 422.92 523.427 422.435 524.92L421.278 528.186H421.128L421.054 528.221H420.942L420.587 528.146C420.86 527.524 421.215 526.385 421.651 524.73C422.099 523.075 422.322 522.105 422.322 521.819C422.322 521.508 422.291 521.321 422.229 521.259C422.179 521.184 422.105 521.137 422.005 521.113Z" fill="url(#paint53_linear_12_1190)"/>
<path d="M431.953 527.383C431.953 527.869 432.108 528.248 432.419 528.522C432.743 528.783 433.154 528.914 433.651 528.914C434.149 528.914 434.547 528.702 434.846 528.279C435.082 527.918 435.2 527.471 435.2 526.935C435.039 526.525 434.852 526.232 434.64 526.058C434.441 525.872 434.124 525.778 433.688 525.778C433.24 525.778 432.836 525.934 432.475 526.245C432.127 526.556 431.953 526.935 431.953 527.383ZM432.942 526.32C433.34 526.32 433.632 526.512 433.819 526.898C433.819 527.147 433.726 527.396 433.539 527.645C433.365 527.881 433.178 527.999 432.979 527.999C432.693 527.999 432.494 527.919 432.382 527.757C432.295 527.558 432.251 527.365 432.251 527.178C432.251 526.954 432.351 526.736 432.55 526.525C432.649 526.413 432.78 526.345 432.942 526.32Z" fill="url(#paint54_linear_12_1190)"/>
<path d="M496.062 597.287C494.227 598.357 492.278 598.892 490.214 598.892C487.054 598.892 484.366 597.784 482.149 595.567C479.932 593.35 478.823 590.662 478.823 587.502H479.894C479.894 590.356 480.9 592.79 482.913 594.803C484.926 596.816 487.36 597.822 490.214 597.822C491.972 597.822 493.565 597.427 494.992 596.637V578.826L490.214 577.067C488.94 576.609 487.971 575.984 487.309 575.194C486.672 574.379 486.353 573.525 486.353 572.633C486.353 571.64 486.71 570.799 487.424 570.111C488.137 569.397 489.054 569.041 490.176 569.041C490.991 569.041 491.743 569.27 492.431 569.728C493.119 570.187 493.616 570.799 493.921 571.563L492.928 571.945C492.699 571.385 492.329 570.951 491.819 570.646C491.335 570.314 490.787 570.149 490.176 570.149C489.335 570.149 488.672 570.378 488.188 570.837C487.729 571.295 487.5 571.869 487.5 572.557C487.5 573.219 487.729 573.856 488.188 574.468C488.672 575.054 489.347 575.513 490.214 575.844L496.062 578.099V597.287ZM501.642 587.502C501.642 589.362 501.209 591.12 500.343 592.777C499.476 594.408 498.279 595.758 496.75 596.828V578.481C498.304 579.552 499.502 580.864 500.343 582.418C501.209 583.973 501.642 585.667 501.642 587.502Z" fill="url(#paint55_linear_12_1190)"/>
<path d="M518.957 598.854C515.313 598.854 512.115 597.695 509.363 595.376V572.595C510.612 571.55 512.052 570.709 513.683 570.072C515.339 569.41 516.957 569.079 518.537 569.079C522.589 569.079 526.003 570.302 528.781 572.748L528.093 573.589C525.519 571.296 522.461 570.149 518.919 570.149C515.887 570.149 513.058 571.13 510.434 573.092V594.879C513.007 596.841 515.861 597.822 518.996 597.822C522.589 597.822 525.736 596.573 528.437 594.076C531.138 591.553 532.59 588.496 532.794 584.903H523.2V583.871H533.902C533.902 588.05 532.437 591.592 529.507 594.497C526.576 597.402 523.06 598.854 518.957 598.854ZM508.637 594.726C507.21 593.35 506.089 591.745 505.274 589.91C504.458 588.05 504.051 586.139 504.051 584.176C504.051 579.819 505.579 576.175 508.637 573.245V594.726Z" fill="url(#paint56_linear_12_1190)"/>
<path d="M543.038 598.357H538.566V574.468L536.387 575.997L535.737 575.118L543.038 569.958V598.357ZM545.216 598.357H544.146V569.193L545.216 568.467V598.357Z" fill="url(#paint57_linear_12_1190)"/>
<path d="M849.92 599.04V752.64H880.64V721.92H634.88" stroke="url(#paint58_linear_12_1190)" stroke-width="0.999999"/>
<path d="M865.28 721.92L849.92 737.28L865.28 752.64L880.64 737.28L865.28 721.92Z" fill="url(#paint59_linear_12_1190)"/>
<path d="M711.68 737.28H865.28" stroke="url(#paint60_linear_12_1190)" stroke-width="0.999999"/>
<path d="M865.28 637.44L857.6 645.12L865.28 652.8L872.96 645.12L865.28 637.44Z" fill="url(#paint61_linear_12_1190)"/>
<path d="M865.28 644.352V736.512" stroke="url(#paint62_linear_12_1190)" stroke-width="0.999999"/>
<path d="M711.68 729.6L704 737.28L711.68 744.96L719.36 737.28L711.68 729.6Z" fill="url(#paint63_linear_12_1190)"/>
<path d="M865.28 729.6L857.6 737.28L865.28 744.96L872.96 737.28L865.28 729.6Z" fill="url(#paint64_linear_12_1190)"/>
<path d="M819.2 721.92L849.92 691.2" stroke="url(#paint65_linear_12_1190)" stroke-width="0.999999"/>
<path d="M174.08 599.04V752.64H143.36V721.92H389.12" stroke="url(#paint66_linear_12_1190)" stroke-width="0.999999"/>
<path d="M158.72 721.92L174.08 737.28L158.72 752.64L143.36 737.28L158.72 721.92Z" fill="url(#paint67_linear_12_1190)"/>
<path d="M312.32 737.28H158.72" stroke="url(#paint68_linear_12_1190)" stroke-width="0.999999"/>
<path d="M158.72 637.44L166.4 645.12L158.72 652.8L151.04 645.12L158.72 637.44Z" fill="url(#paint69_linear_12_1190)"/>
<path d="M158.72 644.352V736.512" stroke="url(#paint70_linear_12_1190)" stroke-width="0.999999"/>
<path d="M312.32 729.6L320 737.28L312.32 744.96L304.64 737.28L312.32 729.6Z" fill="url(#paint71_linear_12_1190)"/>
<path d="M158.72 729.6L166.4 737.28L158.72 744.96L151.04 737.28L158.72 729.6Z" fill="url(#paint72_linear_12_1190)"/>
<path d="M204.8 721.92L174.08 691.2" stroke="url(#paint73_linear_12_1190)" stroke-width="0.999999"/>
<path d="M174.08 168.96V15.3599H143.36V46.0798L389.12 46.0799" stroke="url(#paint74_linear_12_1190)" stroke-width="0.999999"/>
<path d="M158.72 46.0799L174.08 30.7199L158.72 15.3599L143.36 30.7199L158.72 46.0799Z" fill="url(#paint75_linear_12_1190)"/>
<path d="M312.32 30.7202H158.72" stroke="url(#paint76_linear_12_1190)" stroke-width="0.999999"/>
<path d="M158.72 130.56L166.4 122.88L158.72 115.2L151.04 122.88L158.72 130.56Z" fill="url(#paint77_linear_12_1190)"/>
<path d="M158.72 123.648V31.4878" stroke="url(#paint78_linear_12_1190)" stroke-width="0.999999"/>
<path d="M312.32 38.4L320 30.72L312.32 23.04L304.64 30.72L312.32 38.4Z" fill="url(#paint79_linear_12_1190)"/>
<path d="M158.72 38.4L166.4 30.72L158.72 23.04L151.04 30.72L158.72 38.4Z" fill="url(#paint80_linear_12_1190)"/>
<path d="M204.8 46.0801L174.08 76.8" stroke="url(#paint81_linear_12_1190)" stroke-width="0.999999"/>
<path d="M465.92 691.2H558.08L573.44 706.56V721.92L558.08 737.28H465.92L450.56 721.92V706.56L465.92 691.2Z" stroke="url(#paint82_linear_12_1190)" stroke-width="1.00157"/>
<path d="M511.201 698.88L495.841 714.24L511.201 729.6L526.561 714.24L511.201 698.88Z" fill="url(#paint83_linear_12_1190)"/>
<path d="M511.201 706.56L503.521 714.24L511.201 721.92L518.881 714.24L511.201 706.56Z" fill="url(#paint84_linear_12_1190)"/>
<path d="M803.84 376.32L796.16 384L803.84 391.68L811.52 384L803.84 376.32Z" fill="url(#paint85_linear_12_1190)"/>
<path d="M220.16 376.32L212.48 384L220.16 391.68L227.84 384L220.16 376.32Z" fill="url(#paint86_linear_12_1190)"/>
<path d="M788.48 76.8003V353.28L819.2 384L788.48 414.72V691.2" stroke="url(#paint87_linear_12_1190)" stroke-width="0.999999"/>
<path d="M235.838 76.8003V353.28L205.118 384L235.838 414.72V691.2" stroke="url(#paint88_linear_12_1190)" stroke-width="0.999999"/>
</g>
<defs>
<linearGradient id="paint0_linear_12_1190" x1="10589.2" y1="-4808.87" x2="10732.5" y2="-4808.87" gradientUnits="userSpaceOnUse">
<stop/>
</linearGradient>
<linearGradient id="paint1_linear_12_1190" x1="37067.2" y1="-48903.8" x2="37067.2" y2="-48903.8" gradientUnits="userSpaceOnUse">
<stop stop-color="#F3F5EC"/>
</linearGradient>
<linearGradient id="paint2_linear_12_1190" x1="37067.2" y1="-48903.8" x2="37067.3" y2="-48903.8" gradientUnits="userSpaceOnUse">
<stop stop-color="#F3F5EC"/>
</linearGradient>
<linearGradient id="paint3_linear_12_1190" x1="37067.2" y1="-48903.8" x2="37067.2" y2="-48903.8" gradientUnits="userSpaceOnUse">
<stop stop-color="#F3F5EC"/>
</linearGradient>
<linearGradient id="paint4_linear_12_1190" x1="37067.2" y1="-48903.8" x2="37067.2" y2="-48903.8" gradientUnits="userSpaceOnUse">
<stop stop-color="#F3F5EC"/>
</linearGradient>
<linearGradient id="paint5_linear_12_1190" x1="37067.2" y1="-48903.8" x2="37067.3" y2="-48903.8" gradientUnits="userSpaceOnUse">
<stop stop-color="#F3F5EC"/>
</linearGradient>
<linearGradient id="paint6_linear_12_1190" x1="37067.3" y1="-48903.8" x2="37067.3" y2="-48903.8" gradientUnits="userSpaceOnUse">
<stop stop-color="#F3F5EC"/>
</linearGradient>
<linearGradient id="paint7_linear_12_1190" x1="37067.3" y1="-48903.8" x2="37067.3" y2="-48903.8" gradientUnits="userSpaceOnUse">
<stop stop-color="#F3F5EC"/>
</linearGradient>
<linearGradient id="paint8_linear_12_1190" x1="37067.3" y1="-48903.8" x2="37067.3" y2="-48903.8" gradientUnits="userSpaceOnUse">
<stop stop-color="#F3F5EC"/>
</linearGradient>
<linearGradient id="paint9_linear_12_1190" x1="37067.3" y1="-48903.8" x2="37067.3" y2="-48903.8" gradientUnits="userSpaceOnUse">
<stop stop-color="#F3F5EC"/>
</linearGradient>
<linearGradient id="paint10_linear_12_1190" x1="37067.3" y1="-48903.9" x2="37067.3" y2="-48903.9" gradientUnits="userSpaceOnUse">
<stop stop-color="#F3F5EC"/>
</linearGradient>
<linearGradient id="paint11_linear_12_1190" x1="37067.2" y1="-48903.8" x2="37067.2" y2="-48903.8" gradientUnits="userSpaceOnUse">
<stop stop-color="#F3F5EC"/>
</linearGradient>
<linearGradient id="paint12_linear_12_1190" x1="900932" y1="-958694" x2="900932" y2="-958694" gradientUnits="userSpaceOnUse">
<stop stop-color="#F9D678"/>
</linearGradient>
<linearGradient id="paint13_linear_12_1190" x1="900932" y1="-958694" x2="900932" y2="-958694" gradientUnits="userSpaceOnUse">
<stop stop-color="#F9D678"/>
</linearGradient>
<linearGradient id="paint14_linear_12_1190" x1="900931" y1="-958694" x2="900931" y2="-958694" gradientUnits="userSpaceOnUse">
<stop stop-color="#F9D678"/>
</linearGradient>
<linearGradient id="paint15_linear_12_1190" x1="900933" y1="-958694" x2="900933" y2="-958694" gradientUnits="userSpaceOnUse">
<stop stop-color="#F9D678"/>
</linearGradient>
<linearGradient id="paint16_linear_12_1190" x1="900932" y1="-958695" x2="900932" y2="-958695" gradientUnits="userSpaceOnUse">
<stop stop-color="#F9D678"/>
</linearGradient>
<linearGradient id="paint17_linear_12_1190" x1="900933" y1="-958695" x2="900933" y2="-958695" gradientUnits="userSpaceOnUse">
<stop stop-color="#F9D678"/>
</linearGradient>
<linearGradient id="paint18_linear_12_1190" x1="900932" y1="-958694" x2="900932" y2="-958694" gradientUnits="userSpaceOnUse">
<stop stop-color="#F9D678"/>
</linearGradient>
<linearGradient id="paint19_linear_12_1190" x1="900935" y1="-958694" x2="900935" y2="-958694" gradientUnits="userSpaceOnUse">
<stop stop-color="#F9D678"/>
</linearGradient>
<linearGradient id="paint20_linear_12_1190" x1="900929" y1="-958694" x2="900929" y2="-958694" gradientUnits="userSpaceOnUse">
<stop stop-color="#F9D678"/>
</linearGradient>
<linearGradient id="paint21_linear_12_1190" x1="900934" y1="-958694" x2="900934" y2="-958694" gradientUnits="userSpaceOnUse">
<stop stop-color="#F9D678"/>
</linearGradient>
<linearGradient id="paint22_linear_12_1190" x1="900932" y1="-958694" x2="900932" y2="-958694" gradientUnits="userSpaceOnUse">
<stop stop-color="#F9D678"/>
</linearGradient>
<linearGradient id="paint23_linear_12_1190" x1="900935" y1="-958694" x2="900935" y2="-958694" gradientUnits="userSpaceOnUse">
<stop stop-color="#F9D678"/>
</linearGradient>
<linearGradient id="paint24_linear_12_1190" x1="-nan" y1="-nan" x2="-nan" y2="-nan" gradientUnits="userSpaceOnUse">
<stop stop-color="#F3F5EC"/>
</linearGradient>
<linearGradient id="paint25_linear_12_1190" x1="900928" y1="-958693" x2="900928" y2="-958693" gradientUnits="userSpaceOnUse">
<stop stop-color="#F9D678"/>
</linearGradient>
<linearGradient id="paint26_linear_12_1190" x1="814667" y1="-1.09355e+06" x2="814667" y2="-1.09355e+06" gradientUnits="userSpaceOnUse">
<stop stop-color="#F3F5EC"/>
</linearGradient>
<linearGradient id="paint27_linear_12_1190" x1="814661" y1="-1.09354e+06" x2="814661" y2="-1.09354e+06" gradientUnits="userSpaceOnUse">
<stop stop-color="#F3F5EC"/>
</linearGradient>
<linearGradient id="paint28_linear_12_1190" x1="814666" y1="-1.09354e+06" x2="814666" y2="-1.09354e+06" gradientUnits="userSpaceOnUse">
<stop stop-color="#F3F5EC"/>
</linearGradient>
<linearGradient id="paint29_linear_12_1190" x1="814669" y1="-1.09356e+06" x2="814669" y2="-1.09356e+06" gradientUnits="userSpaceOnUse">
<stop stop-color="#F3F5EC"/>
</linearGradient>
<linearGradient id="paint30_linear_12_1190" x1="814666" y1="-1.09356e+06" x2="814666" y2="-1.09356e+06" gradientUnits="userSpaceOnUse">
<stop stop-color="#F3F5EC"/>
</linearGradient>
<linearGradient id="paint31_linear_12_1190" x1="814667" y1="-1.09355e+06" x2="814667" y2="-1.09355e+06" gradientUnits="userSpaceOnUse">
<stop stop-color="#F3F5EC"/>
</linearGradient>
<linearGradient id="paint32_linear_12_1190" x1="814662" y1="-1.09356e+06" x2="814662" y2="-1.09356e+06" gradientUnits="userSpaceOnUse">
<stop stop-color="#F3F5EC"/>
</linearGradient>
<linearGradient id="paint33_linear_12_1190" x1="814669" y1="-1.09355e+06" x2="814669" y2="-1.09355e+06" gradientUnits="userSpaceOnUse">
<stop stop-color="#F3F5EC"/>
</linearGradient>
<linearGradient id="paint34_linear_12_1190" x1="814649" y1="-1.09355e+06" x2="814649" y2="-1.09355e+06" gradientUnits="userSpaceOnUse">
<stop stop-color="#F3F5EC"/>
</linearGradient>
<linearGradient id="paint35_linear_12_1190" x1="814668" y1="-1.09355e+06" x2="814668" y2="-1.09355e+06" gradientUnits="userSpaceOnUse">
<stop stop-color="#F3F5EC"/>
</linearGradient>
<linearGradient id="paint36_linear_12_1190" x1="814672" y1="-1.09354e+06" x2="814672" y2="-1.09354e+06" gradientUnits="userSpaceOnUse">
<stop stop-color="#F3F5EC"/>
</linearGradient>
<linearGradient id="paint37_linear_12_1190" x1="814650" y1="-1.09355e+06" x2="814650" y2="-1.09355e+06" gradientUnits="userSpaceOnUse">
<stop stop-color="#F3F5EC"/>
</linearGradient>
<linearGradient id="paint38_linear_12_1190" x1="814659" y1="-1.09356e+06" x2="814659" y2="-1.09356e+06" gradientUnits="userSpaceOnUse">
<stop stop-color="#F3F5EC"/>
</linearGradient>
<linearGradient id="paint39_linear_12_1190" x1="814662" y1="-1.09356e+06" x2="814662" y2="-1.09356e+06" gradientUnits="userSpaceOnUse">
<stop stop-color="#F3F5EC"/>
</linearGradient>
<linearGradient id="paint40_linear_12_1190" x1="-nan" y1="-nan" x2="-nan" y2="-nan" gradientUnits="userSpaceOnUse">
<stop stop-color="#F3F5EC"/>
</linearGradient>
<linearGradient id="paint41_linear_12_1190" x1="814668" y1="-1.09355e+06" x2="814668" y2="-1.09355e+06" gradientUnits="userSpaceOnUse">
<stop stop-color="#F3F5EC"/>
</linearGradient>
<linearGradient id="paint42_linear_12_1190" x1="900930" y1="-958696" x2="900930" y2="-958696" gradientUnits="userSpaceOnUse">
<stop stop-color="#F9D678"/>
</linearGradient>
<linearGradient id="paint43_linear_12_1190" x1="-nan" y1="-nan" x2="-nan" y2="-nan" gradientUnits="userSpaceOnUse">
<stop stop-color="#F9D678"/>
</linearGradient>
<linearGradient id="paint44_linear_12_1190" x1="900933" y1="-958693" x2="900933" y2="-958693" gradientUnits="userSpaceOnUse">
<stop stop-color="#F9D678"/>
</linearGradient>
<linearGradient id="paint45_linear_12_1190" x1="-nan" y1="-nan" x2="-nan" y2="-nan" gradientUnits="userSpaceOnUse">
<stop stop-color="#F9D678"/>
</linearGradient>
<linearGradient id="paint46_linear_12_1190" x1="900940" y1="-958693" x2="900940" y2="-958693" gradientUnits="userSpaceOnUse">
<stop stop-color="#F9D678"/>
</linearGradient>
<linearGradient id="paint47_linear_12_1190" x1="814669" y1="-1.09355e+06" x2="814669" y2="-1.09355e+06" gradientUnits="userSpaceOnUse">
<stop stop-color="#F3F5EC"/>
</linearGradient>
<linearGradient id="paint48_linear_12_1190" x1="814666" y1="-1.09355e+06" x2="814666" y2="-1.09355e+06" gradientUnits="userSpaceOnUse">
<stop stop-color="#F3F5EC"/>
</linearGradient>
<linearGradient id="paint49_linear_12_1190" x1="900932" y1="-958694" x2="900932" y2="-958694" gradientUnits="userSpaceOnUse">
<stop stop-color="#F9D678"/>
</linearGradient>
<linearGradient id="paint50_linear_12_1190" x1="814664" y1="-1.09355e+06" x2="814664" y2="-1.09355e+06" gradientUnits="userSpaceOnUse">
<stop stop-color="#F3F5EC"/>
</linearGradient>
<linearGradient id="paint51_linear_12_1190" x1="814666" y1="-1.09354e+06" x2="814666" y2="-1.09354e+06" gradientUnits="userSpaceOnUse">
<stop stop-color="#F3F5EC"/>
</linearGradient>
<linearGradient id="paint52_linear_12_1190" x1="814657" y1="-1.09355e+06" x2="814657" y2="-1.09355e+06" gradientUnits="userSpaceOnUse">
<stop stop-color="#F3F5EC"/>
</linearGradient>
<linearGradient id="paint53_linear_12_1190" x1="814668" y1="-1.09356e+06" x2="814668" y2="-1.09356e+06" gradientUnits="userSpaceOnUse">
<stop stop-color="#F3F5EC"/>
</linearGradient>
<linearGradient id="paint54_linear_12_1190" x1="814679" y1="-1.09355e+06" x2="814679" y2="-1.09355e+06" gradientUnits="userSpaceOnUse">
<stop stop-color="#F3F5EC"/>
</linearGradient>
<linearGradient id="paint55_linear_12_1190" x1="814667" y1="-1.09355e+06" x2="814667" y2="-1.09355e+06" gradientUnits="userSpaceOnUse">
<stop stop-color="#F3F5EC"/>
</linearGradient>
<linearGradient id="paint56_linear_12_1190" x1="814666" y1="-1.09355e+06" x2="814666" y2="-1.09355e+06" gradientUnits="userSpaceOnUse">
<stop stop-color="#F3F5EC"/>
</linearGradient>
<linearGradient id="paint57_linear_12_1190" x1="814661" y1="-1.09355e+06" x2="814661" y2="-1.09355e+06" gradientUnits="userSpaceOnUse">
<stop stop-color="#F3F5EC"/>
</linearGradient>
<linearGradient id="paint58_linear_12_1190" x1="814667" y1="-1.09355e+06" x2="814668" y2="-1.09355e+06" gradientUnits="userSpaceOnUse">
<stop stop-color="#F3F5EC"/>
</linearGradient>
<linearGradient id="paint59_linear_12_1190" x1="900935" y1="-958693" x2="900935" y2="-958693" gradientUnits="userSpaceOnUse">
<stop stop-color="#F9D678"/>
</linearGradient>
<linearGradient id="paint60_linear_12_1190" x1="-nan" y1="-nan" x2="-nan" y2="-nan" gradientUnits="userSpaceOnUse">
<stop stop-color="#F9D678"/>
</linearGradient>
<linearGradient id="paint61_linear_12_1190" x1="900923" y1="-958699" x2="900923" y2="-958699" gradientUnits="userSpaceOnUse">
<stop stop-color="#F9D678"/>
</linearGradient>
<linearGradient id="paint62_linear_12_1190" x1="-nan" y1="-nan" x2="-nan" y2="-nan" gradientUnits="userSpaceOnUse">
<stop stop-color="#F9D678"/>
</linearGradient>
<linearGradient id="paint63_linear_12_1190" x1="900940" y1="-958699" x2="900940" y2="-958699" gradientUnits="userSpaceOnUse">
<stop stop-color="#F9D678"/>
</linearGradient>
<linearGradient id="paint64_linear_12_1190" x1="814660" y1="-1.09356e+06" x2="814660" y2="-1.09356e+06" gradientUnits="userSpaceOnUse">
<stop stop-color="#F3F5EC"/>
</linearGradient>
<linearGradient id="paint65_linear_12_1190" x1="814666" y1="-1.09355e+06" x2="814666" y2="-1.09355e+06" gradientUnits="userSpaceOnUse">
<stop stop-color="#F3F5EC"/>
</linearGradient>
<linearGradient id="paint66_linear_12_1190" x1="814667" y1="-1.09355e+06" x2="814667" y2="-1.09355e+06" gradientUnits="userSpaceOnUse">
<stop stop-color="#F3F5EC"/>
</linearGradient>
<linearGradient id="paint67_linear_12_1190" x1="900932" y1="-958693" x2="900932" y2="-958693" gradientUnits="userSpaceOnUse">
<stop stop-color="#F9D678"/>
</linearGradient>
<linearGradient id="paint68_linear_12_1190" x1="-nan" y1="-nan" x2="-nan" y2="-nan" gradientUnits="userSpaceOnUse">
<stop stop-color="#F9D678"/>
</linearGradient>
<linearGradient id="paint69_linear_12_1190" x1="900928" y1="-958699" x2="900928" y2="-958699" gradientUnits="userSpaceOnUse">
<stop stop-color="#F9D678"/>
</linearGradient>
<linearGradient id="paint70_linear_12_1190" x1="-nan" y1="-nan" x2="-nan" y2="-nan" gradientUnits="userSpaceOnUse">
<stop stop-color="#F9D678"/>
</linearGradient>
<linearGradient id="paint71_linear_12_1190" x1="900935" y1="-958699" x2="900935" y2="-958699" gradientUnits="userSpaceOnUse">
<stop stop-color="#F9D678"/>
</linearGradient>
<linearGradient id="paint72_linear_12_1190" x1="814663" y1="-1.09356e+06" x2="814663" y2="-1.09356e+06" gradientUnits="userSpaceOnUse">
<stop stop-color="#F3F5EC"/>
</linearGradient>
<linearGradient id="paint73_linear_12_1190" x1="814667" y1="-1.09355e+06" x2="814667" y2="-1.09355e+06" gradientUnits="userSpaceOnUse">
<stop stop-color="#F3F5EC"/>
</linearGradient>
<linearGradient id="paint74_linear_12_1190" x1="814667" y1="-1.09355e+06" x2="814667" y2="-1.09355e+06" gradientUnits="userSpaceOnUse">
<stop stop-color="#F3F5EC"/>
</linearGradient>
<linearGradient id="paint75_linear_12_1190" x1="900932" y1="-958696" x2="900932" y2="-958696" gradientUnits="userSpaceOnUse">
<stop stop-color="#F9D678"/>
</linearGradient>
<linearGradient id="paint76_linear_12_1190" x1="-nan" y1="-nan" x2="-nan" y2="-nan" gradientUnits="userSpaceOnUse">
<stop stop-color="#F9D678"/>
</linearGradient>
<linearGradient id="paint77_linear_12_1190" x1="900928" y1="-958693" x2="900928" y2="-958693" gradientUnits="userSpaceOnUse">
<stop stop-color="#F9D678"/>
</linearGradient>
<linearGradient id="paint78_linear_12_1190" x1="-nan" y1="-nan" x2="-nan" y2="-nan" gradientUnits="userSpaceOnUse">
<stop stop-color="#F9D678"/>
</linearGradient>
<linearGradient id="paint79_linear_12_1190" x1="900933" y1="-958693" x2="900933" y2="-958693" gradientUnits="userSpaceOnUse">
<stop stop-color="#F9D678"/>
</linearGradient>
<linearGradient id="paint80_linear_12_1190" x1="814663" y1="-1.09355e+06" x2="814663" y2="-1.09355e+06" gradientUnits="userSpaceOnUse">
<stop stop-color="#F3F5EC"/>
</linearGradient>
<linearGradient id="paint81_linear_12_1190" x1="814667" y1="-1.09355e+06" x2="814667" y2="-1.09355e+06" gradientUnits="userSpaceOnUse">
<stop stop-color="#F3F5EC"/>
</linearGradient>
<linearGradient id="paint82_linear_12_1190" x1="814668" y1="-1.09355e+06" x2="814668" y2="-1.09355e+06" gradientUnits="userSpaceOnUse">
<stop stop-color="#F3F5EC"/>
</linearGradient>
<linearGradient id="paint83_linear_12_1190" x1="902007" y1="-957687" x2="902007" y2="-957687" gradientUnits="userSpaceOnUse">
<stop stop-color="#F9D678"/>
</linearGradient>
<linearGradient id="paint84_linear_12_1190" x1="815740" y1="-1.09255e+06" x2="815740" y2="-1.09255e+06" gradientUnits="userSpaceOnUse">
<stop stop-color="#F3F5EC"/>
</linearGradient>
<linearGradient id="paint85_linear_12_1190" x1="814669" y1="-1.09355e+06" x2="814669" y2="-1.09355e+06" gradientUnits="userSpaceOnUse">
<stop stop-color="#F3F5EC"/>
</linearGradient>
<linearGradient id="paint86_linear_12_1190" x1="814668" y1="-1.09355e+06" x2="814668" y2="-1.09355e+06" gradientUnits="userSpaceOnUse">
<stop stop-color="#F3F5EC"/>
</linearGradient>
<linearGradient id="paint87_linear_12_1190" x1="900935" y1="-958694" x2="900935" y2="-958694" gradientUnits="userSpaceOnUse">
<stop stop-color="#F9D678"/>
</linearGradient>
<linearGradient id="paint88_linear_12_1190" x1="900932" y1="-958694" x2="900932" y2="-958694" gradientUnits="userSpaceOnUse">
<stop stop-color="#F9D678"/>
</linearGradient>
<clipPath id="clip0_12_1190">
<rect width="768" height="768" fill="white" transform="translate(128)"/>
</clipPath>
</defs>
</svg>
