<svg width="1024" height="768" viewBox="0 0 1024 768" fill="none" xmlns="http://www.w3.org/2000/svg">
<g clip-path="url(#clip0_8_48)">
<rect width="1024" height="768" fill="black"/>
<rect width="256" height="768" fill="#01877E"/>
<rect x="256" width="256" height="768" fill="#B6DDDA"/>
<rect x="512" width="256" height="768" fill="#FBB86C"/>
<rect x="768" width="256" height="768" fill="#F9D678"/>
<path d="M164 341C164 341 120.8 355.4 106.4 369.8C92 384.2 92 427.4 92 427.4" stroke="white" stroke-width="2" stroke-linecap="round"/>
<path d="M148.032 369.437C147.843 369.475 147.429 370.396 146.771 371.932C145.162 375.693 140.483 387.336 128.861 397.241C125.492 400.109 121.444 402.891 116.81 405.172C117.419 406.452 117.785 407.833 117.892 409.246C123.063 406.614 127.561 403.358 131.253 399.929C139.798 392.001 144.201 383.316 146.293 377.487C147.769 373.376 148.168 370.572 148.151 369.812C148.146 369.541 148.108 369.422 148.032 369.437Z" fill="white"/>
<path d="M364.2 415.64C368.176 415.64 371.4 412.416 371.4 408.44C371.4 404.463 368.176 401.24 364.2 401.24C360.224 401.24 357 404.463 357 408.44C357 412.416 360.224 415.64 364.2 415.64Z" fill="black"/>
<path d="M407.4 360.2C409.388 360.2 411 358.588 411 356.6C411 354.612 409.388 353 407.4 353C405.412 353 403.8 354.612 403.8 356.6C403.8 358.588 405.412 360.2 407.4 360.2Z" fill="black"/>
<path d="M405.84 367.744C405.651 367.782 405.237 368.704 404.579 370.241C402.969 374.003 398.288 385.652 386.661 395.561C383.29 398.43 379.241 401.213 374.605 403.495C375.213 404.776 375.58 406.158 375.687 407.572C380.86 404.938 385.36 401.68 389.054 398.25C397.603 390.319 402.007 381.63 404.101 375.798C405.577 371.685 405.977 368.88 405.96 368.12C405.953 367.849 405.914 367.729 405.84 367.744Z" fill="black"/>
<path d="M876.2 415.64C880.176 415.64 883.4 412.416 883.4 408.44C883.4 404.463 880.176 401.24 876.2 401.24C872.224 401.24 869 404.463 869 408.44C869 412.416 872.224 415.64 876.2 415.64Z" fill="black"/>
<path d="M919.4 360.2C921.388 360.2 923 358.588 923 356.6C923 354.612 921.388 353 919.4 353C917.412 353 915.8 354.612 915.8 356.6C915.8 358.588 917.412 360.2 919.4 360.2Z" fill="black"/>
<path d="M917.841 367.744C917.651 367.782 917.237 368.704 916.579 370.241C914.969 374.003 910.288 385.652 898.661 395.561C895.29 398.43 891.241 401.213 886.605 403.495C887.214 404.776 887.58 406.158 887.687 407.572C892.86 404.938 897.36 401.68 901.054 398.25C909.603 390.319 914.008 381.63 916.101 375.798C917.577 371.685 917.977 368.88 917.96 368.12C917.954 367.849 917.914 367.729 917.841 367.744Z" fill="black"/>
<path d="M675 426.4H605.011C605.015 426.155 605.02 425.867 605.028 425.539C605.056 424.338 605.112 422.604 605.224 420.478C605.448 416.223 605.895 410.404 606.79 404.141C607.685 397.875 609.024 391.189 611.024 385.191C613.029 379.176 615.667 373.947 619.107 370.507C622.608 367.006 627.912 363.46 633.961 360.099C639.995 356.747 646.712 353.611 652.994 350.919C659.274 348.228 665.107 345.984 669.371 344.413C671.502 343.628 673.24 343.011 674.445 342.591C674.645 342.521 674.83 342.457 675 342.398V426.4Z" stroke="black" stroke-width="2"/>
<path d="M45.9906 672V649.152H50.5986V668.224H58.7586V672H45.9906ZM60.8351 648.896H65.2511V652.672H60.8351V648.896ZM60.8351 654.784H65.2511V672H60.8351V654.784ZM69.3226 657.792H67.0826V654.784H69.3226V652.832C69.3226 652.064 69.4293 651.413 69.6426 650.88C69.856 650.347 70.1546 649.92 70.5386 649.6C70.944 649.28 71.4346 649.056 72.0106 648.928C72.5866 648.779 73.2266 648.704 73.9306 648.704C74.72 648.704 75.5093 648.736 76.2986 648.8V651.936C76.192 651.915 76.0426 651.904 75.8506 651.904H75.4346C74.816 651.904 74.3786 652.011 74.1226 652.224C73.8666 652.437 73.7386 652.789 73.7386 653.28V654.784H76.2986V657.792H73.7386V672H69.3226V657.792ZM86.1194 661.44C86.098 660.779 86.0554 660.203 85.9914 659.712C85.9274 659.2 85.81 658.773 85.6394 658.432C85.49 658.069 85.266 657.803 84.9674 657.632C84.69 657.44 84.3274 657.344 83.8794 657.344C83.4314 657.344 83.058 657.451 82.7594 657.664C82.482 657.856 82.258 658.123 82.0874 658.464C81.9167 658.784 81.7887 659.147 81.7034 659.552C81.6394 659.957 81.6074 660.363 81.6074 660.768V661.44H86.1194ZM81.6074 664.064V665.44C81.6074 665.952 81.6394 666.453 81.7034 666.944C81.7887 667.413 81.9167 667.84 82.0874 668.224C82.258 668.587 82.482 668.885 82.7594 669.12C83.0367 669.333 83.378 669.44 83.7834 669.44C84.53 669.44 85.074 669.173 85.4154 668.64C85.7567 668.107 85.9914 667.296 86.1194 666.208H90.0874C90.002 668.213 89.4687 669.739 88.4874 670.784C87.506 671.829 85.9594 672.352 83.8474 672.352C82.2474 672.352 80.9994 672.085 80.1034 671.552C79.2074 671.019 78.546 670.315 78.1194 669.44C77.6927 668.565 77.426 667.584 77.3194 666.496C77.234 665.408 77.1914 664.32 77.1914 663.232C77.1914 662.08 77.266 660.971 77.4154 659.904C77.586 658.837 77.906 657.888 78.3754 657.056C78.866 656.224 79.5594 655.563 80.4554 655.072C81.3514 654.581 82.546 654.336 84.0394 654.336C85.3194 654.336 86.3647 654.549 87.1754 654.976C88.0074 655.381 88.658 655.968 89.1274 656.736C89.5967 657.483 89.9167 658.4 90.0874 659.488C90.258 660.555 90.3434 661.749 90.3434 663.072V664.064H81.6074ZM104.171 664.864V665.536C104.171 666.069 104.214 666.56 104.299 667.008C104.385 667.435 104.545 667.797 104.779 668.096C105.014 668.395 105.323 668.629 105.707 668.8C106.113 668.971 106.614 669.056 107.211 669.056C107.915 669.056 108.545 668.832 109.099 668.384C109.675 667.915 109.963 667.2 109.963 666.24C109.963 665.728 109.889 665.291 109.739 664.928C109.611 664.544 109.387 664.203 109.067 663.904C108.747 663.605 108.321 663.339 107.787 663.104C107.275 662.848 106.635 662.592 105.867 662.336C104.843 661.995 103.958 661.621 103.211 661.216C102.465 660.811 101.835 660.341 101.323 659.808C100.833 659.253 100.47 658.624 100.235 657.92C100.001 657.195 99.8834 656.363 99.8834 655.424C99.8834 653.163 100.513 651.477 101.771 650.368C103.03 649.259 104.758 648.704 106.955 648.704C107.979 648.704 108.918 648.821 109.771 649.056C110.646 649.269 111.393 649.632 112.011 650.144C112.651 650.635 113.142 651.275 113.483 652.064C113.846 652.832 114.027 653.76 114.027 654.848V655.488H109.611C109.611 654.4 109.419 653.568 109.035 652.992C108.651 652.395 108.011 652.096 107.115 652.096C106.603 652.096 106.177 652.171 105.835 652.32C105.494 652.469 105.217 652.672 105.003 652.928C104.811 653.163 104.673 653.44 104.587 653.76C104.523 654.08 104.491 654.411 104.491 654.752C104.491 655.456 104.641 656.053 104.939 656.544C105.238 657.013 105.878 657.451 106.859 657.856L110.411 659.392C111.286 659.776 112.001 660.181 112.555 660.608C113.11 661.013 113.547 661.461 113.867 661.952C114.209 662.421 114.443 662.944 114.571 663.52C114.699 664.096 114.763 664.736 114.763 665.44C114.763 667.851 114.059 669.611 112.651 670.72C111.265 671.808 109.323 672.352 106.827 672.352C104.225 672.352 102.358 671.787 101.227 670.656C100.118 669.525 99.5634 667.904 99.5634 665.792V664.864H104.171ZM125.213 660.992C125.213 660.565 125.181 660.149 125.117 659.744C125.074 659.339 124.978 658.976 124.829 658.656C124.701 658.315 124.509 658.048 124.253 657.856C123.997 657.643 123.656 657.536 123.229 657.536C122.696 657.536 122.258 657.664 121.917 657.92C121.576 658.155 121.32 658.517 121.149 659.008C120.978 659.477 120.861 660.085 120.797 660.832C120.733 661.557 120.701 662.421 120.701 663.424C120.701 664.491 120.733 665.408 120.797 666.176C120.861 666.923 120.978 667.541 121.149 668.032C121.32 668.523 121.554 668.885 121.853 669.12C122.173 669.333 122.578 669.44 123.069 669.44C123.816 669.44 124.36 669.12 124.701 668.48C125.042 667.84 125.213 666.816 125.213 665.408H129.437C129.437 667.669 128.925 669.397 127.901 670.592C126.898 671.765 125.224 672.352 122.877 672.352C121.768 672.352 120.797 672.224 119.965 671.968C119.154 671.691 118.472 671.211 117.917 670.528C117.384 669.824 116.978 668.896 116.701 667.744C116.424 666.571 116.285 665.12 116.285 663.392C116.285 661.621 116.456 660.16 116.797 659.008C117.138 657.835 117.618 656.907 118.237 656.224C118.856 655.52 119.592 655.029 120.445 654.752C121.298 654.475 122.237 654.336 123.261 654.336C125.309 654.336 126.845 654.933 127.869 656.128C128.914 657.323 129.437 658.944 129.437 660.992H125.213ZM131.898 648.896H136.314V652.672H131.898V648.896ZM131.898 654.784H136.314V672H131.898V654.784ZM147.713 661.44C147.692 660.779 147.649 660.203 147.585 659.712C147.521 659.2 147.404 658.773 147.233 658.432C147.084 658.069 146.86 657.803 146.561 657.632C146.284 657.44 145.921 657.344 145.473 657.344C145.025 657.344 144.652 657.451 144.353 657.664C144.076 657.856 143.852 658.123 143.681 658.464C143.51 658.784 143.382 659.147 143.297 659.552C143.233 659.957 143.201 660.363 143.201 660.768V661.44H147.713ZM143.201 664.064V665.44C143.201 665.952 143.233 666.453 143.297 666.944C143.382 667.413 143.51 667.84 143.681 668.224C143.852 668.587 144.076 668.885 144.353 669.12C144.63 669.333 144.972 669.44 145.377 669.44C146.124 669.44 146.668 669.173 147.009 668.64C147.35 668.107 147.585 667.296 147.713 666.208H151.681C151.596 668.213 151.062 669.739 150.081 670.784C149.1 671.829 147.553 672.352 145.441 672.352C143.841 672.352 142.593 672.085 141.697 671.552C140.801 671.019 140.14 670.315 139.713 669.44C139.286 668.565 139.02 667.584 138.913 666.496C138.828 665.408 138.785 664.32 138.785 663.232C138.785 662.08 138.86 660.971 139.009 659.904C139.18 658.837 139.5 657.888 139.969 657.056C140.46 656.224 141.153 655.563 142.049 655.072C142.945 654.581 144.14 654.336 145.633 654.336C146.913 654.336 147.958 654.549 148.769 654.976C149.601 655.381 150.252 655.968 150.721 656.736C151.19 657.483 151.51 658.4 151.681 659.488C151.852 660.555 151.937 661.749 151.937 663.072V664.064H143.201ZM154.238 654.784H158.462V656.8H158.526C158.995 655.947 159.603 655.328 160.35 654.944C161.096 654.539 161.95 654.336 162.91 654.336C164.318 654.336 165.395 654.72 166.142 655.488C166.91 656.256 167.294 657.504 167.294 659.232V672H162.878V660.128C162.878 659.232 162.728 658.613 162.43 658.272C162.131 657.909 161.651 657.728 160.99 657.728C159.432 657.728 158.654 658.677 158.654 660.576V672H154.238V654.784ZM178.526 660.992C178.526 660.565 178.494 660.149 178.43 659.744C178.387 659.339 178.291 658.976 178.142 658.656C178.014 658.315 177.822 658.048 177.566 657.856C177.31 657.643 176.968 657.536 176.542 657.536C176.008 657.536 175.571 657.664 175.23 657.92C174.888 658.155 174.632 658.517 174.462 659.008C174.291 659.477 174.174 660.085 174.11 660.832C174.046 661.557 174.014 662.421 174.014 663.424C174.014 664.491 174.046 665.408 174.11 666.176C174.174 666.923 174.291 667.541 174.462 668.032C174.632 668.523 174.867 668.885 175.166 669.12C175.486 669.333 175.891 669.44 176.382 669.44C177.128 669.44 177.672 669.12 178.014 668.48C178.355 667.84 178.526 666.816 178.526 665.408H182.75C182.75 667.669 182.238 669.397 181.214 670.592C180.211 671.765 178.536 672.352 176.19 672.352C175.08 672.352 174.11 672.224 173.278 671.968C172.467 671.691 171.784 671.211 171.23 670.528C170.696 669.824 170.291 668.896 170.014 667.744C169.736 666.571 169.598 665.12 169.598 663.392C169.598 661.621 169.768 660.16 170.11 659.008C170.451 657.835 170.931 656.907 171.55 656.224C172.168 655.52 172.904 655.029 173.758 654.752C174.611 654.475 175.55 654.336 176.574 654.336C178.622 654.336 180.158 654.933 181.182 656.128C182.227 657.323 182.75 658.944 182.75 660.992H178.526ZM193.338 661.44C193.317 660.779 193.274 660.203 193.21 659.712C193.146 659.2 193.029 658.773 192.858 658.432C192.709 658.069 192.485 657.803 192.186 657.632C191.909 657.44 191.546 657.344 191.098 657.344C190.65 657.344 190.277 657.451 189.978 657.664C189.701 657.856 189.477 658.123 189.306 658.464C189.135 658.784 189.007 659.147 188.922 659.552C188.858 659.957 188.826 660.363 188.826 660.768V661.44H193.338ZM188.826 664.064V665.44C188.826 665.952 188.858 666.453 188.922 666.944C189.007 667.413 189.135 667.84 189.306 668.224C189.477 668.587 189.701 668.885 189.978 669.12C190.255 669.333 190.597 669.44 191.002 669.44C191.749 669.44 192.293 669.173 192.634 668.64C192.975 668.107 193.21 667.296 193.338 666.208H197.306C197.221 668.213 196.687 669.739 195.706 670.784C194.725 671.829 193.178 672.352 191.066 672.352C189.466 672.352 188.218 672.085 187.322 671.552C186.426 671.019 185.765 670.315 185.338 669.44C184.911 668.565 184.645 667.584 184.538 666.496C184.453 665.408 184.41 664.32 184.41 663.232C184.41 662.08 184.485 660.971 184.634 659.904C184.805 658.837 185.125 657.888 185.594 657.056C186.085 656.224 186.778 655.563 187.674 655.072C188.57 654.581 189.765 654.336 191.258 654.336C192.538 654.336 193.583 654.549 194.394 654.976C195.226 655.381 195.877 655.968 196.346 656.736C196.815 657.483 197.135 658.4 197.306 659.488C197.477 660.555 197.562 661.749 197.562 663.072V664.064H188.826ZM203.095 666.368V666.944C203.095 667.691 203.287 668.299 203.671 668.768C204.076 669.216 204.652 669.44 205.399 669.44C206.081 669.44 206.625 669.269 207.031 668.928C207.436 668.587 207.639 668.075 207.639 667.392C207.639 666.837 207.479 666.421 207.159 666.144C206.839 665.845 206.465 665.611 206.039 665.44L202.935 664.32C201.719 663.893 200.801 663.296 200.183 662.528C199.564 661.739 199.255 660.736 199.255 659.52C199.255 658.816 199.372 658.155 199.607 657.536C199.841 656.896 200.215 656.341 200.727 655.872C201.239 655.403 201.889 655.029 202.679 654.752C203.489 654.475 204.46 654.336 205.591 654.336C207.596 654.336 209.079 654.763 210.039 655.616C210.999 656.469 211.479 657.675 211.479 659.232V659.936H207.511C207.511 659.04 207.361 658.389 207.063 657.984C206.785 657.557 206.284 657.344 205.559 657.344C205.004 657.344 204.513 657.504 204.087 657.824C203.681 658.123 203.479 658.581 203.479 659.2C203.479 659.627 203.607 660.011 203.863 660.352C204.14 660.693 204.652 660.981 205.399 661.216L208.055 662.112C209.441 662.581 210.423 663.2 210.999 663.968C211.575 664.715 211.863 665.739 211.863 667.04C211.863 667.957 211.703 668.757 211.383 669.44C211.063 670.101 210.615 670.656 210.039 671.104C209.484 671.552 208.812 671.872 208.023 672.064C207.255 672.256 206.401 672.352 205.463 672.352C204.225 672.352 203.191 672.235 202.359 672C201.548 671.765 200.897 671.413 200.407 670.944C199.937 670.475 199.607 669.909 199.415 669.248C199.223 668.565 199.127 667.808 199.127 666.976V666.368H203.095Z" fill="white"/>
<path d="M114.488 564.576H115.576V575.072H121.976V576H114.488V564.576ZM128.826 571.296C128.815 570.912 128.746 570.544 128.618 570.192C128.5 569.84 128.33 569.531 128.106 569.264C127.882 568.987 127.61 568.768 127.29 568.608C126.97 568.437 126.607 568.352 126.202 568.352C125.786 568.352 125.418 568.437 125.098 568.608C124.778 568.768 124.506 568.987 124.282 569.264C124.058 569.531 123.876 569.845 123.738 570.208C123.61 570.56 123.524 570.923 123.482 571.296H128.826ZM123.482 572.144C123.482 572.507 123.53 572.885 123.626 573.28C123.732 573.664 123.898 574.011 124.122 574.32C124.346 574.629 124.628 574.885 124.97 575.088C125.311 575.291 125.722 575.392 126.202 575.392C126.938 575.392 127.514 575.2 127.93 574.816C128.346 574.432 128.634 573.92 128.794 573.28H129.802C129.588 574.219 129.194 574.944 128.618 575.456C128.052 575.968 127.247 576.224 126.202 576.224C125.551 576.224 124.986 576.112 124.506 575.888C124.036 575.653 123.652 575.339 123.354 574.944C123.055 574.539 122.831 574.075 122.682 573.552C122.543 573.019 122.474 572.459 122.474 571.872C122.474 571.328 122.543 570.795 122.682 570.272C122.831 569.749 123.055 569.285 123.354 568.88C123.652 568.464 124.036 568.133 124.506 567.888C124.986 567.632 125.551 567.504 126.202 567.504C126.863 567.504 127.428 567.637 127.898 567.904C128.367 568.171 128.746 568.523 129.034 568.96C129.332 569.387 129.546 569.883 129.674 570.448C129.802 571.003 129.855 571.568 129.834 572.144H123.482ZM131.091 570.272C131.123 569.792 131.224 569.376 131.395 569.024C131.565 568.672 131.795 568.384 132.083 568.16C132.381 567.936 132.728 567.771 133.123 567.664C133.517 567.557 133.955 567.504 134.435 567.504C134.797 567.504 135.16 567.541 135.523 567.616C135.885 567.68 136.211 567.808 136.499 568C136.787 568.192 137.021 568.464 137.203 568.816C137.384 569.157 137.475 569.605 137.475 570.16V574.544C137.475 574.949 137.672 575.152 138.067 575.152C138.184 575.152 138.291 575.131 138.387 575.088V575.936C138.269 575.957 138.163 575.973 138.067 575.984C137.981 575.995 137.869 576 137.731 576C137.475 576 137.267 575.968 137.107 575.904C136.957 575.829 136.84 575.728 136.755 575.6C136.669 575.472 136.611 575.323 136.579 575.152C136.557 574.971 136.547 574.773 136.547 574.56H136.515C136.333 574.827 136.147 575.067 135.955 575.28C135.773 575.483 135.565 575.653 135.331 575.792C135.107 575.931 134.845 576.037 134.547 576.112C134.259 576.187 133.912 576.224 133.507 576.224C133.123 576.224 132.76 576.176 132.419 576.08C132.088 575.995 131.795 575.856 131.539 575.664C131.293 575.461 131.096 575.211 130.947 574.912C130.808 574.603 130.739 574.24 130.739 573.824C130.739 573.248 130.867 572.8 131.123 572.48C131.379 572.149 131.715 571.899 132.131 571.728C132.557 571.557 133.032 571.44 133.555 571.376C134.088 571.301 134.627 571.232 135.171 571.168C135.384 571.147 135.571 571.12 135.731 571.088C135.891 571.056 136.024 571.003 136.131 570.928C136.237 570.843 136.317 570.731 136.371 570.592C136.435 570.453 136.467 570.272 136.467 570.048C136.467 569.707 136.408 569.429 136.291 569.216C136.184 568.992 136.029 568.816 135.827 568.688C135.635 568.56 135.405 568.475 135.139 568.432C134.883 568.379 134.605 568.352 134.307 568.352C133.667 568.352 133.144 568.507 132.739 568.816C132.333 569.115 132.12 569.6 132.099 570.272H131.091ZM136.467 571.488H136.435C136.371 571.605 136.248 571.691 136.067 571.744C135.885 571.797 135.725 571.835 135.587 571.856C135.16 571.931 134.717 572 134.259 572.064C133.811 572.117 133.4 572.203 133.027 572.32C132.653 572.437 132.344 572.608 132.099 572.832C131.864 573.045 131.747 573.355 131.747 573.76C131.747 574.016 131.795 574.245 131.891 574.448C131.997 574.64 132.136 574.811 132.307 574.96C132.477 575.099 132.675 575.205 132.899 575.28C133.123 575.355 133.352 575.392 133.587 575.392C133.971 575.392 134.339 575.333 134.691 575.216C135.043 575.099 135.347 574.928 135.603 574.704C135.869 574.48 136.077 574.208 136.227 573.888C136.387 573.568 136.467 573.205 136.467 572.8V571.488ZM142.667 568.592H141.035V576H140.027V568.592H138.619V567.744H140.027V566.992C140.027 566.64 140.054 566.315 140.107 566.016C140.161 565.717 140.262 565.461 140.411 565.248C140.561 565.035 140.763 564.869 141.019 564.752C141.286 564.635 141.622 564.576 142.027 564.576C142.177 564.576 142.315 564.581 142.443 564.592C142.571 564.603 142.715 564.619 142.875 564.64V565.504C142.737 565.483 142.609 565.467 142.491 565.456C142.374 565.435 142.257 565.424 142.139 565.424C141.862 565.424 141.649 565.467 141.499 565.552C141.35 565.637 141.238 565.755 141.163 565.904C141.099 566.043 141.062 566.208 141.051 566.4C141.041 566.592 141.035 566.8 141.035 567.024V567.744H142.667V568.592Z" fill="white"/>
<path d="M295.61 656.864C295.61 655.2 295.407 653.995 295.002 653.248C294.618 652.48 293.903 652.096 292.858 652.096C292.282 652.096 291.802 652.256 291.418 652.576C291.055 652.875 290.767 653.376 290.554 654.08C290.341 654.763 290.191 655.669 290.106 656.8C290.021 657.909 289.978 659.275 289.978 660.896C289.978 662.624 290.031 664.021 290.138 665.088C290.266 666.155 290.447 666.987 290.682 667.584C290.938 668.16 291.247 668.555 291.61 668.768C291.994 668.96 292.431 669.056 292.922 669.056C293.327 669.056 293.701 668.992 294.042 668.864C294.405 668.715 294.714 668.437 294.97 668.032C295.226 667.605 295.429 667.019 295.578 666.272C295.727 665.504 295.802 664.501 295.802 663.264H300.41C300.41 664.501 300.314 665.675 300.122 666.784C299.93 667.893 299.567 668.864 299.034 669.696C298.522 670.528 297.786 671.179 296.826 671.648C295.887 672.117 294.661 672.352 293.146 672.352C291.418 672.352 290.042 672.075 289.018 671.52C287.994 670.965 287.205 670.165 286.65 669.12C286.117 668.075 285.765 666.827 285.594 665.376C285.445 663.925 285.37 662.325 285.37 660.576C285.37 658.848 285.445 657.259 285.594 655.808C285.765 654.336 286.117 653.077 286.65 652.032C287.205 650.987 287.994 650.176 289.018 649.6C290.042 649.003 291.418 648.704 293.146 648.704C294.789 648.704 296.079 648.971 297.018 649.504C297.978 650.037 298.693 650.72 299.162 651.552C299.631 652.363 299.919 653.248 300.026 654.208C300.154 655.147 300.218 656.032 300.218 656.864H295.61ZM306.75 663.392C306.75 664.267 306.771 665.077 306.814 665.824C306.856 666.571 306.952 667.211 307.102 667.744C307.272 668.277 307.518 668.693 307.838 668.992C308.158 669.291 308.584 669.44 309.118 669.44C310.014 669.44 310.632 668.971 310.974 668.032C311.315 667.093 311.486 665.547 311.486 663.392C311.486 661.237 311.315 659.691 310.974 658.752C310.632 657.813 310.014 657.344 309.118 657.344C308.584 657.344 308.158 657.493 307.838 657.792C307.518 658.091 307.272 658.507 307.102 659.04C306.952 659.573 306.856 660.213 306.814 660.96C306.771 661.707 306.75 662.517 306.75 663.392ZM302.334 663.392C302.334 661.92 302.451 660.619 302.686 659.488C302.92 658.357 303.304 657.419 303.838 656.672C304.371 655.904 305.064 655.328 305.918 654.944C306.792 654.539 307.859 654.336 309.118 654.336C310.44 654.315 311.539 654.496 312.414 654.88C313.288 655.243 313.982 655.808 314.494 656.576C315.006 657.344 315.368 658.293 315.582 659.424C315.795 660.555 315.902 661.877 315.902 663.392C315.902 664.864 315.784 666.165 315.55 667.296C315.315 668.427 314.931 669.376 314.398 670.144C313.864 670.891 313.16 671.445 312.286 671.808C311.432 672.171 310.376 672.352 309.118 672.352C307.795 672.373 306.696 672.213 305.822 671.872C304.947 671.509 304.254 670.955 303.742 670.208C303.23 669.44 302.867 668.491 302.654 667.36C302.44 666.208 302.334 664.885 302.334 663.392ZM318.285 654.784H322.509V656.544H322.573C323.127 655.755 323.746 655.189 324.429 654.848C325.133 654.507 325.965 654.336 326.925 654.336C327.949 654.336 328.802 654.571 329.485 655.04C330.189 655.509 330.658 656.192 330.893 657.088H330.957C331.298 656.171 331.842 655.488 332.589 655.04C333.357 654.571 334.263 654.336 335.309 654.336C336.781 654.336 337.858 654.784 338.541 655.68C339.245 656.555 339.597 657.824 339.597 659.488V672H335.181V659.968C335.181 659.243 335.042 658.688 334.765 658.304C334.509 657.92 334.071 657.728 333.453 657.728C332.749 657.728 332.183 657.963 331.757 658.432C331.351 658.901 331.149 659.648 331.149 660.672V672H326.733V659.968C326.733 659.243 326.594 658.688 326.317 658.304C326.061 657.92 325.623 657.728 325.005 657.728C324.301 657.728 323.735 657.963 323.309 658.432C322.903 658.901 322.701 659.648 322.701 660.672V672H318.285V654.784ZM342.535 654.784H346.759V656.544H346.823C347.377 655.755 347.996 655.189 348.679 654.848C349.383 654.507 350.215 654.336 351.175 654.336C352.199 654.336 353.052 654.571 353.735 655.04C354.439 655.509 354.908 656.192 355.143 657.088H355.207C355.548 656.171 356.092 655.488 356.839 655.04C357.607 654.571 358.513 654.336 359.559 654.336C361.031 654.336 362.108 654.784 362.791 655.68C363.495 656.555 363.847 657.824 363.847 659.488V672H359.431V659.968C359.431 659.243 359.292 658.688 359.015 658.304C358.759 657.92 358.321 657.728 357.703 657.728C356.999 657.728 356.433 657.963 356.007 658.432C355.601 658.901 355.399 659.648 355.399 660.672V672H350.983V659.968C350.983 659.243 350.844 658.688 350.567 658.304C350.311 657.92 349.873 657.728 349.255 657.728C348.551 657.728 347.985 657.963 347.559 658.432C347.153 658.901 346.951 659.648 346.951 660.672V672H342.535V654.784ZM375.617 669.984H375.553C375.083 670.837 374.475 671.445 373.729 671.808C372.982 672.171 372.129 672.352 371.169 672.352C369.761 672.352 368.673 671.989 367.905 671.264C367.158 670.517 366.785 669.28 366.785 667.552V654.784H371.201V666.656C371.201 667.552 371.35 668.181 371.649 668.544C371.947 668.885 372.427 669.056 373.089 669.056C374.646 669.056 375.425 668.107 375.425 666.208V654.784H379.841V672H375.617V669.984ZM382.785 654.784H387.009V656.8H387.073C387.542 655.947 388.15 655.328 388.897 654.944C389.643 654.539 390.497 654.336 391.457 654.336C392.865 654.336 393.942 654.72 394.689 655.488C395.457 656.256 395.841 657.504 395.841 659.232V672H391.425V660.128C391.425 659.232 391.275 658.613 390.977 658.272C390.678 657.909 390.198 657.728 389.536 657.728C387.979 657.728 387.201 658.677 387.201 660.576V672H382.785V654.784ZM398.945 648.896H403.361V652.672H398.945V648.896ZM398.945 654.784H403.361V672H398.945V654.784ZM414.76 660.992C414.76 660.565 414.728 660.149 414.664 659.744C414.621 659.339 414.525 658.976 414.376 658.656C414.248 658.315 414.056 658.048 413.8 657.856C413.544 657.643 413.203 657.536 412.776 657.536C412.243 657.536 411.805 657.664 411.464 657.92C411.123 658.155 410.867 658.517 410.696 659.008C410.525 659.477 410.408 660.085 410.344 660.832C410.28 661.557 410.248 662.421 410.248 663.424C410.248 664.491 410.28 665.408 410.344 666.176C410.408 666.923 410.525 667.541 410.696 668.032C410.867 668.523 411.101 668.885 411.4 669.12C411.72 669.333 412.125 669.44 412.616 669.44C413.363 669.44 413.907 669.12 414.248 668.48C414.589 667.84 414.76 666.816 414.76 665.408H418.984C418.984 667.669 418.472 669.397 417.448 670.592C416.445 671.765 414.771 672.352 412.424 672.352C411.315 672.352 410.344 672.224 409.512 671.968C408.701 671.691 408.019 671.211 407.464 670.528C406.931 669.824 406.525 668.896 406.248 667.744C405.971 666.571 405.832 665.12 405.832 663.392C405.832 661.621 406.003 660.16 406.344 659.008C406.685 657.835 407.165 656.907 407.784 656.224C408.403 655.52 409.139 655.029 409.992 654.752C410.845 654.475 411.784 654.336 412.808 654.336C414.856 654.336 416.392 654.933 417.416 656.128C418.461 657.323 418.984 658.944 418.984 660.992H414.76ZM429.317 663.392C429.018 663.627 428.698 663.819 428.357 663.968C428.015 664.096 427.706 664.192 427.429 664.256C426.533 664.448 425.893 664.768 425.509 665.216C425.125 665.664 424.933 666.272 424.933 667.04C424.933 667.701 425.061 668.267 425.317 668.736C425.573 669.205 425.999 669.44 426.597 669.44C426.895 669.44 427.205 669.397 427.525 669.312C427.845 669.205 428.133 669.045 428.389 668.832C428.666 668.619 428.89 668.341 429.061 668C429.231 667.659 429.317 667.253 429.317 666.784V663.392ZM421.253 660.064V659.648C421.253 658.645 421.413 657.813 421.733 657.152C422.053 656.469 422.479 655.925 423.013 655.52C423.567 655.093 424.207 654.795 424.933 654.624C425.679 654.432 426.469 654.336 427.301 654.336C428.623 654.336 429.69 654.464 430.501 654.72C431.311 654.976 431.941 655.339 432.389 655.808C432.837 656.277 433.135 656.843 433.285 657.504C433.455 658.144 433.541 658.848 433.541 659.616V668.672C433.541 669.483 433.573 670.112 433.637 670.56C433.722 671.008 433.871 671.488 434.085 672H429.861C429.711 671.723 429.594 671.435 429.509 671.136C429.445 670.816 429.381 670.507 429.317 670.208H429.253C428.741 671.104 428.143 671.691 427.461 671.968C426.799 672.224 425.935 672.352 424.869 672.352C424.101 672.352 423.45 672.224 422.917 671.968C422.383 671.691 421.957 671.317 421.637 670.848C421.317 670.379 421.082 669.856 420.933 669.28C420.783 668.683 420.709 668.096 420.709 667.52C420.709 666.709 420.794 666.016 420.965 665.44C421.135 664.843 421.391 664.341 421.733 663.936C422.095 663.509 422.543 663.157 423.077 662.88C423.631 662.603 424.293 662.357 425.061 662.144L427.557 661.472C428.218 661.301 428.677 661.067 428.933 660.768C429.189 660.469 429.317 660.032 429.317 659.456C429.317 658.795 429.157 658.283 428.837 657.92C428.538 657.536 428.015 657.344 427.269 657.344C426.586 657.344 426.074 657.547 425.733 657.952C425.391 658.357 425.221 658.901 425.221 659.584V660.064H421.253ZM437.651 649.856H442.067V654.784H444.627V657.792H442.067V667.104C442.067 667.787 442.163 668.277 442.355 668.576C442.568 668.853 442.995 668.992 443.635 668.992C443.805 668.992 443.976 668.992 444.147 668.992C444.317 668.971 444.477 668.949 444.627 668.928V672C444.136 672 443.656 672.011 443.187 672.032C442.739 672.075 442.259 672.096 441.747 672.096C440.893 672.096 440.189 672.043 439.635 671.936C439.101 671.808 438.685 671.573 438.387 671.232C438.109 670.869 437.917 670.4 437.811 669.824C437.704 669.248 437.651 668.523 437.651 667.648V657.792H435.411V654.784H437.651V649.856ZM446.32 648.896H450.736V652.672H446.32V648.896ZM446.32 654.784H450.736V672H446.32V654.784ZM457.687 663.392C457.687 664.267 457.708 665.077 457.751 665.824C457.794 666.571 457.89 667.211 458.039 667.744C458.21 668.277 458.455 668.693 458.775 668.992C459.095 669.291 459.522 669.44 460.055 669.44C460.951 669.44 461.57 668.971 461.911 668.032C462.252 667.093 462.423 665.547 462.423 663.392C462.423 661.237 462.252 659.691 461.911 658.752C461.57 657.813 460.951 657.344 460.055 657.344C459.522 657.344 459.095 657.493 458.775 657.792C458.455 658.091 458.21 658.507 458.039 659.04C457.89 659.573 457.794 660.213 457.751 660.96C457.708 661.707 457.687 662.517 457.687 663.392ZM453.271 663.392C453.271 661.92 453.388 660.619 453.623 659.488C453.858 658.357 454.242 657.419 454.775 656.672C455.308 655.904 456.002 655.328 456.855 654.944C457.73 654.539 458.796 654.336 460.055 654.336C461.378 654.315 462.476 654.496 463.351 654.88C464.226 655.243 464.919 655.808 465.431 656.576C465.943 657.344 466.306 658.293 466.519 659.424C466.732 660.555 466.839 661.877 466.839 663.392C466.839 664.864 466.722 666.165 466.487 667.296C466.252 668.427 465.868 669.376 465.335 670.144C464.802 670.891 464.098 671.445 463.223 671.808C462.37 672.171 461.314 672.352 460.055 672.352C458.732 672.373 457.634 672.213 456.759 671.872C455.884 671.509 455.191 670.955 454.679 670.208C454.167 669.44 453.804 668.491 453.591 667.36C453.378 666.208 453.271 664.885 453.271 663.392ZM469.222 654.784H473.446V656.8H473.51C473.979 655.947 474.587 655.328 475.334 654.944C476.081 654.539 476.934 654.336 477.894 654.336C479.302 654.336 480.379 654.72 481.126 655.488C481.894 656.256 482.278 657.504 482.278 659.232V672H477.862V660.128C477.862 659.232 477.713 658.613 477.414 658.272C477.115 657.909 476.635 657.728 475.974 657.728C474.417 657.728 473.638 658.677 473.638 660.576V672H469.222V654.784Z" fill="black"/>
<path d="M326.09 568.032C325.994 567.595 325.834 567.205 325.61 566.864C325.397 566.512 325.13 566.219 324.81 565.984C324.501 565.749 324.154 565.573 323.77 565.456C323.397 565.328 323.002 565.264 322.586 565.264C321.829 565.264 321.178 565.408 320.634 565.696C320.09 565.984 319.642 566.368 319.29 566.848C318.949 567.317 318.693 567.851 318.522 568.448C318.362 569.045 318.282 569.659 318.282 570.288C318.282 570.907 318.362 571.52 318.522 572.128C318.693 572.725 318.949 573.264 319.29 573.744C319.642 574.213 320.09 574.592 320.634 574.88C321.178 575.168 321.829 575.312 322.586 575.312C323.119 575.312 323.599 575.216 324.026 575.024C324.453 574.832 324.821 574.571 325.13 574.24C325.439 573.909 325.69 573.525 325.882 573.088C326.074 572.64 326.197 572.16 326.25 571.648H327.338C327.263 572.352 327.098 572.987 326.842 573.552C326.586 574.117 326.255 574.597 325.85 574.992C325.445 575.387 324.965 575.691 324.41 575.904C323.866 576.117 323.258 576.224 322.586 576.224C321.69 576.224 320.901 576.064 320.218 575.744C319.546 575.413 318.986 574.976 318.538 574.432C318.09 573.888 317.754 573.259 317.53 572.544C317.306 571.829 317.194 571.077 317.194 570.288C317.194 569.499 317.306 568.747 317.53 568.032C317.754 567.317 318.09 566.688 318.538 566.144C318.986 565.589 319.546 565.152 320.218 564.832C320.901 564.501 321.69 564.336 322.586 564.336C323.13 564.336 323.658 564.416 324.17 564.576C324.693 564.736 325.162 564.976 325.578 565.296C326.005 565.605 326.357 565.989 326.634 566.448C326.922 566.907 327.103 567.435 327.178 568.032H326.09ZM332.3 568.352C331.82 568.352 331.398 568.453 331.036 568.656C330.673 568.859 330.369 569.125 330.124 569.456C329.889 569.787 329.708 570.165 329.58 570.592C329.462 571.008 329.404 571.435 329.404 571.872C329.404 572.309 329.462 572.741 329.58 573.168C329.708 573.584 329.889 573.957 330.124 574.288C330.369 574.619 330.673 574.885 331.036 575.088C331.398 575.291 331.82 575.392 332.3 575.392C332.78 575.392 333.201 575.291 333.564 575.088C333.926 574.885 334.225 574.619 334.46 574.288C334.705 573.957 334.886 573.584 335.004 573.168C335.132 572.741 335.196 572.309 335.196 571.872C335.196 571.435 335.132 571.008 335.004 570.592C334.886 570.165 334.705 569.787 334.46 569.456C334.225 569.125 333.926 568.859 333.564 568.656C333.201 568.453 332.78 568.352 332.3 568.352ZM332.3 567.504C332.929 567.504 333.484 567.621 333.964 567.856C334.454 568.091 334.865 568.405 335.196 568.8C335.526 569.195 335.777 569.659 335.948 570.192C336.118 570.715 336.204 571.275 336.204 571.872C336.204 572.469 336.118 573.035 335.948 573.568C335.777 574.091 335.526 574.549 335.196 574.944C334.865 575.339 334.454 575.653 333.964 575.888C333.484 576.112 332.929 576.224 332.3 576.224C331.67 576.224 331.11 576.112 330.62 575.888C330.14 575.653 329.734 575.339 329.404 574.944C329.073 574.549 328.822 574.091 328.652 573.568C328.481 573.035 328.396 572.469 328.396 571.872C328.396 571.275 328.481 570.715 328.652 570.192C328.822 569.659 329.073 569.195 329.404 568.8C329.734 568.405 330.14 568.091 330.62 567.856C331.11 567.621 331.67 567.504 332.3 567.504ZM337.686 567.744H338.694V569.168H338.726C338.918 568.667 339.26 568.267 339.75 567.968C340.241 567.659 340.78 567.504 341.366 567.504C341.942 567.504 342.422 567.579 342.806 567.728C343.201 567.877 343.516 568.091 343.75 568.368C343.985 568.635 344.15 568.965 344.246 569.36C344.342 569.755 344.39 570.197 344.39 570.688V576H343.382V570.848C343.382 570.496 343.35 570.171 343.286 569.872C343.222 569.563 343.11 569.296 342.95 569.072C342.79 568.848 342.572 568.672 342.294 568.544C342.028 568.416 341.692 568.352 341.286 568.352C340.881 568.352 340.518 568.427 340.198 568.576C339.889 568.715 339.622 568.912 339.398 569.168C339.185 569.413 339.014 569.712 338.886 570.064C338.769 570.405 338.705 570.779 338.694 571.184V576H337.686V567.744ZM346.28 567.744H347.288V569.168H347.32C347.512 568.667 347.853 568.267 348.344 567.968C348.835 567.659 349.373 567.504 349.96 567.504C350.536 567.504 351.016 567.579 351.4 567.728C351.795 567.877 352.109 568.091 352.344 568.368C352.579 568.635 352.744 568.965 352.84 569.36C352.936 569.755 352.984 570.197 352.984 570.688V576H351.976V570.848C351.976 570.496 351.944 570.171 351.88 569.872C351.816 569.563 351.704 569.296 351.544 569.072C351.384 568.848 351.165 568.672 350.888 568.544C350.621 568.416 350.285 568.352 349.88 568.352C349.475 568.352 349.112 568.427 348.792 568.576C348.483 568.715 348.216 568.912 347.992 569.168C347.779 569.413 347.608 569.712 347.48 570.064C347.363 570.405 347.299 570.779 347.288 571.184V576H346.28V567.744ZM360.826 571.296C360.815 570.912 360.746 570.544 360.618 570.192C360.5 569.84 360.33 569.531 360.106 569.264C359.882 568.987 359.61 568.768 359.29 568.608C358.97 568.437 358.607 568.352 358.202 568.352C357.786 568.352 357.418 568.437 357.098 568.608C356.778 568.768 356.506 568.987 356.282 569.264C356.058 569.531 355.876 569.845 355.738 570.208C355.61 570.56 355.524 570.923 355.482 571.296H360.826ZM355.482 572.144C355.482 572.507 355.53 572.885 355.626 573.28C355.732 573.664 355.898 574.011 356.122 574.32C356.346 574.629 356.628 574.885 356.97 575.088C357.311 575.291 357.722 575.392 358.202 575.392C358.938 575.392 359.514 575.2 359.93 574.816C360.346 574.432 360.634 573.92 360.794 573.28H361.802C361.588 574.219 361.194 574.944 360.618 575.456C360.052 575.968 359.247 576.224 358.202 576.224C357.551 576.224 356.986 576.112 356.506 575.888C356.036 575.653 355.652 575.339 355.354 574.944C355.055 574.539 354.831 574.075 354.682 573.552C354.543 573.019 354.474 572.459 354.474 571.872C354.474 571.328 354.543 570.795 354.682 570.272C354.831 569.749 355.055 569.285 355.354 568.88C355.652 568.464 356.036 568.133 356.506 567.888C356.986 567.632 357.551 567.504 358.202 567.504C358.863 567.504 359.428 567.637 359.898 567.904C360.367 568.171 360.746 568.523 361.034 568.96C361.332 569.387 361.546 569.883 361.674 570.448C361.802 571.003 361.855 571.568 361.834 572.144H355.482ZM369.011 570.336C368.872 569.717 368.616 569.232 368.243 568.88C367.869 568.528 367.347 568.352 366.675 568.352C366.195 568.352 365.773 568.453 365.411 568.656C365.048 568.859 364.744 569.125 364.499 569.456C364.264 569.787 364.083 570.165 363.955 570.592C363.837 571.008 363.779 571.435 363.779 571.872C363.779 572.309 363.837 572.741 363.955 573.168C364.083 573.584 364.264 573.957 364.499 574.288C364.744 574.619 365.048 574.885 365.411 575.088C365.773 575.291 366.195 575.392 366.675 575.392C366.984 575.392 367.277 575.333 367.555 575.216C367.832 575.099 368.077 574.939 368.291 574.736C368.504 574.523 368.68 574.272 368.819 573.984C368.957 573.696 369.043 573.381 369.075 573.04H370.083C369.944 574.043 369.576 574.827 368.979 575.392C368.381 575.947 367.613 576.224 366.675 576.224C366.045 576.224 365.485 576.112 364.995 575.888C364.515 575.653 364.109 575.339 363.779 574.944C363.448 574.549 363.197 574.091 363.027 573.568C362.856 573.035 362.771 572.469 362.771 571.872C362.771 571.275 362.856 570.715 363.027 570.192C363.197 569.659 363.448 569.195 363.779 568.8C364.109 568.405 364.515 568.091 364.995 567.856C365.485 567.621 366.045 567.504 366.675 567.504C367.56 567.504 368.307 567.739 368.915 568.208C369.533 568.677 369.901 569.387 370.019 570.336H369.011ZM373.083 567.744H374.763V568.592H373.083V574.16C373.083 574.491 373.126 574.752 373.211 574.944C373.307 575.125 373.537 575.227 373.899 575.248C374.187 575.248 374.475 575.232 374.763 575.2V576.048C374.614 576.048 374.465 576.053 374.315 576.064C374.166 576.075 374.017 576.08 373.867 576.08C373.195 576.08 372.726 575.952 372.459 575.696C372.193 575.429 372.065 574.944 372.075 574.24V568.592H370.635V567.744H372.075V565.264H373.083V567.744ZM376.234 564.576H377.242V566.192H376.234V564.576ZM376.234 567.744H377.242V576H376.234V567.744ZM382.659 568.352C382.179 568.352 381.758 568.453 381.395 568.656C381.032 568.859 380.728 569.125 380.483 569.456C380.248 569.787 380.067 570.165 379.939 570.592C379.822 571.008 379.763 571.435 379.763 571.872C379.763 572.309 379.822 572.741 379.939 573.168C380.067 573.584 380.248 573.957 380.483 574.288C380.728 574.619 381.032 574.885 381.395 575.088C381.758 575.291 382.179 575.392 382.659 575.392C383.139 575.392 383.56 575.291 383.923 575.088C384.286 574.885 384.584 574.619 384.819 574.288C385.064 573.957 385.246 573.584 385.363 573.168C385.491 572.741 385.555 572.309 385.555 571.872C385.555 571.435 385.491 571.008 385.363 570.592C385.246 570.165 385.064 569.787 384.819 569.456C384.584 569.125 384.286 568.859 383.923 568.656C383.56 568.453 383.139 568.352 382.659 568.352ZM382.659 567.504C383.288 567.504 383.843 567.621 384.323 567.856C384.814 568.091 385.224 568.405 385.555 568.8C385.886 569.195 386.136 569.659 386.307 570.192C386.478 570.715 386.563 571.275 386.563 571.872C386.563 572.469 386.478 573.035 386.307 573.568C386.136 574.091 385.886 574.549 385.555 574.944C385.224 575.339 384.814 575.653 384.323 575.888C383.843 576.112 383.288 576.224 382.659 576.224C382.03 576.224 381.47 576.112 380.979 575.888C380.499 575.653 380.094 575.339 379.763 574.944C379.432 574.549 379.182 574.091 379.011 573.568C378.84 573.035 378.755 572.469 378.755 571.872C378.755 571.275 378.84 570.715 379.011 570.192C379.182 569.659 379.432 569.195 379.763 568.8C380.094 568.405 380.499 568.091 380.979 567.856C381.47 567.621 382.03 567.504 382.659 567.504ZM388.046 567.744H389.054V569.168H389.086C389.278 568.667 389.619 568.267 390.11 567.968C390.6 567.659 391.139 567.504 391.726 567.504C392.302 567.504 392.782 567.579 393.166 567.728C393.56 567.877 393.875 568.091 394.11 568.368C394.344 568.635 394.51 568.965 394.606 569.36C394.702 569.755 394.75 570.197 394.75 570.688V576H393.742V570.848C393.742 570.496 393.71 570.171 393.646 569.872C393.582 569.563 393.47 569.296 393.31 569.072C393.15 568.848 392.931 568.672 392.654 568.544C392.387 568.416 392.051 568.352 391.646 568.352C391.24 568.352 390.878 568.427 390.558 568.576C390.248 568.715 389.982 568.912 389.758 569.168C389.544 569.413 389.374 569.712 389.246 570.064C389.128 570.405 389.064 570.779 389.054 571.184V576H388.046V567.744ZM401.108 564.576H402.116V569.312H402.148C402.255 569.013 402.404 568.752 402.596 568.528C402.799 568.304 403.028 568.117 403.284 567.968C403.54 567.808 403.818 567.691 404.116 567.616C404.415 567.541 404.714 567.504 405.012 567.504C405.642 567.504 406.186 567.621 406.644 567.856C407.114 568.091 407.503 568.411 407.812 568.816C408.122 569.211 408.351 569.675 408.5 570.208C408.65 570.731 408.724 571.285 408.724 571.872C408.724 572.459 408.65 573.019 408.5 573.552C408.351 574.075 408.122 574.539 407.812 574.944C407.503 575.339 407.114 575.653 406.644 575.888C406.186 576.112 405.642 576.224 405.012 576.224C404.34 576.224 403.738 576.069 403.204 575.76C402.682 575.451 402.303 575.008 402.068 574.432H402.036V576H401.108V564.576ZM407.716 571.872C407.716 571.445 407.663 571.024 407.556 570.608C407.46 570.181 407.3 569.803 407.076 569.472C406.863 569.141 406.586 568.875 406.244 568.672C405.903 568.459 405.492 568.352 405.012 568.352C404.479 568.352 404.026 568.459 403.652 568.672C403.29 568.875 402.991 569.141 402.756 569.472C402.532 569.803 402.367 570.181 402.26 570.608C402.164 571.024 402.116 571.445 402.116 571.872C402.116 572.299 402.164 572.725 402.26 573.152C402.367 573.568 402.532 573.941 402.756 574.272C402.991 574.603 403.29 574.875 403.652 575.088C404.026 575.291 404.479 575.392 405.012 575.392C405.492 575.392 405.903 575.291 406.244 575.088C406.586 574.875 406.863 574.603 407.076 574.272C407.3 573.941 407.46 573.568 407.556 573.152C407.663 572.725 407.716 572.299 407.716 571.872ZM416.232 571.296C416.221 570.912 416.152 570.544 416.024 570.192C415.907 569.84 415.736 569.531 415.512 569.264C415.288 568.987 415.016 568.768 414.696 568.608C414.376 568.437 414.013 568.352 413.608 568.352C413.192 568.352 412.824 568.437 412.504 568.608C412.184 568.768 411.912 568.987 411.688 569.264C411.464 569.531 411.283 569.845 411.144 570.208C411.016 570.56 410.931 570.923 410.888 571.296H416.232ZM410.888 572.144C410.888 572.507 410.936 572.885 411.032 573.28C411.139 573.664 411.304 574.011 411.528 574.32C411.752 574.629 412.035 574.885 412.376 575.088C412.717 575.291 413.128 575.392 413.608 575.392C414.344 575.392 414.92 575.2 415.336 574.816C415.752 574.432 416.04 573.92 416.2 573.28H417.208C416.995 574.219 416.6 574.944 416.024 575.456C415.459 575.968 414.653 576.224 413.608 576.224C412.957 576.224 412.392 576.112 411.912 575.888C411.443 575.653 411.059 575.339 410.76 574.944C410.461 574.539 410.237 574.075 410.088 573.552C409.949 573.019 409.88 572.459 409.88 571.872C409.88 571.328 409.949 570.795 410.088 570.272C410.237 569.749 410.461 569.285 410.76 568.88C411.059 568.464 411.443 568.133 411.912 567.888C412.392 567.632 412.957 567.504 413.608 567.504C414.269 567.504 414.835 567.637 415.304 567.904C415.773 568.171 416.152 568.523 416.44 568.96C416.739 569.387 416.952 569.883 417.08 570.448C417.208 571.003 417.261 571.568 417.24 572.144H410.888ZM420.193 567.744H421.873V568.592H420.193V574.16C420.193 574.491 420.235 574.752 420.321 574.944C420.417 575.125 420.646 575.227 421.009 575.248C421.297 575.248 421.585 575.232 421.873 575.2V576.048C421.723 576.048 421.574 576.053 421.425 576.064C421.275 576.075 421.126 576.08 420.977 576.08C420.305 576.08 419.835 575.952 419.569 575.696C419.302 575.429 419.174 574.944 419.185 574.24V568.592H417.745V567.744H419.185V565.264H420.193V567.744ZM422.495 567.744H423.567L425.679 574.816H425.711L427.727 567.744H428.863L430.879 574.816H430.911L433.023 567.744H434.095L431.439 576H430.335L428.303 569.056H428.271L426.255 576H425.151L422.495 567.744ZM441.123 571.296C441.112 570.912 441.043 570.544 440.915 570.192C440.797 569.84 440.627 569.531 440.403 569.264C440.179 568.987 439.907 568.768 439.587 568.608C439.267 568.437 438.904 568.352 438.499 568.352C438.083 568.352 437.715 568.437 437.395 568.608C437.075 568.768 436.803 568.987 436.579 569.264C436.355 569.531 436.173 569.845 436.035 570.208C435.907 570.56 435.821 570.923 435.779 571.296H441.123ZM435.779 572.144C435.779 572.507 435.827 572.885 435.923 573.28C436.029 573.664 436.195 574.011 436.419 574.32C436.643 574.629 436.925 574.885 437.267 575.088C437.608 575.291 438.019 575.392 438.499 575.392C439.235 575.392 439.811 575.2 440.227 574.816C440.643 574.432 440.931 573.92 441.091 573.28H442.099C441.885 574.219 441.491 574.944 440.915 575.456C440.349 575.968 439.544 576.224 438.499 576.224C437.848 576.224 437.283 576.112 436.803 575.888C436.333 575.653 435.949 575.339 435.651 574.944C435.352 574.539 435.128 574.075 434.979 573.552C434.84 573.019 434.771 572.459 434.771 571.872C434.771 571.328 434.84 570.795 434.979 570.272C435.128 569.749 435.352 569.285 435.651 568.88C435.949 568.464 436.333 568.133 436.803 567.888C437.283 567.632 437.848 567.504 438.499 567.504C439.16 567.504 439.725 567.637 440.195 567.904C440.664 568.171 441.043 568.523 441.331 568.96C441.629 569.387 441.843 569.883 441.971 570.448C442.099 571.003 442.152 571.568 442.131 572.144H435.779ZM449.419 571.296C449.409 570.912 449.339 570.544 449.211 570.192C449.094 569.84 448.923 569.531 448.699 569.264C448.475 568.987 448.203 568.768 447.883 568.608C447.563 568.437 447.201 568.352 446.795 568.352C446.379 568.352 446.011 568.437 445.691 568.608C445.371 568.768 445.099 568.987 444.875 569.264C444.651 569.531 444.47 569.845 444.331 570.208C444.203 570.56 444.118 570.923 444.075 571.296H449.419ZM444.075 572.144C444.075 572.507 444.123 572.885 444.219 573.28C444.326 573.664 444.491 574.011 444.715 574.32C444.939 574.629 445.222 574.885 445.563 575.088C445.905 575.291 446.315 575.392 446.795 575.392C447.531 575.392 448.107 575.2 448.523 574.816C448.939 574.432 449.227 573.92 449.387 573.28H450.395C450.182 574.219 449.787 574.944 449.211 575.456C448.646 575.968 447.841 576.224 446.795 576.224C446.145 576.224 445.579 576.112 445.099 575.888C444.63 575.653 444.246 575.339 443.947 574.944C443.649 574.539 443.425 574.075 443.275 573.552C443.137 573.019 443.067 572.459 443.067 571.872C443.067 571.328 443.137 570.795 443.275 570.272C443.425 569.749 443.649 569.285 443.947 568.88C444.246 568.464 444.63 568.133 445.099 567.888C445.579 567.632 446.145 567.504 446.795 567.504C447.457 567.504 448.022 567.637 448.491 567.904C448.961 568.171 449.339 568.523 449.627 568.96C449.926 569.387 450.139 569.883 450.267 570.448C450.395 571.003 450.449 571.568 450.427 572.144H444.075ZM451.764 567.744H452.772V569.168H452.804C452.996 568.667 453.338 568.267 453.828 567.968C454.319 567.659 454.858 567.504 455.444 567.504C456.02 567.504 456.5 567.579 456.884 567.728C457.279 567.877 457.594 568.091 457.828 568.368C458.063 568.635 458.228 568.965 458.324 569.36C458.42 569.755 458.468 570.197 458.468 570.688V576H457.46V570.848C457.46 570.496 457.428 570.171 457.364 569.872C457.3 569.563 457.188 569.296 457.028 569.072C456.868 568.848 456.65 568.672 456.372 568.544C456.106 568.416 455.77 568.352 455.364 568.352C454.959 568.352 454.596 568.427 454.276 568.576C453.967 568.715 453.7 568.912 453.476 569.168C453.263 569.413 453.092 569.712 452.964 570.064C452.847 570.405 452.783 570.779 452.772 571.184V576H451.764V567.744ZM352.771 586.744H354.451V587.592H352.771V593.16C352.771 593.491 352.814 593.752 352.899 593.944C352.995 594.125 353.224 594.227 353.587 594.248C353.875 594.248 354.163 594.232 354.451 594.2V595.048C354.302 595.048 354.152 595.053 354.003 595.064C353.854 595.075 353.704 595.08 353.555 595.08C352.883 595.08 352.414 594.952 352.147 594.696C351.88 594.429 351.752 593.944 351.763 593.24V587.592H350.323V586.744H351.763V584.264H352.771V586.744ZM355.073 586.744H356.145L358.257 593.816H358.289L360.305 586.744H361.441L363.457 593.816H363.489L365.601 586.744H366.673L364.017 595H362.913L360.881 588.056H360.849L358.833 595H357.729L355.073 586.744ZM371.253 587.352C370.773 587.352 370.351 587.453 369.989 587.656C369.626 587.859 369.322 588.125 369.077 588.456C368.842 588.787 368.661 589.165 368.533 589.592C368.415 590.008 368.357 590.435 368.357 590.872C368.357 591.309 368.415 591.741 368.533 592.168C368.661 592.584 368.842 592.957 369.077 593.288C369.322 593.619 369.626 593.885 369.989 594.088C370.351 594.291 370.773 594.392 371.253 594.392C371.733 594.392 372.154 594.291 372.517 594.088C372.879 593.885 373.178 593.619 373.413 593.288C373.658 592.957 373.839 592.584 373.957 592.168C374.085 591.741 374.149 591.309 374.149 590.872C374.149 590.435 374.085 590.008 373.957 589.592C373.839 589.165 373.658 588.787 373.413 588.456C373.178 588.125 372.879 587.859 372.517 587.656C372.154 587.453 371.733 587.352 371.253 587.352ZM371.253 586.504C371.882 586.504 372.437 586.621 372.917 586.856C373.407 587.091 373.818 587.405 374.149 587.8C374.479 588.195 374.73 588.659 374.901 589.192C375.071 589.715 375.157 590.275 375.157 590.872C375.157 591.469 375.071 592.035 374.901 592.568C374.73 593.091 374.479 593.549 374.149 593.944C373.818 594.339 373.407 594.653 372.917 594.888C372.437 595.112 371.882 595.224 371.253 595.224C370.623 595.224 370.063 595.112 369.573 594.888C369.093 594.653 368.687 594.339 368.357 593.944C368.026 593.549 367.775 593.091 367.605 592.568C367.434 592.035 367.349 591.469 367.349 590.872C367.349 590.275 367.434 589.715 367.605 589.192C367.775 588.659 368.026 588.195 368.357 587.8C368.687 587.405 369.093 587.091 369.573 586.856C370.063 586.621 370.623 586.504 371.253 586.504ZM380.276 586.744H381.348L383.46 593.816H383.492L385.508 586.744H386.644L388.66 593.816H388.692L390.804 586.744H391.876L389.22 595H388.116L386.084 588.056H386.052L384.036 595H382.932L380.276 586.744ZM396.456 587.352C395.976 587.352 395.554 587.453 395.192 587.656C394.829 587.859 394.525 588.125 394.28 588.456C394.045 588.787 393.864 589.165 393.736 589.592C393.618 590.008 393.56 590.435 393.56 590.872C393.56 591.309 393.618 591.741 393.736 592.168C393.864 592.584 394.045 592.957 394.28 593.288C394.525 593.619 394.829 593.885 395.192 594.088C395.554 594.291 395.976 594.392 396.456 594.392C396.936 594.392 397.357 594.291 397.72 594.088C398.082 593.885 398.381 593.619 398.616 593.288C398.861 592.957 399.042 592.584 399.16 592.168C399.288 591.741 399.352 591.309 399.352 590.872C399.352 590.435 399.288 590.008 399.16 589.592C399.042 589.165 398.861 588.787 398.616 588.456C398.381 588.125 398.082 587.859 397.72 587.656C397.357 587.453 396.936 587.352 396.456 587.352ZM396.456 586.504C397.085 586.504 397.64 586.621 398.12 586.856C398.61 587.091 399.021 587.405 399.352 587.8C399.682 588.195 399.933 588.659 400.104 589.192C400.274 589.715 400.36 590.275 400.36 590.872C400.36 591.469 400.274 592.035 400.104 592.568C399.933 593.091 399.682 593.549 399.352 593.944C399.021 594.339 398.61 594.653 398.12 594.888C397.64 595.112 397.085 595.224 396.456 595.224C395.826 595.224 395.266 595.112 394.776 594.888C394.296 594.653 393.89 594.339 393.56 593.944C393.229 593.549 392.978 593.091 392.808 592.568C392.637 592.035 392.552 591.469 392.552 590.872C392.552 590.275 392.637 589.715 392.808 589.192C392.978 588.659 393.229 588.195 393.56 587.8C393.89 587.405 394.296 587.091 394.776 586.856C395.266 586.621 395.826 586.504 396.456 586.504ZM401.858 586.744H402.786V588.68H402.818C403.074 588.008 403.469 587.491 404.002 587.128C404.546 586.765 405.192 586.6 405.938 586.632V587.64C405.48 587.619 405.064 587.683 404.69 587.832C404.317 587.971 403.992 588.173 403.714 588.44C403.448 588.707 403.24 589.027 403.09 589.4C402.941 589.763 402.866 590.163 402.866 590.6V595H401.858V586.744ZM406.921 583.576H407.929V595H406.921V583.576ZM417.122 595H416.194V593.432H416.162C416.056 593.699 415.896 593.944 415.682 594.168C415.48 594.392 415.245 594.584 414.978 594.744C414.712 594.893 414.424 595.011 414.114 595.096C413.816 595.181 413.517 595.224 413.218 595.224C412.589 595.224 412.04 595.112 411.57 594.888C411.112 594.653 410.728 594.339 410.418 593.944C410.109 593.539 409.88 593.075 409.73 592.552C409.581 592.019 409.506 591.459 409.506 590.872C409.506 590.285 409.581 589.731 409.73 589.208C409.88 588.675 410.109 588.211 410.418 587.816C410.728 587.411 411.112 587.091 411.57 586.856C412.04 586.621 412.589 586.504 413.218 586.504C413.528 586.504 413.826 586.541 414.114 586.616C414.413 586.691 414.69 586.808 414.946 586.968C415.202 587.117 415.426 587.304 415.618 587.528C415.821 587.752 415.976 588.013 416.082 588.312H416.114V583.576H417.122V595ZM410.514 590.872C410.514 591.299 410.562 591.725 410.658 592.152C410.765 592.568 410.925 592.941 411.138 593.272C411.362 593.603 411.645 593.875 411.986 594.088C412.328 594.291 412.738 594.392 413.218 594.392C413.752 594.392 414.2 594.291 414.562 594.088C414.936 593.875 415.234 593.603 415.458 593.272C415.693 592.941 415.858 592.568 415.954 592.152C416.061 591.725 416.114 591.299 416.114 590.872C416.114 590.445 416.061 590.024 415.954 589.608C415.858 589.181 415.693 588.803 415.458 588.472C415.234 588.141 414.936 587.875 414.562 587.672C414.2 587.459 413.752 587.352 413.218 587.352C412.738 587.352 412.328 587.459 411.986 587.672C411.645 587.875 411.362 588.141 411.138 588.472C410.925 588.803 410.765 589.181 410.658 589.608C410.562 590.024 410.514 590.445 410.514 590.872ZM423.99 589.16C423.979 588.851 423.915 588.584 423.798 588.36C423.681 588.125 423.521 587.933 423.318 587.784C423.126 587.635 422.902 587.528 422.646 587.464C422.39 587.389 422.118 587.352 421.83 587.352C421.606 587.352 421.377 587.379 421.142 587.432C420.918 587.475 420.71 587.555 420.518 587.672C420.326 587.779 420.171 587.923 420.054 588.104C419.937 588.285 419.878 588.509 419.878 588.776C419.878 589 419.931 589.192 420.038 589.352C420.155 589.501 420.299 589.629 420.47 589.736C420.641 589.843 420.827 589.933 421.03 590.008C421.233 590.072 421.419 590.125 421.59 590.168L422.934 590.472C423.222 590.515 423.505 590.595 423.782 590.712C424.07 590.819 424.321 590.963 424.534 591.144C424.758 591.325 424.939 591.549 425.078 591.816C425.217 592.083 425.286 592.397 425.286 592.76C425.286 593.208 425.185 593.592 424.982 593.912C424.779 594.221 424.518 594.477 424.198 594.68C423.889 594.872 423.537 595.011 423.142 595.096C422.747 595.181 422.358 595.224 421.974 595.224C421.003 595.224 420.214 594.995 419.606 594.536C419.009 594.077 418.667 593.341 418.582 592.328H419.59C419.633 593.011 419.878 593.528 420.326 593.88C420.785 594.221 421.35 594.392 422.022 594.392C422.267 594.392 422.518 594.365 422.774 594.312C423.041 594.259 423.286 594.168 423.51 594.04C423.734 593.912 423.915 593.752 424.054 593.56C424.203 593.357 424.278 593.112 424.278 592.824C424.278 592.579 424.225 592.376 424.118 592.216C424.022 592.045 423.889 591.907 423.718 591.8C423.547 591.683 423.35 591.587 423.126 591.512C422.913 591.437 422.694 591.373 422.47 591.32L421.174 591.032C420.843 590.947 420.539 590.851 420.262 590.744C419.985 590.627 419.739 590.488 419.526 590.328C419.323 590.157 419.163 589.955 419.046 589.72C418.929 589.475 418.87 589.176 418.87 588.824C418.87 588.408 418.961 588.051 419.142 587.752C419.334 587.453 419.579 587.213 419.878 587.032C420.177 586.851 420.507 586.717 420.87 586.632C421.243 586.547 421.611 586.504 421.974 586.504C422.39 586.504 422.774 586.557 423.126 586.664C423.489 586.771 423.803 586.936 424.07 587.16C424.347 587.384 424.566 587.661 424.726 587.992C424.886 588.323 424.977 588.712 424.998 589.16H423.99Z" fill="black"/>
<path d="M614.842 569.584H618.586C619.023 569.584 619.402 569.536 619.722 569.44C620.042 569.333 620.308 569.195 620.522 569.024C620.735 568.843 620.895 568.635 621.002 568.4C621.108 568.165 621.162 567.915 621.162 567.648C621.162 566.219 620.303 565.504 618.586 565.504H614.842V569.584ZM613.754 564.576H618.586C619.066 564.576 619.524 564.624 619.962 564.72C620.41 564.805 620.799 564.96 621.13 565.184C621.471 565.397 621.743 565.685 621.946 566.048C622.148 566.4 622.25 566.843 622.25 567.376C622.25 567.675 622.202 567.968 622.106 568.256C622.01 568.533 621.871 568.789 621.69 569.024C621.519 569.248 621.311 569.44 621.066 569.6C620.831 569.76 620.564 569.872 620.266 569.936V569.968C621.002 570.064 621.588 570.368 622.026 570.88C622.463 571.381 622.682 572.005 622.682 572.752C622.682 572.933 622.666 573.141 622.634 573.376C622.602 573.6 622.538 573.835 622.442 574.08C622.346 574.315 622.207 574.549 622.026 574.784C621.844 575.019 621.599 575.227 621.29 575.408C620.991 575.579 620.618 575.723 620.17 575.84C619.732 575.947 619.204 576 618.586 576H613.754V564.576ZM614.842 575.072H618.586C618.991 575.072 619.375 575.04 619.738 574.976C620.1 574.901 620.42 574.773 620.698 574.592C620.975 574.411 621.194 574.171 621.354 573.872C621.514 573.563 621.594 573.179 621.594 572.72C621.594 571.984 621.332 571.435 620.81 571.072C620.298 570.699 619.556 570.512 618.586 570.512H614.842V575.072ZM630.921 576H629.993V574.512H629.961C629.695 575.067 629.305 575.493 628.793 575.792C628.292 576.08 627.732 576.224 627.113 576.224C626.591 576.224 626.143 576.149 625.769 576C625.407 575.861 625.108 575.659 624.873 575.392C624.649 575.125 624.484 574.8 624.377 574.416C624.271 574.032 624.217 573.595 624.217 573.104V567.744H625.225V573.12C625.247 573.867 625.417 574.432 625.737 574.816C626.068 575.2 626.633 575.392 627.433 575.392C627.871 575.392 628.244 575.301 628.553 575.12C628.863 574.928 629.119 574.677 629.321 574.368C629.524 574.059 629.673 573.707 629.769 573.312C629.865 572.907 629.913 572.496 629.913 572.08V567.744H630.921V576ZM632.843 564.576H633.851V566.192H632.843V564.576ZM632.843 567.744H633.851V576H632.843V567.744ZM635.796 564.576H636.804V576H635.796V564.576ZM645.997 576H645.069V574.432H645.037C644.931 574.699 644.771 574.944 644.557 575.168C644.355 575.392 644.12 575.584 643.853 575.744C643.587 575.893 643.299 576.011 642.989 576.096C642.691 576.181 642.392 576.224 642.093 576.224C641.464 576.224 640.915 576.112 640.445 575.888C639.987 575.653 639.603 575.339 639.293 574.944C638.984 574.539 638.755 574.075 638.605 573.552C638.456 573.019 638.381 572.459 638.381 571.872C638.381 571.285 638.456 570.731 638.605 570.208C638.755 569.675 638.984 569.211 639.293 568.816C639.603 568.411 639.987 568.091 640.445 567.856C640.915 567.621 641.464 567.504 642.093 567.504C642.403 567.504 642.701 567.541 642.989 567.616C643.288 567.691 643.565 567.808 643.821 567.968C644.077 568.117 644.301 568.304 644.493 568.528C644.696 568.752 644.851 569.013 644.957 569.312H644.989V564.576H645.997V576ZM639.389 571.872C639.389 572.299 639.437 572.725 639.533 573.152C639.64 573.568 639.8 573.941 640.013 574.272C640.237 574.603 640.52 574.875 640.861 575.088C641.203 575.291 641.613 575.392 642.093 575.392C642.627 575.392 643.075 575.291 643.437 575.088C643.811 574.875 644.109 574.603 644.333 574.272C644.568 573.941 644.733 573.568 644.829 573.152C644.936 572.725 644.989 572.299 644.989 571.872C644.989 571.445 644.936 571.024 644.829 570.608C644.733 570.181 644.568 569.803 644.333 569.472C644.109 569.141 643.811 568.875 643.437 568.672C643.075 568.459 642.627 568.352 642.093 568.352C641.613 568.352 641.203 568.459 640.861 568.672C640.52 568.875 640.237 569.141 640.013 569.472C639.8 569.803 639.64 570.181 639.533 570.608C639.437 571.024 639.389 571.445 639.389 571.872ZM647.937 564.576H648.945V566.192H647.937V564.576ZM647.937 567.744H648.945V576H647.937V567.744ZM650.858 567.744H651.866V569.168H651.898C652.09 568.667 652.431 568.267 652.922 567.968C653.413 567.659 653.951 567.504 654.538 567.504C655.114 567.504 655.594 567.579 655.978 567.728C656.373 567.877 656.687 568.091 656.922 568.368C657.157 568.635 657.322 568.965 657.418 569.36C657.514 569.755 657.562 570.197 657.562 570.688V576H656.554V570.848C656.554 570.496 656.522 570.171 656.458 569.872C656.394 569.563 656.282 569.296 656.122 569.072C655.962 568.848 655.743 568.672 655.466 568.544C655.199 568.416 654.863 568.352 654.458 568.352C654.053 568.352 653.69 568.427 653.37 568.576C653.061 568.715 652.794 568.912 652.57 569.168C652.357 569.413 652.186 569.712 652.058 570.064C651.941 570.405 651.877 570.779 651.866 571.184V576H650.858V567.744ZM666.444 575.328C666.444 575.936 666.374 576.485 666.236 576.976C666.108 577.467 665.9 577.883 665.612 578.224C665.324 578.565 664.945 578.827 664.476 579.008C664.017 579.189 663.452 579.28 662.78 579.28C662.364 579.28 661.958 579.232 661.564 579.136C661.169 579.04 660.812 578.891 660.492 578.688C660.182 578.485 659.921 578.224 659.708 577.904C659.505 577.595 659.388 577.221 659.356 576.784H660.364C660.417 577.093 660.518 577.349 660.668 577.552C660.828 577.765 661.014 577.936 661.228 578.064C661.452 578.192 661.697 578.283 661.964 578.336C662.23 578.4 662.502 578.432 662.78 578.432C663.718 578.432 664.396 578.165 664.812 577.632C665.228 577.099 665.436 576.331 665.436 575.328V574.208H665.404C665.169 574.72 664.822 575.131 664.364 575.44C663.916 575.749 663.388 575.904 662.78 575.904C662.118 575.904 661.553 575.797 661.084 575.584C660.614 575.36 660.225 575.056 659.916 574.672C659.617 574.288 659.398 573.84 659.26 573.328C659.121 572.805 659.052 572.251 659.052 571.664C659.052 571.099 659.132 570.565 659.292 570.064C659.462 569.552 659.702 569.109 660.012 568.736C660.332 568.352 660.721 568.053 661.18 567.84C661.649 567.616 662.182 567.504 662.78 567.504C663.089 567.504 663.377 567.547 663.644 567.632C663.921 567.717 664.172 567.84 664.396 568C664.62 568.149 664.817 568.325 664.988 568.528C665.169 568.731 665.308 568.944 665.404 569.168H665.436V567.744H666.444V575.328ZM662.78 575.056C663.217 575.056 663.601 574.965 663.932 574.784C664.262 574.592 664.54 574.347 664.764 574.048C664.988 573.739 665.153 573.387 665.26 572.992C665.377 572.597 665.436 572.192 665.436 571.776C665.436 571.371 665.388 570.965 665.292 570.56C665.196 570.155 665.041 569.787 664.828 569.456C664.614 569.125 664.337 568.859 663.996 568.656C663.665 568.453 663.26 568.352 662.78 568.352C662.3 568.352 661.889 568.453 661.548 568.656C661.206 568.848 660.924 569.104 660.7 569.424C660.476 569.744 660.31 570.112 660.204 570.528C660.108 570.933 660.06 571.349 660.06 571.776C660.06 572.192 660.113 572.597 660.22 572.992C660.326 573.387 660.492 573.739 660.716 574.048C660.94 574.347 661.222 574.592 661.564 574.784C661.905 574.965 662.31 575.056 662.78 575.056Z" fill="black"/>
<path d="M878.859 572.24C878.849 572.827 878.939 573.317 879.131 573.712C879.323 574.107 879.585 574.421 879.915 574.656C880.257 574.891 880.657 575.061 881.115 575.168C881.574 575.264 882.065 575.312 882.587 575.312C882.886 575.312 883.211 575.269 883.563 575.184C883.915 575.099 884.241 574.965 884.539 574.784C884.849 574.592 885.105 574.352 885.307 574.064C885.51 573.765 885.611 573.408 885.611 572.992C885.611 572.672 885.537 572.395 885.387 572.16C885.249 571.925 885.062 571.728 884.827 571.568C884.603 571.408 884.353 571.28 884.075 571.184C883.798 571.077 883.526 570.992 883.259 570.928L880.715 570.304C880.385 570.219 880.059 570.112 879.739 569.984C879.43 569.856 879.158 569.685 878.923 569.472C878.689 569.259 878.497 568.997 878.347 568.688C878.209 568.379 878.139 568 878.139 567.552C878.139 567.275 878.193 566.949 878.299 566.576C878.406 566.203 878.603 565.851 878.891 565.52C879.19 565.189 879.595 564.912 880.107 564.688C880.619 564.453 881.275 564.336 882.075 564.336C882.641 564.336 883.179 564.411 883.691 564.56C884.203 564.709 884.651 564.933 885.035 565.232C885.419 565.531 885.723 565.904 885.947 566.352C886.182 566.789 886.299 567.301 886.299 567.888H885.211C885.19 567.451 885.089 567.072 884.907 566.752C884.737 566.421 884.507 566.149 884.219 565.936C883.942 565.712 883.617 565.547 883.243 565.44C882.881 565.323 882.497 565.264 882.091 565.264C881.718 565.264 881.355 565.307 881.003 565.392C880.662 565.467 880.358 565.595 880.091 565.776C879.835 565.947 879.627 566.176 879.467 566.464C879.307 566.752 879.227 567.109 879.227 567.536C879.227 567.803 879.27 568.037 879.355 568.24C879.451 568.432 879.579 568.597 879.739 568.736C879.899 568.875 880.081 568.987 880.283 569.072C880.497 569.157 880.721 569.227 880.955 569.28L883.739 569.968C884.145 570.075 884.523 570.208 884.875 570.368C885.238 570.517 885.553 570.709 885.819 570.944C886.097 571.168 886.31 571.445 886.459 571.776C886.619 572.107 886.699 572.507 886.699 572.976C886.699 573.104 886.683 573.275 886.651 573.488C886.63 573.701 886.566 573.931 886.459 574.176C886.363 574.411 886.219 574.651 886.027 574.896C885.846 575.141 885.59 575.365 885.259 575.568C884.939 575.76 884.539 575.915 884.059 576.032C883.579 576.16 883.003 576.224 882.331 576.224C881.659 576.224 881.035 576.149 880.459 576C879.883 575.84 879.393 575.6 878.987 575.28C878.582 574.96 878.267 574.549 878.043 574.048C877.83 573.547 877.739 572.944 877.771 572.24H878.859ZM888.233 567.744H889.161V569.136H889.209C889.476 568.624 889.823 568.224 890.249 567.936C890.687 567.648 891.241 567.504 891.913 567.504C892.457 567.504 892.948 567.637 893.385 567.904C893.833 568.171 894.132 568.576 894.281 569.12C894.527 568.576 894.889 568.171 895.369 567.904C895.849 567.637 896.361 567.504 896.905 567.504C898.729 567.504 899.641 568.469 899.641 570.4V576H898.633V570.448C898.633 569.765 898.489 569.248 898.201 568.896C897.913 568.533 897.407 568.352 896.681 568.352C896.244 568.352 895.881 568.437 895.593 568.608C895.305 568.768 895.076 568.987 894.905 569.264C894.735 569.541 894.612 569.861 894.537 570.224C894.473 570.576 894.441 570.944 894.441 571.328V576H893.433V570.4C893.433 570.123 893.401 569.861 893.337 569.616C893.284 569.36 893.188 569.141 893.049 568.96C892.921 568.768 892.745 568.619 892.521 568.512C892.297 568.405 892.025 568.352 891.705 568.352C891.279 568.352 890.905 568.432 890.585 568.592C890.276 568.741 890.02 568.955 889.817 569.232C889.625 569.499 889.481 569.819 889.385 570.192C889.289 570.555 889.241 570.955 889.241 571.392V576H888.233V567.744ZM901.578 564.576H902.586V566.192H901.578V564.576ZM901.578 567.744H902.586V576H901.578V567.744ZM904.531 564.576H905.539V576H904.531V564.576ZM913.404 571.296C913.393 570.912 913.324 570.544 913.196 570.192C913.078 569.84 912.908 569.531 912.684 569.264C912.46 568.987 912.188 568.768 911.868 568.608C911.548 568.437 911.185 568.352 910.78 568.352C910.364 568.352 909.996 568.437 909.676 568.608C909.356 568.768 909.084 568.987 908.86 569.264C908.636 569.531 908.454 569.845 908.316 570.208C908.188 570.56 908.102 570.923 908.06 571.296H913.404ZM908.06 572.144C908.06 572.507 908.108 572.885 908.204 573.28C908.31 573.664 908.476 574.011 908.7 574.32C908.924 574.629 909.206 574.885 909.548 575.088C909.889 575.291 910.3 575.392 910.78 575.392C911.516 575.392 912.092 575.2 912.508 574.816C912.924 574.432 913.212 573.92 913.372 573.28H914.38C914.166 574.219 913.772 574.944 913.196 575.456C912.63 575.968 911.825 576.224 910.78 576.224C910.129 576.224 909.564 576.112 909.084 575.888C908.614 575.653 908.23 575.339 907.932 574.944C907.633 574.539 907.409 574.075 907.26 573.552C907.121 573.019 907.052 572.459 907.052 571.872C907.052 571.328 907.121 570.795 907.26 570.272C907.409 569.749 907.633 569.285 907.932 568.88C908.23 568.464 908.614 568.133 909.084 567.888C909.564 567.632 910.129 567.504 910.78 567.504C911.441 567.504 912.006 567.637 912.476 567.904C912.945 568.171 913.324 568.523 913.612 568.96C913.91 569.387 914.124 569.883 914.252 570.448C914.38 571.003 914.433 571.568 914.412 572.144H908.06Z" fill="black"/>
<path d="M589.137 672V649.152H593.745V672H589.137ZM597.035 654.784H601.259V656.8H601.323C601.792 655.947 602.4 655.328 603.147 654.944C603.893 654.539 604.747 654.336 605.707 654.336C607.115 654.336 608.192 654.72 608.939 655.488C609.707 656.256 610.091 657.504 610.091 659.232V672H605.675V660.128C605.675 659.232 605.525 658.613 605.227 658.272C604.928 657.909 604.448 657.728 603.786 657.728C602.229 657.728 601.451 658.677 601.451 660.576V672H597.035V654.784ZM621.867 670.176H621.803C621.312 670.987 620.757 671.552 620.139 671.872C619.541 672.192 618.795 672.352 617.899 672.352C616.085 672.352 614.752 671.659 613.899 670.272C613.045 668.885 612.618 666.592 612.618 663.392C612.618 660.192 613.045 657.888 613.899 656.48C614.752 655.051 616.085 654.336 617.899 654.336C618.731 654.336 619.435 654.507 620.01 654.848C620.608 655.189 621.141 655.701 621.611 656.384H621.675V649.152H626.091V672H621.867V670.176ZM617.035 663.392C617.035 665.269 617.173 666.688 617.451 667.648C617.749 668.587 618.379 669.056 619.339 669.056C620.32 669.056 620.949 668.587 621.227 667.648C621.525 666.688 621.675 665.269 621.675 663.392C621.675 661.515 621.525 660.107 621.227 659.168C620.949 658.208 620.32 657.728 619.339 657.728C618.379 657.728 617.749 658.208 617.451 659.168C617.173 660.107 617.035 661.515 617.035 663.392ZM637.867 669.984H637.803C637.333 670.837 636.725 671.445 635.979 671.808C635.232 672.171 634.379 672.352 633.419 672.352C632.011 672.352 630.923 671.989 630.155 671.264C629.408 670.517 629.035 669.28 629.035 667.552V654.784H633.451V666.656C633.451 667.552 633.6 668.181 633.899 668.544C634.197 668.885 634.677 669.056 635.339 669.056C636.896 669.056 637.675 668.107 637.675 666.208V654.784H642.091V672H637.867V669.984ZM648.266 666.368V666.944C648.266 667.691 648.459 668.299 648.843 668.768C649.248 669.216 649.824 669.44 650.571 669.44C651.253 669.44 651.797 669.269 652.203 668.928C652.608 668.587 652.811 668.075 652.811 667.392C652.811 666.837 652.651 666.421 652.331 666.144C652.011 665.845 651.637 665.611 651.211 665.44L648.107 664.32C646.891 663.893 645.973 663.296 645.355 662.528C644.736 661.739 644.427 660.736 644.427 659.52C644.427 658.816 644.544 658.155 644.779 657.536C645.013 656.896 645.387 656.341 645.899 655.872C646.411 655.403 647.061 655.029 647.851 654.752C648.661 654.475 649.632 654.336 650.763 654.336C652.768 654.336 654.251 654.763 655.211 655.616C656.171 656.469 656.651 657.675 656.651 659.232V659.936H652.683C652.683 659.04 652.533 658.389 652.235 657.984C651.957 657.557 651.456 657.344 650.731 657.344C650.176 657.344 649.685 657.504 649.259 657.824C648.853 658.123 648.651 658.581 648.651 659.2C648.651 659.627 648.779 660.011 649.035 660.352C649.312 660.693 649.824 660.981 650.571 661.216L653.227 662.112C654.613 662.581 655.595 663.2 656.171 663.968C656.747 664.715 657.035 665.739 657.035 667.04C657.035 667.957 656.875 668.757 656.555 669.44C656.235 670.101 655.787 670.656 655.211 671.104C654.656 671.552 653.984 671.872 653.195 672.064C652.427 672.256 651.573 672.352 650.635 672.352C649.397 672.352 648.363 672.235 647.531 672C646.72 671.765 646.069 671.413 645.579 670.944C645.109 670.475 644.779 669.909 644.587 669.248C644.395 668.565 644.299 667.808 644.299 666.976V666.368H648.266ZM660.213 649.856H664.629V654.784H667.189V657.792H664.629V667.104C664.629 667.787 664.725 668.277 664.917 668.576C665.131 668.853 665.557 668.992 666.197 668.992C666.368 668.992 666.539 668.992 666.709 668.992C666.88 668.971 667.04 668.949 667.189 668.928V672C666.699 672 666.219 672.011 665.749 672.032C665.301 672.075 664.821 672.096 664.309 672.096C663.456 672.096 662.752 672.043 662.197 671.936C661.664 671.808 661.248 671.573 660.949 671.232C660.672 670.869 660.48 670.4 660.373 669.824C660.267 669.248 660.213 668.523 660.213 667.648V657.792H657.973V654.784H660.213V649.856ZM668.722 654.784H672.946V657.088H673.01C673.458 656.256 674.002 655.595 674.642 655.104C675.282 654.592 676.061 654.336 676.978 654.336C677.106 654.336 677.234 654.347 677.362 654.368C677.511 654.368 677.65 654.379 677.778 654.4V658.624C677.543 658.603 677.309 658.592 677.074 658.592C676.861 658.571 676.637 658.56 676.402 658.56C676.018 658.56 675.634 658.613 675.25 658.72C674.866 658.827 674.514 659.008 674.194 659.264C673.874 659.499 673.618 659.819 673.426 660.224C673.234 660.608 673.138 661.088 673.138 661.664V672H668.722V654.784ZM679.941 674.24C680.325 674.304 680.709 674.336 681.093 674.336C681.903 674.336 682.479 674.123 682.821 673.696C683.183 673.269 683.397 672.704 683.461 672L678.629 654.784H683.237L685.797 666.688H685.861L688.101 654.784H692.517L688.357 670.848C687.973 672.277 687.599 673.429 687.237 674.304C686.895 675.2 686.479 675.883 685.989 676.352C685.519 676.843 684.943 677.163 684.261 677.312C683.599 677.461 682.757 677.536 681.733 677.536H679.941V674.24Z" fill="black"/>
<path d="M820.616 649.152H833.384V652.928H825.224V658.304H832.904V662.08H825.224V672H820.616V649.152ZM834.675 654.784H838.899V657.088H838.963C839.411 656.256 839.955 655.595 840.595 655.104C841.235 654.592 842.014 654.336 842.931 654.336C843.059 654.336 843.187 654.347 843.315 654.368C843.464 654.368 843.603 654.379 843.731 654.4V658.624C843.496 658.603 843.262 658.592 843.027 658.592C842.814 658.571 842.59 658.56 842.355 658.56C841.971 658.56 841.587 658.613 841.203 658.72C840.819 658.827 840.467 659.008 840.147 659.264C839.827 659.499 839.571 659.819 839.379 660.224C839.187 660.608 839.091 661.088 839.091 661.664V672H834.675V654.784ZM845.491 648.896H849.907V652.672H845.491V648.896ZM845.491 654.784H849.907V672H845.491V654.784ZM861.307 661.44C861.286 660.779 861.243 660.203 861.179 659.712C861.115 659.2 860.998 658.773 860.827 658.432C860.678 658.069 860.454 657.803 860.155 657.632C859.878 657.44 859.515 657.344 859.067 657.344C858.619 657.344 858.246 657.451 857.947 657.664C857.67 657.856 857.446 658.123 857.275 658.464C857.104 658.784 856.976 659.147 856.891 659.552C856.827 659.957 856.795 660.363 856.795 660.768V661.44H861.307ZM856.795 664.064V665.44C856.795 665.952 856.827 666.453 856.891 666.944C856.976 667.413 857.104 667.84 857.275 668.224C857.446 668.587 857.67 668.885 857.947 669.12C858.224 669.333 858.566 669.44 858.971 669.44C859.718 669.44 860.262 669.173 860.603 668.64C860.944 668.107 861.179 667.296 861.307 666.208H865.275C865.19 668.213 864.656 669.739 863.675 670.784C862.694 671.829 861.147 672.352 859.035 672.352C857.435 672.352 856.187 672.085 855.291 671.552C854.395 671.019 853.734 670.315 853.307 669.44C852.88 668.565 852.614 667.584 852.507 666.496C852.422 665.408 852.379 664.32 852.379 663.232C852.379 662.08 852.454 660.971 852.603 659.904C852.774 658.837 853.094 657.888 853.563 657.056C854.054 656.224 854.747 655.563 855.643 655.072C856.539 654.581 857.734 654.336 859.227 654.336C860.507 654.336 861.552 654.549 862.363 654.976C863.195 655.381 863.846 655.968 864.315 656.736C864.784 657.483 865.104 658.4 865.275 659.488C865.446 660.555 865.531 661.749 865.531 663.072V664.064H856.795ZM867.831 654.784H872.055V656.8H872.119C872.589 655.947 873.197 655.328 873.943 654.944C874.69 654.539 875.543 654.336 876.503 654.336C877.911 654.336 878.989 654.72 879.735 655.488C880.503 656.256 880.887 657.504 880.887 659.232V672H876.471V660.128C876.471 659.232 876.322 658.613 876.023 658.272C875.725 657.909 875.245 657.728 874.583 657.728C873.026 657.728 872.247 658.677 872.247 660.576V672H867.831V654.784ZM892.663 670.176H892.599C892.109 670.987 891.554 671.552 890.935 671.872C890.338 672.192 889.591 672.352 888.695 672.352C886.882 672.352 885.549 671.659 884.695 670.272C883.842 668.885 883.415 666.592 883.415 663.392C883.415 660.192 883.842 657.888 884.695 656.48C885.549 655.051 886.882 654.336 888.695 654.336C889.527 654.336 890.231 654.507 890.807 654.848C891.405 655.189 891.938 655.701 892.407 656.384H892.471V649.152H896.887V672H892.663V670.176ZM887.831 663.392C887.831 665.269 887.97 666.688 888.247 667.648C888.546 668.587 889.175 669.056 890.135 669.056C891.117 669.056 891.746 668.587 892.023 667.648C892.322 666.688 892.471 665.269 892.471 663.392C892.471 661.515 892.322 660.107 892.023 659.168C891.746 658.208 891.117 657.728 890.135 657.728C889.175 657.728 888.546 658.208 888.247 659.168C887.97 660.107 887.831 661.515 887.831 663.392ZM899.991 649.152H904.407V672H899.991V649.152ZM907.679 648.896H912.095V652.672H907.679V648.896ZM907.679 654.784H912.095V672H907.679V654.784ZM915.206 654.784H919.43V656.8H919.494C919.964 655.947 920.572 655.328 921.318 654.944C922.065 654.539 922.918 654.336 923.878 654.336C925.286 654.336 926.364 654.72 927.11 655.488C927.878 656.256 928.262 657.504 928.262 659.232V672H923.846V660.128C923.846 659.232 923.697 658.613 923.398 658.272C923.1 657.909 922.62 657.728 921.958 657.728C920.401 657.728 919.622 658.677 919.622 660.576V672H915.206V654.784ZM939.494 661.44C939.473 660.779 939.43 660.203 939.366 659.712C939.302 659.2 939.185 658.773 939.014 658.432C938.865 658.069 938.641 657.803 938.342 657.632C938.065 657.44 937.702 657.344 937.254 657.344C936.806 657.344 936.433 657.451 936.134 657.664C935.857 657.856 935.633 658.123 935.462 658.464C935.292 658.784 935.164 659.147 935.078 659.552C935.014 659.957 934.982 660.363 934.982 660.768V661.44H939.494ZM934.982 664.064V665.44C934.982 665.952 935.014 666.453 935.078 666.944C935.164 667.413 935.292 667.84 935.462 668.224C935.633 668.587 935.857 668.885 936.134 669.12C936.412 669.333 936.753 669.44 937.158 669.44C937.905 669.44 938.449 669.173 938.79 668.64C939.132 668.107 939.366 667.296 939.494 666.208H943.462C943.377 668.213 942.844 669.739 941.862 670.784C940.881 671.829 939.334 672.352 937.222 672.352C935.622 672.352 934.374 672.085 933.478 671.552C932.582 671.019 931.921 670.315 931.494 669.44C931.068 668.565 930.801 667.584 930.694 666.496C930.609 665.408 930.566 664.32 930.566 663.232C930.566 662.08 930.641 660.971 930.79 659.904C930.961 658.837 931.281 657.888 931.75 657.056C932.241 656.224 932.934 655.563 933.83 655.072C934.726 654.581 935.921 654.336 937.414 654.336C938.694 654.336 939.74 654.549 940.55 654.976C941.382 655.381 942.033 655.968 942.502 656.736C942.972 657.483 943.292 658.4 943.462 659.488C943.633 660.555 943.718 661.749 943.718 663.072V664.064H934.982ZM949.251 666.368V666.944C949.251 667.691 949.443 668.299 949.827 668.768C950.232 669.216 950.808 669.44 951.555 669.44C952.238 669.44 952.782 669.269 953.187 668.928C953.592 668.587 953.795 668.075 953.795 667.392C953.795 666.837 953.635 666.421 953.315 666.144C952.995 665.845 952.622 665.611 952.195 665.44L949.091 664.32C947.875 663.893 946.958 663.296 946.339 662.528C945.72 661.739 945.411 660.736 945.411 659.52C945.411 658.816 945.528 658.155 945.763 657.536C945.998 656.896 946.371 656.341 946.883 655.872C947.395 655.403 948.046 655.029 948.835 654.752C949.646 654.475 950.616 654.336 951.747 654.336C953.752 654.336 955.235 654.763 956.195 655.616C957.155 656.469 957.635 657.675 957.635 659.232V659.936H953.667C953.667 659.04 953.518 658.389 953.219 657.984C952.942 657.557 952.44 657.344 951.715 657.344C951.16 657.344 950.67 657.504 950.243 657.824C949.838 658.123 949.635 658.581 949.635 659.2C949.635 659.627 949.763 660.011 950.019 660.352C950.296 660.693 950.808 660.981 951.555 661.216L954.211 662.112C955.598 662.581 956.579 663.2 957.155 663.968C957.731 664.715 958.019 665.739 958.019 667.04C958.019 667.957 957.859 668.757 957.539 669.44C957.219 670.101 956.771 670.656 956.195 671.104C955.64 671.552 954.968 671.872 954.179 672.064C953.411 672.256 952.558 672.352 951.619 672.352C950.382 672.352 949.347 672.235 948.515 672C947.704 671.765 947.054 671.413 946.563 670.944C946.094 670.475 945.763 669.909 945.571 669.248C945.379 668.565 945.283 667.808 945.283 666.976V666.368H949.251ZM963.47 666.368V666.944C963.47 667.691 963.662 668.299 964.046 668.768C964.451 669.216 965.027 669.44 965.774 669.44C966.456 669.44 967 669.269 967.406 668.928C967.811 668.587 968.014 668.075 968.014 667.392C968.014 666.837 967.854 666.421 967.534 666.144C967.214 665.845 966.84 665.611 966.414 665.44L963.31 664.32C962.094 663.893 961.176 663.296 960.558 662.528C959.939 661.739 959.63 660.736 959.63 659.52C959.63 658.816 959.747 658.155 959.982 657.536C960.216 656.896 960.59 656.341 961.102 655.872C961.614 655.403 962.264 655.029 963.054 654.752C963.864 654.475 964.835 654.336 965.966 654.336C967.971 654.336 969.454 654.763 970.414 655.616C971.374 656.469 971.854 657.675 971.854 659.232V659.936H967.886C967.886 659.04 967.736 658.389 967.438 657.984C967.16 657.557 966.659 657.344 965.934 657.344C965.379 657.344 964.888 657.504 964.462 657.824C964.056 658.123 963.854 658.581 963.854 659.2C963.854 659.627 963.982 660.011 964.238 660.352C964.515 660.693 965.027 660.981 965.774 661.216L968.43 662.112C969.816 662.581 970.798 663.2 971.374 663.968C971.95 664.715 972.238 665.739 972.238 667.04C972.238 667.957 972.078 668.757 971.758 669.44C971.438 670.101 970.99 670.656 970.414 671.104C969.859 671.552 969.187 671.872 968.398 672.064C967.63 672.256 966.776 672.352 965.838 672.352C964.6 672.352 963.566 672.235 962.734 672C961.923 671.765 961.272 671.413 960.782 670.944C960.312 670.475 959.982 669.909 959.79 669.248C959.598 668.565 959.502 667.808 959.502 666.976V666.368H963.47Z" fill="black"/>
</g>
<defs>
<clipPath id="clip0_8_48">
<rect width="1024" height="768" fill="white"/>
</clipPath>
</defs>
</svg>
