<svg width="1024" height="768" viewBox="0 0 1024 768" fill="none" xmlns="http://www.w3.org/2000/svg">
<rect width="1024" height="768" fill="black"/>
<g clip-path="url(#clip0_12_989)">
<path d="M896 0H128V768H896V0Z" fill="url(#paint0_linear_12_989)"/>
<path d="M158.72 231.244V331.415" stroke="url(#paint1_linear_12_989)" stroke-width="0.999999"/>
<path d="M219.42 235.68V385.872Z" fill="url(#paint2_linear_12_989)"/>
<path d="M219.42 235.68V385.872" stroke="url(#paint3_linear_12_989)" stroke-width="0.999999"/>
<path d="M343.04 122.88C343.04 122.88 97.28 15.3599 97.28 168.96C97.28 322.56 250.88 414.72 250.88 414.72" stroke="url(#paint4_linear_12_989)" stroke-width="9.99999" stroke-linecap="round"/>
<path d="M450.56 307.2L450.56 0" stroke="black" stroke-width="0.999999"/>
<path d="M558.08 46.0801C558.08 46.0801 558.08 122.88 604.16 184.32C650.24 245.76 742.4 261.12 742.4 261.12C742.4 261.12 819.2 291.84 865.28 337.92C904.441 377.08 942.08 460.8 942.08 460.8" stroke="url(#paint5_linear_12_989)" stroke-width="9.99999" stroke-linecap="round" stroke-linejoin="round"/>
<path d="M529.744 379.301V768" stroke="black" stroke-width="1.00157"/>
<path d="M204.8 768C204.8 768 204.8 460.8 512 384C819.2 307.2 819.2 76.8 819.2 76.8" stroke="url(#paint6_linear_12_989)" stroke-width="9.99999" stroke-linecap="round" stroke-linejoin="round"/>
<path d="M757.177 599.618V506.937Z" fill="url(#paint7_linear_12_989)"/>
<path d="M757.177 599.618V506.937" stroke="url(#paint8_linear_12_989)" stroke-width="0.999999"/>
<path d="M819.2 614.4V486.652" stroke="url(#paint9_linear_12_989)" stroke-width="0.999999"/>
<path d="M128 230.4C128 230.4 296.96 230.4 389.12 276.48C542.72 353.28 544.169 416.168 665.6 537.6C742.4 614.4 819.2 614.4 819.2 614.4" stroke="url(#paint10_linear_12_989)" stroke-width="9.99999" stroke-linecap="round" stroke-linejoin="round"/>
<path d="M896 476.16C896 476.16 773.12 476.16 680.96 552.96C588.8 629.76 573.44 721.92 573.44 721.92" stroke="url(#paint11_linear_12_989)" stroke-width="9.99999" stroke-linecap="round" stroke-linejoin="round"/>
<path d="M250.88 422.4C255.122 422.4 258.56 418.961 258.56 414.72C258.56 410.478 255.122 407.04 250.88 407.04C246.639 407.04 243.2 410.478 243.2 414.72C243.2 418.961 246.639 422.4 250.88 422.4Z" fill="url(#paint12_linear_12_989)"/>
<path d="M295.436 358.22V308.871H301.433C304.12 308.871 306.25 309.396 307.823 310.444C309.461 311.427 310.673 312.935 311.46 314.966C312.312 316.932 312.869 319.423 313.131 322.437C313.393 325.452 313.524 328.958 313.524 332.956C313.524 337.74 313.36 341.738 313.033 344.949C312.771 348.16 312.181 350.749 311.263 352.715C310.411 354.681 309.232 356.09 307.724 356.942C306.217 357.794 304.218 358.22 301.728 358.22H295.436ZM281.281 298.451V368.64H303.596C308.314 368.64 312.214 367.919 315.294 366.477C318.374 365.036 320.832 362.84 322.667 359.891C324.502 356.942 325.779 353.206 326.5 348.684C327.287 344.097 327.68 338.723 327.68 332.563C327.68 327.385 327.385 322.7 326.795 318.505C326.205 314.311 325.059 310.739 323.355 307.79C321.716 304.775 319.39 302.482 316.375 300.909C313.36 299.27 309.396 298.451 304.48 298.451H281.281Z" fill="url(#paint13_linear_12_989)"/>
<path d="M297.919 405.971H281.6V476.16H294.576V427.008H294.773L312.074 476.16H328.196V405.971H315.22V454.042H315.023L297.919 405.971Z" fill="url(#paint14_linear_12_989)"/>
<path d="M311.018 557.236L304.235 525.681H304.038L297.255 557.236H311.018ZM312.885 513.491L331.465 583.68H316.719L313.475 568.836H294.797L291.553 583.68H276.808L295.387 513.491H312.885Z" fill="url(#paint15_linear_12_989)"/>
<path d="M300.228 349.471V300.122H306.225C308.912 300.122 311.042 300.647 312.615 301.695C314.253 302.678 315.466 304.186 316.252 306.217C317.104 308.183 317.661 310.674 317.923 313.688C318.185 316.703 318.316 320.209 318.316 324.207C318.316 328.991 318.153 332.989 317.825 336.2C317.563 339.411 316.973 342 316.055 343.966C315.203 345.932 314.024 347.341 312.516 348.193C311.009 349.045 309.01 349.471 306.52 349.471H300.228ZM286.073 289.702V359.891H308.388C313.106 359.891 317.006 359.17 320.086 357.728C323.166 356.287 325.624 354.091 327.459 351.142C329.294 348.193 330.572 344.457 331.293 339.935C332.079 335.348 332.472 329.974 332.472 323.814C332.472 318.636 332.177 313.95 331.587 309.756C330.998 305.562 329.851 301.99 328.147 299.041C326.508 296.026 324.182 293.733 321.167 292.16C318.153 290.521 314.188 289.702 309.272 289.702H286.073Z" fill="url(#paint16_linear_12_989)"/>
<path d="M301.703 397.222H285.385V467.411H298.361V418.259H298.557L315.859 467.411H331.981V397.222H319.005V445.293H318.808L301.703 397.222Z" fill="url(#paint17_linear_12_989)"/>
<path d="M315.81 548.488L309.027 516.932H308.83L302.047 548.488H315.81ZM317.677 504.742L336.257 574.931H321.511L318.267 560.087H299.59L296.346 574.931H281.6L300.179 504.742H317.677Z" fill="url(#paint18_linear_12_989)"/>
<path d="M483.082 681.615H477.184V682.803C477.184 685.506 477.894 687.582 479.314 689.029C480.761 690.476 483.151 691.2 486.482 691.2C489.677 691.2 492.162 690.504 493.937 689.111C495.739 687.691 496.64 685.438 496.64 682.353C496.64 681.451 496.558 680.632 496.394 679.895C496.231 679.158 495.93 678.489 495.493 677.888C495.084 677.26 494.524 676.686 493.814 676.168C493.104 675.621 492.189 675.103 491.07 674.611L486.523 672.645C485.267 672.126 484.448 671.566 484.065 670.966C483.683 670.338 483.492 669.573 483.492 668.672C483.492 668.235 483.533 667.812 483.615 667.402C483.724 666.993 483.902 666.638 484.147 666.337C484.42 666.009 484.775 665.75 485.212 665.559C485.649 665.368 486.195 665.272 486.851 665.272C487.998 665.272 488.817 665.654 489.308 666.419C489.8 667.156 490.046 668.221 490.046 669.614H495.698V668.795C495.698 667.402 495.466 666.214 495.002 665.231C494.565 664.221 493.937 663.402 493.118 662.774C492.326 662.118 491.37 661.654 490.25 661.381C489.158 661.081 487.957 660.93 486.646 660.93C483.833 660.93 481.621 661.64 480.01 663.06C478.399 664.48 477.594 666.638 477.594 669.532C477.594 670.734 477.744 671.798 478.044 672.727C478.345 673.628 478.809 674.434 479.437 675.144C480.092 675.826 480.898 676.427 481.854 676.946C482.809 677.465 483.942 677.943 485.253 678.379C486.236 678.707 487.055 679.035 487.711 679.362C488.393 679.663 488.94 680.004 489.349 680.386C489.759 680.769 490.046 681.206 490.209 681.697C490.401 682.161 490.496 682.721 490.496 683.377C490.496 684.605 490.127 685.52 489.39 686.121C488.68 686.694 487.875 686.981 486.974 686.981C486.209 686.981 485.567 686.872 485.048 686.654C484.557 686.435 484.161 686.135 483.861 685.753C483.56 685.37 483.355 684.906 483.246 684.36C483.137 683.786 483.082 683.158 483.082 682.476L483.082 681.615Z" fill="url(#paint19_linear_12_989)"/>
<path d="M495.452 615.424H476.774V620.257H483.164V644.669H489.062V620.257H495.452V615.424Z" fill="url(#paint20_linear_12_989)"/>
<path d="M483.758 599.04H489.656V569.794H483.758V599.04Z" fill="url(#paint21_linear_12_989)"/>
<path d="M410.952 95.0273L408.125 81.8791H408.044L405.217 95.0273H410.952ZM411.73 76.8L419.471 106.046H413.327L411.976 99.8605H404.193L402.842 106.046H396.698L404.439 76.8H411.73Z" fill="url(#paint22_linear_12_989)"/>
<path d="M406.405 193.864V173.302H408.904C410.023 173.302 410.911 173.52 411.566 173.957C412.249 174.367 412.754 174.995 413.082 175.841C413.437 176.66 413.669 177.698 413.778 178.954C413.887 180.21 413.942 181.671 413.942 183.337C413.942 185.33 413.873 186.996 413.737 188.334C413.628 189.672 413.382 190.751 413 191.57C412.645 192.389 412.153 192.976 411.525 193.331C410.897 193.686 410.064 193.864 409.026 193.864H406.405ZM400.507 168.96V198.205H409.805C411.771 198.205 413.396 197.905 414.679 197.304C415.962 196.704 416.986 195.789 417.751 194.56C418.516 193.331 419.048 191.775 419.348 189.891C419.676 187.979 419.84 185.74 419.84 183.173C419.84 181.016 419.717 179.063 419.471 177.316C419.226 175.568 418.748 174.08 418.038 172.851C417.355 171.595 416.386 170.639 415.13 169.984C413.873 169.301 412.221 168.96 410.173 168.96H400.507Z" fill="url(#paint23_linear_12_989)"/>
<path d="M405.361 122.88H398.561V152.126H403.968V131.646H404.05L411.259 152.126H417.976V122.88H412.57V142.91H412.488L405.361 122.88Z" fill="url(#paint24_linear_12_989)"/>
<path d="M558.08 53.7599C562.322 53.7599 565.76 50.3214 565.76 46.0799C565.76 41.8384 562.322 38.3999 558.08 38.3999C553.839 38.3999 550.4 41.8384 550.4 46.0799C550.4 50.3214 553.839 53.7599 558.08 53.7599Z" fill="url(#paint25_linear_12_989)"/>
<path d="M819.2 622.08C823.442 622.08 826.88 618.642 826.88 614.4C826.88 610.158 823.442 606.72 819.2 606.72C814.959 606.72 811.52 610.158 811.52 614.4C811.52 618.642 814.959 622.08 819.2 622.08Z" fill="url(#paint26_linear_12_989)"/>
<path d="M573.44 729.6C577.682 729.6 581.12 726.161 581.12 721.92C581.12 717.678 577.682 714.24 573.44 714.24C569.198 714.24 565.76 717.678 565.76 721.92C565.76 726.161 569.198 729.6 573.44 729.6Z" fill="url(#paint27_linear_12_989)"/>
<path d="M819.2 84.4801C823.442 84.4801 826.88 81.0417 826.88 76.8001C826.88 72.5586 823.442 69.1201 819.2 69.1201C814.959 69.1201 811.52 72.5586 811.52 76.8001C811.52 81.0417 814.959 84.4801 819.2 84.4801Z" fill="url(#paint28_linear_12_989)"/>
<path d="M208.167 34.4272C207.876 34.0056 207.483 33.7003 206.989 33.5113C206.509 33.3078 206.001 33.206 205.463 33.206C205.143 33.206 204.83 33.2424 204.525 33.3151C204.234 33.3877 203.965 33.5041 203.718 33.664C203.485 33.8239 203.296 34.0347 203.151 34.2964C203.006 34.5435 202.933 34.8416 202.933 35.1905C202.933 35.7139 203.115 36.1137 203.478 36.3899C203.842 36.6661 204.292 36.906 204.83 37.1096C205.368 37.3131 205.957 37.5094 206.597 37.6984C207.236 37.8873 207.825 38.149 208.363 38.4834C208.901 38.8178 209.352 39.2612 209.715 39.8137C210.079 40.3661 210.26 41.1003 210.26 42.0162C210.26 42.8449 210.108 43.5718 209.802 44.197C209.497 44.8076 209.083 45.3164 208.559 45.7235C208.05 46.1306 207.454 46.4359 206.771 46.6394C206.088 46.8429 205.368 46.9447 204.612 46.9447C203.653 46.9447 202.729 46.7848 201.843 46.4649C200.956 46.1451 200.193 45.6072 199.553 44.8512L201.625 42.8449C201.959 43.3537 202.395 43.7535 202.933 44.0443C203.485 44.3205 204.067 44.4587 204.678 44.4587C204.997 44.4587 205.317 44.415 205.637 44.3278C205.957 44.2406 206.248 44.1097 206.509 43.9353C206.771 43.7608 206.982 43.5427 207.142 43.2811C207.302 43.0048 207.382 42.6923 207.382 42.3433C207.382 41.7763 207.2 41.3402 206.837 41.0349C206.473 40.7296 206.022 40.4752 205.484 40.2716C204.947 40.0536 204.358 39.85 203.718 39.661C203.078 39.472 202.49 39.2176 201.952 38.8978C201.414 38.5634 200.963 38.1272 200.6 37.5893C200.236 37.0369 200.054 36.3027 200.054 35.3868C200.054 34.5872 200.214 33.8966 200.534 33.3151C200.869 32.7335 201.297 32.2538 201.821 31.8758C202.359 31.4832 202.969 31.1925 203.653 31.0035C204.336 30.8145 205.034 30.72 205.746 30.72C206.56 30.72 207.345 30.8435 208.101 31.0907C208.872 31.3378 209.562 31.7449 210.173 32.3119L208.167 34.4272Z" fill="url(#paint29_linear_12_989)"/>
<path d="M211.329 31.1125H214.491L218.7 42.7795L223.039 31.1125H226.005L219.768 46.5522H217.391L211.329 31.1125Z" fill="url(#paint30_linear_12_989)"/>
<path d="M200.534 56.1912H203.282V71.6308H200.534V56.1912Z" fill="url(#paint31_linear_12_989)"/>
<path d="M206.422 61.1631H208.908V62.8422H208.952C209.199 62.3189 209.577 61.8682 210.086 61.4902C210.595 61.0976 211.285 60.9014 212.158 60.9014C212.855 60.9014 213.444 61.0177 213.924 61.2503C214.418 61.4829 214.818 61.7882 215.123 62.1662C215.429 62.5442 215.647 62.9803 215.778 63.4746C215.908 63.9689 215.974 64.4851 215.974 65.023V71.6306H213.357V66.3314C213.357 66.0407 213.342 65.7208 213.313 65.3719C213.284 65.0084 213.204 64.6741 213.074 64.3687C212.957 64.0489 212.768 63.7872 212.507 63.5837C212.245 63.3656 211.889 63.2566 211.438 63.2566C211.002 63.2566 210.631 63.3293 210.326 63.4746C210.035 63.62 209.788 63.8163 209.584 64.0634C209.395 64.3106 209.257 64.5941 209.17 64.9139C209.083 65.2338 209.039 65.5682 209.039 65.9171V71.6306H206.422V61.1631Z" fill="url(#paint32_linear_12_989)"/>
<path d="M227.226 70.0606H227.183C226.805 70.7003 226.296 71.1655 225.656 71.4562C225.017 71.747 224.326 71.8924 223.585 71.8924C222.77 71.8924 222.044 71.7543 221.404 71.4781C220.779 71.1873 220.241 70.7948 219.79 70.3005C219.339 69.8062 218.998 69.2246 218.765 68.5559C218.533 67.8871 218.416 67.1675 218.416 66.3969C218.416 65.6264 218.54 64.9067 218.787 64.238C219.034 63.5692 219.376 62.9877 219.812 62.4934C220.263 61.9991 220.801 61.6138 221.426 61.3376C222.051 61.0468 222.734 60.9014 223.476 60.9014C223.97 60.9014 224.406 60.9523 224.784 61.0541C225.162 61.1559 225.496 61.2867 225.787 61.4466C226.078 61.6066 226.325 61.781 226.529 61.97C226.732 62.1445 226.899 62.3189 227.03 62.4934H227.096V55.1443H229.713V71.6307H227.226V70.0606ZM221.033 66.3969C221.033 66.804 221.099 67.1965 221.229 67.5745C221.375 67.9525 221.578 68.2869 221.84 68.5777C222.116 68.8684 222.443 69.101 222.821 69.2755C223.199 69.45 223.628 69.5372 224.108 69.5372C224.588 69.5372 225.017 69.45 225.395 69.2755C225.773 69.101 226.092 68.8684 226.354 68.5777C226.63 68.2869 226.834 67.9525 226.965 67.5745C227.11 67.1965 227.183 66.804 227.183 66.3969C227.183 65.9899 227.11 65.5973 226.965 65.2193C226.834 64.8413 226.63 64.5069 226.354 64.2162C226.092 63.9254 225.773 63.6928 225.395 63.5183C225.017 63.3439 224.588 63.2567 224.108 63.2567C223.628 63.2567 223.199 63.3439 222.821 63.5183C222.443 63.6928 222.116 63.9254 221.84 64.2162C221.578 64.5069 221.375 64.8413 221.229 65.2193C221.099 65.5973 221.033 65.9899 221.033 66.3969Z" fill="url(#paint33_linear_12_989)"/>
<path d="M242.23 71.6307H239.744V69.9515H239.7C239.453 70.4749 239.075 70.9328 238.566 71.3253C238.058 71.7033 237.367 71.8923 236.495 71.8923C235.797 71.8923 235.201 71.7833 234.706 71.5652C234.227 71.3326 233.834 71.0273 233.529 70.6493C233.224 70.2568 233.005 69.8134 232.875 69.3191C232.744 68.8248 232.678 68.3087 232.678 67.7707V61.1631H235.295V66.4623C235.295 66.7531 235.31 67.0802 235.339 67.4436C235.368 67.7925 235.441 68.1269 235.557 68.4468C235.688 68.7521 235.877 69.0138 236.124 69.2318C236.386 69.4354 236.749 69.5371 237.214 69.5371C237.65 69.5371 238.014 69.4644 238.305 69.3191C238.61 69.1737 238.857 68.9774 239.046 68.7303C239.25 68.4831 239.395 68.1996 239.482 67.8798C239.569 67.5599 239.613 67.2256 239.613 66.8766V61.1631H242.23V71.6307Z" fill="url(#paint34_linear_12_989)"/>
<path d="M250.778 64.0634C250.27 63.3511 249.586 62.9949 248.729 62.9949C248.38 62.9949 248.038 63.0821 247.704 63.2566C247.369 63.431 247.202 63.7145 247.202 64.1071C247.202 64.4269 247.34 64.6595 247.616 64.8049C247.893 64.9503 248.242 65.0739 248.663 65.1756C249.085 65.2774 249.535 65.3864 250.015 65.5027C250.51 65.6045 250.967 65.7717 251.389 66.0043C251.811 66.2224 252.16 66.5277 252.436 66.9202C252.712 67.3128 252.85 67.8507 252.85 68.534C252.85 69.1591 252.712 69.6898 252.436 70.1259C252.174 70.5475 251.825 70.8892 251.389 71.1509C250.967 71.4125 250.488 71.6015 249.95 71.7179C249.412 71.8342 248.874 71.8923 248.336 71.8923C247.522 71.8923 246.773 71.776 246.09 71.5434C245.407 71.3108 244.796 70.8892 244.258 70.2786L246.003 68.643C246.337 69.021 246.693 69.3336 247.071 69.5807C247.464 69.8133 247.936 69.9296 248.489 69.9296C248.678 69.9296 248.874 69.9078 249.078 69.8642C249.281 69.8206 249.47 69.7479 249.644 69.6461C249.819 69.5444 249.957 69.4208 250.059 69.2754C250.175 69.1155 250.233 68.9338 250.233 68.7302C250.233 68.3668 250.095 68.0978 249.819 67.9234C249.543 67.7489 249.194 67.6108 248.772 67.509C248.351 67.3927 247.893 67.2909 247.398 67.2037C246.919 67.1019 246.468 66.9493 246.046 66.7458C245.625 66.5277 245.276 66.2297 245 65.8517C244.723 65.4737 244.585 64.9503 244.585 64.2815C244.585 63.7 244.701 63.1984 244.934 62.7768C245.181 62.3407 245.501 61.9845 245.894 61.7082C246.286 61.432 246.737 61.2285 247.246 61.0976C247.755 60.9668 248.271 60.9014 248.794 60.9014C249.492 60.9014 250.182 61.0249 250.866 61.2721C251.549 61.5047 252.101 61.9118 252.523 62.4933L250.778 64.0634Z" fill="url(#paint35_linear_12_989)"/>
<path d="M253.657 63.3874V61.1631H255.816V58.1318H258.433V61.1631H261.311V63.3874H258.433V67.967C258.433 68.4904 258.527 68.9047 258.716 69.21C258.92 69.5153 259.312 69.668 259.894 69.668C260.127 69.668 260.381 69.6462 260.657 69.6025C260.933 69.5444 261.151 69.4572 261.311 69.3409V71.5434C261.035 71.6743 260.694 71.7615 260.286 71.8051C259.894 71.8632 259.545 71.8923 259.24 71.8923C258.542 71.8923 257.968 71.8124 257.517 71.6524C257.081 71.5071 256.732 71.2817 256.47 70.9764C256.223 70.6566 256.049 70.264 255.947 69.7988C255.86 69.3336 255.816 68.7957 255.816 68.1851V63.3874H253.657Z" fill="url(#paint36_linear_12_989)"/>
<path d="M263.361 61.1631H265.978V62.8204H266.022C266.313 62.2098 266.727 61.7373 267.265 61.4029C267.803 61.0686 268.421 60.9014 269.118 60.9014C269.278 60.9014 269.431 60.9159 269.576 60.945C269.736 60.9741 269.896 61.0104 270.056 61.054V63.5837C269.838 63.5255 269.62 63.4819 269.402 63.4528C269.198 63.4092 268.995 63.3874 268.791 63.3874C268.181 63.3874 267.686 63.5037 267.308 63.7363C266.945 63.9544 266.662 64.2088 266.458 64.4996C266.269 64.7904 266.138 65.0811 266.065 65.3719C266.007 65.6627 265.978 65.8807 265.978 66.0261V71.6306H263.361V61.1631Z" fill="url(#paint37_linear_12_989)"/>
<path d="M270.427 61.1631H273.306L276.228 68.425H276.271L278.888 61.1631H281.614L276.664 73.8768C276.475 74.3711 276.264 74.8 276.032 75.1635C275.813 75.5415 275.552 75.854 275.246 76.1012C274.941 76.3629 274.578 76.5519 274.156 76.6682C273.749 76.799 273.255 76.8644 272.673 76.8644C271.99 76.8644 271.321 76.7772 270.667 76.6027L270.994 74.2475C271.198 74.3202 271.408 74.3784 271.626 74.422C271.859 74.4802 272.092 74.5092 272.324 74.5092C272.644 74.5092 272.913 74.4802 273.131 74.422C273.349 74.3639 273.531 74.2694 273.676 74.1385C273.836 74.0222 273.967 73.8623 274.069 73.6587C274.171 73.4697 274.28 73.2371 274.396 72.9609L274.898 71.7179L270.427 61.1631Z" fill="url(#paint38_linear_12_989)"/>
<path d="M193.147 30.72C193.147 30.72 172.491 37.6054 165.605 44.4909C158.72 51.3763 158.72 72.0327 158.72 72.0327H193.147V30.72ZM186.25 37.2611C186.254 37.2611 186.258 37.2611 186.262 37.2611C186.718 37.2611 187.156 37.4425 187.479 37.7653C187.802 38.0881 187.983 38.526 187.983 38.9825C187.983 39.439 187.802 39.8769 187.479 40.1997C187.156 40.5225 186.718 40.7039 186.262 40.7039C186.036 40.7039 185.812 40.6593 185.603 40.5728C185.394 40.4863 185.204 40.3595 185.045 40.1997C184.885 40.0399 184.758 39.8501 184.671 39.6412C184.585 39.4324 184.54 39.2086 184.54 38.9825C184.54 38.528 184.72 38.0919 185.04 37.7694C185.361 37.4469 185.796 37.2642 186.25 37.2611ZM185.516 44.3111C185.551 44.3039 185.57 44.3612 185.573 44.4909C185.581 44.8541 185.39 46.1955 184.684 48.1621C183.683 50.9508 181.577 55.1054 177.49 58.8976C175.723 60.538 173.571 62.0959 171.098 63.355C171.047 62.679 170.872 62.0182 170.581 61.4058C172.797 60.3147 174.733 58.984 176.345 57.6121C181.905 52.8738 184.143 47.3041 184.913 45.505C185.227 44.77 185.426 44.3295 185.516 44.3111ZM165.602 60.3274C165.603 60.3274 165.604 60.3274 165.605 60.3274C166.058 60.3274 166.505 60.4165 166.923 60.5895C167.341 60.7625 167.72 61.0161 168.04 61.3358C168.359 61.6554 168.613 62.035 168.786 62.4527C168.959 62.8703 169.048 63.318 169.048 63.7701C169.048 64.2222 168.959 64.6699 168.786 65.0876C168.613 65.5053 168.359 65.8848 168.04 66.2045C167.72 66.5242 167.341 66.7778 166.923 66.9508C166.505 67.1238 166.058 67.2129 165.605 67.2129C165.153 67.2129 164.706 67.1238 164.288 66.9508C163.87 66.7778 163.491 66.5242 163.171 66.2045C162.851 65.8848 162.598 65.5053 162.425 65.0876C162.252 64.6699 162.163 64.2222 162.163 63.7701C162.163 62.8577 162.525 61.9826 163.17 61.337C163.815 60.6915 164.689 60.3284 165.602 60.3274Z" fill="url(#paint39_linear_12_989)"/>
<path d="M638.65 132.358V119.914H642.091C644.155 119.914 645.627 120.45 646.506 121.52C647.386 122.59 647.825 124.158 647.825 126.222C647.825 128.325 647.309 129.873 646.277 130.867C645.283 131.861 643.964 132.358 642.32 132.358H638.65ZM630.393 113.836V154.78H638.65V138.437H643.066C645.015 138.437 646.793 138.188 648.399 137.691C650.004 137.194 651.361 136.449 652.47 135.455C653.617 134.461 654.496 133.18 655.108 131.613C655.758 130.045 656.083 128.21 656.083 126.108C656.083 124.578 655.892 123.087 655.509 121.635C655.127 120.144 654.496 118.825 653.617 117.678C652.738 116.531 651.572 115.614 650.119 114.925C648.704 114.199 646.946 113.836 644.843 113.836H630.393Z" fill="url(#paint40_linear_12_989)"/>
<path d="M631.376 175.276V216.22H639.633V198.902H644.049C645.769 198.902 646.992 199.36 647.719 200.278C648.445 201.195 648.847 202.457 648.923 204.063L649.152 211.919C649.191 212.722 649.267 213.505 649.382 214.27C649.496 214.996 649.764 215.646 650.185 216.22H659.13V215.875C658.366 215.455 657.869 214.671 657.639 213.524C657.486 212.377 657.372 210.714 657.295 208.535C657.257 207.427 657.219 206.433 657.18 205.554C657.142 204.636 657.085 203.795 657.008 203.03C656.779 200.737 656.187 199.074 655.231 198.041C654.275 197.009 652.765 196.34 650.701 196.034V195.92C653.033 195.423 654.753 194.314 655.862 192.594C656.97 190.835 657.525 188.58 657.525 185.827C657.525 182.272 656.569 179.634 654.657 177.914C652.746 176.155 650.07 175.276 646.629 175.276L631.376 175.276ZM639.633 193.167V181.354H643.533C647.356 181.354 649.267 183.247 649.267 187.031C649.267 189.249 648.732 190.835 647.661 191.791C646.591 192.708 645.062 193.167 643.074 193.167H639.633Z" fill="url(#paint41_linear_12_989)"/>
<path d="M639.346 257.819C639.346 255.066 639.404 252.734 639.518 250.823C639.671 248.911 639.939 247.344 640.321 246.12C640.742 244.897 641.315 244.018 642.042 243.483C642.806 242.909 643.8 242.622 645.023 242.622C646.247 242.622 647.222 242.909 647.948 243.483C648.713 244.018 649.286 244.897 649.668 246.12C650.089 247.344 650.356 248.911 650.471 250.823C650.624 252.734 650.7 255.066 650.7 257.819C650.7 260.571 650.624 262.922 650.471 264.872C650.356 266.783 650.089 268.351 649.668 269.574C649.286 270.759 648.713 271.638 647.948 272.212C647.222 272.747 646.247 273.015 645.023 273.015C643.8 273.015 642.806 272.747 642.042 272.212C641.315 271.638 640.742 270.759 640.321 269.574C639.939 268.351 639.671 266.783 639.518 264.872C639.404 262.922 639.346 260.571 639.346 257.819ZM631.089 257.819C631.089 260.953 631.223 263.821 631.49 266.42C631.796 269.02 632.427 271.256 633.383 273.129C634.377 275.003 635.791 276.436 637.626 277.43C639.461 278.424 641.927 278.921 645.023 278.921C648.12 278.921 650.586 278.424 652.421 277.43C654.256 276.436 655.651 275.003 656.607 273.129C657.601 271.256 658.232 269.02 658.499 266.42C658.805 263.821 658.958 260.953 658.958 257.819C658.958 254.722 658.805 251.874 658.499 249.274C658.232 246.636 657.601 244.381 656.607 242.508C655.651 240.634 654.256 239.182 652.421 238.15C650.586 237.079 648.12 236.544 645.023 236.544C641.927 236.544 639.461 237.079 637.626 238.15C635.791 239.182 634.377 240.634 633.383 242.508C632.427 244.381 631.796 246.636 631.49 249.274C631.223 251.874 631.089 254.722 631.089 257.819Z" fill="url(#paint42_linear_12_989)"/>
<path d="M638.56 327.573H630.302V329.236C630.302 333.021 631.296 335.927 633.284 337.953C635.311 339.979 638.656 340.992 643.32 340.992C647.792 340.992 651.271 340.017 653.756 338.067C656.279 336.079 657.541 332.926 657.541 328.606C657.541 327.344 657.426 326.197 657.197 325.165C656.967 324.133 656.547 323.196 655.935 322.355C655.362 321.476 654.578 320.673 653.584 319.947C652.59 319.182 651.31 318.456 649.742 317.768L643.377 315.015C641.618 314.289 640.472 313.505 639.936 312.664C639.401 311.785 639.133 310.714 639.133 309.453C639.133 308.841 639.191 308.249 639.306 307.675C639.458 307.102 639.707 306.605 640.051 306.184C640.433 305.725 640.93 305.362 641.542 305.095C642.154 304.827 642.918 304.693 643.836 304.693C645.441 304.693 646.588 305.228 647.276 306.299C647.964 307.331 648.309 308.822 648.309 310.772H656.222V309.625C656.222 307.675 655.897 306.012 655.247 304.636C654.635 303.221 653.756 302.075 652.609 301.195C651.501 300.278 650.163 299.628 648.595 299.246C647.066 298.825 645.384 298.615 643.549 298.615C639.611 298.615 636.515 299.609 634.259 301.597C632.004 303.585 630.876 306.605 630.876 310.657C630.876 312.339 631.086 313.83 631.507 315.13C631.927 316.391 632.577 317.519 633.456 318.513C634.374 319.469 635.502 320.31 636.84 321.036C638.178 321.763 639.764 322.432 641.599 323.043C642.976 323.502 644.122 323.961 645.04 324.42C645.996 324.84 646.76 325.318 647.334 325.853C647.907 326.388 648.309 327 648.538 327.688C648.805 328.338 648.939 329.122 648.939 330.039C648.939 331.76 648.423 333.04 647.391 333.881C646.397 334.684 645.269 335.086 644.008 335.086C642.937 335.086 642.039 334.933 641.313 334.627C640.624 334.321 640.07 333.9 639.65 333.365C639.229 332.83 638.942 332.18 638.789 331.416C638.636 330.613 638.56 329.733 638.56 328.778L638.56 327.573Z" fill="url(#paint43_linear_12_989)"/>
<path d="M640.78 378.749V366.305H644.221C646.285 366.305 647.757 366.84 648.636 367.911C649.516 368.981 649.955 370.548 649.955 372.613C649.955 374.715 649.439 376.264 648.407 377.258C647.413 378.252 646.094 378.749 644.45 378.749H640.78ZM632.523 360.227V401.17H640.78V384.827H645.196C647.145 384.827 648.923 384.579 650.529 384.082C652.134 383.585 653.492 382.839 654.6 381.845C655.747 380.851 656.626 379.571 657.238 378.003C657.888 376.436 658.213 374.601 658.213 372.498C658.213 370.969 658.022 369.478 657.639 368.025C657.257 366.534 656.626 365.215 655.747 364.069C654.868 362.922 653.702 362.004 652.249 361.316C650.835 360.59 649.076 360.227 646.973 360.227H632.523Z" fill="url(#paint44_linear_12_989)"/>
<path d="M655.403 421.667H632.523V462.61H655.976V455.844H640.78V444.833H654.543V438.067H640.78V428.433H655.403V421.667Z" fill="url(#paint45_linear_12_989)"/>
<path d="M648.989 497.557H657.246C657.246 496.066 657.131 494.48 656.902 492.798C656.711 491.077 656.195 489.491 655.354 488.038C654.513 486.547 653.232 485.324 651.512 484.368C649.83 483.412 647.517 482.935 644.573 482.935C641.476 482.935 639.011 483.47 637.176 484.54C635.341 485.572 633.926 487.025 632.932 488.898C631.977 490.772 631.346 493.027 631.04 495.665C630.772 498.265 630.638 501.113 630.638 504.209C630.638 507.344 630.772 510.211 631.04 512.811C631.346 515.41 631.976 517.647 632.932 519.52C633.926 521.393 635.341 522.827 637.176 523.821C639.011 524.815 641.476 525.312 644.573 525.312C647.287 525.312 649.486 524.891 651.168 524.05C652.888 523.209 654.207 522.043 655.124 520.552C656.08 519.061 656.73 517.322 657.074 515.334C657.418 513.346 657.59 511.243 657.59 509.026H649.333C649.333 511.243 649.199 513.04 648.931 514.416C648.664 515.754 648.3 516.806 647.842 517.57C647.383 518.297 646.829 518.794 646.179 519.061C645.567 519.291 644.898 519.405 644.172 519.405C643.292 519.405 642.509 519.233 641.821 518.889C641.171 518.507 640.616 517.8 640.158 516.768C639.737 515.697 639.412 514.206 639.183 512.295C638.992 510.383 638.896 507.879 638.896 504.783C638.896 501.877 638.972 499.431 639.125 497.443C639.278 495.416 639.546 493.792 639.928 492.568C640.311 491.307 640.827 490.408 641.477 489.873C642.165 489.3 643.025 489.013 644.057 489.013C645.93 489.013 647.211 489.701 647.899 491.077C648.625 492.415 648.989 494.575 648.989 497.557Z" fill="url(#paint46_linear_12_989)"/>
<path d="M655.919 544.547H629.77V551.313H638.716V585.49H646.973V551.313H655.919V544.547Z" fill="url(#paint47_linear_12_989)"/>
<path d="M635.908 634.773H627.65V636.436C627.65 640.221 628.644 643.126 630.632 645.153C632.658 647.179 636.004 648.192 640.667 648.192C645.14 648.192 648.619 647.217 651.104 645.267C653.627 643.279 654.889 640.125 654.889 635.806C654.889 634.544 654.774 633.397 654.545 632.365C654.315 631.333 653.895 630.396 653.283 629.555C652.71 628.676 651.926 627.873 650.932 627.147C649.938 626.382 648.657 625.656 647.09 624.967L640.725 622.215C638.966 621.489 637.819 620.705 637.284 619.864C636.749 618.985 636.481 617.914 636.481 616.653C636.481 616.041 636.539 615.448 636.653 614.875C636.806 614.302 637.055 613.805 637.399 613.384C637.781 612.925 638.278 612.562 638.89 612.295C639.501 612.027 640.266 611.893 641.184 611.893C642.789 611.893 643.936 612.429 644.624 613.499C645.312 614.531 645.656 616.022 645.656 617.972H653.57V616.825C653.57 614.875 653.245 613.212 652.595 611.836C651.983 610.422 651.104 609.275 649.957 608.395C648.849 607.478 647.511 606.828 645.943 606.446C644.414 606.025 642.732 605.815 640.897 605.815C636.959 605.815 633.863 606.809 631.607 608.797C629.352 610.785 628.224 613.805 628.224 617.857C628.224 619.539 628.434 621.03 628.855 622.33C629.275 623.592 629.925 624.719 630.804 625.713C631.722 626.669 632.85 627.51 634.188 628.236C635.526 628.963 637.112 629.632 638.947 630.243C640.323 630.702 641.47 631.161 642.388 631.62C643.344 632.04 644.108 632.518 644.682 633.053C645.255 633.589 645.656 634.2 645.886 634.888C646.153 635.538 646.287 636.322 646.287 637.239C646.287 638.96 645.771 640.24 644.739 641.081C643.745 641.884 642.617 642.286 641.356 642.286C640.285 642.286 639.387 642.133 638.66 641.827C637.972 641.521 637.418 641.101 636.997 640.566C636.577 640.03 636.29 639.38 636.137 638.616C635.984 637.813 635.908 636.934 635.908 635.978L635.908 634.773Z" fill="url(#paint48_linear_12_989)"/>
<path d="M642.892 129.286V116.843H646.332C648.397 116.843 649.869 117.378 650.748 118.448C651.627 119.519 652.067 121.086 652.067 123.15C652.067 125.253 651.551 126.801 650.519 127.795C649.525 128.789 648.206 129.286 646.562 129.286H642.892ZM634.634 110.764V151.708H642.892V135.365H647.307C649.257 135.365 651.035 135.116 652.64 134.619C654.246 134.122 655.603 133.377 656.712 132.383C657.859 131.389 658.738 130.108 659.35 128.541C659.999 126.973 660.324 125.138 660.324 123.036C660.324 121.507 660.133 120.016 659.751 118.563C659.369 117.072 658.738 115.753 657.859 114.606C656.979 113.459 655.813 112.542 654.361 111.854C652.946 111.127 651.188 110.764 649.085 110.764H634.634Z" fill="url(#paint49_linear_12_989)"/>
<path d="M635.617 172.204V213.148H643.875V195.83H648.29C650.011 195.83 651.234 196.289 651.96 197.206C652.687 198.124 653.088 199.385 653.164 200.991L653.394 208.847C653.432 209.65 653.509 210.433 653.623 211.198C653.738 211.924 654.005 212.574 654.426 213.148H663.372V212.804C662.607 212.383 662.11 211.599 661.881 210.453C661.728 209.306 661.613 207.643 661.537 205.464C661.498 204.355 661.46 203.361 661.422 202.482C661.384 201.564 661.326 200.723 661.25 199.959C661.021 197.665 660.428 196.002 659.472 194.97C658.517 193.937 657.006 193.268 654.942 192.963V192.848C657.274 192.351 658.994 191.242 660.103 189.522C661.212 187.763 661.766 185.508 661.766 182.755C661.766 179.2 660.81 176.562 658.899 174.842C656.987 173.083 654.311 172.204 650.871 172.204L635.617 172.204ZM643.875 190.095V178.283H647.774C651.597 178.283 653.508 180.175 653.508 183.96C653.508 186.177 652.973 187.763 651.903 188.719C650.832 189.637 649.303 190.095 647.315 190.095H643.875Z" fill="url(#paint50_linear_12_989)"/>
<path d="M643.588 254.747C643.588 251.994 643.645 249.662 643.76 247.751C643.913 245.839 644.181 244.272 644.563 243.049C644.983 241.825 645.557 240.946 646.283 240.411C647.048 239.837 648.042 239.551 649.265 239.551C650.488 239.551 651.463 239.837 652.19 240.411C652.954 240.946 653.528 241.825 653.91 243.049C654.331 244.272 654.598 245.839 654.713 247.751C654.866 249.662 654.942 251.994 654.942 254.747C654.942 257.499 654.866 259.85 654.713 261.8C654.598 263.712 654.331 265.279 653.91 266.502C653.528 267.687 652.954 268.567 652.19 269.14C651.463 269.675 650.488 269.943 649.265 269.943C648.042 269.943 647.048 269.675 646.283 269.14C645.557 268.567 644.983 267.687 644.563 266.502C644.181 265.279 643.913 263.712 643.76 261.8C643.645 259.85 643.588 257.499 643.588 254.747ZM635.331 254.747C635.331 257.882 635.464 260.749 635.732 263.348C636.038 265.948 636.669 268.184 637.624 270.058C638.618 271.931 640.033 273.364 641.868 274.358C643.703 275.352 646.169 275.849 649.265 275.849C652.362 275.849 654.828 275.352 656.663 274.358C658.498 273.364 659.893 271.931 660.849 270.058C661.843 268.184 662.473 265.948 662.741 263.348C663.047 260.749 663.2 257.882 663.2 254.747C663.2 251.65 663.047 248.802 662.741 246.203C662.473 243.565 661.843 241.309 660.849 239.436C659.893 237.563 658.498 236.11 656.663 235.078C654.828 234.007 652.362 233.472 649.265 233.472C646.169 233.472 643.703 234.007 641.868 235.078C640.033 236.11 638.618 237.563 637.624 239.436C636.669 241.309 636.038 243.565 635.732 246.203C635.464 248.802 635.331 251.65 635.331 254.747Z" fill="url(#paint51_linear_12_989)"/>
<path d="M642.801 324.502H634.544V326.165C634.544 329.949 635.538 332.855 637.526 334.881C639.552 336.907 642.897 337.92 647.561 337.92C652.034 337.92 655.513 336.945 657.998 334.996C660.521 333.008 661.782 329.854 661.782 325.534C661.782 324.272 661.668 323.125 661.438 322.093C661.209 321.061 660.788 320.124 660.177 319.283C659.603 318.404 658.82 317.601 657.826 316.875C656.832 316.11 655.551 315.384 653.984 314.696L647.618 311.943C645.86 311.217 644.713 310.433 644.178 309.592C643.643 308.713 643.375 307.643 643.375 306.381C643.375 305.769 643.432 305.177 643.547 304.603C643.7 304.03 643.948 303.533 644.292 303.112C644.675 302.654 645.172 302.29 645.783 302.023C646.395 301.755 647.16 301.621 648.077 301.621C649.683 301.621 650.83 302.157 651.518 303.227C652.206 304.259 652.55 305.75 652.55 307.7H660.463V306.553C660.463 304.603 660.139 302.94 659.489 301.564C658.877 300.15 657.998 299.003 656.851 298.123C655.742 297.206 654.404 296.556 652.837 296.174C651.307 295.753 649.625 295.543 647.79 295.543C643.853 295.543 640.756 296.537 638.501 298.525C636.245 300.513 635.117 303.533 635.117 307.585C635.117 309.267 635.328 310.758 635.748 312.058C636.169 313.32 636.819 314.447 637.698 315.441C638.615 316.397 639.743 317.238 641.081 317.964C642.419 318.691 644.006 319.36 645.841 319.972C647.217 320.43 648.364 320.889 649.281 321.348C650.237 321.768 651.002 322.246 651.575 322.781C652.149 323.317 652.55 323.928 652.779 324.616C653.047 325.266 653.181 326.05 653.181 326.967C653.181 328.688 652.665 329.968 651.632 330.81C650.638 331.612 649.511 332.014 648.249 332.014C647.179 332.014 646.28 331.861 645.554 331.555C644.866 331.249 644.312 330.829 643.891 330.293C643.47 329.758 643.184 329.108 643.031 328.344C642.878 327.541 642.801 326.662 642.801 325.706L642.801 324.502Z" fill="url(#paint52_linear_12_989)"/>
<path d="M645.022 375.677V363.233H648.462C650.527 363.233 651.999 363.768 652.878 364.839C653.757 365.909 654.197 367.477 654.197 369.541C654.197 371.644 653.681 373.192 652.648 374.186C651.654 375.18 650.336 375.677 648.692 375.677H645.022ZM636.764 357.155V398.098H645.022V381.755H649.437C651.387 381.755 653.165 381.507 654.77 381.01C656.376 380.513 657.733 379.767 658.842 378.773C659.988 377.78 660.868 376.499 661.479 374.931C662.129 373.364 662.454 371.529 662.454 369.426C662.454 367.897 662.263 366.406 661.881 364.954C661.499 363.463 660.868 362.144 659.988 360.997C659.109 359.85 657.943 358.932 656.491 358.244C655.076 357.518 653.317 357.155 651.215 357.155H636.764Z" fill="url(#paint53_linear_12_989)"/>
<path d="M659.644 418.595H636.764V459.539H660.218V452.772H645.022V441.762H658.784V434.995H645.022V425.362H659.644V418.595Z" fill="url(#paint54_linear_12_989)"/>
<path d="M653.23 494.486H661.488C661.488 492.995 661.373 491.408 661.143 489.726C660.952 488.006 660.436 486.419 659.595 484.966C658.754 483.475 657.473 482.252 655.753 481.296C654.071 480.341 651.758 479.863 648.815 479.863C645.718 479.863 643.252 480.398 641.417 481.468C639.582 482.501 638.168 483.953 637.174 485.827C636.218 487.7 635.587 489.955 635.281 492.593C635.014 495.193 634.88 498.041 634.88 501.137C634.88 504.272 635.014 507.139 635.281 509.739C635.587 512.339 636.218 514.575 637.174 516.448C638.168 518.322 639.582 519.755 641.417 520.749C643.252 521.743 645.718 522.24 648.815 522.24C651.529 522.24 653.727 521.819 655.409 520.978C657.129 520.137 658.448 518.971 659.366 517.48C660.322 515.99 660.971 514.25 661.316 512.262C661.66 510.274 661.832 508.172 661.832 505.954H653.574C653.574 508.172 653.44 509.968 653.173 511.345C652.905 512.683 652.542 513.734 652.083 514.499C651.624 515.225 651.07 515.722 650.42 515.99C649.808 516.219 649.14 516.334 648.413 516.334C647.534 516.334 646.75 516.162 646.062 515.818C645.412 515.435 644.858 514.728 644.399 513.696C643.979 512.625 643.654 511.134 643.424 509.223C643.233 507.311 643.137 504.807 643.137 501.711C643.137 498.805 643.214 496.359 643.367 494.371C643.52 492.345 643.787 490.72 644.17 489.497C644.552 488.235 645.068 487.337 645.718 486.801C646.406 486.228 647.266 485.941 648.298 485.941C650.172 485.941 651.452 486.629 652.14 488.006C652.867 489.344 653.23 491.504 653.23 494.486Z" fill="url(#paint55_linear_12_989)"/>
<path d="M660.16 541.475H634.011V548.241H642.957V582.418H651.215V548.241H660.16V541.475Z" fill="url(#paint56_linear_12_989)"/>
<path d="M640.149 631.702H631.892V633.365C631.892 637.149 632.886 640.055 634.874 642.081C636.9 644.107 640.245 645.12 644.909 645.12C649.382 645.12 652.861 644.145 655.346 642.196C657.869 640.208 659.13 637.054 659.13 632.734C659.13 631.472 659.016 630.325 658.786 629.293C658.557 628.261 658.136 627.324 657.525 626.483C656.951 625.604 656.167 624.801 655.173 624.075C654.18 623.31 652.899 622.584 651.331 621.896L644.966 619.143C643.208 618.417 642.061 617.633 641.526 616.792C640.99 615.913 640.723 614.842 640.723 613.581C640.723 612.969 640.78 612.377 640.895 611.803C641.048 611.23 641.296 610.733 641.64 610.312C642.023 609.854 642.52 609.49 643.131 609.223C643.743 608.955 644.508 608.822 645.425 608.822C647.031 608.822 648.178 609.357 648.866 610.427C649.554 611.459 649.898 612.95 649.898 614.9H657.811V613.753C657.811 611.803 657.486 610.141 656.836 608.764C656.225 607.35 655.346 606.203 654.199 605.324C653.09 604.406 651.752 603.756 650.185 603.374C648.655 602.953 646.973 602.743 645.138 602.743C641.201 602.743 638.104 603.737 635.849 605.725C633.593 607.713 632.465 610.733 632.465 614.785C632.465 616.467 632.676 617.958 633.096 619.258C633.517 620.52 634.166 621.648 635.046 622.642C635.963 623.597 637.091 624.438 638.429 625.165C639.767 625.891 641.354 626.56 643.189 627.172C644.565 627.63 645.712 628.089 646.629 628.548C647.585 628.968 648.35 629.446 648.923 629.982C649.496 630.517 649.898 631.128 650.127 631.817C650.395 632.466 650.529 633.25 650.529 634.168C650.529 635.888 650.013 637.169 648.98 638.01C647.986 638.812 646.859 639.214 645.597 639.214C644.527 639.214 643.628 639.061 642.902 638.755C642.214 638.45 641.659 638.029 641.239 637.494C640.818 636.959 640.532 636.309 640.379 635.544C640.226 634.741 640.149 633.862 640.149 632.906L640.149 631.702Z" fill="url(#paint57_linear_12_989)"/>
<path d="M342.93 157.164H344.405V168.518H342.93V157.164ZM342.562 152.666C342.562 152.355 342.668 152.093 342.881 151.88C343.094 151.667 343.356 151.56 343.668 151.56C343.979 151.56 344.241 151.667 344.454 151.88C344.667 152.093 344.773 152.355 344.773 152.666C344.773 152.977 344.667 153.24 344.454 153.453C344.241 153.666 343.979 153.772 343.668 153.772C343.356 153.772 343.094 153.666 342.881 153.453C342.668 153.24 342.562 152.978 342.562 152.666Z" fill="url(#paint58_linear_12_989)"/>
<path d="M348.583 160.358C348.583 160.145 348.575 159.892 348.558 159.597C348.542 159.285 348.526 158.974 348.509 158.663C348.509 158.351 348.501 158.065 348.485 157.803C348.468 157.524 348.46 157.311 348.46 157.164H349.935C349.951 157.59 349.959 157.999 349.959 158.392C349.975 158.786 350 159.04 350.033 159.154H350.107C350.402 158.532 350.893 157.999 351.581 157.557C352.269 157.098 353.072 156.869 353.99 156.869C354.874 156.869 355.595 157.008 356.152 157.286C356.709 157.565 357.144 157.934 357.455 158.392C357.782 158.835 358.004 159.351 358.118 159.941C358.249 160.53 358.315 161.137 358.315 161.759V168.518H356.84V161.833C356.84 161.374 356.799 160.932 356.718 160.506C356.636 160.064 356.488 159.67 356.275 159.326C356.079 158.982 355.792 158.712 355.415 158.515C355.055 158.302 354.579 158.196 353.99 158.196C353.449 158.196 352.933 158.294 352.441 158.491C351.966 158.671 351.548 158.958 351.188 159.351C350.844 159.728 350.565 160.211 350.352 160.801C350.156 161.374 350.057 162.054 350.057 162.841V168.518H348.583L348.583 160.358Z" fill="url(#paint59_linear_12_989)"/>
<path d="M283.776 196.018C284.202 196.755 284.751 197.304 285.423 197.665C286.111 198.025 286.889 198.205 287.757 198.205C288.298 198.205 288.806 198.124 289.281 197.96C289.756 197.796 290.166 197.566 290.51 197.272C290.87 196.977 291.149 196.624 291.345 196.215C291.558 195.789 291.665 195.314 291.665 194.789C291.665 194.183 291.534 193.683 291.272 193.29C291.026 192.897 290.69 192.578 290.264 192.332C289.838 192.07 289.355 191.848 288.814 191.668C288.29 191.488 287.741 191.308 287.168 191.128C286.61 190.947 286.062 190.743 285.521 190.513C284.997 190.284 284.522 189.989 284.096 189.628C283.67 189.252 283.325 188.785 283.063 188.228C282.818 187.671 282.695 186.982 282.695 186.163C282.695 185.393 282.842 184.713 283.137 184.123C283.448 183.517 283.858 183.018 284.366 182.624C284.89 182.215 285.488 181.912 286.16 181.715C286.832 181.502 287.536 181.396 288.273 181.396C289.224 181.396 290.1 181.568 290.903 181.912C291.722 182.239 292.427 182.796 293.017 183.583L291.616 184.59C291.206 184.017 290.723 183.591 290.166 183.312C289.625 183.018 288.978 182.87 288.224 182.87C287.7 182.87 287.2 182.944 286.725 183.091C286.25 183.222 285.832 183.427 285.472 183.706C285.128 183.968 284.849 184.304 284.636 184.713C284.423 185.123 284.317 185.606 284.317 186.163C284.317 187.032 284.538 187.703 284.98 188.178C285.423 188.637 285.972 189.006 286.627 189.284C287.299 189.547 288.02 189.784 288.79 189.997C289.576 190.194 290.297 190.464 290.952 190.808C291.624 191.152 292.181 191.635 292.623 192.258C293.066 192.864 293.287 193.708 293.287 194.789C293.287 195.576 293.14 196.272 292.845 196.878C292.55 197.485 292.148 198.001 291.64 198.427C291.149 198.836 290.575 199.148 289.92 199.361C289.265 199.574 288.585 199.68 287.88 199.68C286.733 199.68 285.677 199.483 284.71 199.09C283.743 198.681 282.916 198.001 282.228 197.05L283.776 196.018Z" fill="url(#paint60_linear_12_989)"/>
<path d="M294.516 181.838H296.261L301.864 197.1L307.516 181.838H309.237L302.626 199.238H301.004L294.516 181.838Z" fill="url(#paint61_linear_12_989)"/>
<path d="M315.577 183.902H315.553L312.407 186.483L311.498 185.352L315.798 181.838H317.052V199.238H315.577V183.902Z" fill="url(#paint62_linear_12_989)"/>
<path d="M332.83 183.165L325.899 199.238H324.253L331.306 183.165H322.95V181.838H332.83V183.165Z" fill="url(#paint63_linear_12_989)"/>
<path d="M341.136 183.902H341.112L337.966 186.483L337.057 185.352L341.357 181.838H342.611V199.238H341.136V183.902Z" fill="url(#paint64_linear_12_989)"/>
<path d="M358.389 183.165L351.458 199.238H349.812L356.865 183.165H348.509V181.838H358.389V183.165Z" fill="url(#paint65_linear_12_989)"/>
<path d="M466.584 86.188C466.584 85.3197 466.731 84.5251 467.026 83.8042C467.321 83.0669 467.731 82.4361 468.255 81.9118C468.779 81.3711 469.41 80.9533 470.147 80.6584C470.885 80.3635 471.687 80.2161 472.556 80.2161C473.424 80.2161 474.219 80.3635 474.94 80.6584C475.677 80.9533 476.308 81.3711 476.832 81.9118C477.373 82.4361 477.79 83.0669 478.085 83.8042C478.38 84.5251 478.528 85.3197 478.528 86.188C478.528 87.0564 478.38 87.8592 478.085 88.5965C477.79 89.3174 477.373 89.9482 476.832 90.4888C476.308 91.0131 475.677 91.4227 474.94 91.7176C474.219 92.0125 473.424 92.16 472.556 92.16C471.687 92.16 470.885 92.0125 470.147 91.7176C469.41 91.4227 468.779 91.0131 468.255 90.4888C467.731 89.9482 467.321 89.3174 467.026 88.5965C466.731 87.8592 466.584 87.0564 466.584 86.188ZM468.058 86.188C468.058 86.827 468.157 87.4332 468.353 88.0067C468.566 88.5637 468.869 89.0552 469.263 89.4812C469.656 89.8908 470.131 90.2185 470.688 90.4643C471.245 90.71 471.868 90.8329 472.556 90.8329C473.244 90.8329 473.866 90.71 474.423 90.4643C474.981 90.2185 475.456 89.8908 475.849 89.4812C476.242 89.0552 476.537 88.5637 476.734 88.0067C476.947 87.4332 477.053 86.827 477.053 86.188C477.053 85.5491 476.947 84.951 476.734 84.394C476.537 83.8205 476.242 83.329 475.849 82.9194C475.456 82.4934 474.981 82.1576 474.423 81.9118C473.866 81.666 473.244 81.5432 472.556 81.5432C471.868 81.5432 471.245 81.666 470.688 81.9118C470.131 82.1576 469.656 82.4934 469.263 82.9194C468.869 83.329 468.566 83.8205 468.353 84.394C468.157 84.951 468.058 85.5491 468.058 86.188Z" fill="url(#paint66_linear_12_989)"/>
<path d="M481.821 83.7059C481.821 83.4929 481.813 83.2389 481.796 82.944C481.78 82.6327 481.764 82.3214 481.747 82.0101C481.747 81.6988 481.739 81.4121 481.723 81.15C481.706 80.8714 481.698 80.6584 481.698 80.511H483.173C483.189 80.937 483.197 81.3466 483.197 81.7398C483.213 82.133 483.238 82.3869 483.271 82.5016H483.345C483.64 81.879 484.131 81.3466 484.819 80.9042C485.507 80.4454 486.31 80.2161 487.228 80.2161C488.112 80.2161 488.833 80.3553 489.39 80.6339C489.947 80.9124 490.382 81.2811 490.693 81.7398C491.021 82.1822 491.242 82.6983 491.356 83.2881C491.487 83.8779 491.553 84.4841 491.553 85.1067V91.8651H490.078V85.1804C490.078 84.7217 490.037 84.2793 489.956 83.8533C489.874 83.411 489.726 83.0177 489.513 82.6737C489.317 82.3296 489.03 82.0593 488.653 81.8627C488.293 81.6497 487.817 81.5432 487.228 81.5432C486.687 81.5432 486.171 81.6415 485.679 81.8381C485.204 82.0183 484.786 82.3051 484.426 82.6983C484.082 83.0751 483.803 83.5584 483.59 84.1483C483.394 84.7217 483.295 85.4016 483.295 86.1881V91.8651H481.821L481.821 83.7059Z" fill="url(#paint67_linear_12_989)"/>
<path d="M465.92 121.7L472.728 112.558H466.264V111.231H474.768V112.116L467.985 121.258H475.062V122.585H465.92V121.7Z" fill="url(#paint68_linear_12_989)"/>
<path d="M477.053 116.908C477.053 116.04 477.2 115.245 477.495 114.524C477.79 113.787 478.2 113.156 478.724 112.632C479.248 112.091 479.879 111.673 480.616 111.378C481.354 111.083 482.157 110.936 483.025 110.936C483.893 110.936 484.688 111.083 485.409 111.378C486.146 111.673 486.777 112.091 487.301 112.632C487.842 113.156 488.26 113.787 488.555 114.524C488.849 115.245 488.997 116.04 488.997 116.908C488.997 117.776 488.849 118.579 488.555 119.316C488.26 120.037 487.842 120.668 487.301 121.209C486.777 121.733 486.146 122.143 485.409 122.438C484.688 122.733 483.893 122.88 483.025 122.88C482.157 122.88 481.354 122.733 480.616 122.438C479.879 122.143 479.248 121.733 478.724 121.209C478.2 120.668 477.79 120.037 477.495 119.316C477.2 118.579 477.053 117.776 477.053 116.908ZM478.528 116.908C478.528 117.547 478.626 118.153 478.822 118.727C479.035 119.284 479.339 119.775 479.732 120.201C480.125 120.611 480.6 120.938 481.157 121.184C481.714 121.43 482.337 121.553 483.025 121.553C483.713 121.553 484.336 121.43 484.893 121.184C485.45 120.938 485.925 120.611 486.318 120.201C486.711 119.775 487.006 119.284 487.203 118.727C487.416 118.153 487.522 117.547 487.522 116.908C487.522 116.269 487.416 115.671 487.203 115.114C487.006 114.541 486.711 114.049 486.318 113.639C485.925 113.213 485.45 112.878 484.893 112.632C484.336 112.386 483.713 112.263 483.025 112.263C482.337 112.263 481.714 112.386 481.157 112.632C480.6 112.878 480.125 113.213 479.732 113.639C479.339 114.049 479.035 114.541 478.822 115.114C478.626 115.671 478.528 116.269 478.528 116.908Z" fill="url(#paint69_linear_12_989)"/>
<path d="M491.651 116.908C491.651 116.04 491.799 115.245 492.094 114.524C492.388 113.787 492.798 113.156 493.322 112.632C493.847 112.091 494.477 111.673 495.215 111.378C495.952 111.083 496.755 110.936 497.623 110.936C498.491 110.936 499.286 111.083 500.007 111.378C500.744 111.673 501.375 112.091 501.899 112.632C502.44 113.156 502.858 113.787 503.153 114.524C503.448 115.245 503.595 116.04 503.595 116.908C503.595 117.776 503.448 118.579 503.153 119.316C502.858 120.037 502.44 120.668 501.899 121.209C501.375 121.733 500.744 122.143 500.007 122.438C499.286 122.733 498.491 122.88 497.623 122.88C496.755 122.88 495.952 122.733 495.215 122.438C494.477 122.143 493.847 121.733 493.322 121.209C492.798 120.668 492.388 120.037 492.094 119.316C491.799 118.579 491.651 117.776 491.651 116.908ZM493.126 116.908C493.126 117.547 493.224 118.153 493.421 118.727C493.634 119.284 493.937 119.775 494.33 120.201C494.723 120.611 495.198 120.938 495.755 121.184C496.312 121.43 496.935 121.553 497.623 121.553C498.311 121.553 498.934 121.43 499.491 121.184C500.048 120.938 500.523 120.611 500.916 120.201C501.309 119.775 501.604 119.284 501.801 118.727C502.014 118.153 502.12 117.547 502.12 116.908C502.12 116.269 502.014 115.671 501.801 115.114C501.604 114.541 501.309 114.049 500.916 113.639C500.523 113.213 500.048 112.878 499.491 112.632C498.934 112.386 498.311 112.263 497.623 112.263C496.935 112.263 496.312 112.386 495.755 112.632C495.198 112.878 494.723 113.213 494.33 113.639C493.937 114.049 493.634 114.541 493.421 115.114C493.224 115.671 493.126 116.269 493.126 116.908Z" fill="url(#paint70_linear_12_989)"/>
<path d="M506.888 114.426C506.888 114.213 506.88 113.959 506.864 113.664C506.847 113.353 506.831 113.041 506.814 112.73C506.814 112.419 506.806 112.132 506.79 111.87C506.774 111.591 506.766 111.378 506.766 111.231H508.24C508.256 111.657 508.265 112.067 508.265 112.46C508.281 112.853 508.305 113.107 508.338 113.222H508.412C508.707 112.599 509.198 112.067 509.887 111.624C510.575 111.165 511.378 110.936 512.295 110.936C513.049 110.936 513.737 111.133 514.359 111.526C514.982 111.903 515.433 112.525 515.711 113.394C516.072 112.542 516.604 111.919 517.309 111.526C518.029 111.133 518.783 110.936 519.569 110.936C520.454 110.936 521.175 111.075 521.732 111.354C522.289 111.632 522.723 112.001 523.035 112.46C523.362 112.902 523.584 113.418 523.698 114.008C523.829 114.598 523.895 115.204 523.895 115.827V122.585H522.42V115.9C522.42 115.442 522.379 114.999 522.297 114.573C522.216 114.131 522.068 113.738 521.855 113.394C521.658 113.05 521.372 112.779 520.995 112.583C520.634 112.37 520.159 112.263 519.569 112.263C518.881 112.263 518.316 112.394 517.874 112.656C517.431 112.902 517.079 113.222 516.817 113.615C516.571 114.008 516.391 114.434 516.276 114.893C516.178 115.352 516.129 115.786 516.129 116.195V122.585H514.654V115.753C514.654 114.704 514.458 113.861 514.065 113.222C513.688 112.583 513.098 112.263 512.295 112.263C511.754 112.263 511.238 112.361 510.747 112.558C510.272 112.738 509.854 113.025 509.493 113.418C509.149 113.795 508.871 114.278 508.658 114.868C508.461 115.442 508.363 116.122 508.363 116.908V122.585H506.888L506.888 114.426Z" fill="url(#paint71_linear_12_989)"/>
<path d="M322.15 708.919L315.22 724.992H313.573L320.626 708.919H312.271V707.592H322.15V708.919Z" fill="url(#paint72_linear_12_989)"/>
<path d="M326.058 723.96C326.058 723.632 326.172 723.354 326.402 723.124C326.631 722.895 326.91 722.78 327.237 722.78C327.565 722.78 327.843 722.895 328.073 723.124C328.302 723.354 328.417 723.632 328.417 723.96C328.417 724.288 328.302 724.566 328.073 724.795C327.843 725.025 327.565 725.14 327.237 725.14C326.91 725.14 326.631 725.025 326.402 724.795C326.172 724.566 326.058 724.287 326.058 723.96Z" fill="url(#paint73_linear_12_989)"/>
<path d="M336.846 709.657H336.822L333.676 712.237L332.767 711.107L337.068 707.592H338.321V724.992H336.847L336.846 709.657Z" fill="url(#paint74_linear_12_989)"/>
<path d="M354.295 708.919H347.119L347.045 714.449C347.422 714.252 347.832 714.121 348.274 714.056C348.717 713.99 349.151 713.958 349.577 713.958C350.412 713.958 351.158 714.113 351.813 714.424C352.485 714.719 353.05 715.129 353.509 715.653C353.984 716.178 354.344 716.792 354.59 717.496C354.852 718.185 354.983 718.922 354.983 719.708C354.983 720.642 354.811 721.461 354.467 722.166C354.14 722.87 353.705 723.452 353.165 723.911C352.624 724.37 352.026 724.714 351.371 724.943C350.715 725.173 350.068 725.287 349.429 725.287C348.151 725.287 347.078 725.025 346.21 724.501C345.358 723.977 344.694 723.256 344.219 722.338L345.743 721.576C345.89 721.904 346.087 722.215 346.333 722.51C346.595 722.789 346.89 723.043 347.217 723.272C347.545 723.485 347.897 723.657 348.274 723.788C348.651 723.903 349.036 723.96 349.429 723.96C349.822 723.96 350.248 723.878 350.707 723.714C351.166 723.534 351.592 723.272 351.985 722.928C352.378 722.584 352.706 722.15 352.968 721.625C353.23 721.101 353.361 720.495 353.361 719.807C353.361 719.184 353.247 718.603 353.017 718.062C352.804 717.505 352.501 717.022 352.108 716.612C351.715 716.202 351.248 715.883 350.707 715.653C350.183 715.408 349.609 715.285 348.987 715.285C348.364 715.285 347.758 715.4 347.168 715.629C346.578 715.842 346.038 716.121 345.546 716.465L345.694 707.593H354.295L354.295 708.919Z" fill="url(#paint75_linear_12_989)"/>
<path d="M365.698 706.56V731.136H364.519V706.56H365.698Z" fill="url(#paint76_linear_12_989)"/>
<path d="M375.873 713.638H377.347V715.629H377.397C377.626 715.235 377.913 714.899 378.257 714.621C378.601 714.326 378.97 714.088 379.363 713.908C379.773 713.712 380.198 713.572 380.641 713.49C381.083 713.392 381.517 713.343 381.943 713.343C382.812 713.343 383.606 713.49 384.327 713.785C385.065 714.08 385.695 714.498 386.22 715.039C386.76 715.563 387.178 716.194 387.473 716.931C387.768 717.652 387.915 718.446 387.915 719.315C387.915 720.183 387.768 720.986 387.473 721.723C387.178 722.444 386.76 723.075 386.22 723.616C385.695 724.14 385.065 724.549 384.327 724.844C383.606 725.139 382.812 725.287 381.943 725.287C381.517 725.287 381.083 725.238 380.641 725.139C380.198 725.057 379.773 724.926 379.363 724.746C378.97 724.55 378.601 724.312 378.257 724.034C377.913 723.739 377.626 723.395 377.397 723.001H377.347V730.595H375.873V713.638ZM377.2 719.315C377.2 719.954 377.323 720.56 377.569 721.134C377.814 721.691 378.15 722.182 378.576 722.608C379.002 723.018 379.502 723.345 380.075 723.591C380.649 723.837 381.271 723.96 381.943 723.96C382.631 723.96 383.254 723.837 383.811 723.591C384.368 723.345 384.843 723.018 385.236 722.608C385.63 722.182 385.924 721.691 386.121 721.134C386.334 720.56 386.441 719.954 386.441 719.315C386.441 718.676 386.334 718.078 386.121 717.521C385.924 716.947 385.63 716.456 385.236 716.046C384.843 715.62 384.368 715.285 383.811 715.039C383.254 714.793 382.631 714.67 381.943 714.67C381.271 714.67 380.649 714.793 380.075 715.039C379.502 715.285 379.002 715.62 378.576 716.046C378.15 716.456 377.814 716.947 377.569 717.521C377.323 718.078 377.2 718.676 377.2 719.315Z" fill="url(#paint77_linear_12_989)"/>
<path d="M391.257 723.96C391.257 723.632 391.372 723.354 391.601 723.124C391.831 722.895 392.109 722.78 392.437 722.78C392.765 722.78 393.043 722.895 393.273 723.124C393.502 723.354 393.617 723.632 393.617 723.96C393.617 724.288 393.502 724.566 393.273 724.795C393.043 725.025 392.765 725.14 392.437 725.14C392.109 725.14 391.831 725.025 391.601 724.795C391.372 724.566 391.257 724.287 391.257 723.96Z" fill="url(#paint78_linear_12_989)"/>
<path d="M397.598 716.833C397.598 716.62 397.59 716.366 397.574 716.071C397.557 715.76 397.541 715.449 397.524 715.137C397.524 714.826 397.516 714.539 397.5 714.277C397.484 713.998 397.475 713.785 397.475 713.638H398.95C398.966 714.064 398.974 714.474 398.974 714.867C398.991 715.26 399.015 715.514 399.048 715.629H399.122C399.417 715.006 399.908 714.473 400.596 714.031C401.285 713.572 402.087 713.343 403.005 713.343C403.759 713.343 404.447 713.54 405.069 713.933C405.692 714.31 406.142 714.932 406.421 715.801C406.781 714.949 407.314 714.326 408.018 713.933C408.739 713.54 409.493 713.343 410.279 713.343C411.164 713.343 411.885 713.482 412.442 713.761C412.999 714.04 413.433 714.408 413.745 714.867C414.072 715.309 414.293 715.825 414.408 716.415C414.539 717.005 414.605 717.611 414.605 718.234V724.992H413.13V718.308C413.13 717.849 413.089 717.406 413.007 716.98C412.925 716.538 412.778 716.145 412.565 715.801C412.368 715.457 412.082 715.186 411.705 714.99C411.344 714.777 410.869 714.671 410.279 714.671C409.591 714.671 409.026 714.802 408.584 715.064C408.141 715.309 407.789 715.629 407.527 716.022C407.281 716.415 407.101 716.841 406.986 717.3C406.888 717.759 406.839 718.193 406.839 718.603V724.992H405.364V718.16C405.364 717.112 405.168 716.268 404.774 715.629C404.397 714.99 403.808 714.67 403.005 714.67C402.464 714.67 401.948 714.769 401.457 714.965C400.981 715.146 400.564 715.432 400.203 715.825C399.859 716.202 399.581 716.686 399.368 717.275C399.171 717.849 399.073 718.529 399.073 719.315V724.992H397.598L397.598 716.833Z" fill="url(#paint79_linear_12_989)"/>
<path d="M418.586 723.96C418.586 723.632 418.701 723.354 418.93 723.124C419.159 722.895 419.438 722.78 419.765 722.78C420.093 722.78 420.372 722.895 420.601 723.124C420.83 723.354 420.945 723.632 420.945 723.96C420.945 724.288 420.83 724.566 420.601 724.795C420.372 725.025 420.093 725.14 419.765 725.14C419.438 725.14 419.159 725.025 418.93 724.795C418.701 724.566 418.586 724.287 418.586 723.96Z" fill="url(#paint80_linear_12_989)"/>
<path d="M279.429 672.203H273.482V670.729H286.999V672.203H281.051V688.128H279.429V672.203Z" fill="url(#paint81_linear_12_989)"/>
<path d="M296.608 684.933C296.608 685.146 296.616 685.408 296.632 685.72C296.649 686.015 296.657 686.318 296.657 686.629C296.673 686.94 296.689 687.235 296.706 687.514C296.722 687.776 296.73 687.981 296.73 688.128H295.256C295.24 687.702 295.223 687.293 295.207 686.899C295.207 686.506 295.19 686.252 295.157 686.137H295.083C294.789 686.76 294.297 687.301 293.609 687.76C292.921 688.202 292.118 688.423 291.2 688.423C290.316 688.423 289.587 688.284 289.013 688.005C288.456 687.726 288.014 687.366 287.686 686.924C287.375 686.465 287.162 685.941 287.047 685.351C286.932 684.761 286.875 684.155 286.875 683.532V676.774H288.35V683.459C288.35 683.917 288.391 684.368 288.473 684.81C288.555 685.236 288.694 685.621 288.89 685.965C289.103 686.309 289.39 686.588 289.751 686.801C290.127 686.997 290.611 687.096 291.201 687.096C291.741 687.096 292.249 687.006 292.724 686.825C293.216 686.629 293.634 686.342 293.978 685.965C294.338 685.572 294.617 685.089 294.813 684.515C295.026 683.925 295.133 683.237 295.133 682.451V676.774H296.607L296.608 684.933Z" fill="url(#paint82_linear_12_989)"/>
<path d="M310.69 685.99C310.117 686.859 309.404 687.481 308.552 687.858C307.716 688.235 306.791 688.423 305.775 688.423C304.906 688.423 304.12 688.276 303.416 687.981C302.711 687.686 302.105 687.277 301.597 686.752C301.089 686.212 300.696 685.581 300.417 684.86C300.155 684.123 300.024 683.312 300.024 682.427C300.024 681.575 300.163 680.789 300.442 680.068C300.72 679.347 301.114 678.724 301.622 678.2C302.129 677.659 302.727 677.241 303.416 676.946C304.104 676.635 304.866 676.48 305.701 676.48C306.569 676.48 307.331 676.635 307.987 676.946C308.658 677.241 309.215 677.643 309.658 678.151C310.117 678.642 310.461 679.207 310.69 679.846C310.919 680.485 311.034 681.133 311.034 681.788V682.82H301.499C301.499 683.131 301.556 683.533 301.671 684.024C301.802 684.499 302.031 684.966 302.359 685.425C302.686 685.884 303.121 686.277 303.661 686.605C304.218 686.933 304.931 687.097 305.799 687.097C306.553 687.097 307.282 686.916 307.987 686.556C308.691 686.196 309.232 685.704 309.609 685.081L310.69 685.99ZM309.56 681.493C309.56 680.985 309.453 680.51 309.24 680.067C309.043 679.625 308.765 679.24 308.404 678.912C308.06 678.568 307.643 678.298 307.151 678.101C306.676 677.905 306.168 677.806 305.627 677.806C304.825 677.806 304.153 677.97 303.612 678.298C303.088 678.626 302.67 679.003 302.359 679.429C302.047 679.855 301.826 680.272 301.695 680.682C301.564 681.075 301.499 681.346 301.499 681.493L309.56 681.493Z" fill="url(#paint83_linear_12_989)"/>
<path d="M322.069 669.696V694.272H320.889V669.696H322.069Z" fill="url(#paint84_linear_12_989)"/>
<path d="M331.235 679.428C331.235 678.806 331.26 678.15 331.309 677.462C331.375 676.758 331.481 676.078 331.629 675.423C331.792 674.751 332.006 674.12 332.268 673.53C332.546 672.924 332.898 672.391 333.324 671.933C333.75 671.474 334.258 671.114 334.848 670.851C335.454 670.573 336.167 670.433 336.986 670.433C337.805 670.433 338.51 670.573 339.1 670.851C339.706 671.113 340.222 671.474 340.648 671.933C341.074 672.391 341.418 672.924 341.68 673.53C341.959 674.12 342.172 674.751 342.319 675.423C342.483 676.078 342.59 676.758 342.639 677.462C342.704 678.15 342.737 678.806 342.737 679.428C342.737 680.067 342.704 680.731 342.639 681.419C342.59 682.107 342.483 682.787 342.319 683.459C342.172 684.114 341.959 684.745 341.68 685.351C341.418 685.941 341.074 686.465 340.648 686.924C340.222 687.383 339.706 687.751 339.1 688.03C338.51 688.292 337.805 688.423 336.986 688.423C336.167 688.423 335.454 688.292 334.848 688.03C334.258 687.751 333.75 687.383 333.324 686.924C332.898 686.465 332.546 685.941 332.268 685.351C332.006 684.745 331.793 684.114 331.629 683.459C331.481 682.787 331.375 682.107 331.309 681.419C331.26 680.731 331.235 680.067 331.235 679.428ZM332.857 679.428C332.857 679.887 332.874 680.395 332.907 680.952C332.94 681.493 333.005 682.05 333.103 682.623C333.202 683.18 333.341 683.729 333.521 684.27C333.718 684.811 333.964 685.294 334.259 685.72C334.57 686.129 334.947 686.465 335.389 686.727C335.831 686.973 336.364 687.096 336.986 687.096C337.593 687.096 338.117 686.973 338.559 686.727C339.018 686.465 339.395 686.13 339.69 685.72C340.001 685.294 340.247 684.811 340.427 684.27C340.624 683.729 340.771 683.18 340.869 682.623C340.968 682.05 341.033 681.493 341.066 680.952C341.099 680.395 341.115 679.887 341.115 679.428C341.115 678.986 341.099 678.486 341.066 677.929C341.033 677.372 340.968 676.815 340.869 676.258C340.771 675.685 340.624 675.128 340.427 674.587C340.247 674.046 340.001 673.571 339.69 673.161C339.395 672.736 339.018 672.4 338.559 672.154C338.117 671.892 337.593 671.761 336.986 671.761C336.38 671.761 335.848 671.892 335.389 672.154C334.947 672.4 334.57 672.736 334.259 673.161C333.964 673.571 333.718 674.046 333.521 674.587C333.341 675.128 333.202 675.685 333.103 676.258C333.005 676.815 332.94 677.372 332.907 677.929C332.874 678.486 332.857 678.986 332.857 679.428Z" fill="url(#paint85_linear_12_989)"/>
<path d="M352.027 680.461H351.977C351.682 680.706 351.281 680.895 350.773 681.026C350.282 681.141 349.823 681.198 349.397 681.198C348.627 681.198 347.914 681.058 347.259 680.78C346.603 680.501 346.038 680.124 345.563 679.649C345.088 679.158 344.719 678.593 344.457 677.954C344.195 677.298 344.064 676.594 344.064 675.84C344.064 675.054 344.203 674.333 344.482 673.677C344.777 673.006 345.178 672.432 345.686 671.957C346.194 671.482 346.792 671.113 347.48 670.851C348.184 670.572 348.946 670.433 349.765 670.433C350.585 670.433 351.338 670.572 352.026 670.851C352.731 671.113 353.337 671.482 353.845 671.957C354.353 672.432 354.746 673.006 355.025 673.677C355.32 674.333 355.467 675.054 355.467 675.84C355.467 676.299 355.418 676.733 355.32 677.143C355.221 677.552 355.09 677.945 354.926 678.322C354.763 678.683 354.582 679.027 354.386 679.354C354.206 679.682 354.034 679.993 353.87 680.288L349.151 688.128H347.283L352.027 680.461ZM349.766 679.92C350.323 679.92 350.847 679.814 351.338 679.601C351.846 679.388 352.281 679.101 352.641 678.741C353.018 678.364 353.313 677.929 353.526 677.438C353.739 676.947 353.845 676.414 353.845 675.841C353.845 675.234 353.747 674.686 353.55 674.194C353.354 673.686 353.075 673.252 352.715 672.891C352.354 672.531 351.92 672.253 351.412 672.056C350.921 671.859 350.372 671.761 349.766 671.761C349.159 671.761 348.602 671.859 348.094 672.056C347.603 672.253 347.177 672.531 346.817 672.891C346.456 673.252 346.178 673.686 345.981 674.194C345.784 674.686 345.686 675.234 345.686 675.841C345.686 676.414 345.793 676.947 346.005 677.438C346.218 677.93 346.505 678.364 346.866 678.741C347.242 679.101 347.677 679.388 348.168 679.601C348.66 679.814 349.192 679.92 349.766 679.92Z" fill="url(#paint86_linear_12_989)"/>
<path d="M365.863 669.696V694.272H364.683V669.696H365.863Z" fill="url(#paint87_linear_12_989)"/>
<path d="M380.805 672.793H380.781L377.635 675.373L376.726 674.243L381.026 670.729H382.28V688.128H380.805L380.805 672.793Z" fill="url(#paint88_linear_12_989)"/>
<path d="M393.584 672.793H393.56L390.414 675.373L389.505 674.243L393.806 670.729H395.059V688.128H393.585L393.584 672.793Z" fill="url(#paint89_linear_12_989)"/>
<path d="M409.657 669.696V694.272H408.477V669.696H409.657Z" fill="url(#paint90_linear_12_989)"/>
<path d="M419.192 686.408L425.73 679.502C426.024 679.207 426.319 678.896 426.614 678.568C426.909 678.224 427.171 677.872 427.401 677.511C427.647 677.134 427.843 676.741 427.991 676.332C428.138 675.922 428.212 675.48 428.212 675.005C428.212 673.989 427.884 673.194 427.229 672.621C426.573 672.047 425.746 671.761 424.747 671.761C423.845 671.761 423.084 672.023 422.461 672.547C421.838 673.071 421.437 673.759 421.257 674.611L419.536 674.44C419.815 673.096 420.429 672.097 421.38 671.441C422.33 670.77 423.477 670.434 424.82 670.434C425.492 670.434 426.131 670.54 426.737 670.753C427.343 670.949 427.876 671.236 428.335 671.613C428.793 671.99 429.154 672.457 429.416 673.014C429.695 673.555 429.834 674.177 429.834 674.882C429.834 675.553 429.727 676.176 429.514 676.749C429.318 677.323 429.047 677.872 428.703 678.396C428.376 678.904 427.991 679.387 427.548 679.846C427.122 680.305 426.688 680.764 426.246 681.222L420.814 686.801H429.957V688.128H419.192V686.408Z" fill="url(#paint91_linear_12_989)"/>
<path d="M437.379 672.793H437.354L434.209 675.373L433.299 674.243L437.6 670.729H438.853V688.128H437.379L437.379 672.793Z" fill="url(#paint92_linear_12_989)"/>
</g>
<defs>
<linearGradient id="paint0_linear_12_989" x1="173.014" y1="-7.04925" x2="169.755" y2="-5.16743" gradientUnits="userSpaceOnUse">
<stop stop-color="#B6DDDA"/>
</linearGradient>
<linearGradient id="paint1_linear_12_989" x1="-nan" y1="-nan" x2="-nan" y2="-nan" gradientUnits="userSpaceOnUse">
<stop stop-color="#13313D"/>
</linearGradient>
<linearGradient id="paint2_linear_12_989" x1="-nan" y1="-nan" x2="-nan" y2="-nan" gradientUnits="userSpaceOnUse">
<stop stop-color="#FBB86C"/>
</linearGradient>
<linearGradient id="paint3_linear_12_989" x1="-nan" y1="-nan" x2="-nan" y2="-nan" gradientUnits="userSpaceOnUse">
<stop stop-color="#F3F5EC"/>
</linearGradient>
<linearGradient id="paint4_linear_12_989" x1="684976" y1="-53663.8" x2="692935" y2="-53663.8" gradientUnits="userSpaceOnUse">
<stop stop-color="#F3F5EC"/>
</linearGradient>
<linearGradient id="paint5_linear_12_989" x1="141.575" y1="-6.80974" x2="141.578" y2="-6.80649" gradientUnits="userSpaceOnUse">
<stop stop-color="#01877E"/>
</linearGradient>
<linearGradient id="paint6_linear_12_989" x1="688458" y1="-53971.2" x2="708356" y2="-53971.2" gradientUnits="userSpaceOnUse">
<stop stop-color="#F3F5EC"/>
</linearGradient>
<linearGradient id="paint7_linear_12_989" x1="-nan" y1="-nan" x2="-nan" y2="-nan" gradientUnits="userSpaceOnUse">
<stop stop-color="#FBB86C"/>
</linearGradient>
<linearGradient id="paint8_linear_12_989" x1="-nan" y1="-nan" x2="-nan" y2="-nan" gradientUnits="userSpaceOnUse">
<stop stop-color="#F3F5EC"/>
</linearGradient>
<linearGradient id="paint9_linear_12_989" x1="-nan" y1="-nan" x2="-nan" y2="-nan" gradientUnits="userSpaceOnUse">
<stop stop-color="#13313D"/>
</linearGradient>
<linearGradient id="paint10_linear_12_989" x1="141.574" y1="-6.81593" x2="141.579" y2="-6.81009" gradientUnits="userSpaceOnUse">
<stop stop-color="#01877E"/>
</linearGradient>
<linearGradient id="paint11_linear_12_989" x1="700396" y1="-41037.6" x2="710843" y2="-41037.6" gradientUnits="userSpaceOnUse">
<stop stop-color="#F3F5EC"/>
</linearGradient>
<linearGradient id="paint12_linear_12_989" x1="141.577" y1="-6.81649" x2="141.577" y2="-6.81636" gradientUnits="userSpaceOnUse">
<stop stop-color="#01877E"/>
</linearGradient>
<linearGradient id="paint13_linear_12_989" x1="943.904" y1="-440.921" x2="943.904" y2="-440.921" gradientUnits="userSpaceOnUse">
<stop stop-color="#13313D"/>
</linearGradient>
<linearGradient id="paint14_linear_12_989" x1="943.904" y1="-440.921" x2="943.904" y2="-440.921" gradientUnits="userSpaceOnUse">
<stop stop-color="#13313D"/>
</linearGradient>
<linearGradient id="paint15_linear_12_989" x1="943.904" y1="-440.922" x2="943.904" y2="-440.922" gradientUnits="userSpaceOnUse">
<stop stop-color="#13313D"/>
</linearGradient>
<linearGradient id="paint16_linear_12_989" x1="330.998" y1="-291.35" x2="330.998" y2="-291.35" gradientUnits="userSpaceOnUse">
<stop stop-color="#FBB86C"/>
</linearGradient>
<linearGradient id="paint17_linear_12_989" x1="330.998" y1="-291.35" x2="330.998" y2="-291.35" gradientUnits="userSpaceOnUse">
<stop stop-color="#FBB86C"/>
</linearGradient>
<linearGradient id="paint18_linear_12_989" x1="330.998" y1="-291.35" x2="330.998" y2="-291.35" gradientUnits="userSpaceOnUse">
<stop stop-color="#FBB86C"/>
</linearGradient>
<linearGradient id="paint19_linear_12_989" x1="943.904" y1="634.278" x2="943.904" y2="634.278" gradientUnits="userSpaceOnUse">
<stop stop-color="#13313D"/>
</linearGradient>
<linearGradient id="paint20_linear_12_989" x1="943.904" y1="634.278" x2="943.904" y2="634.278" gradientUnits="userSpaceOnUse">
<stop stop-color="#13313D"/>
</linearGradient>
<linearGradient id="paint21_linear_12_989" x1="943.904" y1="634.278" x2="943.904" y2="634.278" gradientUnits="userSpaceOnUse">
<stop stop-color="#13313D"/>
</linearGradient>
<linearGradient id="paint22_linear_12_989" x1="943.904" y1="634.278" x2="943.905" y2="634.278" gradientUnits="userSpaceOnUse">
<stop stop-color="#13313D"/>
</linearGradient>
<linearGradient id="paint23_linear_12_989" x1="943.904" y1="634.278" x2="943.904" y2="634.278" gradientUnits="userSpaceOnUse">
<stop stop-color="#13313D"/>
</linearGradient>
<linearGradient id="paint24_linear_12_989" x1="943.904" y1="634.278" x2="943.904" y2="634.278" gradientUnits="userSpaceOnUse">
<stop stop-color="#13313D"/>
</linearGradient>
<linearGradient id="paint25_linear_12_989" x1="331" y1="783.842" x2="331" y2="783.842" gradientUnits="userSpaceOnUse">
<stop stop-color="#FBB86C"/>
</linearGradient>
<linearGradient id="paint26_linear_12_989" x1="331" y1="783.845" x2="331" y2="783.845" gradientUnits="userSpaceOnUse">
<stop stop-color="#FBB86C"/>
</linearGradient>
<linearGradient id="paint27_linear_12_989" x1="141.584" y1="-6.81718" x2="141.585" y2="-6.81705" gradientUnits="userSpaceOnUse">
<stop stop-color="#01877E"/>
</linearGradient>
<linearGradient id="paint28_linear_12_989" x1="141.577" y1="-6.80783" x2="141.577" y2="-6.8077" gradientUnits="userSpaceOnUse">
<stop stop-color="#01877E"/>
</linearGradient>
<linearGradient id="paint29_linear_12_989" x1="243.344" y1="84.8823" x2="243.344" y2="84.8823" gradientUnits="userSpaceOnUse">
<stop stop-color="#13313D"/>
</linearGradient>
<linearGradient id="paint30_linear_12_989" x1="243.344" y1="84.8824" x2="243.344" y2="84.8824" gradientUnits="userSpaceOnUse">
<stop stop-color="#13313D"/>
</linearGradient>
<linearGradient id="paint31_linear_12_989" x1="243.344" y1="84.8824" x2="243.344" y2="84.8824" gradientUnits="userSpaceOnUse">
<stop stop-color="#13313D"/>
</linearGradient>
<linearGradient id="paint32_linear_12_989" x1="243.344" y1="84.8822" x2="243.344" y2="84.8822" gradientUnits="userSpaceOnUse">
<stop stop-color="#13313D"/>
</linearGradient>
<linearGradient id="paint33_linear_12_989" x1="243.344" y1="84.8823" x2="243.344" y2="84.8823" gradientUnits="userSpaceOnUse">
<stop stop-color="#13313D"/>
</linearGradient>
<linearGradient id="paint34_linear_12_989" x1="243.344" y1="84.8823" x2="243.344" y2="84.8823" gradientUnits="userSpaceOnUse">
<stop stop-color="#13313D"/>
</linearGradient>
<linearGradient id="paint35_linear_12_989" x1="243.344" y1="84.8822" x2="243.344" y2="84.8822" gradientUnits="userSpaceOnUse">
<stop stop-color="#13313D"/>
</linearGradient>
<linearGradient id="paint36_linear_12_989" x1="243.344" y1="84.8823" x2="243.344" y2="84.8823" gradientUnits="userSpaceOnUse">
<stop stop-color="#13313D"/>
</linearGradient>
<linearGradient id="paint37_linear_12_989" x1="243.344" y1="84.8822" x2="243.344" y2="84.8822" gradientUnits="userSpaceOnUse">
<stop stop-color="#13313D"/>
</linearGradient>
<linearGradient id="paint38_linear_12_989" x1="243.344" y1="84.8823" x2="243.344" y2="84.8823" gradientUnits="userSpaceOnUse">
<stop stop-color="#13313D"/>
</linearGradient>
<linearGradient id="paint39_linear_12_989" x1="243.344" y1="84.8823" x2="243.344" y2="84.8823" gradientUnits="userSpaceOnUse">
<stop stop-color="#13313D"/>
</linearGradient>
<linearGradient id="paint40_linear_12_989" x1="326.758" y1="786.914" x2="326.758" y2="786.914" gradientUnits="userSpaceOnUse">
<stop stop-color="#FBB86C"/>
</linearGradient>
<linearGradient id="paint41_linear_12_989" x1="326.758" y1="786.915" x2="326.758" y2="786.915" gradientUnits="userSpaceOnUse">
<stop stop-color="#FBB86C"/>
</linearGradient>
<linearGradient id="paint42_linear_12_989" x1="326.758" y1="786.915" x2="326.758" y2="786.915" gradientUnits="userSpaceOnUse">
<stop stop-color="#FBB86C"/>
</linearGradient>
<linearGradient id="paint43_linear_12_989" x1="326.758" y1="786.915" x2="326.758" y2="786.915" gradientUnits="userSpaceOnUse">
<stop stop-color="#FBB86C"/>
</linearGradient>
<linearGradient id="paint44_linear_12_989" x1="326.758" y1="786.916" x2="326.758" y2="786.916" gradientUnits="userSpaceOnUse">
<stop stop-color="#FBB86C"/>
</linearGradient>
<linearGradient id="paint45_linear_12_989" x1="326.758" y1="786.916" x2="326.758" y2="786.916" gradientUnits="userSpaceOnUse">
<stop stop-color="#FBB86C"/>
</linearGradient>
<linearGradient id="paint46_linear_12_989" x1="326.758" y1="786.916" x2="326.758" y2="786.916" gradientUnits="userSpaceOnUse">
<stop stop-color="#FBB86C"/>
</linearGradient>
<linearGradient id="paint47_linear_12_989" x1="326.758" y1="786.917" x2="326.758" y2="786.917" gradientUnits="userSpaceOnUse">
<stop stop-color="#FBB86C"/>
</linearGradient>
<linearGradient id="paint48_linear_12_989" x1="326.758" y1="786.917" x2="326.758" y2="786.917" gradientUnits="userSpaceOnUse">
<stop stop-color="#FBB86C"/>
</linearGradient>
<linearGradient id="paint49_linear_12_989" x1="943.904" y1="634.278" x2="943.904" y2="634.278" gradientUnits="userSpaceOnUse">
<stop stop-color="#13313D"/>
</linearGradient>
<linearGradient id="paint50_linear_12_989" x1="943.904" y1="634.278" x2="943.904" y2="634.278" gradientUnits="userSpaceOnUse">
<stop stop-color="#13313D"/>
</linearGradient>
<linearGradient id="paint51_linear_12_989" x1="943.905" y1="634.279" x2="943.905" y2="634.279" gradientUnits="userSpaceOnUse">
<stop stop-color="#13313D"/>
</linearGradient>
<linearGradient id="paint52_linear_12_989" x1="943.904" y1="634.278" x2="943.904" y2="634.278" gradientUnits="userSpaceOnUse">
<stop stop-color="#13313D"/>
</linearGradient>
<linearGradient id="paint53_linear_12_989" x1="943.904" y1="634.278" x2="943.904" y2="634.278" gradientUnits="userSpaceOnUse">
<stop stop-color="#13313D"/>
</linearGradient>
<linearGradient id="paint54_linear_12_989" x1="943.905" y1="634.279" x2="943.905" y2="634.279" gradientUnits="userSpaceOnUse">
<stop stop-color="#13313D"/>
</linearGradient>
<linearGradient id="paint55_linear_12_989" x1="943.904" y1="634.279" x2="943.904" y2="634.279" gradientUnits="userSpaceOnUse">
<stop stop-color="#13313D"/>
</linearGradient>
<linearGradient id="paint56_linear_12_989" x1="943.904" y1="634.279" x2="943.904" y2="634.279" gradientUnits="userSpaceOnUse">
<stop stop-color="#13313D"/>
</linearGradient>
<linearGradient id="paint57_linear_12_989" x1="943.904" y1="634.279" x2="943.904" y2="634.279" gradientUnits="userSpaceOnUse">
<stop stop-color="#13313D"/>
</linearGradient>
<linearGradient id="paint58_linear_12_989" x1="943.904" y1="634.278" x2="943.904" y2="634.278" gradientUnits="userSpaceOnUse">
<stop stop-color="#13313D"/>
</linearGradient>
<linearGradient id="paint59_linear_12_989" x1="943.904" y1="634.278" x2="943.904" y2="634.278" gradientUnits="userSpaceOnUse">
<stop stop-color="#13313D"/>
</linearGradient>
<linearGradient id="paint60_linear_12_989" x1="943.905" y1="634.279" x2="943.905" y2="634.279" gradientUnits="userSpaceOnUse">
<stop stop-color="#13313D"/>
</linearGradient>
<linearGradient id="paint61_linear_12_989" x1="943.904" y1="634.279" x2="943.904" y2="634.279" gradientUnits="userSpaceOnUse">
<stop stop-color="#13313D"/>
</linearGradient>
<linearGradient id="paint62_linear_12_989" x1="943.903" y1="634.279" x2="943.903" y2="634.279" gradientUnits="userSpaceOnUse">
<stop stop-color="#13313D"/>
</linearGradient>
<linearGradient id="paint63_linear_12_989" x1="943.904" y1="634.279" x2="943.904" y2="634.279" gradientUnits="userSpaceOnUse">
<stop stop-color="#13313D"/>
</linearGradient>
<linearGradient id="paint64_linear_12_989" x1="943.905" y1="634.279" x2="943.905" y2="634.279" gradientUnits="userSpaceOnUse">
<stop stop-color="#13313D"/>
</linearGradient>
<linearGradient id="paint65_linear_12_989" x1="943.905" y1="634.279" x2="943.905" y2="634.279" gradientUnits="userSpaceOnUse">
<stop stop-color="#13313D"/>
</linearGradient>
<linearGradient id="paint66_linear_12_989" x1="943.905" y1="634.278" x2="943.905" y2="634.278" gradientUnits="userSpaceOnUse">
<stop stop-color="#13313D"/>
</linearGradient>
<linearGradient id="paint67_linear_12_989" x1="943.904" y1="634.278" x2="943.904" y2="634.278" gradientUnits="userSpaceOnUse">
<stop stop-color="#13313D"/>
</linearGradient>
<linearGradient id="paint68_linear_12_989" x1="943.904" y1="634.278" x2="943.904" y2="634.278" gradientUnits="userSpaceOnUse">
<stop stop-color="#13313D"/>
</linearGradient>
<linearGradient id="paint69_linear_12_989" x1="943.904" y1="634.278" x2="943.904" y2="634.278" gradientUnits="userSpaceOnUse">
<stop stop-color="#13313D"/>
</linearGradient>
<linearGradient id="paint70_linear_12_989" x1="943.904" y1="634.278" x2="943.904" y2="634.278" gradientUnits="userSpaceOnUse">
<stop stop-color="#13313D"/>
</linearGradient>
<linearGradient id="paint71_linear_12_989" x1="943.904" y1="634.278" x2="943.904" y2="634.278" gradientUnits="userSpaceOnUse">
<stop stop-color="#13313D"/>
</linearGradient>
<linearGradient id="paint72_linear_12_989" x1="943.904" y1="634.279" x2="943.904" y2="634.279" gradientUnits="userSpaceOnUse">
<stop stop-color="#13313D"/>
</linearGradient>
<linearGradient id="paint73_linear_12_989" x1="943.905" y1="634.278" x2="943.905" y2="634.278" gradientUnits="userSpaceOnUse">
<stop stop-color="#13313D"/>
</linearGradient>
<linearGradient id="paint74_linear_12_989" x1="943.905" y1="634.279" x2="943.905" y2="634.279" gradientUnits="userSpaceOnUse">
<stop stop-color="#13313D"/>
</linearGradient>
<linearGradient id="paint75_linear_12_989" x1="943.904" y1="634.279" x2="943.904" y2="634.279" gradientUnits="userSpaceOnUse">
<stop stop-color="#13313D"/>
</linearGradient>
<linearGradient id="paint76_linear_12_989" x1="943.908" y1="634.279" x2="943.908" y2="634.279" gradientUnits="userSpaceOnUse">
<stop stop-color="#13313D"/>
</linearGradient>
<linearGradient id="paint77_linear_12_989" x1="943.905" y1="634.279" x2="943.905" y2="634.279" gradientUnits="userSpaceOnUse">
<stop stop-color="#13313D"/>
</linearGradient>
<linearGradient id="paint78_linear_12_989" x1="943.905" y1="634.278" x2="943.905" y2="634.278" gradientUnits="userSpaceOnUse">
<stop stop-color="#13313D"/>
</linearGradient>
<linearGradient id="paint79_linear_12_989" x1="943.904" y1="634.278" x2="943.904" y2="634.278" gradientUnits="userSpaceOnUse">
<stop stop-color="#13313D"/>
</linearGradient>
<linearGradient id="paint80_linear_12_989" x1="943.905" y1="634.278" x2="943.905" y2="634.278" gradientUnits="userSpaceOnUse">
<stop stop-color="#13313D"/>
</linearGradient>
<linearGradient id="paint81_linear_12_989" x1="943.904" y1="634.279" x2="943.904" y2="634.279" gradientUnits="userSpaceOnUse">
<stop stop-color="#13313D"/>
</linearGradient>
<linearGradient id="paint82_linear_12_989" x1="943.904" y1="634.279" x2="943.904" y2="634.279" gradientUnits="userSpaceOnUse">
<stop stop-color="#13313D"/>
</linearGradient>
<linearGradient id="paint83_linear_12_989" x1="943.904" y1="634.279" x2="943.904" y2="634.279" gradientUnits="userSpaceOnUse">
<stop stop-color="#13313D"/>
</linearGradient>
<linearGradient id="paint84_linear_12_989" x1="943.897" y1="634.279" x2="943.897" y2="634.279" gradientUnits="userSpaceOnUse">
<stop stop-color="#13313D"/>
</linearGradient>
<linearGradient id="paint85_linear_12_989" x1="943.905" y1="634.279" x2="943.905" y2="634.279" gradientUnits="userSpaceOnUse">
<stop stop-color="#13313D"/>
</linearGradient>
<linearGradient id="paint86_linear_12_989" x1="943.904" y1="634.279" x2="943.904" y2="634.279" gradientUnits="userSpaceOnUse">
<stop stop-color="#13313D"/>
</linearGradient>
<linearGradient id="paint87_linear_12_989" x1="943.908" y1="634.279" x2="943.908" y2="634.279" gradientUnits="userSpaceOnUse">
<stop stop-color="#13313D"/>
</linearGradient>
<linearGradient id="paint88_linear_12_989" x1="943.905" y1="634.279" x2="943.905" y2="634.279" gradientUnits="userSpaceOnUse">
<stop stop-color="#13313D"/>
</linearGradient>
<linearGradient id="paint89_linear_12_989" x1="943.902" y1="634.279" x2="943.903" y2="634.279" gradientUnits="userSpaceOnUse">
<stop stop-color="#13313D"/>
</linearGradient>
<linearGradient id="paint90_linear_12_989" x1="943.908" y1="634.279" x2="943.908" y2="634.279" gradientUnits="userSpaceOnUse">
<stop stop-color="#13313D"/>
</linearGradient>
<linearGradient id="paint91_linear_12_989" x1="943.904" y1="634.278" x2="943.904" y2="634.278" gradientUnits="userSpaceOnUse">
<stop stop-color="#13313D"/>
</linearGradient>
<linearGradient id="paint92_linear_12_989" x1="943.905" y1="634.279" x2="943.905" y2="634.279" gradientUnits="userSpaceOnUse">
<stop stop-color="#13313D"/>
</linearGradient>
<clipPath id="clip0_12_989">
<rect width="768" height="768" fill="white" transform="translate(128)"/>
</clipPath>
</defs>
</svg>
