<svg width="1024" height="768" viewBox="0 0 1024 768" fill="none" xmlns="http://www.w3.org/2000/svg">
<rect width="1024" height="768" fill="black"/>
<g clip-path="url(#clip0_9_27)">
<path d="M896 0H128V768H896V0Z" fill="url(#paint0_linear_9_27)"/>
<path opacity="0.6" d="M573.44 399.36V721.92H896V399.36H573.44Z" fill="url(#paint1_linear_9_27)"/>
<path opacity="0.6" d="M727.04 476.16H404.48V768H727.04V476.16Z" fill="#F3F5EC"/>
<path opacity="0.6" d="M128 430.08L128 752.64H450.56V430.08H128Z" fill="url(#paint2_linear_9_27)"/>
<path opacity="0.6" d="M711.68 430.08H896V9.15527e-05H711.68V430.08Z" fill="#F3F5EC"/>
<path opacity="0.6" d="M296.96 15.3599V337.92H742.4V15.3599H296.96Z" fill="url(#paint3_linear_9_27)"/>
<path d="M455.885 184.32V195.297H470.631V184.32H455.885ZM455.885 198.492V243.548C455.885 244.859 455.421 245.705 454.492 246.088C453.564 246.47 452.253 246.661 450.56 246.661V256.573C451.652 256.683 452.717 256.765 453.755 256.819C454.793 256.928 455.858 256.983 456.95 256.983C458.861 256.983 460.636 256.847 462.275 256.573C463.968 256.355 465.415 255.836 466.616 255.017C467.873 254.252 468.856 253.106 469.566 251.576C470.276 250.047 470.631 247.999 470.631 245.432V198.492L455.885 198.492Z" fill="url(#paint4_linear_9_27)"/>
<path d="M498.319 213.156V215.122H490.209V213.156C490.209 210.807 490.482 209.087 491.028 207.995C491.629 206.903 492.694 206.356 494.223 206.356C495.807 206.356 496.872 206.903 497.418 207.995C498.019 209.087 498.319 210.807 498.319 213.156ZM490.209 223.15H512.082V218.644C512.082 214.603 511.699 211.244 510.935 208.568C510.225 205.838 509.105 203.653 507.576 202.015C506.102 200.322 504.245 199.12 502.006 198.41C499.821 197.7 497.254 197.345 494.305 197.345C490.974 197.345 488.107 197.782 485.704 198.656C483.355 199.475 481.416 200.813 479.887 202.67C478.358 204.527 477.239 206.93 476.529 209.879C475.819 212.828 475.464 216.433 475.464 220.692C475.464 224.898 475.764 228.475 476.365 231.424C477.02 234.373 478.085 236.776 479.56 238.633C481.034 240.435 482.973 241.746 485.376 242.565C487.779 243.33 490.755 243.712 494.305 243.712C500.422 243.712 504.818 242.347 507.494 239.616C510.17 236.831 511.563 232.707 511.672 227.246H498.401C498.401 230.25 498.019 232.298 497.254 233.39C496.544 234.428 495.534 234.946 494.223 234.946C493.186 234.946 492.257 234.564 491.438 233.8C490.619 232.98 490.209 231.369 490.209 228.966V223.15Z" fill="url(#paint5_linear_9_27)"/>
<path d="M538.214 215.859H551.485C551.485 213.074 551.212 210.562 550.666 208.322C550.175 206.029 549.274 204.09 547.963 202.506C546.707 200.868 544.986 199.612 542.802 198.738C540.672 197.809 537.969 197.345 534.692 197.345C531.907 197.345 529.312 197.618 526.909 198.164C524.506 198.711 522.404 199.83 520.602 201.523C518.854 203.216 517.461 205.646 516.424 208.814C515.386 211.982 514.867 216.187 514.867 221.43C514.867 226.236 515.331 230.113 516.26 233.062C517.188 235.957 518.472 238.223 520.11 239.862C521.803 241.445 523.824 242.483 526.172 242.975C528.52 243.466 531.115 243.712 533.955 243.712C540.235 243.712 544.768 242.237 547.553 239.288C548.973 237.704 549.984 235.684 550.584 233.226C551.185 230.769 551.485 227.792 551.485 224.297H538.214V227.164C538.214 229.949 537.832 231.861 537.068 232.898C536.358 233.936 535.32 234.455 533.955 234.455C533.135 234.455 532.425 234.264 531.825 233.881C531.279 233.445 530.842 232.707 530.514 231.67C530.186 230.632 529.94 229.239 529.777 227.492C529.667 225.689 529.613 223.423 529.613 220.692C529.613 217.962 529.667 215.723 529.777 213.975C529.94 212.173 530.186 210.753 530.514 209.715C530.842 208.623 531.279 207.886 531.825 207.503C532.425 207.066 533.135 206.848 533.955 206.848C535.538 206.848 536.631 207.476 537.231 208.732C537.559 209.442 537.805 210.37 537.969 211.517C538.132 212.61 538.214 214.057 538.214 215.859Z" fill="url(#paint6_linear_9_27)"/>
<path d="M552.796 198.492V208.405H557.711V231.998C557.711 234.455 557.93 236.449 558.366 237.978C558.858 239.452 559.595 240.572 560.578 241.336C561.616 242.101 562.927 242.593 564.51 242.811C566.094 242.975 568.006 243.057 570.245 243.057C571.501 243.057 572.812 243.002 574.177 242.893C575.542 242.838 576.908 242.811 578.273 242.811V232.981H575.979C574.778 232.981 573.877 232.735 573.276 232.243C572.73 231.697 572.457 230.796 572.457 229.54V208.405H578.273V198.492H572.457V185.467H557.711V198.492H552.796Z" fill="url(#paint7_linear_9_27)"/>
<path d="M592.773 229.048H579.829C579.829 233.909 581.167 237.568 583.843 240.025C586.574 242.483 591.025 243.712 597.196 243.712C599.982 243.712 602.467 243.384 604.651 242.729C606.89 242.074 608.747 241.09 610.222 239.78C611.751 238.469 612.925 236.913 613.744 235.11C614.563 233.308 614.973 231.315 614.973 229.13C614.973 226.29 614.427 224.024 613.335 222.331C612.297 220.583 610.986 219.218 609.402 218.235C607.819 217.197 606.098 216.405 604.241 215.859C602.439 215.313 600.746 214.794 599.162 214.303C597.579 213.811 596.241 213.265 595.148 212.664C594.111 212.009 593.592 211.053 593.592 209.797C593.592 208.705 593.947 207.858 594.657 207.258C595.367 206.657 596.268 206.356 597.36 206.356C598.616 206.356 599.572 206.711 600.227 207.421C600.937 208.077 601.292 209.36 601.292 211.272H614.072C614.072 201.987 608.529 197.345 597.442 197.345C594.438 197.345 591.817 197.7 589.578 198.41C587.393 199.12 585.564 200.103 584.089 201.359C582.669 202.615 581.604 204.09 580.894 205.783C580.184 207.421 579.829 209.224 579.829 211.19C579.829 213.975 580.348 216.241 581.386 217.989C582.478 219.682 583.816 221.047 585.4 222.085C586.984 223.123 588.677 223.942 590.479 224.543C592.336 225.143 594.056 225.717 595.64 226.263C597.224 226.809 598.534 227.437 599.572 228.147C600.664 228.857 601.21 229.867 601.21 231.178C601.21 232.38 600.774 233.308 599.9 233.963C599.08 234.619 598.097 234.946 596.951 234.946C595.585 234.946 594.548 234.428 593.838 233.39C593.455 232.898 593.182 232.27 593.018 231.506C592.855 230.741 592.773 229.922 592.773 229.048Z" fill="url(#paint8_linear_9_27)"/>
<path opacity="0.6" d="M128 414.72H435.2V0H128V414.72Z" fill="#F3F5EC"/>
<path d="M327.557 165.519V151.265H330.424C334.356 151.265 336.323 153.641 336.323 158.392C336.323 160.85 335.804 162.652 334.766 163.799C333.783 164.946 332.336 165.519 330.424 165.519H327.557ZM312.32 140.288V198.779H327.557V176.497H332.882C339.162 176.497 343.914 174.995 347.136 171.991C350.413 168.933 352.051 164.373 352.051 158.31C352.051 155.744 351.724 153.368 351.068 151.183C350.413 148.999 349.375 147.115 347.955 145.531C346.59 143.893 344.842 142.609 342.712 141.681C340.582 140.752 338.07 140.288 335.176 140.288H312.32Z" fill="url(#paint9_linear_9_27)"/>
<path d="M355.819 154.46V198.779H370.565V174.612C370.565 171.663 371.275 169.615 372.695 168.468C374.169 167.322 376.217 166.748 378.839 166.748C379.44 166.748 380.04 166.775 380.641 166.83C381.242 166.885 381.87 166.967 382.525 167.076V153.313H380.15C377.965 153.313 375.972 154.023 374.169 155.443C372.367 156.808 371.057 158.829 370.237 161.505H370.074V154.46L355.819 154.46Z" fill="url(#paint10_linear_9_27)"/>
<path d="M398.5 176.661C398.5 173.875 398.554 171.582 398.663 169.779C398.772 167.977 398.991 166.557 399.319 165.52C399.647 164.482 400.056 163.772 400.548 163.39C401.094 163.007 401.776 162.816 402.595 162.816C403.415 162.816 404.097 163.007 404.644 163.39C405.19 163.772 405.599 164.482 405.872 165.52C406.2 166.557 406.419 167.977 406.528 169.779C406.637 171.582 406.691 173.875 406.691 176.661C406.691 179.446 406.637 181.74 406.528 183.542C406.419 185.29 406.2 186.682 405.872 187.72C405.599 188.757 405.19 189.467 404.644 189.85C404.097 190.232 403.415 190.423 402.595 190.423C401.776 190.423 401.094 190.232 400.548 189.85C400.056 189.467 399.646 188.757 399.319 187.72C398.991 186.682 398.772 185.29 398.663 183.542C398.554 181.74 398.5 179.446 398.5 176.661ZM421.437 176.661C421.437 173.438 421.246 170.435 420.864 167.649C420.536 164.81 419.744 162.325 418.488 160.195C417.232 158.065 415.348 156.399 412.835 155.198C410.323 153.942 406.91 153.313 402.595 153.313C398.445 153.313 395.113 153.996 392.601 155.361C390.144 156.672 388.26 158.42 386.949 160.604C385.638 162.789 384.764 165.274 384.327 168.059C383.945 170.844 383.754 173.684 383.754 176.579C383.754 179.801 383.918 182.832 384.246 185.672C384.628 188.457 385.447 190.915 386.703 193.045C387.959 195.12 389.843 196.758 392.356 197.96C394.868 199.107 398.281 199.68 402.595 199.68C406.746 199.68 410.05 199.052 412.508 197.796C415.02 196.485 416.932 194.765 418.242 192.635C419.553 190.451 420.399 187.966 420.782 185.18C421.219 182.395 421.437 179.555 421.437 176.661Z" fill="url(#paint11_linear_9_27)"/>
<path d="M482.754 408.68H491.028V403.519H482.754V408.68ZM498.975 408.68H541.245V403.519H498.975V408.68Z" fill="url(#paint12_linear_9_27)"/>
<path d="M498.975 393.689H541.245V388.528H516.587C514.512 388.473 512.601 388.146 510.853 387.545C509.051 386.89 507.522 386.016 506.266 384.924C504.955 383.777 503.944 382.411 503.234 380.828C502.47 379.189 502.088 377.332 502.088 375.257C502.088 373.182 502.415 371.461 503.071 370.096C503.726 368.676 504.627 367.557 505.774 366.737C506.921 365.918 508.286 365.345 509.87 365.017C511.399 364.689 513.065 364.525 514.867 364.525H541.245V359.364H514.048C511.536 359.364 509.269 359.61 507.249 360.102C505.228 360.593 503.535 361.44 502.169 362.641C500.75 363.843 499.657 365.454 498.893 367.475C498.128 369.441 497.746 371.898 497.746 374.847C497.746 377.851 498.538 380.609 500.122 383.121C501.651 385.633 503.699 387.381 506.266 388.364V388.528H498.975V393.689Z" fill="url(#paint13_linear_9_27)"/>
<path d="M757.924 493.281V503.194H762.839V526.787C762.839 529.244 763.057 531.238 763.494 532.767C763.986 534.241 764.723 535.361 765.706 536.126C766.744 536.89 768.055 537.382 769.638 537.6C771.222 537.764 773.134 537.846 775.373 537.846C776.629 537.846 777.94 537.791 779.305 537.682C780.67 537.627 782.036 537.6 783.401 537.6V527.77H781.107C779.906 527.77 779.005 527.524 778.404 527.032C777.858 526.486 777.585 525.585 777.585 524.329V503.194H783.401V493.281H777.585V480.256H762.839V493.281H757.924Z" fill="url(#paint14_linear_9_27)"/>
<path d="M786.104 493.281V537.6H800.85V513.434C800.85 510.485 801.56 508.437 802.98 507.29C804.454 506.143 806.502 505.569 809.124 505.569C809.724 505.569 810.325 505.597 810.926 505.651C811.527 505.706 812.155 505.788 812.81 505.897V492.135H810.434C808.25 492.135 806.257 492.845 804.454 494.264C802.652 495.63 801.341 497.65 800.522 500.327H800.358V493.281L786.104 493.281Z" fill="url(#paint15_linear_9_27)"/>
<path d="M817.971 541.123V551.444C819.227 551.554 820.51 551.636 821.821 551.69C823.187 551.745 824.661 551.772 826.245 551.772C828.211 551.772 829.959 551.581 831.488 551.199C833.017 550.816 834.355 550.134 835.502 549.151C836.703 548.168 837.714 546.83 838.533 545.137C839.407 543.498 840.171 541.396 840.827 538.829L852.705 493.281H837.959L833.7 523.182H833.536L829.03 493.281H813.875L825.508 535.06C825.671 535.661 825.808 536.235 825.917 536.781C826.081 537.327 826.163 537.764 826.163 538.091C826.163 538.31 826.081 538.61 825.917 538.993C825.753 539.375 825.48 539.73 825.098 540.058C824.716 540.44 824.197 540.767 823.542 541.041C822.941 541.314 822.176 541.45 821.248 541.45C820.702 541.45 820.156 541.423 819.609 541.368C819.063 541.314 818.517 541.232 817.971 541.123Z" fill="url(#paint16_linear_9_27)"/>
<path d="M606.001 561.068C606.001 558.665 606.055 556.671 606.164 555.087C606.274 553.504 606.465 552.247 606.738 551.319C607.066 550.336 607.503 549.653 608.049 549.271C608.595 548.889 609.305 548.698 610.179 548.698C610.998 548.698 611.681 548.889 612.227 549.271C612.773 549.653 613.182 550.336 613.455 551.319C613.783 552.247 614.002 553.504 614.111 555.087C614.22 556.671 614.275 558.665 614.275 561.068C614.275 563.416 614.22 565.382 614.111 566.966C614.002 568.55 613.783 569.833 613.455 570.816C613.183 571.744 612.773 572.4 612.227 572.782C611.681 573.164 610.998 573.356 610.179 573.356C609.305 573.356 608.595 573.164 608.049 572.782C607.503 572.4 607.066 571.744 606.738 570.816C606.465 569.833 606.274 568.55 606.164 566.966C606.055 565.382 606.001 563.416 606.001 561.068ZM614.275 524.695V543.864H614.111C613.346 541.571 612.118 539.987 610.425 539.113C608.786 538.185 606.929 537.72 604.854 537.72C602.833 537.72 600.976 538.103 599.283 538.867C597.59 539.632 596.143 540.888 594.942 542.636C593.795 544.383 592.894 546.677 592.238 549.517C591.583 552.357 591.255 555.879 591.255 560.084C591.255 568.331 592.238 574.393 594.204 578.271C596.171 582.148 599.611 584.087 604.526 584.087C607.148 584.087 609.25 583.541 610.834 582.449C612.418 581.356 613.674 579.581 614.603 577.124H614.766V583.186H629.02V524.695H614.275Z" fill="url(#paint17_linear_9_27)"/>
<path d="M635.164 538.867V572.29C635.164 574.639 635.465 576.605 636.065 578.189C636.666 579.718 637.485 580.947 638.523 581.875C639.561 582.749 640.762 583.322 642.127 583.595C643.547 583.923 645.077 584.087 646.715 584.087C652.013 584.087 655.59 581.985 657.447 577.779H657.61V583.186H671.864V538.867H657.119V568.113C657.119 569.97 656.846 571.308 656.3 572.127C655.753 572.946 654.825 573.356 653.514 573.356C652.204 573.356 651.275 572.946 650.729 572.127C650.183 571.308 649.91 569.97 649.91 568.113V538.867L635.164 538.867Z" fill="url(#paint18_linear_9_27)"/>
<path d="M689.149 569.423H676.206C676.206 574.284 677.544 577.943 680.22 580.4C682.951 582.858 687.402 584.087 693.573 584.087C696.358 584.087 698.843 583.759 701.028 583.104C703.267 582.448 705.124 581.465 706.598 580.155C708.127 578.844 709.302 577.288 710.121 575.485C710.94 573.683 711.35 571.69 711.35 569.505C711.35 566.665 710.804 564.399 709.711 562.706C708.674 560.958 707.363 559.593 705.779 558.61C704.195 557.572 702.475 556.78 700.618 556.234C698.816 555.688 697.123 555.169 695.539 554.678C693.955 554.186 692.617 553.64 691.525 553.039C690.487 552.384 689.969 551.428 689.969 550.172C689.969 549.08 690.324 548.233 691.034 547.633C691.744 547.032 692.645 546.731 693.737 546.731C694.993 546.731 695.949 547.086 696.604 547.796C697.314 548.452 697.669 549.735 697.669 551.647H710.449C710.449 542.362 704.905 537.72 693.819 537.72C690.815 537.72 688.194 538.075 685.954 538.785C683.77 539.495 681.94 540.478 680.466 541.734C679.046 542.99 677.981 544.465 677.271 546.158C676.561 547.796 676.206 549.599 676.206 551.565C676.206 554.35 676.725 556.616 677.762 558.364C678.855 560.057 680.193 561.422 681.777 562.46C683.36 563.498 685.053 564.317 686.856 564.918C688.712 565.518 690.433 566.092 692.017 566.638C693.6 567.184 694.911 567.812 695.949 568.522C697.041 569.232 697.587 570.242 697.587 571.553C697.587 572.755 697.15 573.683 696.276 574.338C695.457 574.994 694.474 575.321 693.327 575.321C691.962 575.321 690.924 574.803 690.214 573.765C689.832 573.273 689.559 572.645 689.395 571.881C689.231 571.116 689.149 570.297 689.149 569.423Z" fill="url(#paint19_linear_9_27)"/>
<path d="M484.822 571.269V629.76H500.059V571.269H484.822Z" fill="url(#paint20_linear_9_27)"/>
<path d="M506.039 585.441V629.76H520.785V600.515C520.785 598.658 521.058 597.32 521.604 596.501C522.15 595.681 523.078 595.272 524.389 595.272C525.7 595.272 526.628 595.681 527.174 596.501C527.721 597.32 527.994 598.658 527.994 600.515V629.76H542.739V596.337C542.739 593.934 542.439 591.968 541.838 590.439C541.237 588.909 540.418 587.681 539.38 586.752C538.343 585.824 537.114 585.196 535.694 584.868C534.329 584.486 532.827 584.294 531.188 584.294C525.946 584.294 522.368 586.479 520.457 590.848H520.293V585.441L506.039 585.441Z" fill="url(#paint21_linear_9_27)"/>
<path d="M166.774 698.327C165.114 698.327 163.76 698.698 162.711 699.441C161.663 700.162 160.843 701.09 160.253 702.226C159.685 703.362 159.292 704.629 159.074 706.027C158.877 707.426 158.779 708.802 158.779 710.156C158.779 711.489 158.877 712.854 159.074 714.252C159.292 715.65 159.685 716.917 160.253 718.053C160.843 719.189 161.663 720.118 162.711 720.839C163.76 721.559 165.114 721.92 166.774 721.92C168.456 721.92 169.811 721.559 170.838 720.839C171.886 720.118 172.694 719.189 173.262 718.053C173.852 716.917 174.245 715.65 174.442 714.252C174.661 712.854 174.77 711.478 174.77 710.123C174.77 708.791 174.661 707.426 174.442 706.027C174.245 704.629 173.852 703.362 173.262 702.226C172.694 701.09 171.886 700.162 170.838 699.441C169.811 698.698 168.456 698.327 166.774 698.327ZM166.774 700.064C168.085 700.064 169.134 700.402 169.92 701.079C170.706 701.757 171.296 702.598 171.69 703.603C172.105 704.607 172.378 705.7 172.509 706.879C172.64 708.059 172.706 709.14 172.706 710.123C172.706 711.128 172.64 712.221 172.509 713.4C172.378 714.558 172.104 715.65 171.69 716.677C171.296 717.682 170.706 718.523 169.92 719.2C169.134 719.877 168.085 720.216 166.774 720.216C165.464 720.216 164.415 719.877 163.629 719.2C162.842 718.523 162.241 717.682 161.826 716.677C161.433 715.65 161.171 714.558 161.04 713.4C160.909 712.221 160.843 711.128 160.843 710.123C160.843 709.14 160.909 708.059 161.04 706.879C161.171 705.7 161.433 704.607 161.826 703.603C162.241 702.598 162.842 701.757 163.629 701.079C164.415 700.402 165.464 700.064 166.774 700.064Z" fill="url(#paint22_linear_9_27)"/>
<path d="M177.555 698.819V700.719H190.236C188.641 702.532 187.276 704.269 186.14 705.929C185.026 707.589 184.087 709.25 183.322 710.91C182.579 712.548 182 714.23 181.585 715.956C181.192 717.682 180.93 719.517 180.799 721.461H183.027C183.158 718.796 183.573 716.36 184.272 714.154C184.993 711.926 185.823 709.949 186.763 708.223C187.724 706.475 188.707 704.979 189.712 703.734C190.717 702.467 191.58 701.462 192.3 700.719V698.819H177.555Z" fill="url(#paint23_linear_9_27)"/>
<path d="M197.281 721.461H200.034V717.988H197.281V721.461Z" fill="url(#paint24_linear_9_27)"/>
<path d="M206.391 702.947V704.422H212.453V721.461H214.517V698.524H212.846C212.693 699.572 212.431 700.391 212.06 700.981C211.71 701.549 211.262 701.975 210.716 702.259C210.192 702.543 209.558 702.729 208.816 702.816C208.095 702.882 207.287 702.925 206.391 702.947Z" fill="url(#paint25_linear_9_27)"/>
<path d="M237.717 721.461V719.561H224.97C225.101 718.796 225.429 718.097 225.953 717.463C226.478 716.808 227.078 716.207 227.755 715.661C228.454 715.115 229.175 714.624 229.918 714.187C230.661 713.728 231.305 713.313 231.851 712.941C232.616 712.461 233.337 711.948 234.014 711.401C234.713 710.833 235.325 710.222 235.849 709.566C236.395 708.911 236.821 708.19 237.127 707.404C237.455 706.617 237.619 705.743 237.619 704.782C237.619 703.712 237.433 702.773 237.062 701.964C236.712 701.156 236.21 700.49 235.554 699.965C234.921 699.419 234.167 699.015 233.293 698.753C232.441 698.469 231.513 698.327 230.508 698.327C229.263 698.327 228.17 698.534 227.231 698.95C226.314 699.343 225.549 699.9 224.937 700.621C224.326 701.342 223.867 702.204 223.561 703.209C223.277 704.192 223.146 705.274 223.168 706.453H225.232C225.209 705.601 225.286 704.793 225.462 704.028C225.658 703.264 225.964 702.587 226.379 701.997C226.794 701.407 227.33 700.937 227.985 700.588C228.662 700.238 229.47 700.064 230.41 700.064C231.109 700.064 231.764 700.173 232.376 700.391C233.009 700.588 233.555 700.894 234.014 701.309C234.495 701.702 234.866 702.193 235.128 702.783C235.412 703.351 235.554 704.006 235.554 704.749C235.554 705.667 235.391 706.464 235.063 707.141C234.757 707.797 234.287 708.441 233.654 709.075C233.02 709.708 232.299 710.309 231.491 710.877C230.705 711.423 229.907 711.969 229.099 712.515C228.291 713.04 227.504 713.597 226.74 714.186C225.975 714.754 225.287 715.388 224.675 716.087C224.064 716.786 223.572 717.572 223.201 718.446C222.829 719.32 222.633 720.325 222.611 721.461L237.717 721.461Z" fill="url(#paint26_linear_9_27)"/>
<path d="M242.829 721.461H245.581V717.988H242.829V721.461Z" fill="url(#paint27_linear_9_27)"/>
<path d="M265.045 721.461V719.561H252.299C252.43 718.796 252.758 718.097 253.282 717.463C253.806 716.808 254.407 716.207 255.084 715.661C255.783 715.115 256.504 714.624 257.247 714.187C257.989 713.728 258.634 713.313 259.18 712.941C259.944 712.461 260.665 711.948 261.343 711.401C262.042 710.833 262.653 710.222 263.178 709.566C263.724 708.911 264.15 708.19 264.456 707.404C264.783 706.617 264.947 705.743 264.947 704.782C264.947 703.712 264.762 702.773 264.39 701.964C264.041 701.156 263.538 700.49 262.883 699.965C262.249 699.419 261.496 699.015 260.622 698.753C259.77 698.469 258.841 698.327 257.836 698.327C256.591 698.327 255.499 698.534 254.56 698.95C253.642 699.343 252.878 699.9 252.266 700.621C251.654 701.342 251.195 702.204 250.89 703.209C250.605 704.192 250.474 705.274 250.497 706.453H252.561C252.538 705.601 252.614 704.793 252.79 704.028C252.987 703.264 253.293 702.587 253.708 701.997C254.123 701.407 254.658 700.937 255.313 700.588C255.991 700.238 256.799 700.064 257.738 700.064C258.437 700.064 259.093 700.173 259.704 700.391C260.338 700.588 260.884 700.894 261.343 701.309C261.823 701.702 262.195 702.193 262.457 702.783C262.741 703.351 262.883 704.006 262.883 704.749C262.883 705.667 262.719 706.464 262.391 707.141C262.085 707.797 261.616 708.441 260.982 709.075C260.349 709.708 259.628 710.309 258.819 710.877C258.033 711.423 257.236 711.969 256.427 712.515C255.619 713.04 254.833 713.597 254.068 714.186C253.304 714.754 252.615 715.388 252.004 716.087C251.392 716.786 250.901 717.572 250.529 718.446C250.158 719.32 249.961 720.325 249.939 721.461L265.045 721.461Z" fill="url(#paint28_linear_9_27)"/>
<path d="M276.088 698.327C274.428 698.327 273.073 698.698 272.025 699.441C270.976 700.162 270.157 701.09 269.567 702.226C268.999 703.362 268.606 704.629 268.388 706.027C268.191 707.426 268.093 708.802 268.093 710.156C268.093 711.489 268.191 712.854 268.388 714.252C268.606 715.65 268.999 716.917 269.567 718.053C270.157 719.189 270.976 720.118 272.025 720.839C273.073 721.559 274.428 721.92 276.088 721.92C277.77 721.92 279.125 721.559 280.151 720.839C281.2 720.118 282.008 719.189 282.576 718.053C283.166 716.917 283.559 715.65 283.756 714.252C283.974 712.854 284.084 711.478 284.084 710.123C284.084 708.791 283.974 707.426 283.756 706.027C283.559 704.629 283.166 703.362 282.576 702.226C282.008 701.09 281.2 700.162 280.151 699.441C279.125 698.698 277.77 698.327 276.088 698.327ZM276.088 700.064C277.399 700.064 278.447 700.402 279.234 701.079C280.02 701.757 280.61 702.598 281.003 703.603C281.418 704.607 281.692 705.7 281.823 706.879C281.954 708.059 282.019 709.14 282.019 710.123C282.019 711.128 281.954 712.221 281.823 713.4C281.691 714.558 281.418 715.65 281.003 716.677C280.61 717.682 280.02 718.523 279.234 719.2C278.447 719.877 277.399 720.216 276.088 720.216C274.777 720.216 273.729 719.877 272.942 719.2C272.156 718.523 271.555 717.682 271.14 716.677C270.747 715.65 270.485 714.558 270.354 713.4C270.223 712.221 270.157 711.128 270.157 710.123C270.157 709.14 270.223 708.059 270.354 706.879C270.485 705.7 270.747 704.607 271.14 703.603C271.555 702.598 272.156 701.757 272.942 701.079C273.729 700.402 274.777 700.064 276.088 700.064Z" fill="url(#paint29_linear_9_27)"/>
<path d="M301.483 721.461V719.561H288.737C288.868 718.796 289.196 718.097 289.72 717.463C290.244 716.808 290.845 716.207 291.522 715.661C292.221 715.115 292.942 714.624 293.685 714.187C294.427 713.728 295.072 713.313 295.618 712.941C296.383 712.461 297.103 711.948 297.781 711.401C298.48 710.833 299.091 710.222 299.616 709.566C300.162 708.911 300.588 708.19 300.894 707.404C301.221 706.617 301.385 705.743 301.385 704.782C301.385 703.712 301.2 702.773 300.829 701.964C300.479 701.156 299.977 700.49 299.321 699.965C298.688 699.419 297.934 699.015 297.06 698.753C296.208 698.469 295.28 698.327 294.275 698.327C293.03 698.327 291.938 698.534 290.998 698.95C290.081 699.343 289.316 699.9 288.704 700.621C288.093 701.342 287.634 702.204 287.328 703.209C287.044 704.192 286.913 705.274 286.935 706.453H289C288.976 705.601 289.053 704.793 289.229 704.028C289.425 703.264 289.731 702.587 290.146 701.997C290.561 701.407 291.097 700.937 291.752 700.588C292.429 700.238 293.237 700.064 294.177 700.064C294.876 700.064 295.531 700.173 296.143 700.391C296.776 700.588 297.323 700.894 297.781 701.309C298.262 701.702 298.633 702.193 298.895 702.783C299.179 703.351 299.322 704.006 299.322 704.749C299.322 705.667 299.158 706.464 298.83 707.141C298.524 707.797 298.054 708.441 297.421 709.075C296.787 709.708 296.066 710.309 295.258 710.877C294.472 711.423 293.674 711.969 292.866 712.515C292.058 713.04 291.271 713.597 290.507 714.186C289.742 714.754 289.054 715.388 288.442 716.087C287.831 716.786 287.339 717.572 286.968 718.446C286.596 719.32 286.4 720.325 286.378 721.461L301.483 721.461Z" fill="url(#paint30_linear_9_27)"/>
<path d="M306.595 702.947V704.422H312.657V721.461H314.722V698.524H313.051C312.898 699.572 312.635 700.391 312.264 700.981C311.914 701.549 311.467 701.975 310.921 702.259C310.396 702.543 309.763 702.729 309.02 702.816C308.299 702.882 307.491 702.925 306.595 702.947Z" fill="url(#paint31_linear_9_27)"/>
<path d="M158.72 577.413H160.621V569.287H182.116V567.058H160.621V558.899H158.72V577.413Z" fill="url(#paint32_linear_9_27)"/>
<path d="M182.116 546.415H165.208V548.479H174.088C174.94 548.479 175.781 548.577 176.611 548.774C177.42 548.97 178.141 549.276 178.774 549.691C179.408 550.106 179.921 550.631 180.314 551.264C180.685 551.898 180.871 552.662 180.871 553.558C180.871 555.196 180.478 556.354 179.691 557.031C178.905 557.687 177.747 558.036 176.218 558.08H165.208V560.144H176.185C177.19 560.144 178.086 560.035 178.872 559.817C179.659 559.598 180.325 559.26 180.871 558.801C181.417 558.32 181.832 557.709 182.116 556.966C182.422 556.201 182.575 555.284 182.575 554.213C182.575 552.946 182.28 551.799 181.69 550.773C181.078 549.724 180.205 548.927 179.069 548.381V548.315H182.116L182.116 546.415Z" fill="url(#paint33_linear_9_27)"/>
<path d="M172.483 530.358V541.303C171.718 541.215 170.975 541.041 170.254 540.779C169.512 540.495 168.867 540.123 168.321 539.664C167.753 539.206 167.305 538.649 166.978 537.993C166.628 537.338 166.453 536.584 166.453 535.732C166.453 534.902 166.628 534.159 166.978 533.504C167.305 532.849 167.753 532.292 168.321 531.833C168.867 531.374 169.501 531.025 170.222 530.784C170.943 530.522 171.696 530.38 172.483 530.358ZM174.219 541.303V528.294C173.04 528.25 171.882 528.359 170.746 528.622C169.588 528.884 168.572 529.321 167.699 529.932C166.803 530.522 166.082 531.298 165.536 532.259C164.99 533.22 164.717 534.378 164.717 535.732C164.717 537.065 164.979 538.223 165.503 539.206C166.006 540.167 166.683 540.953 167.535 541.565C168.365 542.177 169.315 542.635 170.385 542.941C171.456 543.225 172.548 543.367 173.662 543.367C174.864 543.367 176.011 543.225 177.103 542.941C178.173 542.635 179.124 542.177 179.954 541.565C180.762 540.953 181.406 540.167 181.887 539.206C182.346 538.223 182.575 537.065 182.575 535.732C182.575 533.591 182.051 531.942 181.002 530.784C179.954 529.605 178.468 528.796 176.546 528.359V530.424C177.857 530.751 178.905 531.341 179.692 532.193C180.478 533.045 180.871 534.225 180.871 535.732C180.871 536.715 180.664 537.556 180.249 538.255C179.834 538.954 179.309 539.533 178.676 539.992C178.042 540.451 177.332 540.789 176.546 541.008C175.738 541.204 174.962 541.303 174.219 541.303Z" fill="url(#paint34_linear_9_27)"/>
<path d="M170.156 515.383V513.319C169.238 513.363 168.441 513.548 167.764 513.876C167.087 514.204 166.519 514.652 166.06 515.22C165.601 515.766 165.263 516.41 165.044 517.153C164.826 517.874 164.716 518.66 164.716 519.512C164.716 520.255 164.804 521.009 164.979 521.773C165.154 522.516 165.427 523.193 165.798 523.805C166.169 524.416 166.661 524.919 167.272 525.312C167.884 525.683 168.616 525.869 169.468 525.869C170.189 525.869 170.8 525.749 171.303 525.509C171.783 525.268 172.198 524.941 172.548 524.526C172.876 524.089 173.16 523.586 173.4 523.018C173.618 522.45 173.815 521.828 173.99 521.151L174.58 518.496C174.689 518.038 174.82 517.59 174.973 517.153C175.126 516.694 175.322 516.29 175.562 515.94C175.781 515.591 176.065 515.318 176.414 515.121C176.742 514.903 177.157 514.794 177.66 514.794C178.249 514.794 178.752 514.947 179.167 515.252C179.56 515.536 179.888 515.908 180.15 516.366C180.412 516.825 180.598 517.328 180.707 517.874C180.816 518.398 180.871 518.911 180.871 519.414C180.871 520.79 180.521 521.948 179.822 522.887C179.102 523.805 178.042 524.307 176.644 524.395V526.459C178.719 526.284 180.227 525.585 181.166 524.362C182.105 523.117 182.575 521.5 182.575 519.512C182.575 518.726 182.487 517.928 182.313 517.12C182.138 516.312 181.854 515.591 181.461 514.957C181.045 514.302 180.521 513.767 179.888 513.352C179.232 512.937 178.446 512.729 177.528 512.729C176.786 512.729 176.141 512.871 175.595 513.155C175.049 513.439 174.59 513.811 174.219 514.269C173.847 514.706 173.552 515.22 173.334 515.809C173.094 516.377 172.93 516.956 172.842 517.546L172.22 520.299C172.132 520.648 172.023 521.03 171.892 521.446C171.739 521.861 171.554 522.243 171.335 522.592C171.117 522.942 170.855 523.237 170.549 523.477C170.221 523.696 169.828 523.805 169.369 523.805C168.823 523.805 168.364 523.685 167.993 523.444C167.621 523.204 167.326 522.887 167.108 522.494C166.868 522.101 166.704 521.675 166.616 521.216C166.507 520.735 166.453 520.266 166.453 519.807C166.453 519.217 166.529 518.66 166.682 518.136C166.813 517.612 167.032 517.153 167.337 516.76C167.643 516.345 168.036 516.017 168.517 515.777C168.976 515.536 169.522 515.405 170.156 515.383Z" fill="url(#paint35_linear_9_27)"/>
<path d="M182.116 494.871H158.72V496.935H168.419V497.001C167.808 497.219 167.272 497.536 166.814 497.951C166.355 498.344 165.973 498.803 165.667 499.327C165.339 499.851 165.099 500.419 164.946 501.031C164.793 501.621 164.717 502.233 164.717 502.866C164.717 504.155 164.957 505.28 165.437 506.241C165.918 507.181 166.573 507.967 167.404 508.6C168.212 509.234 169.162 509.704 170.254 510.009C171.325 510.315 172.461 510.468 173.662 510.468C174.864 510.468 176.011 510.315 177.103 510.009C178.173 509.704 179.124 509.234 179.954 508.6C180.762 507.967 181.406 507.181 181.887 506.241C182.346 505.28 182.575 504.155 182.575 502.866C182.575 502.254 182.488 501.643 182.313 501.031C182.138 500.398 181.898 499.808 181.592 499.262C181.264 498.715 180.871 498.235 180.412 497.82C179.953 497.383 179.451 497.055 178.905 496.837V496.771H182.116L182.116 494.871ZM173.662 508.404C172.788 508.404 171.926 508.306 171.074 508.109C170.2 507.891 169.424 507.563 168.747 507.126C168.07 506.667 167.524 506.088 167.109 505.389C166.672 504.69 166.453 503.849 166.453 502.866C166.453 501.774 166.672 500.856 167.109 500.114C167.524 499.349 168.07 498.737 168.747 498.279C169.424 497.798 170.2 497.459 171.074 497.263C171.926 497.044 172.788 496.935 173.662 496.935C174.536 496.935 175.41 497.044 176.284 497.263C177.136 497.459 177.9 497.798 178.577 498.279C179.255 498.737 179.812 499.349 180.249 500.114C180.664 500.856 180.871 501.774 180.871 502.866C180.871 503.849 180.664 504.69 180.249 505.389C179.812 506.088 179.255 506.667 178.577 507.126C177.9 507.563 177.136 507.89 176.284 508.109C175.41 508.306 174.536 508.404 173.662 508.404Z" fill="url(#paint36_linear_9_27)"/>
<path d="M170.385 491.135V489.071C169.009 489.027 168.015 488.59 167.404 487.76C166.77 486.93 166.453 485.86 166.453 484.549C166.453 483.937 166.508 483.369 166.617 482.845C166.704 482.299 166.879 481.829 167.141 481.436C167.403 481.021 167.764 480.704 168.223 480.486C168.66 480.245 169.227 480.125 169.927 480.125C170.385 480.125 170.757 480.191 171.041 480.322C171.325 480.431 171.554 480.595 171.729 480.813C171.882 481.032 171.991 481.305 172.057 481.633C172.122 481.96 172.177 482.343 172.22 482.779C172.352 483.894 172.494 484.997 172.647 486.089C172.778 487.159 173.018 488.132 173.368 489.005C173.717 489.857 174.23 490.545 174.908 491.07C175.563 491.594 176.48 491.856 177.66 491.856C178.512 491.856 179.255 491.714 179.888 491.43C180.5 491.124 181.013 490.72 181.428 490.218C181.822 489.693 182.106 489.093 182.28 488.416C182.477 487.716 182.575 486.974 182.575 486.187C182.575 485.357 182.499 484.647 182.346 484.057C182.193 483.446 181.975 482.911 181.691 482.452C181.406 481.971 181.057 481.545 180.642 481.174C180.205 480.781 179.714 480.398 179.167 480.027V479.961C179.604 479.961 180.009 479.94 180.38 479.896C180.729 479.83 181.035 479.71 181.297 479.535C181.559 479.361 181.767 479.12 181.92 478.814C182.051 478.487 182.117 478.061 182.117 477.537C182.117 477.253 182.105 477.023 182.082 476.848C182.059 476.652 182.026 476.433 181.984 476.193H180.247C180.335 476.39 180.378 476.608 180.378 476.848C180.378 477.657 179.963 478.061 179.133 478.061H170.155C169.019 478.061 168.101 478.247 167.402 478.618C166.681 478.989 166.124 479.47 165.731 480.06C165.338 480.65 165.076 481.316 164.945 482.059C164.792 482.801 164.715 483.544 164.715 484.287C164.715 485.27 164.825 486.165 165.043 486.974C165.262 487.782 165.6 488.492 166.059 489.104C166.518 489.693 167.108 490.163 167.828 490.513C168.549 490.862 169.402 491.07 170.385 491.135ZM172.876 480.125H175.563C176.393 480.125 177.136 480.289 177.791 480.617C178.446 480.923 179.003 481.349 179.462 481.895C179.921 482.419 180.27 483.042 180.511 483.762C180.751 484.483 180.871 485.237 180.871 486.023C180.871 486.504 180.795 486.974 180.642 487.433C180.489 487.891 180.271 488.295 179.987 488.645C179.681 488.994 179.331 489.278 178.938 489.497C178.523 489.693 178.053 489.792 177.529 489.792C176.699 489.792 176.065 489.551 175.628 489.071C175.17 488.568 174.82 487.935 174.58 487.17C174.34 486.406 174.165 485.565 174.056 484.647C173.924 483.708 173.782 482.801 173.63 481.927C173.586 481.643 173.509 481.316 173.4 480.944C173.291 480.573 173.116 480.322 172.876 480.191L172.876 480.125Z" fill="url(#paint37_linear_9_27)"/>
<path d="M165.208 475.833L182.051 469.082L183.951 469.803C184.345 469.978 184.705 470.142 185.033 470.295C185.361 470.448 185.634 470.633 185.852 470.852C186.092 471.07 186.278 471.332 186.409 471.638C186.54 471.922 186.606 472.294 186.606 472.752C186.606 472.993 186.584 473.233 186.54 473.473C186.517 473.692 186.484 473.921 186.442 474.161H188.179C188.244 473.987 188.277 473.79 188.277 473.572C188.3 473.331 188.322 473.004 188.343 472.589C188.343 471.933 188.277 471.398 188.146 470.983C188.037 470.546 187.84 470.175 187.556 469.869C187.294 469.541 186.923 469.246 186.442 468.984C185.983 468.722 185.393 468.438 184.672 468.132L165.208 460.792V462.856L179.626 468.067L165.208 473.637L165.208 475.833Z" fill="url(#paint38_linear_9_27)"/>
<path d="M222.94 631.611V633.512H235.621C234.027 635.325 232.661 637.062 231.525 638.722C230.411 640.382 229.472 642.042 228.707 643.703C227.965 645.341 227.386 647.023 226.971 648.749C226.577 650.475 226.315 652.31 226.184 654.254H228.413C228.544 651.589 228.959 649.153 229.658 646.947C230.379 644.719 231.209 642.741 232.148 641.016C233.109 639.268 234.092 637.772 235.097 636.527C236.102 635.26 236.965 634.255 237.686 633.512V631.611H222.94Z" fill="url(#paint39_linear_9_27)"/>
<path d="M242.667 654.254H245.419V650.781H242.667V654.254Z" fill="url(#paint40_linear_9_27)"/>
<path d="M251.776 635.74V637.215H257.838V654.254H259.903V631.316H258.231C258.079 632.365 257.816 633.184 257.445 633.774C257.095 634.342 256.648 634.768 256.102 635.052C255.577 635.336 254.944 635.522 254.201 635.609C253.48 635.675 252.672 635.718 251.776 635.74Z" fill="url(#paint41_linear_9_27)"/>
<path d="M270.061 647.7H267.996C268.019 648.793 268.227 649.776 268.619 650.649C269.012 651.523 269.536 652.266 270.192 652.878C270.869 653.467 271.655 653.926 272.551 654.254C273.468 654.56 274.462 654.713 275.533 654.713C276.625 654.713 277.652 654.527 278.613 654.155C279.596 653.762 280.448 653.227 281.169 652.55C281.89 651.851 282.458 651.031 282.873 650.092C283.288 649.131 283.495 648.093 283.495 646.979C283.495 645.821 283.31 644.762 282.938 643.801C282.589 642.818 282.075 641.976 281.398 641.277C280.743 640.578 279.934 640.032 278.973 639.639C278.034 639.246 276.974 639.049 275.795 639.049C274.877 639.049 273.981 639.235 273.108 639.607C272.234 639.978 271.513 640.502 270.945 641.179L270.879 641.114L272.354 633.512H282.381V631.611H270.912L268.684 643.506H270.453C271.021 642.632 271.753 641.966 272.649 641.507C273.545 641.026 274.517 640.786 275.565 640.786C276.417 640.786 277.204 640.939 277.925 641.245C278.645 641.55 279.257 641.976 279.76 642.523C280.284 643.047 280.688 643.67 280.972 644.39C281.278 645.111 281.431 645.898 281.431 646.75C281.431 647.58 281.3 648.377 281.038 649.142C280.775 649.885 280.393 650.551 279.891 651.141C279.388 651.709 278.787 652.167 278.088 652.517C277.389 652.845 276.592 653.009 275.696 653.009C274.91 653.009 274.178 652.888 273.501 652.648C272.824 652.386 272.234 652.026 271.731 651.567C271.229 651.086 270.825 650.518 270.519 649.863C270.235 649.207 270.082 648.487 270.061 647.7Z" fill="url(#paint42_linear_9_27)"/>
<path d="M296.111 637.346V660.48H298.176V651.043H298.241C298.459 651.655 298.765 652.19 299.159 652.648C299.574 653.107 300.043 653.49 300.568 653.795C301.092 654.101 301.66 654.33 302.272 654.483C302.883 654.636 303.495 654.713 304.107 654.713C305.395 654.713 306.51 654.483 307.449 654.025C308.41 653.544 309.207 652.9 309.841 652.091C310.474 651.261 310.944 650.311 311.25 649.241C311.556 648.148 311.709 647.001 311.709 645.8C311.709 644.598 311.556 643.462 311.25 642.392C310.944 641.3 310.475 640.349 309.841 639.541C309.207 638.711 308.41 638.056 307.449 637.575C306.51 637.095 305.395 636.854 304.107 636.854C302.73 636.854 301.496 637.182 300.404 637.837C299.333 638.471 298.558 639.377 298.077 640.557H298.012V637.346L296.111 637.346ZM309.644 645.8C309.644 646.674 309.535 647.548 309.316 648.421C309.12 649.273 308.792 650.038 308.333 650.715C307.896 651.392 307.328 651.949 306.629 652.386C305.93 652.801 305.089 653.009 304.106 653.009C303.014 653.009 302.086 652.801 301.321 652.386C300.578 651.949 299.967 651.392 299.486 650.715C299.027 650.038 298.689 649.273 298.47 648.421C298.274 647.548 298.175 646.674 298.175 645.8C298.175 644.839 298.263 643.921 298.438 643.047C298.634 642.174 298.962 641.409 299.421 640.754C299.879 640.098 300.491 639.574 301.256 639.181C302.02 638.788 302.971 638.591 304.106 638.591C305.09 638.591 305.931 638.809 306.63 639.246C307.329 639.661 307.897 640.208 308.334 640.885C308.792 641.562 309.12 642.337 309.317 643.211C309.535 644.063 309.644 644.926 309.644 645.8Z" fill="url(#paint43_linear_9_27)"/>
<path d="M316.132 654.254H318.885V650.781H316.132V654.254Z" fill="url(#paint44_linear_9_27)"/>
<path d="M324.029 637.346V654.254H326.094V644.817C326.094 643.921 326.192 643.102 326.389 642.359C326.585 641.595 326.88 640.939 327.273 640.393C327.688 639.825 328.213 639.388 328.846 639.082C329.502 638.755 330.266 638.591 331.14 638.591C331.795 638.591 332.352 638.7 332.811 638.919C333.27 639.137 333.63 639.443 333.893 639.836C334.177 640.208 334.373 640.656 334.482 641.18C334.614 641.682 334.679 642.217 334.679 642.785V654.254H336.744V644.686C336.744 643.899 336.809 643.146 336.94 642.425C337.093 641.682 337.344 641.027 337.694 640.459C338.043 639.891 338.513 639.443 339.103 639.115C339.693 638.766 340.436 638.591 341.331 638.591C342.817 638.591 343.854 638.963 344.444 639.705C345.034 640.426 345.329 641.486 345.329 642.884V654.254H347.393V642.785C347.393 638.831 345.526 636.854 341.79 636.854C340.676 636.854 339.627 637.128 338.644 637.674C337.661 638.22 336.919 639.05 336.416 640.164C336.11 639.05 335.499 638.22 334.581 637.674C333.685 637.128 332.681 636.854 331.566 636.854C330.19 636.854 329.054 637.149 328.159 637.739C327.285 638.329 326.575 639.148 326.029 640.197H325.93V637.346L324.029 637.346Z" fill="url(#paint45_linear_9_27)"/>
<path d="M352.538 654.254H355.29V650.781H352.538V654.254Z" fill="url(#paint46_linear_9_27)"/>
<path d="M208.167 34.4272C207.876 34.0056 207.483 33.7003 206.989 33.5113C206.509 33.3078 206.001 33.206 205.463 33.206C205.143 33.206 204.83 33.2424 204.525 33.3151C204.234 33.3877 203.965 33.504 203.718 33.664C203.485 33.8239 203.296 34.0347 203.151 34.2964C203.006 34.5435 202.933 34.8416 202.933 35.1905C202.933 35.7139 203.115 36.1137 203.478 36.3899C203.842 36.6661 204.292 36.906 204.83 37.1095C205.368 37.3131 205.957 37.5093 206.597 37.6983C207.236 37.8873 207.825 38.149 208.363 38.4834C208.901 38.8178 209.352 39.2612 209.715 39.8137C210.079 40.3661 210.26 41.1003 210.26 42.0162C210.26 42.8449 210.108 43.5718 209.802 44.197C209.497 44.8076 209.083 45.3164 208.559 45.7235C208.05 46.1306 207.454 46.4359 206.771 46.6394C206.088 46.8429 205.368 46.9447 204.612 46.9447C203.653 46.9447 202.729 46.7848 201.843 46.4649C200.956 46.1451 200.193 45.6072 199.553 44.8512L201.625 42.8449C201.959 43.3537 202.395 43.7535 202.933 44.0443C203.485 44.3205 204.067 44.4586 204.678 44.4586C204.997 44.4586 205.317 44.415 205.637 44.3278C205.957 44.2406 206.248 44.1097 206.509 43.9353C206.771 43.7608 206.982 43.5427 207.142 43.281C207.302 43.0048 207.382 42.6922 207.382 42.3433C207.382 41.7763 207.2 41.3402 206.837 41.0349C206.473 40.7296 206.022 40.4752 205.484 40.2716C204.947 40.0535 204.358 39.85 203.718 39.661C203.078 39.472 202.49 39.2176 201.952 38.8978C201.414 38.5634 200.963 38.1272 200.6 37.5893C200.236 37.0369 200.054 36.3027 200.054 35.3868C200.054 34.5872 200.214 33.8966 200.534 33.3151C200.869 32.7335 201.297 32.2538 201.821 31.8758C202.359 31.4832 202.969 31.1925 203.653 31.0035C204.336 30.8145 205.034 30.72 205.746 30.72C206.56 30.72 207.345 30.8435 208.101 31.0907C208.872 31.3378 209.562 31.7449 210.173 32.3119L208.167 34.4272Z" fill="url(#paint47_linear_9_27)"/>
<path d="M211.329 31.1125H214.491L218.7 42.7795L223.039 31.1125H226.005L219.768 46.5522H217.391L211.329 31.1125Z" fill="url(#paint48_linear_9_27)"/>
<path d="M200.534 56.1912H203.282V71.6308H200.534V56.1912Z" fill="url(#paint49_linear_9_27)"/>
<path d="M206.422 61.1631H208.908V62.8422H208.952C209.199 62.3189 209.577 61.8682 210.086 61.4902C210.595 61.0976 211.285 60.9014 212.158 60.9014C212.855 60.9014 213.444 61.0177 213.924 61.2503C214.418 61.4829 214.818 61.7882 215.123 62.1662C215.429 62.5442 215.647 62.9803 215.778 63.4746C215.908 63.9689 215.974 64.4851 215.974 65.023V71.6306H213.357V66.3314C213.357 66.0407 213.342 65.7208 213.313 65.3719C213.284 65.0084 213.204 64.6741 213.074 64.3687C212.957 64.0489 212.768 63.7872 212.507 63.5837C212.245 63.3656 211.889 63.2566 211.438 63.2566C211.002 63.2566 210.631 63.3293 210.326 63.4746C210.035 63.62 209.788 63.8163 209.584 64.0634C209.395 64.3106 209.257 64.5941 209.17 64.9139C209.083 65.2338 209.039 65.5682 209.039 65.9171V71.6306H206.422V61.1631Z" fill="url(#paint50_linear_9_27)"/>
<path d="M227.226 70.0606H227.183C226.805 70.7003 226.296 71.1655 225.656 71.4562C225.017 71.747 224.326 71.8924 223.585 71.8924C222.77 71.8924 222.044 71.7543 221.404 71.4781C220.779 71.1873 220.241 70.7948 219.79 70.3005C219.339 69.8062 218.998 69.2246 218.765 68.5559C218.533 67.8871 218.416 67.1675 218.416 66.3969C218.416 65.6264 218.54 64.9067 218.787 64.238C219.034 63.5692 219.376 62.9877 219.812 62.4934C220.263 61.9991 220.801 61.6138 221.426 61.3376C222.051 61.0468 222.734 60.9015 223.476 60.9015C223.97 60.9015 224.406 60.9523 224.784 61.0541C225.162 61.1559 225.496 61.2867 225.787 61.4466C226.078 61.6066 226.325 61.781 226.529 61.97C226.732 62.1445 226.899 62.3189 227.03 62.4934H227.096V55.1443H229.713V71.6307H227.226V70.0606ZM221.033 66.3969C221.033 66.804 221.099 67.1965 221.229 67.5745C221.375 67.9525 221.578 68.2869 221.84 68.5777C222.116 68.8684 222.443 69.101 222.821 69.2755C223.199 69.45 223.628 69.5372 224.108 69.5372C224.588 69.5372 225.017 69.45 225.395 69.2755C225.773 69.101 226.092 68.8684 226.354 68.5777C226.63 68.2869 226.834 67.9525 226.965 67.5745C227.11 67.1965 227.183 66.804 227.183 66.3969C227.183 65.9899 227.11 65.5973 226.965 65.2193C226.834 64.8413 226.63 64.5069 226.354 64.2162C226.092 63.9254 225.773 63.6928 225.395 63.5183C225.017 63.3439 224.588 63.2567 224.108 63.2567C223.628 63.2567 223.199 63.3439 222.821 63.5183C222.443 63.6928 222.116 63.9254 221.84 64.2162C221.578 64.5069 221.375 64.8413 221.229 65.2193C221.099 65.5973 221.033 65.9899 221.033 66.3969Z" fill="url(#paint51_linear_9_27)"/>
<path d="M242.23 71.6307H239.744V69.9515H239.7C239.453 70.4749 239.075 70.9328 238.566 71.3253C238.058 71.7033 237.367 71.8923 236.495 71.8923C235.797 71.8923 235.201 71.7833 234.706 71.5652C234.227 71.3326 233.834 71.0273 233.529 70.6493C233.224 70.2568 233.005 69.8134 232.875 69.3191C232.744 68.8248 232.678 68.3087 232.678 67.7707V61.1631H235.295V66.4623C235.295 66.7531 235.31 67.0802 235.339 67.4436C235.368 67.7925 235.441 68.1269 235.557 68.4468C235.688 68.7521 235.877 69.0138 236.124 69.2318C236.386 69.4354 236.749 69.5371 237.214 69.5371C237.65 69.5371 238.014 69.4644 238.305 69.3191C238.61 69.1737 238.857 68.9774 239.046 68.7303C239.25 68.4831 239.395 68.1996 239.482 67.8798C239.569 67.5599 239.613 67.2256 239.613 66.8766V61.1631H242.23V71.6307Z" fill="url(#paint52_linear_9_27)"/>
<path d="M250.778 64.0634C250.27 63.3511 249.586 62.9949 248.729 62.9949C248.38 62.9949 248.038 63.0821 247.704 63.2566C247.369 63.431 247.202 63.7145 247.202 64.1071C247.202 64.4269 247.34 64.6595 247.616 64.8049C247.893 64.9503 248.242 65.0739 248.663 65.1756C249.085 65.2774 249.535 65.3864 250.015 65.5027C250.51 65.6045 250.967 65.7717 251.389 66.0043C251.811 66.2224 252.16 66.5277 252.436 66.9202C252.712 67.3128 252.85 67.8507 252.85 68.534C252.85 69.1591 252.712 69.6898 252.436 70.1259C252.174 70.5475 251.825 70.8892 251.389 71.1509C250.967 71.4126 250.488 71.6015 249.95 71.7179C249.412 71.8342 248.874 71.8923 248.336 71.8923C247.522 71.8923 246.773 71.776 246.09 71.5434C245.407 71.3108 244.796 70.8892 244.258 70.2786L246.003 68.643C246.337 69.021 246.693 69.3336 247.071 69.5807C247.464 69.8133 247.936 69.9296 248.489 69.9296C248.678 69.9296 248.874 69.9078 249.077 69.8642C249.281 69.8206 249.47 69.7479 249.644 69.6461C249.819 69.5444 249.957 69.4208 250.059 69.2754C250.175 69.1155 250.233 68.9338 250.233 68.7302C250.233 68.3668 250.095 68.0978 249.819 67.9234C249.543 67.7489 249.194 67.6108 248.772 67.509C248.351 67.3927 247.893 67.2909 247.398 67.2037C246.919 67.1019 246.468 66.9493 246.046 66.7458C245.625 66.5277 245.276 66.2297 245 65.8517C244.723 65.4737 244.585 64.9503 244.585 64.2815C244.585 63.7 244.701 63.1984 244.934 62.7768C245.181 62.3407 245.501 61.9845 245.894 61.7082C246.286 61.432 246.737 61.2285 247.246 61.0976C247.755 60.9668 248.271 60.9014 248.794 60.9014C249.492 60.9014 250.182 61.0249 250.866 61.2721C251.549 61.5047 252.101 61.9118 252.523 62.4933L250.778 64.0634Z" fill="url(#paint53_linear_9_27)"/>
<path d="M253.657 63.3874V61.1631H255.816V58.1318H258.433V61.1631H261.311V63.3874H258.433V67.967C258.433 68.4904 258.527 68.9047 258.716 69.21C258.92 69.5153 259.312 69.668 259.894 69.668C260.127 69.668 260.381 69.6462 260.657 69.6025C260.933 69.5444 261.151 69.4572 261.311 69.3409V71.5434C261.035 71.6743 260.694 71.7615 260.286 71.8051C259.894 71.8632 259.545 71.8923 259.24 71.8923C258.542 71.8923 257.968 71.8124 257.517 71.6524C257.081 71.5071 256.732 71.2817 256.47 70.9764C256.223 70.6566 256.049 70.264 255.947 69.7988C255.86 69.3336 255.816 68.7957 255.816 68.1851V63.3874H253.657Z" fill="url(#paint54_linear_9_27)"/>
<path d="M263.361 61.1631H265.978V62.8204H266.022C266.313 62.2098 266.727 61.7373 267.265 61.4029C267.803 61.0686 268.421 60.9014 269.118 60.9014C269.278 60.9014 269.431 60.9159 269.576 60.945C269.736 60.9741 269.896 61.0104 270.056 61.054V63.5837C269.838 63.5255 269.62 63.4819 269.402 63.4528C269.198 63.4092 268.995 63.3874 268.791 63.3874C268.181 63.3874 267.686 63.5037 267.308 63.7363C266.945 63.9544 266.662 64.2088 266.458 64.4996C266.269 64.7904 266.138 65.0811 266.065 65.3719C266.007 65.6627 265.978 65.8807 265.978 66.0261V71.6306H263.361V61.1631Z" fill="url(#paint55_linear_9_27)"/>
<path d="M270.427 61.1631H273.305L276.228 68.425H276.271L278.888 61.1631H281.614L276.664 73.8768C276.475 74.3711 276.264 74.8 276.031 75.1635C275.813 75.5415 275.552 75.854 275.246 76.1012C274.941 76.3629 274.578 76.5519 274.156 76.6682C273.749 76.799 273.255 76.8644 272.673 76.8644C271.99 76.8644 271.321 76.7772 270.667 76.6027L270.994 74.2475C271.197 74.3202 271.408 74.3784 271.626 74.422C271.859 74.4802 272.092 74.5092 272.324 74.5092C272.644 74.5092 272.913 74.4802 273.131 74.422C273.349 74.3639 273.531 74.2694 273.676 74.1385C273.836 74.0222 273.967 73.8623 274.069 73.6587C274.17 73.4697 274.28 73.2371 274.396 72.9609L274.897 71.7179L270.427 61.1631Z" fill="url(#paint56_linear_9_27)"/>
<path d="M193.147 30.72C193.147 30.72 172.491 37.6054 165.605 44.4909C158.72 51.3763 158.72 72.0327 158.72 72.0327H193.147V30.72ZM186.25 37.2611C186.254 37.2611 186.258 37.2611 186.262 37.2611C186.718 37.2611 187.156 37.4425 187.479 37.7653C187.802 38.0881 187.983 38.526 187.983 38.9825C187.983 39.439 187.802 39.8769 187.479 40.1997C187.156 40.5225 186.718 40.7039 186.262 40.7039C186.036 40.7039 185.812 40.6593 185.603 40.5728C185.394 40.4863 185.204 40.3595 185.045 40.1997C184.885 40.0399 184.758 39.8501 184.671 39.6412C184.585 39.4324 184.54 39.2086 184.54 38.9825C184.54 38.528 184.72 38.0919 185.04 37.7694C185.361 37.4469 185.796 37.2642 186.25 37.2611ZM185.516 44.3111C185.551 44.3039 185.57 44.3612 185.573 44.4909C185.581 44.8541 185.39 46.1955 184.684 48.1621C183.683 50.9508 181.577 55.1054 177.49 58.8976C175.723 60.538 173.571 62.0959 171.098 63.355C171.047 62.679 170.872 62.0182 170.581 61.4058C172.797 60.3147 174.733 58.984 176.345 57.6121C181.905 52.8738 184.143 47.3041 184.913 45.505C185.227 44.77 185.426 44.3295 185.516 44.3111ZM165.602 60.3274C165.603 60.3274 165.604 60.3274 165.605 60.3274C166.058 60.3274 166.505 60.4165 166.923 60.5895C167.341 60.7625 167.72 61.0161 168.04 61.3358C168.359 61.6554 168.613 62.035 168.786 62.4527C168.959 62.8703 169.048 63.318 169.048 63.7701C169.048 64.2222 168.959 64.6699 168.786 65.0876C168.613 65.5053 168.359 65.8848 168.04 66.2045C167.72 66.5242 167.341 66.7778 166.923 66.9508C166.505 67.1238 166.058 67.2129 165.605 67.2129C165.153 67.2129 164.706 67.1238 164.288 66.9508C163.87 66.7778 163.491 66.5242 163.171 66.2045C162.851 65.8848 162.598 65.5053 162.425 65.0876C162.252 64.6699 162.163 64.2222 162.163 63.7701C162.163 62.8577 162.525 61.9826 163.17 61.337C163.815 60.6915 164.689 60.3284 165.602 60.3274Z" fill="url(#paint57_linear_9_27)"/>
<path d="M849.158 174.236C849.158 173.253 849.366 172.39 849.781 171.647C850.196 170.905 850.742 170.293 851.419 169.812C852.096 169.31 852.872 168.939 853.746 168.698C854.598 168.436 855.471 168.305 856.367 168.305C857.263 168.305 858.147 168.436 859.021 168.698C859.873 168.939 860.638 169.31 861.315 169.812C861.992 170.293 862.538 170.905 862.953 171.647C863.368 172.39 863.576 173.253 863.576 174.236C863.576 175.219 863.368 176.082 862.953 176.825C862.538 177.567 861.992 178.19 861.315 178.693C860.638 179.173 859.873 179.544 859.021 179.807C858.147 180.047 857.263 180.167 856.367 180.167C855.471 180.167 854.598 180.047 853.746 179.807C852.872 179.544 852.096 179.173 851.419 178.693C850.742 178.19 850.196 177.567 849.781 176.825C849.366 176.082 849.158 175.219 849.158 174.236ZM847.421 174.236C847.421 175.525 847.662 176.672 848.142 177.677C848.623 178.66 849.267 179.49 850.076 180.167C850.884 180.844 851.834 181.358 852.926 181.707C853.997 182.057 855.144 182.231 856.367 182.231C857.59 182.231 858.748 182.057 859.84 181.707C860.911 181.358 861.85 180.844 862.658 180.167C863.467 179.49 864.111 178.66 864.592 177.677C865.051 176.672 865.28 175.525 865.28 174.236C865.28 172.947 865.051 171.811 864.592 170.828C864.111 169.823 863.467 168.982 862.658 168.305C861.85 167.628 860.911 167.114 859.84 166.765C858.748 166.415 857.59 166.241 856.367 166.241C855.144 166.241 853.997 166.415 852.926 166.765C851.834 167.114 850.884 167.628 850.076 168.305C849.267 168.982 848.623 169.823 848.142 170.828C847.662 171.811 847.421 172.947 847.421 174.236Z" fill="url(#paint58_linear_9_27)"/>
<path d="M847.913 163.193H864.821V161.129H854.958C854.128 161.107 853.363 160.976 852.664 160.736C851.943 160.474 851.332 160.124 850.829 159.687C850.305 159.228 849.901 158.682 849.617 158.049C849.311 157.393 849.158 156.651 849.158 155.821C849.158 154.99 849.289 154.302 849.551 153.756C849.813 153.188 850.174 152.74 850.633 152.413C851.091 152.085 851.638 151.856 852.271 151.725C852.883 151.593 853.549 151.528 854.27 151.528H864.821V149.464H853.942C852.937 149.464 852.031 149.562 851.222 149.758C850.414 149.955 849.737 150.294 849.191 150.774C848.623 151.255 848.186 151.899 847.88 152.708C847.574 153.494 847.421 154.477 847.421 155.657C847.421 156.858 847.738 157.961 848.372 158.966C848.983 159.971 849.803 160.67 850.829 161.063V161.129H847.913V163.193Z" fill="url(#paint59_linear_9_27)"/>
<path d="M863.084 135.439L849.387 124.265H847.913V137.176H849.65V126.886L863.15 137.929H864.821V123.806H863.084V135.439Z" fill="url(#paint60_linear_9_27)"/>
<path d="M849.158 114.14C849.158 113.157 849.366 112.294 849.781 111.551C850.196 110.808 850.742 110.197 851.419 109.716C852.096 109.214 852.872 108.842 853.746 108.602C854.598 108.34 855.471 108.209 856.367 108.209C857.263 108.209 858.147 108.34 859.021 108.602C859.873 108.842 860.638 109.214 861.315 109.716C861.992 110.197 862.538 110.808 862.953 111.551C863.368 112.294 863.576 113.157 863.576 114.14C863.576 115.123 863.368 115.986 862.953 116.728C862.538 117.471 861.992 118.094 861.315 118.596C860.638 119.077 859.873 119.448 859.021 119.71C858.147 119.95 857.263 120.071 856.367 120.071C855.471 120.071 854.598 119.95 853.746 119.71C852.872 119.448 852.096 119.077 851.419 118.596C850.742 118.094 850.196 117.471 849.781 116.728C849.366 115.986 849.158 115.123 849.158 114.14ZM847.421 114.14C847.421 115.428 847.662 116.575 848.142 117.58C848.623 118.563 849.267 119.393 850.076 120.071C850.884 120.748 851.834 121.261 852.926 121.611C853.997 121.96 855.144 122.135 856.367 122.135C857.59 122.135 858.748 121.96 859.84 121.611C860.911 121.261 861.85 120.748 862.658 120.071C863.467 119.393 864.111 118.563 864.592 117.58C865.051 116.575 865.28 115.428 865.28 114.14C865.28 112.851 865.051 111.715 864.592 110.732C864.111 109.727 863.467 108.886 862.658 108.209C861.85 107.531 860.911 107.018 859.84 106.669C858.748 106.319 857.59 106.144 856.367 106.144C855.144 106.144 853.997 106.319 852.926 106.669C851.834 107.018 850.884 107.531 850.076 108.209C849.267 108.886 848.623 109.727 848.142 110.732C847.662 111.715 847.421 112.851 847.421 114.14Z" fill="url(#paint61_linear_9_27)"/>
<path d="M849.158 95.9206C849.158 94.9376 849.366 94.0747 849.781 93.332C850.196 92.5892 850.742 91.9776 851.419 91.497C852.096 90.9945 852.872 90.6231 853.746 90.3828C854.598 90.1207 855.471 89.9897 856.367 89.9897C857.263 89.9897 858.147 90.1207 859.021 90.3828C859.873 90.6232 860.638 90.9945 861.315 91.497C861.992 91.9776 862.538 92.5892 862.953 93.332C863.368 94.0747 863.576 94.9376 863.576 95.9206C863.576 96.9037 863.368 97.7666 862.953 98.5093C862.538 99.252 861.992 99.8746 861.315 100.377C860.638 100.858 859.873 101.229 859.021 101.491C858.147 101.731 857.263 101.852 856.367 101.852C855.471 101.852 854.598 101.731 853.746 101.491C852.872 101.229 852.096 100.858 851.419 100.377C850.742 99.8746 850.196 99.252 849.781 98.5093C849.366 97.7666 849.158 96.9037 849.158 95.9206ZM847.421 95.9206C847.421 97.2095 847.662 98.3564 848.142 99.3613C848.623 100.344 849.267 101.174 850.076 101.852C850.884 102.529 851.834 103.042 852.926 103.392C853.997 103.741 855.144 103.916 856.367 103.916C857.59 103.916 858.748 103.741 859.84 103.392C860.911 103.042 861.85 102.529 862.658 101.852C863.467 101.174 864.111 100.344 864.592 99.3613C865.051 98.3564 865.28 97.2095 865.28 95.9206C865.28 94.6318 865.051 93.4958 864.592 92.5128C864.111 91.5079 863.467 90.6668 862.658 89.9896C861.85 89.3124 860.911 88.7991 859.84 88.4495C858.748 88.1 857.59 87.9253 856.367 87.9253C855.144 87.9253 853.997 88.1 852.926 88.4495C851.834 88.7991 850.884 89.3124 850.076 89.9896C849.267 90.6668 848.623 91.5079 848.142 92.5128C847.662 93.4958 847.421 94.6318 847.421 95.9206Z" fill="url(#paint62_linear_9_27)"/>
<path d="M847.913 84.8452H864.821V82.7808H855.384C854.488 82.7808 853.669 82.6825 852.926 82.4859C852.162 82.2893 851.507 81.9944 850.96 81.6012C850.392 81.1861 849.956 80.6618 849.65 80.0283C849.322 79.373 849.158 78.6084 849.158 77.7346C849.158 77.0792 849.267 76.5222 849.486 76.0634C849.704 75.6046 850.01 75.2442 850.403 74.9821C850.775 74.6981 851.223 74.5015 851.747 74.3922C852.249 74.2611 852.784 74.1956 853.352 74.1956H864.821V72.1312H855.253C854.467 72.1312 853.713 72.0657 852.992 71.9346C852.249 71.7817 851.594 71.5305 851.026 71.1809C850.458 70.8314 850.01 70.3617 849.682 69.7719C849.333 69.1821 849.158 68.4394 849.158 67.5437C849.158 66.0582 849.529 65.0206 850.272 64.4307C850.993 63.8409 852.053 63.546 853.451 63.546H864.821V61.4816H853.352C849.398 61.4816 847.421 63.3494 847.421 67.0849C847.421 68.1991 847.694 69.2476 848.241 70.2307C848.787 71.2137 849.617 71.9564 850.731 72.4589C849.617 72.7647 848.787 73.3764 848.241 74.2939C847.694 75.1896 847.421 76.1944 847.421 77.3085C847.421 78.6848 847.716 79.8208 848.306 80.7164C848.896 81.5902 849.715 82.3002 850.764 82.8463V82.9446H847.913L847.913 84.8452Z" fill="url(#paint63_linear_9_27)"/>
</g>
<defs>
<linearGradient id="paint0_linear_9_27" x1="-1109.27" y1="936.96" x2="-341.269" y2="936.96" gradientUnits="userSpaceOnUse">
<stop stop-color="#F9D678"/>
</linearGradient>
<linearGradient id="paint1_linear_9_27" x1="-2525.11" y1="124280" x2="-2525.24" y2="124280" gradientUnits="userSpaceOnUse">
<stop stop-color="#13313D"/>
</linearGradient>
<linearGradient id="paint2_linear_9_27" x1="-2525.19" y1="124281" x2="-2525.33" y2="124281" gradientUnits="userSpaceOnUse">
<stop stop-color="#13313D"/>
</linearGradient>
<linearGradient id="paint3_linear_9_27" x1="-2525.24" y1="124280" x2="-2525.37" y2="124280" gradientUnits="userSpaceOnUse">
<stop stop-color="#13313D"/>
</linearGradient>
<linearGradient id="paint4_linear_9_27" x1="8.25253e+07" y1="3.50426e+07" x2="8.27481e+07" y2="3.50426e+07" gradientUnits="userSpaceOnUse">
<stop stop-color="#F3F5EC"/>
</linearGradient>
<linearGradient id="paint5_linear_9_27" x1="8.28016e+07" y1="3.51872e+07" x2="8.32081e+07" y2="3.51872e+07" gradientUnits="userSpaceOnUse">
<stop stop-color="#F3F5EC"/>
</linearGradient>
<linearGradient id="paint6_linear_9_27" x1="8.3239e+07" y1="3.51872e+07" x2="8.36455e+07" y2="3.51872e+07" gradientUnits="userSpaceOnUse">
<stop stop-color="#F3F5EC"/>
</linearGradient>
<linearGradient id="paint7_linear_9_27" x1="8.366e+07" y1="3.50553e+07" x2="8.39429e+07" y2="3.50553e+07" gradientUnits="userSpaceOnUse">
<stop stop-color="#F3F5EC"/>
</linearGradient>
<linearGradient id="paint8_linear_9_27" x1="8.39601e+07" y1="3.51872e+07" x2="8.43502e+07" y2="3.51872e+07" gradientUnits="userSpaceOnUse">
<stop stop-color="#F3F5EC"/>
</linearGradient>
<linearGradient id="paint9_linear_9_27" x1="-122922" y1="-3881.66" x2="-122922" y2="-3881.67" gradientUnits="userSpaceOnUse">
<stop stop-color="#13313D"/>
</linearGradient>
<linearGradient id="paint10_linear_9_27" x1="-122921" y1="-3881.66" x2="-122921" y2="-3881.67" gradientUnits="userSpaceOnUse">
<stop stop-color="#13313D"/>
</linearGradient>
<linearGradient id="paint11_linear_9_27" x1="-122921" y1="-3881.67" x2="-122921" y2="-3881.68" gradientUnits="userSpaceOnUse">
<stop stop-color="#13313D"/>
</linearGradient>
<linearGradient id="paint12_linear_9_27" x1="-2525.19" y1="124279" x2="-2525.19" y2="124279" gradientUnits="userSpaceOnUse">
<stop stop-color="#13313D"/>
</linearGradient>
<linearGradient id="paint13_linear_9_27" x1="-2525.19" y1="124279" x2="-2525.2" y2="124279" gradientUnits="userSpaceOnUse">
<stop stop-color="#13313D"/>
</linearGradient>
<linearGradient id="paint14_linear_9_27" x1="8.59372e+07" y1="3.83278e+07" x2="8.622e+07" y2="3.83278e+07" gradientUnits="userSpaceOnUse">
<stop stop-color="#F3F5EC"/>
</linearGradient>
<linearGradient id="paint15_linear_9_27" x1="8.62501e+07" y1="3.84597e+07" x2="8.65465e+07" y2="3.84597e+07" gradientUnits="userSpaceOnUse">
<stop stop-color="#F3F5EC"/>
</linearGradient>
<linearGradient id="paint16_linear_9_27" x1="8.65584e+07" y1="3.84724e+07" x2="8.69894e+07" y2="3.84724e+07" gradientUnits="userSpaceOnUse">
<stop stop-color="#F3F5EC"/>
</linearGradient>
<linearGradient id="paint17_linear_9_27" x1="-122920" y1="-3881.63" x2="-122920" y2="-3881.65" gradientUnits="userSpaceOnUse">
<stop stop-color="#13313D"/>
</linearGradient>
<linearGradient id="paint18_linear_9_27" x1="-122919" y1="-3881.64" x2="-122919" y2="-3881.65" gradientUnits="userSpaceOnUse">
<stop stop-color="#13313D"/>
</linearGradient>
<linearGradient id="paint19_linear_9_27" x1="-122919" y1="-3881.65" x2="-122919" y2="-3881.66" gradientUnits="userSpaceOnUse">
<stop stop-color="#13313D"/>
</linearGradient>
<linearGradient id="paint20_linear_9_27" x1="-122920" y1="-3881.6" x2="-122920" y2="-3881.61" gradientUnits="userSpaceOnUse">
<stop stop-color="#13313D"/>
</linearGradient>
<linearGradient id="paint21_linear_9_27" x1="-122920" y1="-3881.6" x2="-122920" y2="-3881.62" gradientUnits="userSpaceOnUse">
<stop stop-color="#13313D"/>
</linearGradient>
<linearGradient id="paint22_linear_9_27" x1="7.92861e+07" y1="4.07488e+07" x2="7.94636e+07" y2="4.07488e+07" gradientUnits="userSpaceOnUse">
<stop stop-color="#F3F5EC"/>
</linearGradient>
<linearGradient id="paint23_linear_9_27" x1="7.94941e+07" y1="4.07542e+07" x2="7.96578e+07" y2="4.07542e+07" gradientUnits="userSpaceOnUse">
<stop stop-color="#F3F5EC"/>
</linearGradient>
<linearGradient id="paint24_linear_9_27" x1="7.97127e+07" y1="4.09666e+07" x2="7.97433e+07" y2="4.09666e+07" gradientUnits="userSpaceOnUse">
<stop stop-color="#F3F5EC"/>
</linearGradient>
<linearGradient id="paint25_linear_9_27" x1="7.98148e+07" y1="4.07509e+07" x2="7.9905e+07" y2="4.07509e+07" gradientUnits="userSpaceOnUse">
<stop stop-color="#F3F5EC"/>
</linearGradient>
<linearGradient id="paint26_linear_9_27" x1="7.99947e+07" y1="4.07487e+07" x2="8.01624e+07" y2="4.07487e+07" gradientUnits="userSpaceOnUse">
<stop stop-color="#F3F5EC"/>
</linearGradient>
<linearGradient id="paint27_linear_9_27" x1="8.022e+07" y1="4.09666e+07" x2="8.02506e+07" y2="4.09666e+07" gradientUnits="userSpaceOnUse">
<stop stop-color="#F3F5EC"/>
</linearGradient>
<linearGradient id="paint28_linear_9_27" x1="8.02981e+07" y1="4.07487e+07" x2="8.04658e+07" y2="4.07487e+07" gradientUnits="userSpaceOnUse">
<stop stop-color="#F3F5EC"/>
</linearGradient>
<linearGradient id="paint29_linear_9_27" x1="8.04992e+07" y1="4.07488e+07" x2="8.06767e+07" y2="4.07488e+07" gradientUnits="userSpaceOnUse">
<stop stop-color="#F3F5EC"/>
</linearGradient>
<linearGradient id="paint30_linear_9_27" x1="8.07024e+07" y1="4.07487e+07" x2="8.08701e+07" y2="4.07487e+07" gradientUnits="userSpaceOnUse">
<stop stop-color="#F3F5EC"/>
</linearGradient>
<linearGradient id="paint31_linear_9_27" x1="8.09263e+07" y1="4.07509e+07" x2="8.10165e+07" y2="4.07509e+07" gradientUnits="userSpaceOnUse">
<stop stop-color="#F3F5EC"/>
</linearGradient>
<linearGradient id="paint32_linear_9_27" x1="1.96974e+07" y1="-8.61742e+07" x2="1.96974e+07" y2="-8.63797e+07" gradientUnits="userSpaceOnUse">
<stop stop-color="#F3F5EC"/>
</linearGradient>
<linearGradient id="paint33_linear_9_27" x1="1.97694e+07" y1="-8.63658e+07" x2="1.97694e+07" y2="-8.65183e+07" gradientUnits="userSpaceOnUse">
<stop stop-color="#F3F5EC"/>
</linearGradient>
<linearGradient id="paint34_linear_9_27" x1="1.9764e+07" y1="-8.65522e+07" x2="1.9764e+07" y2="-8.67196e+07" gradientUnits="userSpaceOnUse">
<stop stop-color="#F3F5EC"/>
</linearGradient>
<linearGradient id="paint35_linear_9_27" x1="1.97639e+07" y1="-8.67398e+07" x2="1.97639e+07" y2="-8.68922e+07" gradientUnits="userSpaceOnUse">
<stop stop-color="#F3F5EC"/>
</linearGradient>
<linearGradient id="paint36_linear_9_27" x1="1.96974e+07" y1="-8.69173e+07" x2="1.96974e+07" y2="-8.70905e+07" gradientUnits="userSpaceOnUse">
<stop stop-color="#F3F5EC"/>
</linearGradient>
<linearGradient id="paint37_linear_9_27" x1="1.9764e+07" y1="-8.7124e+07" x2="1.9764e+07" y2="-8.72979e+07" gradientUnits="userSpaceOnUse">
<stop stop-color="#F3F5EC"/>
</linearGradient>
<linearGradient id="paint38_linear_9_27" x1="1.97695e+07" y1="-8.73018e+07" x2="1.97695e+07" y2="-8.74688e+07" gradientUnits="userSpaceOnUse">
<stop stop-color="#F3F5EC"/>
</linearGradient>
<linearGradient id="paint39_linear_9_27" x1="7.99984e+07" y1="4.00081e+07" x2="8.01621e+07" y2="4.00081e+07" gradientUnits="userSpaceOnUse">
<stop stop-color="#F3F5EC"/>
</linearGradient>
<linearGradient id="paint40_linear_9_27" x1="8.02182e+07" y1="4.02206e+07" x2="8.02488e+07" y2="4.02206e+07" gradientUnits="userSpaceOnUse">
<stop stop-color="#F3F5EC"/>
</linearGradient>
<linearGradient id="paint41_linear_9_27" x1="8.03178e+07" y1="4.00048e+07" x2="8.0408e+07" y2="4.00048e+07" gradientUnits="userSpaceOnUse">
<stop stop-color="#F3F5EC"/>
</linearGradient>
<linearGradient id="paint42_linear_9_27" x1="8.04987e+07" y1="4.00081e+07" x2="8.06707e+07" y2="4.00081e+07" gradientUnits="userSpaceOnUse">
<stop stop-color="#F3F5EC"/>
</linearGradient>
<linearGradient id="paint43_linear_9_27" x1="8.08105e+07" y1="4.00663e+07" x2="8.09837e+07" y2="4.00663e+07" gradientUnits="userSpaceOnUse">
<stop stop-color="#F3F5EC"/>
</linearGradient>
<linearGradient id="paint44_linear_9_27" x1="8.10347e+07" y1="4.02206e+07" x2="8.10653e+07" y2="4.02206e+07" gradientUnits="userSpaceOnUse">
<stop stop-color="#F3F5EC"/>
</linearGradient>
<linearGradient id="paint45_linear_9_27" x1="8.11202e+07" y1="4.00663e+07" x2="8.13796e+07" y2="4.00663e+07" gradientUnits="userSpaceOnUse">
<stop stop-color="#F3F5EC"/>
</linearGradient>
<linearGradient id="paint46_linear_9_27" x1="8.14354e+07" y1="4.02206e+07" x2="8.14659e+07" y2="4.02206e+07" gradientUnits="userSpaceOnUse">
<stop stop-color="#F3F5EC"/>
</linearGradient>
<linearGradient id="paint47_linear_9_27" x1="-5357.28" y1="-101.987" x2="-5357.28" y2="-101.991" gradientUnits="userSpaceOnUse">
<stop stop-color="#13313D"/>
</linearGradient>
<linearGradient id="paint48_linear_9_27" x1="-5357.24" y1="-101.989" x2="-5357.24" y2="-101.995" gradientUnits="userSpaceOnUse">
<stop stop-color="#13313D"/>
</linearGradient>
<linearGradient id="paint49_linear_9_27" x1="-5357.2" y1="-101.982" x2="-5357.2" y2="-101.983" gradientUnits="userSpaceOnUse">
<stop stop-color="#13313D"/>
</linearGradient>
<linearGradient id="paint50_linear_9_27" x1="-5357.17" y1="-101.982" x2="-5357.17" y2="-101.986" gradientUnits="userSpaceOnUse">
<stop stop-color="#13313D"/>
</linearGradient>
<linearGradient id="paint51_linear_9_27" x1="-5357.15" y1="-101.986" x2="-5357.15" y2="-101.99" gradientUnits="userSpaceOnUse">
<stop stop-color="#13313D"/>
</linearGradient>
<linearGradient id="paint52_linear_9_27" x1="-5357.09" y1="-101.987" x2="-5357.09" y2="-101.991" gradientUnits="userSpaceOnUse">
<stop stop-color="#13313D"/>
</linearGradient>
<linearGradient id="paint53_linear_9_27" x1="-5357.06" y1="-101.99" x2="-5357.06" y2="-101.993" gradientUnits="userSpaceOnUse">
<stop stop-color="#13313D"/>
</linearGradient>
<linearGradient id="paint54_linear_9_27" x1="-5357.04" y1="-101.992" x2="-5357.04" y2="-101.995" gradientUnits="userSpaceOnUse">
<stop stop-color="#13313D"/>
</linearGradient>
<linearGradient id="paint55_linear_9_27" x1="-5357" y1="-101.993" x2="-5357" y2="-101.996" gradientUnits="userSpaceOnUse">
<stop stop-color="#13313D"/>
</linearGradient>
<linearGradient id="paint56_linear_9_27" x1="-5356.98" y1="-101.995" x2="-5356.98" y2="-101.999" gradientUnits="userSpaceOnUse">
<stop stop-color="#13313D"/>
</linearGradient>
<linearGradient id="paint57_linear_9_27" x1="-5357.39" y1="-101.979" x2="-5357.39" y2="-101.993" gradientUnits="userSpaceOnUse">
<stop stop-color="#13313D"/>
</linearGradient>
<linearGradient id="paint58_linear_9_27" x1="-2525.16" y1="124278" x2="-2525.17" y2="124278" gradientUnits="userSpaceOnUse">
<stop stop-color="#13313D"/>
</linearGradient>
<linearGradient id="paint59_linear_9_27" x1="-2525.17" y1="124278" x2="-2525.17" y2="124278" gradientUnits="userSpaceOnUse">
<stop stop-color="#13313D"/>
</linearGradient>
<linearGradient id="paint60_linear_9_27" x1="-2525.16" y1="124277" x2="-2525.17" y2="124277" gradientUnits="userSpaceOnUse">
<stop stop-color="#13313D"/>
</linearGradient>
<linearGradient id="paint61_linear_9_27" x1="-2525.17" y1="124277" x2="-2525.18" y2="124277" gradientUnits="userSpaceOnUse">
<stop stop-color="#13313D"/>
</linearGradient>
<linearGradient id="paint62_linear_9_27" x1="-2525.18" y1="124277" x2="-2525.19" y2="124277" gradientUnits="userSpaceOnUse">
<stop stop-color="#13313D"/>
</linearGradient>
<linearGradient id="paint63_linear_9_27" x1="-2525.18" y1="124277" x2="-2525.19" y2="124277" gradientUnits="userSpaceOnUse">
<stop stop-color="#13313D"/>
</linearGradient>
<clipPath id="clip0_9_27">
<rect width="768" height="768" fill="white" transform="translate(128)"/>
</clipPath>
</defs>
</svg>
