<svg width="1024" height="768" viewBox="0 0 1024 768" fill="none" xmlns="http://www.w3.org/2000/svg">
<g clip-path="url(#clip0_36_2351)">
<rect width="1024" height="768" fill="black"/>
<rect width="768" height="768" fill="#0F294D"/>
<rect x="768" width="128" height="768" fill="white"/>
<rect x="960" width="32" height="768" fill="#00FFBD"/>
<rect x="992" width="32" height="768" fill="#FF184E"/>
<rect x="896" width="64" height="768" fill="#CEF2E8"/>
<path d="M387.616 411.438L391 412.11V412.758C391 412.88 390.955 412.984 390.864 413.07C390.773 413.155 390.656 413.198 390.512 413.198C390.491 413.198 390.472 413.198 390.456 413.198C390.435 413.192 390.411 413.187 390.384 413.182L387.616 412.614V414.59L390.456 415.158C390.653 415.2 390.795 415.283 390.88 415.406C390.96 415.523 391 415.659 391 415.814V416.446L387.616 415.766V416.934C387.616 417.056 387.587 417.152 387.528 417.222C387.464 417.291 387.357 417.326 387.208 417.326C387.181 417.326 387.152 417.326 387.12 417.326C387.088 417.32 387.056 417.315 387.024 417.31L386.568 417.246V415.614L383.96 415.094V416.95L383.368 416.846C383.213 416.819 383.099 416.758 383.024 416.662C382.949 416.566 382.912 416.414 382.912 416.206V414.942L380.048 414.366C379.888 414.334 379.763 414.262 379.672 414.15C379.581 414.032 379.536 413.894 379.536 413.734V413.094L382.912 413.766V411.79L379.536 411.118V410.486C379.536 410.352 379.576 410.243 379.656 410.158C379.736 410.067 379.84 410.022 379.968 410.022C380.011 410.022 380.045 410.024 380.072 410.03L382.912 410.614V408.918L383.512 409.022C383.667 409.048 383.781 409.112 383.856 409.214C383.925 409.31 383.96 409.459 383.96 409.662V410.766L386.568 411.286V409.854C386.568 409.726 386.6 409.627 386.664 409.558C386.723 409.488 386.829 409.454 386.984 409.454C387.011 409.454 387.04 409.456 387.072 409.462C387.099 409.462 387.128 409.464 387.16 409.47L387.616 409.542V411.438ZM386.568 414.438V412.462L383.96 411.942V413.918L386.568 414.438ZM385.272 399.677C386.275 399.677 387.144 399.786 387.88 400.005C388.611 400.218 389.216 400.511 389.696 400.885C390.176 401.258 390.533 401.701 390.768 402.213C391.003 402.719 391.12 403.263 391.12 403.845C391.12 404.431 391.003 404.978 390.768 405.485C390.533 405.986 390.176 406.423 389.696 406.797C389.216 407.17 388.611 407.463 387.88 407.677C387.144 407.89 386.275 407.997 385.272 407.997C384.269 407.997 383.4 407.89 382.664 407.677C381.928 407.463 381.32 407.17 380.84 406.797C380.355 406.423 379.995 405.986 379.76 405.485C379.525 404.978 379.408 404.431 379.408 403.845C379.408 403.263 379.525 402.719 379.76 402.213C379.995 401.701 380.355 401.258 380.84 400.885C381.32 400.511 381.928 400.218 382.664 400.005C383.4 399.786 384.269 399.677 385.272 399.677ZM385.272 401.157C384.397 401.157 383.664 401.231 383.072 401.381C382.475 401.525 381.995 401.722 381.632 401.973C381.269 402.218 381.011 402.503 380.856 402.829C380.696 403.154 380.616 403.493 380.616 403.845C380.616 404.197 380.696 404.535 380.856 404.861C381.011 405.186 381.269 405.471 381.632 405.717C381.995 405.962 382.475 406.159 383.072 406.309C383.664 406.453 384.397 406.525 385.272 406.525C386.147 406.525 386.88 406.453 387.472 406.309C388.064 406.159 388.541 405.962 388.904 405.717C389.267 405.471 389.528 405.186 389.688 404.861C389.843 404.535 389.92 404.197 389.92 403.845C389.92 403.493 389.843 403.154 389.688 402.829C389.528 402.503 389.267 402.218 388.904 401.973C388.541 401.722 388.064 401.525 387.472 401.381C386.88 401.231 386.147 401.157 385.272 401.157ZM379.536 390.739H380.8V396.243H384.808V391.539H386.072V396.243H391V397.803H379.536V390.739ZM379.408 385.325C379.408 384.839 379.48 384.386 379.624 383.965C379.768 383.543 379.979 383.181 380.256 382.877C380.528 382.567 380.861 382.325 381.256 382.149C381.651 381.973 382.099 381.885 382.6 381.885C383.027 381.885 383.421 381.949 383.784 382.077C384.147 382.205 384.496 382.378 384.832 382.597C385.163 382.815 385.485 383.069 385.8 383.357C386.109 383.639 386.427 383.941 386.752 384.261L389.84 387.277C389.781 387.063 389.736 386.847 389.704 386.629C389.667 386.41 389.648 386.199 389.648 385.997V382.157C389.648 382.002 389.693 381.879 389.784 381.789C389.875 381.698 389.992 381.653 390.136 381.653H391V389.301H390.512C390.411 389.301 390.307 389.282 390.2 389.245C390.093 389.202 389.995 389.135 389.904 389.045L386.216 385.373C385.907 385.069 385.611 384.791 385.328 384.541C385.04 384.29 384.752 384.077 384.464 383.901C384.176 383.719 383.885 383.581 383.592 383.485C383.293 383.389 382.976 383.341 382.64 383.341C382.304 383.341 382.011 383.394 381.76 383.501C381.504 383.607 381.293 383.754 381.128 383.941C380.963 384.127 380.84 384.346 380.76 384.597C380.675 384.847 380.632 385.117 380.632 385.405C380.632 385.693 380.675 385.959 380.76 386.205C380.845 386.45 380.965 386.669 381.12 386.861C381.269 387.047 381.448 387.207 381.656 387.341C381.864 387.469 382.093 387.559 382.344 387.613C382.499 387.655 382.611 387.719 382.68 387.805C382.749 387.89 382.784 388.002 382.784 388.141C382.784 388.167 382.784 388.197 382.784 388.229C382.779 388.255 382.773 388.287 382.768 388.325L382.64 389.069C382.117 388.994 381.656 388.85 381.256 388.637C380.851 388.423 380.512 388.154 380.24 387.829C379.968 387.498 379.763 387.122 379.624 386.701C379.48 386.274 379.408 385.815 379.408 385.325ZM386.296 376.46C386.296 376.892 386.224 377.302 386.08 377.692C385.936 378.076 385.725 378.414 385.448 378.708C385.165 379.001 384.821 379.236 384.416 379.412C384.005 379.582 383.536 379.668 383.008 379.668C382.507 379.668 382.037 379.574 381.6 379.388C381.163 379.201 380.781 378.94 380.456 378.604C380.131 378.268 379.875 377.868 379.688 377.404C379.501 376.94 379.408 376.43 379.408 375.876C379.408 375.326 379.499 374.828 379.68 374.38C379.861 373.932 380.115 373.548 380.44 373.228C380.765 372.908 381.155 372.662 381.608 372.492C382.061 372.316 382.563 372.228 383.112 372.228C383.443 372.228 383.757 372.26 384.056 372.324C384.349 372.382 384.637 372.47 384.92 372.588C385.203 372.705 385.485 372.846 385.768 373.012C386.045 373.172 386.333 373.356 386.632 373.564L390.664 376.356C390.765 376.425 390.848 376.524 390.912 376.652C390.971 376.78 391 376.926 391 377.092V378.404L386.432 374.916C386.277 374.798 386.131 374.689 385.992 374.588C385.853 374.486 385.715 374.39 385.576 374.3C385.811 374.593 385.989 374.924 386.112 375.292C386.235 375.66 386.296 376.049 386.296 376.46ZM382.944 373.596C382.587 373.596 382.264 373.654 381.976 373.772C381.683 373.884 381.435 374.041 381.232 374.244C381.029 374.446 380.875 374.689 380.768 374.972C380.656 375.249 380.6 375.556 380.6 375.892C380.6 376.244 380.659 376.566 380.776 376.86C380.888 377.148 381.045 377.396 381.248 377.604C381.451 377.806 381.693 377.964 381.976 378.076C382.259 378.188 382.568 378.244 382.904 378.244C383.267 378.244 383.592 378.193 383.88 378.092C384.163 377.985 384.403 377.836 384.6 377.644C384.797 377.446 384.947 377.209 385.048 376.932C385.149 376.649 385.2 376.334 385.2 375.988C385.2 375.604 385.139 375.265 385.016 374.972C384.888 374.673 384.72 374.422 384.512 374.22C384.304 374.017 384.064 373.862 383.792 373.756C383.52 373.649 383.237 373.596 382.944 373.596ZM386.864 364.346V362.61H387.68C387.765 362.61 387.837 362.637 387.896 362.69C387.955 362.738 387.984 362.816 387.984 362.922V364.346H391V365.602H387.984V370.682C387.984 370.789 387.955 370.882 387.896 370.962C387.832 371.037 387.755 371.085 387.664 371.106L386.936 371.25L379.536 365.674V364.346H386.864ZM382.136 365.602C381.997 365.602 381.848 365.6 381.688 365.594C381.528 365.584 381.363 365.565 381.192 365.538L386.864 369.706V365.602H382.136ZM385.272 350.961C386.131 350.961 386.912 351.097 387.616 351.369C388.32 351.641 388.923 352.025 389.424 352.521C389.925 353.017 390.315 353.612 390.592 354.305C390.864 354.998 391 355.766 391 356.609V360.897H379.536V356.609C379.536 355.766 379.675 354.998 379.952 354.305C380.224 353.612 380.613 353.017 381.12 352.521C381.621 352.025 382.224 351.641 382.928 351.369C383.632 351.097 384.413 350.961 385.272 350.961ZM385.272 352.553C384.568 352.553 383.939 352.649 383.384 352.841C382.829 353.033 382.36 353.305 381.976 353.657C381.592 354.009 381.299 354.436 381.096 354.937C380.893 355.438 380.792 355.996 380.792 356.609V359.337H389.744V356.609C389.744 355.996 389.643 355.438 389.44 354.937C389.237 354.436 388.947 354.009 388.568 353.657C388.184 353.305 387.715 353.033 387.16 352.841C386.605 352.649 385.976 352.553 385.272 352.553Z" fill="white"/>
<path d="M1010.62 409.453L1014 410.125V410.773C1014 410.896 1013.95 411 1013.86 411.085C1013.77 411.171 1013.66 411.213 1013.51 411.213C1013.49 411.213 1013.47 411.213 1013.46 411.213C1013.43 411.208 1013.41 411.203 1013.38 411.197L1010.62 410.629V412.605L1013.46 413.173C1013.65 413.216 1013.79 413.299 1013.88 413.421C1013.96 413.539 1014 413.675 1014 413.829V414.461L1010.62 413.781V414.949C1010.62 415.072 1010.59 415.168 1010.53 415.237C1010.46 415.307 1010.36 415.341 1010.21 415.341C1010.18 415.341 1010.15 415.341 1010.12 415.341C1010.09 415.336 1010.06 415.331 1010.02 415.325L1009.57 415.261V413.629L1006.96 413.109V414.965L1006.37 414.861C1006.21 414.835 1006.1 414.773 1006.02 414.677C1005.95 414.581 1005.91 414.429 1005.91 414.221V412.957L1003.05 412.381C1002.89 412.349 1002.76 412.277 1002.67 412.165C1002.58 412.048 1002.54 411.909 1002.54 411.749V411.109L1005.91 411.781V409.805L1002.54 409.133V408.501C1002.54 408.368 1002.58 408.259 1002.66 408.173C1002.74 408.083 1002.84 408.037 1002.97 408.037C1003.01 408.037 1003.05 408.04 1003.07 408.045L1005.91 408.629V406.933L1006.51 407.037C1006.67 407.064 1006.78 407.128 1006.86 407.229C1006.93 407.325 1006.96 407.475 1006.96 407.677V408.781L1009.57 409.301V407.869C1009.57 407.741 1009.6 407.643 1009.66 407.573C1009.72 407.504 1009.83 407.469 1009.98 407.469C1010.01 407.469 1010.04 407.472 1010.07 407.477C1010.1 407.477 1010.13 407.48 1010.16 407.485L1010.62 407.557V409.453ZM1009.57 412.453V410.477L1006.96 409.957V411.933L1009.57 412.453ZM1002.54 398.036H1003.8V403.54H1007.81V398.836H1009.07V403.54H1014V405.1H1002.54V398.036ZM1002.54 388.974H1003.8V394.478H1007.81V389.774H1009.07V394.478H1014V396.038H1002.54V388.974ZM1012.91 386.071V383.607H1005.1C1004.86 383.607 1004.62 383.599 1004.38 383.583L1006.14 385.631C1006.18 385.685 1006.21 385.738 1006.23 385.791C1006.25 385.845 1006.26 385.895 1006.26 385.943C1006.26 386.023 1006.24 386.095 1006.21 386.159C1006.17 386.223 1006.13 386.271 1006.08 386.303L1005.46 386.751L1002.51 383.343V382.183H1012.91V379.927H1014V386.071H1012.91ZM1014.13 374.454C1014.13 375.025 1014.05 375.547 1013.9 376.022C1013.75 376.497 1013.53 376.905 1013.25 377.246C1012.97 377.587 1012.62 377.851 1012.22 378.038C1011.82 378.225 1011.37 378.318 1010.86 378.318C1010.13 378.318 1009.52 378.126 1009.05 377.742C1008.57 377.358 1008.23 376.809 1008.02 376.094C1007.8 376.697 1007.47 377.153 1007.02 377.462C1006.58 377.766 1006.04 377.918 1005.42 377.918C1005 377.918 1004.61 377.835 1004.24 377.67C1003.87 377.505 1003.55 377.27 1003.28 376.966C1003.01 376.662 1002.79 376.299 1002.64 375.878C1002.49 375.451 1002.41 374.977 1002.41 374.454C1002.41 373.937 1002.49 373.465 1002.64 373.038C1002.79 372.611 1003.01 372.246 1003.28 371.942C1003.55 371.638 1003.87 371.403 1004.24 371.238C1004.61 371.073 1005 370.99 1005.42 370.99C1006.04 370.99 1006.58 371.145 1007.02 371.454C1007.47 371.763 1007.8 372.217 1008.02 372.814C1008.23 372.099 1008.57 371.55 1009.05 371.166C1009.52 370.782 1010.13 370.59 1010.86 370.59C1011.37 370.59 1011.82 370.686 1012.22 370.878C1012.62 371.065 1012.97 371.329 1013.25 371.67C1013.53 372.006 1013.75 372.411 1013.9 372.886C1014.05 373.361 1014.13 373.883 1014.13 374.454ZM1012.99 374.454C1012.99 374.081 1012.94 373.747 1012.84 373.454C1012.73 373.155 1012.59 372.905 1012.4 372.702C1012.21 372.494 1011.98 372.337 1011.72 372.23C1011.45 372.118 1011.16 372.062 1010.84 372.062C1010.45 372.062 1010.11 372.129 1009.83 372.262C1009.55 372.39 1009.32 372.566 1009.14 372.79C1008.97 373.009 1008.84 373.262 1008.76 373.55C1008.67 373.838 1008.63 374.139 1008.63 374.454C1008.63 374.769 1008.67 375.07 1008.76 375.358C1008.84 375.646 1008.97 375.902 1009.14 376.126C1009.32 376.345 1009.55 376.521 1009.83 376.654C1010.11 376.782 1010.45 376.846 1010.84 376.846C1011.16 376.846 1011.45 376.793 1011.72 376.686C1011.98 376.574 1012.21 376.417 1012.4 376.214C1012.59 376.006 1012.73 375.755 1012.84 375.462C1012.94 375.163 1012.99 374.827 1012.99 374.454ZM1007.49 374.454C1007.49 374.081 1007.43 373.763 1007.32 373.502C1007.2 373.235 1007.05 373.019 1006.86 372.854C1006.67 372.689 1006.45 372.569 1006.21 372.494C1005.96 372.419 1005.71 372.382 1005.45 372.382C1005.18 372.382 1004.93 372.427 1004.7 372.518C1004.46 372.603 1004.26 372.734 1004.08 372.91C1003.9 373.081 1003.77 373.297 1003.66 373.558C1003.56 373.814 1003.51 374.113 1003.51 374.454C1003.51 374.795 1003.56 375.097 1003.66 375.358C1003.77 375.614 1003.9 375.83 1004.08 376.006C1004.26 376.177 1004.46 376.307 1004.7 376.398C1004.93 376.483 1005.18 376.526 1005.45 376.526C1005.71 376.526 1005.96 376.489 1006.21 376.414C1006.45 376.339 1006.67 376.219 1006.86 376.054C1007.05 375.889 1007.2 375.675 1007.32 375.414C1007.43 375.147 1007.49 374.827 1007.49 374.454ZM1009.86 362.581V360.845H1010.68C1010.77 360.845 1010.84 360.871 1010.9 360.925C1010.95 360.973 1010.98 361.05 1010.98 361.157V362.581H1014V363.837H1010.98V368.917C1010.98 369.023 1010.95 369.117 1010.9 369.197C1010.83 369.271 1010.75 369.319 1010.66 369.341L1009.94 369.485L1002.54 363.909V362.581H1009.86ZM1005.14 363.837C1005 363.837 1004.85 363.834 1004.69 363.829C1004.53 363.818 1004.36 363.799 1004.19 363.773L1009.86 367.941V363.837H1005.14ZM1002.54 352.067H1003.8V357.571H1007.61V353.115H1008.82V357.571H1012.74V352.067H1014V359.131H1002.54V352.067Z" fill="black"/>
<path d="M834.616 409.508L838 410.18V410.828C838 410.951 837.955 411.055 837.864 411.14C837.773 411.225 837.656 411.268 837.512 411.268C837.491 411.268 837.472 411.268 837.456 411.268C837.435 411.263 837.411 411.257 837.384 411.252L834.616 410.684V412.66L837.456 413.228C837.653 413.271 837.795 413.353 837.88 413.476C837.96 413.593 838 413.729 838 413.884V414.516L834.616 413.836V415.004C834.616 415.127 834.587 415.223 834.528 415.292C834.464 415.361 834.357 415.396 834.208 415.396C834.181 415.396 834.152 415.396 834.12 415.396C834.088 415.391 834.056 415.385 834.024 415.38L833.568 415.316V413.684L830.96 413.164V415.02L830.368 414.916C830.213 414.889 830.099 414.828 830.024 414.732C829.949 414.636 829.912 414.484 829.912 414.276V413.012L827.048 412.436C826.888 412.404 826.763 412.332 826.672 412.22C826.581 412.103 826.536 411.964 826.536 411.804V411.164L829.912 411.836V409.86L826.536 409.188V408.556C826.536 408.423 826.576 408.313 826.656 408.228C826.736 408.137 826.84 408.092 826.968 408.092C827.011 408.092 827.045 408.095 827.072 408.1L829.912 408.684V406.988L830.512 407.092C830.667 407.119 830.781 407.183 830.856 407.284C830.925 407.38 830.96 407.529 830.96 407.732V408.836L833.568 409.356V407.924C833.568 407.796 833.6 407.697 833.664 407.628C833.723 407.559 833.829 407.524 833.984 407.524C834.011 407.524 834.04 407.527 834.072 407.532C834.099 407.532 834.128 407.535 834.16 407.54L834.616 407.612V409.508ZM833.568 412.508V410.532L830.96 410.012V411.988L833.568 412.508ZM826.536 398.091H827.8V403.595H831.808V398.891H833.072V403.595H838V405.155H826.536V398.091ZM826.536 389.028H827.8V394.532H831.808V389.828H833.072V394.532H838V396.092H826.536V389.028ZM826.536 379.966H827.8V385.47H831.808V380.766H833.072V385.47H838V387.03H826.536V379.966ZM826.536 370.903H827.8V376.407H831.808V371.703H833.072V376.407H838V377.967H826.536V370.903ZM826.536 361.841H827.8V367.345H831.808V362.641H833.072V367.345H838V368.905H826.536V361.841ZM826.536 352.778H827.8V358.282H831.808V353.578H833.072V358.282H838V359.842H826.536V352.778Z" fill="black"/>
<path d="M978.616 411.367L982 412.039V412.688C982 412.81 981.955 412.914 981.864 412.999C981.773 413.085 981.656 413.127 981.512 413.127C981.491 413.127 981.472 413.127 981.456 413.127C981.435 413.122 981.411 413.117 981.384 413.111L978.616 412.543V414.519L981.456 415.087C981.653 415.13 981.795 415.213 981.88 415.336C981.96 415.453 982 415.589 982 415.743V416.375L978.616 415.695V416.863C978.616 416.986 978.587 417.082 978.528 417.151C978.464 417.221 978.357 417.255 978.208 417.255C978.181 417.255 978.152 417.255 978.12 417.255C978.088 417.25 978.056 417.245 978.024 417.239L977.568 417.175V415.543L974.96 415.023V416.879L974.368 416.775C974.213 416.749 974.099 416.687 974.024 416.591C973.949 416.495 973.912 416.343 973.912 416.135V414.871L971.048 414.295C970.888 414.263 970.763 414.191 970.672 414.079C970.581 413.962 970.536 413.823 970.536 413.663V413.023L973.912 413.695V411.719L970.536 411.047V410.415C970.536 410.282 970.576 410.173 970.656 410.087C970.736 409.997 970.84 409.951 970.968 409.951C971.011 409.951 971.045 409.954 971.072 409.959L973.912 410.543V408.847L974.512 408.951C974.667 408.978 974.781 409.042 974.856 409.143C974.925 409.239 974.96 409.389 974.96 409.591V410.695L977.568 411.215V409.783C977.568 409.655 977.6 409.557 977.664 409.487C977.723 409.418 977.829 409.383 977.984 409.383C978.011 409.383 978.04 409.386 978.072 409.391C978.099 409.391 978.128 409.394 978.16 409.399L978.616 409.471V411.367ZM977.568 414.367V412.391L974.96 411.871V413.847L977.568 414.367ZM976.272 399.606C977.275 399.606 978.144 399.716 978.88 399.934C979.611 400.148 980.216 400.441 980.696 400.814C981.176 401.188 981.533 401.63 981.768 402.142C982.003 402.649 982.12 403.193 982.12 403.774C982.12 404.361 982.003 404.908 981.768 405.414C981.533 405.916 981.176 406.353 980.696 406.726C980.216 407.1 979.611 407.393 978.88 407.606C978.144 407.82 977.275 407.926 976.272 407.926C975.269 407.926 974.4 407.82 973.664 407.606C972.928 407.393 972.32 407.1 971.84 406.726C971.355 406.353 970.995 405.916 970.76 405.414C970.525 404.908 970.408 404.361 970.408 403.774C970.408 403.193 970.525 402.649 970.76 402.142C970.995 401.63 971.355 401.188 971.84 400.814C972.32 400.441 972.928 400.148 973.664 399.934C974.4 399.716 975.269 399.606 976.272 399.606ZM976.272 401.086C975.397 401.086 974.664 401.161 974.072 401.31C973.475 401.454 972.995 401.652 972.632 401.902C972.269 402.148 972.011 402.433 971.856 402.758C971.696 403.084 971.616 403.422 971.616 403.774C971.616 404.126 971.696 404.465 971.856 404.79C972.011 405.116 972.269 405.401 972.632 405.646C972.995 405.892 973.475 406.089 974.072 406.238C974.664 406.382 975.397 406.454 976.272 406.454C977.147 406.454 977.88 406.382 978.472 406.238C979.064 406.089 979.541 405.892 979.904 405.646C980.267 405.401 980.528 405.116 980.688 404.79C980.843 404.465 980.92 404.126 980.92 403.774C980.92 403.422 980.843 403.084 980.688 402.758C980.528 402.433 980.267 402.148 979.904 401.902C979.541 401.652 979.064 401.454 978.472 401.31C977.88 401.161 977.147 401.086 976.272 401.086ZM976.272 390.325C977.275 390.325 978.144 390.434 978.88 390.653C979.611 390.866 980.216 391.16 980.696 391.533C981.176 391.906 981.533 392.349 981.768 392.861C982.003 393.368 982.12 393.912 982.12 394.493C982.12 395.08 982.003 395.626 981.768 396.133C981.533 396.634 981.176 397.072 980.696 397.445C980.216 397.818 979.611 398.112 978.88 398.325C978.144 398.538 977.275 398.645 976.272 398.645C975.269 398.645 974.4 398.538 973.664 398.325C972.928 398.112 972.32 397.818 971.84 397.445C971.355 397.072 970.995 396.634 970.76 396.133C970.525 395.626 970.408 395.08 970.408 394.493C970.408 393.912 970.525 393.368 970.76 392.861C970.995 392.349 971.355 391.906 971.84 391.533C972.32 391.16 972.928 390.866 973.664 390.653C974.4 390.434 975.269 390.325 976.272 390.325ZM976.272 391.805C975.397 391.805 974.664 391.88 974.072 392.029C973.475 392.173 972.995 392.37 972.632 392.621C972.269 392.866 972.011 393.152 971.856 393.477C971.696 393.802 971.616 394.141 971.616 394.493C971.616 394.845 971.696 395.184 971.856 395.509C972.011 395.834 972.269 396.12 972.632 396.365C972.995 396.61 973.475 396.808 974.072 396.957C974.664 397.101 975.397 397.173 976.272 397.173C977.147 397.173 977.88 397.101 978.472 396.957C979.064 396.808 979.541 396.61 979.904 396.365C980.267 396.12 980.528 395.834 980.688 395.509C980.843 395.184 980.92 394.845 980.92 394.493C980.92 394.141 980.843 393.802 980.688 393.477C980.528 393.152 980.267 392.866 979.904 392.621C979.541 392.37 979.064 392.173 978.472 392.029C977.88 391.88 977.147 391.805 976.272 391.805ZM970.536 381.388H971.8V386.892H975.808V382.188H977.072V386.892H982V388.452H970.536V381.388ZM970.536 372.325H971.8V377.829H975.808V373.125H977.072V377.829H982V379.389H970.536V372.325ZM982 370.327H970.536V366.671C970.536 365.967 970.605 365.361 970.744 364.855C970.883 364.343 971.08 363.924 971.336 363.599C971.592 363.268 971.907 363.025 972.28 362.871C972.648 362.711 973.064 362.631 973.528 362.631C973.811 362.631 974.083 362.676 974.344 362.767C974.605 362.852 974.848 362.985 975.072 363.167C975.296 363.343 975.496 363.567 975.672 363.839C975.848 364.105 975.992 364.42 976.104 364.783C976.269 363.945 976.571 363.313 977.008 362.887C977.445 362.46 978.021 362.247 978.736 362.247C979.221 362.247 979.664 362.337 980.064 362.519C980.464 362.695 980.808 362.956 981.096 363.303C981.384 363.644 981.608 364.065 981.768 364.567C981.923 365.063 982 365.631 982 366.271V370.327ZM976.776 368.775H980.768V366.295C980.768 365.852 980.717 365.473 980.616 365.159C980.515 364.839 980.373 364.577 980.192 364.375C980.005 364.167 979.787 364.015 979.536 363.919C979.28 363.823 979 363.775 978.696 363.775C978.104 363.775 977.637 363.985 977.296 364.407C976.949 364.823 976.776 365.455 976.776 366.303V368.775ZM975.672 368.775V366.727C975.672 366.289 975.624 365.911 975.528 365.591C975.432 365.271 975.299 365.007 975.128 364.799C974.957 364.585 974.752 364.428 974.512 364.327C974.267 364.225 974 364.175 973.712 364.175C973.04 364.175 972.547 364.377 972.232 364.783C971.917 365.188 971.76 365.817 971.76 366.671V368.775H975.672ZM976.272 350.031C977.131 350.031 977.912 350.167 978.616 350.439C979.32 350.711 979.923 351.095 980.424 351.591C980.925 352.087 981.315 352.682 981.592 353.375C981.864 354.069 982 354.837 982 355.679V359.967H970.536V355.679C970.536 354.837 970.675 354.069 970.952 353.375C971.224 352.682 971.613 352.087 972.12 351.591C972.621 351.095 973.224 350.711 973.928 350.439C974.632 350.167 975.413 350.031 976.272 350.031ZM976.272 351.623C975.568 351.623 974.939 351.719 974.384 351.911C973.829 352.103 973.36 352.375 972.976 352.727C972.592 353.079 972.299 353.506 972.096 354.007C971.893 354.509 971.792 355.066 971.792 355.679V358.407H980.744V355.679C980.744 355.066 980.643 354.509 980.44 354.007C980.237 353.506 979.947 353.079 979.568 352.727C979.184 352.375 978.715 352.103 978.16 351.911C977.605 351.719 976.976 351.623 976.272 351.623Z" fill="black"/>
<path d="M930.616 410.407L934 411.079V411.727C934 411.849 933.955 411.953 933.864 412.039C933.773 412.124 933.656 412.167 933.512 412.167C933.491 412.167 933.472 412.167 933.456 412.167C933.435 412.161 933.411 412.156 933.384 412.151L930.616 411.583V413.559L933.456 414.127C933.653 414.169 933.795 414.252 933.88 414.375C933.96 414.492 934 414.628 934 414.783V415.415L930.616 414.735V415.903C930.616 416.025 930.587 416.121 930.528 416.191C930.464 416.26 930.357 416.295 930.208 416.295C930.181 416.295 930.152 416.295 930.12 416.295C930.088 416.289 930.056 416.284 930.024 416.279L929.568 416.215V414.583L926.96 414.063V415.919L926.368 415.815C926.213 415.788 926.099 415.727 926.024 415.631C925.949 415.535 925.912 415.383 925.912 415.175V413.911L923.048 413.335C922.888 413.303 922.763 413.231 922.672 413.119C922.581 413.001 922.536 412.863 922.536 412.703V412.063L925.912 412.735V410.759L922.536 410.087V409.455C922.536 409.321 922.576 409.212 922.656 409.127C922.736 409.036 922.84 408.991 922.968 408.991C923.011 408.991 923.045 408.993 923.072 408.999L925.912 409.583V407.887L926.512 407.991C926.667 408.017 926.781 408.081 926.856 408.183C926.925 408.279 926.96 408.428 926.96 408.631V409.735L929.568 410.255V408.823C929.568 408.695 929.6 408.596 929.664 408.527C929.723 408.457 929.829 408.423 929.984 408.423C930.011 408.423 930.04 408.425 930.072 408.431C930.099 408.431 930.128 408.433 930.16 408.439L930.616 408.511V410.407ZM929.568 413.407V411.431L926.96 410.911V412.887L929.568 413.407ZM931.632 397.973C931.632 397.888 931.667 397.811 931.736 397.741L932.4 397.133C932.944 397.603 933.368 398.173 933.672 398.845C933.976 399.512 934.128 400.317 934.128 401.261C934.128 402.088 933.987 402.837 933.704 403.509C933.416 404.181 933.016 404.755 932.504 405.229C931.987 405.704 931.368 406.072 930.648 406.333C929.928 406.595 929.136 406.725 928.272 406.725C927.408 406.725 926.616 406.587 925.896 406.309C925.176 406.027 924.557 405.632 924.04 405.125C923.523 404.619 923.123 404.013 922.84 403.309C922.552 402.6 922.408 401.819 922.408 400.965C922.408 400.123 922.539 399.397 922.8 398.789C923.061 398.176 923.416 397.632 923.864 397.157L924.576 397.661C924.629 397.699 924.675 397.741 924.712 397.789C924.744 397.837 924.76 397.907 924.76 397.997C924.76 398.067 924.736 398.141 924.688 398.221C924.635 398.296 924.571 398.387 924.496 398.493C924.421 398.6 924.341 398.725 924.256 398.869C924.171 399.013 924.091 399.184 924.016 399.381C923.941 399.579 923.88 399.808 923.832 400.069C923.779 400.331 923.752 400.632 923.752 400.973C923.752 401.587 923.859 402.149 924.072 402.661C924.28 403.168 924.579 403.605 924.968 403.973C925.357 404.341 925.832 404.629 926.392 404.837C926.952 405.04 927.579 405.141 928.272 405.141C928.987 405.141 929.624 405.04 930.184 404.837C930.744 404.629 931.219 404.349 931.608 403.997C931.992 403.64 932.285 403.219 932.488 402.733C932.691 402.248 932.792 401.725 932.792 401.165C932.792 400.824 932.773 400.517 932.736 400.245C932.693 399.973 932.629 399.723 932.544 399.493C932.459 399.259 932.352 399.043 932.224 398.845C932.091 398.643 931.933 398.44 931.752 398.237C931.672 398.147 931.632 398.059 931.632 397.973ZM922.536 388.036H923.8V393.54H927.608V389.084H928.824V393.54H932.736V388.036H934V395.1H922.536V388.036ZM922.536 378.739H923.8V384.243H927.808V379.539H929.072V384.243H934V385.803H922.536V378.739ZM922.408 373.325C922.408 372.839 922.48 372.386 922.624 371.965C922.768 371.543 922.979 371.181 923.256 370.877C923.528 370.567 923.861 370.325 924.256 370.149C924.651 369.973 925.099 369.885 925.6 369.885C926.027 369.885 926.421 369.949 926.784 370.077C927.147 370.205 927.496 370.378 927.832 370.597C928.163 370.815 928.485 371.069 928.8 371.357C929.109 371.639 929.427 371.941 929.752 372.261L932.84 375.277C932.781 375.063 932.736 374.847 932.704 374.629C932.667 374.41 932.648 374.199 932.648 373.997V370.157C932.648 370.002 932.693 369.879 932.784 369.789C932.875 369.698 932.992 369.653 933.136 369.653H934V377.301H933.512C933.411 377.301 933.307 377.282 933.2 377.245C933.093 377.202 932.995 377.135 932.904 377.045L929.216 373.373C928.907 373.069 928.611 372.791 928.328 372.541C928.04 372.29 927.752 372.077 927.464 371.901C927.176 371.719 926.885 371.581 926.592 371.485C926.293 371.389 925.976 371.341 925.64 371.341C925.304 371.341 925.011 371.394 924.76 371.501C924.504 371.607 924.293 371.754 924.128 371.941C923.963 372.127 923.84 372.346 923.76 372.597C923.675 372.847 923.632 373.117 923.632 373.405C923.632 373.693 923.675 373.959 923.76 374.205C923.845 374.45 923.965 374.669 924.12 374.861C924.269 375.047 924.448 375.207 924.656 375.341C924.864 375.469 925.093 375.559 925.344 375.613C925.499 375.655 925.611 375.719 925.68 375.805C925.749 375.89 925.784 376.002 925.784 376.141C925.784 376.167 925.784 376.197 925.784 376.229C925.779 376.255 925.773 376.287 925.768 376.325L925.64 377.069C925.117 376.994 924.656 376.85 924.256 376.637C923.851 376.423 923.512 376.154 923.24 375.829C922.968 375.498 922.763 375.122 922.624 374.701C922.48 374.274 922.408 373.815 922.408 373.325ZM922.536 360.396H923.8V365.9H927.608V361.444H928.824V365.9H932.736V360.396H934V367.46H922.536V360.396ZM934.128 354.923C934.128 355.493 934.053 356.016 933.904 356.491C933.749 356.965 933.531 357.373 933.248 357.715C932.965 358.056 932.624 358.32 932.224 358.507C931.819 358.693 931.365 358.787 930.864 358.787C930.128 358.787 929.523 358.595 929.048 358.211C928.568 357.827 928.227 357.277 928.024 356.563C927.8 357.165 927.467 357.621 927.024 357.931C926.576 358.235 926.043 358.387 925.424 358.387C925.003 358.387 924.608 358.304 924.24 358.139C923.872 357.973 923.552 357.739 923.28 357.435C923.008 357.131 922.795 356.768 922.64 356.347C922.485 355.92 922.408 355.445 922.408 354.923C922.408 354.405 922.485 353.933 922.64 353.507C922.795 353.08 923.008 352.715 923.28 352.411C923.552 352.107 923.872 351.872 924.24 351.707C924.608 351.541 925.003 351.459 925.424 351.459C926.043 351.459 926.576 351.613 927.024 351.923C927.467 352.232 927.8 352.685 928.024 353.283C928.227 352.568 928.568 352.019 929.048 351.635C929.523 351.251 930.128 351.059 930.864 351.059C931.365 351.059 931.819 351.155 932.224 351.347C932.624 351.533 932.965 351.797 933.248 352.139C933.531 352.475 933.749 352.88 933.904 353.355C934.053 353.829 934.128 354.352 934.128 354.923ZM932.992 354.923C932.992 354.549 932.941 354.216 932.84 353.923C932.733 353.624 932.587 353.373 932.4 353.171C932.208 352.963 931.981 352.805 931.72 352.699C931.453 352.587 931.16 352.531 930.84 352.531C930.445 352.531 930.109 352.597 929.832 352.731C929.549 352.859 929.32 353.035 929.144 353.259C928.968 353.477 928.84 353.731 928.76 354.019C928.675 354.307 928.632 354.608 928.632 354.923C928.632 355.237 928.675 355.539 928.76 355.827C928.84 356.115 928.968 356.371 929.144 356.595C929.32 356.813 929.549 356.989 929.832 357.123C930.109 357.251 930.445 357.315 930.84 357.315C931.16 357.315 931.453 357.261 931.72 357.155C931.981 357.043 932.208 356.885 932.4 356.683C932.587 356.475 932.733 356.224 932.84 355.931C932.941 355.632 932.992 355.296 932.992 354.923ZM927.488 354.923C927.488 354.549 927.432 354.232 927.32 353.971C927.203 353.704 927.051 353.488 926.864 353.323C926.672 353.157 926.453 353.037 926.208 352.963C925.963 352.888 925.709 352.851 925.448 352.851C925.181 352.851 924.931 352.896 924.696 352.987C924.461 353.072 924.256 353.203 924.08 353.379C923.904 353.549 923.765 353.765 923.664 354.027C923.563 354.283 923.512 354.581 923.512 354.923C923.512 355.264 923.563 355.565 923.664 355.827C923.765 356.083 923.904 356.299 924.08 356.475C924.256 356.645 924.461 356.776 924.696 356.867C924.931 356.952 925.181 356.995 925.448 356.995C925.709 356.995 925.963 356.957 926.208 356.883C926.453 356.808 926.672 356.688 926.864 356.523C927.051 356.357 927.203 356.144 927.32 355.883C927.432 355.616 927.488 355.296 927.488 354.923Z" fill="black"/>
</g>
<defs>
<clipPath id="clip0_36_2351">
<rect width="1024" height="768" fill="white"/>
</clipPath>
</defs>
</svg>
