<svg width="1024" height="768" viewBox="0 0 1024 768" fill="none" xmlns="http://www.w3.org/2000/svg">
<g clip-path="url(#clip0_39_531)">
<rect width="1024" height="768" fill="#0F284D"/>
<path d="M50.1308 550.424C49.9708 550.68 49.8001 550.872 49.6188 551C49.4481 551.128 49.2241 551.192 48.9468 551.192C48.7014 551.192 48.4348 551.117 48.1468 550.968C47.8694 550.808 47.5494 550.632 47.1868 550.44C46.8348 550.248 46.4294 550.077 45.9708 549.928C45.5121 549.768 44.9894 549.688 44.4028 549.688C43.3894 549.688 42.6321 549.907 42.1308 550.344C41.6401 550.771 41.3948 551.352 41.3948 552.088C41.3948 552.557 41.5441 552.947 41.8428 553.256C42.1414 553.565 42.5308 553.832 43.0108 554.056C43.5014 554.28 44.0561 554.488 44.6748 554.68C45.3041 554.861 45.9441 555.069 46.5948 555.304C47.2454 555.528 47.8801 555.795 48.4988 556.104C49.1281 556.413 49.6828 556.808 50.1628 557.288C50.6534 557.768 51.0481 558.355 51.3468 559.048C51.6454 559.731 51.7948 560.557 51.7948 561.528C51.7948 562.605 51.6081 563.613 51.2348 564.552C50.8614 565.491 50.3174 566.312 49.6028 567.016C48.8988 567.709 48.0241 568.259 46.9788 568.664C45.9441 569.059 44.7654 569.256 43.4427 569.256C42.7174 569.256 41.9761 569.181 41.2188 569.032C40.4721 568.883 39.7468 568.675 39.0428 568.408C38.3388 568.131 37.6774 567.805 37.0588 567.432C36.4401 567.059 35.9014 566.643 35.4428 566.184L37.0428 563.656C37.1601 563.464 37.3254 563.309 37.5388 563.192C37.7521 563.075 37.9814 563.016 38.2268 563.016C38.5468 563.016 38.8668 563.117 39.1868 563.32C39.5174 563.523 39.8854 563.747 40.2908 563.992C40.7068 564.237 41.1814 564.461 41.7148 564.664C42.2481 564.867 42.8774 564.968 43.6028 564.968C44.5841 564.968 45.3468 564.755 45.8908 564.328C46.4348 563.891 46.7068 563.203 46.7068 562.264C46.7068 561.72 46.5574 561.277 46.2588 560.936C45.9601 560.595 45.5654 560.312 45.0748 560.088C44.5948 559.864 44.0454 559.667 43.4268 559.496C42.8081 559.325 42.1734 559.139 41.5228 558.936C40.8721 558.723 40.2374 558.467 39.6188 558.168C39.0001 557.859 38.4454 557.459 37.9548 556.968C37.4748 556.467 37.0854 555.848 36.7868 555.112C36.4881 554.365 36.3388 553.448 36.3388 552.36C36.3388 551.485 36.5148 550.632 36.8668 549.8C37.2188 548.968 37.7361 548.227 38.4188 547.576C39.1014 546.925 39.9388 546.408 40.9308 546.024C41.9228 545.629 43.0588 545.432 44.3388 545.432C45.0534 545.432 45.7468 545.491 46.4188 545.608C47.1014 545.715 47.7468 545.88 48.3548 546.104C48.9628 546.317 49.5281 546.579 50.0508 546.888C50.5841 547.187 51.0588 547.528 51.4748 547.912L50.1308 550.424ZM61.8745 552.152C63.1332 552.152 64.2798 552.349 65.3145 552.744C66.3492 553.139 67.2345 553.704 67.9705 554.44C68.7172 555.176 69.2932 556.072 69.6985 557.128C70.1145 558.173 70.3225 559.352 70.3225 560.664C70.3225 561.987 70.1145 563.181 69.6985 564.248C69.2932 565.304 68.7172 566.205 67.9705 566.952C67.2345 567.688 66.3492 568.259 65.3145 568.664C64.2798 569.059 63.1332 569.256 61.8745 569.256C60.6052 569.256 59.4478 569.059 58.4025 568.664C57.3678 568.259 56.4718 567.688 55.7145 566.952C54.9678 566.205 54.3865 565.304 53.9705 564.248C53.5652 563.181 53.3625 561.987 53.3625 560.664C53.3625 559.352 53.5652 558.173 53.9705 557.128C54.3865 556.072 54.9678 555.176 55.7145 554.44C56.4718 553.704 57.3678 553.139 58.4025 552.744C59.4478 552.349 60.6052 552.152 61.8745 552.152ZM61.8745 565.576C63.0158 565.576 63.8532 565.176 64.3865 564.376C64.9305 563.565 65.2025 562.339 65.2025 560.696C65.2025 559.053 64.9305 557.832 64.3865 557.032C63.8532 556.232 63.0158 555.832 61.8745 555.832C60.7012 555.832 59.8425 556.232 59.2985 557.032C58.7545 557.832 58.4825 559.053 58.4825 560.696C58.4825 562.339 58.7545 563.565 59.2985 564.376C59.8425 565.176 60.7012 565.576 61.8745 565.576ZM85.013 556.344C84.8637 556.525 84.7197 556.669 84.581 556.776C84.4423 556.883 84.245 556.936 83.989 556.936C83.7437 556.936 83.5197 556.877 83.317 556.76C83.125 556.643 82.9063 556.515 82.661 556.376C82.4157 556.227 82.1277 556.093 81.797 555.976C81.4663 555.859 81.0557 555.8 80.565 555.8C79.957 555.8 79.429 555.912 78.981 556.136C78.5437 556.36 78.181 556.68 77.893 557.096C77.605 557.512 77.3917 558.024 77.253 558.632C77.1143 559.229 77.045 559.907 77.045 560.664C77.045 562.253 77.349 563.475 77.957 564.328C78.5757 565.181 79.4237 565.608 80.501 565.608C81.077 565.608 81.5303 565.539 81.861 565.4C82.2023 565.251 82.4903 565.091 82.725 564.92C82.9597 564.739 83.173 564.573 83.365 564.424C83.5677 564.275 83.8183 564.2 84.117 564.2C84.5117 564.2 84.8103 564.344 85.013 564.632L86.453 566.408C85.941 566.995 85.4023 567.475 84.837 567.848C84.2717 568.211 83.6903 568.499 83.093 568.712C82.5063 568.915 81.9143 569.053 81.317 569.128C80.7197 569.213 80.1383 569.256 79.573 569.256C78.5597 569.256 77.589 569.064 76.661 568.68C75.7437 568.296 74.933 567.741 74.229 567.016C73.5357 566.28 72.981 565.379 72.565 564.312C72.1597 563.245 71.957 562.029 71.957 560.664C71.957 559.469 72.133 558.355 72.485 557.32C72.8477 556.275 73.3757 555.373 74.069 554.616C74.773 553.848 75.637 553.245 76.661 552.808C77.6957 552.371 78.8903 552.152 80.245 552.152C81.5463 552.152 82.6877 552.36 83.669 552.776C84.6503 553.192 85.5357 553.8 86.325 554.6L85.013 556.344ZM93.7275 552.408V569H88.7675V552.408H93.7275ZM94.3035 547.864C94.3035 548.259 94.2235 548.632 94.0635 548.984C93.9035 549.325 93.6848 549.629 93.4075 549.896C93.1302 550.152 92.8048 550.36 92.4315 550.52C92.0688 550.669 91.6795 550.744 91.2635 550.744C90.8582 550.744 90.4795 550.669 90.1275 550.52C89.7755 550.36 89.4608 550.152 89.1835 549.896C88.9168 549.629 88.7035 549.325 88.5435 548.984C88.3942 548.632 88.3195 548.259 88.3195 547.864C88.3195 547.459 88.3942 547.08 88.5435 546.728C88.7035 546.376 88.9168 546.067 89.1835 545.8C89.4608 545.533 89.7755 545.325 90.1275 545.176C90.4795 545.027 90.8582 544.952 91.2635 544.952C91.6795 544.952 92.0688 545.027 92.4315 545.176C92.8048 545.325 93.1302 545.533 93.4075 545.8C93.6848 546.067 93.9035 546.376 94.0635 546.728C94.2235 547.08 94.3035 547.459 94.3035 547.864ZM109.189 569C108.719 569 108.362 568.936 108.117 568.808C107.882 568.68 107.685 568.413 107.525 568.008L107.173 567.096C106.757 567.448 106.357 567.757 105.973 568.024C105.589 568.291 105.189 568.52 104.773 568.712C104.367 568.893 103.93 569.027 103.461 569.112C103.002 569.208 102.49 569.256 101.925 569.256C101.167 569.256 100.479 569.16 99.8605 568.968C99.2418 568.765 98.7138 568.472 98.2765 568.088C97.8498 567.704 97.5192 567.229 97.2845 566.664C97.0498 566.088 96.9325 565.427 96.9325 564.68C96.9325 564.093 97.0818 563.491 97.3805 562.872C97.6792 562.253 98.1965 561.693 98.9325 561.192C99.6685 560.68 100.661 560.253 101.909 559.912C103.157 559.571 104.73 559.379 106.629 559.336V558.632C106.629 557.661 106.426 556.963 106.021 556.536C105.626 556.099 105.061 555.88 104.325 555.88C103.738 555.88 103.258 555.944 102.885 556.072C102.511 556.2 102.175 556.344 101.877 556.504C101.589 556.664 101.306 556.808 101.029 556.936C100.751 557.064 100.421 557.128 100.036 557.128C99.6952 557.128 99.4018 557.048 99.1565 556.888C98.9218 556.717 98.7352 556.509 98.5965 556.264L97.7005 554.712C98.7032 553.827 99.8125 553.171 101.029 552.744C102.255 552.307 103.567 552.088 104.965 552.088C105.967 552.088 106.869 552.253 107.669 552.584C108.479 552.904 109.162 553.357 109.717 553.944C110.282 554.52 110.714 555.208 111.013 556.008C111.311 556.808 111.461 557.683 111.461 558.632V569H109.189ZM103.493 565.976C104.133 565.976 104.693 565.864 105.173 565.64C105.653 565.416 106.138 565.053 106.629 564.552V562.248C105.637 562.291 104.821 562.376 104.181 562.504C103.541 562.632 103.034 562.792 102.661 562.984C102.287 563.176 102.026 563.395 101.877 563.64C101.738 563.885 101.669 564.152 101.669 564.44C101.669 565.005 101.823 565.405 102.133 565.64C102.442 565.864 102.895 565.976 103.493 565.976ZM120.103 545.048V569H115.143V545.048H120.103ZM142.215 558.344C142.428 558.749 142.631 559.171 142.823 559.608C143.026 560.045 143.218 560.493 143.399 560.952C143.58 560.483 143.772 560.029 143.975 559.592C144.178 559.144 144.386 558.712 144.599 558.296L150.583 546.52C150.69 546.317 150.796 546.163 150.903 546.056C151.02 545.939 151.148 545.853 151.287 545.8C151.426 545.747 151.58 545.715 151.751 545.704C151.932 545.693 152.14 545.688 152.375 545.688H156.503V569H151.735V555.592C151.735 554.941 151.767 554.237 151.831 553.48L145.655 565.464C145.463 565.837 145.202 566.12 144.871 566.312C144.551 566.504 144.183 566.6 143.767 566.6H143.031C142.615 566.6 142.242 566.504 141.911 566.312C141.591 566.12 141.335 565.837 141.143 565.464L134.935 553.464C134.978 553.837 135.01 554.211 135.031 554.584C135.052 554.947 135.063 555.283 135.063 555.592V569H130.295V545.688H134.423C134.658 545.688 134.86 545.693 135.031 545.704C135.212 545.715 135.372 545.747 135.511 545.8C135.65 545.853 135.772 545.939 135.879 546.056C135.996 546.163 136.108 546.317 136.215 546.52L142.215 558.344ZM167.462 552.152C168.56 552.152 169.563 552.323 170.47 552.664C171.387 553.005 172.171 553.501 172.822 554.152C173.483 554.803 173.995 555.603 174.358 556.552C174.731 557.491 174.918 558.557 174.918 559.752C174.918 560.125 174.902 560.429 174.87 560.664C174.838 560.899 174.779 561.085 174.694 561.224C174.608 561.363 174.491 561.459 174.342 561.512C174.203 561.565 174.022 561.592 173.798 561.592H164.23C164.39 562.979 164.811 563.987 165.494 564.616C166.176 565.235 167.056 565.544 168.134 565.544C168.71 565.544 169.206 565.475 169.622 565.336C170.038 565.197 170.406 565.043 170.726 564.872C171.056 564.701 171.355 564.547 171.622 564.408C171.899 564.269 172.187 564.2 172.486 564.2C172.88 564.2 173.179 564.344 173.382 564.632L174.822 566.408C174.31 566.995 173.755 567.475 173.158 567.848C172.571 568.211 171.963 568.499 171.334 568.712C170.715 568.915 170.091 569.053 169.462 569.128C168.843 569.213 168.251 569.256 167.686 569.256C166.523 569.256 165.43 569.069 164.406 568.696C163.392 568.312 162.502 567.747 161.734 567C160.976 566.253 160.374 565.325 159.926 564.216C159.488 563.107 159.27 561.816 159.27 560.344C159.27 559.235 159.456 558.184 159.83 557.192C160.214 556.2 160.758 555.331 161.462 554.584C162.176 553.837 163.035 553.245 164.038 552.808C165.051 552.371 166.192 552.152 167.462 552.152ZM167.558 555.576C166.608 555.576 165.867 555.848 165.334 556.392C164.8 556.925 164.448 557.699 164.278 558.712H170.47C170.47 558.317 170.416 557.933 170.31 557.56C170.214 557.187 170.048 556.856 169.814 556.568C169.59 556.269 169.291 556.029 168.918 555.848C168.544 555.667 168.091 555.576 167.558 555.576ZM189.412 569C189.102 569 188.841 568.931 188.628 568.792C188.425 568.653 188.281 568.445 188.196 568.168L187.812 566.904C187.481 567.256 187.134 567.576 186.772 567.864C186.409 568.152 186.014 568.403 185.588 568.616C185.172 568.819 184.718 568.973 184.228 569.08C183.748 569.197 183.225 569.256 182.66 569.256C181.796 569.256 180.996 569.064 180.26 568.68C179.524 568.296 178.889 567.741 178.356 567.016C177.822 566.291 177.401 565.405 177.092 564.36C176.793 563.304 176.644 562.104 176.644 560.76C176.644 559.523 176.814 558.376 177.156 557.32C177.497 556.253 177.977 555.336 178.596 554.568C179.225 553.789 179.977 553.181 180.852 552.744C181.726 552.307 182.692 552.088 183.748 552.088C184.601 552.088 185.321 552.216 185.908 552.472C186.505 552.717 187.044 553.043 187.524 553.448V545.048H192.484V569H189.412ZM184.388 565.448C184.75 565.448 185.076 565.416 185.364 565.352C185.662 565.277 185.934 565.176 186.18 565.048C186.425 564.92 186.654 564.76 186.868 564.568C187.092 564.376 187.31 564.152 187.524 563.896V556.856C187.14 556.44 186.729 556.152 186.292 555.992C185.865 555.821 185.412 555.736 184.932 555.736C184.473 555.736 184.052 555.827 183.668 556.008C183.284 556.189 182.948 556.483 182.66 556.888C182.382 557.283 182.164 557.8 182.004 558.44C181.844 559.08 181.764 559.853 181.764 560.76C181.764 561.635 181.828 562.371 181.956 562.968C182.084 563.565 182.26 564.051 182.484 564.424C182.718 564.787 182.996 565.048 183.316 565.208C183.636 565.368 183.993 565.448 184.388 565.448ZM201.446 552.408V569H196.486V552.408H201.446ZM202.022 547.864C202.022 548.259 201.942 548.632 201.782 548.984C201.622 549.325 201.404 549.629 201.126 549.896C200.849 550.152 200.524 550.36 200.15 550.52C199.788 550.669 199.398 550.744 198.982 550.744C198.577 550.744 198.198 550.669 197.846 550.52C197.494 550.36 197.18 550.152 196.902 549.896C196.636 549.629 196.422 549.325 196.262 548.984C196.113 548.632 196.038 548.259 196.038 547.864C196.038 547.459 196.113 547.08 196.262 546.728C196.422 546.376 196.636 546.067 196.902 545.8C197.18 545.533 197.494 545.325 197.846 545.176C198.198 545.027 198.577 544.952 198.982 544.952C199.398 544.952 199.788 545.027 200.15 545.176C200.524 545.325 200.849 545.533 201.126 545.8C201.404 546.067 201.622 546.376 201.782 546.728C201.942 547.08 202.022 547.459 202.022 547.864ZM216.907 569C216.438 569 216.081 568.936 215.835 568.808C215.601 568.68 215.403 568.413 215.243 568.008L214.891 567.096C214.475 567.448 214.075 567.757 213.691 568.024C213.307 568.291 212.907 568.52 212.491 568.712C212.086 568.893 211.649 569.027 211.179 569.112C210.721 569.208 210.209 569.256 209.643 569.256C208.886 569.256 208.198 569.16 207.579 568.968C206.961 568.765 206.433 568.472 205.995 568.088C205.569 567.704 205.238 567.229 205.003 566.664C204.769 566.088 204.651 565.427 204.651 564.68C204.651 564.093 204.801 563.491 205.099 562.872C205.398 562.253 205.915 561.693 206.651 561.192C207.387 560.68 208.379 560.253 209.627 559.912C210.875 559.571 212.449 559.379 214.347 559.336V558.632C214.347 557.661 214.145 556.963 213.739 556.536C213.345 556.099 212.779 555.88 212.043 555.88C211.457 555.88 210.977 555.944 210.603 556.072C210.23 556.2 209.894 556.344 209.595 556.504C209.307 556.664 209.025 556.808 208.747 556.936C208.47 557.064 208.139 557.128 207.755 557.128C207.414 557.128 207.121 557.048 206.875 556.888C206.641 556.717 206.454 556.509 206.315 556.264L205.419 554.712C206.422 553.827 207.531 553.171 208.747 552.744C209.974 552.307 211.286 552.088 212.683 552.088C213.686 552.088 214.587 552.253 215.387 552.584C216.198 552.904 216.881 553.357 217.435 553.944C218.001 554.52 218.433 555.208 218.731 556.008C219.03 556.808 219.179 557.683 219.179 558.632V569H216.907ZM211.211 565.976C211.851 565.976 212.411 565.864 212.891 565.64C213.371 565.416 213.857 565.053 214.347 564.552V562.248C213.355 562.291 212.539 562.376 211.899 562.504C211.259 562.632 210.753 562.792 210.379 562.984C210.006 563.176 209.745 563.395 209.595 563.64C209.457 563.885 209.387 564.152 209.387 564.44C209.387 565.005 209.542 565.405 209.851 565.64C210.161 565.864 210.614 565.976 211.211 565.976Z" fill="white"/>
<path d="M83.6859 491.328C83.6379 491.408 83.5872 491.469 83.5339 491.512C83.4805 491.549 83.4112 491.568 83.3259 491.568C83.2352 491.568 83.1285 491.523 83.0059 491.432C82.8885 491.341 82.7365 491.243 82.5499 491.136C82.3685 491.024 82.1472 490.923 81.8859 490.832C81.6299 490.741 81.3179 490.696 80.9499 490.696C80.6032 490.696 80.2965 490.744 80.0299 490.84C79.7632 490.931 79.5392 491.056 79.3579 491.216C79.1819 491.376 79.0485 491.565 78.9579 491.784C78.8672 491.997 78.8219 492.229 78.8219 492.48C78.8219 492.8 78.8992 493.067 79.0539 493.28C79.2139 493.488 79.4219 493.667 79.6779 493.816C79.9392 493.965 80.2325 494.096 80.5579 494.208C80.8885 494.315 81.2245 494.427 81.5659 494.544C81.9125 494.661 82.2485 494.795 82.5739 494.944C82.9045 495.088 83.1979 495.272 83.4539 495.496C83.7152 495.72 83.9232 495.995 84.0779 496.32C84.2379 496.645 84.3179 497.045 84.3179 497.52C84.3179 498.021 84.2325 498.493 84.0619 498.936C83.8912 499.373 83.6405 499.755 83.3099 500.08C82.9845 500.405 82.5819 500.661 82.1019 500.848C81.6272 501.035 81.0859 501.128 80.4779 501.128C79.7365 501.128 79.0592 500.995 78.4459 500.728C77.8379 500.456 77.3179 500.091 76.8859 499.632L77.3339 498.896C77.3765 498.837 77.4272 498.789 77.4859 498.752C77.5499 498.709 77.6192 498.688 77.6939 498.688C77.8059 498.688 77.9339 498.749 78.0779 498.872C78.2219 498.989 78.4005 499.12 78.6139 499.264C78.8325 499.408 79.0939 499.541 79.3979 499.664C79.7072 499.781 80.0832 499.84 80.5259 499.84C80.8939 499.84 81.2219 499.789 81.5099 499.688C81.7979 499.587 82.0405 499.445 82.2379 499.264C82.4405 499.077 82.5952 498.856 82.7019 498.6C82.8085 498.344 82.8619 498.059 82.8619 497.744C82.8619 497.397 82.7819 497.115 82.6219 496.896C82.4672 496.672 82.2619 496.485 82.0059 496.336C81.7499 496.187 81.4565 496.061 81.1259 495.96C80.8005 495.853 80.4645 495.747 80.1179 495.64C79.7765 495.528 79.4405 495.4 79.1099 495.256C78.7845 495.112 78.4939 494.925 78.2379 494.696C77.9819 494.467 77.7739 494.181 77.6139 493.84C77.4592 493.493 77.3819 493.067 77.3819 492.56C77.3819 492.155 77.4592 491.763 77.6139 491.384C77.7739 491.005 78.0032 490.669 78.3019 490.376C78.6005 490.083 78.9685 489.848 79.4059 489.672C79.8485 489.496 80.3552 489.408 80.9259 489.408C81.5659 489.408 82.1499 489.509 82.6779 489.712C83.2059 489.915 83.6672 490.208 84.0619 490.592L83.6859 491.328ZM86.0743 503.744V492.896H86.9223C87.1249 492.896 87.2529 492.995 87.3063 493.192L87.4263 494.152C87.7729 493.731 88.1676 493.392 88.6103 493.136C89.0583 492.88 89.5729 492.752 90.1543 492.752C90.6183 492.752 91.0396 492.843 91.4183 493.024C91.7969 493.2 92.1196 493.464 92.3863 493.816C92.6529 494.163 92.8583 494.595 93.0023 495.112C93.1463 495.629 93.2183 496.224 93.2183 496.896C93.2183 497.493 93.1383 498.051 92.9783 498.568C92.8183 499.08 92.5889 499.525 92.2903 499.904C91.9916 500.277 91.6236 500.573 91.1863 500.792C90.7543 501.005 90.2663 501.112 89.7223 501.112C89.2209 501.112 88.7916 501.029 88.4343 500.864C88.0823 500.699 87.7703 500.464 87.4983 500.16V503.744H86.0743ZM89.6823 493.904C89.2183 493.904 88.8103 494.011 88.4583 494.224C88.1116 494.437 87.7916 494.739 87.4983 495.128V499.048C87.7596 499.4 88.0449 499.648 88.3543 499.792C88.6689 499.936 89.0183 500.008 89.4023 500.008C90.1543 500.008 90.7329 499.739 91.1383 499.2C91.5436 498.661 91.7463 497.893 91.7463 496.896C91.7463 496.368 91.6983 495.915 91.6023 495.536C91.5116 495.157 91.3783 494.848 91.2023 494.608C91.0263 494.363 90.8103 494.184 90.5543 494.072C90.2983 493.96 90.0076 493.904 89.6823 493.904ZM98.1104 492.768C98.5957 492.768 99.0437 492.851 99.4544 493.016C99.865 493.176 100.22 493.411 100.518 493.72C100.817 494.024 101.049 494.403 101.214 494.856C101.385 495.304 101.47 495.816 101.47 496.392C101.47 496.616 101.446 496.765 101.398 496.84C101.35 496.915 101.26 496.952 101.126 496.952H95.7344C95.745 497.464 95.8144 497.909 95.9424 498.288C96.0704 498.667 96.2464 498.984 96.4704 499.24C96.6944 499.491 96.961 499.68 97.2704 499.808C97.5797 499.931 97.9264 499.992 98.3104 499.992C98.6677 499.992 98.9744 499.952 99.2304 499.872C99.4917 499.787 99.7157 499.696 99.9024 499.6C100.089 499.504 100.244 499.416 100.366 499.336C100.494 499.251 100.604 499.208 100.694 499.208C100.812 499.208 100.902 499.253 100.966 499.344L101.366 499.864C101.19 500.077 100.98 500.264 100.734 500.424C100.489 500.579 100.225 500.707 99.9424 500.808C99.665 500.909 99.377 500.984 99.0784 501.032C98.7797 501.085 98.4837 501.112 98.1904 501.112C97.6304 501.112 97.113 501.019 96.6384 500.832C96.169 500.64 95.761 500.363 95.4144 500C95.073 499.632 94.8064 499.179 94.6144 498.64C94.4224 498.101 94.3264 497.483 94.3264 496.784C94.3264 496.219 94.4117 495.691 94.5824 495.2C94.7584 494.709 95.009 494.285 95.3344 493.928C95.6597 493.565 96.057 493.283 96.5264 493.08C96.9957 492.872 97.5237 492.768 98.1104 492.768ZM98.1424 493.816C97.4544 493.816 96.913 494.016 96.5184 494.416C96.1237 494.811 95.8784 495.36 95.7824 496.064H100.19C100.19 495.733 100.145 495.432 100.054 495.16C99.9637 494.883 99.8304 494.645 99.6544 494.448C99.4784 494.245 99.2624 494.091 99.0064 493.984C98.7557 493.872 98.4677 493.816 98.1424 493.816ZM106.501 492.768C106.986 492.768 107.434 492.851 107.845 493.016C108.256 493.176 108.61 493.411 108.909 493.72C109.208 494.024 109.44 494.403 109.605 494.856C109.776 495.304 109.861 495.816 109.861 496.392C109.861 496.616 109.837 496.765 109.789 496.84C109.741 496.915 109.65 496.952 109.517 496.952H104.125C104.136 497.464 104.205 497.909 104.333 498.288C104.461 498.667 104.637 498.984 104.861 499.24C105.085 499.491 105.352 499.68 105.661 499.808C105.97 499.931 106.317 499.992 106.701 499.992C107.058 499.992 107.365 499.952 107.621 499.872C107.882 499.787 108.106 499.696 108.293 499.6C108.48 499.504 108.634 499.416 108.757 499.336C108.885 499.251 108.994 499.208 109.085 499.208C109.202 499.208 109.293 499.253 109.357 499.344L109.757 499.864C109.581 500.077 109.37 500.264 109.125 500.424C108.88 500.579 108.616 500.707 108.333 500.808C108.056 500.909 107.768 500.984 107.469 501.032C107.17 501.085 106.874 501.112 106.581 501.112C106.021 501.112 105.504 501.019 105.029 500.832C104.56 500.64 104.152 500.363 103.805 500C103.464 499.632 103.197 499.179 103.005 498.64C102.813 498.101 102.717 497.483 102.717 496.784C102.717 496.219 102.802 495.691 102.973 495.2C103.149 494.709 103.4 494.285 103.725 493.928C104.05 493.565 104.448 493.283 104.917 493.08C105.386 492.872 105.914 492.768 106.501 492.768ZM106.533 493.816C105.845 493.816 105.304 494.016 104.909 494.416C104.514 494.811 104.269 495.36 104.173 496.064H108.581C108.581 495.733 108.536 495.432 108.445 495.16C108.354 494.883 108.221 494.645 108.045 494.448C107.869 494.245 107.653 494.091 107.397 493.984C107.146 493.872 106.858 493.816 106.533 493.816ZM117.212 494.336C117.169 494.395 117.126 494.44 117.084 494.472C117.041 494.504 116.98 494.52 116.9 494.52C116.82 494.52 116.732 494.488 116.636 494.424C116.545 494.355 116.428 494.28 116.284 494.2C116.14 494.12 115.964 494.048 115.756 493.984C115.553 493.915 115.302 493.88 115.004 493.88C114.609 493.88 114.26 493.952 113.956 494.096C113.652 494.235 113.396 494.437 113.188 494.704C112.985 494.971 112.83 495.293 112.724 495.672C112.622 496.051 112.572 496.475 112.572 496.944C112.572 497.435 112.628 497.872 112.74 498.256C112.852 498.635 113.009 498.955 113.212 499.216C113.414 499.472 113.66 499.669 113.948 499.808C114.241 499.941 114.569 500.008 114.932 500.008C115.278 500.008 115.564 499.968 115.788 499.888C116.012 499.803 116.198 499.709 116.348 499.608C116.497 499.507 116.62 499.416 116.716 499.336C116.812 499.251 116.908 499.208 117.004 499.208C117.126 499.208 117.217 499.253 117.276 499.344L117.676 499.864C117.324 500.296 116.884 500.613 116.356 500.816C115.828 501.013 115.27 501.112 114.684 501.112C114.177 501.112 113.705 501.019 113.268 500.832C112.836 500.645 112.46 500.376 112.14 500.024C111.82 499.667 111.566 499.229 111.38 498.712C111.198 498.195 111.108 497.605 111.108 496.944C111.108 496.341 111.19 495.784 111.356 495.272C111.526 494.76 111.772 494.32 112.092 493.952C112.417 493.579 112.817 493.288 113.292 493.08C113.766 492.872 114.31 492.768 114.924 492.768C115.489 492.768 115.99 492.861 116.428 493.048C116.865 493.229 117.252 493.488 117.588 493.824L117.212 494.336ZM119.152 501V489.216H120.576V493.984C120.923 493.616 121.307 493.323 121.728 493.104C122.15 492.88 122.635 492.768 123.184 492.768C123.627 492.768 124.016 492.843 124.352 492.992C124.694 493.136 124.976 493.344 125.2 493.616C125.43 493.883 125.603 494.205 125.72 494.584C125.838 494.963 125.896 495.381 125.896 495.84V501H124.472V495.84C124.472 495.227 124.331 494.752 124.048 494.416C123.771 494.075 123.344 493.904 122.768 493.904C122.347 493.904 121.952 494.005 121.584 494.208C121.222 494.411 120.886 494.685 120.576 495.032V501H119.152ZM131.361 501V489.536H135.017C135.721 489.536 136.326 489.605 136.833 489.744C137.345 489.883 137.763 490.08 138.089 490.336C138.419 490.592 138.662 490.907 138.817 491.28C138.977 491.648 139.057 492.064 139.057 492.528C139.057 492.811 139.011 493.083 138.921 493.344C138.835 493.605 138.702 493.848 138.521 494.072C138.345 494.296 138.121 494.496 137.849 494.672C137.582 494.848 137.267 494.992 136.905 495.104C137.742 495.269 138.374 495.571 138.801 496.008C139.227 496.445 139.441 497.021 139.441 497.736C139.441 498.221 139.35 498.664 139.169 499.064C138.993 499.464 138.731 499.808 138.385 500.096C138.043 500.384 137.622 500.608 137.121 500.768C136.625 500.923 136.057 501 135.417 501H131.361ZM132.913 495.776V499.768H135.393C135.835 499.768 136.214 499.717 136.529 499.616C136.849 499.515 137.11 499.373 137.313 499.192C137.521 499.005 137.673 498.787 137.769 498.536C137.865 498.28 137.913 498 137.913 497.696C137.913 497.104 137.702 496.637 137.281 496.296C136.865 495.949 136.233 495.776 135.385 495.776H132.913ZM132.913 494.672H134.961C135.398 494.672 135.777 494.624 136.097 494.528C136.417 494.432 136.681 494.299 136.889 494.128C137.102 493.957 137.259 493.752 137.361 493.512C137.462 493.267 137.513 493 137.513 492.712C137.513 492.04 137.31 491.547 136.905 491.232C136.499 490.917 135.87 490.76 135.017 490.76H132.913V494.672ZM142.728 492.896V498.064C142.728 498.677 142.869 499.152 143.152 499.488C143.435 499.824 143.861 499.992 144.432 499.992C144.848 499.992 145.24 499.893 145.608 499.696C145.976 499.499 146.315 499.224 146.624 498.872V492.896H148.048V501H147.2C146.997 501 146.869 500.901 146.816 500.704L146.704 499.832C146.352 500.221 145.957 500.536 145.52 500.776C145.083 501.011 144.581 501.128 144.016 501.128C143.573 501.128 143.181 501.056 142.84 500.912C142.504 500.763 142.221 500.555 141.992 500.288C141.763 500.021 141.589 499.699 141.472 499.32C141.36 498.941 141.304 498.523 141.304 498.064V492.896H142.728ZM150.435 501V489.216H151.867V494.064C152.203 493.675 152.587 493.363 153.019 493.128C153.456 492.888 153.955 492.768 154.515 492.768C154.984 492.768 155.408 492.856 155.787 493.032C156.165 493.208 156.488 493.472 156.755 493.824C157.021 494.171 157.227 494.603 157.371 495.12C157.515 495.632 157.587 496.224 157.587 496.896C157.587 497.493 157.507 498.051 157.347 498.568C157.187 499.08 156.955 499.525 156.651 499.904C156.352 500.277 155.984 500.573 155.547 500.792C155.115 501.005 154.627 501.112 154.083 501.112C153.56 501.112 153.115 501.011 152.747 500.808C152.384 500.605 152.067 500.323 151.795 499.96L151.723 500.696C151.68 500.899 151.557 501 151.355 501H150.435ZM154.051 493.904C153.587 493.904 153.179 494.011 152.827 494.224C152.48 494.437 152.16 494.739 151.867 495.128V499.048C152.123 499.4 152.405 499.648 152.715 499.792C153.029 499.936 153.379 500.008 153.763 500.008C154.52 500.008 155.101 499.739 155.507 499.2C155.912 498.661 156.115 497.893 156.115 496.896C156.115 496.368 156.067 495.915 155.971 495.536C155.88 495.157 155.747 494.848 155.571 494.608C155.395 494.363 155.179 494.184 154.923 494.072C154.667 493.96 154.376 493.904 154.051 493.904ZM159.372 501V489.216H160.804V494.064C161.14 493.675 161.524 493.363 161.956 493.128C162.394 492.888 162.892 492.768 163.452 492.768C163.922 492.768 164.346 492.856 164.724 493.032C165.103 493.208 165.426 493.472 165.692 493.824C165.959 494.171 166.164 494.603 166.308 495.12C166.452 495.632 166.524 496.224 166.524 496.896C166.524 497.493 166.444 498.051 166.284 498.568C166.124 499.08 165.892 499.525 165.588 499.904C165.29 500.277 164.922 500.573 164.484 500.792C164.052 501.005 163.564 501.112 163.02 501.112C162.498 501.112 162.052 501.011 161.684 500.808C161.322 500.605 161.004 500.323 160.732 499.96L160.66 500.696C160.618 500.899 160.495 501 160.292 501H159.372ZM162.988 493.904C162.524 493.904 162.116 494.011 161.764 494.224C161.418 494.437 161.098 494.739 160.804 495.128V499.048C161.06 499.4 161.343 499.648 161.652 499.792C161.967 499.936 162.316 500.008 162.7 500.008C163.458 500.008 164.039 499.739 164.444 499.2C164.85 498.661 165.052 497.893 165.052 496.896C165.052 496.368 165.004 495.915 164.908 495.536C164.818 495.157 164.684 494.848 164.508 494.608C164.332 494.363 164.116 494.184 163.86 494.072C163.604 493.96 163.314 493.904 162.988 493.904ZM169.846 489.216V501H168.422V489.216H169.846ZM175.564 492.768C176.049 492.768 176.497 492.851 176.908 493.016C177.318 493.176 177.673 493.411 177.972 493.72C178.27 494.024 178.502 494.403 178.668 494.856C178.838 495.304 178.924 495.816 178.924 496.392C178.924 496.616 178.9 496.765 178.852 496.84C178.804 496.915 178.713 496.952 178.58 496.952H173.188C173.198 497.464 173.268 497.909 173.396 498.288C173.524 498.667 173.7 498.984 173.924 499.24C174.148 499.491 174.414 499.68 174.724 499.808C175.033 499.931 175.38 499.992 175.764 499.992C176.121 499.992 176.428 499.952 176.684 499.872C176.945 499.787 177.169 499.696 177.356 499.6C177.542 499.504 177.697 499.416 177.82 499.336C177.948 499.251 178.057 499.208 178.148 499.208C178.265 499.208 178.356 499.253 178.42 499.344L178.82 499.864C178.644 500.077 178.433 500.264 178.188 500.424C177.942 500.579 177.678 500.707 177.396 500.808C177.118 500.909 176.83 500.984 176.532 501.032C176.233 501.085 175.937 501.112 175.644 501.112C175.084 501.112 174.566 501.019 174.092 500.832C173.622 500.64 173.214 500.363 172.868 500C172.526 499.632 172.26 499.179 172.068 498.64C171.876 498.101 171.78 497.483 171.78 496.784C171.78 496.219 171.865 495.691 172.036 495.2C172.212 494.709 172.462 494.285 172.788 493.928C173.113 493.565 173.51 493.283 173.98 493.08C174.449 492.872 174.977 492.768 175.564 492.768ZM175.595 493.816C174.908 493.816 174.366 494.016 173.972 494.416C173.577 494.811 173.332 495.36 173.236 496.064H177.644C177.644 495.733 177.598 495.432 177.508 495.16C177.417 494.883 177.284 494.645 177.108 494.448C176.932 494.245 176.716 494.091 176.46 493.984C176.209 493.872 175.921 493.816 175.595 493.816Z" fill="white"/>
<path d="M285.787 562.968C285.915 562.968 286.043 562.995 286.171 563.048C286.299 563.091 286.422 563.171 286.539 563.288L288.683 565.544C287.744 566.771 286.566 567.699 285.147 568.328C283.739 568.947 282.07 569.256 280.139 569.256C278.368 569.256 276.779 568.957 275.371 568.36C273.974 567.752 272.784 566.92 271.803 565.864C270.832 564.797 270.086 563.539 269.563 562.088C269.04 560.627 268.779 559.043 268.779 557.336C268.779 555.597 269.078 554.003 269.675 552.552C270.272 551.091 271.104 549.832 272.171 548.776C273.248 547.72 274.534 546.899 276.027 546.312C277.52 545.725 279.168 545.432 280.971 545.432C281.846 545.432 282.667 545.512 283.435 545.672C284.214 545.821 284.939 546.035 285.611 546.312C286.283 546.579 286.902 546.904 287.467 547.288C288.032 547.661 288.534 548.077 288.971 548.536L287.147 550.984C287.03 551.133 286.891 551.272 286.731 551.4C286.571 551.517 286.347 551.576 286.059 551.576C285.867 551.576 285.686 551.533 285.515 551.448C285.344 551.363 285.163 551.261 284.971 551.144C284.779 551.016 284.566 550.883 284.331 550.744C284.107 550.595 283.835 550.461 283.515 550.344C283.206 550.216 282.838 550.109 282.411 550.024C281.995 549.939 281.504 549.896 280.939 549.896C279.958 549.896 279.062 550.072 278.251 550.424C277.44 550.765 276.742 551.261 276.155 551.912C275.579 552.552 275.126 553.331 274.795 554.248C274.475 555.165 274.315 556.195 274.315 557.336C274.315 558.531 274.475 559.592 274.795 560.52C275.126 561.448 275.568 562.232 276.123 562.872C276.688 563.501 277.344 563.981 278.091 564.312C278.838 564.643 279.638 564.808 280.491 564.808C280.982 564.808 281.43 564.787 281.835 564.744C282.24 564.691 282.614 564.605 282.955 564.488C283.307 564.371 283.638 564.221 283.947 564.04C284.267 563.848 284.587 563.613 284.907 563.336C285.035 563.229 285.174 563.144 285.323 563.08C285.472 563.005 285.627 562.968 285.787 562.968ZM291.154 569V552.408H294.098C294.344 552.408 294.546 552.429 294.706 552.472C294.877 552.515 295.016 552.584 295.122 552.68C295.24 552.765 295.325 552.883 295.378 553.032C295.442 553.181 295.496 553.363 295.538 553.576L295.81 555.128C296.418 554.189 297.101 553.448 297.858 552.904C298.616 552.36 299.442 552.088 300.338 552.088C301.096 552.088 301.704 552.269 302.162 552.632L301.522 556.28C301.48 556.504 301.394 556.664 301.266 556.76C301.138 556.845 300.968 556.888 300.754 556.888C300.573 556.888 300.36 556.867 300.114 556.824C299.869 556.771 299.56 556.744 299.186 556.744C297.885 556.744 296.861 557.437 296.114 558.824V569H291.154ZM311.157 573.304C311.008 573.635 310.826 573.875 310.613 574.024C310.4 574.184 310.058 574.264 309.589 574.264H305.877L309.077 567.544L302.453 552.408H306.837C307.221 552.408 307.52 552.493 307.733 552.664C307.946 552.835 308.096 553.037 308.181 553.272L310.901 560.424C311.157 561.085 311.365 561.747 311.525 562.408C311.632 562.067 311.749 561.731 311.877 561.4C312.005 561.069 312.128 560.733 312.245 560.392L314.709 553.272C314.794 553.027 314.96 552.824 315.205 552.664C315.461 552.493 315.733 552.408 316.021 552.408H320.021L311.157 573.304ZM322.061 574.264V552.408H325.133C325.442 552.408 325.698 552.477 325.901 552.616C326.114 552.755 326.263 552.963 326.349 553.24L326.717 554.456C327.037 554.104 327.378 553.784 327.741 553.496C328.114 553.208 328.509 552.963 328.925 552.76C329.351 552.547 329.805 552.381 330.285 552.264C330.775 552.147 331.309 552.088 331.885 552.088C332.749 552.088 333.549 552.28 334.285 552.664C335.021 553.048 335.655 553.603 336.189 554.328C336.722 555.053 337.138 555.944 337.437 557C337.746 558.045 337.901 559.235 337.901 560.568C337.901 561.816 337.725 562.968 337.373 564.024C337.031 565.08 336.546 565.997 335.917 566.776C335.298 567.555 334.551 568.163 333.677 568.6C332.813 569.037 331.853 569.256 330.797 569.256C329.933 569.256 329.207 569.133 328.621 568.888C328.034 568.643 327.501 568.312 327.021 567.896V574.264H322.061ZM330.157 555.88C329.794 555.88 329.463 555.917 329.165 555.992C328.877 556.056 328.605 556.152 328.349 556.28C328.103 556.408 327.874 556.573 327.661 556.776C327.447 556.968 327.234 557.192 327.021 557.448V564.488C327.394 564.904 327.799 565.197 328.237 565.368C328.674 565.528 329.133 565.608 329.613 565.608C330.071 565.608 330.493 565.517 330.877 565.336C331.261 565.155 331.591 564.867 331.869 564.472C332.157 564.067 332.381 563.544 332.541 562.904C332.701 562.264 332.781 561.485 332.781 560.568C332.781 559.693 332.717 558.957 332.589 558.36C332.461 557.763 332.279 557.283 332.045 556.92C331.821 556.547 331.549 556.28 331.229 556.12C330.909 555.96 330.551 555.88 330.157 555.88ZM346.385 569.256C345.595 569.256 344.897 569.144 344.289 568.92C343.691 568.685 343.185 568.36 342.769 567.944C342.363 567.517 342.054 567.005 341.841 566.408C341.627 565.811 341.521 565.144 341.521 564.408V555.832H340.113C339.857 555.832 339.638 555.752 339.457 555.592C339.275 555.421 339.185 555.176 339.185 554.856V552.92L341.825 552.408L342.801 548.36C342.929 547.848 343.291 547.592 343.889 547.592H346.481V552.44H350.513V555.832H346.481V564.072C346.481 564.456 346.571 564.776 346.753 565.032C346.945 565.277 347.217 565.4 347.569 565.4C347.75 565.4 347.899 565.384 348.017 565.352C348.145 565.309 348.251 565.267 348.337 565.224C348.433 565.171 348.518 565.128 348.593 565.096C348.678 565.053 348.774 565.032 348.881 565.032C349.03 565.032 349.147 565.069 349.233 565.144C349.329 565.208 349.425 565.315 349.521 565.464L351.025 567.816C350.385 568.296 349.665 568.659 348.865 568.904C348.065 569.139 347.238 569.256 346.385 569.256ZM360.765 552.152C362.024 552.152 363.17 552.349 364.205 552.744C365.24 553.139 366.125 553.704 366.861 554.44C367.608 555.176 368.184 556.072 368.589 557.128C369.005 558.173 369.213 559.352 369.213 560.664C369.213 561.987 369.005 563.181 368.589 564.248C368.184 565.304 367.608 566.205 366.861 566.952C366.125 567.688 365.24 568.259 364.205 568.664C363.17 569.059 362.024 569.256 360.765 569.256C359.496 569.256 358.338 569.059 357.293 568.664C356.258 568.259 355.362 567.688 354.605 566.952C353.858 566.205 353.277 565.304 352.861 564.248C352.456 563.181 352.253 561.987 352.253 560.664C352.253 559.352 352.456 558.173 352.861 557.128C353.277 556.072 353.858 555.176 354.605 554.44C355.362 553.704 356.258 553.139 357.293 552.744C358.338 552.349 359.496 552.152 360.765 552.152ZM360.765 565.576C361.906 565.576 362.744 565.176 363.277 564.376C363.821 563.565 364.093 562.339 364.093 560.696C364.093 559.053 363.821 557.832 363.277 557.032C362.744 556.232 361.906 555.832 360.765 555.832C359.592 555.832 358.733 556.232 358.189 557.032C357.645 557.832 357.373 559.053 357.373 560.696C357.373 562.339 357.645 563.565 358.189 564.376C358.733 565.176 359.592 565.576 360.765 565.576ZM383.904 556.344C383.754 556.525 383.61 556.669 383.472 556.776C383.333 556.883 383.136 556.936 382.88 556.936C382.634 556.936 382.41 556.877 382.208 556.76C382.016 556.643 381.797 556.515 381.552 556.376C381.306 556.227 381.018 556.093 380.688 555.976C380.357 555.859 379.946 555.8 379.456 555.8C378.848 555.8 378.32 555.912 377.872 556.136C377.434 556.36 377.072 556.68 376.784 557.096C376.496 557.512 376.282 558.024 376.144 558.632C376.005 559.229 375.936 559.907 375.936 560.664C375.936 562.253 376.24 563.475 376.848 564.328C377.466 565.181 378.314 565.608 379.392 565.608C379.968 565.608 380.421 565.539 380.752 565.4C381.093 565.251 381.381 565.091 381.616 564.92C381.85 564.739 382.064 564.573 382.256 564.424C382.458 564.275 382.709 564.2 383.008 564.2C383.402 564.2 383.701 564.344 383.904 564.632L385.344 566.408C384.832 566.995 384.293 567.475 383.728 567.848C383.162 568.211 382.581 568.499 381.984 568.712C381.397 568.915 380.805 569.053 380.208 569.128C379.61 569.213 379.029 569.256 378.464 569.256C377.45 569.256 376.48 569.064 375.552 568.68C374.634 568.296 373.824 567.741 373.12 567.016C372.426 566.28 371.872 565.379 371.456 564.312C371.05 563.245 370.848 562.029 370.848 560.664C370.848 559.469 371.024 558.355 371.376 557.32C371.738 556.275 372.266 555.373 372.96 554.616C373.664 553.848 374.528 553.245 375.552 552.808C376.586 552.371 377.781 552.152 379.136 552.152C380.437 552.152 381.578 552.36 382.56 552.776C383.541 553.192 384.426 553.8 385.216 554.6L383.904 556.344ZM392.138 552.408V562.936C392.138 563.757 392.325 564.392 392.698 564.84C393.071 565.288 393.621 565.512 394.346 565.512C394.89 565.512 395.397 565.4 395.866 565.176C396.346 564.952 396.81 564.637 397.258 564.232V552.408H402.218V569H399.146C398.527 569 398.122 568.723 397.93 568.168L397.626 567.208C397.306 567.517 396.975 567.8 396.634 568.056C396.293 568.301 395.925 568.515 395.53 568.696C395.146 568.867 394.73 569 394.282 569.096C393.834 569.203 393.343 569.256 392.81 569.256C391.903 569.256 391.098 569.101 390.394 568.792C389.701 568.472 389.114 568.029 388.634 567.464C388.154 566.899 387.791 566.232 387.546 565.464C387.301 564.696 387.178 563.853 387.178 562.936V552.408H392.138ZM406.061 569V552.408H409.005C409.25 552.408 409.453 552.429 409.613 552.472C409.783 552.515 409.922 552.584 410.029 552.68C410.146 552.765 410.231 552.883 410.285 553.032C410.349 553.181 410.402 553.363 410.445 553.576L410.717 555.128C411.325 554.189 412.007 553.448 412.765 552.904C413.522 552.36 414.349 552.088 415.245 552.088C416.002 552.088 416.61 552.269 417.069 552.632L416.429 556.28C416.386 556.504 416.301 556.664 416.173 556.76C416.045 556.845 415.874 556.888 415.661 556.888C415.479 556.888 415.266 556.867 415.021 556.824C414.775 556.771 414.466 556.744 414.093 556.744C412.791 556.744 411.767 557.437 411.021 558.824V569H406.061ZM419.279 569V552.408H422.223C422.469 552.408 422.671 552.429 422.831 552.472C423.002 552.515 423.141 552.584 423.247 552.68C423.365 552.765 423.45 552.883 423.503 553.032C423.567 553.181 423.621 553.363 423.663 553.576L423.935 555.128C424.543 554.189 425.226 553.448 425.983 552.904C426.741 552.36 427.567 552.088 428.463 552.088C429.221 552.088 429.829 552.269 430.287 552.632L429.647 556.28C429.605 556.504 429.519 556.664 429.391 556.76C429.263 556.845 429.093 556.888 428.879 556.888C428.698 556.888 428.485 556.867 428.239 556.824C427.994 556.771 427.685 556.744 427.311 556.744C426.01 556.744 424.986 557.437 424.239 558.824V569H419.279ZM439.602 552.152C440.701 552.152 441.703 552.323 442.61 552.664C443.527 553.005 444.311 553.501 444.962 554.152C445.623 554.803 446.135 555.603 446.498 556.552C446.871 557.491 447.058 558.557 447.058 559.752C447.058 560.125 447.042 560.429 447.01 560.664C446.978 560.899 446.919 561.085 446.834 561.224C446.749 561.363 446.631 561.459 446.482 561.512C446.343 561.565 446.162 561.592 445.938 561.592H436.37C436.53 562.979 436.951 563.987 437.634 564.616C438.317 565.235 439.197 565.544 440.274 565.544C440.85 565.544 441.346 565.475 441.762 565.336C442.178 565.197 442.546 565.043 442.866 564.872C443.197 564.701 443.495 564.547 443.762 564.408C444.039 564.269 444.327 564.2 444.626 564.2C445.021 564.2 445.319 564.344 445.522 564.632L446.962 566.408C446.45 566.995 445.895 567.475 445.298 567.848C444.711 568.211 444.103 568.499 443.474 568.712C442.855 568.915 442.231 569.053 441.602 569.128C440.983 569.213 440.391 569.256 439.826 569.256C438.663 569.256 437.57 569.069 436.546 568.696C435.533 568.312 434.642 567.747 433.874 567C433.117 566.253 432.514 565.325 432.066 564.216C431.629 563.107 431.41 561.816 431.41 560.344C431.41 559.235 431.597 558.184 431.97 557.192C432.354 556.2 432.898 555.331 433.602 554.584C434.317 553.837 435.175 553.245 436.178 552.808C437.191 552.371 438.333 552.152 439.602 552.152ZM439.698 555.576C438.749 555.576 438.007 555.848 437.474 556.392C436.941 556.925 436.589 557.699 436.418 558.712H442.61C442.61 558.317 442.557 557.933 442.45 557.56C442.354 557.187 442.189 556.856 441.954 556.568C441.73 556.269 441.431 556.029 441.058 555.848C440.685 555.667 440.231 555.576 439.698 555.576ZM449.904 569V552.408H452.976C453.286 552.408 453.542 552.477 453.744 552.616C453.958 552.755 454.107 552.963 454.192 553.24L454.48 554.2C454.8 553.901 455.131 553.624 455.472 553.368C455.814 553.112 456.176 552.899 456.56 552.728C456.955 552.547 457.376 552.408 457.824 552.312C458.283 552.205 458.779 552.152 459.312 552.152C460.219 552.152 461.019 552.312 461.712 552.632C462.416 552.941 463.008 553.379 463.488 553.944C463.968 554.499 464.331 555.165 464.576 555.944C464.822 556.712 464.944 557.549 464.944 558.456V569H459.984V558.456C459.984 557.645 459.798 557.016 459.424 556.568C459.051 556.109 458.502 555.88 457.776 555.88C457.232 555.88 456.72 555.997 456.24 556.232C455.76 556.467 455.302 556.781 454.864 557.176V569H449.904ZM480.435 556.344C480.286 556.525 480.142 556.669 480.003 556.776C479.864 556.883 479.667 556.936 479.411 556.936C479.166 556.936 478.942 556.877 478.739 556.76C478.547 556.643 478.328 556.515 478.083 556.376C477.838 556.227 477.55 556.093 477.219 555.976C476.888 555.859 476.478 555.8 475.987 555.8C475.379 555.8 474.851 555.912 474.403 556.136C473.966 556.36 473.603 556.68 473.315 557.096C473.027 557.512 472.814 558.024 472.675 558.632C472.536 559.229 472.467 559.907 472.467 560.664C472.467 562.253 472.771 563.475 473.379 564.328C473.998 565.181 474.846 565.608 475.923 565.608C476.499 565.608 476.952 565.539 477.283 565.4C477.624 565.251 477.912 565.091 478.147 564.92C478.382 564.739 478.595 564.573 478.787 564.424C478.99 564.275 479.24 564.2 479.539 564.2C479.934 564.2 480.232 564.344 480.435 564.632L481.875 566.408C481.363 566.995 480.824 567.475 480.259 567.848C479.694 568.211 479.112 568.499 478.515 568.712C477.928 568.915 477.336 569.053 476.739 569.128C476.142 569.213 475.56 569.256 474.995 569.256C473.982 569.256 473.011 569.064 472.083 568.68C471.166 568.296 470.355 567.741 469.651 567.016C468.958 566.28 468.403 565.379 467.987 564.312C467.582 563.245 467.379 562.029 467.379 560.664C467.379 559.469 467.555 558.355 467.907 557.32C468.27 556.275 468.798 555.373 469.491 554.616C470.195 553.848 471.059 553.245 472.083 552.808C473.118 552.371 474.312 552.152 475.667 552.152C476.968 552.152 478.11 552.36 479.091 552.776C480.072 553.192 480.958 553.8 481.747 554.6L480.435 556.344ZM490.813 573.304C490.664 573.635 490.483 573.875 490.269 574.024C490.056 574.184 489.715 574.264 489.245 574.264H485.533L488.733 567.544L482.109 552.408H486.493C486.877 552.408 487.176 552.493 487.389 552.664C487.603 552.835 487.752 553.037 487.837 553.272L490.557 560.424C490.813 561.085 491.021 561.747 491.181 562.408C491.288 562.067 491.405 561.731 491.533 561.4C491.661 561.069 491.784 560.733 491.901 560.392L494.365 553.272C494.451 553.027 494.616 552.824 494.861 552.664C495.117 552.493 495.389 552.408 495.677 552.408H499.677L490.813 573.304Z" fill="white"/>
<path d="M381.058 498.632C381.143 498.632 381.221 498.667 381.29 498.736L381.898 499.4C381.429 499.944 380.858 500.368 380.186 500.672C379.519 500.976 378.714 501.128 377.77 501.128C376.943 501.128 376.194 500.987 375.522 500.704C374.85 500.416 374.277 500.016 373.802 499.504C373.327 498.987 372.959 498.368 372.698 497.648C372.437 496.928 372.306 496.136 372.306 495.272C372.306 494.408 372.445 493.616 372.722 492.896C373.005 492.176 373.399 491.557 373.906 491.04C374.413 490.523 375.018 490.123 375.722 489.84C376.431 489.552 377.213 489.408 378.066 489.408C378.909 489.408 379.634 489.539 380.242 489.8C380.855 490.061 381.399 490.416 381.874 490.864L381.37 491.576C381.333 491.629 381.29 491.675 381.242 491.712C381.194 491.744 381.125 491.76 381.034 491.76C380.965 491.76 380.89 491.736 380.81 491.688C380.735 491.635 380.645 491.571 380.538 491.496C380.431 491.421 380.306 491.341 380.162 491.256C380.018 491.171 379.847 491.091 379.65 491.016C379.453 490.941 379.223 490.88 378.962 490.832C378.701 490.779 378.399 490.752 378.058 490.752C377.445 490.752 376.882 490.859 376.37 491.072C375.863 491.28 375.426 491.579 375.058 491.968C374.69 492.357 374.402 492.832 374.194 493.392C373.991 493.952 373.89 494.579 373.89 495.272C373.89 495.987 373.991 496.624 374.194 497.184C374.402 497.744 374.682 498.219 375.034 498.608C375.391 498.992 375.813 499.285 376.298 499.488C376.783 499.691 377.306 499.792 377.866 499.792C378.207 499.792 378.514 499.773 378.786 499.736C379.058 499.693 379.309 499.629 379.538 499.544C379.773 499.459 379.989 499.352 380.186 499.224C380.389 499.091 380.591 498.933 380.794 498.752C380.885 498.672 380.973 498.632 381.058 498.632ZM386.987 492.768C387.579 492.768 388.112 492.867 388.587 493.064C389.067 493.261 389.472 493.541 389.803 493.904C390.139 494.267 390.395 494.707 390.571 495.224C390.752 495.736 390.843 496.309 390.843 496.944C390.843 497.584 390.752 498.16 390.571 498.672C390.395 499.184 390.139 499.621 389.803 499.984C389.472 500.347 389.067 500.627 388.587 500.824C388.112 501.016 387.579 501.112 386.987 501.112C386.395 501.112 385.859 501.016 385.379 500.824C384.904 500.627 384.499 500.347 384.163 499.984C383.827 499.621 383.568 499.184 383.387 498.672C383.206 498.16 383.115 497.584 383.115 496.944C383.115 496.309 383.206 495.736 383.387 495.224C383.568 494.707 383.827 494.267 384.163 493.904C384.499 493.541 384.904 493.261 385.379 493.064C385.859 492.867 386.395 492.768 386.987 492.768ZM386.987 500C387.787 500 388.384 499.733 388.779 499.2C389.174 498.661 389.371 497.912 389.371 496.952C389.371 495.987 389.174 495.235 388.779 494.696C388.384 494.157 387.787 493.888 386.987 493.888C386.582 493.888 386.23 493.957 385.931 494.096C385.632 494.235 385.382 494.435 385.179 494.696C384.982 494.957 384.832 495.28 384.731 495.664C384.635 496.043 384.587 496.472 384.587 496.952C384.587 497.432 384.635 497.861 384.731 498.24C384.832 498.619 384.982 498.939 385.179 499.2C385.382 499.456 385.632 499.653 385.931 499.792C386.23 499.931 386.582 500 386.987 500ZM394.182 492.896V501H392.758V492.896H394.182ZM394.502 490.352C394.502 490.491 394.472 490.621 394.414 490.744C394.36 490.861 394.286 490.968 394.19 491.064C394.099 491.155 393.992 491.227 393.87 491.28C393.747 491.333 393.616 491.36 393.478 491.36C393.339 491.36 393.208 491.333 393.086 491.28C392.968 491.227 392.862 491.155 392.766 491.064C392.675 490.968 392.603 490.861 392.55 490.744C392.496 490.621 392.47 490.491 392.47 490.352C392.47 490.213 392.496 490.083 392.55 489.96C392.603 489.832 392.675 489.723 392.766 489.632C392.862 489.536 392.968 489.461 393.086 489.408C393.208 489.355 393.339 489.328 393.478 489.328C393.616 489.328 393.747 489.355 393.87 489.408C393.992 489.461 394.099 489.536 394.19 489.632C394.286 489.723 394.36 489.832 394.414 489.96C394.472 490.083 394.502 490.213 394.502 490.352ZM396.691 501V492.896H397.539C397.742 492.896 397.87 492.995 397.923 493.192L398.035 494.072C398.387 493.683 398.779 493.368 399.211 493.128C399.649 492.888 400.153 492.768 400.723 492.768C401.166 492.768 401.555 492.843 401.891 492.992C402.233 493.136 402.515 493.344 402.739 493.616C402.969 493.883 403.142 494.205 403.259 494.584C403.377 494.963 403.435 495.381 403.435 495.84V501H402.011V495.84C402.011 495.227 401.87 494.752 401.587 494.416C401.31 494.075 400.883 493.904 400.307 493.904C399.886 493.904 399.491 494.005 399.123 494.208C398.761 494.411 398.425 494.685 398.115 495.032V501H396.691Z" fill="white"/>
<path d="M629.604 494.56H630.188C630.39 494.56 630.55 494.536 630.668 494.488C630.79 494.435 630.905 494.347 631.012 494.224L634.828 489.904C634.945 489.771 635.057 489.677 635.164 489.624C635.276 489.565 635.417 489.536 635.588 489.536H636.908L632.54 494.472C632.428 494.595 632.321 494.699 632.22 494.784C632.124 494.869 632.02 494.939 631.908 494.992C632.057 495.04 632.188 495.112 632.3 495.208C632.412 495.304 632.529 495.424 632.652 495.568L637.212 501H635.868C635.766 501 635.681 500.992 635.612 500.976C635.542 500.96 635.481 500.939 635.428 500.912C635.38 500.885 635.334 500.851 635.292 500.808C635.249 500.765 635.206 500.72 635.164 500.672L631.204 496.12C631.145 496.056 631.089 496.003 631.036 495.96C630.988 495.912 630.929 495.872 630.86 495.84C630.796 495.808 630.718 495.787 630.628 495.776C630.542 495.76 630.436 495.752 630.308 495.752H629.604V501H628.06V489.536H629.604V494.56ZM641.493 492.768C641.979 492.768 642.427 492.851 642.837 493.016C643.248 493.176 643.603 493.411 643.901 493.72C644.2 494.024 644.432 494.403 644.597 494.856C644.768 495.304 644.853 495.816 644.853 496.392C644.853 496.616 644.829 496.765 644.781 496.84C644.733 496.915 644.643 496.952 644.509 496.952H639.117C639.128 497.464 639.197 497.909 639.325 498.288C639.453 498.667 639.629 498.984 639.853 499.24C640.077 499.491 640.344 499.68 640.653 499.808C640.963 499.931 641.309 499.992 641.693 499.992C642.051 499.992 642.357 499.952 642.613 499.872C642.875 499.787 643.099 499.696 643.285 499.6C643.472 499.504 643.627 499.416 643.749 499.336C643.877 499.251 643.987 499.208 644.077 499.208C644.195 499.208 644.285 499.253 644.349 499.344L644.749 499.864C644.573 500.077 644.363 500.264 644.117 500.424C643.872 500.579 643.608 500.707 643.325 500.808C643.048 500.909 642.76 500.984 642.461 501.032C642.163 501.085 641.867 501.112 641.573 501.112C641.013 501.112 640.496 501.019 640.021 500.832C639.552 500.64 639.144 500.363 638.797 500C638.456 499.632 638.189 499.179 637.997 498.64C637.805 498.101 637.709 497.483 637.709 496.784C637.709 496.219 637.795 495.691 637.965 495.2C638.141 494.709 638.392 494.285 638.717 493.928C639.043 493.565 639.44 493.283 639.909 493.08C640.379 492.872 640.907 492.768 641.493 492.768ZM641.525 493.816C640.837 493.816 640.296 494.016 639.901 494.416C639.507 494.811 639.261 495.36 639.165 496.064H643.573C643.573 495.733 643.528 495.432 643.437 495.16C643.347 494.883 643.213 494.645 643.037 494.448C642.861 494.245 642.645 494.091 642.389 493.984C642.139 493.872 641.851 493.816 641.525 493.816ZM648.849 503.392C648.801 503.499 648.739 503.584 648.665 503.648C648.595 503.712 648.486 503.744 648.337 503.744H647.281L648.761 500.528L645.417 492.896H646.649C646.771 492.896 646.867 492.928 646.937 492.992C647.006 493.051 647.057 493.117 647.089 493.192L649.257 498.296C649.305 498.413 649.345 498.531 649.377 498.648C649.414 498.765 649.446 498.885 649.473 499.008C649.51 498.885 649.547 498.765 649.585 498.648C649.622 498.531 649.665 498.411 649.713 498.288L651.817 493.192C651.849 493.107 651.902 493.037 651.977 492.984C652.057 492.925 652.142 492.896 652.233 492.896H653.369L648.849 503.392Z" fill="white"/>
<path d="M893.651 494.56H894.235C894.437 494.56 894.597 494.536 894.715 494.488C894.837 494.435 894.952 494.347 895.059 494.224L898.875 489.904C898.992 489.771 899.104 489.677 899.211 489.624C899.323 489.565 899.464 489.536 899.635 489.536H900.955L896.587 494.472C896.475 494.595 896.368 494.699 896.267 494.784C896.171 494.869 896.067 494.939 895.955 494.992C896.104 495.04 896.235 495.112 896.347 495.208C896.459 495.304 896.576 495.424 896.699 495.568L901.259 501H899.915C899.813 501 899.728 500.992 899.659 500.976C899.589 500.96 899.528 500.939 899.475 500.912C899.427 500.885 899.381 500.851 899.339 500.808C899.296 500.765 899.253 500.72 899.211 500.672L895.251 496.12C895.192 496.056 895.136 496.003 895.083 495.96C895.035 495.912 894.976 495.872 894.907 495.84C894.843 495.808 894.765 495.787 894.675 495.776C894.589 495.76 894.483 495.752 894.355 495.752H893.651V501H892.107V489.536H893.651V494.56Z" fill="white"/>
<path d="M608.365 550.424C608.205 550.68 608.034 550.872 607.853 551C607.682 551.128 607.458 551.192 607.181 551.192C606.936 551.192 606.669 551.117 606.381 550.968C606.104 550.808 605.784 550.632 605.421 550.44C605.069 550.248 604.664 550.077 604.205 549.928C603.746 549.768 603.224 549.688 602.637 549.688C601.624 549.688 600.866 549.907 600.365 550.344C599.874 550.771 599.629 551.352 599.629 552.088C599.629 552.557 599.778 552.947 600.077 553.256C600.376 553.565 600.765 553.832 601.245 554.056C601.736 554.28 602.29 554.488 602.909 554.68C603.538 554.861 604.178 555.069 604.829 555.304C605.48 555.528 606.114 555.795 606.733 556.104C607.362 556.413 607.917 556.808 608.397 557.288C608.888 557.768 609.282 558.355 609.581 559.048C609.88 559.731 610.029 560.557 610.029 561.528C610.029 562.605 609.842 563.613 609.469 564.552C609.096 565.491 608.552 566.312 607.837 567.016C607.133 567.709 606.258 568.259 605.213 568.664C604.178 569.059 603 569.256 601.677 569.256C600.952 569.256 600.21 569.181 599.453 569.032C598.706 568.883 597.981 568.675 597.277 568.408C596.573 568.131 595.912 567.805 595.293 567.432C594.674 567.059 594.136 566.643 593.677 566.184L595.277 563.656C595.394 563.464 595.56 563.309 595.773 563.192C595.986 563.075 596.216 563.016 596.461 563.016C596.781 563.016 597.101 563.117 597.421 563.32C597.752 563.523 598.12 563.747 598.525 563.992C598.941 564.237 599.416 564.461 599.949 564.664C600.482 564.867 601.112 564.968 601.837 564.968C602.818 564.968 603.581 564.755 604.125 564.328C604.669 563.891 604.941 563.203 604.941 562.264C604.941 561.72 604.792 561.277 604.493 560.936C604.194 560.595 603.8 560.312 603.309 560.088C602.829 559.864 602.28 559.667 601.661 559.496C601.042 559.325 600.408 559.139 599.757 558.936C599.106 558.723 598.472 558.467 597.853 558.168C597.234 557.859 596.68 557.459 596.189 556.968C595.709 556.467 595.32 555.848 595.021 555.112C594.722 554.365 594.573 553.448 594.573 552.36C594.573 551.485 594.749 550.632 595.101 549.8C595.453 548.968 595.97 548.227 596.653 547.576C597.336 546.925 598.173 546.408 599.165 546.024C600.157 545.629 601.293 545.432 602.573 545.432C603.288 545.432 603.981 545.491 604.653 545.608C605.336 545.715 605.981 545.88 606.589 546.104C607.197 546.317 607.762 546.579 608.285 546.888C608.818 547.187 609.293 547.528 609.709 547.912L608.365 550.424ZM624.173 569C623.704 569 623.346 568.936 623.101 568.808C622.866 568.68 622.669 568.413 622.509 568.008L622.157 567.096C621.741 567.448 621.341 567.757 620.957 568.024C620.573 568.291 620.173 568.52 619.757 568.712C619.352 568.893 618.914 569.027 618.445 569.112C617.986 569.208 617.474 569.256 616.909 569.256C616.152 569.256 615.464 569.16 614.845 568.968C614.226 568.765 613.698 568.472 613.261 568.088C612.834 567.704 612.504 567.229 612.269 566.664C612.034 566.088 611.917 565.427 611.917 564.68C611.917 564.093 612.066 563.491 612.365 562.872C612.664 562.253 613.181 561.693 613.917 561.192C614.653 560.68 615.645 560.253 616.893 559.912C618.141 559.571 619.714 559.379 621.613 559.336V558.632C621.613 557.661 621.41 556.963 621.005 556.536C620.61 556.099 620.045 555.88 619.309 555.88C618.722 555.88 618.242 555.944 617.869 556.072C617.496 556.2 617.16 556.344 616.861 556.504C616.573 556.664 616.29 556.808 616.013 556.936C615.736 557.064 615.405 557.128 615.021 557.128C614.68 557.128 614.386 557.048 614.141 556.888C613.906 556.717 613.72 556.509 613.581 556.264L612.685 554.712C613.688 553.827 614.797 553.171 616.013 552.744C617.24 552.307 618.552 552.088 619.949 552.088C620.952 552.088 621.853 552.253 622.653 552.584C623.464 552.904 624.146 553.357 624.701 553.944C625.266 554.52 625.698 555.208 625.997 556.008C626.296 556.808 626.445 557.683 626.445 558.632V569H624.173ZM618.477 565.976C619.117 565.976 619.677 565.864 620.157 565.64C620.637 565.416 621.122 565.053 621.613 564.552V562.248C620.621 562.291 619.805 562.376 619.165 562.504C618.525 562.632 618.018 562.792 617.645 562.984C617.272 563.176 617.01 563.395 616.861 563.64C616.722 563.885 616.653 564.152 616.653 564.44C616.653 565.005 616.808 565.405 617.117 565.64C617.426 565.864 617.88 565.976 618.477 565.976ZM630.703 569V555.816L629.615 555.592C629.242 555.507 628.938 555.373 628.703 555.192C628.479 555.011 628.367 554.744 628.367 554.392V552.44H630.703V551.496C630.703 550.547 630.852 549.688 631.151 548.92C631.46 548.152 631.898 547.496 632.463 546.952C633.039 546.408 633.738 545.987 634.559 545.688C635.38 545.389 636.314 545.24 637.359 545.24C637.764 545.24 638.138 545.267 638.479 545.32C638.831 545.363 639.194 545.437 639.567 545.544L639.471 547.96C639.46 548.131 639.412 548.275 639.327 548.392C639.252 548.499 639.156 548.589 639.039 548.664C638.922 548.728 638.788 548.776 638.639 548.808C638.5 548.84 638.362 548.856 638.223 548.856C637.786 548.856 637.396 548.899 637.055 548.984C636.714 549.069 636.426 549.224 636.191 549.448C635.967 549.661 635.796 549.949 635.679 550.312C635.562 550.664 635.503 551.112 635.503 551.656V552.44H639.407V555.832H635.663V569H630.703ZM648.665 552.152C649.763 552.152 650.766 552.323 651.673 552.664C652.59 553.005 653.374 553.501 654.025 554.152C654.686 554.803 655.198 555.603 655.561 556.552C655.934 557.491 656.121 558.557 656.121 559.752C656.121 560.125 656.105 560.429 656.073 560.664C656.041 560.899 655.982 561.085 655.897 561.224C655.811 561.363 655.694 561.459 655.545 561.512C655.406 561.565 655.225 561.592 655.001 561.592H645.433C645.593 562.979 646.014 563.987 646.697 564.616C647.379 565.235 648.259 565.544 649.337 565.544C649.913 565.544 650.409 565.475 650.825 565.336C651.241 565.197 651.609 565.043 651.929 564.872C652.259 564.701 652.558 564.547 652.825 564.408C653.102 564.269 653.39 564.2 653.689 564.2C654.083 564.2 654.382 564.344 654.585 564.632L656.025 566.408C655.513 566.995 654.958 567.475 654.361 567.848C653.774 568.211 653.166 568.499 652.537 568.712C651.918 568.915 651.294 569.053 650.665 569.128C650.046 569.213 649.454 569.256 648.889 569.256C647.726 569.256 646.633 569.069 645.609 568.696C644.595 568.312 643.705 567.747 642.937 567C642.179 566.253 641.577 565.325 641.129 564.216C640.691 563.107 640.473 561.816 640.473 560.344C640.473 559.235 640.659 558.184 641.033 557.192C641.417 556.2 641.961 555.331 642.665 554.584C643.379 553.837 644.238 553.245 645.241 552.808C646.254 552.371 647.395 552.152 648.665 552.152ZM648.761 555.576C647.811 555.576 647.07 555.848 646.537 556.392C646.003 556.925 645.651 557.699 645.481 558.712H651.673C651.673 558.317 651.619 557.933 651.513 557.56C651.417 557.187 651.251 556.856 651.017 556.568C650.793 556.269 650.494 556.029 650.121 555.848C649.747 555.667 649.294 555.576 648.761 555.576ZM664.791 569.256C664.002 569.256 663.303 569.144 662.695 568.92C662.098 568.685 661.591 568.36 661.175 567.944C660.77 567.517 660.46 567.005 660.247 566.408C660.034 565.811 659.927 565.144 659.927 564.408V555.832H658.519C658.263 555.832 658.044 555.752 657.863 555.592C657.682 555.421 657.591 555.176 657.591 554.856V552.92L660.231 552.408L661.207 548.36C661.335 547.848 661.698 547.592 662.295 547.592H664.887V552.44H668.919V555.832H664.887V564.072C664.887 564.456 664.978 564.776 665.159 565.032C665.351 565.277 665.623 565.4 665.975 565.4C666.156 565.4 666.306 565.384 666.423 565.352C666.551 565.309 666.658 565.267 666.743 565.224C666.839 565.171 666.924 565.128 666.999 565.096C667.084 565.053 667.18 565.032 667.287 565.032C667.436 565.032 667.554 565.069 667.639 565.144C667.735 565.208 667.831 565.315 667.927 565.464L669.431 567.816C668.791 568.296 668.071 568.659 667.271 568.904C666.471 569.139 665.644 569.256 664.791 569.256ZM678.563 573.304C678.414 573.635 678.233 573.875 678.019 574.024C677.806 574.184 677.465 574.264 676.995 574.264H673.283L676.483 567.544L669.859 552.408H674.243C674.627 552.408 674.926 552.493 675.139 552.664C675.353 552.835 675.502 553.037 675.587 553.272L678.307 560.424C678.563 561.085 678.771 561.747 678.931 562.408C679.038 562.067 679.155 561.731 679.283 561.4C679.411 561.069 679.534 560.733 679.651 560.392L682.115 553.272C682.201 553.027 682.366 552.824 682.611 552.664C682.867 552.493 683.139 552.408 683.427 552.408H687.427L678.563 573.304Z" fill="white"/>
<path d="M843.766 555.128H844.63C845.43 555.128 846.006 554.877 846.358 554.376L851.606 546.76C851.894 546.344 852.219 546.061 852.582 545.912C852.955 545.763 853.408 545.688 853.942 545.688H858.646L851.734 555.112C851.488 555.453 851.232 555.736 850.966 555.96C850.699 556.184 850.427 556.371 850.15 556.52C850.555 556.669 850.923 556.877 851.254 557.144C851.595 557.4 851.904 557.747 852.182 558.184L859.222 569H854.39C854.08 569 853.814 568.979 853.59 568.936C853.376 568.893 853.19 568.829 853.03 568.744C852.87 568.659 852.731 568.557 852.614 568.44C852.496 568.312 852.384 568.168 852.278 568.008L846.998 559.896C846.806 559.597 846.56 559.389 846.262 559.272C845.974 559.144 845.579 559.08 845.078 559.08H843.766V569H838.358V545.688H843.766V555.128ZM867.493 552.152C868.591 552.152 869.594 552.323 870.501 552.664C871.418 553.005 872.202 553.501 872.853 554.152C873.514 554.803 874.026 555.603 874.389 556.552C874.762 557.491 874.949 558.557 874.949 559.752C874.949 560.125 874.933 560.429 874.901 560.664C874.869 560.899 874.81 561.085 874.725 561.224C874.639 561.363 874.522 561.459 874.373 561.512C874.234 561.565 874.053 561.592 873.829 561.592H864.261C864.421 562.979 864.842 563.987 865.525 564.616C866.207 565.235 867.087 565.544 868.165 565.544C868.741 565.544 869.237 565.475 869.653 565.336C870.069 565.197 870.437 565.043 870.757 564.872C871.087 564.701 871.386 564.547 871.653 564.408C871.93 564.269 872.218 564.2 872.517 564.2C872.911 564.2 873.21 564.344 873.413 564.632L874.853 566.408C874.341 566.995 873.786 567.475 873.189 567.848C872.602 568.211 871.994 568.499 871.365 568.712C870.746 568.915 870.122 569.053 869.493 569.128C868.874 569.213 868.282 569.256 867.717 569.256C866.554 569.256 865.461 569.069 864.437 568.696C863.423 568.312 862.533 567.747 861.765 567C861.007 566.253 860.405 565.325 859.957 564.216C859.519 563.107 859.301 561.816 859.301 560.344C859.301 559.235 859.487 558.184 859.861 557.192C860.245 556.2 860.789 555.331 861.493 554.584C862.207 553.837 863.066 553.245 864.069 552.808C865.082 552.371 866.223 552.152 867.493 552.152ZM867.589 555.576C866.639 555.576 865.898 555.848 865.365 556.392C864.831 556.925 864.479 557.699 864.309 558.712H870.501C870.501 558.317 870.447 557.933 870.341 557.56C870.245 557.187 870.079 556.856 869.845 556.568C869.621 556.269 869.322 556.029 868.949 555.848C868.575 555.667 868.122 555.576 867.589 555.576ZM883.954 573.304C883.805 573.635 883.623 573.875 883.41 574.024C883.197 574.184 882.855 574.264 882.386 574.264H878.674L881.874 567.544L875.25 552.408H879.634C880.018 552.408 880.317 552.493 880.53 552.664C880.743 552.835 880.893 553.037 880.978 553.272L883.698 560.424C883.954 561.085 884.162 561.747 884.322 562.408C884.429 562.067 884.546 561.731 884.674 561.4C884.802 561.069 884.925 560.733 885.042 560.392L887.506 553.272C887.591 553.027 887.757 552.824 888.002 552.664C888.258 552.493 888.53 552.408 888.818 552.408H892.818L883.954 573.304ZM904.042 569H899.53L893.098 552.408H897.226C897.578 552.408 897.871 552.493 898.106 552.664C898.351 552.824 898.516 553.027 898.602 553.272L900.906 560.712C901.087 561.32 901.258 561.912 901.418 562.488C901.588 563.064 901.732 563.64 901.85 564.216C901.967 563.64 902.111 563.064 902.282 562.488C902.452 561.912 902.634 561.32 902.826 560.712L905.226 553.272C905.311 553.027 905.471 552.824 905.706 552.664C905.94 552.493 906.218 552.408 906.538 552.408H910.474L904.042 569ZM917.665 552.408V569H912.705V552.408H917.665ZM918.241 547.864C918.241 548.259 918.161 548.632 918.001 548.984C917.841 549.325 917.622 549.629 917.345 549.896C917.068 550.152 916.742 550.36 916.369 550.52C916.006 550.669 915.617 550.744 915.201 550.744C914.796 550.744 914.417 550.669 914.065 550.52C913.713 550.36 913.398 550.152 913.121 549.896C912.854 549.629 912.641 549.325 912.481 548.984C912.332 548.632 912.257 548.259 912.257 547.864C912.257 547.459 912.332 547.08 912.481 546.728C912.641 546.376 912.854 546.067 913.121 545.8C913.398 545.533 913.713 545.325 914.065 545.176C914.417 545.027 914.796 544.952 915.201 544.952C915.617 544.952 916.006 545.027 916.369 545.176C916.742 545.325 917.068 545.533 917.345 545.8C917.622 546.067 917.841 546.376 918.001 546.728C918.161 547.08 918.241 547.459 918.241 547.864ZM933.126 569C932.657 569 932.299 568.936 932.054 568.808C931.819 568.68 931.622 568.413 931.462 568.008L931.11 567.096C930.694 567.448 930.294 567.757 929.91 568.024C929.526 568.291 929.126 568.52 928.71 568.712C928.305 568.893 927.867 569.027 927.398 569.112C926.939 569.208 926.427 569.256 925.862 569.256C925.105 569.256 924.417 569.16 923.798 568.968C923.179 568.765 922.651 568.472 922.214 568.088C921.787 567.704 921.457 567.229 921.222 566.664C920.987 566.088 920.87 565.427 920.87 564.68C920.87 564.093 921.019 563.491 921.318 562.872C921.617 562.253 922.134 561.693 922.87 561.192C923.606 560.68 924.598 560.253 925.846 559.912C927.094 559.571 928.667 559.379 930.566 559.336V558.632C930.566 557.661 930.363 556.963 929.958 556.536C929.563 556.099 928.998 555.88 928.262 555.88C927.675 555.88 927.195 555.944 926.822 556.072C926.449 556.2 926.113 556.344 925.814 556.504C925.526 556.664 925.243 556.808 924.966 556.936C924.689 557.064 924.358 557.128 923.974 557.128C923.633 557.128 923.339 557.048 923.094 556.888C922.859 556.717 922.673 556.509 922.534 556.264L921.638 554.712C922.641 553.827 923.75 553.171 924.966 552.744C926.193 552.307 927.505 552.088 928.902 552.088C929.905 552.088 930.806 552.253 931.606 552.584C932.417 552.904 933.099 553.357 933.654 553.944C934.219 554.52 934.651 555.208 934.95 556.008C935.249 556.808 935.398 557.683 935.398 558.632V569H933.126ZM927.43 565.976C928.07 565.976 928.63 565.864 929.11 565.64C929.59 565.416 930.075 565.053 930.566 564.552V562.248C929.574 562.291 928.758 562.376 928.118 562.504C927.478 562.632 926.971 562.792 926.598 562.984C926.225 563.176 925.963 563.395 925.814 563.64C925.675 563.885 925.606 564.152 925.606 564.44C925.606 565.005 925.761 565.405 926.07 565.64C926.379 565.864 926.833 565.976 927.43 565.976ZM938.92 569V552.408H941.992C942.301 552.408 942.557 552.477 942.76 552.616C942.973 552.755 943.123 552.963 943.208 553.24L943.496 554.2C943.816 553.901 944.147 553.624 944.488 553.368C944.829 553.112 945.192 552.899 945.576 552.728C945.971 552.547 946.392 552.408 946.84 552.312C947.299 552.205 947.795 552.152 948.328 552.152C949.235 552.152 950.035 552.312 950.728 552.632C951.432 552.941 952.024 553.379 952.504 553.944C952.984 554.499 953.347 555.165 953.592 555.944C953.837 556.712 953.96 557.549 953.96 558.456V569H949V558.456C949 557.645 948.813 557.016 948.44 556.568C948.067 556.109 947.517 555.88 946.792 555.88C946.248 555.88 945.736 555.997 945.256 556.232C944.776 556.467 944.317 556.781 943.88 557.176V569H938.92Z" fill="white"/>
<path d="M627.2 277C598.835 277 576 299.835 576 328.2V347.4V353.8V405H627.2H633.6H652.8C681.165 405 704 382.165 704 353.8V328.2C704 299.835 681.165 277 652.8 277H627.2ZM617.6 302.6C618.861 302.6 620.109 302.848 621.274 303.331C622.439 303.813 623.497 304.52 624.388 305.412C625.28 306.303 625.987 307.362 626.469 308.526C626.952 309.691 627.2 310.939 627.2 312.2V369.8C627.2 372.346 626.189 374.788 624.388 376.588C622.588 378.389 620.146 379.4 617.6 379.4C615.054 379.4 612.612 378.389 610.812 376.588C609.011 374.788 608 372.346 608 369.8V312.2C608 310.939 608.248 309.691 608.731 308.526C609.213 307.362 609.92 306.303 610.812 305.412C611.703 304.52 612.762 303.813 613.926 303.331C615.091 302.848 616.339 302.6 617.6 302.6ZM670.108 302.6C671.304 302.607 672 303.481 672 305.479V376.521C672 390.729 636.8 348.104 636.8 341C636.8 334.895 662.796 302.557 670.108 302.6Z" fill="white"/>
<path d="M662.4 344.2C664.167 344.2 665.6 342.767 665.6 341C665.6 339.233 664.167 337.8 662.4 337.8C660.633 337.8 659.2 339.233 659.2 341C659.2 342.767 660.633 344.2 662.4 344.2Z" fill="#CEF2E8"/>
<path d="M617.6 350.6C622.902 350.6 627.2 346.302 627.2 341C627.2 335.698 622.902 331.4 617.6 331.4C612.298 331.4 608 335.698 608 341C608 346.302 612.298 350.6 617.6 350.6Z" fill="#CEF2E8"/>
<path d="M659.2 344.2H646.4V350.6H659.2V344.2Z" fill="#CEF2E8"/>
<path d="M637.834 337.8C637.173 339.171 636.8 340.274 636.8 341C636.8 341.727 637.173 342.829 637.834 344.2H661.76V337.8H637.834Z" fill="#CEF2E8"/>
<path d="M371.2 277C342.835 277 320 299.835 320 328.2V347.4V353.8V405H371.2H377.6H396.8C425.165 405 448 382.165 448 353.8V328.2C448 299.835 425.165 277 396.8 277H371.2ZM361.6 302.6C362.861 302.6 364.109 302.848 365.274 303.331C366.439 303.813 367.497 304.52 368.388 305.412C369.28 306.303 369.987 307.362 370.469 308.526C370.952 309.691 371.2 310.939 371.2 312.2V369.8C371.2 372.346 370.189 374.788 368.388 376.588C366.588 378.389 364.146 379.4 361.6 379.4C359.054 379.4 356.612 378.389 354.812 376.588C353.011 374.788 352 372.346 352 369.8V312.2C352 310.939 352.248 309.691 352.731 308.526C353.213 307.362 353.92 306.303 354.812 305.412C355.703 304.52 356.762 303.813 357.926 303.331C359.091 302.848 360.339 302.6 361.6 302.6ZM414.108 302.6C415.304 302.607 416 303.481 416 305.479V376.521C416 390.729 380.8 348.104 380.8 341C380.8 334.895 406.796 302.557 414.108 302.6Z" fill="white"/>
<path d="M406.4 344.2C408.167 344.2 409.6 342.767 409.6 341C409.6 339.233 408.167 337.8 406.4 337.8C404.633 337.8 403.2 339.233 403.2 341C403.2 342.767 404.633 344.2 406.4 344.2Z" fill="white"/>
<path d="M361.6 350.6C366.902 350.6 371.2 346.302 371.2 341C371.2 335.698 366.902 331.4 361.6 331.4C356.298 331.4 352 335.698 352 341C352 346.302 356.298 350.6 361.6 350.6Z" fill="#CEF2E8"/>
<path d="M403.2 344.2H390.4V350.6H403.2V344.2Z" fill="white"/>
<path d="M381.834 337.8C381.173 339.171 380.8 340.274 380.8 341C380.8 341.727 381.173 342.829 381.834 344.2H405.76V337.8H381.834Z" fill="white"/>
<path d="M883.2 277C854.835 277 832 299.835 832 328.2V347.4V353.8V405H883.2H889.6H908.8C937.165 405 960 382.165 960 353.8V328.2C960 299.835 937.165 277 908.8 277H883.2ZM873.6 302.6C874.861 302.6 876.109 302.848 877.274 303.331C878.439 303.813 879.497 304.52 880.388 305.412C881.28 306.303 881.987 307.362 882.469 308.526C882.952 309.691 883.2 310.939 883.2 312.2V369.8C883.2 372.346 882.189 374.788 880.388 376.588C878.588 378.389 876.146 379.4 873.6 379.4C871.054 379.4 868.612 378.389 866.812 376.588C865.011 374.788 864 372.346 864 369.8V312.2C864 310.939 864.248 309.691 864.731 308.526C865.213 307.362 865.92 306.303 866.812 305.412C867.703 304.52 868.762 303.813 869.926 303.331C871.091 302.848 872.339 302.6 873.6 302.6ZM926.108 302.6C927.304 302.607 928 303.481 928 305.479V376.521C928 390.729 892.8 348.104 892.8 341C892.8 334.895 918.796 302.557 926.108 302.6Z" fill="#CEF2E8"/>
<path d="M918.4 344.2C920.167 344.2 921.6 342.767 921.6 341C921.6 339.233 920.167 337.8 918.4 337.8C916.633 337.8 915.2 339.233 915.2 341C915.2 342.767 916.633 344.2 918.4 344.2Z" fill="white"/>
<path d="M873.6 350.6C878.902 350.6 883.2 346.302 883.2 341C883.2 335.698 878.902 331.4 873.6 331.4C868.298 331.4 864 335.698 864 341C864 346.302 868.298 350.6 873.6 350.6Z" fill="white"/>
<path d="M915.2 344.2H902.4V350.6H915.2V344.2Z" fill="white"/>
<path d="M893.834 337.8C893.173 339.171 892.8 340.274 892.8 341C892.8 341.727 893.173 342.829 893.834 344.2H917.76V337.8H893.834Z" fill="white"/>
<path d="M67 324.8C67 301.638 85.6377 283 108.8 283H147.2C170.363 283 189 301.638 189 324.8V363.2C189 386.362 170.363 405 147.2 405H128H108.8H67V363.2V344V324.8Z" stroke="#CEF2E8" stroke-width="6"/>
</g>
<defs>
<clipPath id="clip0_39_531">
<rect width="1024" height="768" fill="white"/>
</clipPath>
</defs>
</svg>
