<svg width="1024" height="768" viewBox="0 0 1024 768" fill="none" xmlns="http://www.w3.org/2000/svg">
<rect width="1024" height="768" fill="black"/>
<path d="M202 32.0001C189.8 32.0001 178.1 36.8465 169.473 45.4732C160.846 54.0999 156 65.8001 156 78C156 84.0408 157.19 90.0225 159.502 95.6035C161.813 101.184 165.202 106.255 169.473 110.527C173.745 114.798 178.816 118.187 184.397 120.499C189.977 122.81 195.959 124 202 124C214.2 124 225.9 119.154 234.527 110.527C243.154 101.9 248 90.2 248 78C248 65.8001 243.154 54.0999 234.527 45.4732C225.9 36.8465 214.2 32.0001 202 32.0001V32.0001ZM185.9 50.4001C187.73 50.4001 189.485 51.1271 190.779 52.4211C192.073 53.7151 192.8 55.4701 192.8 57.3001V78V98.7C192.8 100.53 192.073 102.285 190.779 103.579C189.485 104.873 187.73 105.6 185.9 105.6C184.994 105.6 184.096 105.422 183.259 105.075C182.422 104.728 181.661 104.22 181.021 103.579C180.38 102.938 179.872 102.178 179.525 101.341C179.178 100.503 179 99.6062 179 98.7V78V57.3001C179 56.3939 179.178 55.4967 179.525 54.6596C179.872 53.8224 180.38 53.0618 181.021 52.4211C181.661 51.7803 182.422 51.272 183.259 50.9253C184.096 50.5785 184.994 50.4001 185.9 50.4001ZM179 78C179 78.9062 179.178 79.8034 179.525 80.6406C179.872 81.4777 180.38 82.2384 181.021 82.8791C181.661 83.5198 182.422 84.0281 183.259 84.3748C184.096 84.7216 184.994 84.9 185.9 84.9C187.73 84.9 189.485 84.1731 190.779 82.8791C192.073 81.5851 192.8 79.83 192.8 78C192.8 76.1701 192.073 74.4151 190.779 73.1211C189.485 71.8271 187.73 71.1001 185.9 71.1C184.07 71.1 182.315 71.8271 181.021 73.1211C179.727 74.4151 179 76.17 179 78ZM223.64 50.4001C224.5 50.4053 225 51.0334 225 52.4695V103.531C225 112.701 204.61 88.9424 200.447 80.2999H217.64V80.252C217.791 80.2835 217.945 80.2996 218.1 80.3001C218.71 80.3001 219.295 80.0577 219.726 79.6264C220.158 79.1951 220.4 78.61 220.4 78C220.4 77.3901 220.158 76.8051 219.726 76.3738C219.295 75.9424 218.71 75.7001 218.1 75.7001C217.945 75.7005 217.791 75.7166 217.64 75.748V75.6999H200.445C203.96 68.4081 219.009 50.3727 223.64 50.4001V50.4001ZM206.6 80.3001V84.9H215.8V80.3001H206.6Z" fill="url(#paint0_linear_38_213)"/>
<path d="M202 32C176.516 32 156 52.516 156 78C156 103.484 176.516 124 202 124C227.484 124 248 103.484 248 78C248 52.516 227.484 32 202 32V32ZM202 36.6C224.935 36.6 243.4 55.0645 243.4 78C243.4 100.936 224.935 119.4 202 119.4C179.064 119.4 160.6 100.936 160.6 78C160.6 55.0645 179.064 36.6 202 36.6Z" fill="url(#paint1_linear_38_213)"/>
<path d="M698 32.0001C685.8 32.0001 674.1 36.8465 665.473 45.4732C656.846 54.0999 652 65.8001 652 78C652 84.0408 653.19 90.0225 655.502 95.6035C657.813 101.184 661.202 106.255 665.473 110.527C669.745 114.798 674.816 118.187 680.397 120.499C685.977 122.81 691.959 124 698 124C710.2 124 721.9 119.154 730.527 110.527C739.154 101.9 744 90.2 744 78C744 65.8001 739.154 54.0999 730.527 45.4732C721.9 36.8465 710.2 32.0001 698 32.0001V32.0001ZM681.9 50.4001C683.73 50.4001 685.485 51.1271 686.779 52.4211C688.073 53.7151 688.8 55.4701 688.8 57.3001V78V98.7C688.8 100.53 688.073 102.285 686.779 103.579C685.485 104.873 683.73 105.6 681.9 105.6C680.994 105.6 680.096 105.422 679.259 105.075C678.422 104.728 677.661 104.22 677.021 103.579C676.38 102.938 675.872 102.178 675.525 101.341C675.178 100.503 675 99.6062 675 98.7V78V57.3001C675 56.3939 675.178 55.4967 675.525 54.6596C675.872 53.8224 676.38 53.0618 677.021 52.4211C677.661 51.7803 678.422 51.272 679.259 50.9253C680.096 50.5785 680.994 50.4001 681.9 50.4001ZM675 78C675 78.9062 675.178 79.8034 675.525 80.6406C675.872 81.4777 676.38 82.2384 677.021 82.8791C677.661 83.5198 678.422 84.0281 679.259 84.3748C680.096 84.7216 680.994 84.9 681.9 84.9C683.73 84.9 685.485 84.1731 686.779 82.8791C688.073 81.5851 688.8 79.83 688.8 78C688.8 76.1701 688.073 74.4151 686.779 73.1211C685.485 71.8271 683.73 71.1001 681.9 71.1C680.07 71.1 678.315 71.8271 677.021 73.1211C675.727 74.4151 675 76.17 675 78ZM719.64 50.4001C720.5 50.4053 721 51.0334 721 52.4695V103.531C721 112.701 700.61 88.9424 696.447 80.2999H713.64V80.252C713.791 80.2835 713.945 80.2996 714.1 80.3001C714.71 80.3001 715.295 80.0577 715.726 79.6264C716.158 79.1951 716.4 78.61 716.4 78C716.4 77.3901 716.158 76.8051 715.726 76.3738C715.295 75.9424 714.71 75.7001 714.1 75.7001C713.945 75.7005 713.791 75.7166 713.64 75.748V75.6999H696.445C699.96 68.4081 715.009 50.3727 719.64 50.4001V50.4001ZM702.6 80.3001V84.9H711.8V80.3001H702.6Z" fill="url(#paint2_linear_38_213)"/>
<path d="M698 32C672.516 32 652 52.516 652 78C652 103.484 672.516 124 698 124C723.484 124 744 103.484 744 78C744 52.516 723.484 32 698 32V32ZM698 36.6C720.935 36.6 739.4 55.0645 739.4 78C739.4 100.936 720.935 119.4 698 119.4C675.064 119.4 656.6 100.936 656.6 78C656.6 55.0645 675.064 36.6 698 36.6Z" fill="url(#paint3_linear_38_213)"/>
<path d="M450 32.0001C437.8 32.0001 426.1 36.8465 417.473 45.4732C408.846 54.0999 404 65.8001 404 78C404 84.0408 405.19 90.0225 407.502 95.6035C409.813 101.184 413.202 106.255 417.473 110.527C421.745 114.798 426.816 118.187 432.397 120.499C437.977 122.81 443.959 124 450 124C462.2 124 473.9 119.154 482.527 110.527C491.154 101.9 496 90.2 496 78C496 65.8001 491.154 54.0999 482.527 45.4732C473.9 36.8465 462.2 32.0001 450 32.0001V32.0001ZM433.9 50.4001C435.73 50.4001 437.485 51.1271 438.779 52.4211C440.073 53.7151 440.8 55.4701 440.8 57.3001V78V98.7C440.8 100.53 440.073 102.285 438.779 103.579C437.485 104.873 435.73 105.6 433.9 105.6C432.994 105.6 432.096 105.422 431.259 105.075C430.422 104.728 429.661 104.22 429.021 103.579C428.38 102.938 427.872 102.178 427.525 101.341C427.178 100.503 427 99.6062 427 98.7V78V57.3001C427 56.3939 427.178 55.4967 427.525 54.6596C427.872 53.8224 428.38 53.0618 429.021 52.4211C429.661 51.7803 430.422 51.272 431.259 50.9253C432.096 50.5785 432.994 50.4001 433.9 50.4001ZM427 78C427 78.9062 427.178 79.8034 427.525 80.6406C427.872 81.4777 428.38 82.2384 429.021 82.8791C429.661 83.5198 430.422 84.0281 431.259 84.3748C432.096 84.7216 432.994 84.9 433.9 84.9C435.73 84.9 437.485 84.1731 438.779 82.8791C440.073 81.5851 440.8 79.83 440.8 78C440.8 76.1701 440.073 74.4151 438.779 73.1211C437.485 71.8271 435.73 71.1001 433.9 71.1C432.07 71.1 430.315 71.8271 429.021 73.1211C427.727 74.4151 427 76.17 427 78ZM471.64 50.4001C472.5 50.4053 473 51.0334 473 52.4695V103.531C473 112.701 452.61 88.9424 448.447 80.2999H465.64V80.252C465.791 80.2835 465.945 80.2996 466.1 80.3001C466.71 80.3001 467.295 80.0577 467.726 79.6264C468.158 79.1951 468.4 78.61 468.4 78C468.4 77.3901 468.158 76.8051 467.726 76.3738C467.295 75.9424 466.71 75.7001 466.1 75.7001C465.945 75.7005 465.791 75.7166 465.64 75.748V75.6999H448.445C451.96 68.4081 467.009 50.3727 471.64 50.4001V50.4001ZM454.6 80.3001V84.9H463.8V80.3001H454.6Z" fill="url(#paint4_linear_38_213)"/>
<path d="M450 32C424.516 32 404 52.516 404 78C404 103.484 424.516 124 450 124C475.484 124 496 103.484 496 78C496 52.516 475.484 32 450 32V32ZM450 36.6C472.935 36.6 491.4 55.0645 491.4 78C491.4 100.936 472.935 119.4 450 119.4C427.064 119.4 408.6 100.936 408.6 78C408.6 55.0645 427.064 36.6 450 36.6Z" fill="url(#paint5_linear_38_213)"/>
<path d="M946 32.0001C933.8 32.0001 922.1 36.8465 913.473 45.4732C904.846 54.0999 900 65.8001 900 78C900 84.0408 901.19 90.0225 903.502 95.6035C905.813 101.184 909.202 106.255 913.473 110.527C917.745 114.798 922.816 118.187 928.397 120.499C933.977 122.81 939.959 124 946 124C958.2 124 969.9 119.154 978.527 110.527C987.154 101.9 992 90.2 992 78C992 65.8001 987.154 54.0999 978.527 45.4732C969.9 36.8465 958.2 32.0001 946 32.0001V32.0001ZM929.9 50.4001C931.73 50.4001 933.485 51.1271 934.779 52.4211C936.073 53.7151 936.8 55.4701 936.8 57.3001V78V98.7C936.8 100.53 936.073 102.285 934.779 103.579C933.485 104.873 931.73 105.6 929.9 105.6C928.994 105.6 928.096 105.422 927.259 105.075C926.422 104.728 925.661 104.22 925.021 103.579C924.38 102.938 923.872 102.178 923.525 101.341C923.178 100.503 923 99.6062 923 98.7V78V57.3001C923 56.3939 923.178 55.4967 923.525 54.6596C923.872 53.8224 924.38 53.0618 925.021 52.4211C925.661 51.7803 926.422 51.272 927.259 50.9253C928.096 50.5785 928.994 50.4001 929.9 50.4001ZM923 78C923 78.9062 923.178 79.8034 923.525 80.6406C923.872 81.4777 924.38 82.2384 925.021 82.8791C925.661 83.5198 926.422 84.0281 927.259 84.3748C928.096 84.7216 928.994 84.9 929.9 84.9C931.73 84.9 933.485 84.1731 934.779 82.8791C936.073 81.5851 936.8 79.83 936.8 78C936.8 76.1701 936.073 74.4151 934.779 73.1211C933.485 71.8271 931.73 71.1001 929.9 71.1C928.07 71.1 926.315 71.8271 925.021 73.1211C923.727 74.4151 923 76.17 923 78ZM967.64 50.4001C968.5 50.4053 969 51.0334 969 52.4695V103.531C969 112.701 948.61 88.9424 944.447 80.2999H961.64V80.252C961.791 80.2835 961.945 80.2996 962.1 80.3001C962.71 80.3001 963.295 80.0577 963.726 79.6264C964.158 79.1951 964.4 78.61 964.4 78C964.4 77.3901 964.158 76.8051 963.726 76.3738C963.295 75.9424 962.71 75.7001 962.1 75.7001C961.945 75.7005 961.791 75.7166 961.64 75.748V75.6999H944.445C947.96 68.4081 963.009 50.3727 967.64 50.4001V50.4001ZM950.6 80.3001V84.9H959.8V80.3001H950.6Z" fill="url(#paint6_linear_38_213)"/>
<path d="M946 32C920.516 32 900 52.516 900 78C900 103.484 920.516 124 946 124C971.484 124 992 103.484 992 78C992 52.516 971.484 32 946 32V32ZM946 36.6C968.935 36.6 987.4 55.0645 987.4 78C987.4 100.936 968.935 119.4 946 119.4C923.064 119.4 904.6 100.936 904.6 78C904.6 55.0645 923.064 36.6 946 36.6Z" fill="url(#paint7_linear_38_213)"/>
<path d="M77.9999 155C65.8 155 54.0997 159.847 45.4731 168.473C36.8464 177.1 32 188.8 32 201C32 207.041 33.1898 213.023 35.5015 218.604C37.8132 224.184 41.2016 229.255 45.4731 233.527C49.7446 237.798 54.8155 241.187 60.3965 243.499C65.9775 245.81 71.9591 247 77.9999 247C90.1999 247 101.9 242.154 110.527 233.527C119.154 224.9 124 213.2 124 201C124 188.8 119.154 177.1 110.527 168.473C101.9 159.847 90.1999 155 77.9999 155V155ZM61.8998 173.4C63.7298 173.4 65.4849 174.127 66.7788 175.421C68.0728 176.715 68.7998 178.47 68.7998 180.3V201V221.7C68.7998 223.53 68.0728 225.285 66.7788 226.579C65.4848 227.873 63.7298 228.6 61.8998 228.6C60.9937 228.6 60.0964 228.422 59.2592 228.075C58.4221 227.728 57.6614 227.22 57.0207 226.579C56.38 225.938 55.8718 225.178 55.525 224.341C55.1783 223.503 54.9998 222.606 54.9998 221.7V201V180.3C54.9998 179.394 55.1783 178.497 55.525 177.66C55.8718 176.822 56.38 176.062 57.0207 175.421C57.6614 174.78 58.4221 174.272 59.2592 173.925C60.0964 173.579 60.9937 173.4 61.8998 173.4ZM54.9998 201C54.9998 201.906 55.1783 202.803 55.525 203.641C55.8718 204.478 56.38 205.238 57.0207 205.879C57.6614 206.52 58.4221 207.028 59.2592 207.375C60.0964 207.722 60.9937 207.9 61.8998 207.9C63.7298 207.9 65.4849 207.173 66.7788 205.879C68.0728 204.585 68.7998 202.83 68.7998 201C68.7998 199.17 68.0728 197.415 66.7788 196.121C65.4848 194.827 63.7298 194.1 61.8998 194.1C60.0698 194.1 58.3147 194.827 57.0207 196.121C55.7267 197.415 54.9998 199.17 54.9998 201ZM99.6397 173.4C100.5 173.405 101 174.033 101 175.47V226.531C101 235.701 80.6097 211.942 76.4472 203.3H93.6398V203.252C93.7912 203.283 93.9453 203.3 94.1 203.3C94.71 203.3 95.2949 203.058 95.7262 202.626C96.1576 202.195 96.3999 201.61 96.3999 201C96.3999 200.39 96.1576 199.805 95.7262 199.374C95.2949 198.942 94.71 198.7 94.1 198.7C93.9453 198.701 93.7912 198.717 93.6398 198.748V198.7H76.445C79.9595 191.408 95.0093 173.373 99.6397 173.4V173.4ZM82.5998 203.3V207.9H91.7997V203.3H82.5998Z" fill="url(#paint8_linear_38_213)"/>
<path d="M77.9999 155C52.516 155 32 175.516 32 201C32 226.484 52.516 247 77.9999 247C103.484 247 124 226.484 124 201C124 175.516 103.484 155 77.9999 155V155ZM77.9999 159.6C100.935 159.6 119.4 178.064 119.4 201C119.4 223.936 100.935 242.4 77.9999 242.4C55.0644 242.4 36.5999 223.936 36.5999 201C36.5999 178.064 55.0644 159.6 77.9999 159.6Z" fill="url(#paint9_linear_38_213)"/>
<path d="M574 155C561.8 155 550.1 159.847 541.473 168.473C532.846 177.1 528 188.8 528 201C528 207.041 529.19 213.023 531.502 218.604C533.813 224.184 537.202 229.255 541.473 233.527C545.745 237.798 550.816 241.187 556.397 243.499C561.977 245.81 567.959 247 574 247C586.2 247 597.9 242.154 606.527 233.527C615.154 224.9 620 213.2 620 201C620 188.8 615.154 177.1 606.527 168.473C597.9 159.847 586.2 155 574 155V155ZM557.9 173.4C559.73 173.4 561.485 174.127 562.779 175.421C564.073 176.715 564.8 178.47 564.8 180.3V201V221.7C564.8 223.53 564.073 225.285 562.779 226.579C561.485 227.873 559.73 228.6 557.9 228.6C556.994 228.6 556.096 228.422 555.259 228.075C554.422 227.728 553.661 227.22 553.021 226.579C552.38 225.938 551.872 225.178 551.525 224.341C551.178 223.503 551 222.606 551 221.7V201V180.3C551 179.394 551.178 178.497 551.525 177.66C551.872 176.822 552.38 176.062 553.021 175.421C553.661 174.78 554.422 174.272 555.259 173.925C556.096 173.579 556.994 173.4 557.9 173.4ZM551 201C551 201.906 551.178 202.803 551.525 203.641C551.872 204.478 552.38 205.238 553.021 205.879C553.661 206.52 554.422 207.028 555.259 207.375C556.096 207.722 556.994 207.9 557.9 207.9C559.73 207.9 561.485 207.173 562.779 205.879C564.073 204.585 564.8 202.83 564.8 201C564.8 199.17 564.073 197.415 562.779 196.121C561.485 194.827 559.73 194.1 557.9 194.1C556.07 194.1 554.315 194.827 553.021 196.121C551.727 197.415 551 199.17 551 201ZM595.64 173.4C596.5 173.405 597 174.033 597 175.47V226.531C597 235.701 576.61 211.942 572.447 203.3H589.64V203.252C589.791 203.283 589.945 203.3 590.1 203.3C590.71 203.3 591.295 203.058 591.726 202.626C592.158 202.195 592.4 201.61 592.4 201C592.4 200.39 592.158 199.805 591.726 199.374C591.295 198.942 590.71 198.7 590.1 198.7C589.945 198.701 589.791 198.717 589.64 198.748V198.7H572.445C575.96 191.408 591.009 173.373 595.64 173.4V173.4ZM578.6 203.3V207.9H587.8V203.3H578.6Z" fill="url(#paint10_linear_38_213)"/>
<path d="M574 155C548.516 155 528 175.516 528 201C528 226.484 548.516 247 574 247C599.484 247 620 226.484 620 201C620 175.516 599.484 155 574 155V155ZM574 159.6C596.935 159.6 615.4 178.064 615.4 201C615.4 223.936 596.935 242.4 574 242.4C551.064 242.4 532.6 223.936 532.6 201C532.6 178.064 551.064 159.6 574 159.6Z" fill="url(#paint11_linear_38_213)"/>
<path d="M326 155C313.8 155 302.1 159.847 293.473 168.473C284.846 177.1 280 188.8 280 201C280 207.041 281.19 213.023 283.502 218.604C285.813 224.184 289.202 229.255 293.473 233.527C297.745 237.798 302.816 241.187 308.397 243.499C313.977 245.81 319.959 247 326 247C338.2 247 349.9 242.154 358.527 233.527C367.154 224.9 372 213.2 372 201C372 188.8 367.154 177.1 358.527 168.473C349.9 159.847 338.2 155 326 155V155ZM309.9 173.4C311.73 173.4 313.485 174.127 314.779 175.421C316.073 176.715 316.8 178.47 316.8 180.3V201V221.7C316.8 223.53 316.073 225.285 314.779 226.579C313.485 227.873 311.73 228.6 309.9 228.6C308.994 228.6 308.096 228.422 307.259 228.075C306.422 227.728 305.661 227.22 305.021 226.579C304.38 225.938 303.872 225.178 303.525 224.341C303.178 223.503 303 222.606 303 221.7V201V180.3C303 179.394 303.178 178.497 303.525 177.66C303.872 176.822 304.38 176.062 305.021 175.421C305.661 174.78 306.422 174.272 307.259 173.925C308.096 173.579 308.994 173.4 309.9 173.4ZM303 201C303 201.906 303.178 202.803 303.525 203.641C303.872 204.478 304.38 205.238 305.021 205.879C305.661 206.52 306.422 207.028 307.259 207.375C308.096 207.722 308.994 207.9 309.9 207.9C311.73 207.9 313.485 207.173 314.779 205.879C316.073 204.585 316.8 202.83 316.8 201C316.8 199.17 316.073 197.415 314.779 196.121C313.485 194.827 311.73 194.1 309.9 194.1C308.07 194.1 306.315 194.827 305.021 196.121C303.727 197.415 303 199.17 303 201ZM347.64 173.4C348.5 173.405 349 174.033 349 175.47V226.531C349 235.701 328.61 211.942 324.447 203.3H341.64V203.252C341.791 203.283 341.945 203.3 342.1 203.3C342.71 203.3 343.295 203.058 343.726 202.626C344.158 202.195 344.4 201.61 344.4 201C344.4 200.39 344.158 199.805 343.726 199.374C343.295 198.942 342.71 198.7 342.1 198.7C341.945 198.701 341.791 198.717 341.64 198.748V198.7H324.445C327.96 191.408 343.009 173.373 347.64 173.4V173.4ZM330.6 203.3V207.9H339.8V203.3H330.6Z" fill="url(#paint12_linear_38_213)"/>
<path d="M326 155C300.516 155 280 175.516 280 201C280 226.484 300.516 247 326 247C351.484 247 372 226.484 372 201C372 175.516 351.484 155 326 155V155ZM326 159.6C348.935 159.6 367.4 178.064 367.4 201C367.4 223.936 348.935 242.4 326 242.4C303.064 242.4 284.6 223.936 284.6 201C284.6 178.064 303.064 159.6 326 159.6Z" fill="url(#paint13_linear_38_213)"/>
<path d="M822 155C809.8 155 798.1 159.847 789.473 168.473C780.846 177.1 776 188.8 776 201C776 207.041 777.19 213.023 779.502 218.604C781.813 224.184 785.202 229.255 789.473 233.527C793.745 237.798 798.816 241.187 804.397 243.499C809.977 245.81 815.959 247 822 247C834.2 247 845.9 242.154 854.527 233.527C863.154 224.9 868 213.2 868 201C868 188.8 863.154 177.1 854.527 168.473C845.9 159.847 834.2 155 822 155V155ZM805.9 173.4C807.73 173.4 809.485 174.127 810.779 175.421C812.073 176.715 812.8 178.47 812.8 180.3V201V221.7C812.8 223.53 812.073 225.285 810.779 226.579C809.485 227.873 807.73 228.6 805.9 228.6C804.994 228.6 804.096 228.422 803.259 228.075C802.422 227.728 801.661 227.22 801.021 226.579C800.38 225.938 799.872 225.178 799.525 224.341C799.178 223.503 799 222.606 799 221.7V201V180.3C799 179.394 799.178 178.497 799.525 177.66C799.872 176.822 800.38 176.062 801.021 175.421C801.661 174.78 802.422 174.272 803.259 173.925C804.096 173.579 804.994 173.4 805.9 173.4ZM799 201C799 201.906 799.178 202.803 799.525 203.641C799.872 204.478 800.38 205.238 801.021 205.879C801.661 206.52 802.422 207.028 803.259 207.375C804.096 207.722 804.994 207.9 805.9 207.9C807.73 207.9 809.485 207.173 810.779 205.879C812.073 204.585 812.8 202.83 812.8 201C812.8 199.17 812.073 197.415 810.779 196.121C809.485 194.827 807.73 194.1 805.9 194.1C804.07 194.1 802.315 194.827 801.021 196.121C799.727 197.415 799 199.17 799 201ZM843.64 173.4C844.5 173.405 845 174.033 845 175.47V226.531C845 235.701 824.61 211.942 820.447 203.3H837.64V203.252C837.791 203.283 837.945 203.3 838.1 203.3C838.71 203.3 839.295 203.058 839.726 202.626C840.158 202.195 840.4 201.61 840.4 201C840.4 200.39 840.158 199.805 839.726 199.374C839.295 198.942 838.71 198.7 838.1 198.7C837.945 198.701 837.791 198.717 837.64 198.748V198.7H820.445C823.96 191.408 839.009 173.373 843.64 173.4V173.4ZM826.6 203.3V207.9H835.8V203.3H826.6Z" fill="url(#paint14_linear_38_213)"/>
<path d="M822 155C796.516 155 776 175.516 776 201C776 226.484 796.516 247 822 247C847.484 247 868 226.484 868 201C868 175.516 847.484 155 822 155V155ZM822 159.6C844.935 159.6 863.4 178.064 863.4 201C863.4 223.936 844.935 242.4 822 242.4C799.064 242.4 780.6 223.936 780.6 201C780.6 178.064 799.064 159.6 822 159.6Z" fill="url(#paint15_linear_38_213)"/>
<path d="M77.9999 401C65.8 401 54.0997 405.847 45.4731 414.473C36.8464 423.1 32 434.8 32 447C32 453.041 33.1898 459.023 35.5015 464.604C37.8132 470.184 41.2016 475.255 45.4731 479.527C49.7446 483.798 54.8155 487.187 60.3965 489.499C65.9775 491.81 71.9591 493 77.9999 493C90.1999 493 101.9 488.154 110.527 479.527C119.154 470.9 124 459.2 124 447C124 434.8 119.154 423.1 110.527 414.473C101.9 405.847 90.1999 401 77.9999 401V401ZM61.8998 419.4C63.7298 419.4 65.4849 420.127 66.7788 421.421C68.0728 422.715 68.7998 424.47 68.7998 426.3V447V467.7C68.7998 469.53 68.0728 471.285 66.7788 472.579C65.4848 473.873 63.7298 474.6 61.8998 474.6C60.9937 474.6 60.0964 474.422 59.2592 474.075C58.4221 473.728 57.6614 473.22 57.0207 472.579C56.38 471.938 55.8718 471.178 55.525 470.341C55.1783 469.503 54.9998 468.606 54.9998 467.7V447V426.3C54.9998 425.394 55.1783 424.497 55.525 423.66C55.8718 422.822 56.38 422.062 57.0207 421.421C57.6614 420.78 58.4221 420.272 59.2592 419.925C60.0964 419.579 60.9937 419.4 61.8998 419.4ZM54.9998 447C54.9998 447.906 55.1783 448.803 55.525 449.641C55.8718 450.478 56.38 451.238 57.0207 451.879C57.6614 452.52 58.4221 453.028 59.2592 453.375C60.0964 453.722 60.9937 453.9 61.8998 453.9C63.7298 453.9 65.4849 453.173 66.7788 451.879C68.0728 450.585 68.7998 448.83 68.7998 447C68.7998 445.17 68.0728 443.415 66.7788 442.121C65.4848 440.827 63.7298 440.1 61.8998 440.1C60.0698 440.1 58.3147 440.827 57.0207 442.121C55.7267 443.415 54.9998 445.17 54.9998 447ZM99.6397 419.4C100.5 419.405 101 420.033 101 421.47V472.531C101 481.701 80.6097 457.942 76.4472 449.3H93.6398V449.252C93.7912 449.283 93.9453 449.3 94.1 449.3C94.71 449.3 95.2949 449.058 95.7262 448.626C96.1576 448.195 96.3999 447.61 96.3999 447C96.3999 446.39 96.1576 445.805 95.7262 445.374C95.2949 444.942 94.71 444.7 94.1 444.7C93.9453 444.701 93.7912 444.717 93.6398 444.748V444.7H76.445C79.9595 437.408 95.0093 419.373 99.6397 419.4V419.4ZM82.5998 449.3V453.9H91.7997V449.3H82.5998Z" fill="url(#paint16_linear_38_213)"/>
<path d="M77.9999 401C52.516 401 32 421.516 32 447C32 472.484 52.516 493 77.9999 493C103.484 493 124 472.484 124 447C124 421.516 103.484 401 77.9999 401V401ZM77.9999 405.6C100.935 405.6 119.4 424.064 119.4 447C119.4 469.936 100.935 488.4 77.9999 488.4C55.0644 488.4 36.5999 469.936 36.5999 447C36.5999 424.064 55.0644 405.6 77.9999 405.6Z" fill="url(#paint17_linear_38_213)"/>
<path d="M574 401C561.8 401 550.1 405.847 541.473 414.473C532.846 423.1 528 434.8 528 447C528 453.041 529.19 459.023 531.502 464.604C533.813 470.184 537.202 475.255 541.473 479.527C545.745 483.798 550.816 487.187 556.397 489.499C561.977 491.81 567.959 493 574 493C586.2 493 597.9 488.154 606.527 479.527C615.154 470.9 620 459.2 620 447C620 434.8 615.154 423.1 606.527 414.473C597.9 405.847 586.2 401 574 401V401ZM557.9 419.4C559.73 419.4 561.485 420.127 562.779 421.421C564.073 422.715 564.8 424.47 564.8 426.3V447V467.7C564.8 469.53 564.073 471.285 562.779 472.579C561.485 473.873 559.73 474.6 557.9 474.6C556.994 474.6 556.096 474.422 555.259 474.075C554.422 473.728 553.661 473.22 553.021 472.579C552.38 471.938 551.872 471.178 551.525 470.341C551.178 469.503 551 468.606 551 467.7V447V426.3C551 425.394 551.178 424.497 551.525 423.66C551.872 422.822 552.38 422.062 553.021 421.421C553.661 420.78 554.422 420.272 555.259 419.925C556.096 419.579 556.994 419.4 557.9 419.4ZM551 447C551 447.906 551.178 448.803 551.525 449.641C551.872 450.478 552.38 451.238 553.021 451.879C553.661 452.52 554.422 453.028 555.259 453.375C556.096 453.722 556.994 453.9 557.9 453.9C559.73 453.9 561.485 453.173 562.779 451.879C564.073 450.585 564.8 448.83 564.8 447C564.8 445.17 564.073 443.415 562.779 442.121C561.485 440.827 559.73 440.1 557.9 440.1C556.07 440.1 554.315 440.827 553.021 442.121C551.727 443.415 551 445.17 551 447ZM595.64 419.4C596.5 419.405 597 420.033 597 421.47V472.531C597 481.701 576.61 457.942 572.447 449.3H589.64V449.252C589.791 449.283 589.945 449.3 590.1 449.3C590.71 449.3 591.295 449.058 591.726 448.626C592.158 448.195 592.4 447.61 592.4 447C592.4 446.39 592.158 445.805 591.726 445.374C591.295 444.942 590.71 444.7 590.1 444.7C589.945 444.701 589.791 444.717 589.64 444.748V444.7H572.445C575.96 437.408 591.009 419.373 595.64 419.4V419.4ZM578.6 449.3V453.9H587.8V449.3H578.6Z" fill="url(#paint18_linear_38_213)"/>
<path d="M574 401C548.516 401 528 421.516 528 447C528 472.484 548.516 493 574 493C599.484 493 620 472.484 620 447C620 421.516 599.484 401 574 401V401ZM574 405.6C596.935 405.6 615.4 424.064 615.4 447C615.4 469.936 596.935 488.4 574 488.4C551.064 488.4 532.6 469.936 532.6 447C532.6 424.064 551.064 405.6 574 405.6Z" fill="url(#paint19_linear_38_213)"/>
<path d="M326 401C313.8 401 302.1 405.847 293.473 414.473C284.846 423.1 280 434.8 280 447C280 453.041 281.19 459.023 283.502 464.604C285.813 470.184 289.202 475.255 293.473 479.527C297.745 483.798 302.816 487.187 308.397 489.499C313.977 491.81 319.959 493 326 493C338.2 493 349.9 488.154 358.527 479.527C367.154 470.9 372 459.2 372 447C372 434.8 367.154 423.1 358.527 414.473C349.9 405.847 338.2 401 326 401V401ZM309.9 419.4C311.73 419.4 313.485 420.127 314.779 421.421C316.073 422.715 316.8 424.47 316.8 426.3V447V467.7C316.8 469.53 316.073 471.285 314.779 472.579C313.485 473.873 311.73 474.6 309.9 474.6C308.994 474.6 308.096 474.422 307.259 474.075C306.422 473.728 305.661 473.22 305.021 472.579C304.38 471.938 303.872 471.178 303.525 470.341C303.178 469.503 303 468.606 303 467.7V447V426.3C303 425.394 303.178 424.497 303.525 423.66C303.872 422.822 304.38 422.062 305.021 421.421C305.661 420.78 306.422 420.272 307.259 419.925C308.096 419.579 308.994 419.4 309.9 419.4ZM303 447C303 447.906 303.178 448.803 303.525 449.641C303.872 450.478 304.38 451.238 305.021 451.879C305.661 452.52 306.422 453.028 307.259 453.375C308.096 453.722 308.994 453.9 309.9 453.9C311.73 453.9 313.485 453.173 314.779 451.879C316.073 450.585 316.8 448.83 316.8 447C316.8 445.17 316.073 443.415 314.779 442.121C313.485 440.827 311.73 440.1 309.9 440.1C308.07 440.1 306.315 440.827 305.021 442.121C303.727 443.415 303 445.17 303 447ZM347.64 419.4C348.5 419.405 349 420.033 349 421.47V472.531C349 481.701 328.61 457.942 324.447 449.3H341.64V449.252C341.791 449.283 341.945 449.3 342.1 449.3C342.71 449.3 343.295 449.058 343.726 448.626C344.158 448.195 344.4 447.61 344.4 447C344.4 446.39 344.158 445.805 343.726 445.374C343.295 444.942 342.71 444.7 342.1 444.7C341.945 444.701 341.791 444.717 341.64 444.748V444.7H324.445C327.96 437.408 343.009 419.373 347.64 419.4V419.4ZM330.6 449.3V453.9H339.8V449.3H330.6Z" fill="url(#paint20_linear_38_213)"/>
<path d="M326 401C300.516 401 280 421.516 280 447C280 472.484 300.516 493 326 493C351.484 493 372 472.484 372 447C372 421.516 351.484 401 326 401V401ZM326 405.6C348.935 405.6 367.4 424.064 367.4 447C367.4 469.936 348.935 488.4 326 488.4C303.064 488.4 284.6 469.936 284.6 447C284.6 424.064 303.064 405.6 326 405.6Z" fill="url(#paint21_linear_38_213)"/>
<path d="M822 401C809.8 401 798.1 405.847 789.473 414.473C780.846 423.1 776 434.8 776 447C776 453.041 777.19 459.023 779.502 464.604C781.813 470.184 785.202 475.255 789.473 479.527C793.745 483.798 798.816 487.187 804.397 489.499C809.977 491.81 815.959 493 822 493C834.2 493 845.9 488.154 854.527 479.527C863.154 470.9 868 459.2 868 447C868 434.8 863.154 423.1 854.527 414.473C845.9 405.847 834.2 401 822 401V401ZM805.9 419.4C807.73 419.4 809.485 420.127 810.779 421.421C812.073 422.715 812.8 424.47 812.8 426.3V447V467.7C812.8 469.53 812.073 471.285 810.779 472.579C809.485 473.873 807.73 474.6 805.9 474.6C804.994 474.6 804.096 474.422 803.259 474.075C802.422 473.728 801.661 473.22 801.021 472.579C800.38 471.938 799.872 471.178 799.525 470.341C799.178 469.503 799 468.606 799 467.7V447V426.3C799 425.394 799.178 424.497 799.525 423.66C799.872 422.822 800.38 422.062 801.021 421.421C801.661 420.78 802.422 420.272 803.259 419.925C804.096 419.579 804.994 419.4 805.9 419.4ZM799 447C799 447.906 799.178 448.803 799.525 449.641C799.872 450.478 800.38 451.238 801.021 451.879C801.661 452.52 802.422 453.028 803.259 453.375C804.096 453.722 804.994 453.9 805.9 453.9C807.73 453.9 809.485 453.173 810.779 451.879C812.073 450.585 812.8 448.83 812.8 447C812.8 445.17 812.073 443.415 810.779 442.121C809.485 440.827 807.73 440.1 805.9 440.1C804.07 440.1 802.315 440.827 801.021 442.121C799.727 443.415 799 445.17 799 447ZM843.64 419.4C844.5 419.405 845 420.033 845 421.47V472.531C845 481.701 824.61 457.942 820.447 449.3H837.64V449.252C837.791 449.283 837.945 449.3 838.1 449.3C838.71 449.3 839.295 449.058 839.726 448.626C840.158 448.195 840.4 447.61 840.4 447C840.4 446.39 840.158 445.805 839.726 445.374C839.295 444.942 838.71 444.7 838.1 444.7C837.945 444.701 837.791 444.717 837.64 444.748V444.7H820.445C823.96 437.408 839.009 419.373 843.64 419.4V419.4ZM826.6 449.3V453.9H835.8V449.3H826.6Z" fill="url(#paint22_linear_38_213)"/>
<path d="M822 401C796.516 401 776 421.516 776 447C776 472.484 796.516 493 822 493C847.484 493 868 472.484 868 447C868 421.516 847.484 401 822 401V401ZM822 405.6C844.935 405.6 863.4 424.064 863.4 447C863.4 469.936 844.935 488.4 822 488.4C799.064 488.4 780.6 469.936 780.6 447C780.6 424.064 799.064 405.6 822 405.6Z" fill="url(#paint23_linear_38_213)"/>
<path d="M202 278C189.8 278 178.1 282.847 169.473 291.473C160.846 300.1 156 311.8 156 324C156 330.041 157.19 336.023 159.502 341.604C161.813 347.184 165.202 352.255 169.473 356.527C173.745 360.798 178.816 364.187 184.397 366.499C189.977 368.81 195.959 370 202 370C214.2 370 225.9 365.154 234.527 356.527C243.154 347.9 248 336.2 248 324C248 311.8 243.154 300.1 234.527 291.473C225.9 282.847 214.2 278 202 278V278ZM185.9 296.4C187.73 296.4 189.485 297.127 190.779 298.421C192.073 299.715 192.8 301.47 192.8 303.3V324V344.7C192.8 346.53 192.073 348.285 190.779 349.579C189.485 350.873 187.73 351.6 185.9 351.6C184.994 351.6 184.096 351.422 183.259 351.075C182.422 350.728 181.661 350.22 181.021 349.579C180.38 348.938 179.872 348.178 179.525 347.341C179.178 346.503 179 345.606 179 344.7V324V303.3C179 302.394 179.178 301.497 179.525 300.66C179.872 299.822 180.38 299.062 181.021 298.421C181.661 297.78 182.422 297.272 183.259 296.925C184.096 296.579 184.994 296.4 185.9 296.4ZM179 324C179 324.906 179.178 325.803 179.525 326.641C179.872 327.478 180.38 328.238 181.021 328.879C181.661 329.52 182.422 330.028 183.259 330.375C184.096 330.722 184.994 330.9 185.9 330.9C187.73 330.9 189.485 330.173 190.779 328.879C192.073 327.585 192.8 325.83 192.8 324C192.8 322.17 192.073 320.415 190.779 319.121C189.485 317.827 187.73 317.1 185.9 317.1C184.07 317.1 182.315 317.827 181.021 319.121C179.727 320.415 179 322.17 179 324ZM223.64 296.4C224.5 296.405 225 297.033 225 298.47V349.531C225 358.701 204.61 334.942 200.447 326.3H217.64V326.252C217.791 326.283 217.945 326.3 218.1 326.3C218.71 326.3 219.295 326.058 219.726 325.626C220.158 325.195 220.4 324.61 220.4 324C220.4 323.39 220.158 322.805 219.726 322.374C219.295 321.942 218.71 321.7 218.1 321.7C217.945 321.701 217.791 321.717 217.64 321.748V321.7H200.445C203.96 314.408 219.009 296.373 223.64 296.4V296.4ZM206.6 326.3V330.9H215.8V326.3H206.6Z" fill="url(#paint24_linear_38_213)"/>
<path d="M202 278C176.516 278 156 298.516 156 324C156 349.484 176.516 370 202 370C227.484 370 248 349.484 248 324C248 298.516 227.484 278 202 278V278ZM202 282.6C224.935 282.6 243.4 301.064 243.4 324C243.4 346.936 224.935 365.4 202 365.4C179.064 365.4 160.6 346.936 160.6 324C160.6 301.064 179.064 282.6 202 282.6Z" fill="url(#paint25_linear_38_213)"/>
<path d="M698 278C685.8 278 674.1 282.847 665.473 291.473C656.846 300.1 652 311.8 652 324C652 330.041 653.19 336.023 655.502 341.604C657.813 347.184 661.202 352.255 665.473 356.527C669.745 360.798 674.816 364.187 680.397 366.499C685.977 368.81 691.959 370 698 370C710.2 370 721.9 365.154 730.527 356.527C739.154 347.9 744 336.2 744 324C744 311.8 739.154 300.1 730.527 291.473C721.9 282.847 710.2 278 698 278V278ZM681.9 296.4C683.73 296.4 685.485 297.127 686.779 298.421C688.073 299.715 688.8 301.47 688.8 303.3V324V344.7C688.8 346.53 688.073 348.285 686.779 349.579C685.485 350.873 683.73 351.6 681.9 351.6C680.994 351.6 680.096 351.422 679.259 351.075C678.422 350.728 677.661 350.22 677.021 349.579C676.38 348.938 675.872 348.178 675.525 347.341C675.178 346.503 675 345.606 675 344.7V324V303.3C675 302.394 675.178 301.497 675.525 300.66C675.872 299.822 676.38 299.062 677.021 298.421C677.661 297.78 678.422 297.272 679.259 296.925C680.096 296.579 680.994 296.4 681.9 296.4ZM675 324C675 324.906 675.178 325.803 675.525 326.641C675.872 327.478 676.38 328.238 677.021 328.879C677.661 329.52 678.422 330.028 679.259 330.375C680.096 330.722 680.994 330.9 681.9 330.9C683.73 330.9 685.485 330.173 686.779 328.879C688.073 327.585 688.8 325.83 688.8 324C688.8 322.17 688.073 320.415 686.779 319.121C685.485 317.827 683.73 317.1 681.9 317.1C680.07 317.1 678.315 317.827 677.021 319.121C675.727 320.415 675 322.17 675 324ZM719.64 296.4C720.5 296.405 721 297.033 721 298.47V349.531C721 358.701 700.61 334.942 696.447 326.3H713.64V326.252C713.791 326.283 713.945 326.3 714.1 326.3C714.71 326.3 715.295 326.058 715.726 325.626C716.158 325.195 716.4 324.61 716.4 324C716.4 323.39 716.158 322.805 715.726 322.374C715.295 321.942 714.71 321.7 714.1 321.7C713.945 321.701 713.791 321.717 713.64 321.748V321.7H696.445C699.96 314.408 715.009 296.373 719.64 296.4V296.4ZM702.6 326.3V330.9H711.8V326.3H702.6Z" fill="url(#paint26_linear_38_213)"/>
<path d="M698 278C672.516 278 652 298.516 652 324C652 349.484 672.516 370 698 370C723.484 370 744 349.484 744 324C744 298.516 723.484 278 698 278V278ZM698 282.6C720.935 282.6 739.4 301.064 739.4 324C739.4 346.936 720.935 365.4 698 365.4C675.064 365.4 656.6 346.936 656.6 324C656.6 301.064 675.064 282.6 698 282.6Z" fill="url(#paint27_linear_38_213)"/>
<path d="M450 278C437.8 278 426.1 282.847 417.473 291.473C408.846 300.1 404 311.8 404 324C404 330.041 405.19 336.023 407.502 341.604C409.813 347.184 413.202 352.255 417.473 356.527C421.745 360.798 426.816 364.187 432.397 366.499C437.977 368.81 443.959 370 450 370C462.2 370 473.9 365.154 482.527 356.527C491.154 347.9 496 336.2 496 324C496 311.8 491.154 300.1 482.527 291.473C473.9 282.847 462.2 278 450 278V278ZM433.9 296.4C435.73 296.4 437.485 297.127 438.779 298.421C440.073 299.715 440.8 301.47 440.8 303.3V324V344.7C440.8 346.53 440.073 348.285 438.779 349.579C437.485 350.873 435.73 351.6 433.9 351.6C432.994 351.6 432.096 351.422 431.259 351.075C430.422 350.728 429.661 350.22 429.021 349.579C428.38 348.938 427.872 348.178 427.525 347.341C427.178 346.503 427 345.606 427 344.7V324V303.3C427 302.394 427.178 301.497 427.525 300.66C427.872 299.822 428.38 299.062 429.021 298.421C429.661 297.78 430.422 297.272 431.259 296.925C432.096 296.579 432.994 296.4 433.9 296.4ZM427 324C427 324.906 427.178 325.803 427.525 326.641C427.872 327.478 428.38 328.238 429.021 328.879C429.661 329.52 430.422 330.028 431.259 330.375C432.096 330.722 432.994 330.9 433.9 330.9C435.73 330.9 437.485 330.173 438.779 328.879C440.073 327.585 440.8 325.83 440.8 324C440.8 322.17 440.073 320.415 438.779 319.121C437.485 317.827 435.73 317.1 433.9 317.1C432.07 317.1 430.315 317.827 429.021 319.121C427.727 320.415 427 322.17 427 324ZM471.64 296.4C472.5 296.405 473 297.033 473 298.47V349.531C473 358.701 452.61 334.942 448.447 326.3H465.64V326.252C465.791 326.283 465.945 326.3 466.1 326.3C466.71 326.3 467.295 326.058 467.726 325.626C468.158 325.195 468.4 324.61 468.4 324C468.4 323.39 468.158 322.805 467.726 322.374C467.295 321.942 466.71 321.7 466.1 321.7C465.945 321.701 465.791 321.717 465.64 321.748V321.7H448.445C451.96 314.408 467.009 296.373 471.64 296.4V296.4ZM454.6 326.3V330.9H463.8V326.3H454.6Z" fill="url(#paint28_linear_38_213)"/>
<path d="M450 278C424.516 278 404 298.516 404 324C404 349.484 424.516 370 450 370C475.484 370 496 349.484 496 324C496 298.516 475.484 278 450 278V278ZM450 282.6C472.935 282.6 491.4 301.064 491.4 324C491.4 346.936 472.935 365.4 450 365.4C427.064 365.4 408.6 346.936 408.6 324C408.6 301.064 427.064 282.6 450 282.6Z" fill="url(#paint29_linear_38_213)"/>
<path d="M946 278C933.8 278 922.1 282.847 913.473 291.473C904.846 300.1 900 311.8 900 324C900 330.041 901.19 336.023 903.502 341.604C905.813 347.184 909.202 352.255 913.473 356.527C917.745 360.798 922.816 364.187 928.397 366.499C933.977 368.81 939.959 370 946 370C958.2 370 969.9 365.154 978.527 356.527C987.154 347.9 992 336.2 992 324C992 311.8 987.154 300.1 978.527 291.473C969.9 282.847 958.2 278 946 278V278ZM929.9 296.4C931.73 296.4 933.485 297.127 934.779 298.421C936.073 299.715 936.8 301.47 936.8 303.3V324V344.7C936.8 346.53 936.073 348.285 934.779 349.579C933.485 350.873 931.73 351.6 929.9 351.6C928.994 351.6 928.096 351.422 927.259 351.075C926.422 350.728 925.661 350.22 925.021 349.579C924.38 348.938 923.872 348.178 923.525 347.341C923.178 346.503 923 345.606 923 344.7V324V303.3C923 302.394 923.178 301.497 923.525 300.66C923.872 299.822 924.38 299.062 925.021 298.421C925.661 297.78 926.422 297.272 927.259 296.925C928.096 296.579 928.994 296.4 929.9 296.4ZM923 324C923 324.906 923.178 325.803 923.525 326.641C923.872 327.478 924.38 328.238 925.021 328.879C925.661 329.52 926.422 330.028 927.259 330.375C928.096 330.722 928.994 330.9 929.9 330.9C931.73 330.9 933.485 330.173 934.779 328.879C936.073 327.585 936.8 325.83 936.8 324C936.8 322.17 936.073 320.415 934.779 319.121C933.485 317.827 931.73 317.1 929.9 317.1C928.07 317.1 926.315 317.827 925.021 319.121C923.727 320.415 923 322.17 923 324ZM967.64 296.4C968.5 296.405 969 297.033 969 298.47V349.531C969 358.701 948.61 334.942 944.447 326.3H961.64V326.252C961.791 326.283 961.945 326.3 962.1 326.3C962.71 326.3 963.295 326.058 963.726 325.626C964.158 325.195 964.4 324.61 964.4 324C964.4 323.39 964.158 322.805 963.726 322.374C963.295 321.942 962.71 321.7 962.1 321.7C961.945 321.701 961.791 321.717 961.64 321.748V321.7H944.445C947.96 314.408 963.009 296.373 967.64 296.4V296.4ZM950.6 326.3V330.9H959.8V326.3H950.6Z" fill="url(#paint30_linear_38_213)"/>
<path d="M946 278C920.516 278 900 298.516 900 324C900 349.484 920.516 370 946 370C971.484 370 992 349.484 992 324C992 298.516 971.484 278 946 278V278ZM946 282.6C968.935 282.6 987.4 301.064 987.4 324C987.4 346.936 968.935 365.4 946 365.4C923.064 365.4 904.6 346.936 904.6 324C904.6 301.064 923.064 282.6 946 282.6Z" fill="url(#paint31_linear_38_213)"/>
<path d="M77.9999 647C65.8 647 54.0997 651.847 45.4731 660.473C36.8464 669.1 32 680.8 32 693C32 699.041 33.1898 705.023 35.5015 710.604C37.8132 716.184 41.2016 721.255 45.4731 725.527C49.7446 729.798 54.8155 733.187 60.3965 735.499C65.9775 737.81 71.9591 739 77.9999 739C90.1999 739 101.9 734.154 110.527 725.527C119.154 716.9 124 705.2 124 693C124 680.8 119.154 669.1 110.527 660.473C101.9 651.847 90.1999 647 77.9999 647V647ZM61.8998 665.4C63.7298 665.4 65.4849 666.127 66.7788 667.421C68.0728 668.715 68.7998 670.47 68.7998 672.3V693V713.7C68.7998 715.53 68.0728 717.285 66.7788 718.579C65.4848 719.873 63.7298 720.6 61.8998 720.6C60.9937 720.6 60.0964 720.422 59.2592 720.075C58.4221 719.728 57.6614 719.22 57.0207 718.579C56.38 717.938 55.8718 717.178 55.525 716.341C55.1783 715.503 54.9998 714.606 54.9998 713.7V693V672.3C54.9998 671.394 55.1783 670.497 55.525 669.66C55.8718 668.822 56.38 668.062 57.0207 667.421C57.6614 666.78 58.4221 666.272 59.2592 665.925C60.0964 665.579 60.9937 665.4 61.8998 665.4ZM54.9998 693C54.9998 693.906 55.1783 694.803 55.525 695.641C55.8718 696.478 56.38 697.238 57.0207 697.879C57.6614 698.52 58.4221 699.028 59.2592 699.375C60.0964 699.722 60.9937 699.9 61.8998 699.9C63.7298 699.9 65.4849 699.173 66.7788 697.879C68.0728 696.585 68.7998 694.83 68.7998 693C68.7998 691.17 68.0728 689.415 66.7788 688.121C65.4848 686.827 63.7298 686.1 61.8998 686.1C60.0698 686.1 58.3147 686.827 57.0207 688.121C55.7267 689.415 54.9998 691.17 54.9998 693ZM99.6397 665.4C100.5 665.405 101 666.033 101 667.47V718.531C101 727.701 80.6097 703.942 76.4472 695.3H93.6398V695.252C93.7912 695.283 93.9453 695.3 94.1 695.3C94.71 695.3 95.2949 695.058 95.7262 694.626C96.1576 694.195 96.3999 693.61 96.3999 693C96.3999 692.39 96.1576 691.805 95.7262 691.374C95.2949 690.942 94.71 690.7 94.1 690.7C93.9453 690.701 93.7912 690.717 93.6398 690.748V690.7H76.445C79.9595 683.408 95.0093 665.373 99.6397 665.4V665.4ZM82.5998 695.3V699.9H91.7997V695.3H82.5998Z" fill="url(#paint32_linear_38_213)"/>
<path d="M77.9999 647C52.516 647 32 667.516 32 693C32 718.484 52.516 739 77.9999 739C103.484 739 124 718.484 124 693C124 667.516 103.484 647 77.9999 647V647ZM77.9999 651.6C100.935 651.6 119.4 670.064 119.4 693C119.4 715.936 100.935 734.4 77.9999 734.4C55.0644 734.4 36.5999 715.936 36.5999 693C36.5999 670.064 55.0644 651.6 77.9999 651.6Z" fill="url(#paint33_linear_38_213)"/>
<path d="M574 647C561.8 647 550.1 651.847 541.473 660.473C532.846 669.1 528 680.8 528 693C528 699.041 529.19 705.023 531.502 710.604C533.813 716.184 537.202 721.255 541.473 725.527C545.745 729.798 550.816 733.187 556.397 735.499C561.977 737.81 567.959 739 574 739C586.2 739 597.9 734.154 606.527 725.527C615.154 716.9 620 705.2 620 693C620 680.8 615.154 669.1 606.527 660.473C597.9 651.847 586.2 647 574 647V647ZM557.9 665.4C559.73 665.4 561.485 666.127 562.779 667.421C564.073 668.715 564.8 670.47 564.8 672.3V693V713.7C564.8 715.53 564.073 717.285 562.779 718.579C561.485 719.873 559.73 720.6 557.9 720.6C556.994 720.6 556.096 720.422 555.259 720.075C554.422 719.728 553.661 719.22 553.021 718.579C552.38 717.938 551.872 717.178 551.525 716.341C551.178 715.503 551 714.606 551 713.7V693V672.3C551 671.394 551.178 670.497 551.525 669.66C551.872 668.822 552.38 668.062 553.021 667.421C553.661 666.78 554.422 666.272 555.259 665.925C556.096 665.579 556.994 665.4 557.9 665.4ZM551 693C551 693.906 551.178 694.803 551.525 695.641C551.872 696.478 552.38 697.238 553.021 697.879C553.661 698.52 554.422 699.028 555.259 699.375C556.096 699.722 556.994 699.9 557.9 699.9C559.73 699.9 561.485 699.173 562.779 697.879C564.073 696.585 564.8 694.83 564.8 693C564.8 691.17 564.073 689.415 562.779 688.121C561.485 686.827 559.73 686.1 557.9 686.1C556.07 686.1 554.315 686.827 553.021 688.121C551.727 689.415 551 691.17 551 693ZM595.64 665.4C596.5 665.405 597 666.033 597 667.47V718.531C597 727.701 576.61 703.942 572.447 695.3H589.64V695.252C589.791 695.283 589.945 695.3 590.1 695.3C590.71 695.3 591.295 695.058 591.726 694.626C592.158 694.195 592.4 693.61 592.4 693C592.4 692.39 592.158 691.805 591.726 691.374C591.295 690.942 590.71 690.7 590.1 690.7C589.945 690.701 589.791 690.717 589.64 690.748V690.7H572.445C575.96 683.408 591.009 665.373 595.64 665.4V665.4ZM578.6 695.3V699.9H587.8V695.3H578.6Z" fill="url(#paint34_linear_38_213)"/>
<path d="M574 647C548.516 647 528 667.516 528 693C528 718.484 548.516 739 574 739C599.484 739 620 718.484 620 693C620 667.516 599.484 647 574 647V647ZM574 651.6C596.935 651.6 615.4 670.064 615.4 693C615.4 715.936 596.935 734.4 574 734.4C551.064 734.4 532.6 715.936 532.6 693C532.6 670.064 551.064 651.6 574 651.6Z" fill="url(#paint35_linear_38_213)"/>
<path d="M326 647C313.8 647 302.1 651.847 293.473 660.473C284.846 669.1 280 680.8 280 693C280 699.041 281.19 705.023 283.502 710.604C285.813 716.184 289.202 721.255 293.473 725.527C297.745 729.798 302.816 733.187 308.397 735.499C313.977 737.81 319.959 739 326 739C338.2 739 349.9 734.154 358.527 725.527C367.154 716.9 372 705.2 372 693C372 680.8 367.154 669.1 358.527 660.473C349.9 651.847 338.2 647 326 647V647ZM309.9 665.4C311.73 665.4 313.485 666.127 314.779 667.421C316.073 668.715 316.8 670.47 316.8 672.3V693V713.7C316.8 715.53 316.073 717.285 314.779 718.579C313.485 719.873 311.73 720.6 309.9 720.6C308.994 720.6 308.096 720.422 307.259 720.075C306.422 719.728 305.661 719.22 305.021 718.579C304.38 717.938 303.872 717.178 303.525 716.341C303.178 715.503 303 714.606 303 713.7V693V672.3C303 671.394 303.178 670.497 303.525 669.66C303.872 668.822 304.38 668.062 305.021 667.421C305.661 666.78 306.422 666.272 307.259 665.925C308.096 665.579 308.994 665.4 309.9 665.4ZM303 693C303 693.906 303.178 694.803 303.525 695.641C303.872 696.478 304.38 697.238 305.021 697.879C305.661 698.52 306.422 699.028 307.259 699.375C308.096 699.722 308.994 699.9 309.9 699.9C311.73 699.9 313.485 699.173 314.779 697.879C316.073 696.585 316.8 694.83 316.8 693C316.8 691.17 316.073 689.415 314.779 688.121C313.485 686.827 311.73 686.1 309.9 686.1C308.07 686.1 306.315 686.827 305.021 688.121C303.727 689.415 303 691.17 303 693ZM347.64 665.4C348.5 665.405 349 666.033 349 667.47V718.531C349 727.701 328.61 703.942 324.447 695.3H341.64V695.252C341.791 695.283 341.945 695.3 342.1 695.3C342.71 695.3 343.295 695.058 343.726 694.626C344.158 694.195 344.4 693.61 344.4 693C344.4 692.39 344.158 691.805 343.726 691.374C343.295 690.942 342.71 690.7 342.1 690.7C341.945 690.701 341.791 690.717 341.64 690.748V690.7H324.445C327.96 683.408 343.009 665.373 347.64 665.4V665.4ZM330.6 695.3V699.9H339.8V695.3H330.6Z" fill="url(#paint36_linear_38_213)"/>
<path d="M326 647C300.516 647 280 667.516 280 693C280 718.484 300.516 739 326 739C351.484 739 372 718.484 372 693C372 667.516 351.484 647 326 647V647ZM326 651.6C348.935 651.6 367.4 670.064 367.4 693C367.4 715.936 348.935 734.4 326 734.4C303.064 734.4 284.6 715.936 284.6 693C284.6 670.064 303.064 651.6 326 651.6Z" fill="url(#paint37_linear_38_213)"/>
<path d="M822 647C809.8 647 798.1 651.847 789.473 660.473C780.846 669.1 776 680.8 776 693C776 699.041 777.19 705.023 779.502 710.604C781.813 716.184 785.202 721.255 789.473 725.527C793.745 729.798 798.816 733.187 804.397 735.499C809.977 737.81 815.959 739 822 739C834.2 739 845.9 734.154 854.527 725.527C863.154 716.9 868 705.2 868 693C868 680.8 863.154 669.1 854.527 660.473C845.9 651.847 834.2 647 822 647V647ZM805.9 665.4C807.73 665.4 809.485 666.127 810.779 667.421C812.073 668.715 812.8 670.47 812.8 672.3V693V713.7C812.8 715.53 812.073 717.285 810.779 718.579C809.485 719.873 807.73 720.6 805.9 720.6C804.994 720.6 804.096 720.422 803.259 720.075C802.422 719.728 801.661 719.22 801.021 718.579C800.38 717.938 799.872 717.178 799.525 716.341C799.178 715.503 799 714.606 799 713.7V693V672.3C799 671.394 799.178 670.497 799.525 669.66C799.872 668.822 800.38 668.062 801.021 667.421C801.661 666.78 802.422 666.272 803.259 665.925C804.096 665.579 804.994 665.4 805.9 665.4ZM799 693C799 693.906 799.178 694.803 799.525 695.641C799.872 696.478 800.38 697.238 801.021 697.879C801.661 698.52 802.422 699.028 803.259 699.375C804.096 699.722 804.994 699.9 805.9 699.9C807.73 699.9 809.485 699.173 810.779 697.879C812.073 696.585 812.8 694.83 812.8 693C812.8 691.17 812.073 689.415 810.779 688.121C809.485 686.827 807.73 686.1 805.9 686.1C804.07 686.1 802.315 686.827 801.021 688.121C799.727 689.415 799 691.17 799 693ZM843.64 665.4C844.5 665.405 845 666.033 845 667.47V718.531C845 727.701 824.61 703.942 820.447 695.3H837.64V695.252C837.791 695.283 837.945 695.3 838.1 695.3C838.71 695.3 839.295 695.058 839.726 694.626C840.158 694.195 840.4 693.61 840.4 693C840.4 692.39 840.158 691.805 839.726 691.374C839.295 690.942 838.71 690.7 838.1 690.7C837.945 690.701 837.791 690.717 837.64 690.748V690.7H820.445C823.96 683.408 839.009 665.373 843.64 665.4V665.4ZM826.6 695.3V699.9H835.8V695.3H826.6Z" fill="url(#paint38_linear_38_213)"/>
<path d="M822 647C796.516 647 776 667.516 776 693C776 718.484 796.516 739 822 739C847.484 739 868 718.484 868 693C868 667.516 847.484 647 822 647V647ZM822 651.6C844.935 651.6 863.4 670.064 863.4 693C863.4 715.936 844.935 734.4 822 734.4C799.064 734.4 780.6 715.936 780.6 693C780.6 670.064 799.064 651.6 822 651.6Z" fill="url(#paint39_linear_38_213)"/>
<path d="M202 524C189.8 524 178.1 528.847 169.473 537.473C160.846 546.1 156 557.8 156 570C156 576.041 157.19 582.023 159.502 587.604C161.813 593.184 165.202 598.255 169.473 602.527C173.745 606.798 178.816 610.187 184.397 612.499C189.977 614.81 195.959 616 202 616C214.2 616 225.9 611.154 234.527 602.527C243.154 593.9 248 582.2 248 570C248 557.8 243.154 546.1 234.527 537.473C225.9 528.847 214.2 524 202 524V524ZM185.9 542.4C187.73 542.4 189.485 543.127 190.779 544.421C192.073 545.715 192.8 547.47 192.8 549.3V570V590.7C192.8 592.53 192.073 594.285 190.779 595.579C189.485 596.873 187.73 597.6 185.9 597.6C184.994 597.6 184.096 597.422 183.259 597.075C182.422 596.728 181.661 596.22 181.021 595.579C180.38 594.938 179.872 594.178 179.525 593.341C179.178 592.503 179 591.606 179 590.7V570V549.3C179 548.394 179.178 547.497 179.525 546.66C179.872 545.822 180.38 545.062 181.021 544.421C181.661 543.78 182.422 543.272 183.259 542.925C184.096 542.579 184.994 542.4 185.9 542.4ZM179 570C179 570.906 179.178 571.803 179.525 572.641C179.872 573.478 180.38 574.238 181.021 574.879C181.661 575.52 182.422 576.028 183.259 576.375C184.096 576.722 184.994 576.9 185.9 576.9C187.73 576.9 189.485 576.173 190.779 574.879C192.073 573.585 192.8 571.83 192.8 570C192.8 568.17 192.073 566.415 190.779 565.121C189.485 563.827 187.73 563.1 185.9 563.1C184.07 563.1 182.315 563.827 181.021 565.121C179.727 566.415 179 568.17 179 570ZM223.64 542.4C224.5 542.405 225 543.033 225 544.47V595.531C225 604.701 204.61 580.942 200.447 572.3H217.64V572.252C217.791 572.283 217.945 572.3 218.1 572.3C218.71 572.3 219.295 572.058 219.726 571.626C220.158 571.195 220.4 570.61 220.4 570C220.4 569.39 220.158 568.805 219.726 568.374C219.295 567.942 218.71 567.7 218.1 567.7C217.945 567.701 217.791 567.717 217.64 567.748V567.7H200.445C203.96 560.408 219.009 542.373 223.64 542.4V542.4ZM206.6 572.3V576.9H215.8V572.3H206.6Z" fill="url(#paint40_linear_38_213)"/>
<path d="M202 524C176.516 524 156 544.516 156 570C156 595.484 176.516 616 202 616C227.484 616 248 595.484 248 570C248 544.516 227.484 524 202 524V524ZM202 528.6C224.935 528.6 243.4 547.064 243.4 570C243.4 592.936 224.935 611.4 202 611.4C179.064 611.4 160.6 592.936 160.6 570C160.6 547.064 179.064 528.6 202 528.6Z" fill="url(#paint41_linear_38_213)"/>
<path d="M698 524C685.8 524 674.1 528.847 665.473 537.473C656.846 546.1 652 557.8 652 570C652 576.041 653.19 582.023 655.502 587.604C657.813 593.184 661.202 598.255 665.473 602.527C669.745 606.798 674.816 610.187 680.397 612.499C685.977 614.81 691.959 616 698 616C710.2 616 721.9 611.154 730.527 602.527C739.154 593.9 744 582.2 744 570C744 557.8 739.154 546.1 730.527 537.473C721.9 528.847 710.2 524 698 524V524ZM681.9 542.4C683.73 542.4 685.485 543.127 686.779 544.421C688.073 545.715 688.8 547.47 688.8 549.3V570V590.7C688.8 592.53 688.073 594.285 686.779 595.579C685.485 596.873 683.73 597.6 681.9 597.6C680.994 597.6 680.096 597.422 679.259 597.075C678.422 596.728 677.661 596.22 677.021 595.579C676.38 594.938 675.872 594.178 675.525 593.341C675.178 592.503 675 591.606 675 590.7V570V549.3C675 548.394 675.178 547.497 675.525 546.66C675.872 545.822 676.38 545.062 677.021 544.421C677.661 543.78 678.422 543.272 679.259 542.925C680.096 542.579 680.994 542.4 681.9 542.4ZM675 570C675 570.906 675.178 571.803 675.525 572.641C675.872 573.478 676.38 574.238 677.021 574.879C677.661 575.52 678.422 576.028 679.259 576.375C680.096 576.722 680.994 576.9 681.9 576.9C683.73 576.9 685.485 576.173 686.779 574.879C688.073 573.585 688.8 571.83 688.8 570C688.8 568.17 688.073 566.415 686.779 565.121C685.485 563.827 683.73 563.1 681.9 563.1C680.07 563.1 678.315 563.827 677.021 565.121C675.727 566.415 675 568.17 675 570ZM719.64 542.4C720.5 542.405 721 543.033 721 544.47V595.531C721 604.701 700.61 580.942 696.447 572.3H713.64V572.252C713.791 572.283 713.945 572.3 714.1 572.3C714.71 572.3 715.295 572.058 715.726 571.626C716.158 571.195 716.4 570.61 716.4 570C716.4 569.39 716.158 568.805 715.726 568.374C715.295 567.942 714.71 567.7 714.1 567.7C713.945 567.701 713.791 567.717 713.64 567.748V567.7H696.445C699.96 560.408 715.009 542.373 719.64 542.4V542.4ZM702.6 572.3V576.9H711.8V572.3H702.6Z" fill="url(#paint42_linear_38_213)"/>
<path d="M698 524C672.516 524 652 544.516 652 570C652 595.484 672.516 616 698 616C723.484 616 744 595.484 744 570C744 544.516 723.484 524 698 524V524ZM698 528.6C720.935 528.6 739.4 547.064 739.4 570C739.4 592.936 720.935 611.4 698 611.4C675.064 611.4 656.6 592.936 656.6 570C656.6 547.064 675.064 528.6 698 528.6Z" fill="url(#paint43_linear_38_213)"/>
<path d="M450 524C437.8 524 426.1 528.847 417.473 537.473C408.846 546.1 404 557.8 404 570C404 576.041 405.19 582.023 407.502 587.604C409.813 593.184 413.202 598.255 417.473 602.527C421.745 606.798 426.816 610.187 432.397 612.499C437.977 614.81 443.959 616 450 616C462.2 616 473.9 611.154 482.527 602.527C491.154 593.9 496 582.2 496 570C496 557.8 491.154 546.1 482.527 537.473C473.9 528.847 462.2 524 450 524V524ZM433.9 542.4C435.73 542.4 437.485 543.127 438.779 544.421C440.073 545.715 440.8 547.47 440.8 549.3V570V590.7C440.8 592.53 440.073 594.285 438.779 595.579C437.485 596.873 435.73 597.6 433.9 597.6C432.994 597.6 432.096 597.422 431.259 597.075C430.422 596.728 429.661 596.22 429.021 595.579C428.38 594.938 427.872 594.178 427.525 593.341C427.178 592.503 427 591.606 427 590.7V570V549.3C427 548.394 427.178 547.497 427.525 546.66C427.872 545.822 428.38 545.062 429.021 544.421C429.661 543.78 430.422 543.272 431.259 542.925C432.096 542.579 432.994 542.4 433.9 542.4ZM427 570C427 570.906 427.178 571.803 427.525 572.641C427.872 573.478 428.38 574.238 429.021 574.879C429.661 575.52 430.422 576.028 431.259 576.375C432.096 576.722 432.994 576.9 433.9 576.9C435.73 576.9 437.485 576.173 438.779 574.879C440.073 573.585 440.8 571.83 440.8 570C440.8 568.17 440.073 566.415 438.779 565.121C437.485 563.827 435.73 563.1 433.9 563.1C432.07 563.1 430.315 563.827 429.021 565.121C427.727 566.415 427 568.17 427 570ZM471.64 542.4C472.5 542.405 473 543.033 473 544.47V595.531C473 604.701 452.61 580.942 448.447 572.3H465.64V572.252C465.791 572.283 465.945 572.3 466.1 572.3C466.71 572.3 467.295 572.058 467.726 571.626C468.158 571.195 468.4 570.61 468.4 570C468.4 569.39 468.158 568.805 467.726 568.374C467.295 567.942 466.71 567.7 466.1 567.7C465.945 567.701 465.791 567.717 465.64 567.748V567.7H448.445C451.96 560.408 467.009 542.373 471.64 542.4V542.4ZM454.6 572.3V576.9H463.8V572.3H454.6Z" fill="url(#paint44_linear_38_213)"/>
<path d="M450 524C424.516 524 404 544.516 404 570C404 595.484 424.516 616 450 616C475.484 616 496 595.484 496 570C496 544.516 475.484 524 450 524V524ZM450 528.6C472.935 528.6 491.4 547.064 491.4 570C491.4 592.936 472.935 611.4 450 611.4C427.064 611.4 408.6 592.936 408.6 570C408.6 547.064 427.064 528.6 450 528.6Z" fill="url(#paint45_linear_38_213)"/>
<path d="M946 524C933.8 524 922.1 528.847 913.473 537.473C904.846 546.1 900 557.8 900 570C900 576.041 901.19 582.023 903.502 587.604C905.813 593.184 909.202 598.255 913.473 602.527C917.745 606.798 922.816 610.187 928.397 612.499C933.977 614.81 939.959 616 946 616C958.2 616 969.9 611.154 978.527 602.527C987.154 593.9 992 582.2 992 570C992 557.8 987.154 546.1 978.527 537.473C969.9 528.847 958.2 524 946 524V524ZM929.9 542.4C931.73 542.4 933.485 543.127 934.779 544.421C936.073 545.715 936.8 547.47 936.8 549.3V570V590.7C936.8 592.53 936.073 594.285 934.779 595.579C933.485 596.873 931.73 597.6 929.9 597.6C928.994 597.6 928.096 597.422 927.259 597.075C926.422 596.728 925.661 596.22 925.021 595.579C924.38 594.938 923.872 594.178 923.525 593.341C923.178 592.503 923 591.606 923 590.7V570V549.3C923 548.394 923.178 547.497 923.525 546.66C923.872 545.822 924.38 545.062 925.021 544.421C925.661 543.78 926.422 543.272 927.259 542.925C928.096 542.579 928.994 542.4 929.9 542.4ZM923 570C923 570.906 923.178 571.803 923.525 572.641C923.872 573.478 924.38 574.238 925.021 574.879C925.661 575.52 926.422 576.028 927.259 576.375C928.096 576.722 928.994 576.9 929.9 576.9C931.73 576.9 933.485 576.173 934.779 574.879C936.073 573.585 936.8 571.83 936.8 570C936.8 568.17 936.073 566.415 934.779 565.121C933.485 563.827 931.73 563.1 929.9 563.1C928.07 563.1 926.315 563.827 925.021 565.121C923.727 566.415 923 568.17 923 570ZM967.64 542.4C968.5 542.405 969 543.033 969 544.47V595.531C969 604.701 948.61 580.942 944.447 572.3H961.64V572.252C961.791 572.283 961.945 572.3 962.1 572.3C962.71 572.3 963.295 572.058 963.726 571.626C964.158 571.195 964.4 570.61 964.4 570C964.4 569.39 964.158 568.805 963.726 568.374C963.295 567.942 962.71 567.7 962.1 567.7C961.945 567.701 961.791 567.717 961.64 567.748V567.7H944.445C947.96 560.408 963.009 542.373 967.64 542.4V542.4ZM950.6 572.3V576.9H959.8V572.3H950.6Z" fill="url(#paint46_linear_38_213)"/>
<path d="M946 524C920.516 524 900 544.516 900 570C900 595.484 920.516 616 946 616C971.484 616 992 595.484 992 570C992 544.516 971.484 524 946 524V524ZM946 528.6C968.935 528.6 987.4 547.064 987.4 570C987.4 592.936 968.935 611.4 946 611.4C923.064 611.4 904.6 592.936 904.6 570C904.6 547.064 923.064 528.6 946 528.6Z" fill="url(#paint47_linear_38_213)"/>
<defs>
<linearGradient id="paint0_linear_38_213" x1="174.4" y1="50.4001" x2="229.6" y2="105.6" gradientUnits="userSpaceOnUse">
<stop stop-color="#00FFBD"/>
<stop offset="0.2" stop-color="#00FFBD"/>
<stop offset="0.5" stop-color="#53CEAD"/>
<stop offset="0.85" stop-color="#CEF2E8"/>
<stop offset="1" stop-color="#53CEAD"/>
</linearGradient>
<linearGradient id="paint1_linear_38_213" x1="248" y1="124" x2="169.8" y2="45.8001" gradientUnits="userSpaceOnUse">
<stop stop-color="#53CEAD"/>
<stop offset="0.2" stop-color="#00FFBD"/>
<stop offset="0.5" stop-color="#0F4B3C"/>
<stop offset="0.85" stop-color="#CEF2E8"/>
<stop offset="1" stop-color="#CEF2E8"/>
</linearGradient>
<linearGradient id="paint2_linear_38_213" x1="670.4" y1="50.4001" x2="725.6" y2="105.6" gradientUnits="userSpaceOnUse">
<stop stop-color="#00FFBD"/>
<stop offset="0.2" stop-color="#00FFBD"/>
<stop offset="0.5" stop-color="#53CEAD"/>
<stop offset="0.85" stop-color="#CEF2E8"/>
<stop offset="1" stop-color="#53CEAD"/>
</linearGradient>
<linearGradient id="paint3_linear_38_213" x1="744" y1="124" x2="665.8" y2="45.8001" gradientUnits="userSpaceOnUse">
<stop stop-color="#53CEAD"/>
<stop offset="0.2" stop-color="#00FFBD"/>
<stop offset="0.5" stop-color="#0F4B3C"/>
<stop offset="0.85" stop-color="#CEF2E8"/>
<stop offset="1" stop-color="#CEF2E8"/>
</linearGradient>
<linearGradient id="paint4_linear_38_213" x1="422.4" y1="50.4001" x2="477.6" y2="105.6" gradientUnits="userSpaceOnUse">
<stop stop-color="#00FFBD"/>
<stop offset="0.2" stop-color="#00FFBD"/>
<stop offset="0.5" stop-color="#53CEAD"/>
<stop offset="0.85" stop-color="#CEF2E8"/>
<stop offset="1" stop-color="#53CEAD"/>
</linearGradient>
<linearGradient id="paint5_linear_38_213" x1="496" y1="124" x2="417.8" y2="45.8001" gradientUnits="userSpaceOnUse">
<stop stop-color="#53CEAD"/>
<stop offset="0.2" stop-color="#00FFBD"/>
<stop offset="0.5" stop-color="#0F4B3C"/>
<stop offset="0.85" stop-color="#CEF2E8"/>
<stop offset="1" stop-color="#CEF2E8"/>
</linearGradient>
<linearGradient id="paint6_linear_38_213" x1="918.4" y1="50.4001" x2="973.6" y2="105.6" gradientUnits="userSpaceOnUse">
<stop stop-color="#00FFBD"/>
<stop offset="0.2" stop-color="#00FFBD"/>
<stop offset="0.5" stop-color="#53CEAD"/>
<stop offset="0.85" stop-color="#CEF2E8"/>
<stop offset="1" stop-color="#53CEAD"/>
</linearGradient>
<linearGradient id="paint7_linear_38_213" x1="992" y1="124" x2="913.8" y2="45.8001" gradientUnits="userSpaceOnUse">
<stop stop-color="#53CEAD"/>
<stop offset="0.2" stop-color="#00FFBD"/>
<stop offset="0.5" stop-color="#0F4B3C"/>
<stop offset="0.85" stop-color="#CEF2E8"/>
<stop offset="1" stop-color="#CEF2E8"/>
</linearGradient>
<linearGradient id="paint8_linear_38_213" x1="50.4" y1="173.4" x2="105.6" y2="228.6" gradientUnits="userSpaceOnUse">
<stop stop-color="#00FFBD"/>
<stop offset="0.2" stop-color="#00FFBD"/>
<stop offset="0.5" stop-color="#53CEAD"/>
<stop offset="0.85" stop-color="#CEF2E8"/>
<stop offset="1" stop-color="#53CEAD"/>
</linearGradient>
<linearGradient id="paint9_linear_38_213" x1="124" y1="247" x2="45.8" y2="168.8" gradientUnits="userSpaceOnUse">
<stop stop-color="#53CEAD"/>
<stop offset="0.2" stop-color="#00FFBD"/>
<stop offset="0.5" stop-color="#0F4B3C"/>
<stop offset="0.85" stop-color="#CEF2E8"/>
<stop offset="1" stop-color="#CEF2E8"/>
</linearGradient>
<linearGradient id="paint10_linear_38_213" x1="546.4" y1="173.4" x2="601.6" y2="228.6" gradientUnits="userSpaceOnUse">
<stop stop-color="#00FFBD"/>
<stop offset="0.2" stop-color="#00FFBD"/>
<stop offset="0.5" stop-color="#53CEAD"/>
<stop offset="0.85" stop-color="#CEF2E8"/>
<stop offset="1" stop-color="#53CEAD"/>
</linearGradient>
<linearGradient id="paint11_linear_38_213" x1="620" y1="247" x2="541.8" y2="168.8" gradientUnits="userSpaceOnUse">
<stop stop-color="#53CEAD"/>
<stop offset="0.2" stop-color="#00FFBD"/>
<stop offset="0.5" stop-color="#0F4B3C"/>
<stop offset="0.85" stop-color="#CEF2E8"/>
<stop offset="1" stop-color="#CEF2E8"/>
</linearGradient>
<linearGradient id="paint12_linear_38_213" x1="298.4" y1="173.4" x2="353.6" y2="228.6" gradientUnits="userSpaceOnUse">
<stop stop-color="#00FFBD"/>
<stop offset="0.2" stop-color="#00FFBD"/>
<stop offset="0.5" stop-color="#53CEAD"/>
<stop offset="0.85" stop-color="#CEF2E8"/>
<stop offset="1" stop-color="#53CEAD"/>
</linearGradient>
<linearGradient id="paint13_linear_38_213" x1="372" y1="247" x2="293.8" y2="168.8" gradientUnits="userSpaceOnUse">
<stop stop-color="#53CEAD"/>
<stop offset="0.2" stop-color="#00FFBD"/>
<stop offset="0.5" stop-color="#0F4B3C"/>
<stop offset="0.85" stop-color="#CEF2E8"/>
<stop offset="1" stop-color="#CEF2E8"/>
</linearGradient>
<linearGradient id="paint14_linear_38_213" x1="794.4" y1="173.4" x2="849.6" y2="228.6" gradientUnits="userSpaceOnUse">
<stop stop-color="#00FFBD"/>
<stop offset="0.2" stop-color="#00FFBD"/>
<stop offset="0.5" stop-color="#53CEAD"/>
<stop offset="0.85" stop-color="#CEF2E8"/>
<stop offset="1" stop-color="#53CEAD"/>
</linearGradient>
<linearGradient id="paint15_linear_38_213" x1="868" y1="247" x2="789.8" y2="168.8" gradientUnits="userSpaceOnUse">
<stop stop-color="#53CEAD"/>
<stop offset="0.2" stop-color="#00FFBD"/>
<stop offset="0.5" stop-color="#0F4B3C"/>
<stop offset="0.85" stop-color="#CEF2E8"/>
<stop offset="1" stop-color="#CEF2E8"/>
</linearGradient>
<linearGradient id="paint16_linear_38_213" x1="50.4" y1="419.4" x2="105.6" y2="474.6" gradientUnits="userSpaceOnUse">
<stop stop-color="#00FFBD"/>
<stop offset="0.2" stop-color="#00FFBD"/>
<stop offset="0.5" stop-color="#53CEAD"/>
<stop offset="0.85" stop-color="#CEF2E8"/>
<stop offset="1" stop-color="#53CEAD"/>
</linearGradient>
<linearGradient id="paint17_linear_38_213" x1="124" y1="493" x2="45.8" y2="414.8" gradientUnits="userSpaceOnUse">
<stop stop-color="#53CEAD"/>
<stop offset="0.2" stop-color="#00FFBD"/>
<stop offset="0.5" stop-color="#0F4B3C"/>
<stop offset="0.85" stop-color="#CEF2E8"/>
<stop offset="1" stop-color="#CEF2E8"/>
</linearGradient>
<linearGradient id="paint18_linear_38_213" x1="546.4" y1="419.4" x2="601.6" y2="474.6" gradientUnits="userSpaceOnUse">
<stop stop-color="#00FFBD"/>
<stop offset="0.2" stop-color="#00FFBD"/>
<stop offset="0.5" stop-color="#53CEAD"/>
<stop offset="0.85" stop-color="#CEF2E8"/>
<stop offset="1" stop-color="#53CEAD"/>
</linearGradient>
<linearGradient id="paint19_linear_38_213" x1="620" y1="493" x2="541.8" y2="414.8" gradientUnits="userSpaceOnUse">
<stop stop-color="#53CEAD"/>
<stop offset="0.2" stop-color="#00FFBD"/>
<stop offset="0.5" stop-color="#0F4B3C"/>
<stop offset="0.85" stop-color="#CEF2E8"/>
<stop offset="1" stop-color="#CEF2E8"/>
</linearGradient>
<linearGradient id="paint20_linear_38_213" x1="298.4" y1="419.4" x2="353.6" y2="474.6" gradientUnits="userSpaceOnUse">
<stop stop-color="#00FFBD"/>
<stop offset="0.2" stop-color="#00FFBD"/>
<stop offset="0.5" stop-color="#53CEAD"/>
<stop offset="0.85" stop-color="#CEF2E8"/>
<stop offset="1" stop-color="#53CEAD"/>
</linearGradient>
<linearGradient id="paint21_linear_38_213" x1="372" y1="493" x2="293.8" y2="414.8" gradientUnits="userSpaceOnUse">
<stop stop-color="#53CEAD"/>
<stop offset="0.2" stop-color="#00FFBD"/>
<stop offset="0.5" stop-color="#0F4B3C"/>
<stop offset="0.85" stop-color="#CEF2E8"/>
<stop offset="1" stop-color="#CEF2E8"/>
</linearGradient>
<linearGradient id="paint22_linear_38_213" x1="794.4" y1="419.4" x2="849.6" y2="474.6" gradientUnits="userSpaceOnUse">
<stop stop-color="#00FFBD"/>
<stop offset="0.2" stop-color="#00FFBD"/>
<stop offset="0.5" stop-color="#53CEAD"/>
<stop offset="0.85" stop-color="#CEF2E8"/>
<stop offset="1" stop-color="#53CEAD"/>
</linearGradient>
<linearGradient id="paint23_linear_38_213" x1="868" y1="493" x2="789.8" y2="414.8" gradientUnits="userSpaceOnUse">
<stop stop-color="#53CEAD"/>
<stop offset="0.2" stop-color="#00FFBD"/>
<stop offset="0.5" stop-color="#0F4B3C"/>
<stop offset="0.85" stop-color="#CEF2E8"/>
<stop offset="1" stop-color="#CEF2E8"/>
</linearGradient>
<linearGradient id="paint24_linear_38_213" x1="174.4" y1="296.4" x2="229.6" y2="351.6" gradientUnits="userSpaceOnUse">
<stop stop-color="#00FFBD"/>
<stop offset="0.2" stop-color="#00FFBD"/>
<stop offset="0.5" stop-color="#53CEAD"/>
<stop offset="0.85" stop-color="#CEF2E8"/>
<stop offset="1" stop-color="#53CEAD"/>
</linearGradient>
<linearGradient id="paint25_linear_38_213" x1="248" y1="370" x2="169.8" y2="291.8" gradientUnits="userSpaceOnUse">
<stop stop-color="#53CEAD"/>
<stop offset="0.2" stop-color="#00FFBD"/>
<stop offset="0.5" stop-color="#0F4B3C"/>
<stop offset="0.85" stop-color="#CEF2E8"/>
<stop offset="1" stop-color="#CEF2E8"/>
</linearGradient>
<linearGradient id="paint26_linear_38_213" x1="670.4" y1="296.4" x2="725.6" y2="351.6" gradientUnits="userSpaceOnUse">
<stop stop-color="#00FFBD"/>
<stop offset="0.2" stop-color="#00FFBD"/>
<stop offset="0.5" stop-color="#53CEAD"/>
<stop offset="0.85" stop-color="#CEF2E8"/>
<stop offset="1" stop-color="#53CEAD"/>
</linearGradient>
<linearGradient id="paint27_linear_38_213" x1="744" y1="370" x2="665.8" y2="291.8" gradientUnits="userSpaceOnUse">
<stop stop-color="#53CEAD"/>
<stop offset="0.2" stop-color="#00FFBD"/>
<stop offset="0.5" stop-color="#0F4B3C"/>
<stop offset="0.85" stop-color="#CEF2E8"/>
<stop offset="1" stop-color="#CEF2E8"/>
</linearGradient>
<linearGradient id="paint28_linear_38_213" x1="422.4" y1="296.4" x2="477.6" y2="351.6" gradientUnits="userSpaceOnUse">
<stop stop-color="#00FFBD"/>
<stop offset="0.2" stop-color="#00FFBD"/>
<stop offset="0.5" stop-color="#53CEAD"/>
<stop offset="0.85" stop-color="#CEF2E8"/>
<stop offset="1" stop-color="#53CEAD"/>
</linearGradient>
<linearGradient id="paint29_linear_38_213" x1="496" y1="370" x2="417.8" y2="291.8" gradientUnits="userSpaceOnUse">
<stop stop-color="#53CEAD"/>
<stop offset="0.2" stop-color="#00FFBD"/>
<stop offset="0.5" stop-color="#0F4B3C"/>
<stop offset="0.85" stop-color="#CEF2E8"/>
<stop offset="1" stop-color="#CEF2E8"/>
</linearGradient>
<linearGradient id="paint30_linear_38_213" x1="918.4" y1="296.4" x2="973.6" y2="351.6" gradientUnits="userSpaceOnUse">
<stop stop-color="#00FFBD"/>
<stop offset="0.2" stop-color="#00FFBD"/>
<stop offset="0.5" stop-color="#53CEAD"/>
<stop offset="0.85" stop-color="#CEF2E8"/>
<stop offset="1" stop-color="#53CEAD"/>
</linearGradient>
<linearGradient id="paint31_linear_38_213" x1="992" y1="370" x2="913.8" y2="291.8" gradientUnits="userSpaceOnUse">
<stop stop-color="#53CEAD"/>
<stop offset="0.2" stop-color="#00FFBD"/>
<stop offset="0.5" stop-color="#0F4B3C"/>
<stop offset="0.85" stop-color="#CEF2E8"/>
<stop offset="1" stop-color="#CEF2E8"/>
</linearGradient>
<linearGradient id="paint32_linear_38_213" x1="50.4" y1="665.4" x2="105.6" y2="720.6" gradientUnits="userSpaceOnUse">
<stop stop-color="#00FFBD"/>
<stop offset="0.2" stop-color="#00FFBD"/>
<stop offset="0.5" stop-color="#53CEAD"/>
<stop offset="0.85" stop-color="#CEF2E8"/>
<stop offset="1" stop-color="#53CEAD"/>
</linearGradient>
<linearGradient id="paint33_linear_38_213" x1="124" y1="739" x2="45.8" y2="660.8" gradientUnits="userSpaceOnUse">
<stop stop-color="#53CEAD"/>
<stop offset="0.2" stop-color="#00FFBD"/>
<stop offset="0.5" stop-color="#0F4B3C"/>
<stop offset="0.85" stop-color="#CEF2E8"/>
<stop offset="1" stop-color="#CEF2E8"/>
</linearGradient>
<linearGradient id="paint34_linear_38_213" x1="546.4" y1="665.4" x2="601.6" y2="720.6" gradientUnits="userSpaceOnUse">
<stop stop-color="#00FFBD"/>
<stop offset="0.2" stop-color="#00FFBD"/>
<stop offset="0.5" stop-color="#53CEAD"/>
<stop offset="0.85" stop-color="#CEF2E8"/>
<stop offset="1" stop-color="#53CEAD"/>
</linearGradient>
<linearGradient id="paint35_linear_38_213" x1="620" y1="739" x2="541.8" y2="660.8" gradientUnits="userSpaceOnUse">
<stop stop-color="#53CEAD"/>
<stop offset="0.2" stop-color="#00FFBD"/>
<stop offset="0.5" stop-color="#0F4B3C"/>
<stop offset="0.85" stop-color="#CEF2E8"/>
<stop offset="1" stop-color="#CEF2E8"/>
</linearGradient>
<linearGradient id="paint36_linear_38_213" x1="298.4" y1="665.4" x2="353.6" y2="720.6" gradientUnits="userSpaceOnUse">
<stop stop-color="#00FFBD"/>
<stop offset="0.2" stop-color="#00FFBD"/>
<stop offset="0.5" stop-color="#53CEAD"/>
<stop offset="0.85" stop-color="#CEF2E8"/>
<stop offset="1" stop-color="#53CEAD"/>
</linearGradient>
<linearGradient id="paint37_linear_38_213" x1="372" y1="739" x2="293.8" y2="660.8" gradientUnits="userSpaceOnUse">
<stop stop-color="#53CEAD"/>
<stop offset="0.2" stop-color="#00FFBD"/>
<stop offset="0.5" stop-color="#0F4B3C"/>
<stop offset="0.85" stop-color="#CEF2E8"/>
<stop offset="1" stop-color="#CEF2E8"/>
</linearGradient>
<linearGradient id="paint38_linear_38_213" x1="794.4" y1="665.4" x2="849.6" y2="720.6" gradientUnits="userSpaceOnUse">
<stop stop-color="#00FFBD"/>
<stop offset="0.2" stop-color="#00FFBD"/>
<stop offset="0.5" stop-color="#53CEAD"/>
<stop offset="0.85" stop-color="#CEF2E8"/>
<stop offset="1" stop-color="#53CEAD"/>
</linearGradient>
<linearGradient id="paint39_linear_38_213" x1="868" y1="739" x2="789.8" y2="660.8" gradientUnits="userSpaceOnUse">
<stop stop-color="#53CEAD"/>
<stop offset="0.2" stop-color="#00FFBD"/>
<stop offset="0.5" stop-color="#0F4B3C"/>
<stop offset="0.85" stop-color="#CEF2E8"/>
<stop offset="1" stop-color="#CEF2E8"/>
</linearGradient>
<linearGradient id="paint40_linear_38_213" x1="174.4" y1="542.4" x2="229.6" y2="597.6" gradientUnits="userSpaceOnUse">
<stop stop-color="#00FFBD"/>
<stop offset="0.2" stop-color="#00FFBD"/>
<stop offset="0.5" stop-color="#53CEAD"/>
<stop offset="0.85" stop-color="#CEF2E8"/>
<stop offset="1" stop-color="#53CEAD"/>
</linearGradient>
<linearGradient id="paint41_linear_38_213" x1="248" y1="616" x2="169.8" y2="537.8" gradientUnits="userSpaceOnUse">
<stop stop-color="#53CEAD"/>
<stop offset="0.2" stop-color="#00FFBD"/>
<stop offset="0.5" stop-color="#0F4B3C"/>
<stop offset="0.85" stop-color="#CEF2E8"/>
<stop offset="1" stop-color="#CEF2E8"/>
</linearGradient>
<linearGradient id="paint42_linear_38_213" x1="670.4" y1="542.4" x2="725.6" y2="597.6" gradientUnits="userSpaceOnUse">
<stop stop-color="#00FFBD"/>
<stop offset="0.2" stop-color="#00FFBD"/>
<stop offset="0.5" stop-color="#53CEAD"/>
<stop offset="0.85" stop-color="#CEF2E8"/>
<stop offset="1" stop-color="#53CEAD"/>
</linearGradient>
<linearGradient id="paint43_linear_38_213" x1="744" y1="616" x2="665.8" y2="537.8" gradientUnits="userSpaceOnUse">
<stop stop-color="#53CEAD"/>
<stop offset="0.2" stop-color="#00FFBD"/>
<stop offset="0.5" stop-color="#0F4B3C"/>
<stop offset="0.85" stop-color="#CEF2E8"/>
<stop offset="1" stop-color="#CEF2E8"/>
</linearGradient>
<linearGradient id="paint44_linear_38_213" x1="422.4" y1="542.4" x2="477.6" y2="597.6" gradientUnits="userSpaceOnUse">
<stop stop-color="#00FFBD"/>
<stop offset="0.2" stop-color="#00FFBD"/>
<stop offset="0.5" stop-color="#53CEAD"/>
<stop offset="0.85" stop-color="#CEF2E8"/>
<stop offset="1" stop-color="#53CEAD"/>
</linearGradient>
<linearGradient id="paint45_linear_38_213" x1="496" y1="616" x2="417.8" y2="537.8" gradientUnits="userSpaceOnUse">
<stop stop-color="#53CEAD"/>
<stop offset="0.2" stop-color="#00FFBD"/>
<stop offset="0.5" stop-color="#0F4B3C"/>
<stop offset="0.85" stop-color="#CEF2E8"/>
<stop offset="1" stop-color="#CEF2E8"/>
</linearGradient>
<linearGradient id="paint46_linear_38_213" x1="918.4" y1="542.4" x2="973.6" y2="597.6" gradientUnits="userSpaceOnUse">
<stop stop-color="#00FFBD"/>
<stop offset="0.2" stop-color="#00FFBD"/>
<stop offset="0.5" stop-color="#53CEAD"/>
<stop offset="0.85" stop-color="#CEF2E8"/>
<stop offset="1" stop-color="#53CEAD"/>
</linearGradient>
<linearGradient id="paint47_linear_38_213" x1="992" y1="616" x2="913.8" y2="537.8" gradientUnits="userSpaceOnUse">
<stop stop-color="#53CEAD"/>
<stop offset="0.2" stop-color="#00FFBD"/>
<stop offset="0.5" stop-color="#0F4B3C"/>
<stop offset="0.85" stop-color="#CEF2E8"/>
<stop offset="1" stop-color="#CEF2E8"/>
</linearGradient>
</defs>
</svg>
