<svg width="1536" height="1152" viewBox="0 0 1536 1152" fill="none" xmlns="http://www.w3.org/2000/svg">
<rect width="1536" height="1152" fill="#808080"/>
<g clip-path="url(#clip0_3_1403)">
<rect width="595" height="842" transform="translate(173 155)" fill="white"/>
<path d="M667 393.135C667 397.195 663.615 405.314 656.844 417.494C650.074 429.222 639.241 440.499 624.347 451.325C622.09 453.129 615.32 458.768 604.036 468.24C592.752 477.262 578.76 488.99 562.059 503.425C544.908 517.408 526.402 532.745 506.542 549.435C486.682 566.125 466.823 582.815 446.963 599.505C427.103 616.195 408.823 631.758 392.123 646.192C374.971 660.627 360.754 672.806 349.47 682.73C337.734 692.203 330.513 698.067 327.804 700.322C323.742 703.48 321.034 706.186 319.68 708.442C317.875 710.697 316.972 712.727 316.972 714.531C316.972 716.787 318.777 718.365 322.388 719.268C325.548 720.17 328.481 720.621 331.19 720.621C353.306 721.072 378.808 721.523 407.695 721.974C436.582 722.425 1133.5 722.876 1164.19 723.327C1194.88 723.778 1224.22 724.004 1252.2 724.004C1264.39 724.004 1275.67 721.072 1286.05 715.208C1296.44 708.893 1303.21 697.39 1306.37 680.7C1307.72 673.032 1309.3 667.393 1311.11 663.784C1312.91 660.176 1315.39 658.371 1318.55 658.371C1321.26 658.371 1323.07 660.176 1323.97 663.784C1325.32 667.393 1326 672.129 1326 677.993C1326 690.173 1325.55 699.42 1324.65 705.735C1324.19 711.599 1323.74 717.012 1323.29 721.974C1322.84 726.485 1322.61 733.026 1322.61 741.596C1322.61 749.716 1322.84 756.031 1323.29 760.542C1323.74 765.052 1324.19 770.24 1324.65 776.104C1325.55 781.968 1326 790.99 1326 803.169C1326 809.033 1325.32 813.769 1323.97 817.378C1323.07 820.987 1321.26 822.791 1318.55 822.791C1315.39 822.791 1312.91 820.987 1311.11 817.378C1309.3 813.769 1307.49 808.131 1305.69 800.462C1302.08 787.381 1295.53 777.908 1286.05 772.044C1276.12 766.18 1264.16 762.571 1250.17 761.218C1233.02 759.414 1210.45 757.61 1182.47 755.805C1154.03 754.001 455.313 752.422 420.559 751.069C385.353 749.716 349.244 749.039 312.233 749.039C288.311 749.039 271.159 755.354 260.778 767.984C250.397 780.164 242.046 796.177 235.727 816.025C234.825 817.829 233.019 821.889 230.311 828.204C227.152 834.068 223.541 837 219.479 837C215.416 837 212.934 834.97 212.031 830.91C210.677 826.851 210 823.693 210 821.438C210.451 808.356 210.903 797.756 211.354 789.636C211.354 781.517 211.58 774.3 212.031 767.984C212.482 761.669 212.934 754.677 213.385 747.009C213.385 739.341 213.385 729.417 213.385 717.238C213.385 713.178 214.514 710.02 216.77 707.765C219.027 705.51 221.735 703.254 224.895 700.999C227.603 699.194 235.276 693.33 247.914 683.406C260.101 673.032 275.673 660.401 294.63 645.516C313.135 630.179 333.446 613.489 355.563 595.445C377.228 577.402 399.119 559.359 421.236 541.316C442.901 523.272 463.212 506.582 482.169 491.245C500.675 475.909 516.021 463.278 528.207 453.355C540.394 442.98 547.616 436.89 549.873 435.086C551.678 433.281 554.386 430.8 557.997 427.643C561.608 424.034 563.413 420.877 563.413 418.17C563.413 414.11 558.674 411.855 549.196 411.404C542.877 411.404 530.916 411.404 513.313 411.404C495.258 410.953 473.593 410.727 448.317 410.727C422.59 410.276 394.831 410.051 365.041 410.051C335.252 410.051 304.785 410.051 273.642 410.051C264.614 410.502 256.49 415.238 249.268 424.26C242.046 433.281 237.759 441.626 236.404 449.295C235.05 456.963 233.245 463.955 230.988 470.27C228.731 476.585 226.023 479.743 222.864 479.743C220.156 479.743 218.35 476.585 217.447 470.27C216.093 463.955 215.416 457.865 215.416 452.001C215.416 447.491 215.416 443.205 215.416 439.145C215.416 434.635 215.416 430.349 215.416 426.29C215.416 421.779 215.416 417.494 215.416 413.434C215.416 402.608 215.416 394.037 215.416 387.722C214.965 381.407 214.514 374.641 214.062 367.423C213.611 359.755 213.385 349.155 213.385 335.622C213.385 329.758 214.062 325.022 215.416 321.413C216.319 317.804 218.124 316 220.833 316C227.152 316 231.665 323.443 234.373 338.329C237.533 355.019 241.595 366.07 246.56 371.483C251.525 376.896 259.649 380.054 270.933 380.956C273.19 380.956 281.992 381.181 297.338 381.632C312.684 381.632 332.092 381.632 355.563 381.632C379.034 381.632 404.31 381.858 431.391 382.309C458.473 382.309 485.554 382.309 512.636 382.309C539.266 382.309 563.188 382.309 584.401 382.309C595.234 382.309 605.164 382.084 614.191 381.632C622.767 380.73 630.214 380.054 636.533 379.603C642.401 379.152 646.915 378.926 650.074 378.926C657.296 378.926 661.809 380.505 663.615 383.662C665.872 386.369 667 389.526 667 393.135Z" fill="black"/>
</g>
<g clip-path="url(#clip1_3_1403)">
<rect width="595" height="842" transform="translate(768 155)" fill="white"/>
<path d="M667 393.135C667 397.195 663.615 405.314 656.844 417.494C650.074 429.222 639.241 440.499 624.347 451.325C622.09 453.129 615.32 458.768 604.036 468.24C592.752 477.262 578.76 488.99 562.059 503.425C544.908 517.408 526.402 532.745 506.542 549.435C486.682 566.125 466.823 582.815 446.963 599.505C427.103 616.195 408.823 631.758 392.123 646.192C374.971 660.627 360.754 672.806 349.47 682.73C337.734 692.203 330.513 698.067 327.804 700.322C323.742 703.48 321.034 706.186 319.68 708.442C317.875 710.697 316.972 712.727 316.972 714.531C316.972 716.787 318.777 718.365 322.388 719.268C325.548 720.17 328.481 720.621 331.19 720.621C353.306 721.072 378.808 721.523 407.695 721.974C436.582 722.425 1133.5 722.876 1164.19 723.327C1194.88 723.778 1224.22 724.004 1252.2 724.004C1264.39 724.004 1275.67 721.072 1286.05 715.208C1296.44 708.893 1303.21 697.39 1306.37 680.7C1307.72 673.032 1309.3 667.393 1311.11 663.784C1312.91 660.176 1315.39 658.371 1318.55 658.371C1321.26 658.371 1323.07 660.176 1323.97 663.784C1325.32 667.393 1326 672.129 1326 677.993C1326 690.173 1325.55 699.42 1324.65 705.735C1324.19 711.599 1323.74 717.012 1323.29 721.974C1322.84 726.485 1322.61 733.026 1322.61 741.596C1322.61 749.716 1322.84 756.031 1323.29 760.542C1323.74 765.052 1324.19 770.24 1324.65 776.104C1325.55 781.968 1326 790.99 1326 803.169C1326 809.033 1325.32 813.769 1323.97 817.378C1323.07 820.987 1321.26 822.791 1318.55 822.791C1315.39 822.791 1312.91 820.987 1311.11 817.378C1309.3 813.769 1307.49 808.131 1305.69 800.462C1302.08 787.381 1295.53 777.908 1286.05 772.044C1276.12 766.18 1264.16 762.571 1250.17 761.218C1233.02 759.414 1210.45 757.61 1182.47 755.805C1154.03 754.001 455.313 752.422 420.559 751.069C385.353 749.716 349.244 749.039 312.233 749.039C288.311 749.039 271.159 755.354 260.778 767.984C250.397 780.164 242.046 796.177 235.727 816.025C234.825 817.829 233.019 821.889 230.311 828.204C227.152 834.068 223.541 837 219.479 837C215.416 837 212.934 834.97 212.031 830.91C210.677 826.851 210 823.693 210 821.438C210.451 808.356 210.903 797.756 211.354 789.636C211.354 781.517 211.58 774.3 212.031 767.984C212.482 761.669 212.934 754.677 213.385 747.009C213.385 739.341 213.385 729.417 213.385 717.238C213.385 713.178 214.514 710.02 216.77 707.765C219.027 705.51 221.735 703.254 224.895 700.999C227.603 699.194 235.276 693.33 247.914 683.406C260.101 673.032 275.673 660.401 294.63 645.516C313.135 630.179 333.446 613.489 355.563 595.445C377.228 577.402 399.119 559.359 421.236 541.316C442.901 523.272 463.212 506.582 482.169 491.245C500.675 475.909 516.021 463.278 528.207 453.355C540.394 442.98 547.616 436.89 549.873 435.086C551.678 433.281 554.386 430.8 557.997 427.643C561.608 424.034 563.413 420.877 563.413 418.17C563.413 414.11 558.674 411.855 549.196 411.404C542.877 411.404 530.916 411.404 513.313 411.404C495.258 410.953 473.593 410.727 448.317 410.727C422.59 410.276 394.831 410.051 365.041 410.051C335.252 410.051 304.785 410.051 273.642 410.051C264.614 410.502 256.49 415.238 249.268 424.26C242.046 433.281 237.759 441.626 236.404 449.295C235.05 456.963 233.245 463.955 230.988 470.27C228.731 476.585 226.023 479.743 222.864 479.743C220.156 479.743 218.35 476.585 217.447 470.27C216.093 463.955 215.416 457.865 215.416 452.001C215.416 447.491 215.416 443.205 215.416 439.145C215.416 434.635 215.416 430.349 215.416 426.29C215.416 421.779 215.416 417.494 215.416 413.434C215.416 402.608 215.416 394.037 215.416 387.722C214.965 381.407 214.514 374.641 214.062 367.423C213.611 359.755 213.385 349.155 213.385 335.622C213.385 329.758 214.062 325.022 215.416 321.413C216.319 317.804 218.124 316 220.833 316C227.152 316 231.665 323.443 234.373 338.329C237.533 355.019 241.595 366.07 246.56 371.483C251.525 376.896 259.649 380.054 270.933 380.956C273.19 380.956 281.992 381.181 297.338 381.632C312.684 381.632 332.092 381.632 355.563 381.632C379.034 381.632 404.31 381.858 431.391 382.309C458.473 382.309 485.554 382.309 512.636 382.309C539.266 382.309 563.188 382.309 584.401 382.309C595.234 382.309 605.164 382.084 614.191 381.632C622.767 380.73 630.214 380.054 636.533 379.603C642.401 379.152 646.915 378.926 650.074 378.926C657.296 378.926 661.809 380.505 663.615 383.662C665.872 386.369 667 389.526 667 393.135Z" fill="black"/>
</g>
<defs>
<clipPath id="clip0_3_1403">
<rect width="595" height="842" fill="white" transform="translate(173 155)"/>
</clipPath>
<clipPath id="clip1_3_1403">
<rect width="595" height="842" fill="white" transform="translate(768 155)"/>
</clipPath>
</defs>
</svg>
