<svg width="1536" height="1152" viewBox="0 0 1536 1152" fill="none" xmlns="http://www.w3.org/2000/svg">
<rect width="1536" height="1152" fill="#808080"/>
<rect width="595" height="842" transform="translate(173 155)" fill="white"/>
<path d="M636.949 411.642C636.498 402.614 631.762 394.49 622.74 387.268C613.719 380.046 605.374 375.759 597.705 374.404C590.037 373.05 583.045 371.245 576.73 368.988C570.415 366.731 567.257 364.023 567.257 360.864C567.257 358.156 570.415 356.35 576.73 355.447C583.045 354.093 589.135 353.416 594.999 353.416H607.855H620.71H633.566H659.278C665.593 352.965 672.359 352.514 679.577 352.062C687.245 351.611 697.845 351.385 711.378 351.385C717.242 351.385 721.978 352.062 725.587 353.416C729.196 354.319 731 356.124 731 358.833C731 365.152 723.557 369.665 708.671 372.373C691.981 375.533 680.93 379.595 675.517 384.56C670.104 389.525 666.946 397.649 666.044 408.933C658.616 415.234 636.949 421.382 636.949 411.642Z" fill="black"/>
<path d="M331.792 756.93C338.107 767.312 349.61 774.082 366.3 777.241C373.968 778.596 379.607 780.175 383.216 781.981C386.824 783.786 388.629 786.269 388.629 789.428C388.629 792.136 386.824 793.942 383.216 794.844C379.607 796.199 374.871 796.876 369.006 796.876C356.827 796.876 347.58 796.424 341.265 795.521C335.401 795.07 329.988 794.619 325.026 794.167C320.515 793.716 313.974 793.49 305.404 793.49C297.284 793.49 290.969 793.716 286.458 794.167C281.948 794.619 276.76 795.07 270.896 795.521C265.032 796.424 256.01 796.876 243.831 796.876C237.967 796.876 233.231 796.199 229.622 794.844C226.013 793.942 224.209 792.136 224.209 789.428C224.209 786.269 226.013 783.786 229.622 781.981C233.231 780.175 238.869 778.37 246.538 776.564C259.619 772.954 269.092 766.409 274.956 756.93C287.192 742.466 322.633 740.346 331.792 756.93Z" fill="black"/>
<path d="M653.865 805C649.805 805 641.686 801.615 629.506 794.844C617.778 788.074 606.501 777.241 595.675 762.347C559.253 716.867 662.826 684.167 664.691 722.401C664.691 733.234 664.916 743.164 665.368 752.191C666.27 760.767 666.946 768.214 667.397 774.533C667.848 780.401 668.074 784.915 668.074 788.074C668.074 795.296 666.495 799.809 663.338 801.615C660.631 803.872 657.474 805 653.865 805Z" fill="black"/>
<path d="M279.016 398.778C266.836 388.397 250.823 380.046 230.975 373.727C229.171 372.825 225.111 371.019 218.796 368.311C212.932 365.152 210 361.541 210 357.479C210 353.416 212.03 350.934 216.09 350.031C220.149 348.677 223.307 348 225.562 348C238.644 348.451 249.244 348.903 257.364 349.354C265.483 349.354 272.7 349.58 279.016 350.031C285.331 350.482 292.323 350.934 299.991 351.385H329.762C333.822 351.385 336.98 352.514 339.235 354.77C341.49 357.027 343.746 359.735 346.001 362.895C384.638 410.369 307.038 433.81 279.016 398.778Z" fill="black"/>
<rect width="595" height="842" transform="translate(768 155)" fill="white"/>
<path d="M928.95 805C922.988 805 918.172 804.312 914.504 802.938C910.834 802.022 909 800.19 909 797.44C909 791.942 916.568 787.82 931.702 785.07C949.128 781.864 961.052 776.596 967.472 769.264C969.665 765.974 1041.97 761.196 1045.21 767.204C1051.63 775.908 1063.32 781.864 1080.29 785.07C1088.09 786.446 1093.82 788.048 1097.49 789.882C1101.16 791.714 1102.99 794.234 1102.99 797.44C1102.99 800.19 1101.16 802.022 1097.49 802.938C1093.82 804.312 1089 805 1083.04 805C1070.66 805 1061.03 804.542 1054.15 803.626C1047.73 802.71 1041.77 802.022 1036.26 801.564C1031.22 800.648 1024.34 800.19 1015.63 800.19C1004.62 800.19 994.76 800.648 986.046 801.564C977.792 802.022 969.306 802.71 960.594 803.626C951.88 804.542 941.332 805 928.95 805Z" fill="black"/>
<path d="M1145.64 550.73C1152.98 545.232 1158.25 538.588 1161.46 530.8C1162.38 528.968 1164.22 526.676 1166.97 523.928C1169.72 520.72 1172.01 519.118 1173.85 519.118C1175.68 519.118 1177.74 520.262 1180.04 522.554C1182.33 524.386 1183.25 526.906 1182.79 530.112C1182.33 537.902 1181.87 544.774 1181.41 550.73C1180.95 556.686 1180.73 562.412 1180.73 567.91C1180.73 574.782 1180.95 581.884 1181.41 589.214C1181.87 596.086 1182.33 604.562 1182.79 614.64C1182.79 617.848 1182.33 620.596 1181.41 622.888C1180.95 625.178 1179.35 626.324 1176.6 626.324C1172.01 626.324 1168.34 624.262 1165.59 620.138C1163.3 616.016 1161.69 612.808 1160.78 610.518C1157.57 599.98 1152.75 592.878 1146.33 589.214C1135.68 581.42 1136.93 556.771 1145.64 550.73Z" fill="black"/>
<path d="M1176.6 351.436C1188.06 349.146 1197.92 348 1206.18 348C1208.47 348 1210.99 348.458 1213.75 349.374C1216.5 350.29 1218.1 351.894 1218.56 354.184C1219.48 359.224 1220.17 366.784 1220.62 376.864C1221.08 386.484 1221.31 395.876 1221.31 405.04C1221.77 414.202 1222 420.386 1222 423.594C1222 433.216 1219.94 438.026 1215.81 438.026C1213.52 438.026 1211.45 437.338 1209.62 435.964C1207.78 434.132 1206.41 432.07 1205.49 429.778C1203.66 421.99 1201.36 415.348 1198.61 409.85C1195.86 403.894 1192.88 399.312 1189.67 396.106C1183.25 388.774 1176.14 383.964 1168.34 381.674C1158.44 377.326 1161.4 353.508 1176.6 351.436Z" fill="black"/>
<path d="M935.828 374.114C928.032 372.74 922.3 370.908 918.63 368.616C914.962 366.326 913.128 363.576 913.128 360.37C913.128 357.622 914.962 355.788 918.63 354.872C922.3 353.498 927.116 352.81 933.076 352.81C950.046 352.81 964.262 353.04 975.728 353.498C990.824 354.252 959.045 381.7 935.828 374.114Z" fill="black"/>
</svg>
