<svg width="1536" height="1152" viewBox="0 0 1536 1152" fill="none" xmlns="http://www.w3.org/2000/svg">
<rect width="1536" height="1152" fill="#808080"/>
<rect width="595" height="842" transform="translate(768 155)" fill="white"/>
<path d="M917.975 575.5C914.994 575.5 912.586 575.156 910.752 574.469C908.917 574.011 908 573.095 908 571.72C908 568.971 911.784 566.91 919.351 565.535C928.064 563.932 934.026 561.298 937.236 557.632C940.676 553.967 942.396 547.897 942.396 539.421V394.418C942.396 384.11 941.02 376.207 938.268 370.709C935.746 365.211 930.128 361.661 921.414 360.057C917.516 359.37 914.65 358.454 912.815 357.308C910.981 356.163 910.064 354.788 910.064 353.185C910.064 351.811 910.981 350.894 912.815 350.436C914.65 349.749 917.058 349.405 920.038 349.405C928.523 349.405 935.631 349.52 941.364 349.749C947.326 349.978 953.173 350.207 958.905 350.436C964.638 350.436 971.403 350.436 979.199 350.436C985.849 350.436 992.957 350.436 1000.52 350.436C1008.09 350.436 1015.43 350.436 1022.54 350.436C1029.87 350.436 1036.3 349.863 1041.8 348.718C1047.53 347.573 1052.46 347 1056.59 347C1057.74 347 1059 347.229 1060.37 347.687C1061.75 348.145 1062.55 348.947 1062.78 350.092C1063.24 352.612 1063.58 356.392 1063.81 361.432C1064.04 366.242 1064.16 370.938 1064.16 375.52C1064.39 380.101 1064.5 383.193 1064.5 384.797C1064.5 389.608 1063.47 392.013 1061.4 392.013C1060.26 392.013 1059.23 391.669 1058.31 390.982C1057.39 390.066 1056.7 389.035 1056.24 387.889C1055.33 383.995 1054.18 380.674 1052.81 377.925C1051.43 374.947 1049.94 372.656 1048.33 371.053C1045.12 367.387 1041.57 364.982 1037.67 363.837C1033.77 362.462 1029.65 361.775 1025.29 361.775H981.607C976.333 361.775 973.122 363.493 971.976 366.929C970.829 370.365 970.141 374.374 969.912 378.956C969.683 383.308 969.568 388.691 969.568 395.105C969.568 401.29 969.568 407.361 969.568 413.317C969.568 419.043 969.568 424.885 969.568 430.841C969.568 436.796 969.683 441.836 969.912 445.959C969.912 447.792 970.027 449.51 970.256 451.114C970.715 452.717 971.747 453.519 973.352 453.519C980.689 453.519 988.142 453.404 995.709 453.175C1003.28 452.717 1009.12 452.488 1013.25 452.488C1018.3 452.488 1022.65 451.114 1026.32 448.365C1029.99 445.616 1032.63 442.294 1034.23 438.4C1034.69 437.484 1035.61 436.338 1036.98 434.964C1038.36 433.36 1039.51 432.559 1040.42 432.559C1041.34 432.559 1042.37 433.131 1043.52 434.277C1044.67 435.193 1045.12 436.453 1044.89 438.056C1044.66 441.951 1044.44 445.387 1044.21 448.365C1043.98 451.343 1043.86 454.206 1043.86 456.955C1043.86 460.391 1043.98 463.942 1044.21 467.607C1044.44 471.043 1044.66 475.281 1044.89 480.32C1044.89 481.924 1044.66 483.298 1044.21 484.444C1043.98 485.589 1043.18 486.162 1041.8 486.162C1039.51 486.162 1037.67 485.131 1036.3 483.069C1035.15 481.008 1034.35 479.404 1033.89 478.259C1032.28 472.99 1029.88 469.439 1026.67 467.607C1023.46 465.545 1020.47 464.514 1017.72 464.514C1014.74 464.514 1011.76 464.514 1008.78 464.514C1006.03 464.285 1003.28 464.171 1000.52 464.171C996.626 464.171 992.842 464.171 989.174 464.171C985.505 464.171 981.836 464.4 978.167 464.858C975.874 465.087 973.925 465.889 972.32 467.263C970.715 468.409 969.912 470.47 969.912 473.448C969.912 483.985 969.912 494.752 969.912 505.747C970.141 516.514 970.485 527.624 970.944 539.077C971.403 546.408 973.122 552.249 976.103 556.602C979.314 560.954 985.161 563.932 993.645 565.535C997.543 566.223 1000.41 567.024 1002.24 567.941C1004.08 568.857 1005 570.117 1005 571.72C1005 573.095 1004.08 574.011 1002.24 574.469C1000.41 575.156 998.002 575.5 995.021 575.5C988.83 575.5 984.014 575.271 980.575 574.813C977.364 574.355 974.384 574.011 971.632 573.782C969.11 573.324 965.67 573.095 961.313 573.095C955.81 573.095 950.88 573.324 946.523 573.782C942.396 574.011 938.153 574.355 933.797 574.813C929.44 575.271 924.166 575.5 917.975 575.5Z" fill="black"/>
<path d="M1190.42 698.974C1196.67 698.974 1201.73 693.908 1201.73 687.659C1201.73 681.41 1196.67 676.344 1190.42 676.344C1184.17 676.344 1179.1 681.41 1179.1 687.659C1179.1 693.908 1184.17 698.974 1190.42 698.974Z" fill="black"/>
<path d="M1114.96 802.745C1124.27 802.745 1131.82 795.199 1131.82 785.889C1131.82 776.58 1124.27 769.033 1114.96 769.033C1105.65 769.033 1098.1 776.58 1098.1 785.889C1098.1 795.199 1105.65 802.745 1114.96 802.745Z" fill="black"/>
<path d="M1210.01 600.038C1216.37 600.038 1221.53 594.881 1221.53 588.519C1221.53 582.157 1216.37 577 1210.01 577C1203.65 577 1198.49 582.157 1198.49 588.519C1198.49 594.881 1203.65 600.038 1210.01 600.038Z" fill="black"/>
<path d="M1070.79 585.881C1072.33 585.881 1073.58 584.632 1073.58 583.09C1073.58 581.548 1072.33 580.298 1070.79 580.298C1069.25 580.298 1068 581.548 1068 583.09C1068 584.632 1069.25 585.881 1070.79 585.881Z" fill="black"/>
<path d="M1074.98 575.5C1071.99 575.5 1069.59 575.156 1067.75 574.469C1065.92 574.011 1065 573.095 1065 571.72C1065 568.971 1068.78 566.91 1076.35 565.535C1085.06 563.932 1091.03 561.298 1094.24 557.632C1097.68 553.967 1099.4 547.897 1099.4 539.421C1099.49 523.427 1127.27 522.654 1127.94 539.077C1128.4 546.408 1130.12 552.249 1133.1 556.602C1136.31 560.954 1142.16 563.932 1150.65 565.535C1154.54 566.223 1157.41 567.024 1159.24 567.941C1161.08 568.857 1162 570.117 1162 571.72C1162 573.095 1161.08 574.011 1159.24 574.469C1157.41 575.156 1155 575.5 1152.02 575.5C1145.83 575.5 1141.01 575.271 1137.57 574.813C1134.36 574.355 1131.38 574.011 1128.63 573.782C1126.11 573.324 1122.67 573.095 1118.31 573.095C1112.81 573.095 1107.88 573.324 1103.52 573.782C1099.4 574.011 1095.15 574.355 1090.8 574.813C1086.44 575.271 1081.17 575.5 1074.98 575.5Z" fill="black"/>
<path d="M1152.71 453.175C1160.28 452.717 1166.12 452.488 1170.25 452.488C1175.3 452.488 1179.65 451.114 1183.32 448.365C1186.99 445.616 1189.63 442.294 1191.23 438.4C1191.69 437.484 1192.61 436.338 1193.98 434.964C1195.36 433.36 1196.51 432.559 1197.42 432.559C1198.34 432.559 1199.37 433.131 1200.52 434.277C1201.67 435.193 1202.12 436.453 1201.89 438.056C1201.66 441.951 1201.44 445.387 1201.21 448.365C1200.98 451.343 1200.86 454.206 1200.86 456.955C1200.86 460.391 1200.98 463.942 1201.21 467.607C1201.44 471.043 1201.66 475.281 1201.89 480.32C1201.89 481.924 1201.67 483.298 1201.21 484.444C1200.98 485.589 1200.18 486.162 1198.8 486.162C1196.51 486.162 1194.67 485.131 1193.3 483.069C1192.15 481.008 1191.35 479.404 1190.89 478.259C1189.28 472.99 1186.88 469.439 1183.67 467.607C1180.46 465.545 1177.47 464.514 1174.72 464.514H1165.78C1163.03 464.285 1160.28 464.171 1157.52 464.171C1148.29 464.565 1145.24 456.989 1152.71 453.175Z" fill="black"/>
<path d="M1095.27 370.709C1092.75 365.211 1087.13 361.661 1078.41 360.057C1074.52 359.37 1071.65 358.454 1069.81 357.308C1067.98 356.163 1067.06 354.788 1067.06 353.185C1067.06 351.811 1067.98 350.894 1069.81 350.436C1071.65 349.749 1074.06 349.405 1077.04 349.405C1085.52 349.405 1092.63 349.52 1098.36 349.749C1104.33 349.978 1110.17 350.207 1115.9 350.436H1136.2H1157.52H1179.54C1186.87 350.436 1193.3 349.863 1198.8 348.718C1204.53 347.573 1209.46 347 1213.59 347C1214.74 347 1216 347.229 1217.37 347.687C1218.75 348.145 1219.55 348.947 1219.78 350.092C1220.24 352.612 1220.58 356.392 1220.81 361.432C1221.04 366.242 1221.16 370.938 1221.16 375.52C1221.38 380.101 1221.5 383.193 1221.5 384.797C1221.5 389.608 1220.47 392.013 1218.4 392.013C1217.26 392.013 1216.23 391.669 1215.31 390.982C1214.39 390.066 1213.7 389.035 1213.24 387.889C1212.33 383.995 1211.18 380.674 1209.81 377.925C1208.43 374.947 1206.94 372.656 1205.33 371.053C1202.12 367.387 1198.57 364.982 1194.67 363.837C1190.77 362.462 1186.65 361.775 1182.29 361.775H1138.61C1133.33 361.775 1130.12 363.493 1128.98 366.929C1125.07 388.725 1099.61 382.997 1095.27 370.709Z" fill="black"/>
<path d="M918.975 805.5C915.994 805.5 913.586 805.156 911.752 804.469C909.917 804.011 909 803.095 909 801.72C909 798.971 912.784 796.91 920.351 795.535C929.064 793.932 935.026 791.298 938.236 787.632C939.332 785.987 975.483 783.598 977.103 786.602C980.314 790.954 986.161 793.932 994.645 795.535C998.543 796.223 1001.41 797.024 1003.24 797.941C1005.08 798.857 1006 800.117 1006 801.72C1006 803.095 1005.08 804.011 1003.24 804.469C1001.41 805.156 999.002 805.5 996.021 805.5C989.83 805.5 985.014 805.271 981.575 804.813C978.364 804.355 975.384 804.011 972.632 803.782C970.11 803.324 966.67 803.095 962.313 803.095C956.81 803.095 951.88 803.324 947.523 803.782C943.396 804.011 939.153 804.355 934.797 804.813C930.44 805.271 925.166 805.5 918.975 805.5Z" fill="black"/>
<path d="M1027.32 678.365C1030.99 675.616 1033.63 672.294 1035.23 668.4C1035.69 667.484 1036.61 666.338 1037.98 664.964C1039.36 663.36 1040.51 662.559 1041.42 662.559C1042.34 662.559 1043.37 663.131 1044.52 664.277C1045.67 665.193 1046.12 666.453 1045.9 668.056C1045.67 671.951 1045.44 675.387 1045.21 678.365C1044.98 681.343 1044.86 684.206 1044.86 686.955C1044.86 690.391 1044.98 693.942 1045.21 697.607C1045.44 701.043 1045.67 705.281 1045.9 710.32C1045.9 711.924 1045.67 713.298 1045.21 714.444C1044.98 715.589 1044.18 716.162 1042.8 716.162C1040.51 716.162 1038.67 715.131 1037.3 713.069C1036.15 711.008 1035.35 709.404 1034.89 708.259C1033.28 702.99 1030.88 699.439 1027.67 697.607C1022.34 693.71 1022.97 681.386 1027.32 678.365Z" fill="black"/>
<path d="M1042.8 578.718C1048.53 577.573 1053.46 577 1057.59 577C1058.74 577 1060 577.229 1061.37 577.687C1062.75 578.145 1063.55 578.947 1063.78 580.092C1064.24 582.612 1064.58 586.392 1064.81 591.432C1065.04 596.242 1065.16 600.938 1065.16 605.52C1065.39 610.101 1065.5 613.193 1065.5 614.797C1065.5 619.608 1064.47 622.013 1062.4 622.013C1061.26 622.013 1060.23 621.669 1059.31 620.982C1058.39 620.066 1057.7 619.035 1057.24 617.889C1056.33 613.995 1055.18 610.674 1053.81 607.925C1052.43 604.947 1050.94 602.656 1049.33 601.053C1046.12 597.387 1042.57 594.982 1038.67 593.837C1033.72 591.663 1035.2 579.754 1042.8 578.718Z" fill="black"/>
<path d="M922.414 590.057C918.516 589.37 915.65 588.454 913.815 587.308C911.981 586.163 911.064 584.788 911.064 583.185C911.064 581.811 911.981 580.894 913.815 580.436C915.65 579.749 918.058 579.405 921.038 579.405C929.523 579.405 936.631 579.52 942.364 579.749C949.912 580.126 934.022 593.85 922.414 590.057Z" fill="black"/>
<rect width="595" height="842" transform="translate(173 155)" fill="white"/>
<path d="M431.932 576.5C429.903 576.5 425.843 574.807 419.753 571.422C413.889 568.037 408.251 562.621 402.838 555.173C401.935 554.045 399.116 550.66 394.38 545.018C389.869 539.376 384.005 532.38 376.788 524.03C369.796 515.454 362.127 506.201 353.782 496.271C345.437 486.341 337.092 476.411 328.747 466.481C320.402 456.552 312.621 447.412 305.404 439.061C298.187 430.486 292.097 423.377 287.135 417.735C282.399 411.867 279.467 408.256 278.339 406.902C276.76 404.871 275.407 403.517 274.279 402.84C273.152 401.937 272.137 401.486 271.234 401.486C270.107 401.486 269.317 402.389 268.866 404.194C268.415 405.774 268.19 407.241 268.19 408.595C267.964 419.653 267.739 432.404 267.513 446.847C267.287 461.291 267.062 476.186 266.836 491.532C266.611 506.878 266.498 521.547 266.498 535.539C266.498 541.633 267.964 547.275 270.896 552.465C274.054 557.656 279.805 561.041 288.15 562.621C291.984 563.298 294.803 564.088 296.608 564.99C298.412 565.893 299.314 567.134 299.314 568.714C299.314 570.068 298.412 570.971 296.608 571.422C294.803 572.099 292.435 572.438 289.503 572.438C283.414 572.438 278.79 572.212 275.632 571.761C272.7 571.535 269.994 571.309 267.513 571.084C265.258 570.858 261.987 570.745 257.702 570.745C253.642 570.745 250.485 570.858 248.229 571.084C245.974 571.309 243.38 571.535 240.448 571.761C237.516 572.212 233.005 572.438 226.916 572.438C223.984 572.438 221.615 572.099 219.811 571.422C218.007 570.971 217.105 570.068 217.105 568.714C217.105 567.134 218.007 565.893 219.811 564.99C221.615 564.088 224.435 563.185 228.269 562.282C234.81 560.477 239.546 557.204 242.478 552.465C245.41 547.5 247.214 541.52 247.891 534.524C248.793 525.948 249.695 514.664 250.597 500.672C251.5 486.454 252.289 470.657 252.966 453.279C253.642 435.676 253.981 417.622 253.981 399.116C253.981 387.155 250.823 378.58 244.508 373.389C238.418 368.198 230.411 364.023 220.488 360.864C219.585 360.412 217.556 359.51 214.398 358.156C211.466 356.576 210 354.77 210 352.739C210 350.708 211.015 349.467 213.045 349.016C215.075 348.339 216.653 348 217.781 348C224.322 348.226 229.622 348.451 233.682 348.677C237.742 348.677 241.35 348.79 244.508 349.016C247.665 349.241 251.161 349.467 254.995 349.693C258.83 349.693 263.792 349.693 269.881 349.693C271.911 349.693 273.49 350.257 274.618 351.385C275.745 352.514 276.873 353.868 278.001 355.447C278.903 356.801 281.835 360.638 286.797 366.957C291.984 373.05 298.299 380.836 305.742 390.315C313.411 399.568 321.756 409.723 330.777 420.781C339.799 431.614 348.821 442.56 357.842 453.618C366.864 464.45 375.209 474.606 382.877 484.084C390.546 493.337 396.861 501.01 401.823 507.104C407.01 513.197 410.055 516.808 410.957 517.936C411.859 518.839 413.1 520.193 414.679 521.999C416.483 523.804 418.062 524.707 419.415 524.707C421.445 524.707 422.573 522.337 422.798 517.598C422.798 514.438 422.798 508.458 422.798 499.656C423.024 490.629 423.136 479.797 423.136 467.159C423.362 454.295 423.475 440.416 423.475 425.521C423.475 410.626 423.475 395.393 423.475 379.821C423.249 375.307 420.881 371.245 416.37 367.634C411.859 364.023 407.687 361.879 403.853 361.202C400.018 360.525 396.523 359.622 393.365 358.494C390.207 357.366 388.629 356.012 388.629 354.432C388.629 353.078 390.207 352.175 393.365 351.724C396.523 351.047 399.567 350.708 402.499 350.708C404.755 350.708 406.897 350.708 408.927 350.708C411.183 350.708 413.325 350.708 415.355 350.708C417.611 350.708 419.753 350.708 421.783 350.708C427.196 350.708 431.481 350.708 434.639 350.708C437.797 350.482 441.18 350.257 444.788 350.031C448.623 349.805 453.923 349.693 460.689 349.693C463.621 349.693 465.989 350.031 467.794 350.708C469.598 351.16 470.5 352.062 470.5 353.416C470.5 356.576 466.779 358.833 459.336 360.187C450.991 361.766 445.465 363.798 442.758 366.28C440.052 368.762 438.473 372.825 438.022 378.467C438.022 379.595 437.909 383.996 437.684 391.669C437.684 399.342 437.684 409.046 437.684 420.781C437.684 432.517 437.571 445.155 437.345 458.696C437.345 472.236 437.345 485.777 437.345 499.318C437.345 512.633 437.345 524.594 437.345 535.201C437.345 540.617 437.458 545.582 437.684 550.096C438.135 554.383 438.473 558.107 438.699 561.267C438.924 564.201 439.037 566.457 439.037 568.037C439.037 571.648 438.248 573.905 436.669 574.807C435.316 575.936 433.737 576.5 431.932 576.5Z" fill="black"/>
<path d="M431.932 805.5C429.903 805.5 425.843 803.807 419.753 800.422C413.889 797.037 408.251 791.621 402.838 784.173C401.935 783.045 399.116 779.66 394.38 774.018C389.869 768.376 384.005 761.38 376.788 753.03C369.796 744.454 362.127 735.201 353.782 725.271C345.437 715.341 337.092 705.411 328.747 695.481C320.402 685.552 312.621 676.412 305.404 668.061C298.187 659.486 292.097 652.377 287.135 646.735C282.399 640.867 279.467 637.256 278.339 635.902C276.76 633.871 275.407 632.517 274.279 631.84C273.152 630.937 272.137 630.486 271.234 630.486C270.107 630.486 269.317 631.389 268.866 633.194C268.415 634.774 268.19 636.241 268.19 637.595C267.964 648.653 267.739 661.404 267.513 675.847C267.287 690.291 267.062 705.186 266.836 720.532C266.611 735.878 266.498 750.547 266.498 764.539C266.498 770.633 267.964 776.275 270.896 781.465C274.054 786.656 279.805 790.041 288.15 791.621C291.984 792.298 294.803 793.088 296.608 793.99C298.412 794.893 299.314 796.134 299.314 797.714C299.314 799.068 298.412 799.971 296.608 800.422C294.803 801.099 292.435 801.438 289.503 801.438C283.414 801.438 278.79 801.212 275.632 800.761C272.7 800.535 269.994 800.309 267.513 800.084C265.258 799.858 261.987 799.745 257.702 799.745C253.642 799.745 250.485 799.858 248.229 800.084C245.974 800.309 243.38 800.535 240.448 800.761C237.516 801.212 233.005 801.438 226.916 801.438C223.984 801.438 221.615 801.099 219.811 800.422C218.007 799.971 217.105 799.068 217.105 797.714C217.105 796.134 218.007 794.893 219.811 793.99C221.615 793.088 224.435 792.185 228.269 791.282C234.81 789.477 239.546 786.204 242.478 781.465C245.41 776.5 247.214 770.52 247.891 763.524C248.793 754.948 249.695 743.664 250.597 729.672C251.5 715.454 252.289 699.657 252.966 682.279C253.642 664.676 253.981 646.622 253.981 628.116C253.981 616.155 250.823 607.58 244.508 602.389C238.418 597.198 230.411 593.023 220.488 589.864C219.585 589.412 217.556 588.51 214.398 587.156C211.466 585.576 210 583.77 210 581.739C210 579.708 211.015 578.467 213.045 578.016C215.075 577.339 216.653 577 217.781 577C224.322 577.226 229.622 577.451 233.682 577.677C237.742 577.677 241.35 577.79 244.508 578.016C247.665 578.241 251.161 578.467 254.995 578.693C258.83 578.693 263.792 578.693 269.881 578.693C271.911 578.693 273.49 579.257 274.618 580.385C275.745 581.514 276.873 582.868 278.001 584.447C278.903 585.801 281.835 589.638 286.797 595.957C291.984 602.05 298.299 609.836 305.742 619.315C313.411 628.568 321.756 638.723 330.777 649.781C339.799 660.614 348.821 671.56 357.842 682.618C366.864 693.45 375.209 703.606 382.877 713.084C390.546 722.337 396.861 730.01 401.823 736.104C407.01 742.197 410.055 745.808 410.957 746.936C411.859 747.839 413.1 749.193 414.679 750.999C416.483 752.804 418.062 753.707 419.415 753.707C421.445 753.707 422.573 751.337 422.798 746.598C422.798 743.438 422.798 737.458 422.798 728.656C423.024 719.629 423.136 708.797 423.136 696.159C423.362 683.295 423.475 669.416 423.475 654.521C423.475 639.626 423.475 624.393 423.475 608.821C423.249 604.307 420.881 600.245 416.37 596.634C411.859 593.023 407.687 590.879 403.853 590.202C400.018 589.525 396.523 588.622 393.365 587.494C390.207 586.366 388.629 585.012 388.629 583.432C388.629 582.078 390.207 581.175 393.365 580.724C396.523 580.047 399.567 579.708 402.499 579.708C404.755 579.708 406.897 579.708 408.927 579.708C411.183 579.708 413.325 579.708 415.355 579.708C417.611 579.708 419.753 579.708 421.783 579.708C427.196 579.708 431.481 579.708 434.639 579.708C437.797 579.482 441.18 579.257 444.788 579.031C448.623 578.805 453.923 578.693 460.689 578.693C463.621 578.693 465.989 579.031 467.794 579.708C469.598 580.16 470.5 581.062 470.5 582.416C470.5 585.576 466.779 587.833 459.336 589.187C450.991 590.766 445.465 592.798 442.758 595.28C440.052 597.762 438.473 601.825 438.022 607.467C438.022 608.595 437.909 612.996 437.684 620.669C437.684 628.342 437.684 638.046 437.684 649.781C437.684 661.517 437.571 674.155 437.345 687.696C437.345 701.236 437.345 714.777 437.345 728.318C437.345 741.633 437.345 753.594 437.345 764.201C437.345 769.617 437.458 774.582 437.684 779.096C438.135 783.383 438.473 787.107 438.699 790.267C438.924 793.201 439.037 795.457 439.037 797.037C439.037 800.648 438.248 802.905 436.669 803.807C435.316 804.936 433.737 805.5 431.932 805.5Z" fill="black"/>
<path d="M691.932 576.5C689.903 576.5 685.843 574.807 679.753 571.422C673.889 568.037 668.251 562.621 662.838 555.173C661.935 554.045 659.116 550.66 654.38 545.018C649.869 539.376 644.005 532.38 636.788 524.03C629.796 515.454 622.127 506.201 613.782 496.271C605.437 486.341 597.092 476.411 588.747 466.481C580.402 456.552 572.621 447.412 565.404 439.061C558.187 430.486 552.097 423.377 547.135 417.735C542.399 411.867 539.467 408.256 538.339 406.902C536.76 404.871 535.407 403.517 534.279 402.84C533.152 401.937 532.137 401.486 531.234 401.486C530.107 401.486 529.317 402.389 528.866 404.194C528.415 405.774 528.19 407.241 528.19 408.595C527.964 419.653 527.739 432.404 527.513 446.847C527.287 461.291 527.062 476.186 526.836 491.532C526.611 506.878 526.498 521.547 526.498 535.539C526.498 541.633 527.964 547.275 530.896 552.465C534.054 557.656 539.805 561.041 548.15 562.621C551.984 563.298 554.803 564.088 556.608 564.99C558.412 565.893 559.314 567.134 559.314 568.714C559.314 570.068 558.412 570.971 556.608 571.422C554.803 572.099 552.435 572.438 549.503 572.438C543.414 572.438 538.79 572.212 535.632 571.761C532.7 571.535 529.994 571.309 527.513 571.084C525.258 570.858 521.987 570.745 517.702 570.745C513.642 570.745 510.485 570.858 508.229 571.084C505.974 571.309 503.38 571.535 500.448 571.761C497.516 572.212 493.005 572.438 486.916 572.438C483.984 572.438 481.615 572.099 479.811 571.422C478.007 570.971 477.105 570.068 477.105 568.714C477.105 567.134 478.007 565.893 479.811 564.99C481.615 564.088 484.435 563.185 488.269 562.282C494.81 560.477 499.546 557.204 502.478 552.465C505.41 547.5 507.214 541.52 507.891 534.524C508.793 525.948 509.695 514.664 510.597 500.672C511.5 486.454 512.289 470.657 512.966 453.279C513.642 435.676 513.981 417.622 513.981 399.116C513.981 387.155 510.823 378.58 504.508 373.389C498.418 368.198 490.411 364.023 480.488 360.864C479.585 360.412 477.556 359.51 474.398 358.156C471.466 356.576 470 354.77 470 352.739C470 350.708 471.015 349.467 473.045 349.016C475.075 348.339 476.653 348 477.781 348C484.322 348.226 489.622 348.451 493.682 348.677C497.742 348.677 501.35 348.79 504.508 349.016C507.665 349.241 511.161 349.467 514.995 349.693C518.83 349.693 523.792 349.693 529.881 349.693C531.911 349.693 533.49 350.257 534.618 351.385C535.745 352.514 536.873 353.868 538.001 355.447C538.903 356.801 541.835 360.638 546.797 366.957C551.984 373.05 558.299 380.836 565.742 390.315C573.411 399.568 581.756 409.723 590.777 420.781C599.799 431.614 608.821 442.56 617.842 453.618C626.864 464.45 635.209 474.606 642.877 484.084C650.546 493.337 656.861 501.01 661.823 507.104C667.01 513.197 670.055 516.808 670.957 517.936C671.859 518.839 673.1 520.193 674.679 521.999C676.483 523.804 678.062 524.707 679.415 524.707C681.445 524.707 682.573 522.337 682.798 517.598C682.798 514.438 682.798 508.458 682.798 499.656C683.024 490.629 683.136 479.797 683.136 467.159C683.362 454.295 683.475 440.416 683.475 425.521C683.475 410.626 683.475 395.393 683.475 379.821C683.249 375.307 680.881 371.245 676.37 367.634C671.859 364.023 667.687 361.879 663.853 361.202C660.018 360.525 656.523 359.622 653.365 358.494C650.207 357.366 648.629 356.012 648.629 354.432C648.629 353.078 650.207 352.175 653.365 351.724C656.523 351.047 659.567 350.708 662.499 350.708C664.755 350.708 666.897 350.708 668.927 350.708C671.183 350.708 673.325 350.708 675.355 350.708C677.611 350.708 679.753 350.708 681.783 350.708C687.196 350.708 691.481 350.708 694.639 350.708C697.797 350.482 701.18 350.257 704.788 350.031C708.623 349.805 713.923 349.693 720.689 349.693C723.621 349.693 725.989 350.031 727.794 350.708C729.598 351.16 730.5 352.062 730.5 353.416C730.5 356.576 726.779 358.833 719.336 360.187C710.991 361.766 705.465 363.798 702.758 366.28C700.052 368.762 698.473 372.825 698.022 378.467C698.022 379.595 697.909 383.996 697.684 391.669C697.684 399.342 697.684 409.046 697.684 420.781C697.684 432.517 697.571 445.155 697.345 458.696C697.345 472.236 697.345 485.777 697.345 499.318C697.345 512.633 697.345 524.594 697.345 535.201C697.345 540.617 697.458 545.582 697.684 550.096C698.135 554.383 698.473 558.107 698.699 561.267C698.924 564.201 699.037 566.457 699.037 568.037C699.037 571.648 698.248 573.905 696.669 574.807C695.316 575.936 693.737 576.5 691.932 576.5Z" fill="black"/>
<path d="M691.932 805.5C689.903 805.5 685.843 803.807 679.753 800.422C673.889 797.037 668.251 791.621 662.838 784.173C661.935 783.045 659.116 779.66 654.38 774.018C649.869 768.376 644.005 761.38 636.788 753.03C629.796 744.454 622.127 735.201 613.782 725.271C605.437 715.341 597.092 705.411 588.747 695.481C580.402 685.552 572.621 676.412 565.404 668.061C558.187 659.486 552.097 652.377 547.135 646.735C542.399 640.867 539.467 637.256 538.339 635.902C536.76 633.871 535.407 632.517 534.279 631.84C533.152 630.937 532.137 630.486 531.234 630.486C530.107 630.486 529.317 631.389 528.866 633.194C528.415 634.774 528.19 636.241 528.19 637.595C527.964 648.653 527.739 661.404 527.513 675.847C527.287 690.291 527.062 705.186 526.836 720.532C526.611 735.878 526.498 750.547 526.498 764.539C526.498 770.633 527.964 776.275 530.896 781.465C534.054 786.656 539.805 790.041 548.15 791.621C551.984 792.298 554.803 793.088 556.608 793.99C558.412 794.893 559.314 796.134 559.314 797.714C559.314 799.068 558.412 799.971 556.608 800.422C554.803 801.099 552.435 801.438 549.503 801.438C543.414 801.438 538.79 801.212 535.632 800.761C532.7 800.535 529.994 800.309 527.513 800.084C525.258 799.858 521.987 799.745 517.702 799.745C513.642 799.745 510.485 799.858 508.229 800.084C505.974 800.309 503.38 800.535 500.448 800.761C497.516 801.212 493.005 801.438 486.916 801.438C483.984 801.438 481.615 801.099 479.811 800.422C478.007 799.971 477.105 799.068 477.105 797.714C477.105 796.134 478.007 794.893 479.811 793.99C481.615 793.088 484.435 792.185 488.269 791.282C494.81 789.477 499.546 786.204 502.478 781.465C505.41 776.5 507.214 770.52 507.891 763.524C508.793 754.948 509.695 743.664 510.597 729.672C511.5 715.454 512.289 699.657 512.966 682.279C513.642 664.676 513.981 646.622 513.981 628.116C513.981 616.155 510.823 607.58 504.508 602.389C498.418 597.198 490.411 593.023 480.488 589.864C479.585 589.412 477.556 588.51 474.398 587.156C471.466 585.576 470 583.77 470 581.739C470 579.708 471.015 578.467 473.045 578.016C475.075 577.339 476.653 577 477.781 577C484.322 577.226 489.622 577.451 493.682 577.677C497.742 577.677 501.35 577.79 504.508 578.016C507.665 578.241 511.161 578.467 514.995 578.693C518.83 578.693 523.792 578.693 529.881 578.693C531.911 578.693 533.49 579.257 534.618 580.385C535.745 581.514 536.873 582.868 538.001 584.447C538.903 585.801 541.835 589.638 546.797 595.957C551.984 602.05 558.299 609.836 565.742 619.315C573.411 628.568 581.756 638.723 590.777 649.781C599.799 660.614 608.821 671.56 617.842 682.618C626.864 693.45 635.209 703.606 642.877 713.084C650.546 722.337 656.861 730.01 661.823 736.104C667.01 742.197 670.055 745.808 670.957 746.936C671.859 747.839 673.1 749.193 674.679 750.999C676.483 752.804 678.062 753.707 679.415 753.707C681.445 753.707 682.573 751.337 682.798 746.598C682.798 743.438 682.798 737.458 682.798 728.656C683.024 719.629 683.136 708.797 683.136 696.159C683.362 683.295 683.475 669.416 683.475 654.521C683.475 639.626 683.475 624.393 683.475 608.821C683.249 604.307 680.881 600.245 676.37 596.634C671.859 593.023 667.687 590.879 663.853 590.202C660.018 589.525 656.523 588.622 653.365 587.494C650.207 586.366 648.629 585.012 648.629 583.432C648.629 582.078 650.207 581.175 653.365 580.724C656.523 580.047 659.567 579.708 662.499 579.708C664.755 579.708 666.897 579.708 668.927 579.708C671.183 579.708 673.325 579.708 675.355 579.708C677.611 579.708 679.753 579.708 681.783 579.708C687.196 579.708 691.481 579.708 694.639 579.708C697.797 579.482 701.18 579.257 704.788 579.031C708.623 578.805 713.923 578.693 720.689 578.693C723.621 578.693 725.989 579.031 727.794 579.708C729.598 580.16 730.5 581.062 730.5 582.416C730.5 585.576 726.779 587.833 719.336 589.187C710.991 590.766 705.465 592.798 702.758 595.28C700.052 597.762 698.473 601.825 698.022 607.467C698.022 608.595 697.909 612.996 697.684 620.669C697.684 628.342 697.684 638.046 697.684 649.781C697.684 661.517 697.571 674.155 697.345 687.696C697.345 701.236 697.345 714.777 697.345 728.318C697.345 741.633 697.345 753.594 697.345 764.201C697.345 769.617 697.458 774.582 697.684 779.096C698.135 783.383 698.473 787.107 698.699 790.267C698.924 793.201 699.037 795.457 699.037 797.037C699.037 800.648 698.248 802.905 696.669 803.807C695.316 804.936 693.737 805.5 691.932 805.5Z" fill="black"/>
</svg>
