<svg width="1536" height="1152" viewBox="0 0 1536 1152" fill="none" xmlns="http://www.w3.org/2000/svg">
<rect width="1536" height="1152" fill="#808080"/>
<rect width="595" height="842" transform="translate(173 155)" fill="white"/>
<rect width="595" height="842" transform="translate(768 155)" fill="white"/>
<path d="M816.055 483.514C815.825 483.514 815.539 483.714 815.195 484.115C814.851 484.459 814.622 484.746 814.508 484.975C814.106 485.948 813.447 486.778 812.529 487.465C811.612 488.152 810.523 488.496 809.262 488.496C808.294 488.496 806.913 488.552 805.188 488.652V491.418H806.08C806.768 491.418 807.457 491.447 808.145 491.504H810.379C811.067 491.504 811.813 491.76 812.615 492.275C813.418 492.734 814.02 493.622 814.422 494.939C814.536 495.226 814.737 495.627 815.023 496.143C815.367 496.658 815.825 496.916 816.398 496.916C816.742 496.916 816.943 496.772 817 496.486C817.115 496.2 817.172 495.856 817.172 495.455C817.115 494.195 817.057 493.134 817 492.275C816.943 491.359 816.914 490.472 816.914 489.613C816.914 488.926 816.943 488.209 817 487.465C817.057 486.72 817.115 485.862 817.172 484.889C817.229 484.488 817.115 484.172 816.828 483.943C816.542 483.657 816.284 483.514 816.055 483.514Z" fill="black"/>
<path d="M1089.93 483.404C1089.7 483.404 1089.41 483.604 1089.07 484.005C1088.73 484.349 1088.5 484.635 1088.38 484.864C1087.98 485.837 1087.32 486.668 1086.4 487.355C1085.49 488.042 1084.4 488.386 1083.14 488.386C1082.11 488.386 1080.64 488.444 1078.75 488.558C1077.96 488.582 1077.17 488.598 1076.39 488.612V491.33C1076.63 491.322 1076.87 491.307 1077.12 491.307H1079.96C1080.64 491.307 1081.33 491.336 1082.02 491.393H1084.25C1084.94 491.393 1085.69 491.651 1086.49 492.166C1087.29 492.624 1087.89 493.512 1088.3 494.829C1088.41 495.115 1088.61 495.516 1088.9 496.032C1089.24 496.547 1089.7 496.804 1090.27 496.804C1090.62 496.804 1090.82 496.662 1090.88 496.376C1090.99 496.089 1091.05 495.745 1091.05 495.344C1090.99 494.084 1090.93 493.025 1090.88 492.166C1090.82 491.25 1090.79 490.361 1090.79 489.502C1090.79 488.815 1090.82 488.1 1090.88 487.355C1090.93 486.611 1090.99 485.751 1091.05 484.778C1091.11 484.377 1090.99 484.063 1090.7 483.834C1090.42 483.548 1090.16 483.404 1089.93 483.404Z" fill="black"/>
<path d="M948.048 555.373V567.106C948.048 569.224 947.618 570.742 946.758 571.658C945.956 572.574 944.465 573.233 942.287 573.634C940.395 573.978 939.45 574.493 939.45 575.18C939.45 575.524 939.679 575.753 940.137 575.868C940.596 576.039 941.198 576.125 941.943 576.125C943.491 576.125 944.81 576.067 945.899 575.953C946.988 575.838 948.049 575.753 949.081 575.696C950.169 575.581 951.402 575.524 952.778 575.524C953.867 575.524 954.727 575.581 955.358 575.696C956.046 575.753 956.791 575.838 957.593 575.953C958.453 576.067 959.657 576.125 961.205 576.125C961.95 576.125 962.552 576.039 963.01 575.868C963.469 575.753 963.699 575.524 963.699 575.18C963.699 574.779 963.469 574.464 963.01 574.235C962.552 574.006 961.835 573.806 960.861 573.634C958.739 573.233 957.278 572.489 956.475 571.401C955.73 570.313 955.299 568.853 955.185 567.02C955.07 564.157 954.985 561.379 954.927 558.687V555.373H948.048Z" fill="black"/>
<path d="M1050.8 483.404C1050.58 483.404 1050.29 483.604 1049.95 484.005C1049.6 484.349 1049.37 484.635 1049.26 484.864C1048.86 485.837 1048.2 486.668 1047.28 487.355C1046.36 488.042 1045.27 488.386 1044.01 488.386C1042.98 488.386 1041.52 488.444 1039.63 488.558C1038.83 488.582 1038.05 488.598 1037.26 488.612V491.33C1037.51 491.322 1037.75 491.307 1037.99 491.307H1040.83C1041.52 491.307 1042.21 491.336 1042.89 491.393H1045.13C1045.82 491.393 1046.56 491.651 1047.37 492.166C1048.17 492.624 1048.77 493.512 1049.17 494.829C1049.29 495.115 1049.49 495.516 1049.77 496.032C1050.12 496.547 1050.58 496.804 1051.15 496.804C1051.49 496.804 1051.69 496.662 1051.75 496.376C1051.87 496.089 1051.92 495.745 1051.92 495.344C1051.87 494.084 1051.81 493.025 1051.75 492.166C1051.69 491.25 1051.67 490.361 1051.67 489.502C1051.67 488.815 1051.69 488.1 1051.75 487.355C1051.81 486.611 1051.87 485.751 1051.92 484.778C1051.98 484.377 1051.87 484.063 1051.58 483.834C1051.29 483.548 1051.03 483.404 1050.8 483.404Z" fill="black"/>
<path d="M1011.68 483.404C1011.45 483.404 1011.16 483.604 1010.82 484.005C1010.48 484.349 1010.25 484.635 1010.13 484.864C1009.73 485.837 1009.07 486.668 1008.15 487.355C1007.24 488.042 1006.15 488.386 1004.89 488.386C1003.86 488.386 1002.39 488.444 1000.5 488.558C999.707 488.582 998.921 488.598 998.137 488.612V491.33C998.38 491.322 998.623 491.307 998.867 491.307H1001.71C1002.39 491.307 1003.08 491.336 1003.77 491.393H1006C1006.69 491.393 1007.44 491.651 1008.24 492.166C1009.04 492.624 1009.64 493.512 1010.05 494.829C1010.16 495.115 1010.36 495.516 1010.65 496.032C1010.99 496.547 1011.45 496.804 1012.02 496.804C1012.37 496.804 1012.57 496.662 1012.63 496.376C1012.74 496.089 1012.8 495.745 1012.8 495.344C1012.74 494.084 1012.68 493.025 1012.63 492.166C1012.57 491.25 1012.54 490.361 1012.54 489.502C1012.54 488.815 1012.57 488.1 1012.63 487.355C1012.68 486.611 1012.74 485.751 1012.8 484.778C1012.86 484.377 1012.74 484.063 1012.45 483.834C1012.17 483.548 1011.91 483.404 1011.68 483.404Z" fill="black"/>
<path d="M972.555 483.404C972.325 483.404 972.039 483.604 971.695 484.005C971.351 484.349 971.121 484.635 971.007 484.864C970.605 485.837 969.947 486.668 969.029 487.355C968.112 488.042 967.023 488.386 965.762 488.386C964.73 488.386 963.268 488.444 961.376 488.558C960.582 488.582 959.796 488.598 959.012 488.612V491.33C959.255 491.322 959.498 491.307 959.742 491.307H962.58C963.268 491.307 963.956 491.336 964.644 491.393H966.88C967.568 491.393 968.313 491.651 969.115 492.166C969.918 492.624 970.519 493.512 970.921 494.829C971.035 495.115 971.237 495.516 971.523 496.032C971.867 496.547 972.325 496.804 972.898 496.804C973.242 496.804 973.444 496.662 973.501 496.376C973.616 496.089 973.673 495.745 973.673 495.344C973.616 494.084 973.558 493.025 973.501 492.166C973.444 491.25 973.415 490.361 973.415 489.502C973.415 488.815 973.444 488.1 973.501 487.355C973.558 486.611 973.616 485.751 973.673 484.778C973.73 484.377 973.616 484.063 973.329 483.834C973.043 483.548 972.784 483.404 972.555 483.404Z" fill="black"/>
<path d="M933.43 483.404C933.2 483.404 932.914 483.604 932.57 484.005C932.226 484.349 931.996 484.635 931.882 484.864C931.48 485.837 930.822 486.668 929.904 487.355C928.987 488.042 927.898 488.386 926.637 488.386C925.605 488.386 924.143 488.444 922.251 488.558C921.457 488.582 920.671 488.598 919.887 488.612V491.33C920.13 491.322 920.373 491.307 920.617 491.307H923.455C924.143 491.307 924.832 491.336 925.52 491.393H927.755C928.443 491.393 929.188 491.651 929.99 492.166C930.793 492.624 931.394 493.512 931.796 494.829C931.91 495.115 932.112 495.516 932.398 496.032C932.742 496.547 933.2 496.804 933.773 496.804C934.117 496.804 934.319 496.662 934.376 496.376C934.491 496.089 934.548 495.745 934.548 495.344C934.491 494.084 934.433 493.025 934.376 492.166C934.319 491.25 934.29 490.361 934.29 489.502C934.29 488.815 934.319 488.1 934.376 487.355C934.433 486.611 934.491 485.751 934.548 484.778C934.605 484.377 934.491 484.063 934.204 483.834C933.918 483.548 933.659 483.404 933.43 483.404Z" fill="black"/>
<path d="M894.305 483.404C894.075 483.404 893.789 483.604 893.445 484.005C893.101 484.349 892.871 484.635 892.757 484.864C892.355 485.837 891.697 486.668 890.779 487.355C889.862 488.042 888.773 488.386 887.512 488.386C886.48 488.386 885.018 488.444 883.126 488.558C882.332 488.582 881.546 488.598 880.762 488.612V491.33C881.005 491.322 881.248 491.307 881.492 491.307H884.33C885.018 491.307 885.707 491.336 886.395 491.393H888.63C889.318 491.393 890.063 491.651 890.865 492.166C891.668 492.624 892.269 493.512 892.671 494.829C892.785 495.115 892.987 495.516 893.273 496.032C893.617 496.547 894.075 496.804 894.648 496.804C894.992 496.804 895.194 496.662 895.251 496.376C895.366 496.089 895.423 495.745 895.423 495.344C895.366 494.084 895.308 493.025 895.251 492.166C895.194 491.25 895.165 490.361 895.165 489.502C895.165 488.815 895.194 488.1 895.251 487.355C895.308 486.611 895.366 485.751 895.423 484.778C895.48 484.377 895.366 484.063 895.079 483.834C894.793 483.548 894.534 483.404 894.305 483.404Z" fill="black"/>
<path d="M1325.54 488.612H805.188V491.33H1325.54V488.612Z" fill="black"/>
<path d="M976.597 348C975.565 348 974.333 348.143 972.899 348.429C971.524 348.716 969.919 348.859 968.085 348.859H962.581H957.249H952.176C950.743 348.802 949.281 348.745 947.791 348.687C946.358 348.63 944.581 348.601 942.46 348.601C941.715 348.601 941.112 348.687 940.654 348.859C940.195 348.973 939.965 349.202 939.965 349.545C939.965 349.946 940.195 350.29 940.654 350.577C941.112 350.863 941.829 351.092 942.803 351.264C944.982 351.665 946.386 352.553 947.016 353.927C947.704 355.301 948.048 357.277 948.048 359.854V368.72H954.841V364.579V360.026C954.841 358.422 954.87 357.077 954.927 355.989C954.985 354.843 955.157 353.841 955.444 352.982C955.73 352.123 956.533 351.694 957.851 351.694H968.772C969.861 351.694 970.893 351.865 971.868 352.209C972.842 352.495 973.73 353.097 974.533 354.013C974.934 354.414 975.307 354.986 975.651 355.731C975.995 356.418 976.282 357.249 976.511 358.222C976.626 358.508 976.798 358.767 977.027 358.996C977.256 359.168 977.514 359.252 977.8 359.252C978.316 359.252 978.575 358.652 978.575 357.449C978.575 357.048 978.546 356.274 978.489 355.129C978.489 353.984 978.46 352.81 978.403 351.608C978.345 350.348 978.259 349.403 978.144 348.773C978.087 348.487 977.887 348.286 977.543 348.171C977.199 348.057 976.884 348 976.597 348Z" fill="black"/>
<path d="M948.048 498.372V510.105C948.048 512.224 947.618 513.741 946.758 514.657C945.956 515.574 944.465 516.233 942.287 516.634C940.395 516.977 939.45 517.493 939.45 518.18C939.45 518.523 939.679 518.753 940.137 518.867C940.596 519.039 941.198 519.125 941.943 519.125C943.491 519.125 944.81 519.067 945.899 518.952C946.988 518.838 948.049 518.753 949.081 518.695C950.169 518.581 951.402 518.523 952.778 518.523C953.867 518.523 954.727 518.581 955.358 518.695C956.046 518.753 956.791 518.838 957.593 518.952C958.453 519.067 959.657 519.125 961.205 519.125C961.95 519.125 962.552 519.039 963.01 518.867C963.469 518.753 963.699 518.523 963.699 518.18C963.699 517.779 963.469 517.463 963.01 517.234C962.552 517.005 961.835 516.805 960.861 516.634C958.739 516.233 957.278 515.488 956.475 514.4C955.73 513.312 955.299 511.852 955.185 510.02C955.07 507.156 954.985 504.378 954.927 501.687V498.372H948.048Z" fill="black"/>
<path d="M954.927 349.342H948.048V803.544H954.927V349.342Z" fill="black"/>
<path d="M948.048 612.373V624.106C948.048 626.225 947.618 627.742 946.758 628.658C945.956 629.575 944.465 630.234 942.287 630.635C940.395 630.978 939.45 631.494 939.45 632.181C939.45 632.524 939.679 632.754 940.137 632.868C940.596 633.04 941.198 633.126 941.943 633.126C943.491 633.126 944.81 633.068 945.899 632.953C946.988 632.839 948.049 632.754 949.081 632.696C950.169 632.582 951.402 632.524 952.778 632.524C953.867 632.524 954.727 632.582 955.358 632.696C956.046 632.754 956.791 632.839 957.593 632.953C958.453 633.068 959.657 633.126 961.205 633.126C961.95 633.126 962.552 633.04 963.01 632.868C963.469 632.754 963.699 632.524 963.699 632.181C963.699 631.78 963.469 631.464 963.01 631.235C962.552 631.006 961.835 630.806 960.861 630.635C958.739 630.234 957.278 629.489 956.475 628.401C955.73 627.313 955.299 625.853 955.185 624.021C955.07 621.157 954.985 618.379 954.927 615.688V612.373H948.048Z" fill="black"/>
<path d="M948.048 669.374V681.107C948.048 683.225 947.618 684.743 946.758 685.659C945.956 686.575 944.465 687.234 942.287 687.635C940.395 687.979 939.45 688.494 939.45 689.181C939.45 689.525 939.679 689.754 940.137 689.869C940.596 690.04 941.198 690.126 941.943 690.126C943.491 690.126 944.81 690.068 945.899 689.954C946.988 689.839 948.049 689.754 949.081 689.697C950.169 689.582 951.402 689.525 952.778 689.525C953.867 689.525 954.727 689.582 955.358 689.697C956.046 689.754 956.791 689.839 957.593 689.954C958.453 690.068 959.657 690.126 961.205 690.126C961.95 690.126 962.552 690.04 963.01 689.869C963.469 689.754 963.699 689.525 963.699 689.181C963.699 688.78 963.469 688.465 963.01 688.236C962.552 688.007 961.835 687.807 960.861 687.635C958.739 687.234 957.278 686.49 956.475 685.402C955.73 684.314 955.299 682.853 955.185 681.021C955.07 678.158 954.985 675.38 954.927 672.688V669.374H948.048Z" fill="black"/>
<path d="M948.048 726.374V738.107C948.048 740.226 947.618 741.743 946.758 742.659C945.956 743.576 944.465 744.235 942.287 744.636C940.395 744.979 939.45 745.495 939.45 746.182C939.45 746.525 939.679 746.755 940.137 746.869C940.596 747.041 941.198 747.127 941.943 747.127C943.491 747.127 944.81 747.069 945.899 746.954C946.988 746.84 948.049 746.755 949.081 746.697C950.169 746.583 951.402 746.525 952.778 746.525C953.867 746.525 954.727 746.583 955.358 746.697C956.046 746.755 956.791 746.84 957.593 746.954C958.453 747.069 959.657 747.127 961.205 747.127C961.95 747.127 962.552 747.041 963.01 746.869C963.469 746.755 963.699 746.525 963.699 746.182C963.699 745.781 963.469 745.465 963.01 745.236C962.552 745.007 961.835 744.807 960.861 744.636C958.739 744.235 957.278 743.49 956.475 742.402C955.73 741.314 955.299 739.854 955.185 738.021C955.07 735.158 954.985 732.38 954.927 729.688V726.374H948.048Z" fill="black"/>
<path d="M948.048 783.375V795.108C948.048 797.226 947.618 798.744 946.758 799.66C945.956 800.576 944.465 801.235 942.287 801.636C940.395 801.98 939.45 802.495 939.45 803.182C939.45 803.526 939.679 803.755 940.137 803.87C940.596 804.041 941.198 804.127 941.943 804.127C943.491 804.127 944.81 804.069 945.899 803.955C946.988 803.84 948.049 803.755 949.081 803.698C950.169 803.583 951.402 803.526 952.778 803.526C953.867 803.526 954.727 803.583 955.358 803.698C956.046 803.755 956.791 803.84 957.593 803.955C958.453 804.069 959.657 804.127 961.205 804.127C961.95 804.127 962.552 804.041 963.01 803.87C963.469 803.755 963.699 803.526 963.699 803.182C963.699 802.781 963.469 802.466 963.01 802.237C962.552 802.008 961.835 801.808 960.861 801.636C958.739 801.235 957.278 800.491 956.475 799.403C955.73 798.315 955.299 796.854 955.185 795.022C955.07 792.158 954.985 789.38 954.927 786.689V783.375H948.048Z" fill="black"/>
<path d="M941.943 519.25C941.198 519.25 940.596 519.164 940.137 518.992C939.679 518.878 939.449 518.648 939.449 518.305C939.449 517.618 940.395 517.102 942.287 516.759C944.465 516.358 945.956 515.699 946.758 514.783C947.618 513.867 948.048 512.349 948.048 510.23V473.979C948.048 471.402 947.704 469.426 947.016 468.052C946.386 466.678 944.981 465.79 942.803 465.389C941.828 465.217 941.112 464.988 940.653 464.702C940.194 464.415 939.965 464.072 939.965 463.671C939.965 463.327 940.194 463.098 940.653 462.984C941.112 462.812 941.714 462.726 942.459 462.726C944.58 462.726 946.357 462.755 947.79 462.812C949.281 462.869 950.742 462.927 952.176 462.984C953.609 462.984 955.3 462.984 957.249 462.984C958.911 462.984 960.689 462.984 962.58 462.984C964.472 462.984 966.306 462.984 968.084 462.984C969.918 462.984 971.523 462.841 972.899 462.554C974.332 462.268 975.565 462.125 976.597 462.125C976.883 462.125 977.198 462.182 977.542 462.297C977.886 462.411 978.087 462.612 978.144 462.898C978.259 463.528 978.345 464.473 978.402 465.733C978.46 466.935 978.488 468.109 978.488 469.255C978.546 470.4 978.574 471.173 978.574 471.574C978.574 472.777 978.316 473.378 977.8 473.378C977.514 473.378 977.256 473.292 977.026 473.12C976.797 472.891 976.625 472.633 976.511 472.347C976.281 471.374 975.995 470.543 975.651 469.856C975.307 469.111 974.934 468.539 974.533 468.138C973.73 467.222 972.842 466.62 971.867 466.334C970.893 465.99 969.861 465.819 968.772 465.819H957.851C956.532 465.819 955.73 466.248 955.443 467.107C955.157 467.966 954.985 468.968 954.927 470.114C954.87 471.202 954.841 472.548 954.841 474.151C954.841 475.697 954.841 477.215 954.841 478.704C954.841 480.136 954.841 481.596 954.841 483.085C954.841 484.574 954.87 485.834 954.927 486.865C954.927 487.323 954.956 487.752 955.013 488.153C955.128 488.554 955.386 488.754 955.787 488.754C957.622 488.754 959.485 488.726 961.376 488.669C963.268 488.554 964.73 488.497 965.762 488.497C967.023 488.497 968.112 488.153 969.029 487.466C969.947 486.779 970.606 485.948 971.007 484.975C971.122 484.746 971.351 484.459 971.695 484.116C972.039 483.715 972.326 483.514 972.555 483.514C972.784 483.514 973.042 483.658 973.329 483.944C973.616 484.173 973.73 484.488 973.673 484.889C973.616 485.862 973.558 486.721 973.501 487.466C973.444 488.21 973.415 488.926 973.415 489.613C973.415 490.472 973.444 491.36 973.501 492.276C973.558 493.135 973.616 494.195 973.673 495.455C973.673 495.856 973.616 496.199 973.501 496.486C973.444 496.772 973.243 496.915 972.899 496.915C972.326 496.915 971.867 496.657 971.523 496.142C971.237 495.627 971.036 495.226 970.921 494.939C970.52 493.622 969.918 492.735 969.115 492.276C968.313 491.761 967.568 491.503 966.88 491.503C966.135 491.503 965.389 491.503 964.644 491.503C963.956 491.446 963.268 491.417 962.58 491.417C961.606 491.417 960.66 491.417 959.743 491.417C958.825 491.417 957.908 491.475 956.991 491.589C956.418 491.646 955.93 491.847 955.529 492.191C955.128 492.477 954.927 492.992 954.927 493.737C954.927 496.371 954.927 499.063 954.927 501.812C954.985 504.503 955.071 507.281 955.185 510.144C955.3 511.977 955.73 513.437 956.475 514.525C957.278 515.613 958.739 516.358 960.861 516.759C961.835 516.93 962.552 517.131 963.01 517.36C963.469 517.589 963.698 517.904 963.698 518.305C963.698 518.648 963.469 518.878 963.01 518.992C962.552 519.164 961.95 519.25 961.204 519.25C959.657 519.25 958.453 519.192 957.593 519.078C956.79 518.963 956.045 518.878 955.357 518.82C954.727 518.706 953.867 518.648 952.778 518.648C951.402 518.648 950.169 518.706 949.08 518.82C948.048 518.878 946.988 518.963 945.898 519.078C944.809 519.192 943.491 519.25 941.943 519.25Z" fill="black"/>
<path d="M1168.18 483.404C1167.95 483.404 1167.66 483.604 1167.32 484.005C1166.98 484.349 1166.75 484.635 1166.63 484.864C1166.23 485.837 1165.57 486.668 1164.65 487.355C1163.74 488.042 1162.65 488.386 1161.39 488.386C1160.36 488.386 1158.89 488.444 1157 488.558C1156.21 488.582 1155.42 488.598 1154.64 488.612V491.33C1154.88 491.322 1155.12 491.307 1155.37 491.307H1158.21C1158.89 491.307 1159.58 491.336 1160.27 491.393H1162.51C1163.19 491.393 1163.94 491.651 1164.74 492.166C1165.54 492.624 1166.14 493.512 1166.55 494.829C1166.66 495.115 1166.86 495.516 1167.15 496.032C1167.49 496.547 1167.95 496.804 1168.52 496.804C1168.87 496.804 1169.07 496.662 1169.13 496.376C1169.24 496.089 1169.3 495.745 1169.3 495.344C1169.24 494.084 1169.18 493.025 1169.13 492.166C1169.07 491.25 1169.04 490.361 1169.04 489.502C1169.04 488.815 1169.07 488.1 1169.13 487.355C1169.18 486.611 1169.24 485.751 1169.3 484.778C1169.36 484.377 1169.24 484.063 1168.95 483.834C1168.67 483.548 1168.41 483.404 1168.18 483.404Z" fill="black"/>
<path d="M1129.05 483.404C1128.83 483.404 1128.54 483.604 1128.2 484.005C1127.85 484.349 1127.62 484.635 1127.51 484.864C1127.11 485.837 1126.45 486.668 1125.53 487.355C1124.61 488.042 1123.52 488.386 1122.26 488.386C1121.23 488.386 1119.77 488.444 1117.88 488.558C1117.08 488.582 1116.3 488.598 1115.51 488.612V491.33C1115.76 491.322 1116 491.307 1116.24 491.307H1119.08C1119.77 491.307 1120.46 491.336 1121.14 491.393H1123.38C1124.07 491.393 1124.81 491.651 1125.62 492.166C1126.42 492.624 1127.02 493.512 1127.42 494.829C1127.54 495.115 1127.74 495.516 1128.02 496.032C1128.37 496.547 1128.83 496.804 1129.4 496.804C1129.74 496.804 1129.94 496.662 1130 496.376C1130.12 496.089 1130.17 495.745 1130.17 495.344C1130.12 494.084 1130.06 493.025 1130 492.166C1129.94 491.25 1129.92 490.361 1129.92 489.502C1129.92 488.815 1129.94 488.1 1130 487.355C1130.06 486.611 1130.12 485.751 1130.17 484.778C1130.23 484.377 1130.12 484.063 1129.83 483.834C1129.54 483.548 1129.28 483.404 1129.05 483.404Z" fill="black"/>
<path d="M1246.43 483.404C1246.2 483.404 1245.91 483.604 1245.57 484.005C1245.23 484.349 1245 484.635 1244.88 484.864C1244.48 485.837 1243.82 486.668 1242.9 487.355C1241.99 488.042 1240.9 488.386 1239.64 488.386C1238.61 488.386 1237.14 488.444 1235.25 488.558C1234.46 488.582 1233.67 488.598 1232.89 488.612V491.33C1233.13 491.322 1233.37 491.307 1233.62 491.307H1236.46C1237.14 491.307 1237.83 491.336 1238.52 491.393H1240.76C1241.44 491.393 1242.19 491.651 1242.99 492.166C1243.79 492.624 1244.39 493.512 1244.8 494.829C1244.91 495.115 1245.11 495.516 1245.4 496.032C1245.74 496.547 1246.2 496.804 1246.77 496.804C1247.12 496.804 1247.32 496.662 1247.38 496.376C1247.49 496.089 1247.55 495.745 1247.55 495.344C1247.49 494.084 1247.43 493.025 1247.38 492.166C1247.32 491.25 1247.29 490.361 1247.29 489.502C1247.29 488.815 1247.32 488.1 1247.38 487.355C1247.43 486.611 1247.49 485.751 1247.55 484.778C1247.61 484.377 1247.49 484.063 1247.2 483.834C1246.92 483.548 1246.66 483.404 1246.43 483.404Z" fill="black"/>
<path d="M1207.3 483.404C1207.08 483.404 1206.79 483.604 1206.45 484.005C1206.1 484.349 1205.87 484.635 1205.76 484.864C1205.36 485.837 1204.7 486.668 1203.78 487.355C1202.86 488.042 1201.77 488.386 1200.51 488.386C1199.48 488.386 1198.02 488.444 1196.13 488.558C1195.33 488.582 1194.55 488.598 1193.76 488.612V491.33C1194.01 491.322 1194.25 491.307 1194.49 491.307H1197.33C1198.02 491.307 1198.71 491.336 1199.39 491.393H1201.63C1202.32 491.393 1203.06 491.651 1203.87 492.166C1204.67 492.624 1205.27 493.512 1205.67 494.829C1205.79 495.115 1205.99 495.516 1206.27 496.032C1206.62 496.547 1207.08 496.804 1207.65 496.804C1207.99 496.804 1208.19 496.662 1208.25 496.376C1208.37 496.089 1208.42 495.745 1208.42 495.344C1208.37 494.084 1208.31 493.025 1208.25 492.166C1208.19 491.25 1208.17 490.361 1208.17 489.502C1208.17 488.815 1208.19 488.1 1208.25 487.355C1208.31 486.611 1208.37 485.751 1208.42 484.778C1208.48 484.377 1208.37 484.063 1208.08 483.834C1207.79 483.548 1207.53 483.404 1207.3 483.404Z" fill="black"/>
<path d="M1168.18 483.404C1167.95 483.404 1167.66 483.604 1167.32 484.005C1166.98 484.349 1166.75 484.635 1166.63 484.864C1166.23 485.837 1165.57 486.668 1164.65 487.355C1163.74 488.042 1162.65 488.386 1161.39 488.386C1160.36 488.386 1158.89 488.444 1157 488.558C1156.21 488.582 1155.42 488.598 1154.64 488.612V491.33C1154.88 491.322 1155.12 491.307 1155.37 491.307H1158.21C1158.89 491.307 1159.58 491.336 1160.27 491.393H1162.51C1163.19 491.393 1163.94 491.651 1164.74 492.166C1165.54 492.624 1166.14 493.512 1166.55 494.829C1166.66 495.115 1166.86 495.516 1167.15 496.032C1167.49 496.547 1167.95 496.804 1168.52 496.804C1168.87 496.804 1169.07 496.662 1169.13 496.376C1169.24 496.089 1169.3 495.745 1169.3 495.344C1169.24 494.084 1169.18 493.025 1169.13 492.166C1169.07 491.25 1169.04 490.361 1169.04 489.502C1169.04 488.815 1169.07 488.1 1169.13 487.355C1169.18 486.611 1169.24 485.751 1169.3 484.778C1169.36 484.377 1169.24 484.063 1168.95 483.834C1168.67 483.548 1168.41 483.404 1168.18 483.404Z" fill="black"/>
<path d="M1324.68 483.404C1324.45 483.404 1324.16 483.604 1323.82 484.005C1323.48 484.349 1323.25 484.635 1323.13 484.864C1322.73 485.837 1322.07 486.668 1321.15 487.355C1320.24 488.042 1319.15 488.386 1317.89 488.386C1316.86 488.386 1315.39 488.444 1313.5 488.558C1312.71 488.582 1311.92 488.598 1311.14 488.612V491.33C1311.38 491.322 1311.62 491.307 1311.87 491.307H1314.71C1315.39 491.307 1316.08 491.336 1316.77 491.393H1319.01C1319.69 491.393 1320.44 491.651 1321.24 492.166C1322.04 492.624 1322.64 493.512 1323.05 494.829C1323.16 495.115 1323.36 495.516 1323.65 496.032C1323.99 496.547 1324.45 496.804 1325.02 496.804C1325.37 496.804 1325.57 496.662 1325.63 496.376C1325.74 496.089 1325.8 495.745 1325.8 495.344C1325.74 494.084 1325.68 493.025 1325.63 492.166C1325.57 491.25 1325.54 490.361 1325.54 489.502C1325.54 488.815 1325.57 488.1 1325.63 487.355C1325.68 486.611 1325.74 485.751 1325.8 484.778C1325.86 484.377 1325.74 484.063 1325.45 483.834C1325.17 483.548 1324.91 483.404 1324.68 483.404Z" fill="black"/>
<path d="M1285.55 483.404C1285.33 483.404 1285.04 483.604 1284.7 484.005C1284.35 484.349 1284.12 484.635 1284.01 484.864C1283.61 485.837 1282.95 486.668 1282.03 487.355C1281.11 488.042 1280.02 488.386 1278.76 488.386C1277.73 488.386 1276.27 488.444 1274.38 488.558C1273.58 488.582 1272.8 488.598 1272.01 488.612V491.33C1272.26 491.322 1272.5 491.307 1272.74 491.307H1275.58C1276.27 491.307 1276.96 491.336 1277.64 491.393H1279.88C1280.57 491.393 1281.31 491.651 1282.12 492.166C1282.92 492.624 1283.52 493.512 1283.92 494.829C1284.04 495.115 1284.24 495.516 1284.52 496.032C1284.87 496.547 1285.33 496.804 1285.9 496.804C1286.24 496.804 1286.44 496.662 1286.5 496.376C1286.62 496.089 1286.67 495.745 1286.67 495.344C1286.62 494.084 1286.56 493.025 1286.5 492.166C1286.44 491.25 1286.42 490.361 1286.42 489.502C1286.42 488.815 1286.44 488.1 1286.5 487.355C1286.56 486.611 1286.62 485.751 1286.67 484.778C1286.73 484.377 1286.62 484.063 1286.33 483.834C1286.04 483.548 1285.78 483.404 1285.55 483.404Z" fill="black"/>
<path d="M1324.68 483.404C1324.45 483.404 1324.16 483.604 1323.82 484.005C1323.48 484.349 1323.25 484.635 1323.13 484.864C1322.73 485.837 1322.07 486.668 1321.15 487.355C1320.24 488.042 1319.15 488.386 1317.89 488.386C1316.86 488.386 1315.39 488.444 1313.5 488.558C1312.71 488.582 1311.92 488.598 1311.14 488.612V491.33C1311.38 491.322 1311.62 491.307 1311.87 491.307H1314.71C1315.39 491.307 1316.08 491.336 1316.77 491.393H1319.01C1319.69 491.393 1320.44 491.651 1321.24 492.166C1322.04 492.624 1322.64 493.512 1323.05 494.829C1323.16 495.115 1323.36 495.516 1323.65 496.032C1323.99 496.547 1324.45 496.804 1325.02 496.804C1325.37 496.804 1325.57 496.662 1325.63 496.376C1325.74 496.089 1325.8 495.745 1325.8 495.344C1325.74 494.084 1325.68 493.025 1325.63 492.166C1325.57 491.25 1325.54 490.361 1325.54 489.502C1325.54 488.815 1325.57 488.1 1325.63 487.355C1325.68 486.611 1325.74 485.751 1325.8 484.778C1325.86 484.377 1325.74 484.063 1325.45 483.834C1325.17 483.548 1324.91 483.404 1324.68 483.404Z" fill="black"/>
<path d="M976.597 405.062C975.565 405.062 974.333 405.205 972.899 405.492C971.524 405.778 969.919 405.921 968.085 405.921H962.581H957.249H952.176C950.743 405.864 949.281 405.807 947.791 405.75C946.358 405.693 944.581 405.664 942.46 405.664C941.715 405.664 941.112 405.749 940.654 405.921C940.195 406.036 939.965 406.264 939.965 406.608C939.965 407.009 940.195 407.353 940.654 407.639C941.112 407.926 941.829 408.155 942.803 408.327C944.982 408.727 946.386 409.615 947.016 410.99C947.704 412.364 948.048 414.34 948.048 416.917V425.783H954.841V421.641V417.088C954.841 415.485 954.87 414.139 954.927 413.051C954.985 411.906 955.157 410.903 955.444 410.044C955.73 409.185 956.533 408.756 957.851 408.756H968.772C969.861 408.756 970.893 408.928 971.868 409.271C972.842 409.558 973.73 410.16 974.533 411.076C974.934 411.477 975.307 412.049 975.651 412.793C975.995 413.481 976.282 414.311 976.511 415.285C976.626 415.571 976.798 415.829 977.027 416.058C977.256 416.23 977.514 416.315 977.8 416.315C978.316 416.315 978.575 415.714 978.575 414.511C978.575 414.111 978.546 413.337 978.489 412.192C978.489 411.046 978.46 409.873 978.403 408.67C978.345 407.41 978.259 406.465 978.144 405.835C978.087 405.549 977.887 405.348 977.543 405.234C977.199 405.119 976.884 405.062 976.597 405.062Z" fill="black"/>
<path d="M855.18 483.404C854.95 483.404 854.664 483.604 854.32 484.005C853.976 484.349 853.746 484.635 853.632 484.864C853.23 485.837 852.572 486.668 851.654 487.355C850.737 488.042 849.648 488.386 848.387 488.386C847.355 488.386 845.893 488.444 844.001 488.558C843.207 488.582 842.421 488.598 841.637 488.612V491.33C841.88 491.322 842.123 491.307 842.367 491.307H845.205C845.893 491.307 846.582 491.336 847.27 491.393H849.505C850.193 491.393 850.938 491.651 851.74 492.166C852.543 492.624 853.144 493.512 853.546 494.829C853.66 495.115 853.862 495.516 854.148 496.032C854.492 496.547 854.95 496.804 855.523 496.804C855.867 496.804 856.069 496.662 856.126 496.376C856.241 496.089 856.298 495.745 856.298 495.344C856.241 494.084 856.183 493.025 856.126 492.166C856.069 491.25 856.04 490.361 856.04 489.502C856.04 488.815 856.069 488.1 856.126 487.355C856.183 486.611 856.241 485.751 856.298 484.778C856.355 484.377 856.241 484.063 855.954 483.834C855.668 483.548 855.409 483.404 855.18 483.404Z" fill="black"/>
</svg>
