<svg width="1536" height="1152" viewBox="0 0 1536 1152" fill="none" xmlns="http://www.w3.org/2000/svg">
<rect width="1536" height="1152" fill="#808080"/>
<g clip-path="url(#clip0_3_1433)">
<rect width="595" height="842" transform="translate(173 155)" fill="white"/>
<path d="M387.594 348C385.338 348 382.181 348.677 378.121 350.031C374.269 351.103 371.172 356.857 371.127 360.369C371.127 363.576 372.962 366.326 376.631 368.617C380.3 370.907 386.031 372.739 393.828 374.113C411.255 377.32 422.491 384.423 427.535 395.418C433.039 406.414 435.791 422.22 435.791 442.836V732.842C435.791 749.793 432.352 761.935 425.473 769.266C419.052 776.596 407.128 781.863 389.701 785.07C374.567 787.819 367 791.943 367 797.441C367 800.189 368.835 802.022 372.504 802.938C376.173 804.312 380.988 805 386.949 805C399.332 805 409.881 804.543 418.594 803.627C427.308 802.71 435.792 802.022 444.047 801.564C452.761 800.648 462.621 800.189 473.627 800.189C482.341 800.189 489.219 800.648 494.264 801.564C499.767 802.022 505.728 802.71 512.148 803.627C519.028 804.543 528.66 805 541.043 805C547.005 805 551.819 804.312 555.488 802.938C559.157 802.022 560.99 800.189 560.99 797.441C560.99 794.234 559.157 791.714 555.488 789.881C551.819 788.049 546.085 786.444 538.289 785.07C521.321 781.863 509.627 775.908 503.207 767.203C497.245 758.498 493.806 746.815 492.889 732.154C491.972 709.247 491.283 687.027 490.824 665.494V600.896C490.824 594.94 492.43 590.816 495.641 588.525C498.851 585.776 502.748 584.175 507.334 583.717C514.672 582.801 522.011 582.342 529.348 582.342H552.049C557.553 582.342 563.056 582.57 568.559 583.029H586.443C591.946 583.029 597.909 585.091 604.33 589.215C610.75 592.88 615.565 599.981 618.775 610.518C619.692 612.809 621.299 616.016 623.592 620.139C626.344 624.263 630.012 626.322 634.598 626.322C637.349 626.322 638.954 625.178 639.412 622.887C640.329 620.596 640.789 617.848 640.789 614.641C640.33 604.561 639.871 596.087 639.412 589.215C638.954 581.884 638.725 574.782 638.725 567.91C638.725 562.412 638.954 556.685 639.412 550.729C639.871 544.773 640.33 537.901 640.789 530.113C641.248 526.906 640.33 524.386 638.037 522.553C635.744 520.263 633.681 519.117 631.846 519.117C630.012 519.117 627.719 520.721 624.967 523.928C622.215 526.677 620.382 528.968 619.465 530.801C616.254 538.589 610.98 545.232 603.643 550.729C596.305 556.227 587.591 558.977 577.502 558.977C569.247 558.977 557.552 559.434 542.418 560.35C527.284 560.809 512.379 561.037 497.703 561.037C494.493 561.037 492.429 559.434 491.512 556.227C491.053 553.02 490.824 549.585 490.824 545.92C490.366 537.673 490.137 527.594 490.137 515.682V480.633V444.211C490.137 431.382 490.366 420.615 490.824 411.91C491.283 402.747 492.658 394.731 494.951 387.859C496.388 383.553 499.448 380.598 504.125 378.99C550.784 374.358 616.97 378.098 657.355 379.135C697.918 380.177 710.672 392.835 717.631 398.777C730.261 409.158 736.576 426.31 736.576 450.232C736.576 487.243 735.9 523.353 734.547 558.559C733.194 593.313 731.615 624.908 729.811 653.344C728.006 681.328 726.202 703.896 724.398 721.047C723.045 735.04 719.436 747 713.572 756.93C707.708 766.409 698.236 772.954 685.154 776.564C677.486 778.37 671.847 780.174 668.238 781.98C664.63 783.785 662.824 786.269 662.824 789.428C662.824 792.136 664.63 793.942 668.238 794.844C671.847 796.199 676.583 796.877 682.447 796.877C694.626 796.877 703.648 796.424 709.512 795.521C715.376 795.07 720.564 794.62 725.074 794.168C729.585 793.717 735.9 793.49 744.02 793.49C752.59 793.49 759.132 793.717 763.643 794.168C768.605 794.62 774.017 795.07 779.881 795.521C786.196 796.424 795.442 796.877 807.621 796.877C813.486 796.877 818.223 796.199 821.832 794.844C825.44 793.942 827.244 792.136 827.244 789.428C827.244 786.269 825.44 783.785 821.832 781.98C818.223 780.174 812.584 778.595 804.916 777.24C788.226 774.081 776.723 767.312 770.408 756.93C764.544 746.549 761.611 735.264 761.611 723.078C761.611 695.093 761.838 665.756 762.289 635.064C762.74 604.371 763.192 574.582 763.643 545.695C764.094 516.808 764.543 491.305 764.994 469.189C764.994 466.48 765.446 463.549 766.348 460.389C767.251 456.778 768.828 454.973 771.084 454.973C772.888 454.973 774.919 455.875 777.174 457.68C779.43 459.034 782.135 461.743 785.293 465.805C787.548 468.514 793.412 475.735 802.885 487.471C812.809 498.755 824.989 512.971 839.424 530.123C853.858 546.823 869.421 565.103 886.111 584.963C902.801 604.823 919.492 624.683 936.182 644.543C952.872 664.403 968.208 682.908 982.191 700.059C996.626 716.76 1008.35 730.751 1017.38 742.035C1026.85 753.318 1032.49 760.091 1034.29 762.348C1045.12 777.242 1056.39 788.074 1068.12 794.844C1080.3 801.615 1088.42 805 1092.48 805C1096.09 805 1099.25 803.872 1101.95 801.615C1105.11 799.809 1106.69 795.296 1106.69 788.074C1106.69 784.915 1106.46 780.401 1106.01 774.533C1105.56 768.214 1104.89 760.767 1103.98 752.191C1103.53 743.164 1103.31 733.233 1103.31 722.4V650.637V569.391C1103.76 542.31 1103.98 517.033 1103.98 493.562V435.338C1104.44 419.992 1104.66 411.191 1104.66 408.934C1105.56 397.65 1108.72 389.526 1114.13 384.561C1119.55 379.596 1130.6 375.533 1147.29 372.373C1162.17 369.665 1169.62 365.151 1169.62 358.832C1169.62 356.123 1167.81 354.319 1164.2 353.416C1160.59 352.062 1155.86 351.385 1149.99 351.385C1136.46 351.385 1125.86 351.612 1118.19 352.062C1110.98 352.515 1104.21 352.965 1097.89 353.416H1072.18H1059.33H1046.47H1033.62C1027.75 353.416 1021.66 354.093 1015.35 355.447C1009.03 356.35 1005.87 358.155 1005.87 360.863C1005.87 364.022 1009.03 366.731 1015.35 368.988C1021.66 371.245 1028.65 373.05 1036.32 374.404C1043.99 375.759 1052.33 380.046 1061.36 387.268C1070.38 394.49 1075.11 402.615 1075.56 411.643V503.041C1075.56 532.831 1075.34 560.589 1074.89 586.316C1074.89 611.592 1074.66 633.258 1074.21 651.312V687.195C1073.76 696.673 1071.51 701.412 1067.45 701.412C1064.74 701.412 1061.58 699.607 1057.97 695.996C1054.82 692.385 1052.33 689.678 1050.53 687.873C1048.73 685.616 1042.63 678.394 1032.26 666.207C1022.34 654.021 1009.71 638.676 994.371 620.17C979.034 601.213 962.343 580.901 944.299 559.236C926.256 537.119 908.213 515.227 890.17 493.562C872.126 471.446 855.437 451.136 840.1 432.631C825.215 413.674 812.583 398.101 802.209 385.914C792.285 373.276 786.422 365.603 784.617 362.895C779.029 355.683 774.251 348.13 764.834 348C742.34 348.118 714.811 350.031 693.158 349.354L641.211 351.385H462.021C454.353 350.934 447.362 350.482 441.047 350.031C434.731 349.58 427.514 349.354 419.395 349.354C411.275 348.903 400.675 348.451 387.594 348Z" fill="black"/>
</g>
<g clip-path="url(#clip1_3_1433)">
<rect width="595" height="842" transform="translate(768 155)" fill="white"/>
<path d="M387.594 348C385.338 348 382.181 348.677 378.121 350.031C374.269 351.103 371.172 356.857 371.127 360.369C371.127 363.576 372.962 366.326 376.631 368.617C380.3 370.907 386.031 372.739 393.828 374.113C411.255 377.32 422.491 384.423 427.535 395.418C433.039 406.414 435.791 422.22 435.791 442.836V732.842C435.791 749.793 432.352 761.935 425.473 769.266C419.052 776.596 407.128 781.863 389.701 785.07C374.567 787.819 367 791.943 367 797.441C367 800.189 368.835 802.022 372.504 802.938C376.173 804.312 380.988 805 386.949 805C399.332 805 409.881 804.543 418.594 803.627C427.308 802.71 435.792 802.022 444.047 801.564C452.761 800.648 462.621 800.189 473.627 800.189C482.341 800.189 489.219 800.648 494.264 801.564C499.767 802.022 505.728 802.71 512.148 803.627C519.028 804.543 528.66 805 541.043 805C547.005 805 551.819 804.312 555.488 802.938C559.157 802.022 560.99 800.189 560.99 797.441C560.99 794.234 559.157 791.714 555.488 789.881C551.819 788.049 546.085 786.444 538.289 785.07C521.321 781.863 509.627 775.908 503.207 767.203C497.245 758.498 493.806 746.815 492.889 732.154C491.972 709.247 491.283 687.027 490.824 665.494V600.896C490.824 594.94 492.43 590.816 495.641 588.525C498.851 585.776 502.748 584.175 507.334 583.717C514.672 582.801 522.011 582.342 529.348 582.342H552.049C557.553 582.342 563.056 582.57 568.559 583.029H586.443C591.946 583.029 597.909 585.091 604.33 589.215C610.75 592.88 615.565 599.981 618.775 610.518C619.692 612.809 621.299 616.016 623.592 620.139C626.344 624.263 630.012 626.322 634.598 626.322C637.349 626.322 638.954 625.178 639.412 622.887C640.329 620.596 640.789 617.848 640.789 614.641C640.33 604.561 639.871 596.087 639.412 589.215C638.954 581.884 638.725 574.782 638.725 567.91C638.725 562.412 638.954 556.685 639.412 550.729C639.871 544.773 640.33 537.901 640.789 530.113C641.248 526.906 640.33 524.386 638.037 522.553C635.744 520.263 633.681 519.117 631.846 519.117C630.012 519.117 627.719 520.721 624.967 523.928C622.215 526.677 620.382 528.968 619.465 530.801C616.254 538.589 610.98 545.232 603.643 550.729C596.305 556.227 587.591 558.977 577.502 558.977C569.247 558.977 557.552 559.434 542.418 560.35C527.284 560.809 512.379 561.037 497.703 561.037C494.493 561.037 492.429 559.434 491.512 556.227C491.053 553.02 490.824 549.585 490.824 545.92C490.366 537.673 490.137 527.594 490.137 515.682V480.633V444.211C490.137 431.382 490.366 420.615 490.824 411.91C491.283 402.747 492.658 394.731 494.951 387.859C496.388 383.553 499.448 380.598 504.125 378.99C550.784 374.358 616.97 378.098 657.355 379.135C697.918 380.177 710.672 392.835 717.631 398.777C730.261 409.158 736.576 426.31 736.576 450.232C736.576 487.243 735.9 523.353 734.547 558.559C733.194 593.313 731.615 624.908 729.811 653.344C728.006 681.328 726.202 703.896 724.398 721.047C723.045 735.04 719.436 747 713.572 756.93C707.708 766.409 698.236 772.954 685.154 776.564C677.486 778.37 671.847 780.174 668.238 781.98C664.63 783.785 662.824 786.269 662.824 789.428C662.824 792.136 664.63 793.942 668.238 794.844C671.847 796.199 676.583 796.877 682.447 796.877C694.626 796.877 703.648 796.424 709.512 795.521C715.376 795.07 720.564 794.62 725.074 794.168C729.585 793.717 735.9 793.49 744.02 793.49C752.59 793.49 759.132 793.717 763.643 794.168C768.605 794.62 774.017 795.07 779.881 795.521C786.196 796.424 795.442 796.877 807.621 796.877C813.486 796.877 818.223 796.199 821.832 794.844C825.44 793.942 827.244 792.136 827.244 789.428C827.244 786.269 825.44 783.785 821.832 781.98C818.223 780.174 812.584 778.595 804.916 777.24C788.226 774.081 776.723 767.312 770.408 756.93C764.544 746.549 761.611 735.264 761.611 723.078C761.611 695.093 761.838 665.756 762.289 635.064C762.74 604.371 763.192 574.582 763.643 545.695C764.094 516.808 764.543 491.305 764.994 469.189C764.994 466.48 765.446 463.549 766.348 460.389C767.251 456.778 768.828 454.973 771.084 454.973C772.888 454.973 774.919 455.875 777.174 457.68C779.43 459.034 782.135 461.743 785.293 465.805C787.548 468.514 793.412 475.735 802.885 487.471C812.809 498.755 824.989 512.971 839.424 530.123C853.858 546.823 869.421 565.103 886.111 584.963C902.801 604.823 919.492 624.683 936.182 644.543C952.872 664.403 968.208 682.908 982.191 700.059C996.626 716.76 1008.35 730.751 1017.38 742.035C1026.85 753.318 1032.49 760.091 1034.29 762.348C1045.12 777.242 1056.39 788.074 1068.12 794.844C1080.3 801.615 1088.42 805 1092.48 805C1096.09 805 1099.25 803.872 1101.95 801.615C1105.11 799.809 1106.69 795.296 1106.69 788.074C1106.69 784.915 1106.46 780.401 1106.01 774.533C1105.56 768.214 1104.89 760.767 1103.98 752.191C1103.53 743.164 1103.31 733.233 1103.31 722.4V650.637V569.391C1103.76 542.31 1103.98 517.033 1103.98 493.562V435.338C1104.44 419.992 1104.66 411.191 1104.66 408.934C1105.56 397.65 1108.72 389.526 1114.13 384.561C1119.55 379.596 1130.6 375.533 1147.29 372.373C1162.17 369.665 1169.62 365.151 1169.62 358.832C1169.62 356.123 1167.81 354.319 1164.2 353.416C1160.59 352.062 1155.86 351.385 1149.99 351.385C1136.46 351.385 1125.86 351.612 1118.19 352.062C1110.98 352.515 1104.21 352.965 1097.89 353.416H1072.18H1059.33H1046.47H1033.62C1027.75 353.416 1021.66 354.093 1015.35 355.447C1009.03 356.35 1005.87 358.155 1005.87 360.863C1005.87 364.022 1009.03 366.731 1015.35 368.988C1021.66 371.245 1028.65 373.05 1036.32 374.404C1043.99 375.759 1052.33 380.046 1061.36 387.268C1070.38 394.49 1075.11 402.615 1075.56 411.643V503.041C1075.56 532.831 1075.34 560.589 1074.89 586.316C1074.89 611.592 1074.66 633.258 1074.21 651.312V687.195C1073.76 696.673 1071.51 701.412 1067.45 701.412C1064.74 701.412 1061.58 699.607 1057.97 695.996C1054.82 692.385 1052.33 689.678 1050.53 687.873C1048.73 685.616 1042.63 678.394 1032.26 666.207C1022.34 654.021 1009.71 638.676 994.371 620.17C979.034 601.213 962.343 580.901 944.299 559.236C926.256 537.119 908.213 515.227 890.17 493.562C872.126 471.446 855.437 451.136 840.1 432.631C825.215 413.674 812.583 398.101 802.209 385.914C792.285 373.276 786.422 365.603 784.617 362.895C779.029 355.683 774.251 348.13 764.834 348C742.34 348.118 714.811 350.031 693.158 349.354L641.211 351.385H462.021C454.353 350.934 447.362 350.482 441.047 350.031C434.731 349.58 427.514 349.354 419.395 349.354C411.275 348.903 400.675 348.451 387.594 348Z" fill="black"/>
</g>
<defs>
<clipPath id="clip0_3_1433">
<rect width="595" height="842" fill="white" transform="translate(173 155)"/>
</clipPath>
<clipPath id="clip1_3_1433">
<rect width="595" height="842" fill="white" transform="translate(768 155)"/>
</clipPath>
</defs>
</svg>
