<svg width="1536" height="1152" viewBox="0 0 1536 1152" fill="none" xmlns="http://www.w3.org/2000/svg">
<rect width="1536" height="1152" fill="#808080"/>
<rect width="595" height="842" transform="translate(173 155)" fill="white"/>
<path d="M653.865 805C649.805 805 641.686 801.615 629.506 794.844C617.778 788.074 606.501 777.241 595.675 762.347C593.871 760.09 588.232 753.32 578.76 742.036C569.738 730.752 558.01 716.76 543.575 700.059C529.592 682.908 514.255 664.402 497.565 644.542C480.875 624.682 464.185 604.823 447.495 584.963C430.805 565.103 415.242 546.823 400.808 530.123C386.373 512.971 374.194 498.754 364.27 487.47C354.797 475.734 348.933 468.513 346.678 465.804C343.52 461.742 340.814 459.034 338.558 457.68C336.303 455.875 334.273 454.972 332.469 454.972C330.213 454.972 328.635 456.777 327.732 460.388C326.83 463.548 326.379 466.481 326.379 469.19C325.928 491.306 325.477 516.808 325.026 545.695C324.575 574.582 324.124 604.371 323.673 635.064C323.222 665.756 322.996 695.094 322.996 723.078C322.996 735.265 325.928 746.549 331.792 756.93C338.107 767.312 349.61 774.082 366.3 777.241C373.968 778.596 379.607 780.175 383.216 781.981C386.824 783.786 388.629 786.269 388.629 789.428C388.629 792.136 386.824 793.942 383.216 794.844C379.607 796.198 374.871 796.876 369.007 796.876C356.827 796.876 347.58 796.424 341.265 795.521C335.401 795.07 329.988 794.619 325.026 794.167C320.515 793.716 313.974 793.49 305.404 793.49C297.284 793.49 290.969 793.716 286.458 794.167C281.948 794.619 276.76 795.07 270.896 795.521C265.032 796.424 256.01 796.876 243.831 796.876C237.967 796.876 233.231 796.198 229.622 794.844C226.013 793.942 224.209 792.136 224.209 789.428C224.209 786.269 226.013 783.786 229.622 781.981C233.231 780.175 238.869 778.37 246.538 776.564C259.619 772.954 269.092 766.409 274.956 756.93C280.82 747 284.429 735.04 285.782 721.047C287.586 703.896 289.39 681.328 291.195 653.344C292.999 624.908 294.578 593.313 295.931 558.559C297.284 523.353 297.961 487.244 297.961 450.233C297.961 426.311 291.646 409.159 279.016 398.778C266.836 388.397 250.823 380.046 230.975 373.727C229.171 372.825 225.111 371.019 218.796 368.311C212.932 365.152 210 361.541 210 357.479C210 353.416 212.03 350.934 216.09 350.031C220.149 348.677 223.307 348 225.562 348C238.644 348.451 249.244 348.903 257.364 349.354C265.483 349.354 272.7 349.58 279.016 350.031C285.331 350.482 292.323 350.934 299.991 351.385C307.659 351.385 317.583 351.385 329.762 351.385C333.822 351.385 336.98 352.514 339.235 354.77C341.49 357.027 343.746 359.735 346.001 362.895C347.806 365.603 353.67 373.276 363.594 385.914C373.968 398.101 386.599 413.673 401.484 432.63C416.821 451.135 433.511 471.446 451.555 493.563C469.598 515.228 487.641 537.119 505.684 559.236C523.728 580.901 540.418 601.212 555.755 620.169C571.091 638.675 583.722 654.021 593.645 666.207C604.02 678.394 610.11 685.616 611.914 687.873C613.719 689.678 616.2 692.386 619.357 695.997C622.966 699.608 626.123 701.413 628.83 701.413C632.89 701.413 635.145 696.674 635.596 687.196C635.596 680.877 635.596 668.916 635.596 651.313C636.047 633.258 636.273 611.593 636.273 586.317C636.724 560.59 636.949 532.831 636.949 503.041C636.949 473.252 636.949 442.785 636.949 411.642C636.498 402.614 631.762 394.49 622.74 387.268C613.719 380.046 605.374 375.759 597.705 374.404C590.037 373.05 583.045 371.245 576.73 368.988C570.415 366.731 567.257 364.023 567.257 360.864C567.257 358.156 570.415 356.35 576.73 355.447C583.045 354.093 589.135 353.416 594.999 353.416C599.509 353.416 603.795 353.416 607.855 353.416C612.365 353.416 616.651 353.416 620.71 353.416C625.221 353.416 629.506 353.416 633.566 353.416C644.392 353.416 652.963 353.416 659.278 353.416C665.593 352.965 672.359 352.514 679.577 352.062C687.245 351.611 697.845 351.385 711.378 351.385C717.242 351.385 721.978 352.062 725.587 353.416C729.196 354.319 731 356.124 731 358.833C731 365.152 723.557 369.665 708.671 372.373C691.981 375.533 680.93 379.595 675.517 384.56C670.104 389.525 666.946 397.649 666.044 408.933C666.044 411.19 665.819 419.992 665.368 435.338C665.368 450.684 665.368 470.092 665.368 493.563C665.368 517.034 665.142 542.31 664.691 569.391C664.691 596.473 664.691 623.554 664.691 650.636C664.691 677.266 664.691 701.188 664.691 722.401C664.691 733.234 664.916 743.164 665.368 752.191C666.27 760.767 666.946 768.214 667.397 774.533C667.848 780.401 668.074 784.915 668.074 788.074C668.074 795.296 666.495 799.809 663.338 801.615C660.631 803.872 657.474 805 653.865 805Z" fill="black"/>
<rect width="595" height="842" transform="translate(768 155)" fill="white"/>
<path d="M928.949 805C922.988 805 918.172 804.313 914.503 802.938C910.834 802.022 909 800.189 909 797.441C909 791.943 916.567 787.82 931.701 785.071C949.128 781.864 961.052 776.595 967.473 769.265C974.352 761.934 977.791 749.793 977.791 732.842V442.836C977.791 422.22 975.04 406.414 969.536 395.418C964.492 384.423 953.256 377.321 935.829 374.114C928.032 372.74 922.3 370.907 918.631 368.617C914.962 366.326 913.127 363.577 913.127 360.37C913.127 357.621 914.962 355.788 918.631 354.872C922.3 353.498 927.115 352.811 933.077 352.811C950.045 352.811 964.262 353.04 975.727 353.498C987.651 353.956 999.346 354.414 1010.81 354.872C1022.28 354.872 1035.81 354.872 1051.4 354.872C1064.7 354.872 1078.91 354.872 1094.05 354.872C1109.18 354.872 1123.86 354.872 1138.07 354.872C1152.75 354.872 1165.59 353.727 1176.6 351.436C1188.06 349.145 1197.92 348 1206.18 348C1208.47 348 1210.99 348.458 1213.75 349.374C1216.5 350.291 1218.1 351.894 1218.56 354.185C1219.48 359.225 1220.17 366.784 1220.62 376.863C1221.08 386.484 1221.31 395.876 1221.31 405.039C1221.77 414.202 1222 420.387 1222 423.594C1222 433.215 1219.94 438.026 1215.81 438.026C1213.52 438.026 1211.45 437.338 1209.62 435.964C1207.78 434.131 1206.41 432.07 1205.49 429.779C1203.66 421.99 1201.36 415.347 1198.61 409.85C1195.86 403.894 1192.88 399.312 1189.67 396.105C1183.25 388.775 1176.14 383.964 1168.34 381.674C1160.55 378.925 1152.29 377.55 1143.58 377.55H1056.21C1045.67 377.55 1039.24 380.986 1036.95 387.859C1034.66 394.731 1033.28 402.748 1032.82 411.911C1032.37 420.616 1032.14 431.382 1032.14 444.211C1032.14 456.58 1032.14 468.721 1032.14 480.633C1032.14 492.087 1032.14 503.769 1032.14 515.681C1032.14 527.593 1032.37 537.672 1032.82 545.919C1032.82 549.584 1033.05 553.02 1033.51 556.227C1034.43 559.434 1036.49 561.038 1039.7 561.038C1054.38 561.038 1069.28 560.809 1084.42 560.35C1099.55 559.434 1111.25 558.976 1119.5 558.976C1129.59 558.976 1138.3 556.227 1145.64 550.729C1152.98 545.232 1158.25 538.588 1161.46 530.8C1162.38 528.967 1164.22 526.677 1166.97 523.928C1169.72 520.721 1172.01 519.117 1173.85 519.117C1175.68 519.117 1177.74 520.263 1180.04 522.553C1182.33 524.386 1183.25 526.906 1182.79 530.113C1182.33 537.901 1181.87 544.773 1181.41 550.729C1180.95 556.685 1180.73 562.412 1180.73 567.91C1180.73 574.782 1180.95 581.883 1181.41 589.214C1181.87 596.086 1182.33 604.561 1182.79 614.641C1182.79 617.848 1182.33 620.596 1181.41 622.887C1180.95 625.178 1179.35 626.323 1176.6 626.323C1172.01 626.323 1168.34 624.262 1165.59 620.138C1163.3 616.015 1161.69 612.808 1160.78 610.517C1157.57 599.98 1152.75 592.879 1146.33 589.214C1139.91 585.09 1133.95 583.029 1128.44 583.029C1122.48 583.029 1116.52 583.029 1110.56 583.029C1105.05 582.57 1099.55 582.341 1094.05 582.341C1086.25 582.341 1078.68 582.341 1071.35 582.341C1064.01 582.341 1056.67 582.8 1049.33 583.716C1044.75 584.174 1040.85 585.777 1037.64 588.526C1034.43 590.817 1032.82 594.94 1032.82 600.896C1032.82 621.971 1032.82 643.504 1032.82 665.495C1033.28 687.028 1033.97 709.248 1034.89 732.155C1035.81 746.816 1039.24 758.498 1045.21 767.203C1051.63 775.908 1063.32 781.864 1080.29 785.071C1088.09 786.445 1093.82 788.049 1097.49 789.881C1101.16 791.714 1102.99 794.234 1102.99 797.441C1102.99 800.189 1101.16 802.022 1097.49 802.938C1093.82 804.313 1089 805 1083.04 805C1070.66 805 1061.03 804.542 1054.15 803.626C1047.73 802.709 1041.77 802.022 1036.26 801.564C1031.22 800.648 1024.34 800.189 1015.63 800.189C1004.62 800.189 994.76 800.648 986.046 801.564C977.791 802.022 969.307 802.709 960.593 803.626C951.88 804.542 941.332 805 928.949 805Z" fill="black"/>
</svg>
