<svg width="1536" height="1152" viewBox="0 0 1536 1152" fill="none" xmlns="http://www.w3.org/2000/svg">
<rect width="1536" height="1152" fill="#808080"/>
<rect width="595" height="842" transform="translate(173 154)" fill="white"/>
<path d="M265.483 803.125C264.976 803.125 263.961 802.702 262.438 801.856C260.972 801.009 259.563 799.655 258.209 797.793C257.984 797.511 257.279 796.665 256.095 795.254C254.967 793.844 253.501 792.095 251.697 790.007C249.949 787.863 248.032 785.55 245.946 783.068C243.859 780.585 241.773 778.103 239.687 775.62C237.601 773.138 235.655 770.853 233.851 768.765C232.047 766.621 230.524 764.844 229.284 763.434C228.1 761.967 227.367 761.064 227.085 760.726C226.69 760.218 226.352 759.879 226.07 759.71C225.788 759.484 225.534 759.371 225.309 759.371C225.027 759.371 224.829 759.597 224.717 760.049C224.604 760.443 224.547 760.81 224.547 761.149C224.491 763.913 224.435 767.101 224.378 770.712C224.322 774.323 224.265 778.046 224.209 781.883C224.153 785.72 224.125 789.387 224.125 792.885C224.125 794.408 224.491 795.819 225.224 797.116C226.013 798.414 227.451 799.26 229.538 799.655C230.496 799.824 231.201 800.022 231.652 800.248C232.103 800.473 232.329 800.784 232.329 801.179C232.329 801.517 232.103 801.743 231.652 801.856C231.201 802.025 230.609 802.109 229.876 802.109C228.353 802.109 227.198 802.053 226.408 801.94C225.675 801.884 224.998 801.827 224.378 801.771C223.814 801.715 222.997 801.686 221.925 801.686C220.911 801.686 220.121 801.715 219.557 801.771C218.993 801.827 218.345 801.884 217.612 801.94C216.879 802.053 215.751 802.109 214.229 802.109C213.496 802.109 212.904 802.025 212.453 801.856C212.002 801.743 211.776 801.517 211.776 801.179C211.776 800.784 212.002 800.473 212.453 800.248C212.904 800.022 213.609 799.796 214.567 799.571C216.202 799.119 217.386 798.301 218.119 797.116C218.852 795.875 219.304 794.38 219.473 792.631C219.698 790.487 219.924 787.666 220.149 784.168C220.375 780.614 220.572 776.664 220.741 772.32C220.911 767.919 220.995 763.405 220.995 758.779C220.995 755.789 220.206 753.645 218.627 752.347C217.105 751.05 215.103 750.006 212.622 749.216C212.396 749.103 211.889 748.877 211.1 748.539C210.367 748.144 210 747.693 210 747.185C210 746.677 210.254 746.367 210.761 746.254C211.269 746.085 211.663 746 211.945 746C213.58 746.056 214.906 746.113 215.92 746.169C216.935 746.169 217.838 746.197 218.627 746.254C219.416 746.31 220.29 746.367 221.249 746.423C222.207 746.423 223.448 746.423 224.97 746.423C225.478 746.423 225.872 746.564 226.154 746.846C226.436 747.128 226.718 747.467 227 747.862C227.226 748.2 227.959 749.16 229.199 750.739C230.496 752.263 232.075 754.209 233.936 756.579C235.853 758.892 237.939 761.431 240.194 764.195C242.45 766.904 244.705 769.64 246.961 772.404C249.216 775.113 251.302 777.651 253.219 780.021C255.136 782.334 256.715 784.253 257.956 785.776C259.253 787.299 260.014 788.202 260.239 788.484C260.465 788.71 260.775 789.048 261.17 789.5C261.621 789.951 262.015 790.177 262.354 790.177C262.861 790.177 263.143 789.584 263.2 788.399C263.2 787.61 263.2 786.114 263.2 783.914C263.256 781.657 263.284 778.949 263.284 775.79C263.34 772.574 263.369 769.104 263.369 765.38C263.369 761.656 263.369 757.848 263.369 753.955C263.312 752.827 262.72 751.811 261.593 750.909C260.465 750.006 259.422 749.47 258.463 749.301C257.505 749.131 256.631 748.906 255.841 748.624C255.052 748.341 254.657 748.003 254.657 747.608C254.657 747.269 255.052 747.044 255.841 746.931C256.631 746.762 257.392 746.677 258.125 746.677C258.689 746.677 259.224 746.677 259.732 746.677C260.296 746.677 260.831 746.677 261.339 746.677C261.903 746.677 262.438 746.677 262.946 746.677C264.299 746.677 265.37 746.677 266.16 746.677C266.949 746.621 267.795 746.564 268.697 746.508C269.656 746.451 270.981 746.423 272.672 746.423C273.405 746.423 273.997 746.508 274.448 746.677C274.899 746.79 275.125 747.016 275.125 747.354C275.125 748.144 274.195 748.708 272.334 749.047C270.248 749.442 268.866 749.949 268.19 750.57C267.513 751.191 267.118 752.206 267.006 753.617C267.006 753.899 266.977 754.999 266.921 756.917C266.921 758.835 266.921 761.262 266.921 764.195C266.921 767.129 266.893 770.289 266.836 773.674C266.836 777.059 266.836 780.444 266.836 783.829C266.836 787.158 266.836 790.148 266.836 792.8C266.836 794.154 266.865 795.395 266.921 796.524C267.034 797.596 267.118 798.527 267.175 799.317C267.231 800.05 267.259 800.614 267.259 801.009C267.259 801.912 267.062 802.476 266.667 802.702C266.329 802.984 265.934 803.125 265.483 803.125Z" fill="black"/>
<rect width="595" height="842" transform="translate(768 155)" fill="white"/>
<path d="M807.494 804.125C806.748 804.125 806.147 804.039 805.688 803.867C805.229 803.753 805 803.524 805 803.18C805 802.493 805.946 801.977 807.838 801.634C810.016 801.233 811.507 800.574 812.309 799.658C813.169 798.742 813.599 797.224 813.599 795.105V758.855C813.599 756.277 813.255 754.302 812.567 752.927C811.936 751.553 810.532 750.665 808.354 750.264C807.379 750.092 806.662 749.863 806.204 749.577C805.745 749.291 805.516 748.947 805.516 748.546C805.516 748.203 805.745 747.974 806.204 747.859C806.662 747.687 807.264 747.601 808.01 747.601C810.131 747.601 811.908 747.63 813.341 747.687C814.831 747.744 816.293 747.802 817.726 747.859C819.16 747.859 820.851 747.859 822.8 747.859C824.462 747.859 826.239 747.859 828.131 747.859C830.023 747.859 831.857 747.859 833.634 747.859C835.469 747.859 837.074 747.716 838.45 747.43C839.883 747.143 841.115 747 842.147 747C842.434 747 842.749 747.057 843.093 747.172C843.437 747.286 843.638 747.487 843.695 747.773C843.81 748.403 843.896 749.348 843.953 750.608C844.01 751.811 844.039 752.985 844.039 754.13C844.096 755.275 844.125 756.048 844.125 756.449C844.125 757.652 843.867 758.253 843.351 758.253C843.064 758.253 842.807 758.167 842.577 757.995C842.348 757.766 842.176 757.509 842.061 757.222C841.832 756.249 841.545 755.418 841.201 754.731C840.857 753.987 840.485 753.414 840.084 753.013C839.281 752.097 838.392 751.496 837.418 751.209C836.443 750.866 835.411 750.694 834.322 750.694H823.402C822.083 750.694 821.281 751.123 820.994 751.982C820.707 752.841 820.535 753.844 820.478 754.989C820.421 756.077 820.392 757.423 820.392 759.026C820.392 760.573 820.392 762.09 820.392 763.579C820.392 765.011 820.392 766.471 820.392 767.96C820.392 769.449 820.421 770.709 820.478 771.74C820.478 772.198 820.507 772.628 820.564 773.028C820.679 773.429 820.937 773.63 821.338 773.63C823.172 773.63 825.035 773.601 826.927 773.544C828.819 773.429 830.281 773.372 831.313 773.372C832.574 773.372 833.663 773.028 834.58 772.341C835.497 771.654 836.157 770.824 836.558 769.85C836.673 769.621 836.902 769.335 837.246 768.991C837.59 768.59 837.876 768.39 838.106 768.39C838.335 768.39 838.593 768.533 838.88 768.819C839.166 769.048 839.281 769.363 839.224 769.764C839.166 770.738 839.109 771.597 839.052 772.341C838.994 773.086 838.966 773.802 838.966 774.489C838.966 775.348 838.994 776.235 839.052 777.152C839.109 778.011 839.166 779.07 839.224 780.33C839.224 780.731 839.166 781.075 839.052 781.361C838.994 781.647 838.794 781.79 838.45 781.79C837.876 781.79 837.418 781.533 837.074 781.017C836.787 780.502 836.587 780.101 836.472 779.815C836.071 778.497 835.469 777.61 834.666 777.152C833.864 776.636 833.118 776.379 832.43 776.379C831.685 776.379 830.94 776.379 830.195 776.379C829.507 776.321 828.819 776.293 828.131 776.293C827.157 776.293 826.211 776.293 825.293 776.293C824.376 776.293 823.459 776.35 822.542 776.464C821.968 776.522 821.481 776.722 821.08 777.066C820.679 777.352 820.478 777.868 820.478 778.612C820.478 781.246 820.478 783.938 820.478 786.687C820.535 789.378 820.621 792.156 820.736 795.019C820.851 796.852 821.281 798.312 822.026 799.4C822.828 800.488 824.29 801.233 826.411 801.634C827.386 801.806 828.102 802.006 828.561 802.235C829.02 802.464 829.249 802.779 829.249 803.18C829.249 803.524 829.02 803.753 828.561 803.867C828.102 804.039 827.5 804.125 826.755 804.125C825.207 804.125 824.004 804.068 823.144 803.953C822.341 803.839 821.596 803.753 820.908 803.695C820.277 803.581 819.417 803.524 818.328 803.524C816.952 803.524 815.72 803.581 814.631 803.695C813.599 803.753 812.538 803.839 811.449 803.953C810.36 804.068 809.041 804.125 807.494 804.125Z" fill="black"/>
<path d="M846.987 804.25C845.497 804.25 844.293 804.078 843.376 803.735C842.459 803.506 842 803.047 842 802.36C842 800.986 843.892 799.955 847.675 799.268C852.032 798.466 855.013 797.149 856.618 795.316C858.338 793.484 859.198 790.448 859.198 786.211V713.709C859.198 708.555 858.51 704.603 857.134 701.855C855.873 699.106 853.064 697.33 848.707 696.529C846.758 696.185 845.325 695.727 844.408 695.154C843.49 694.581 843.032 693.894 843.032 693.092C843.032 692.405 843.49 691.947 844.408 691.718C845.325 691.374 846.529 691.203 848.019 691.203C852.261 691.203 855.816 691.26 858.682 691.374C861.663 691.489 864.586 691.604 867.453 691.718C870.319 691.718 873.701 691.718 877.599 691.718C880.924 691.718 884.479 691.718 888.262 691.718C892.046 691.718 895.714 691.718 899.269 691.718C902.938 691.718 906.148 691.432 908.899 690.859C911.766 690.286 914.231 690 916.295 690C916.868 690 917.498 690.115 918.186 690.344C918.874 690.573 919.275 690.974 919.39 691.546C919.619 692.806 919.791 694.696 919.906 697.216C920.021 699.621 920.078 701.969 920.078 704.26C920.193 706.55 920.25 708.097 920.25 708.898C920.25 711.304 919.734 712.506 918.702 712.506C918.129 712.506 917.613 712.335 917.154 711.991C916.696 711.533 916.352 711.017 916.123 710.445C915.664 708.498 915.091 706.837 914.403 705.462C913.715 703.973 912.97 702.828 912.167 702.026C910.562 700.194 908.785 698.991 906.836 698.418C904.887 697.731 902.823 697.388 900.645 697.388H878.803C876.166 697.388 874.561 698.247 873.988 699.965C873.415 701.683 873.071 703.687 872.956 705.978C872.841 708.154 872.784 710.846 872.784 714.053C872.784 717.145 872.784 720.18 872.784 723.158C872.784 726.022 872.784 728.942 872.784 731.92C872.784 734.898 872.841 737.418 872.956 739.48C872.956 740.396 873.013 741.255 873.128 742.057C873.357 742.859 873.873 743.259 874.676 743.259C878.345 743.259 882.071 743.202 885.854 743.088C889.638 742.859 892.562 742.744 894.625 742.744C897.148 742.744 899.326 742.057 901.16 740.682C902.995 739.308 904.313 737.647 905.116 735.7C905.345 735.242 905.804 734.669 906.492 733.982C907.18 733.18 907.753 732.779 908.212 732.779C908.67 732.779 909.186 733.066 909.759 733.638C910.333 734.096 910.562 734.726 910.447 735.528C910.333 737.475 910.218 739.193 910.103 740.682C909.989 742.171 909.931 743.603 909.931 744.977C909.931 746.695 909.989 748.471 910.103 750.303C910.218 752.021 910.333 754.14 910.447 756.66C910.447 757.462 910.333 758.149 910.103 758.722C909.989 759.294 909.587 759.581 908.899 759.581C907.753 759.581 906.836 759.065 906.148 758.035C905.575 757.004 905.173 756.202 904.944 755.629C904.141 752.995 902.938 751.22 901.332 750.303C899.727 749.273 898.237 748.757 896.861 748.757C895.371 748.757 893.88 748.757 892.39 748.757C891.014 748.643 889.638 748.585 888.262 748.585C886.313 748.585 884.421 748.585 882.587 748.585C880.752 748.585 878.918 748.7 877.084 748.929C875.937 749.043 874.962 749.444 874.16 750.132C873.357 750.704 872.956 751.735 872.956 753.224C872.956 758.493 872.956 763.876 872.956 769.374C873.071 774.757 873.243 780.312 873.472 786.039C873.701 789.704 874.561 792.625 876.052 794.801C877.657 796.977 880.58 798.466 884.823 799.268C886.772 799.611 888.205 800.012 889.122 800.47C890.039 800.928 890.498 801.558 890.498 802.36C890.498 803.047 890.039 803.506 889.122 803.735C888.205 804.078 887.001 804.25 885.51 804.25C882.415 804.25 880.007 804.135 878.287 803.906C876.682 803.677 875.192 803.506 873.816 803.391C872.555 803.162 870.835 803.047 868.657 803.047C865.905 803.047 863.44 803.162 861.262 803.391C859.198 803.506 857.077 803.677 854.898 803.906C852.72 804.135 850.083 804.25 846.987 804.25Z" fill="black"/>
<path d="M912.975 803.5C909.994 803.5 907.586 803.156 905.752 802.469C903.917 802.011 903 801.095 903 799.72C903 796.971 906.784 794.91 914.351 793.535C923.064 791.932 929.026 789.298 932.236 785.632C935.676 781.967 937.396 775.897 937.396 767.421V622.418C937.396 612.11 936.02 604.207 933.268 598.709C930.746 593.211 925.128 589.661 916.414 588.057C912.516 587.37 909.65 586.454 907.815 585.308C905.981 584.163 905.064 582.788 905.064 581.185C905.064 579.811 905.981 578.894 907.815 578.436C909.65 577.749 912.058 577.405 915.038 577.405C923.523 577.405 930.631 577.52 936.364 577.749C942.326 577.978 948.173 578.207 953.905 578.436C959.638 578.436 966.403 578.436 974.199 578.436C980.849 578.436 987.957 578.436 995.524 578.436C1003.09 578.436 1010.43 578.436 1017.54 578.436C1024.88 578.436 1031.3 577.863 1036.8 576.718C1042.53 575.573 1047.46 575 1051.59 575C1052.74 575 1054 575.229 1055.37 575.687C1056.75 576.145 1057.55 576.947 1057.78 578.092C1058.24 580.612 1058.58 584.392 1058.81 589.432C1059.04 594.242 1059.16 598.938 1059.16 603.52C1059.39 608.101 1059.5 611.193 1059.5 612.797C1059.5 617.608 1058.47 620.013 1056.4 620.013C1055.26 620.013 1054.23 619.669 1053.31 618.982C1052.39 618.066 1051.7 617.035 1051.25 615.889C1050.33 611.995 1049.18 608.674 1047.81 605.925C1046.43 602.947 1044.94 600.656 1043.33 599.053C1040.12 595.387 1036.57 592.982 1032.67 591.837C1028.77 590.462 1024.65 589.775 1020.29 589.775H976.607C971.333 589.775 968.122 591.493 966.976 594.929C965.829 598.365 965.141 602.374 964.912 606.956C964.683 611.308 964.568 616.691 964.568 623.105C964.568 629.29 964.568 635.361 964.568 641.317C964.568 647.043 964.568 652.885 964.568 658.841C964.568 664.796 964.683 669.836 964.912 673.959C964.912 675.792 965.027 677.51 965.256 679.114C965.715 680.717 966.747 681.519 968.352 681.519C975.689 681.519 983.142 681.404 990.709 681.175C998.276 680.717 1004.12 680.488 1008.25 680.488C1013.3 680.488 1017.65 679.114 1021.32 676.365C1024.99 673.616 1027.63 670.294 1029.23 666.4C1029.69 665.484 1030.61 664.338 1031.98 662.964C1033.36 661.36 1034.51 660.559 1035.42 660.559C1036.34 660.559 1037.37 661.131 1038.52 662.277C1039.67 663.193 1040.12 664.453 1039.89 666.056C1039.67 669.951 1039.44 673.387 1039.21 676.365C1038.98 679.343 1038.86 682.206 1038.86 684.955C1038.86 688.391 1038.98 691.942 1039.21 695.607C1039.44 699.043 1039.67 703.281 1039.89 708.32C1039.89 709.924 1039.67 711.298 1039.21 712.444C1038.98 713.589 1038.17 714.162 1036.8 714.162C1034.51 714.162 1032.67 713.131 1031.3 711.069C1030.15 709.008 1029.35 707.404 1028.89 706.259C1027.28 700.99 1024.88 697.439 1021.66 695.607C1018.45 693.545 1015.47 692.514 1012.72 692.514C1009.74 692.514 1006.76 692.514 1003.78 692.514C1001.03 692.285 998.276 692.171 995.524 692.171C991.626 692.171 987.842 692.171 984.174 692.171C980.505 692.171 976.836 692.4 973.167 692.858C970.874 693.087 968.925 693.889 967.32 695.263C965.715 696.409 964.912 698.47 964.912 701.448C964.912 711.985 964.912 722.752 964.912 733.747C965.141 744.514 965.485 755.624 965.944 767.077C966.403 774.408 968.122 780.249 971.103 784.602C974.314 788.954 980.161 791.932 988.645 793.535C992.543 794.223 995.41 795.024 997.244 795.941C999.078 796.857 999.996 798.117 999.996 799.72C999.996 801.095 999.078 802.011 997.244 802.469C995.41 803.156 993.002 803.5 990.021 803.5C983.83 803.5 979.014 803.271 975.575 802.813C972.364 802.355 969.384 802.011 966.632 801.782C964.11 801.324 960.67 801.095 956.313 801.095C950.81 801.095 945.88 801.324 941.523 801.782C937.396 802.011 933.153 802.355 928.797 802.813C924.44 803.271 919.166 803.5 912.975 803.5Z" fill="black"/>
<path d="M1032.95 804C1026.99 804 1022.17 803.313 1018.5 801.938C1014.83 801.022 1013 799.189 1013 796.441C1013 790.943 1020.57 786.82 1035.7 784.071C1053.13 780.864 1065.05 775.595 1071.47 768.265C1078.35 760.934 1081.79 748.793 1081.79 731.842V441.836C1081.79 421.22 1079.04 405.414 1073.54 394.418C1068.49 383.423 1057.26 376.321 1039.83 373.114C1032.03 371.74 1026.3 369.907 1022.63 367.617C1018.96 365.326 1017.13 362.577 1017.13 359.37C1017.13 356.621 1018.96 354.788 1022.63 353.872C1026.3 352.498 1031.12 351.811 1037.08 351.811C1054.05 351.811 1068.26 352.04 1079.73 352.498C1091.65 352.956 1103.35 353.414 1114.81 353.872C1126.28 353.872 1139.81 353.872 1155.4 353.872C1168.7 353.872 1182.91 353.872 1198.05 353.872C1213.18 353.872 1227.86 353.872 1242.07 353.872C1256.75 353.872 1269.59 352.727 1280.6 350.436C1292.06 348.145 1301.92 347 1310.18 347C1312.47 347 1314.99 347.458 1317.75 348.374C1320.5 349.291 1322.1 350.894 1322.56 353.185C1323.48 358.225 1324.17 365.784 1324.62 375.863C1325.08 385.484 1325.31 394.876 1325.31 404.039C1325.77 413.202 1326 419.387 1326 422.594C1326 432.215 1323.94 437.026 1319.81 437.026C1317.52 437.026 1315.45 436.338 1313.62 434.964C1311.78 433.131 1310.41 431.07 1309.49 428.779C1307.66 420.99 1305.36 414.347 1302.61 408.85C1299.86 402.894 1296.88 398.312 1293.67 395.105C1287.25 387.775 1280.14 382.964 1272.34 380.674C1264.55 377.925 1256.29 376.55 1247.58 376.55H1160.21C1149.67 376.55 1143.24 379.986 1140.95 386.859C1138.66 393.731 1137.28 401.748 1136.82 410.911C1136.37 419.616 1136.14 430.382 1136.14 443.211C1136.14 455.58 1136.14 467.721 1136.14 479.633C1136.14 491.087 1136.14 502.769 1136.14 514.681C1136.14 526.593 1136.37 536.672 1136.82 544.919C1136.82 548.584 1137.05 552.02 1137.51 555.227C1138.43 558.434 1140.49 560.038 1143.7 560.038C1158.38 560.038 1173.28 559.809 1188.42 559.35C1203.55 558.434 1215.25 557.976 1223.5 557.976C1233.59 557.976 1242.3 555.227 1249.64 549.729C1256.98 544.232 1262.25 537.588 1265.46 529.8C1266.38 527.967 1268.22 525.677 1270.97 522.928C1273.72 519.721 1276.01 518.117 1277.85 518.117C1279.68 518.117 1281.74 519.263 1284.04 521.553C1286.33 523.386 1287.25 525.906 1286.79 529.113C1286.33 536.901 1285.87 543.773 1285.41 549.729C1284.95 555.685 1284.73 561.412 1284.73 566.91C1284.73 573.782 1284.95 580.883 1285.41 588.214C1285.87 595.086 1286.33 603.561 1286.79 613.641C1286.79 616.848 1286.33 619.596 1285.41 621.887C1284.95 624.178 1283.35 625.323 1280.6 625.323C1276.01 625.323 1272.34 623.262 1269.59 619.138C1267.3 615.015 1265.69 611.808 1264.78 609.517C1261.57 598.98 1256.75 591.879 1250.33 588.214C1243.91 584.09 1237.95 582.029 1232.44 582.029C1226.48 582.029 1220.52 582.029 1214.56 582.029C1209.05 581.57 1203.55 581.341 1198.05 581.341C1190.25 581.341 1182.68 581.341 1175.35 581.341C1168.01 581.341 1160.67 581.8 1153.33 582.716C1148.75 583.174 1144.85 584.777 1141.64 587.526C1138.43 589.817 1136.82 593.94 1136.82 599.896C1136.82 620.971 1136.82 642.504 1136.82 664.495C1137.28 686.028 1137.97 708.248 1138.89 731.155C1139.81 745.816 1143.24 757.498 1149.21 766.203C1155.63 774.908 1167.32 780.864 1184.29 784.071C1192.09 785.445 1197.82 787.049 1201.49 788.881C1205.16 790.714 1206.99 793.234 1206.99 796.441C1206.99 799.189 1205.16 801.022 1201.49 801.938C1197.82 803.313 1193 804 1187.04 804C1174.66 804 1165.03 803.542 1158.15 802.626C1151.73 801.709 1145.77 801.022 1140.26 800.564C1135.22 799.648 1128.34 799.189 1119.63 799.189C1108.62 799.189 1098.76 799.648 1090.05 800.564C1081.79 801.022 1073.31 801.709 1064.59 802.626C1055.88 803.542 1045.33 804 1032.95 804Z" fill="black"/>
</svg>
