<svg width="1536" height="1152" viewBox="0 0 1536 1152" fill="none" xmlns="http://www.w3.org/2000/svg">
<rect width="1536" height="1152" fill="#808080"/>
<g clip-path="url(#clip0_3_1370)">
<rect width="595" height="842" transform="translate(768 155)" fill="white"/>
<path d="M219.975 803.533C216.994 803.533 214.586 803.189 212.752 802.502C210.917 802.044 210 801.128 210 799.753C210 797.004 213.784 794.943 221.351 793.568C230.064 791.965 236.026 789.33 239.236 785.665C242.676 782 244.396 775.93 244.396 767.454V622.451C244.396 612.143 243.02 604.24 240.268 598.742C237.746 593.244 232.128 589.694 223.414 588.09C219.516 587.403 216.65 586.487 214.815 585.341C212.981 584.196 212.064 582.821 212.064 581.218C212.064 579.843 212.981 578.927 214.815 578.469C216.65 577.782 219.058 577.438 222.038 577.438C230.523 577.438 237.631 577.553 243.364 577.782C249.326 578.011 255.173 578.24 260.905 578.469C266.638 578.469 273.403 578.469 281.199 578.469C287.849 578.469 294.957 578.469 302.524 578.469C310.091 578.469 904.117 578.436 911.225 578.436C918.563 578.436 924.984 577.863 930.487 576.718C936.22 575.573 941.15 575 945.277 575C946.424 575 947.685 575.229 949.061 575.687C950.436 576.145 951.239 576.947 951.468 578.092C951.927 580.612 952.271 584.392 952.5 589.432C952.729 594.242 952.844 598.938 952.844 603.52C953.073 608.101 953.188 611.193 953.188 612.797C953.188 617.608 952.156 620.013 950.092 620.013C948.946 620.013 947.914 619.669 946.997 618.982C946.079 618.066 945.392 617.035 944.933 615.889C944.016 611.995 942.869 608.674 941.493 605.925C940.118 602.947 938.627 600.656 937.022 599.053C933.812 595.387 930.258 592.982 926.359 591.837C922.461 590.462 918.334 589.775 913.977 589.775L283.607 589.808C278.333 589.808 275.122 591.526 273.976 594.962C272.829 598.398 272.141 602.407 271.912 606.989C271.683 611.341 271.568 616.724 271.568 623.138C271.568 629.323 271.568 635.394 271.568 641.349C271.568 647.076 271.568 652.918 271.568 658.874C271.568 664.829 271.683 669.869 271.912 673.992C271.912 675.825 272.027 677.543 272.256 679.146C272.715 680.75 273.747 681.552 275.352 681.552C282.689 681.552 290.142 681.437 297.709 681.208C305.276 680.75 311.123 680.521 315.251 680.521C320.295 680.521 324.652 679.146 328.321 676.398C331.99 673.649 334.627 670.327 336.232 666.433C336.69 665.517 337.608 664.371 338.984 662.997C340.359 661.393 341.506 660.592 342.423 660.592C343.34 660.592 344.372 661.164 345.519 662.31C346.665 663.226 347.124 664.486 346.895 666.089C346.665 669.984 346.436 673.42 346.207 676.398C345.977 679.376 345.863 682.239 345.863 684.988C345.863 688.424 345.977 691.974 346.207 695.64C346.436 699.076 346.665 703.314 346.895 708.353C346.895 709.957 346.665 711.331 346.207 712.476C345.977 713.622 345.175 714.195 343.799 714.195C341.506 714.195 339.671 713.164 338.296 711.102C337.149 709.04 336.347 707.437 335.888 706.292C334.283 701.023 331.875 697.472 328.665 695.64C325.455 693.578 322.474 692.547 319.722 692.547C316.741 692.547 313.76 692.547 310.779 692.547C308.027 692.318 305.276 692.204 302.524 692.204C298.626 692.204 294.842 692.204 291.174 692.204C287.505 692.204 283.836 692.433 280.167 692.891C277.874 693.12 275.925 693.922 274.32 695.296C272.715 696.441 271.912 698.503 271.912 701.481C271.912 712.018 271.912 722.785 271.912 733.78C272.141 744.547 272.485 755.657 272.944 767.11C273.403 774.441 275.122 780.282 278.103 784.634C281.314 788.987 287.161 791.965 295.645 793.568C299.543 794.255 302.41 795.057 304.244 795.973C306.078 796.89 306.996 798.15 306.996 799.753C306.996 801.128 306.078 802.044 304.244 802.502C302.41 803.189 300.002 803.533 297.021 803.533C290.83 803.533 286.014 803.304 282.575 802.846C279.364 802.388 276.384 802.044 273.632 801.815C271.11 801.357 267.67 801.128 263.313 801.128C257.81 801.128 252.88 801.357 248.523 801.815C244.396 802.044 240.153 802.388 235.797 802.846C231.44 803.304 226.166 803.533 219.975 803.533Z" fill="black"/>
<path d="M219.975 803.533C216.994 803.533 214.586 803.189 212.752 802.502C210.917 802.044 210 801.128 210 799.753C210 797.004 213.784 794.943 221.351 793.568C230.064 791.965 236.026 789.33 239.236 785.665C242.676 782 244.396 775.93 244.396 767.454V622.451C244.396 612.143 243.02 604.24 240.268 598.742C237.746 593.244 232.128 589.694 223.414 588.09C219.516 587.403 216.65 586.487 214.815 585.341C212.981 584.196 212.064 582.821 212.064 581.218C212.064 579.843 212.981 578.927 214.815 578.469C216.65 577.782 219.058 577.438 222.038 577.438C230.523 577.438 237.631 577.553 243.364 577.782C249.326 578.011 255.173 578.24 260.905 578.469C266.638 578.469 273.403 578.469 281.199 578.469C287.849 578.469 294.957 578.469 302.524 578.469C310.091 578.469 904.117 578.436 911.225 578.436C918.563 578.436 924.984 577.863 930.487 576.718C936.22 575.573 941.15 575 945.277 575C946.424 575 947.685 575.229 949.061 575.687C950.436 576.145 951.239 576.947 951.468 578.092C951.927 580.612 952.271 584.392 952.5 589.432C952.729 594.242 952.844 598.938 952.844 603.52C953.073 608.101 953.188 611.193 953.188 612.797C953.188 617.608 952.156 620.013 950.092 620.013C948.946 620.013 947.914 619.669 946.997 618.982C946.079 618.066 945.392 617.035 944.933 615.889C944.016 611.995 942.869 608.674 941.493 605.925C940.118 602.947 938.627 600.656 937.022 599.053C933.812 595.387 930.258 592.982 926.359 591.837C922.461 590.462 918.334 589.775 913.977 589.775L283.607 589.808C278.333 589.808 275.122 591.526 273.976 594.962C272.829 598.398 272.141 602.407 271.912 606.989C271.683 611.341 271.568 616.724 271.568 623.138C271.568 629.323 271.568 635.394 271.568 641.349C271.568 647.076 271.568 652.918 271.568 658.874C271.568 664.829 271.683 669.869 271.912 673.992C271.912 675.825 272.027 677.543 272.256 679.146C272.715 680.75 273.747 681.552 275.352 681.552C282.689 681.552 290.142 681.437 297.709 681.208C305.276 680.75 311.123 680.521 315.251 680.521C320.295 680.521 324.652 679.146 328.321 676.398C331.99 673.649 334.627 670.327 336.232 666.433C336.69 665.517 337.608 664.371 338.984 662.997C340.359 661.393 341.506 660.592 342.423 660.592C343.34 660.592 344.372 661.164 345.519 662.31C346.665 663.226 347.124 664.486 346.895 666.089C346.665 669.984 346.436 673.42 346.207 676.398C345.977 679.376 345.863 682.239 345.863 684.988C345.863 688.424 345.977 691.974 346.207 695.64C346.436 699.076 346.665 703.314 346.895 708.353C346.895 709.957 346.665 711.331 346.207 712.476C345.977 713.622 345.175 714.195 343.799 714.195C341.506 714.195 339.671 713.164 338.296 711.102C337.149 709.04 336.347 707.437 335.888 706.292C334.283 701.023 331.875 697.472 328.665 695.64C325.455 693.578 322.474 692.547 319.722 692.547C316.741 692.547 313.76 692.547 310.779 692.547C308.027 692.318 305.276 692.204 302.524 692.204C298.626 692.204 294.842 692.204 291.174 692.204C287.505 692.204 283.836 692.433 280.167 692.891C277.874 693.12 275.925 693.922 274.32 695.296C272.715 696.441 271.912 698.503 271.912 701.481C271.912 712.018 271.912 722.785 271.912 733.78C272.141 744.547 272.485 755.657 272.944 767.11C273.403 774.441 275.122 780.282 278.103 784.634C281.314 788.987 287.161 791.965 295.645 793.568C299.543 794.255 302.41 795.057 304.244 795.973C306.078 796.89 306.996 798.15 306.996 799.753C306.996 801.128 306.078 802.044 304.244 802.502C302.41 803.189 300.002 803.533 297.021 803.533C290.83 803.533 286.014 803.304 282.575 802.846C279.364 802.388 276.384 802.044 273.632 801.815C271.11 801.357 267.67 801.128 263.313 801.128C257.81 801.128 252.88 801.357 248.523 801.815C244.396 802.044 240.153 802.388 235.797 802.846C231.44 803.304 226.166 803.533 219.975 803.533Z" fill="black"/>
<path d="M220.475 803.533C217.494 803.533 215.086 803.189 213.252 802.502C211.417 802.044 210.5 801.128 210.5 799.753C210.5 797.004 214.284 794.943 221.851 793.568C230.564 791.965 236.526 789.33 239.736 785.665C243.176 782 244.896 775.93 244.896 767.454V622.451C244.896 612.143 243.52 604.24 240.768 598.742C238.246 593.244 232.628 589.694 223.914 588.09C220.016 587.403 217.15 586.487 215.315 585.341C213.481 584.196 212.564 582.821 212.564 581.218C212.564 579.843 213.481 578.927 215.315 578.469C217.15 577.782 219.558 577.438 222.538 577.438C231.023 577.438 238.131 577.553 243.864 577.782C249.826 578.011 255.673 578.24 261.405 578.469C267.138 578.469 273.903 578.469 281.699 578.469C288.349 578.469 295.457 578.469 303.024 578.469C310.591 578.469 1277.12 578.436 1284.23 578.436C1291.56 578.436 1297.98 577.863 1303.49 576.718C1309.22 575.573 1314.15 575 1318.28 575C1319.42 575 1320.68 575.229 1322.06 575.687C1323.44 576.145 1324.24 576.947 1324.47 578.092C1324.93 580.612 1325.27 584.392 1325.5 589.432C1325.73 594.242 1325.84 598.938 1325.84 603.52C1326.07 608.101 1326.19 611.193 1326.19 612.797C1326.19 617.608 1325.16 620.013 1323.09 620.013C1321.95 620.013 1320.91 619.669 1320 618.982C1319.08 618.066 1318.39 617.035 1317.93 615.889C1317.02 611.995 1315.87 608.674 1314.49 605.925C1313.12 602.947 1311.63 600.656 1310.02 599.053C1306.81 595.387 1303.26 592.982 1299.36 591.837C1295.46 590.462 1291.33 589.775 1286.98 589.775L284.107 589.808C278.833 589.808 275.622 591.526 274.476 594.962C273.329 598.398 272.641 602.407 272.412 606.989C272.183 611.341 272.068 616.724 272.068 623.138C272.068 629.323 272.068 635.394 272.068 641.349C272.068 647.076 272.068 652.918 272.068 658.874C272.068 664.829 272.183 669.869 272.412 673.992C272.412 675.825 272.527 677.543 272.756 679.146C273.215 680.75 274.247 681.552 275.852 681.552C283.189 681.552 290.642 681.437 298.209 681.208C305.776 680.75 311.623 680.521 315.751 680.521C320.795 680.521 325.152 679.146 328.821 676.398C332.49 673.649 335.127 670.327 336.732 666.433C337.19 665.517 338.108 664.371 339.484 662.997C340.859 661.393 342.006 660.592 342.923 660.592C343.84 660.592 344.872 661.164 346.019 662.31C347.165 663.226 347.624 664.486 347.395 666.089C347.165 669.984 346.936 673.42 346.707 676.398C346.477 679.376 346.363 682.239 346.363 684.988C346.363 688.424 346.477 691.974 346.707 695.64C346.936 699.076 347.165 703.314 347.395 708.353C347.395 709.957 347.165 711.331 346.707 712.476C346.477 713.622 345.675 714.195 344.299 714.195C342.006 714.195 340.171 713.164 338.796 711.102C337.649 709.04 336.847 707.437 336.388 706.292C334.783 701.023 332.375 697.472 329.165 695.64C325.955 693.578 322.974 692.547 320.222 692.547C317.241 692.547 314.26 692.547 311.279 692.547C308.527 692.318 305.776 692.204 303.024 692.204C299.126 692.204 295.342 692.204 291.674 692.204C288.005 692.204 284.336 692.433 280.667 692.891C278.374 693.12 276.425 693.922 274.82 695.296C273.215 696.441 272.412 698.503 272.412 701.481C272.412 712.018 272.412 722.785 272.412 733.78C272.641 744.547 272.985 755.657 273.444 767.11C273.903 774.441 275.622 780.282 278.603 784.634C281.814 788.987 287.661 791.965 296.145 793.568C300.043 794.255 302.91 795.057 304.744 795.973C306.578 796.89 307.496 798.15 307.496 799.753C307.496 801.128 306.578 802.044 304.744 802.502C302.91 803.189 300.502 803.533 297.521 803.533C291.33 803.533 286.514 803.304 283.075 802.846C279.864 802.388 276.884 802.044 274.132 801.815C271.61 801.357 268.17 801.128 263.813 801.128C258.31 801.128 253.38 801.357 249.023 801.815C244.896 802.044 240.653 802.388 236.297 802.846C231.94 803.304 226.666 803.533 220.475 803.533Z" fill="black"/>
<path d="M220.475 803.533C217.494 803.533 215.086 803.189 213.252 802.502C211.417 802.044 210.5 801.128 210.5 799.753C210.5 797.004 214.284 794.943 221.851 793.568C230.564 791.965 236.526 789.33 239.736 785.665C243.176 782 244.896 775.93 244.896 767.454V622.451C244.896 612.143 243.52 604.24 240.768 598.742C238.246 593.244 232.628 589.694 223.914 588.09C220.016 587.403 217.15 586.487 215.315 585.341C213.481 584.196 212.564 582.821 212.564 581.218C212.564 579.843 213.481 578.927 215.315 578.469C217.15 577.782 219.558 577.438 222.538 577.438C231.023 577.438 238.131 577.553 243.864 577.782C249.826 578.011 255.673 578.24 261.405 578.469C267.138 578.469 273.903 578.469 281.699 578.469C288.349 578.469 295.457 578.469 303.024 578.469C310.591 578.469 1277.12 578.436 1284.23 578.436C1291.56 578.436 1297.98 577.863 1303.49 576.718C1309.22 575.573 1314.15 575 1318.28 575C1319.42 575 1320.68 575.229 1322.06 575.687C1323.44 576.145 1324.24 576.947 1324.47 578.092C1324.93 580.612 1325.27 584.392 1325.5 589.432C1325.73 594.242 1325.84 598.938 1325.84 603.52C1326.07 608.101 1326.19 611.193 1326.19 612.797C1326.19 617.608 1325.16 620.013 1323.09 620.013C1321.95 620.013 1320.91 619.669 1320 618.982C1319.08 618.066 1318.39 617.035 1317.93 615.889C1317.02 611.995 1315.87 608.674 1314.49 605.925C1313.12 602.947 1311.63 600.656 1310.02 599.053C1306.81 595.387 1303.26 592.982 1299.36 591.837C1295.46 590.462 1291.33 589.775 1286.98 589.775L284.107 589.808C278.833 589.808 275.622 591.526 274.476 594.962C273.329 598.398 272.641 602.407 272.412 606.989C272.183 611.341 272.068 616.724 272.068 623.138C272.068 629.323 272.068 635.394 272.068 641.349C272.068 647.076 272.068 652.918 272.068 658.874C272.068 664.829 272.183 669.869 272.412 673.992C272.412 675.825 272.527 677.543 272.756 679.146C273.215 680.75 274.247 681.552 275.852 681.552C283.189 681.552 290.642 681.437 298.209 681.208C305.776 680.75 311.623 680.521 315.751 680.521C320.795 680.521 325.152 679.146 328.821 676.398C332.49 673.649 335.127 670.327 336.732 666.433C337.19 665.517 338.108 664.371 339.484 662.997C340.859 661.393 342.006 660.592 342.923 660.592C343.84 660.592 344.872 661.164 346.019 662.31C347.165 663.226 347.624 664.486 347.395 666.089C347.165 669.984 346.936 673.42 346.707 676.398C346.477 679.376 346.363 682.239 346.363 684.988C346.363 688.424 346.477 691.974 346.707 695.64C346.936 699.076 347.165 703.314 347.395 708.353C347.395 709.957 347.165 711.331 346.707 712.476C346.477 713.622 345.675 714.195 344.299 714.195C342.006 714.195 340.171 713.164 338.796 711.102C337.649 709.04 336.847 707.437 336.388 706.292C334.783 701.023 332.375 697.472 329.165 695.64C325.955 693.578 322.974 692.547 320.222 692.547C317.241 692.547 314.26 692.547 311.279 692.547C308.527 692.318 305.776 692.204 303.024 692.204C299.126 692.204 295.342 692.204 291.674 692.204C288.005 692.204 284.336 692.433 280.667 692.891C278.374 693.12 276.425 693.922 274.82 695.296C273.215 696.441 272.412 698.503 272.412 701.481C272.412 712.018 272.412 722.785 272.412 733.78C272.641 744.547 272.985 755.657 273.444 767.11C273.903 774.441 275.622 780.282 278.603 784.634C281.814 788.987 287.661 791.965 296.145 793.568C300.043 794.255 302.91 795.057 304.744 795.973C306.578 796.89 307.496 798.15 307.496 799.753C307.496 801.128 306.578 802.044 304.744 802.502C302.91 803.189 300.502 803.533 297.521 803.533C291.33 803.533 286.514 803.304 283.075 802.846C279.864 802.388 276.884 802.044 274.132 801.815C271.61 801.357 268.17 801.128 263.813 801.128C258.31 801.128 253.38 801.357 249.023 801.815C244.896 802.044 240.653 802.388 236.297 802.846C231.94 803.304 226.666 803.533 220.475 803.533Z" fill="black"/>
</g>
<g clip-path="url(#clip1_3_1370)">
<rect width="595" height="842" transform="translate(173 155)" fill="white"/>
<path d="M219.975 803.533C216.994 803.533 214.586 803.189 212.752 802.502C210.917 802.044 210 801.128 210 799.753C210 797.004 213.784 794.943 221.351 793.568C230.064 791.965 236.026 789.33 239.236 785.665C242.676 782 244.396 775.93 244.396 767.454V622.451C244.396 612.143 243.02 604.24 240.268 598.742C237.746 593.244 232.128 589.694 223.414 588.09C219.516 587.403 216.65 586.487 214.815 585.341C212.981 584.196 212.064 582.821 212.064 581.218C212.064 579.843 212.981 578.927 214.815 578.469C216.65 577.782 219.058 577.438 222.038 577.438C230.523 577.438 237.631 577.553 243.364 577.782C249.326 578.011 255.173 578.24 260.905 578.469C266.638 578.469 273.403 578.469 281.199 578.469C287.849 578.469 294.957 578.469 302.524 578.469C310.091 578.469 904.117 578.436 911.225 578.436C918.563 578.436 924.984 577.863 930.487 576.718C936.22 575.573 941.15 575 945.277 575C946.424 575 947.685 575.229 949.061 575.687C950.436 576.145 951.239 576.947 951.468 578.092C951.927 580.612 952.271 584.392 952.5 589.432C952.729 594.242 952.844 598.938 952.844 603.52C953.073 608.101 953.188 611.193 953.188 612.797C953.188 617.608 952.156 620.013 950.092 620.013C948.946 620.013 947.914 619.669 946.997 618.982C946.079 618.066 945.392 617.035 944.933 615.889C944.016 611.995 942.869 608.674 941.493 605.925C940.118 602.947 938.627 600.656 937.022 599.053C933.812 595.387 930.258 592.982 926.359 591.837C922.461 590.462 918.334 589.775 913.977 589.775L283.607 589.808C278.333 589.808 275.122 591.526 273.976 594.962C272.829 598.398 272.141 602.407 271.912 606.989C271.683 611.341 271.568 616.724 271.568 623.138C271.568 629.323 271.568 635.394 271.568 641.349C271.568 647.076 271.568 652.918 271.568 658.874C271.568 664.829 271.683 669.869 271.912 673.992C271.912 675.825 272.027 677.543 272.256 679.146C272.715 680.75 273.747 681.552 275.352 681.552C282.689 681.552 290.142 681.437 297.709 681.208C305.276 680.75 311.123 680.521 315.251 680.521C320.295 680.521 324.652 679.146 328.321 676.398C331.99 673.649 334.627 670.327 336.232 666.433C336.69 665.517 337.608 664.371 338.984 662.997C340.359 661.393 341.506 660.592 342.423 660.592C343.34 660.592 344.372 661.164 345.519 662.31C346.665 663.226 347.124 664.486 346.895 666.089C346.665 669.984 346.436 673.42 346.207 676.398C345.977 679.376 345.863 682.239 345.863 684.988C345.863 688.424 345.977 691.974 346.207 695.64C346.436 699.076 346.665 703.314 346.895 708.353C346.895 709.957 346.665 711.331 346.207 712.476C345.977 713.622 345.175 714.195 343.799 714.195C341.506 714.195 339.671 713.164 338.296 711.102C337.149 709.04 336.347 707.437 335.888 706.292C334.283 701.023 331.875 697.472 328.665 695.64C325.455 693.578 322.474 692.547 319.722 692.547C316.741 692.547 313.76 692.547 310.779 692.547C308.027 692.318 305.276 692.204 302.524 692.204C298.626 692.204 294.842 692.204 291.174 692.204C287.505 692.204 283.836 692.433 280.167 692.891C277.874 693.12 275.925 693.922 274.32 695.296C272.715 696.441 271.912 698.503 271.912 701.481C271.912 712.018 271.912 722.785 271.912 733.78C272.141 744.547 272.485 755.657 272.944 767.11C273.403 774.441 275.122 780.282 278.103 784.634C281.314 788.987 287.161 791.965 295.645 793.568C299.543 794.255 302.41 795.057 304.244 795.973C306.078 796.89 306.996 798.15 306.996 799.753C306.996 801.128 306.078 802.044 304.244 802.502C302.41 803.189 300.002 803.533 297.021 803.533C290.83 803.533 286.014 803.304 282.575 802.846C279.364 802.388 276.384 802.044 273.632 801.815C271.11 801.357 267.67 801.128 263.313 801.128C257.81 801.128 252.88 801.357 248.523 801.815C244.396 802.044 240.153 802.388 235.797 802.846C231.44 803.304 226.166 803.533 219.975 803.533Z" fill="black"/>
<path d="M219.975 803.533C216.994 803.533 214.586 803.189 212.752 802.502C210.917 802.044 210 801.128 210 799.753C210 797.004 213.784 794.943 221.351 793.568C230.064 791.965 236.026 789.33 239.236 785.665C242.676 782 244.396 775.93 244.396 767.454V622.451C244.396 612.143 243.02 604.24 240.268 598.742C237.746 593.244 232.128 589.694 223.414 588.09C219.516 587.403 216.65 586.487 214.815 585.341C212.981 584.196 212.064 582.821 212.064 581.218C212.064 579.843 212.981 578.927 214.815 578.469C216.65 577.782 219.058 577.438 222.038 577.438C230.523 577.438 237.631 577.553 243.364 577.782C249.326 578.011 255.173 578.24 260.905 578.469C266.638 578.469 273.403 578.469 281.199 578.469C287.849 578.469 294.957 578.469 302.524 578.469C310.091 578.469 904.117 578.436 911.225 578.436C918.563 578.436 924.984 577.863 930.487 576.718C936.22 575.573 941.15 575 945.277 575C946.424 575 947.685 575.229 949.061 575.687C950.436 576.145 951.239 576.947 951.468 578.092C951.927 580.612 952.271 584.392 952.5 589.432C952.729 594.242 952.844 598.938 952.844 603.52C953.073 608.101 953.188 611.193 953.188 612.797C953.188 617.608 952.156 620.013 950.092 620.013C948.946 620.013 947.914 619.669 946.997 618.982C946.079 618.066 945.392 617.035 944.933 615.889C944.016 611.995 942.869 608.674 941.493 605.925C940.118 602.947 938.627 600.656 937.022 599.053C933.812 595.387 930.258 592.982 926.359 591.837C922.461 590.462 918.334 589.775 913.977 589.775L283.607 589.808C278.333 589.808 275.122 591.526 273.976 594.962C272.829 598.398 272.141 602.407 271.912 606.989C271.683 611.341 271.568 616.724 271.568 623.138C271.568 629.323 271.568 635.394 271.568 641.349C271.568 647.076 271.568 652.918 271.568 658.874C271.568 664.829 271.683 669.869 271.912 673.992C271.912 675.825 272.027 677.543 272.256 679.146C272.715 680.75 273.747 681.552 275.352 681.552C282.689 681.552 290.142 681.437 297.709 681.208C305.276 680.75 311.123 680.521 315.251 680.521C320.295 680.521 324.652 679.146 328.321 676.398C331.99 673.649 334.627 670.327 336.232 666.433C336.69 665.517 337.608 664.371 338.984 662.997C340.359 661.393 341.506 660.592 342.423 660.592C343.34 660.592 344.372 661.164 345.519 662.31C346.665 663.226 347.124 664.486 346.895 666.089C346.665 669.984 346.436 673.42 346.207 676.398C345.977 679.376 345.863 682.239 345.863 684.988C345.863 688.424 345.977 691.974 346.207 695.64C346.436 699.076 346.665 703.314 346.895 708.353C346.895 709.957 346.665 711.331 346.207 712.476C345.977 713.622 345.175 714.195 343.799 714.195C341.506 714.195 339.671 713.164 338.296 711.102C337.149 709.04 336.347 707.437 335.888 706.292C334.283 701.023 331.875 697.472 328.665 695.64C325.455 693.578 322.474 692.547 319.722 692.547C316.741 692.547 313.76 692.547 310.779 692.547C308.027 692.318 305.276 692.204 302.524 692.204C298.626 692.204 294.842 692.204 291.174 692.204C287.505 692.204 283.836 692.433 280.167 692.891C277.874 693.12 275.925 693.922 274.32 695.296C272.715 696.441 271.912 698.503 271.912 701.481C271.912 712.018 271.912 722.785 271.912 733.78C272.141 744.547 272.485 755.657 272.944 767.11C273.403 774.441 275.122 780.282 278.103 784.634C281.314 788.987 287.161 791.965 295.645 793.568C299.543 794.255 302.41 795.057 304.244 795.973C306.078 796.89 306.996 798.15 306.996 799.753C306.996 801.128 306.078 802.044 304.244 802.502C302.41 803.189 300.002 803.533 297.021 803.533C290.83 803.533 286.014 803.304 282.575 802.846C279.364 802.388 276.384 802.044 273.632 801.815C271.11 801.357 267.67 801.128 263.313 801.128C257.81 801.128 252.88 801.357 248.523 801.815C244.396 802.044 240.153 802.388 235.797 802.846C231.44 803.304 226.166 803.533 219.975 803.533Z" fill="black"/>
<path d="M219.975 803.5C216.994 803.5 214.586 803.156 212.752 802.469C210.917 802.011 210 801.095 210 799.72C210 796.971 213.783 794.91 221.351 793.535C230.064 791.932 236.026 789.297 239.236 785.632C242.676 781.967 244.396 775.897 244.396 767.421V622.418C244.396 612.11 243.02 604.207 240.268 598.709C237.746 593.211 232.128 589.661 223.414 588.057C219.516 587.37 216.65 586.453 214.815 585.308C212.981 584.163 212.064 582.788 212.064 581.185C212.064 579.81 212.981 578.894 214.815 578.436C216.65 577.749 219.057 577.405 222.038 577.405C230.523 577.405 237.631 577.52 243.364 577.749C249.326 577.978 255.173 578.207 260.905 578.436C266.638 578.436 273.403 578.436 281.199 578.436C287.849 578.436 294.957 578.436 302.524 578.436C310.091 578.436 317.429 578.436 324.537 578.436C331.875 578.436 338.296 577.863 343.799 576.718C349.531 575.573 354.462 575 358.589 575C359.736 575 360.997 575.229 362.372 575.687C363.748 576.145 364.551 576.947 364.78 578.092C365.239 580.612 365.583 584.392 365.812 589.431C366.041 594.242 366.156 598.938 366.156 603.519C366.385 608.101 366.5 611.193 366.5 612.797C366.5 617.607 365.468 620.013 363.404 620.013C362.258 620.013 361.226 619.669 360.309 618.982C359.392 618.066 358.704 617.035 358.245 615.889C357.328 611.995 356.181 608.674 354.805 605.925C353.43 602.947 351.939 600.656 350.334 599.053C347.124 595.387 343.57 592.982 339.671 591.837C335.773 590.462 331.646 589.775 327.289 589.775H283.607C278.333 589.775 275.122 591.493 273.976 594.929C272.829 598.365 272.141 602.374 271.912 606.955C271.683 611.308 271.568 616.691 271.568 623.105C271.568 629.29 271.568 635.36 271.568 641.316C271.568 647.043 271.568 652.885 271.568 658.84C271.568 664.796 271.683 669.836 271.912 673.959C271.912 675.792 272.027 677.51 272.256 679.113C272.715 680.717 273.746 681.519 275.352 681.519C282.689 681.519 290.142 681.404 297.709 681.175C305.276 680.717 311.123 680.488 315.251 680.488C320.295 680.488 324.652 679.113 328.321 676.365C331.99 673.616 334.627 670.294 336.232 666.4C336.69 665.484 337.608 664.338 338.984 662.964C340.359 661.36 341.506 660.559 342.423 660.559C343.34 660.559 344.372 661.131 345.519 662.277C346.665 663.193 347.124 664.453 346.894 666.056C346.665 669.95 346.436 673.387 346.207 676.365C345.977 679.342 345.863 682.206 345.863 684.955C345.863 688.391 345.977 691.941 346.207 695.607C346.436 699.043 346.665 703.281 346.894 708.32C346.894 709.924 346.665 711.298 346.207 712.443C345.977 713.589 345.175 714.162 343.799 714.162C341.506 714.162 339.671 713.131 338.296 711.069C337.149 709.007 336.347 707.404 335.888 706.258C334.283 700.99 331.875 697.439 328.665 695.607C325.455 693.545 322.474 692.514 319.722 692.514C316.741 692.514 313.76 692.514 310.779 692.514C308.027 692.285 305.276 692.171 302.524 692.171C298.626 692.171 294.842 692.171 291.174 692.171C287.505 692.171 283.836 692.4 280.167 692.858C277.874 693.087 275.925 693.889 274.32 695.263C272.715 696.408 271.912 698.47 271.912 701.448C271.912 711.985 271.912 722.752 271.912 733.747C272.141 744.514 272.485 755.624 272.944 767.077C273.403 774.408 275.122 780.249 278.103 784.601C281.314 788.954 287.161 791.932 295.645 793.535C299.543 794.222 302.409 795.024 304.244 795.94C306.078 796.857 306.996 798.117 306.996 799.72C306.996 801.095 306.078 802.011 304.244 802.469C302.409 803.156 300.002 803.5 297.021 803.5C290.83 803.5 286.014 803.271 282.575 802.813C279.364 802.355 276.383 802.011 273.632 801.782C271.109 801.324 267.67 801.095 263.313 801.095C257.81 801.095 252.88 801.324 248.523 801.782C244.396 802.011 240.153 802.355 235.797 802.813C231.44 803.271 226.166 803.5 219.975 803.5Z" fill="black"/>
<path d="M219.975 803.5C216.994 803.5 214.586 803.156 212.752 802.469C210.917 802.011 210 801.095 210 799.72C210 796.971 213.783 794.91 221.351 793.535C230.064 791.932 236.026 789.297 239.236 785.632C242.676 781.967 244.396 775.897 244.396 767.421V622.418C244.396 612.11 243.02 604.207 240.268 598.709C237.746 593.211 232.128 589.661 223.414 588.057C219.516 587.37 216.65 586.453 214.815 585.308C212.981 584.163 212.064 582.788 212.064 581.185C212.064 579.81 212.981 578.894 214.815 578.436C216.65 577.749 219.057 577.405 222.038 577.405C230.523 577.405 237.631 577.52 243.364 577.749C249.326 577.978 255.173 578.207 260.905 578.436C266.638 578.436 273.403 578.436 281.199 578.436C287.849 578.436 294.957 578.436 302.524 578.436C310.091 578.436 317.429 578.436 324.537 578.436C331.875 578.436 338.296 577.863 343.799 576.718C349.531 575.573 354.462 575 358.589 575C359.736 575 360.997 575.229 362.372 575.687C363.748 576.145 364.551 576.947 364.78 578.092C365.239 580.612 365.583 584.392 365.812 589.431C366.041 594.242 366.156 598.938 366.156 603.519C366.385 608.101 366.5 611.193 366.5 612.797C366.5 617.607 365.468 620.013 363.404 620.013C362.258 620.013 361.226 619.669 360.309 618.982C359.392 618.066 358.704 617.035 358.245 615.889C357.328 611.995 356.181 608.674 354.805 605.925C353.43 602.947 351.939 600.656 350.334 599.053C347.124 595.387 343.57 592.982 339.671 591.837C335.773 590.462 331.646 589.775 327.289 589.775H283.607C278.333 589.775 275.122 591.493 273.976 594.929C272.829 598.365 272.141 602.374 271.912 606.955C271.683 611.308 271.568 616.691 271.568 623.105C271.568 629.29 271.568 635.36 271.568 641.316C271.568 647.043 271.568 652.885 271.568 658.84C271.568 664.796 271.683 669.836 271.912 673.959C271.912 675.792 272.027 677.51 272.256 679.113C272.715 680.717 273.746 681.519 275.352 681.519C282.689 681.519 290.142 681.404 297.709 681.175C305.276 680.717 311.123 680.488 315.251 680.488C320.295 680.488 324.652 679.113 328.321 676.365C331.99 673.616 334.627 670.294 336.232 666.4C336.69 665.484 337.608 664.338 338.984 662.964C340.359 661.36 341.506 660.559 342.423 660.559C343.34 660.559 344.372 661.131 345.519 662.277C346.665 663.193 347.124 664.453 346.894 666.056C346.665 669.95 346.436 673.387 346.207 676.365C345.977 679.342 345.863 682.206 345.863 684.955C345.863 688.391 345.977 691.941 346.207 695.607C346.436 699.043 346.665 703.281 346.894 708.32C346.894 709.924 346.665 711.298 346.207 712.443C345.977 713.589 345.175 714.162 343.799 714.162C341.506 714.162 339.671 713.131 338.296 711.069C337.149 709.007 336.347 707.404 335.888 706.258C334.283 700.99 331.875 697.439 328.665 695.607C325.455 693.545 322.474 692.514 319.722 692.514C316.741 692.514 313.76 692.514 310.779 692.514C308.027 692.285 305.276 692.171 302.524 692.171C298.626 692.171 294.842 692.171 291.174 692.171C287.505 692.171 283.836 692.4 280.167 692.858C277.874 693.087 275.925 693.889 274.32 695.263C272.715 696.408 271.912 698.47 271.912 701.448C271.912 711.985 271.912 722.752 271.912 733.747C272.141 744.514 272.485 755.624 272.944 767.077C273.403 774.408 275.122 780.249 278.103 784.601C281.314 788.954 287.161 791.932 295.645 793.535C299.543 794.222 302.409 795.024 304.244 795.94C306.078 796.857 306.996 798.117 306.996 799.72C306.996 801.095 306.078 802.011 304.244 802.469C302.409 803.156 300.002 803.5 297.021 803.5C290.83 803.5 286.014 803.271 282.575 802.813C279.364 802.355 276.383 802.011 273.632 801.782C271.109 801.324 267.67 801.095 263.313 801.095C257.81 801.095 252.88 801.324 248.523 801.782C244.396 802.011 240.153 802.355 235.797 802.813C231.44 803.271 226.166 803.5 219.975 803.5Z" fill="black"/>
<path d="M219.975 803.504C216.994 803.504 214.586 803.16 212.752 802.473C210.917 802.015 210 801.098 210 799.724C210 796.975 213.784 794.913 221.351 793.539C230.064 791.935 236.026 789.301 239.236 785.636C242.676 781.971 244.396 775.9 244.396 767.425V622.422C244.396 612.113 243.02 604.21 240.268 598.713C237.746 593.215 232.128 589.664 223.414 588.061C219.516 587.374 216.65 586.457 214.815 585.312C212.981 584.166 212.064 582.792 212.064 581.189C212.064 579.814 212.981 578.898 214.815 578.44C216.65 577.752 219.058 577.409 222.038 577.409C230.523 577.409 237.631 577.523 243.364 577.752C249.326 577.982 255.173 578.211 260.905 578.44C266.638 578.44 273.403 578.44 281.199 578.44C287.849 578.44 294.957 578.44 302.524 578.44C310.091 578.44 346.617 578.436 353.725 578.436C361.063 578.436 367.484 577.863 372.987 576.718C378.719 575.573 383.649 575 387.777 575C388.923 575 390.185 575.229 391.56 575.687C392.936 576.145 393.739 576.947 393.968 578.092C394.427 580.612 394.771 584.392 395 589.431C395.229 594.242 395.344 598.938 395.344 603.519C395.573 608.101 395.688 611.193 395.688 612.797C395.688 617.607 394.656 620.013 392.592 620.013C391.446 620.013 390.414 619.669 389.497 618.982C388.58 618.066 387.892 617.035 387.433 615.889C386.516 611.995 385.369 608.674 383.993 605.925C382.618 602.947 381.127 600.656 379.522 599.053C376.312 595.387 372.758 592.982 368.859 591.837C364.961 590.462 360.834 589.775 356.477 589.775L283.607 589.779C278.333 589.779 275.122 591.497 273.976 594.933C272.829 598.369 272.141 602.378 271.912 606.959C271.683 611.312 271.568 616.695 271.568 623.109C271.568 629.294 271.568 635.364 271.568 641.32C271.568 647.047 271.568 652.888 271.568 658.844C271.568 664.8 271.683 669.84 271.912 673.963C271.912 675.796 272.027 677.514 272.256 679.117C272.715 680.721 273.747 681.522 275.352 681.522C282.689 681.522 290.142 681.408 297.709 681.179C305.276 680.721 311.123 680.492 315.251 680.492C320.295 680.492 324.652 679.117 328.321 676.368C331.99 673.619 334.627 670.298 336.232 666.404C336.69 665.487 337.608 664.342 338.984 662.968C340.359 661.364 341.506 660.562 342.423 660.562C343.34 660.562 344.372 661.135 345.519 662.28C346.665 663.197 347.124 664.456 346.895 666.06C346.665 669.954 346.436 673.39 346.207 676.368C345.977 679.346 345.863 682.21 345.863 684.958C345.863 688.395 345.977 691.945 346.207 695.61C346.436 699.046 346.665 703.284 346.895 708.324C346.895 709.927 346.665 711.302 346.207 712.447C345.977 713.593 345.175 714.165 343.799 714.165C341.506 714.165 339.671 713.134 338.296 711.073C337.149 709.011 336.347 707.408 335.888 706.262C334.283 700.994 331.875 697.443 328.665 695.61C325.455 693.549 322.474 692.518 319.722 692.518C316.741 692.518 313.76 692.518 310.779 692.518C308.027 692.289 305.276 692.174 302.524 692.174C298.626 692.174 294.842 692.174 291.174 692.174C287.505 692.174 283.836 692.403 280.167 692.862C277.874 693.091 275.925 693.892 274.32 695.267C272.715 696.412 271.912 698.474 271.912 701.452C271.912 711.989 271.912 722.755 271.912 733.751C272.141 744.517 272.485 755.627 272.944 767.081C273.403 774.411 275.122 780.253 278.103 784.605C281.314 788.957 287.161 791.935 295.645 793.539C299.543 794.226 302.41 795.028 304.244 795.944C306.078 796.86 306.996 798.12 306.996 799.724C306.996 801.098 306.078 802.015 304.244 802.473C302.41 803.16 300.002 803.504 297.021 803.504C290.83 803.504 286.014 803.275 282.575 802.816C279.364 802.358 276.384 802.015 273.632 801.786C271.11 801.327 267.67 801.098 263.313 801.098C257.81 801.098 252.88 801.327 248.523 801.786C244.396 802.015 240.153 802.358 235.797 802.816C231.44 803.275 226.166 803.504 219.975 803.504Z" fill="black"/>
<path d="M219.975 803.504C216.994 803.504 214.586 803.16 212.752 802.473C210.917 802.015 210 801.098 210 799.724C210 796.975 213.784 794.913 221.351 793.539C230.064 791.935 236.026 789.301 239.236 785.636C242.676 781.971 244.396 775.9 244.396 767.425V622.422C244.396 612.113 243.02 604.21 240.268 598.713C237.746 593.215 232.128 589.664 223.414 588.061C219.516 587.374 216.65 586.457 214.815 585.312C212.981 584.166 212.064 582.792 212.064 581.189C212.064 579.814 212.981 578.898 214.815 578.44C216.65 577.752 219.058 577.409 222.038 577.409C230.523 577.409 237.631 577.523 243.364 577.752C249.326 577.982 255.173 578.211 260.905 578.44C266.638 578.44 273.403 578.44 281.199 578.44C287.849 578.44 294.957 578.44 302.524 578.44C310.091 578.44 346.617 578.436 353.725 578.436C361.063 578.436 367.484 577.863 372.987 576.718C378.719 575.573 383.649 575 387.777 575C388.923 575 390.185 575.229 391.56 575.687C392.936 576.145 393.739 576.947 393.968 578.092C394.427 580.612 394.771 584.392 395 589.431C395.229 594.242 395.344 598.938 395.344 603.519C395.573 608.101 395.688 611.193 395.688 612.797C395.688 617.607 394.656 620.013 392.592 620.013C391.446 620.013 390.414 619.669 389.497 618.982C388.58 618.066 387.892 617.035 387.433 615.889C386.516 611.995 385.369 608.674 383.993 605.925C382.618 602.947 381.127 600.656 379.522 599.053C376.312 595.387 372.758 592.982 368.859 591.837C364.961 590.462 360.834 589.775 356.477 589.775L283.607 589.779C278.333 589.779 275.122 591.497 273.976 594.933C272.829 598.369 272.141 602.378 271.912 606.959C271.683 611.312 271.568 616.695 271.568 623.109C271.568 629.294 271.568 635.364 271.568 641.32C271.568 647.047 271.568 652.888 271.568 658.844C271.568 664.8 271.683 669.84 271.912 673.963C271.912 675.796 272.027 677.514 272.256 679.117C272.715 680.721 273.747 681.522 275.352 681.522C282.689 681.522 290.142 681.408 297.709 681.179C305.276 680.721 311.123 680.492 315.251 680.492C320.295 680.492 324.652 679.117 328.321 676.368C331.99 673.619 334.627 670.298 336.232 666.404C336.69 665.487 337.608 664.342 338.984 662.968C340.359 661.364 341.506 660.562 342.423 660.562C343.34 660.562 344.372 661.135 345.519 662.28C346.665 663.197 347.124 664.456 346.895 666.06C346.665 669.954 346.436 673.39 346.207 676.368C345.977 679.346 345.863 682.21 345.863 684.958C345.863 688.395 345.977 691.945 346.207 695.61C346.436 699.046 346.665 703.284 346.895 708.324C346.895 709.927 346.665 711.302 346.207 712.447C345.977 713.593 345.175 714.165 343.799 714.165C341.506 714.165 339.671 713.134 338.296 711.073C337.149 709.011 336.347 707.408 335.888 706.262C334.283 700.994 331.875 697.443 328.665 695.61C325.455 693.549 322.474 692.518 319.722 692.518C316.741 692.518 313.76 692.518 310.779 692.518C308.027 692.289 305.276 692.174 302.524 692.174C298.626 692.174 294.842 692.174 291.174 692.174C287.505 692.174 283.836 692.403 280.167 692.862C277.874 693.091 275.925 693.892 274.32 695.267C272.715 696.412 271.912 698.474 271.912 701.452C271.912 711.989 271.912 722.755 271.912 733.751C272.141 744.517 272.485 755.627 272.944 767.081C273.403 774.411 275.122 780.253 278.103 784.605C281.314 788.957 287.161 791.935 295.645 793.539C299.543 794.226 302.41 795.028 304.244 795.944C306.078 796.86 306.996 798.12 306.996 799.724C306.996 801.098 306.078 802.015 304.244 802.473C302.41 803.16 300.002 803.504 297.021 803.504C290.83 803.504 286.014 803.275 282.575 802.816C279.364 802.358 276.384 802.015 273.632 801.786C271.11 801.327 267.67 801.098 263.313 801.098C257.81 801.098 252.88 801.327 248.523 801.786C244.396 802.015 240.153 802.358 235.797 802.816C231.44 803.275 226.166 803.504 219.975 803.504Z" fill="black"/>
<path d="M219.975 803.515C216.994 803.515 214.586 803.171 212.752 802.484C210.917 802.026 210 801.109 210 799.735C210 796.986 213.784 794.924 221.351 793.55C230.064 791.947 236.026 789.312 239.236 785.647C242.676 781.982 244.396 775.911 244.396 767.436V622.433C244.396 612.125 243.02 604.221 240.268 598.724C237.746 593.226 232.128 589.675 223.414 588.072C219.516 587.385 216.65 586.468 214.815 585.323C212.981 584.178 212.064 582.803 212.064 581.2C212.064 579.825 212.981 578.909 214.815 578.451C216.65 577.764 219.058 577.42 222.038 577.42C230.523 577.42 237.631 577.535 243.364 577.764C249.326 577.993 255.173 578.222 260.905 578.451C266.638 578.451 273.403 578.451 281.199 578.451C287.849 578.451 294.957 578.451 302.524 578.451C310.091 578.451 421.273 578.436 428.381 578.436C435.719 578.436 442.14 577.863 447.643 576.718C453.376 575.573 458.306 575 462.433 575C463.58 575 464.841 575.229 466.216 575.687C467.592 576.145 468.395 576.947 468.624 578.092C469.083 580.612 469.427 584.392 469.656 589.431C469.885 594.242 470 598.938 470 603.519C470.229 608.101 470.344 611.193 470.344 612.797C470.344 617.607 469.312 620.013 467.248 620.013C466.102 620.013 465.07 619.669 464.153 618.982C463.236 618.066 462.548 617.035 462.089 615.889C461.172 611.995 460.025 608.674 458.649 605.925C457.274 602.947 455.783 600.656 454.178 599.053C450.968 595.387 447.414 592.982 443.515 591.837C439.617 590.462 435.49 589.775 431.133 589.775L283.607 589.79C278.333 589.79 275.122 591.508 273.976 594.944C272.829 598.38 272.141 602.389 271.912 606.97C271.683 611.323 271.568 616.706 271.568 623.12C271.568 629.305 271.568 635.375 271.568 641.331C271.568 647.058 271.568 652.899 271.568 658.855C271.568 664.811 271.683 669.851 271.912 673.974C271.912 675.807 272.027 677.525 272.256 679.128C272.715 680.732 273.747 681.534 275.352 681.534C282.689 681.534 290.142 681.419 297.709 681.19C305.276 680.732 311.123 680.503 315.251 680.503C320.295 680.503 324.652 679.128 328.321 676.379C331.99 673.631 334.627 670.309 336.232 666.415C336.69 665.498 337.608 664.353 338.984 662.979C340.359 661.375 341.506 660.573 342.423 660.573C343.34 660.573 344.372 661.146 345.519 662.291C346.665 663.208 347.124 664.468 346.895 666.071C346.665 669.965 346.436 673.401 346.207 676.379C345.977 679.357 345.863 682.221 345.863 684.97C345.863 688.406 345.977 691.956 346.207 695.621C346.436 699.058 346.665 703.295 346.895 708.335C346.895 709.939 346.665 711.313 346.207 712.458C345.977 713.604 345.175 714.176 343.799 714.176C341.506 714.176 339.671 713.146 338.296 711.084C337.149 709.022 336.347 707.419 335.888 706.273C334.283 701.005 331.875 697.454 328.665 695.621C325.455 693.56 322.474 692.529 319.722 692.529C316.741 692.529 313.76 692.529 310.779 692.529C308.027 692.3 305.276 692.185 302.524 692.185C298.626 692.185 294.842 692.185 291.174 692.185C287.505 692.185 283.836 692.414 280.167 692.873C277.874 693.102 275.925 693.903 274.32 695.278C272.715 696.423 271.912 698.485 271.912 701.463C271.912 712 271.912 722.767 271.912 733.762C272.141 744.528 272.485 755.638 272.944 767.092C273.403 774.422 275.122 780.264 278.103 784.616C281.314 788.969 287.161 791.947 295.645 793.55C299.543 794.237 302.41 795.039 304.244 795.955C306.078 796.872 306.996 798.131 306.996 799.735C306.996 801.109 306.078 802.026 304.244 802.484C302.41 803.171 300.002 803.515 297.021 803.515C290.83 803.515 286.014 803.286 282.575 802.828C279.364 802.369 276.384 802.026 273.632 801.797C271.11 801.338 267.67 801.109 263.313 801.109C257.81 801.109 252.88 801.338 248.523 801.797C244.396 802.026 240.153 802.369 235.797 802.828C231.44 803.286 226.166 803.515 219.975 803.515Z" fill="black"/>
<path d="M219.975 803.515C216.994 803.515 214.586 803.171 212.752 802.484C210.917 802.026 210 801.109 210 799.735C210 796.986 213.784 794.924 221.351 793.55C230.064 791.947 236.026 789.312 239.236 785.647C242.676 781.982 244.396 775.911 244.396 767.436V622.433C244.396 612.125 243.02 604.221 240.268 598.724C237.746 593.226 232.128 589.675 223.414 588.072C219.516 587.385 216.65 586.468 214.815 585.323C212.981 584.178 212.064 582.803 212.064 581.2C212.064 579.825 212.981 578.909 214.815 578.451C216.65 577.764 219.058 577.42 222.038 577.42C230.523 577.42 237.631 577.535 243.364 577.764C249.326 577.993 255.173 578.222 260.905 578.451C266.638 578.451 273.403 578.451 281.199 578.451C287.849 578.451 294.957 578.451 302.524 578.451C310.091 578.451 421.273 578.436 428.381 578.436C435.719 578.436 442.14 577.863 447.643 576.718C453.376 575.573 458.306 575 462.433 575C463.58 575 464.841 575.229 466.216 575.687C467.592 576.145 468.395 576.947 468.624 578.092C469.083 580.612 469.427 584.392 469.656 589.431C469.885 594.242 470 598.938 470 603.519C470.229 608.101 470.344 611.193 470.344 612.797C470.344 617.607 469.312 620.013 467.248 620.013C466.102 620.013 465.07 619.669 464.153 618.982C463.236 618.066 462.548 617.035 462.089 615.889C461.172 611.995 460.025 608.674 458.649 605.925C457.274 602.947 455.783 600.656 454.178 599.053C450.968 595.387 447.414 592.982 443.515 591.837C439.617 590.462 435.49 589.775 431.133 589.775L283.607 589.79C278.333 589.79 275.122 591.508 273.976 594.944C272.829 598.38 272.141 602.389 271.912 606.97C271.683 611.323 271.568 616.706 271.568 623.12C271.568 629.305 271.568 635.375 271.568 641.331C271.568 647.058 271.568 652.899 271.568 658.855C271.568 664.811 271.683 669.851 271.912 673.974C271.912 675.807 272.027 677.525 272.256 679.128C272.715 680.732 273.747 681.534 275.352 681.534C282.689 681.534 290.142 681.419 297.709 681.19C305.276 680.732 311.123 680.503 315.251 680.503C320.295 680.503 324.652 679.128 328.321 676.379C331.99 673.631 334.627 670.309 336.232 666.415C336.69 665.498 337.608 664.353 338.984 662.979C340.359 661.375 341.506 660.573 342.423 660.573C343.34 660.573 344.372 661.146 345.519 662.291C346.665 663.208 347.124 664.468 346.895 666.071C346.665 669.965 346.436 673.401 346.207 676.379C345.977 679.357 345.863 682.221 345.863 684.97C345.863 688.406 345.977 691.956 346.207 695.621C346.436 699.058 346.665 703.295 346.895 708.335C346.895 709.939 346.665 711.313 346.207 712.458C345.977 713.604 345.175 714.176 343.799 714.176C341.506 714.176 339.671 713.146 338.296 711.084C337.149 709.022 336.347 707.419 335.888 706.273C334.283 701.005 331.875 697.454 328.665 695.621C325.455 693.56 322.474 692.529 319.722 692.529C316.741 692.529 313.76 692.529 310.779 692.529C308.027 692.3 305.276 692.185 302.524 692.185C298.626 692.185 294.842 692.185 291.174 692.185C287.505 692.185 283.836 692.414 280.167 692.873C277.874 693.102 275.925 693.903 274.32 695.278C272.715 696.423 271.912 698.485 271.912 701.463C271.912 712 271.912 722.767 271.912 733.762C272.141 744.528 272.485 755.638 272.944 767.092C273.403 774.422 275.122 780.264 278.103 784.616C281.314 788.969 287.161 791.947 295.645 793.55C299.543 794.237 302.41 795.039 304.244 795.955C306.078 796.872 306.996 798.131 306.996 799.735C306.996 801.109 306.078 802.026 304.244 802.484C302.41 803.171 300.002 803.515 297.021 803.515C290.83 803.515 286.014 803.286 282.575 802.828C279.364 802.369 276.384 802.026 273.632 801.797C271.11 801.338 267.67 801.109 263.313 801.109C257.81 801.109 252.88 801.338 248.523 801.797C244.396 802.026 240.153 802.369 235.797 802.828C231.44 803.286 226.166 803.515 219.975 803.515Z" fill="black"/>
<path d="M219.975 803.526C216.994 803.526 214.586 803.183 212.752 802.495C210.917 802.037 210 801.121 210 799.747C210 796.998 213.784 794.936 221.351 793.562C230.064 791.958 236.026 789.324 239.236 785.659C242.676 781.993 244.396 775.923 244.396 767.447V622.444C244.396 612.136 243.02 604.233 240.268 598.735C237.746 593.238 232.128 589.687 223.414 588.083C219.516 587.396 216.65 586.48 214.815 585.335C212.981 584.189 212.064 582.815 212.064 581.211C212.064 579.837 212.981 578.921 214.815 578.462C216.65 577.775 219.058 577.432 222.038 577.432C230.523 577.432 237.631 577.546 243.364 577.775C249.326 578.004 255.173 578.233 260.905 578.462C266.638 578.462 273.403 578.462 281.199 578.462C287.849 578.462 294.957 578.462 302.524 578.462C310.091 578.462 532.773 578.436 539.881 578.436C547.219 578.436 553.64 577.863 559.143 576.718C564.876 575.573 569.806 575 573.933 575C575.08 575 576.341 575.229 577.717 575.687C579.092 576.145 579.895 576.947 580.124 578.092C580.583 580.612 580.927 584.392 581.156 589.431C581.385 594.242 581.5 598.938 581.5 603.519C581.729 608.101 581.844 611.193 581.844 612.797C581.844 617.607 580.812 620.013 578.748 620.013C577.602 620.013 576.57 619.669 575.653 618.982C574.736 618.066 574.048 617.035 573.589 615.889C572.672 611.995 571.525 608.674 570.149 605.925C568.774 602.947 567.283 600.656 565.678 599.053C562.468 595.387 558.914 592.982 555.015 591.837C551.117 590.462 546.99 589.775 542.633 589.775L283.607 589.801C278.333 589.801 275.122 591.519 273.976 594.956C272.829 598.392 272.141 602.4 271.912 606.982C271.683 611.334 271.568 616.717 271.568 623.132C271.568 629.316 271.568 635.387 271.568 641.343C271.568 647.07 271.568 652.911 271.568 658.867C271.568 664.823 271.683 669.862 271.912 673.986C271.912 675.818 272.027 677.536 272.256 679.14C272.715 680.743 273.747 681.545 275.352 681.545C282.689 681.545 290.142 681.431 297.709 681.201C305.276 680.743 311.123 680.514 315.251 680.514C320.295 680.514 324.652 679.14 328.321 676.391C331.99 673.642 334.627 670.32 336.232 666.426C336.69 665.51 337.608 664.365 338.984 662.99C340.359 661.387 341.506 660.585 342.423 660.585C343.34 660.585 344.372 661.158 345.519 662.303C346.665 663.219 347.124 664.479 346.895 666.083C346.665 669.977 346.436 673.413 346.207 676.391C345.977 679.369 345.863 682.232 345.863 684.981C345.863 688.417 345.977 691.968 346.207 695.633C346.436 699.069 346.665 703.307 346.895 708.347C346.895 709.95 346.665 711.324 346.207 712.47C345.977 713.615 345.175 714.188 343.799 714.188C341.506 714.188 339.671 713.157 338.296 711.095C337.149 709.034 336.347 707.43 335.888 706.285C334.283 701.016 331.875 697.466 328.665 695.633C325.455 693.571 322.474 692.541 319.722 692.541C316.741 692.541 313.76 692.541 310.779 692.541C308.027 692.311 305.276 692.197 302.524 692.197C298.626 692.197 294.842 692.197 291.174 692.197C287.505 692.197 283.836 692.426 280.167 692.884C277.874 693.113 275.925 693.915 274.32 695.289C272.715 696.435 271.912 698.496 271.912 701.474C271.912 712.012 271.912 722.778 271.912 733.774C272.141 744.54 272.485 755.65 272.944 767.104C273.403 774.434 275.122 780.275 278.103 784.628C281.314 788.98 287.161 791.958 295.645 793.562C299.543 794.249 302.41 795.051 304.244 795.967C306.078 796.883 306.996 798.143 306.996 799.747C306.996 801.121 306.078 802.037 304.244 802.495C302.41 803.183 300.002 803.526 297.021 803.526C290.83 803.526 286.014 803.297 282.575 802.839C279.364 802.381 276.384 802.037 273.632 801.808C271.11 801.35 267.67 801.121 263.313 801.121C257.81 801.121 252.88 801.35 248.523 801.808C244.396 802.037 240.153 802.381 235.797 802.839C231.44 803.297 226.166 803.526 219.975 803.526Z" fill="black"/>
<path d="M219.975 803.526C216.994 803.526 214.586 803.183 212.752 802.495C210.917 802.037 210 801.121 210 799.747C210 796.998 213.784 794.936 221.351 793.562C230.064 791.958 236.026 789.324 239.236 785.659C242.676 781.993 244.396 775.923 244.396 767.447V622.444C244.396 612.136 243.02 604.233 240.268 598.735C237.746 593.238 232.128 589.687 223.414 588.083C219.516 587.396 216.65 586.48 214.815 585.335C212.981 584.189 212.064 582.815 212.064 581.211C212.064 579.837 212.981 578.921 214.815 578.462C216.65 577.775 219.058 577.432 222.038 577.432C230.523 577.432 237.631 577.546 243.364 577.775C249.326 578.004 255.173 578.233 260.905 578.462C266.638 578.462 273.403 578.462 281.199 578.462C287.849 578.462 294.957 578.462 302.524 578.462C310.091 578.462 532.773 578.436 539.881 578.436C547.219 578.436 553.64 577.863 559.143 576.718C564.876 575.573 569.806 575 573.933 575C575.08 575 576.341 575.229 577.717 575.687C579.092 576.145 579.895 576.947 580.124 578.092C580.583 580.612 580.927 584.392 581.156 589.431C581.385 594.242 581.5 598.938 581.5 603.519C581.729 608.101 581.844 611.193 581.844 612.797C581.844 617.607 580.812 620.013 578.748 620.013C577.602 620.013 576.57 619.669 575.653 618.982C574.736 618.066 574.048 617.035 573.589 615.889C572.672 611.995 571.525 608.674 570.149 605.925C568.774 602.947 567.283 600.656 565.678 599.053C562.468 595.387 558.914 592.982 555.015 591.837C551.117 590.462 546.99 589.775 542.633 589.775L283.607 589.801C278.333 589.801 275.122 591.519 273.976 594.956C272.829 598.392 272.141 602.4 271.912 606.982C271.683 611.334 271.568 616.717 271.568 623.132C271.568 629.316 271.568 635.387 271.568 641.343C271.568 647.07 271.568 652.911 271.568 658.867C271.568 664.823 271.683 669.862 271.912 673.986C271.912 675.818 272.027 677.536 272.256 679.14C272.715 680.743 273.747 681.545 275.352 681.545C282.689 681.545 290.142 681.431 297.709 681.201C305.276 680.743 311.123 680.514 315.251 680.514C320.295 680.514 324.652 679.14 328.321 676.391C331.99 673.642 334.627 670.32 336.232 666.426C336.69 665.51 337.608 664.365 338.984 662.99C340.359 661.387 341.506 660.585 342.423 660.585C343.34 660.585 344.372 661.158 345.519 662.303C346.665 663.219 347.124 664.479 346.895 666.083C346.665 669.977 346.436 673.413 346.207 676.391C345.977 679.369 345.863 682.232 345.863 684.981C345.863 688.417 345.977 691.968 346.207 695.633C346.436 699.069 346.665 703.307 346.895 708.347C346.895 709.95 346.665 711.324 346.207 712.47C345.977 713.615 345.175 714.188 343.799 714.188C341.506 714.188 339.671 713.157 338.296 711.095C337.149 709.034 336.347 707.43 335.888 706.285C334.283 701.016 331.875 697.466 328.665 695.633C325.455 693.571 322.474 692.541 319.722 692.541C316.741 692.541 313.76 692.541 310.779 692.541C308.027 692.311 305.276 692.197 302.524 692.197C298.626 692.197 294.842 692.197 291.174 692.197C287.505 692.197 283.836 692.426 280.167 692.884C277.874 693.113 275.925 693.915 274.32 695.289C272.715 696.435 271.912 698.496 271.912 701.474C271.912 712.012 271.912 722.778 271.912 733.774C272.141 744.54 272.485 755.65 272.944 767.104C273.403 774.434 275.122 780.275 278.103 784.628C281.314 788.98 287.161 791.958 295.645 793.562C299.543 794.249 302.41 795.051 304.244 795.967C306.078 796.883 306.996 798.143 306.996 799.747C306.996 801.121 306.078 802.037 304.244 802.495C302.41 803.183 300.002 803.526 297.021 803.526C290.83 803.526 286.014 803.297 282.575 802.839C279.364 802.381 276.384 802.037 273.632 801.808C271.11 801.35 267.67 801.121 263.313 801.121C257.81 801.121 252.88 801.35 248.523 801.808C244.396 802.037 240.153 802.381 235.797 802.839C231.44 803.297 226.166 803.526 219.975 803.526Z" fill="black"/>
<path d="M219.975 803.533C216.994 803.533 214.586 803.189 212.752 802.502C210.917 802.044 210 801.128 210 799.753C210 797.004 213.784 794.943 221.351 793.568C230.064 791.965 236.026 789.33 239.236 785.665C242.676 782 244.396 775.93 244.396 767.454V622.451C244.396 612.143 243.02 604.24 240.268 598.742C237.746 593.244 232.128 589.694 223.414 588.09C219.516 587.403 216.65 586.487 214.815 585.341C212.981 584.196 212.064 582.821 212.064 581.218C212.064 579.843 212.981 578.927 214.815 578.469C216.65 577.782 219.058 577.438 222.038 577.438C230.523 577.438 237.631 577.553 243.364 577.782C249.326 578.011 255.173 578.24 260.905 578.469C266.638 578.469 273.403 578.469 281.199 578.469C287.849 578.469 294.957 578.469 302.524 578.469C310.091 578.469 682.117 578.436 689.225 578.436C696.563 578.436 702.984 577.863 708.487 576.718C714.219 575.573 719.15 575 723.277 575C724.424 575 725.685 575.229 727.06 575.687C728.436 576.145 729.239 576.947 729.468 578.092C729.927 580.612 730.271 584.392 730.5 589.432C730.729 594.242 730.844 598.938 730.844 603.52C731.073 608.101 731.188 611.193 731.188 612.797C731.188 617.608 730.156 620.013 728.092 620.013C726.946 620.013 725.914 619.669 724.997 618.982C724.079 618.066 723.392 617.035 722.933 615.889C722.016 611.995 720.869 608.674 719.493 605.925C718.118 602.947 716.627 600.656 715.022 599.053C711.812 595.387 708.258 592.982 704.359 591.837C700.461 590.462 696.334 589.775 691.977 589.775L283.607 589.808C278.333 589.808 275.122 591.526 273.976 594.962C272.829 598.398 272.141 602.407 271.912 606.989C271.683 611.341 271.568 616.724 271.568 623.138C271.568 629.323 271.568 635.394 271.568 641.349C271.568 647.076 271.568 652.918 271.568 658.874C271.568 664.829 271.683 669.869 271.912 673.992C271.912 675.825 272.027 677.543 272.256 679.146C272.715 680.75 273.747 681.552 275.352 681.552C282.689 681.552 290.142 681.437 297.709 681.208C305.276 680.75 311.123 680.521 315.251 680.521C320.295 680.521 324.652 679.146 328.321 676.398C331.99 673.649 334.627 670.327 336.232 666.433C336.69 665.517 337.608 664.371 338.984 662.997C340.359 661.393 341.506 660.592 342.423 660.592C343.34 660.592 344.372 661.164 345.519 662.31C346.665 663.226 347.124 664.486 346.895 666.089C346.665 669.984 346.436 673.42 346.207 676.398C345.977 679.376 345.863 682.239 345.863 684.988C345.863 688.424 345.977 691.974 346.207 695.64C346.436 699.076 346.665 703.314 346.895 708.353C346.895 709.957 346.665 711.331 346.207 712.476C345.977 713.622 345.175 714.195 343.799 714.195C341.506 714.195 339.671 713.164 338.296 711.102C337.149 709.04 336.347 707.437 335.888 706.292C334.283 701.023 331.875 697.472 328.665 695.64C325.455 693.578 322.474 692.547 319.722 692.547C316.741 692.547 313.76 692.547 310.779 692.547C308.027 692.318 305.276 692.204 302.524 692.204C298.626 692.204 294.842 692.204 291.174 692.204C287.505 692.204 283.836 692.433 280.167 692.891C277.874 693.12 275.925 693.922 274.32 695.296C272.715 696.441 271.912 698.503 271.912 701.481C271.912 712.018 271.912 722.785 271.912 733.78C272.141 744.547 272.485 755.657 272.944 767.11C273.403 774.441 275.122 780.282 278.103 784.634C281.314 788.987 287.161 791.965 295.645 793.568C299.543 794.255 302.41 795.057 304.244 795.973C306.078 796.89 306.996 798.15 306.996 799.753C306.996 801.128 306.078 802.044 304.244 802.502C302.41 803.189 300.002 803.533 297.021 803.533C290.83 803.533 286.014 803.304 282.575 802.846C279.364 802.388 276.384 802.044 273.632 801.815C271.11 801.357 267.67 801.128 263.313 801.128C257.81 801.128 252.88 801.357 248.523 801.815C244.396 802.044 240.153 802.388 235.797 802.846C231.44 803.304 226.166 803.533 219.975 803.533Z" fill="black"/>
<path d="M219.975 803.533C216.994 803.533 214.586 803.189 212.752 802.502C210.917 802.044 210 801.128 210 799.753C210 797.004 213.784 794.943 221.351 793.568C230.064 791.965 236.026 789.33 239.236 785.665C242.676 782 244.396 775.93 244.396 767.454V622.451C244.396 612.143 243.02 604.24 240.268 598.742C237.746 593.244 232.128 589.694 223.414 588.09C219.516 587.403 216.65 586.487 214.815 585.341C212.981 584.196 212.064 582.821 212.064 581.218C212.064 579.843 212.981 578.927 214.815 578.469C216.65 577.782 219.058 577.438 222.038 577.438C230.523 577.438 237.631 577.553 243.364 577.782C249.326 578.011 255.173 578.24 260.905 578.469C266.638 578.469 273.403 578.469 281.199 578.469C287.849 578.469 294.957 578.469 302.524 578.469C310.091 578.469 682.117 578.436 689.225 578.436C696.563 578.436 702.984 577.863 708.487 576.718C714.219 575.573 719.15 575 723.277 575C724.424 575 725.685 575.229 727.06 575.687C728.436 576.145 729.239 576.947 729.468 578.092C729.927 580.612 730.271 584.392 730.5 589.432C730.729 594.242 730.844 598.938 730.844 603.52C731.073 608.101 731.188 611.193 731.188 612.797C731.188 617.608 730.156 620.013 728.092 620.013C726.946 620.013 725.914 619.669 724.997 618.982C724.079 618.066 723.392 617.035 722.933 615.889C722.016 611.995 720.869 608.674 719.493 605.925C718.118 602.947 716.627 600.656 715.022 599.053C711.812 595.387 708.258 592.982 704.359 591.837C700.461 590.462 696.334 589.775 691.977 589.775L283.607 589.808C278.333 589.808 275.122 591.526 273.976 594.962C272.829 598.398 272.141 602.407 271.912 606.989C271.683 611.341 271.568 616.724 271.568 623.138C271.568 629.323 271.568 635.394 271.568 641.349C271.568 647.076 271.568 652.918 271.568 658.874C271.568 664.829 271.683 669.869 271.912 673.992C271.912 675.825 272.027 677.543 272.256 679.146C272.715 680.75 273.747 681.552 275.352 681.552C282.689 681.552 290.142 681.437 297.709 681.208C305.276 680.75 311.123 680.521 315.251 680.521C320.295 680.521 324.652 679.146 328.321 676.398C331.99 673.649 334.627 670.327 336.232 666.433C336.69 665.517 337.608 664.371 338.984 662.997C340.359 661.393 341.506 660.592 342.423 660.592C343.34 660.592 344.372 661.164 345.519 662.31C346.665 663.226 347.124 664.486 346.895 666.089C346.665 669.984 346.436 673.42 346.207 676.398C345.977 679.376 345.863 682.239 345.863 684.988C345.863 688.424 345.977 691.974 346.207 695.64C346.436 699.076 346.665 703.314 346.895 708.353C346.895 709.957 346.665 711.331 346.207 712.476C345.977 713.622 345.175 714.195 343.799 714.195C341.506 714.195 339.671 713.164 338.296 711.102C337.149 709.04 336.347 707.437 335.888 706.292C334.283 701.023 331.875 697.472 328.665 695.64C325.455 693.578 322.474 692.547 319.722 692.547C316.741 692.547 313.76 692.547 310.779 692.547C308.027 692.318 305.276 692.204 302.524 692.204C298.626 692.204 294.842 692.204 291.174 692.204C287.505 692.204 283.836 692.433 280.167 692.891C277.874 693.12 275.925 693.922 274.32 695.296C272.715 696.441 271.912 698.503 271.912 701.481C271.912 712.018 271.912 722.785 271.912 733.78C272.141 744.547 272.485 755.657 272.944 767.11C273.403 774.441 275.122 780.282 278.103 784.634C281.314 788.987 287.161 791.965 295.645 793.568C299.543 794.255 302.41 795.057 304.244 795.973C306.078 796.89 306.996 798.15 306.996 799.753C306.996 801.128 306.078 802.044 304.244 802.502C302.41 803.189 300.002 803.533 297.021 803.533C290.83 803.533 286.014 803.304 282.575 802.846C279.364 802.388 276.384 802.044 273.632 801.815C271.11 801.357 267.67 801.128 263.313 801.128C257.81 801.128 252.88 801.357 248.523 801.815C244.396 802.044 240.153 802.388 235.797 802.846C231.44 803.304 226.166 803.533 219.975 803.533Z" fill="black"/>
</g>
<defs>
<clipPath id="clip0_3_1370">
<rect width="595" height="842" fill="white" transform="translate(768 155)"/>
</clipPath>
<clipPath id="clip1_3_1370">
<rect width="595" height="842" fill="white" transform="translate(173 155)"/>
</clipPath>
</defs>
</svg>
