<svg width="1536" height="1152" viewBox="0 0 1536 1152" fill="none" xmlns="http://www.w3.org/2000/svg">
<rect width="1536" height="1152" fill="#808080"/>
<rect width="595" height="842" transform="translate(173 155)" fill="white"/>
<path d="M498.125 748.517C498.125 749.024 497.702 750.039 496.856 751.562C496.009 753.028 494.655 754.437 492.793 755.791C492.511 756.016 491.665 756.721 490.254 757.905C488.844 759.033 487.095 760.499 485.007 762.303C482.863 764.051 480.55 765.968 478.068 768.054C475.585 770.141 473.103 772.227 470.62 774.313C468.138 776.399 465.853 778.345 463.765 780.149C461.621 781.953 459.844 783.476 458.434 784.716C456.967 785.9 456.064 786.633 455.726 786.915C455.218 787.31 454.879 787.648 454.71 787.93C454.484 788.212 454.371 788.466 454.371 788.691C454.371 788.973 454.597 789.171 455.049 789.283C455.443 789.396 455.81 789.453 456.149 789.453C458.913 789.509 462.101 789.565 465.712 789.622C469.323 789.678 473.046 789.735 476.883 789.791C480.72 789.847 484.387 789.875 487.885 789.875C489.408 789.875 490.819 789.509 492.116 788.776C493.414 787.987 494.26 786.549 494.655 784.462C494.824 783.504 495.022 782.799 495.248 782.348C495.473 781.897 495.784 781.671 496.179 781.671C496.517 781.671 496.743 781.897 496.856 782.348C497.025 782.799 497.109 783.391 497.109 784.124C497.109 785.647 497.053 786.802 496.94 787.592C496.884 788.325 496.827 789.002 496.771 789.622C496.715 790.186 496.686 791.003 496.686 792.075C496.686 793.089 496.715 793.879 496.771 794.443C496.827 795.007 496.884 795.655 496.94 796.388C497.053 797.121 497.109 798.249 497.109 799.771C497.109 800.504 497.025 801.096 496.856 801.547C496.743 801.998 496.517 802.224 496.179 802.224C495.784 802.224 495.473 801.998 495.248 801.547C495.022 801.096 494.796 800.391 494.571 799.433C494.119 797.798 493.301 796.614 492.116 795.881C490.875 795.148 489.38 794.696 487.631 794.527C485.487 794.302 482.666 794.076 479.168 793.851C475.614 793.625 471.664 793.428 467.32 793.259C462.919 793.089 458.405 793.005 453.779 793.005C450.789 793.005 448.645 793.794 447.347 795.373C446.05 796.895 445.006 798.897 444.216 801.378C444.103 801.604 443.877 802.111 443.539 802.9C443.144 803.633 442.693 804 442.185 804C441.677 804 441.367 803.746 441.254 803.239C441.085 802.731 441 802.337 441 802.055C441.056 800.42 441.113 799.094 441.169 798.08C441.169 797.065 441.197 796.162 441.254 795.373C441.31 794.584 441.367 793.71 441.423 792.751C441.423 791.793 441.423 790.552 441.423 789.03C441.423 788.522 441.564 788.128 441.846 787.846C442.128 787.564 442.467 787.282 442.862 787C443.2 786.774 444.16 786.041 445.739 784.801C447.263 783.504 449.209 781.925 451.579 780.064C453.892 778.147 456.431 776.061 459.195 773.806C461.904 771.55 464.64 769.295 467.404 767.039C470.113 764.784 472.651 762.698 475.021 760.781C477.334 758.864 479.253 757.285 480.776 756.044C482.299 754.747 483.202 753.986 483.484 753.761C483.71 753.535 484.048 753.225 484.5 752.83C484.951 752.379 485.177 751.985 485.177 751.646C485.177 751.139 484.584 750.857 483.399 750.8C482.61 750.8 481.114 750.8 478.914 750.8C476.657 750.744 473.949 750.716 470.79 750.716C467.574 750.66 464.104 750.631 460.38 750.631C456.656 750.631 452.848 750.631 448.955 750.631C447.827 750.688 446.811 751.28 445.909 752.407C445.006 753.535 444.47 754.578 444.301 755.537C444.131 756.495 443.906 757.369 443.624 758.159C443.341 758.948 443.003 759.343 442.608 759.343C442.269 759.343 442.044 758.948 441.931 758.159C441.762 757.369 441.677 756.608 441.677 755.875C441.677 755.311 441.677 754.776 441.677 754.268C441.677 753.704 441.677 753.169 441.677 752.661C441.677 752.097 441.677 751.562 441.677 751.054C441.677 749.701 441.677 748.63 441.677 747.84C441.621 747.051 441.564 746.205 441.508 745.303C441.451 744.344 441.423 743.019 441.423 741.328C441.423 740.595 441.508 740.003 441.677 739.552C441.79 739.101 442.016 738.875 442.354 738.875C443.144 738.875 443.708 739.805 444.047 741.666C444.442 743.752 444.949 745.134 445.57 745.81C446.191 746.487 447.206 746.882 448.617 746.994C448.899 746.994 449.999 747.023 451.917 747.079C453.835 747.079 456.262 747.079 459.195 747.079C462.129 747.079 465.289 747.107 468.674 747.164C472.059 747.164 475.444 747.164 478.829 747.164C482.158 747.164 485.148 747.164 487.8 747.164C489.154 747.164 490.395 747.135 491.524 747.079C492.596 746.966 493.527 746.882 494.317 746.825C495.05 746.769 495.614 746.741 496.009 746.741C496.912 746.741 497.476 746.938 497.702 747.333C497.984 747.671 498.125 748.066 498.125 748.517Z" fill="black"/>
<path d="M498.125 722.517C498.125 723.024 497.702 724.039 496.856 725.562C496.009 727.028 494.655 728.437 492.793 729.791C492.511 730.016 491.665 730.721 490.254 731.905C488.844 733.033 487.095 734.499 485.007 736.303C482.863 738.051 480.55 739.968 478.068 742.054C475.585 744.141 473.103 746.227 470.62 748.313C468.138 750.399 465.853 752.345 463.765 754.149C461.621 755.953 459.844 757.476 458.434 758.716C456.967 759.9 456.064 760.633 455.726 760.915C455.218 761.31 454.879 761.648 454.71 761.93C454.484 762.212 454.371 762.466 454.371 762.691C454.371 762.973 454.597 763.171 455.049 763.283C455.443 763.396 455.81 763.453 456.149 763.453C458.913 763.509 462.101 763.565 465.712 763.622C469.323 763.678 473.046 763.735 476.883 763.791C480.72 763.847 484.387 763.875 487.885 763.875C489.408 763.875 490.819 763.509 492.116 762.776C493.414 761.987 494.26 760.549 494.655 758.462C494.824 757.504 495.022 756.799 495.248 756.348C495.473 755.897 495.784 755.671 496.179 755.671C496.517 755.671 496.743 755.897 496.856 756.348C497.025 756.799 497.109 757.391 497.109 758.124C497.109 759.647 497.053 760.802 496.94 761.592C496.884 762.325 496.827 763.002 496.771 763.622C496.715 764.186 496.686 765.003 496.686 766.075C496.686 767.089 496.715 767.879 496.771 768.443C496.827 769.007 496.884 769.655 496.94 770.388C497.053 771.121 497.109 772.249 497.109 773.771C497.109 774.504 497.025 775.096 496.856 775.547C496.743 775.998 496.517 776.224 496.179 776.224C495.784 776.224 495.473 775.998 495.248 775.547C495.022 775.096 494.796 774.391 494.571 773.433C494.119 771.798 493.301 770.614 492.116 769.881C490.875 769.148 489.38 768.696 487.631 768.527C485.487 768.302 482.666 768.076 479.168 767.851C475.614 767.625 471.664 767.428 467.32 767.259C462.919 767.089 458.405 767.005 453.779 767.005C450.789 767.005 448.645 767.794 447.347 769.373C446.05 770.895 445.006 772.897 444.216 775.378C444.103 775.604 443.877 776.111 443.539 776.9C443.144 777.633 442.693 778 442.185 778C441.677 778 441.367 777.746 441.254 777.239C441.085 776.731 441 776.337 441 776.055C441.056 774.42 441.113 773.094 441.169 772.08C441.169 771.065 441.197 770.162 441.254 769.373C441.31 768.584 441.367 767.71 441.423 766.751C441.423 765.793 441.423 764.552 441.423 763.03C441.423 762.522 441.564 762.128 441.846 761.846C442.128 761.564 442.467 761.282 442.862 761C443.2 760.774 444.16 760.041 445.739 758.801C447.263 757.504 449.209 755.925 451.579 754.064C453.892 752.147 456.431 750.061 459.195 747.806C461.904 745.55 464.64 743.295 467.404 741.039C470.113 738.784 472.651 736.698 475.021 734.781C477.334 732.864 479.253 731.285 480.776 730.044C482.299 728.747 483.202 727.986 483.484 727.761C483.71 727.535 484.048 727.225 484.5 726.83C484.951 726.379 485.177 725.985 485.177 725.646C485.177 725.139 484.584 724.857 483.399 724.8C482.61 724.8 481.114 724.8 478.914 724.8C476.657 724.744 473.949 724.716 470.79 724.716C467.574 724.66 464.104 724.631 460.38 724.631C456.656 724.631 452.848 724.631 448.955 724.631C447.827 724.688 446.811 725.28 445.909 726.407C445.006 727.535 444.47 728.578 444.301 729.537C444.131 730.495 443.906 731.369 443.624 732.159C443.341 732.948 443.003 733.343 442.608 733.343C442.269 733.343 442.044 732.948 441.931 732.159C441.762 731.369 441.677 730.608 441.677 729.875C441.677 729.311 441.677 728.776 441.677 728.268C441.677 727.704 441.677 727.169 441.677 726.661C441.677 726.097 441.677 725.562 441.677 725.054C441.677 723.701 441.677 722.63 441.677 721.84C441.621 721.051 441.564 720.205 441.508 719.303C441.451 718.344 441.423 717.019 441.423 715.328C441.423 714.595 441.508 714.003 441.677 713.552C441.79 713.101 442.016 712.875 442.354 712.875C443.144 712.875 443.708 713.805 444.047 715.666C444.442 717.752 444.949 719.134 445.57 719.81C446.191 720.487 447.206 720.882 448.617 720.994C448.899 720.994 449.999 721.023 451.917 721.079C453.835 721.079 456.262 721.079 459.195 721.079C462.129 721.079 465.289 721.107 468.674 721.164C472.059 721.164 475.444 721.164 478.829 721.164C482.158 721.164 485.148 721.164 487.8 721.164C489.154 721.164 490.395 721.135 491.524 721.079C492.596 720.966 493.527 720.882 494.317 720.825C495.05 720.769 495.614 720.741 496.009 720.741C496.912 720.741 497.476 720.938 497.702 721.333C497.984 721.671 498.125 722.066 498.125 722.517Z" fill="black"/>
<path d="M498.125 696.517C498.125 697.024 497.702 698.039 496.856 699.562C496.009 701.028 494.655 702.437 492.793 703.791C492.511 704.016 491.665 704.721 490.254 705.905C488.844 707.033 487.095 708.499 485.007 710.303C482.863 712.051 480.55 713.968 478.068 716.054C475.585 718.141 473.103 720.227 470.62 722.313C468.138 724.399 465.853 726.345 463.765 728.149C461.621 729.953 459.844 731.476 458.434 732.716C456.967 733.9 456.064 734.633 455.726 734.915C455.218 735.31 454.879 735.648 454.71 735.93C454.484 736.212 454.371 736.466 454.371 736.691C454.371 736.973 454.597 737.171 455.049 737.283C455.443 737.396 455.81 737.453 456.149 737.453C458.913 737.509 462.101 737.565 465.712 737.622C469.323 737.678 473.046 737.735 476.883 737.791C480.72 737.847 484.387 737.875 487.885 737.875C489.408 737.875 490.819 737.509 492.116 736.776C493.414 735.987 494.26 734.549 494.655 732.462C494.824 731.504 495.022 730.799 495.248 730.348C495.473 729.897 495.784 729.671 496.179 729.671C496.517 729.671 496.743 729.897 496.856 730.348C497.025 730.799 497.109 731.391 497.109 732.124C497.109 733.647 497.053 734.802 496.94 735.592C496.884 736.325 496.827 737.002 496.771 737.622C496.715 738.186 496.686 739.003 496.686 740.075C496.686 741.089 496.715 741.879 496.771 742.443C496.827 743.007 496.884 743.655 496.94 744.388C497.053 745.121 497.109 746.249 497.109 747.771C497.109 748.504 497.025 749.096 496.856 749.547C496.743 749.998 496.517 750.224 496.179 750.224C495.784 750.224 495.473 749.998 495.248 749.547C495.022 749.096 494.796 748.391 494.571 747.433C494.119 745.798 493.301 744.614 492.116 743.881C490.875 743.148 489.38 742.696 487.631 742.527C485.487 742.302 482.666 742.076 479.168 741.851C475.614 741.625 471.664 741.428 467.32 741.259C462.919 741.089 458.405 741.005 453.779 741.005C450.789 741.005 448.645 741.794 447.347 743.373C446.05 744.895 445.006 746.897 444.216 749.378C444.103 749.604 443.877 750.111 443.539 750.9C443.144 751.633 442.693 752 442.185 752C441.677 752 441.367 751.746 441.254 751.239C441.085 750.731 441 750.337 441 750.055C441.056 748.42 441.113 747.094 441.169 746.08C441.169 745.065 441.197 744.162 441.254 743.373C441.31 742.584 441.367 741.71 441.423 740.751C441.423 739.793 441.423 738.552 441.423 737.03C441.423 736.522 441.564 736.128 441.846 735.846C442.128 735.564 442.467 735.282 442.862 735C443.2 734.774 444.16 734.041 445.739 732.801C447.263 731.504 449.209 729.925 451.579 728.064C453.892 726.147 456.431 724.061 459.195 721.806C461.904 719.55 464.64 717.295 467.404 715.039C470.113 712.784 472.651 710.698 475.021 708.781C477.334 706.864 479.253 705.285 480.776 704.044C482.299 702.747 483.202 701.986 483.484 701.761C483.71 701.535 484.048 701.225 484.5 700.83C484.951 700.379 485.177 699.985 485.177 699.646C485.177 699.139 484.584 698.857 483.399 698.8C482.61 698.8 481.114 698.8 478.914 698.8C476.657 698.744 473.949 698.716 470.79 698.716C467.574 698.66 464.104 698.631 460.38 698.631C456.656 698.631 452.848 698.631 448.955 698.631C447.827 698.688 446.811 699.28 445.909 700.407C445.006 701.535 444.47 702.578 444.301 703.537C444.131 704.495 443.906 705.369 443.624 706.159C443.341 706.948 443.003 707.343 442.608 707.343C442.269 707.343 442.044 706.948 441.931 706.159C441.762 705.369 441.677 704.608 441.677 703.875C441.677 703.311 441.677 702.776 441.677 702.268C441.677 701.704 441.677 701.169 441.677 700.661C441.677 700.097 441.677 699.562 441.677 699.054C441.677 697.701 441.677 696.63 441.677 695.84C441.621 695.051 441.564 694.205 441.508 693.303C441.451 692.344 441.423 691.019 441.423 689.328C441.423 688.595 441.508 688.003 441.677 687.552C441.79 687.101 442.016 686.875 442.354 686.875C443.144 686.875 443.708 687.805 444.047 689.666C444.442 691.752 444.949 693.134 445.57 693.81C446.191 694.487 447.206 694.882 448.617 694.994C448.899 694.994 449.999 695.023 451.917 695.079C453.835 695.079 456.262 695.079 459.195 695.079C462.129 695.079 465.289 695.107 468.674 695.164C472.059 695.164 475.444 695.164 478.829 695.164C482.158 695.164 485.148 695.164 487.8 695.164C489.154 695.164 490.395 695.135 491.524 695.079C492.596 694.966 493.527 694.882 494.317 694.825C495.05 694.769 495.614 694.741 496.009 694.741C496.912 694.741 497.476 694.938 497.702 695.333C497.984 695.671 498.125 696.066 498.125 696.517Z" fill="black"/>
<path d="M498.125 670.517C498.125 671.024 497.702 672.039 496.856 673.562C496.009 675.028 494.655 676.437 492.793 677.791C492.511 678.016 491.665 678.721 490.254 679.905C488.844 681.033 487.095 682.499 485.007 684.303C482.863 686.051 480.55 687.968 478.068 690.054C475.585 692.141 473.103 694.227 470.62 696.313C468.138 698.399 465.853 700.345 463.765 702.149C461.621 703.953 459.844 705.476 458.434 706.716C456.967 707.9 456.064 708.633 455.726 708.915C455.218 709.31 454.879 709.648 454.71 709.93C454.484 710.212 454.371 710.466 454.371 710.691C454.371 710.973 454.597 711.171 455.049 711.283C455.443 711.396 455.81 711.453 456.149 711.453C458.913 711.509 462.101 711.565 465.712 711.622C469.323 711.678 473.046 711.735 476.883 711.791C480.72 711.847 484.387 711.875 487.885 711.875C489.408 711.875 490.819 711.509 492.116 710.776C493.414 709.987 494.26 708.549 494.655 706.462C494.824 705.504 495.022 704.799 495.248 704.348C495.473 703.897 495.784 703.671 496.179 703.671C496.517 703.671 496.743 703.897 496.856 704.348C497.025 704.799 497.109 705.391 497.109 706.124C497.109 707.647 497.053 708.802 496.94 709.592C496.884 710.325 496.827 711.002 496.771 711.622C496.715 712.186 496.686 713.003 496.686 714.075C496.686 715.089 496.715 715.879 496.771 716.443C496.827 717.007 496.884 717.655 496.94 718.388C497.053 719.121 497.109 720.249 497.109 721.771C497.109 722.504 497.025 723.096 496.856 723.547C496.743 723.998 496.517 724.224 496.179 724.224C495.784 724.224 495.473 723.998 495.248 723.547C495.022 723.096 494.796 722.391 494.571 721.433C494.119 719.798 493.301 718.614 492.116 717.881C490.875 717.148 489.38 716.696 487.631 716.527C485.487 716.302 482.666 716.076 479.168 715.851C475.614 715.625 471.664 715.428 467.32 715.259C462.919 715.089 458.405 715.005 453.779 715.005C450.789 715.005 448.645 715.794 447.347 717.373C446.05 718.895 445.006 720.897 444.216 723.378C444.103 723.604 443.877 724.111 443.539 724.9C443.144 725.633 442.693 726 442.185 726C441.677 726 441.367 725.746 441.254 725.239C441.085 724.731 441 724.337 441 724.055C441.056 722.42 441.113 721.094 441.169 720.08C441.169 719.065 441.197 718.162 441.254 717.373C441.31 716.584 441.367 715.71 441.423 714.751C441.423 713.793 441.423 712.552 441.423 711.03C441.423 710.522 441.564 710.128 441.846 709.846C442.128 709.564 442.467 709.282 442.862 709C443.2 708.774 444.16 708.041 445.739 706.801C447.263 705.504 449.209 703.925 451.579 702.064C453.892 700.147 456.431 698.061 459.195 695.806C461.904 693.55 464.64 691.295 467.404 689.039C470.113 686.784 472.651 684.698 475.021 682.781C477.334 680.864 479.253 679.285 480.776 678.044C482.299 676.747 483.202 675.986 483.484 675.761C483.71 675.535 484.048 675.225 484.5 674.83C484.951 674.379 485.177 673.985 485.177 673.646C485.177 673.139 484.584 672.857 483.399 672.8C482.61 672.8 481.114 672.8 478.914 672.8C476.657 672.744 473.949 672.716 470.79 672.716C467.574 672.66 464.104 672.631 460.38 672.631C456.656 672.631 452.848 672.631 448.955 672.631C447.827 672.688 446.811 673.28 445.909 674.407C445.006 675.535 444.47 676.578 444.301 677.537C444.131 678.495 443.906 679.369 443.624 680.159C443.341 680.948 443.003 681.343 442.608 681.343C442.269 681.343 442.044 680.948 441.931 680.159C441.762 679.369 441.677 678.608 441.677 677.875C441.677 677.311 441.677 676.776 441.677 676.268C441.677 675.704 441.677 675.169 441.677 674.661C441.677 674.097 441.677 673.562 441.677 673.054C441.677 671.701 441.677 670.63 441.677 669.84C441.621 669.051 441.564 668.205 441.508 667.303C441.451 666.344 441.423 665.019 441.423 663.328C441.423 662.595 441.508 662.003 441.677 661.552C441.79 661.101 442.016 660.875 442.354 660.875C443.144 660.875 443.708 661.805 444.047 663.666C444.442 665.752 444.949 667.134 445.57 667.81C446.191 668.487 447.206 668.882 448.617 668.994C448.899 668.994 449.999 669.023 451.917 669.079C453.835 669.079 456.262 669.079 459.195 669.079C462.129 669.079 465.289 669.107 468.674 669.164C472.059 669.164 475.444 669.164 478.829 669.164C482.158 669.164 485.148 669.164 487.8 669.164C489.154 669.164 490.395 669.135 491.524 669.079C492.596 668.966 493.527 668.882 494.317 668.825C495.05 668.769 495.614 668.741 496.009 668.741C496.912 668.741 497.476 668.938 497.702 669.333C497.984 669.671 498.125 670.066 498.125 670.517Z" fill="black"/>
<path d="M498.125 644.517C498.125 645.024 497.702 646.039 496.856 647.562C496.009 649.028 494.655 650.437 492.793 651.791C492.511 652.016 491.665 652.721 490.254 653.905C488.844 655.033 487.095 656.499 485.007 658.303C482.863 660.051 480.55 661.968 478.068 664.054C475.585 666.141 473.103 668.227 470.62 670.313C468.138 672.399 465.853 674.345 463.765 676.149C461.621 677.953 459.844 679.476 458.434 680.716C456.967 681.9 456.064 682.633 455.726 682.915C455.218 683.31 454.879 683.648 454.71 683.93C454.484 684.212 454.371 684.466 454.371 684.691C454.371 684.973 454.597 685.171 455.049 685.283C455.443 685.396 455.81 685.453 456.149 685.453C458.913 685.509 462.101 685.565 465.712 685.622C469.323 685.678 473.046 685.735 476.883 685.791C480.72 685.847 484.387 685.875 487.885 685.875C489.408 685.875 490.819 685.509 492.116 684.776C493.414 683.987 494.26 682.549 494.655 680.462C494.824 679.504 495.022 678.799 495.248 678.348C495.473 677.897 495.784 677.671 496.179 677.671C496.517 677.671 496.743 677.897 496.856 678.348C497.025 678.799 497.109 679.391 497.109 680.124C497.109 681.647 497.053 682.802 496.94 683.592C496.884 684.325 496.827 685.002 496.771 685.622C496.715 686.186 496.686 687.003 496.686 688.075C496.686 689.089 496.715 689.879 496.771 690.443C496.827 691.007 496.884 691.655 496.94 692.388C497.053 693.121 497.109 694.249 497.109 695.771C497.109 696.504 497.025 697.096 496.856 697.547C496.743 697.998 496.517 698.224 496.179 698.224C495.784 698.224 495.473 697.998 495.248 697.547C495.022 697.096 494.796 696.391 494.571 695.433C494.119 693.798 493.301 692.614 492.116 691.881C490.875 691.148 489.38 690.696 487.631 690.527C485.487 690.302 482.666 690.076 479.168 689.851C475.614 689.625 471.664 689.428 467.32 689.259C462.919 689.089 458.405 689.005 453.779 689.005C450.789 689.005 448.645 689.794 447.347 691.373C446.05 692.895 445.006 694.897 444.216 697.378C444.103 697.604 443.877 698.111 443.539 698.9C443.144 699.633 442.693 700 442.185 700C441.677 700 441.367 699.746 441.254 699.239C441.085 698.731 441 698.337 441 698.055C441.056 696.42 441.113 695.094 441.169 694.08C441.169 693.065 441.197 692.162 441.254 691.373C441.31 690.584 441.367 689.71 441.423 688.751C441.423 687.793 441.423 686.552 441.423 685.03C441.423 684.522 441.564 684.128 441.846 683.846C442.128 683.564 442.467 683.282 442.862 683C443.2 682.774 444.16 682.041 445.739 680.801C447.263 679.504 449.209 677.925 451.579 676.064C453.892 674.147 456.431 672.061 459.195 669.806C461.904 667.55 464.64 665.295 467.404 663.039C470.113 660.784 472.651 658.698 475.021 656.781C477.334 654.864 479.253 653.285 480.776 652.044C482.299 650.747 483.202 649.986 483.484 649.761C483.71 649.535 484.048 649.225 484.5 648.83C484.951 648.379 485.177 647.985 485.177 647.646C485.177 647.139 484.584 646.857 483.399 646.8C482.61 646.8 481.114 646.8 478.914 646.8C476.657 646.744 473.949 646.716 470.79 646.716C467.574 646.66 464.104 646.631 460.38 646.631C456.656 646.631 452.848 646.631 448.955 646.631C447.827 646.688 446.811 647.28 445.909 648.407C445.006 649.535 444.47 650.578 444.301 651.537C444.131 652.495 443.906 653.369 443.624 654.159C443.341 654.948 443.003 655.343 442.608 655.343C442.269 655.343 442.044 654.948 441.931 654.159C441.762 653.369 441.677 652.608 441.677 651.875C441.677 651.311 441.677 650.776 441.677 650.268C441.677 649.704 441.677 649.169 441.677 648.661C441.677 648.097 441.677 647.562 441.677 647.054C441.677 645.701 441.677 644.63 441.677 643.84C441.621 643.051 441.564 642.205 441.508 641.303C441.451 640.344 441.423 639.019 441.423 637.328C441.423 636.595 441.508 636.003 441.677 635.552C441.79 635.101 442.016 634.875 442.354 634.875C443.144 634.875 443.708 635.805 444.047 637.666C444.442 639.752 444.949 641.134 445.57 641.81C446.191 642.487 447.206 642.882 448.617 642.994C448.899 642.994 449.999 643.023 451.917 643.079C453.835 643.079 456.262 643.079 459.195 643.079C462.129 643.079 465.289 643.107 468.674 643.164C472.059 643.164 475.444 643.164 478.829 643.164C482.158 643.164 485.148 643.164 487.8 643.164C489.154 643.164 490.395 643.135 491.524 643.079C492.596 642.966 493.527 642.882 494.317 642.825C495.05 642.769 495.614 642.741 496.009 642.741C496.912 642.741 497.476 642.938 497.702 643.333C497.984 643.671 498.125 644.066 498.125 644.517Z" fill="black"/>
<path d="M498.125 618.517C498.125 619.024 497.702 620.039 496.856 621.562C496.009 623.028 494.655 624.437 492.793 625.791C492.511 626.016 491.665 626.721 490.254 627.905C488.844 629.033 487.095 630.499 485.007 632.303C482.863 634.051 480.55 635.968 478.068 638.054C475.585 640.141 473.103 642.227 470.62 644.313C468.138 646.399 465.853 648.345 463.765 650.149C461.621 651.953 459.844 653.476 458.434 654.716C456.967 655.9 456.064 656.633 455.726 656.915C455.218 657.31 454.879 657.648 454.71 657.93C454.484 658.212 454.371 658.466 454.371 658.691C454.371 658.973 454.597 659.171 455.049 659.283C455.443 659.396 455.81 659.453 456.149 659.453C458.913 659.509 462.101 659.565 465.712 659.622C469.323 659.678 473.046 659.735 476.883 659.791C480.72 659.847 484.387 659.875 487.885 659.875C489.408 659.875 490.819 659.509 492.116 658.776C493.414 657.987 494.26 656.549 494.655 654.462C494.824 653.504 495.022 652.799 495.248 652.348C495.473 651.897 495.784 651.671 496.179 651.671C496.517 651.671 496.743 651.897 496.856 652.348C497.025 652.799 497.109 653.391 497.109 654.124C497.109 655.647 497.053 656.802 496.94 657.592C496.884 658.325 496.827 659.002 496.771 659.622C496.715 660.186 496.686 661.003 496.686 662.075C496.686 663.089 496.715 663.879 496.771 664.443C496.827 665.007 496.884 665.655 496.94 666.388C497.053 667.121 497.109 668.249 497.109 669.771C497.109 670.504 497.025 671.096 496.856 671.547C496.743 671.998 496.517 672.224 496.179 672.224C495.784 672.224 495.473 671.998 495.248 671.547C495.022 671.096 494.796 670.391 494.571 669.433C494.119 667.798 493.301 666.614 492.116 665.881C490.875 665.148 489.38 664.696 487.631 664.527C485.487 664.302 482.666 664.076 479.168 663.851C475.614 663.625 471.664 663.428 467.32 663.259C462.919 663.089 458.405 663.005 453.779 663.005C450.789 663.005 448.645 663.794 447.347 665.373C446.05 666.895 445.006 668.897 444.216 671.378C444.103 671.604 443.877 672.111 443.539 672.9C443.144 673.633 442.693 674 442.185 674C441.677 674 441.367 673.746 441.254 673.239C441.085 672.731 441 672.337 441 672.055C441.056 670.42 441.113 669.094 441.169 668.08C441.169 667.065 441.197 666.162 441.254 665.373C441.31 664.584 441.367 663.71 441.423 662.751C441.423 661.793 441.423 660.552 441.423 659.03C441.423 658.522 441.564 658.128 441.846 657.846C442.128 657.564 442.467 657.282 442.862 657C443.2 656.774 444.16 656.041 445.739 654.801C447.263 653.504 449.209 651.925 451.579 650.064C453.892 648.147 456.431 646.061 459.195 643.806C461.904 641.55 464.64 639.295 467.404 637.039C470.113 634.784 472.651 632.698 475.021 630.781C477.334 628.864 479.253 627.285 480.776 626.044C482.299 624.747 483.202 623.986 483.484 623.761C483.71 623.535 484.048 623.225 484.5 622.83C484.951 622.379 485.177 621.985 485.177 621.646C485.177 621.139 484.584 620.857 483.399 620.8C482.61 620.8 481.114 620.8 478.914 620.8C476.657 620.744 473.949 620.716 470.79 620.716C467.574 620.66 464.104 620.631 460.38 620.631C456.656 620.631 452.848 620.631 448.955 620.631C447.827 620.688 446.811 621.28 445.909 622.407C445.006 623.535 444.47 624.578 444.301 625.537C444.131 626.495 443.906 627.369 443.624 628.159C443.341 628.948 443.003 629.343 442.608 629.343C442.269 629.343 442.044 628.948 441.931 628.159C441.762 627.369 441.677 626.608 441.677 625.875C441.677 625.311 441.677 624.776 441.677 624.268C441.677 623.704 441.677 623.169 441.677 622.661C441.677 622.097 441.677 621.562 441.677 621.054C441.677 619.701 441.677 618.63 441.677 617.84C441.621 617.051 441.564 616.205 441.508 615.303C441.451 614.344 441.423 613.019 441.423 611.328C441.423 610.595 441.508 610.003 441.677 609.552C441.79 609.101 442.016 608.875 442.354 608.875C443.144 608.875 443.708 609.805 444.047 611.666C444.442 613.752 444.949 615.134 445.57 615.81C446.191 616.487 447.206 616.882 448.617 616.994C448.899 616.994 449.999 617.023 451.917 617.079C453.835 617.079 456.262 617.079 459.195 617.079C462.129 617.079 465.289 617.107 468.674 617.164C472.059 617.164 475.444 617.164 478.829 617.164C482.158 617.164 485.148 617.164 487.8 617.164C489.154 617.164 490.395 617.135 491.524 617.079C492.596 616.966 493.527 616.882 494.317 616.825C495.05 616.769 495.614 616.741 496.009 616.741C496.912 616.741 497.476 616.938 497.702 617.333C497.984 617.671 498.125 618.066 498.125 618.517Z" fill="black"/>
<path d="M498.125 592.517C498.125 593.024 497.702 594.039 496.856 595.562C496.009 597.028 494.655 598.437 492.793 599.791C492.511 600.016 491.665 600.721 490.254 601.905C488.844 603.033 487.095 604.499 485.007 606.303C482.863 608.051 480.55 609.968 478.068 612.054C475.585 614.141 473.103 616.227 470.62 618.313C468.138 620.399 465.853 622.345 463.765 624.149C461.621 625.953 459.844 627.476 458.434 628.716C456.967 629.9 456.064 630.633 455.726 630.915C455.218 631.31 454.879 631.648 454.71 631.93C454.484 632.212 454.371 632.466 454.371 632.691C454.371 632.973 454.597 633.171 455.049 633.283C455.443 633.396 455.81 633.453 456.149 633.453C458.913 633.509 462.101 633.565 465.712 633.622C469.323 633.678 473.046 633.735 476.883 633.791C480.72 633.847 484.387 633.875 487.885 633.875C489.408 633.875 490.819 633.509 492.116 632.776C493.414 631.987 494.26 630.549 494.655 628.462C494.824 627.504 495.022 626.799 495.248 626.348C495.473 625.897 495.784 625.671 496.179 625.671C496.517 625.671 496.743 625.897 496.856 626.348C497.025 626.799 497.109 627.391 497.109 628.124C497.109 629.647 497.053 630.802 496.94 631.592C496.884 632.325 496.827 633.002 496.771 633.622C496.715 634.186 496.686 635.003 496.686 636.075C496.686 637.089 496.715 637.879 496.771 638.443C496.827 639.007 496.884 639.655 496.94 640.388C497.053 641.121 497.109 642.249 497.109 643.771C497.109 644.504 497.025 645.096 496.856 645.547C496.743 645.998 496.517 646.224 496.179 646.224C495.784 646.224 495.473 645.998 495.248 645.547C495.022 645.096 494.796 644.391 494.571 643.433C494.119 641.798 493.301 640.614 492.116 639.881C490.875 639.148 489.38 638.696 487.631 638.527C485.487 638.302 482.666 638.076 479.168 637.851C475.614 637.625 471.664 637.428 467.32 637.259C462.919 637.089 458.405 637.005 453.779 637.005C450.789 637.005 448.645 637.794 447.347 639.373C446.05 640.895 445.006 642.897 444.216 645.378C444.103 645.604 443.877 646.111 443.539 646.9C443.144 647.633 442.693 648 442.185 648C441.677 648 441.367 647.746 441.254 647.239C441.085 646.731 441 646.337 441 646.055C441.056 644.42 441.113 643.094 441.169 642.08C441.169 641.065 441.197 640.162 441.254 639.373C441.31 638.584 441.367 637.71 441.423 636.751C441.423 635.793 441.423 634.552 441.423 633.03C441.423 632.522 441.564 632.128 441.846 631.846C442.128 631.564 442.467 631.282 442.862 631C443.2 630.774 444.16 630.041 445.739 628.801C447.263 627.504 449.209 625.925 451.579 624.064C453.892 622.147 456.431 620.061 459.195 617.806C461.904 615.55 464.64 613.295 467.404 611.039C470.113 608.784 472.651 606.698 475.021 604.781C477.334 602.864 479.253 601.285 480.776 600.044C482.299 598.747 483.202 597.986 483.484 597.761C483.71 597.535 484.048 597.225 484.5 596.83C484.951 596.379 485.177 595.985 485.177 595.646C485.177 595.139 484.584 594.857 483.399 594.8C482.61 594.8 481.114 594.8 478.914 594.8C476.657 594.744 473.949 594.716 470.79 594.716C467.574 594.66 464.104 594.631 460.38 594.631C456.656 594.631 452.848 594.631 448.955 594.631C447.827 594.688 446.811 595.28 445.909 596.407C445.006 597.535 444.47 598.578 444.301 599.537C444.131 600.495 443.906 601.369 443.624 602.159C443.341 602.948 443.003 603.343 442.608 603.343C442.269 603.343 442.044 602.948 441.931 602.159C441.762 601.369 441.677 600.608 441.677 599.875C441.677 599.311 441.677 598.776 441.677 598.268C441.677 597.704 441.677 597.169 441.677 596.661C441.677 596.097 441.677 595.562 441.677 595.054C441.677 593.701 441.677 592.63 441.677 591.84C441.621 591.051 441.564 590.205 441.508 589.303C441.451 588.344 441.423 587.019 441.423 585.328C441.423 584.595 441.508 584.003 441.677 583.552C441.79 583.101 442.016 582.875 442.354 582.875C443.144 582.875 443.708 583.805 444.047 585.666C444.442 587.752 444.949 589.134 445.57 589.81C446.191 590.487 447.206 590.882 448.617 590.994C448.899 590.994 449.999 591.023 451.917 591.079C453.835 591.079 456.262 591.079 459.195 591.079C462.129 591.079 465.289 591.107 468.674 591.164C472.059 591.164 475.444 591.164 478.829 591.164C482.158 591.164 485.148 591.164 487.8 591.164C489.154 591.164 490.395 591.135 491.524 591.079C492.596 590.966 493.527 590.882 494.317 590.825C495.05 590.769 495.614 590.741 496.009 590.741C496.912 590.741 497.476 590.938 497.702 591.333C497.984 591.671 498.125 592.066 498.125 592.517Z" fill="black"/>
<path d="M498.125 566.517C498.125 567.024 497.702 568.039 496.856 569.562C496.009 571.028 494.655 572.437 492.793 573.791C492.511 574.016 491.665 574.721 490.254 575.905C488.844 577.033 487.095 578.499 485.007 580.303C482.863 582.051 480.55 583.968 478.068 586.054C475.585 588.141 473.103 590.227 470.62 592.313C468.138 594.399 465.853 596.345 463.765 598.149C461.621 599.953 459.844 601.476 458.434 602.716C456.967 603.9 456.064 604.633 455.726 604.915C455.218 605.31 454.879 605.648 454.71 605.93C454.484 606.212 454.371 606.466 454.371 606.691C454.371 606.973 454.597 607.171 455.049 607.283C455.443 607.396 455.81 607.453 456.149 607.453C458.913 607.509 462.101 607.565 465.712 607.622C469.323 607.678 473.046 607.735 476.883 607.791C480.72 607.847 484.387 607.875 487.885 607.875C489.408 607.875 490.819 607.509 492.116 606.776C493.414 605.987 494.26 604.549 494.655 602.462C494.824 601.504 495.022 600.799 495.248 600.348C495.473 599.897 495.784 599.671 496.179 599.671C496.517 599.671 496.743 599.897 496.856 600.348C497.025 600.799 497.109 601.391 497.109 602.124C497.109 603.647 497.053 604.802 496.94 605.592C496.884 606.325 496.827 607.002 496.771 607.622C496.715 608.186 496.686 609.003 496.686 610.075C496.686 611.089 496.715 611.879 496.771 612.443C496.827 613.007 496.884 613.655 496.94 614.388C497.053 615.121 497.109 616.249 497.109 617.771C497.109 618.504 497.025 619.096 496.856 619.547C496.743 619.998 496.517 620.224 496.179 620.224C495.784 620.224 495.473 619.998 495.248 619.547C495.022 619.096 494.796 618.391 494.571 617.433C494.119 615.798 493.301 614.614 492.116 613.881C490.875 613.148 489.38 612.696 487.631 612.527C485.487 612.302 482.666 612.076 479.168 611.851C475.614 611.625 471.664 611.428 467.32 611.259C462.919 611.089 458.405 611.005 453.779 611.005C450.789 611.005 448.645 611.794 447.347 613.373C446.05 614.895 445.006 616.897 444.216 619.378C444.103 619.604 443.877 620.111 443.539 620.9C443.144 621.633 442.693 622 442.185 622C441.677 622 441.367 621.746 441.254 621.239C441.085 620.731 441 620.337 441 620.055C441.056 618.42 441.113 617.094 441.169 616.08C441.169 615.065 441.197 614.162 441.254 613.373C441.31 612.584 441.367 611.71 441.423 610.751C441.423 609.793 441.423 608.552 441.423 607.03C441.423 606.522 441.564 606.128 441.846 605.846C442.128 605.564 442.467 605.282 442.862 605C443.2 604.774 444.16 604.041 445.739 602.801C447.263 601.504 449.209 599.925 451.579 598.064C453.892 596.147 456.431 594.061 459.195 591.806C461.904 589.55 464.64 587.295 467.404 585.039C470.113 582.784 472.651 580.698 475.021 578.781C477.334 576.864 479.253 575.285 480.776 574.044C482.299 572.747 483.202 571.986 483.484 571.761C483.71 571.535 484.048 571.225 484.5 570.83C484.951 570.379 485.177 569.985 485.177 569.646C485.177 569.139 484.584 568.857 483.399 568.8C482.61 568.8 481.114 568.8 478.914 568.8C476.657 568.744 473.949 568.716 470.79 568.716C467.574 568.66 464.104 568.631 460.38 568.631C456.656 568.631 452.848 568.631 448.955 568.631C447.827 568.688 446.811 569.28 445.909 570.407C445.006 571.535 444.47 572.578 444.301 573.537C444.131 574.495 443.906 575.369 443.624 576.159C443.341 576.948 443.003 577.343 442.608 577.343C442.269 577.343 442.044 576.948 441.931 576.159C441.762 575.369 441.677 574.608 441.677 573.875C441.677 573.311 441.677 572.776 441.677 572.268C441.677 571.704 441.677 571.169 441.677 570.661C441.677 570.097 441.677 569.562 441.677 569.054C441.677 567.701 441.677 566.63 441.677 565.84C441.621 565.051 441.564 564.205 441.508 563.303C441.451 562.344 441.423 561.019 441.423 559.328C441.423 558.595 441.508 558.003 441.677 557.552C441.79 557.101 442.016 556.875 442.354 556.875C443.144 556.875 443.708 557.805 444.047 559.666C444.442 561.752 444.949 563.134 445.57 563.81C446.191 564.487 447.206 564.882 448.617 564.994C448.899 564.994 449.999 565.023 451.917 565.079C453.835 565.079 456.262 565.079 459.195 565.079C462.129 565.079 465.289 565.107 468.674 565.164C472.059 565.164 475.444 565.164 478.829 565.164C482.158 565.164 485.148 565.164 487.8 565.164C489.154 565.164 490.395 565.135 491.524 565.079C492.596 564.966 493.527 564.882 494.317 564.825C495.05 564.769 495.614 564.741 496.009 564.741C496.912 564.741 497.476 564.938 497.702 565.333C497.984 565.671 498.125 566.066 498.125 566.517Z" fill="black"/>
<path d="M498.125 540.517C498.125 541.024 497.702 542.039 496.856 543.562C496.009 545.028 494.655 546.437 492.793 547.791C492.511 548.016 491.665 548.721 490.254 549.905C488.844 551.033 487.095 552.499 485.007 554.303C482.863 556.051 480.55 557.968 478.068 560.054C475.585 562.141 473.103 564.227 470.62 566.313C468.138 568.399 465.853 570.345 463.765 572.149C461.621 573.953 459.844 575.476 458.434 576.716C456.967 577.9 456.064 578.633 455.726 578.915C455.218 579.31 454.879 579.648 454.71 579.93C454.484 580.212 454.371 580.466 454.371 580.691C454.371 580.973 454.597 581.171 455.049 581.283C455.443 581.396 455.81 581.453 456.149 581.453C458.913 581.509 462.101 581.565 465.712 581.622C469.323 581.678 473.046 581.735 476.883 581.791C480.72 581.847 484.387 581.875 487.885 581.875C489.408 581.875 490.819 581.509 492.116 580.776C493.414 579.987 494.26 578.549 494.655 576.462C494.824 575.504 495.022 574.799 495.248 574.348C495.473 573.897 495.784 573.671 496.179 573.671C496.517 573.671 496.743 573.897 496.856 574.348C497.025 574.799 497.109 575.391 497.109 576.124C497.109 577.647 497.053 578.802 496.94 579.592C496.884 580.325 496.827 581.002 496.771 581.622C496.715 582.186 496.686 583.003 496.686 584.075C496.686 585.089 496.715 585.879 496.771 586.443C496.827 587.007 496.884 587.655 496.94 588.388C497.053 589.121 497.109 590.249 497.109 591.771C497.109 592.504 497.025 593.096 496.856 593.547C496.743 593.998 496.517 594.224 496.179 594.224C495.784 594.224 495.473 593.998 495.248 593.547C495.022 593.096 494.796 592.391 494.571 591.433C494.119 589.798 493.301 588.614 492.116 587.881C490.875 587.148 489.38 586.696 487.631 586.527C485.487 586.302 482.666 586.076 479.168 585.851C475.614 585.625 471.664 585.428 467.32 585.259C462.919 585.089 458.405 585.005 453.779 585.005C450.789 585.005 448.645 585.794 447.347 587.373C446.05 588.895 445.006 590.897 444.216 593.378C444.103 593.604 443.877 594.111 443.539 594.9C443.144 595.633 442.693 596 442.185 596C441.677 596 441.367 595.746 441.254 595.239C441.085 594.731 441 594.337 441 594.055C441.056 592.42 441.113 591.094 441.169 590.08C441.169 589.065 441.197 588.162 441.254 587.373C441.31 586.584 441.367 585.71 441.423 584.751C441.423 583.793 441.423 582.552 441.423 581.03C441.423 580.522 441.564 580.128 441.846 579.846C442.128 579.564 442.467 579.282 442.862 579C443.2 578.774 444.16 578.041 445.739 576.801C447.263 575.504 449.209 573.925 451.579 572.064C453.892 570.147 456.431 568.061 459.195 565.806C461.904 563.55 464.64 561.295 467.404 559.039C470.113 556.784 472.651 554.698 475.021 552.781C477.334 550.864 479.253 549.285 480.776 548.044C482.299 546.747 483.202 545.986 483.484 545.761C483.71 545.535 484.048 545.225 484.5 544.83C484.951 544.379 485.177 543.985 485.177 543.646C485.177 543.139 484.584 542.857 483.399 542.8C482.61 542.8 481.114 542.8 478.914 542.8C476.657 542.744 473.949 542.716 470.79 542.716C467.574 542.66 464.104 542.631 460.38 542.631C456.656 542.631 452.848 542.631 448.955 542.631C447.827 542.688 446.811 543.28 445.909 544.407C445.006 545.535 444.47 546.578 444.301 547.537C444.131 548.495 443.906 549.369 443.624 550.159C443.341 550.948 443.003 551.343 442.608 551.343C442.269 551.343 442.044 550.948 441.931 550.159C441.762 549.369 441.677 548.608 441.677 547.875C441.677 547.311 441.677 546.776 441.677 546.268C441.677 545.704 441.677 545.169 441.677 544.661C441.677 544.097 441.677 543.562 441.677 543.054C441.677 541.701 441.677 540.63 441.677 539.84C441.621 539.051 441.564 538.205 441.508 537.303C441.451 536.344 441.423 535.019 441.423 533.328C441.423 532.595 441.508 532.003 441.677 531.552C441.79 531.101 442.016 530.875 442.354 530.875C443.144 530.875 443.708 531.805 444.047 533.666C444.442 535.752 444.949 537.134 445.57 537.81C446.191 538.487 447.206 538.882 448.617 538.994C448.899 538.994 449.999 539.023 451.917 539.079C453.835 539.079 456.262 539.079 459.195 539.079C462.129 539.079 465.289 539.107 468.674 539.164C472.059 539.164 475.444 539.164 478.829 539.164C482.158 539.164 485.148 539.164 487.8 539.164C489.154 539.164 490.395 539.135 491.524 539.079C492.596 538.966 493.527 538.882 494.317 538.825C495.05 538.769 495.614 538.741 496.009 538.741C496.912 538.741 497.476 538.938 497.702 539.333C497.984 539.671 498.125 540.066 498.125 540.517Z" fill="black"/>
<path d="M498.125 514.517C498.125 515.024 497.702 516.039 496.856 517.562C496.009 519.028 494.655 520.437 492.793 521.791C492.511 522.016 491.665 522.721 490.254 523.905C488.844 525.033 487.095 526.499 485.007 528.303C482.863 530.051 480.55 531.968 478.068 534.054C475.585 536.141 473.103 538.227 470.62 540.313C468.138 542.399 465.853 544.345 463.765 546.149C461.621 547.953 459.844 549.476 458.434 550.716C456.967 551.9 456.064 552.633 455.726 552.915C455.218 553.31 454.879 553.648 454.71 553.93C454.484 554.212 454.371 554.466 454.371 554.691C454.371 554.973 454.597 555.171 455.049 555.283C455.443 555.396 455.81 555.453 456.149 555.453C458.913 555.509 462.101 555.565 465.712 555.622C469.323 555.678 473.046 555.735 476.883 555.791C480.72 555.847 484.387 555.875 487.885 555.875C489.408 555.875 490.819 555.509 492.116 554.776C493.414 553.987 494.26 552.549 494.655 550.462C494.824 549.504 495.022 548.799 495.248 548.348C495.473 547.897 495.784 547.671 496.179 547.671C496.517 547.671 496.743 547.897 496.856 548.348C497.025 548.799 497.109 549.391 497.109 550.124C497.109 551.647 497.053 552.802 496.94 553.592C496.884 554.325 496.827 555.002 496.771 555.622C496.715 556.186 496.686 557.003 496.686 558.075C496.686 559.089 496.715 559.879 496.771 560.443C496.827 561.007 496.884 561.655 496.94 562.388C497.053 563.121 497.109 564.249 497.109 565.771C497.109 566.504 497.025 567.096 496.856 567.547C496.743 567.998 496.517 568.224 496.179 568.224C495.784 568.224 495.473 567.998 495.248 567.547C495.022 567.096 494.796 566.391 494.571 565.433C494.119 563.798 493.301 562.614 492.116 561.881C490.875 561.148 489.38 560.696 487.631 560.527C485.487 560.302 482.666 560.076 479.168 559.851C475.614 559.625 471.664 559.428 467.32 559.259C462.919 559.089 458.405 559.005 453.779 559.005C450.789 559.005 448.645 559.794 447.347 561.373C446.05 562.895 445.006 564.897 444.216 567.378C444.103 567.604 443.877 568.111 443.539 568.9C443.144 569.633 442.693 570 442.185 570C441.677 570 441.367 569.746 441.254 569.239C441.085 568.731 441 568.337 441 568.055C441.056 566.42 441.113 565.094 441.169 564.08C441.169 563.065 441.197 562.162 441.254 561.373C441.31 560.584 441.367 559.71 441.423 558.751C441.423 557.793 441.423 556.552 441.423 555.03C441.423 554.522 441.564 554.128 441.846 553.846C442.128 553.564 442.467 553.282 442.862 553C443.2 552.774 444.16 552.041 445.739 550.801C447.263 549.504 449.209 547.925 451.579 546.064C453.892 544.147 456.431 542.061 459.195 539.806C461.904 537.55 464.64 535.295 467.404 533.039C470.113 530.784 472.651 528.698 475.021 526.781C477.334 524.864 479.253 523.285 480.776 522.044C482.299 520.747 483.202 519.986 483.484 519.761C483.71 519.535 484.048 519.225 484.5 518.83C484.951 518.379 485.177 517.985 485.177 517.646C485.177 517.139 484.584 516.857 483.399 516.8C482.61 516.8 481.114 516.8 478.914 516.8C476.657 516.744 473.949 516.716 470.79 516.716C467.574 516.66 464.104 516.631 460.38 516.631C456.656 516.631 452.848 516.631 448.955 516.631C447.827 516.688 446.811 517.28 445.909 518.407C445.006 519.535 444.47 520.578 444.301 521.537C444.131 522.495 443.906 523.369 443.624 524.159C443.341 524.948 443.003 525.343 442.608 525.343C442.269 525.343 442.044 524.948 441.931 524.159C441.762 523.369 441.677 522.608 441.677 521.875C441.677 521.311 441.677 520.776 441.677 520.268C441.677 519.704 441.677 519.169 441.677 518.661C441.677 518.097 441.677 517.562 441.677 517.054C441.677 515.701 441.677 514.63 441.677 513.84C441.621 513.051 441.564 512.205 441.508 511.303C441.451 510.344 441.423 509.019 441.423 507.328C441.423 506.595 441.508 506.003 441.677 505.552C441.79 505.101 442.016 504.875 442.354 504.875C443.144 504.875 443.708 505.805 444.047 507.666C444.442 509.752 444.949 511.134 445.57 511.81C446.191 512.487 447.206 512.882 448.617 512.994C448.899 512.994 449.999 513.023 451.917 513.079C453.835 513.079 456.262 513.079 459.195 513.079C462.129 513.079 465.289 513.107 468.674 513.164C472.059 513.164 475.444 513.164 478.829 513.164C482.158 513.164 485.148 513.164 487.8 513.164C489.154 513.164 490.395 513.135 491.524 513.079C492.596 512.966 493.527 512.882 494.317 512.825C495.05 512.769 495.614 512.741 496.009 512.741C496.912 512.741 497.476 512.938 497.702 513.333C497.984 513.671 498.125 514.066 498.125 514.517Z" fill="black"/>
<path d="M498.125 488.517C498.125 489.024 497.702 490.039 496.856 491.562C496.009 493.028 494.655 494.437 492.793 495.791C492.511 496.016 491.665 496.721 490.254 497.905C488.844 499.033 487.095 500.499 485.007 502.303C482.863 504.051 480.55 505.968 478.068 508.054C475.585 510.141 473.103 512.227 470.62 514.313C468.138 516.399 465.853 518.345 463.765 520.149C461.621 521.953 459.844 523.476 458.434 524.716C456.967 525.9 456.064 526.633 455.726 526.915C455.218 527.31 454.879 527.648 454.71 527.93C454.484 528.212 454.371 528.466 454.371 528.691C454.371 528.973 454.597 529.171 455.049 529.283C455.443 529.396 455.81 529.453 456.149 529.453C458.913 529.509 462.101 529.565 465.712 529.622C469.323 529.678 473.046 529.735 476.883 529.791C480.72 529.847 484.387 529.875 487.885 529.875C489.408 529.875 490.819 529.509 492.116 528.776C493.414 527.987 494.26 526.549 494.655 524.462C494.824 523.504 495.022 522.799 495.248 522.348C495.473 521.897 495.784 521.671 496.179 521.671C496.517 521.671 496.743 521.897 496.856 522.348C497.025 522.799 497.109 523.391 497.109 524.124C497.109 525.647 497.053 526.802 496.94 527.592C496.884 528.325 496.827 529.002 496.771 529.622C496.715 530.186 496.686 531.003 496.686 532.075C496.686 533.089 496.715 533.879 496.771 534.443C496.827 535.007 496.884 535.655 496.94 536.388C497.053 537.121 497.109 538.249 497.109 539.771C497.109 540.504 497.025 541.096 496.856 541.547C496.743 541.998 496.517 542.224 496.179 542.224C495.784 542.224 495.473 541.998 495.248 541.547C495.022 541.096 494.796 540.391 494.571 539.433C494.119 537.798 493.301 536.614 492.116 535.881C490.875 535.148 489.38 534.696 487.631 534.527C485.487 534.302 482.666 534.076 479.168 533.851C475.614 533.625 471.664 533.428 467.32 533.259C462.919 533.089 458.405 533.005 453.779 533.005C450.789 533.005 448.645 533.794 447.347 535.373C446.05 536.895 445.006 538.897 444.216 541.378C444.103 541.604 443.877 542.111 443.539 542.9C443.144 543.633 442.693 544 442.185 544C441.677 544 441.367 543.746 441.254 543.239C441.085 542.731 441 542.337 441 542.055C441.056 540.42 441.113 539.094 441.169 538.08C441.169 537.065 441.197 536.162 441.254 535.373C441.31 534.584 441.367 533.71 441.423 532.751C441.423 531.793 441.423 530.552 441.423 529.03C441.423 528.522 441.564 528.128 441.846 527.846C442.128 527.564 442.467 527.282 442.862 527C443.2 526.774 444.16 526.041 445.739 524.801C447.263 523.504 449.209 521.925 451.579 520.064C453.892 518.147 456.431 516.061 459.195 513.806C461.904 511.55 464.64 509.295 467.404 507.039C470.113 504.784 472.651 502.698 475.021 500.781C477.334 498.864 479.253 497.285 480.776 496.044C482.299 494.747 483.202 493.986 483.484 493.761C483.71 493.535 484.048 493.225 484.5 492.83C484.951 492.379 485.177 491.985 485.177 491.646C485.177 491.139 484.584 490.857 483.399 490.8C482.61 490.8 481.114 490.8 478.914 490.8C476.657 490.744 473.949 490.716 470.79 490.716C467.574 490.66 464.104 490.631 460.38 490.631C456.656 490.631 452.848 490.631 448.955 490.631C447.827 490.688 446.811 491.28 445.909 492.407C445.006 493.535 444.47 494.578 444.301 495.537C444.131 496.495 443.906 497.369 443.624 498.159C443.341 498.948 443.003 499.343 442.608 499.343C442.269 499.343 442.044 498.948 441.931 498.159C441.762 497.369 441.677 496.608 441.677 495.875C441.677 495.311 441.677 494.776 441.677 494.268C441.677 493.704 441.677 493.169 441.677 492.661C441.677 492.097 441.677 491.562 441.677 491.054C441.677 489.701 441.677 488.63 441.677 487.84C441.621 487.051 441.564 486.205 441.508 485.303C441.451 484.344 441.423 483.019 441.423 481.328C441.423 480.595 441.508 480.003 441.677 479.552C441.79 479.101 442.016 478.875 442.354 478.875C443.144 478.875 443.708 479.805 444.047 481.666C444.442 483.752 444.949 485.134 445.57 485.81C446.191 486.487 447.206 486.882 448.617 486.994C448.899 486.994 449.999 487.023 451.917 487.079C453.835 487.079 456.262 487.079 459.195 487.079C462.129 487.079 465.289 487.107 468.674 487.164C472.059 487.164 475.444 487.164 478.829 487.164C482.158 487.164 485.148 487.164 487.8 487.164C489.154 487.164 490.395 487.135 491.524 487.079C492.596 486.966 493.527 486.882 494.317 486.825C495.05 486.769 495.614 486.741 496.009 486.741C496.912 486.741 497.476 486.938 497.702 487.333C497.984 487.671 498.125 488.066 498.125 488.517Z" fill="black"/>
<path d="M498.125 462.517C498.125 463.024 497.702 464.039 496.856 465.562C496.009 467.028 494.655 468.437 492.793 469.791C492.511 470.016 491.665 470.721 490.254 471.905C488.844 473.033 487.095 474.499 485.007 476.303C482.863 478.051 480.55 479.968 478.068 482.054C475.585 484.141 473.103 486.227 470.62 488.313C468.138 490.399 465.853 492.345 463.765 494.149C461.621 495.953 459.844 497.476 458.434 498.716C456.967 499.9 456.064 500.633 455.726 500.915C455.218 501.31 454.879 501.648 454.71 501.93C454.484 502.212 454.371 502.466 454.371 502.691C454.371 502.973 454.597 503.171 455.049 503.283C455.443 503.396 455.81 503.453 456.149 503.453C458.913 503.509 462.101 503.565 465.712 503.622C469.323 503.678 473.046 503.735 476.883 503.791C480.72 503.847 484.387 503.875 487.885 503.875C489.408 503.875 490.819 503.509 492.116 502.776C493.414 501.987 494.26 500.549 494.655 498.462C494.824 497.504 495.022 496.799 495.248 496.348C495.473 495.897 495.784 495.671 496.179 495.671C496.517 495.671 496.743 495.897 496.856 496.348C497.025 496.799 497.109 497.391 497.109 498.124C497.109 499.647 497.053 500.802 496.94 501.592C496.884 502.325 496.827 503.002 496.771 503.622C496.715 504.186 496.686 505.003 496.686 506.075C496.686 507.089 496.715 507.879 496.771 508.443C496.827 509.007 496.884 509.655 496.94 510.388C497.053 511.121 497.109 512.249 497.109 513.771C497.109 514.504 497.025 515.096 496.856 515.547C496.743 515.998 496.517 516.224 496.179 516.224C495.784 516.224 495.473 515.998 495.248 515.547C495.022 515.096 494.796 514.391 494.571 513.433C494.119 511.798 493.301 510.614 492.116 509.881C490.875 509.148 489.38 508.696 487.631 508.527C485.487 508.302 482.666 508.076 479.168 507.851C475.614 507.625 471.664 507.428 467.32 507.259C462.919 507.089 458.405 507.005 453.779 507.005C450.789 507.005 448.645 507.794 447.347 509.373C446.05 510.895 445.006 512.897 444.216 515.378C444.103 515.604 443.877 516.111 443.539 516.9C443.144 517.633 442.693 518 442.185 518C441.677 518 441.367 517.746 441.254 517.239C441.085 516.731 441 516.337 441 516.055C441.056 514.42 441.113 513.094 441.169 512.08C441.169 511.065 441.197 510.162 441.254 509.373C441.31 508.584 441.367 507.71 441.423 506.751C441.423 505.793 441.423 504.552 441.423 503.03C441.423 502.522 441.564 502.128 441.846 501.846C442.128 501.564 442.467 501.282 442.862 501C443.2 500.774 444.16 500.041 445.739 498.801C447.263 497.504 449.209 495.925 451.579 494.064C453.892 492.147 456.431 490.061 459.195 487.806C461.904 485.55 464.64 483.295 467.404 481.039C470.113 478.784 472.651 476.698 475.021 474.781C477.334 472.864 479.253 471.285 480.776 470.044C482.299 468.747 483.202 467.986 483.484 467.761C483.71 467.535 484.048 467.225 484.5 466.83C484.951 466.379 485.177 465.985 485.177 465.646C485.177 465.139 484.584 464.857 483.399 464.8C482.61 464.8 481.114 464.8 478.914 464.8C476.657 464.744 473.949 464.716 470.79 464.716C467.574 464.66 464.104 464.631 460.38 464.631C456.656 464.631 452.848 464.631 448.955 464.631C447.827 464.688 446.811 465.28 445.909 466.407C445.006 467.535 444.47 468.578 444.301 469.537C444.131 470.495 443.906 471.369 443.624 472.159C443.341 472.948 443.003 473.343 442.608 473.343C442.269 473.343 442.044 472.948 441.931 472.159C441.762 471.369 441.677 470.608 441.677 469.875C441.677 469.311 441.677 468.776 441.677 468.268C441.677 467.704 441.677 467.169 441.677 466.661C441.677 466.097 441.677 465.562 441.677 465.054C441.677 463.701 441.677 462.63 441.677 461.84C441.621 461.051 441.564 460.205 441.508 459.303C441.451 458.344 441.423 457.019 441.423 455.328C441.423 454.595 441.508 454.003 441.677 453.552C441.79 453.101 442.016 452.875 442.354 452.875C443.144 452.875 443.708 453.805 444.047 455.666C444.442 457.752 444.949 459.134 445.57 459.81C446.191 460.487 447.206 460.882 448.617 460.994C448.899 460.994 449.999 461.023 451.917 461.079C453.835 461.079 456.262 461.079 459.195 461.079C462.129 461.079 465.289 461.107 468.674 461.164C472.059 461.164 475.444 461.164 478.829 461.164C482.158 461.164 485.148 461.164 487.8 461.164C489.154 461.164 490.395 461.135 491.524 461.079C492.596 460.966 493.527 460.882 494.317 460.825C495.05 460.769 495.614 460.741 496.009 460.741C496.912 460.741 497.476 460.938 497.702 461.333C497.984 461.671 498.125 462.066 498.125 462.517Z" fill="black"/>
<path d="M498.125 436.517C498.125 437.024 497.702 438.039 496.856 439.562C496.009 441.028 494.655 442.437 492.793 443.791C492.511 444.016 491.665 444.721 490.254 445.905C488.844 447.033 487.095 448.499 485.007 450.303C482.863 452.051 480.55 453.968 478.068 456.054C475.585 458.141 473.103 460.227 470.62 462.313C468.138 464.399 465.853 466.345 463.765 468.149C461.621 469.953 459.844 471.476 458.434 472.716C456.967 473.9 456.064 474.633 455.726 474.915C455.218 475.31 454.879 475.648 454.71 475.93C454.484 476.212 454.371 476.466 454.371 476.691C454.371 476.973 454.597 477.171 455.049 477.283C455.443 477.396 455.81 477.453 456.149 477.453C458.913 477.509 462.101 477.565 465.712 477.622C469.323 477.678 473.046 477.735 476.883 477.791C480.72 477.847 484.387 477.875 487.885 477.875C489.408 477.875 490.819 477.509 492.116 476.776C493.414 475.987 494.26 474.549 494.655 472.462C494.824 471.504 495.022 470.799 495.248 470.348C495.473 469.897 495.784 469.671 496.179 469.671C496.517 469.671 496.743 469.897 496.856 470.348C497.025 470.799 497.109 471.391 497.109 472.124C497.109 473.647 497.053 474.802 496.94 475.592C496.884 476.325 496.827 477.002 496.771 477.622C496.715 478.186 496.686 479.003 496.686 480.075C496.686 481.089 496.715 481.879 496.771 482.443C496.827 483.007 496.884 483.655 496.94 484.388C497.053 485.121 497.109 486.249 497.109 487.771C497.109 488.504 497.025 489.096 496.856 489.547C496.743 489.998 496.517 490.224 496.179 490.224C495.784 490.224 495.473 489.998 495.248 489.547C495.022 489.096 494.796 488.391 494.571 487.433C494.119 485.798 493.301 484.614 492.116 483.881C490.875 483.148 489.38 482.696 487.631 482.527C485.487 482.302 482.666 482.076 479.168 481.851C475.614 481.625 471.664 481.428 467.32 481.259C462.919 481.089 458.405 481.005 453.779 481.005C450.789 481.005 448.645 481.794 447.347 483.373C446.05 484.895 445.006 486.897 444.216 489.378C444.103 489.604 443.877 490.111 443.539 490.9C443.144 491.633 442.693 492 442.185 492C441.677 492 441.367 491.746 441.254 491.239C441.085 490.731 441 490.337 441 490.055C441.056 488.42 441.113 487.094 441.169 486.08C441.169 485.065 441.197 484.162 441.254 483.373C441.31 482.584 441.367 481.71 441.423 480.751C441.423 479.793 441.423 478.552 441.423 477.03C441.423 476.522 441.564 476.128 441.846 475.846C442.128 475.564 442.467 475.282 442.862 475C443.2 474.774 444.16 474.041 445.739 472.801C447.263 471.504 449.209 469.925 451.579 468.064C453.892 466.147 456.431 464.061 459.195 461.806C461.904 459.55 464.64 457.295 467.404 455.039C470.113 452.784 472.651 450.698 475.021 448.781C477.334 446.864 479.253 445.285 480.776 444.044C482.299 442.747 483.202 441.986 483.484 441.761C483.71 441.535 484.048 441.225 484.5 440.83C484.951 440.379 485.177 439.985 485.177 439.646C485.177 439.139 484.584 438.857 483.399 438.8C482.61 438.8 481.114 438.8 478.914 438.8C476.657 438.744 473.949 438.716 470.79 438.716C467.574 438.66 464.104 438.631 460.38 438.631C456.656 438.631 452.848 438.631 448.955 438.631C447.827 438.688 446.811 439.28 445.909 440.407C445.006 441.535 444.47 442.578 444.301 443.537C444.131 444.495 443.906 445.369 443.624 446.159C443.341 446.948 443.003 447.343 442.608 447.343C442.269 447.343 442.044 446.948 441.931 446.159C441.762 445.369 441.677 444.608 441.677 443.875C441.677 443.311 441.677 442.776 441.677 442.268C441.677 441.704 441.677 441.169 441.677 440.661C441.677 440.097 441.677 439.562 441.677 439.054C441.677 437.701 441.677 436.63 441.677 435.84C441.621 435.051 441.564 434.205 441.508 433.303C441.451 432.344 441.423 431.019 441.423 429.328C441.423 428.595 441.508 428.003 441.677 427.552C441.79 427.101 442.016 426.875 442.354 426.875C443.144 426.875 443.708 427.805 444.047 429.666C444.442 431.752 444.949 433.134 445.57 433.81C446.191 434.487 447.206 434.882 448.617 434.994C448.899 434.994 449.999 435.023 451.917 435.079C453.835 435.079 456.262 435.079 459.195 435.079C462.129 435.079 465.289 435.107 468.674 435.164C472.059 435.164 475.444 435.164 478.829 435.164C482.158 435.164 485.148 435.164 487.8 435.164C489.154 435.164 490.395 435.135 491.524 435.079C492.596 434.966 493.527 434.882 494.317 434.825C495.05 434.769 495.614 434.741 496.009 434.741C496.912 434.741 497.476 434.938 497.702 435.333C497.984 435.671 498.125 436.066 498.125 436.517Z" fill="black"/>
<path d="M498.125 384.517C498.125 385.024 497.702 386.039 496.856 387.562C496.009 389.028 494.655 390.437 492.793 391.791C492.511 392.016 491.665 392.721 490.254 393.905C488.844 395.033 487.095 396.499 485.007 398.303C482.863 400.051 480.55 401.968 478.068 404.054C475.585 406.141 473.103 408.227 470.62 410.313C468.138 412.399 465.853 414.345 463.765 416.149C461.621 417.953 459.844 419.476 458.434 420.716C456.967 421.9 456.064 422.633 455.726 422.915C455.218 423.31 454.879 423.648 454.71 423.93C454.484 424.212 454.371 424.466 454.371 424.691C454.371 424.973 454.597 425.171 455.049 425.283C455.443 425.396 455.81 425.453 456.149 425.453C458.913 425.509 462.101 425.565 465.712 425.622C469.323 425.678 473.046 425.735 476.883 425.791C480.72 425.847 484.387 425.875 487.885 425.875C489.408 425.875 490.819 425.509 492.116 424.776C493.414 423.987 494.26 422.549 494.655 420.462C494.824 419.504 495.022 418.799 495.248 418.348C495.473 417.897 495.784 417.671 496.179 417.671C496.517 417.671 496.743 417.897 496.856 418.348C497.025 418.799 497.109 419.391 497.109 420.124C497.109 421.647 497.053 422.802 496.94 423.592C496.884 424.325 496.827 425.002 496.771 425.622C496.715 426.186 496.686 427.003 496.686 428.075C496.686 429.089 496.715 429.879 496.771 430.443C496.827 431.007 496.884 431.655 496.94 432.388C497.053 433.121 497.109 434.249 497.109 435.771C497.109 436.504 497.025 437.096 496.856 437.547C496.743 437.998 496.517 438.224 496.179 438.224C495.784 438.224 495.473 437.998 495.248 437.547C495.022 437.096 494.796 436.391 494.571 435.433C494.119 433.798 493.301 432.614 492.116 431.881C490.875 431.148 489.38 430.696 487.631 430.527C485.487 430.302 482.666 430.076 479.168 429.851C475.614 429.625 471.664 429.428 467.32 429.259C462.919 429.089 458.405 429.005 453.779 429.005C450.789 429.005 448.645 429.794 447.347 431.373C446.05 432.895 445.006 434.897 444.216 437.378C444.103 437.604 443.877 438.111 443.539 438.9C443.144 439.633 442.693 440 442.185 440C441.677 440 441.367 439.746 441.254 439.239C441.085 438.731 441 438.337 441 438.055C441.056 436.42 441.113 435.094 441.169 434.08C441.169 433.065 441.197 432.162 441.254 431.373C441.31 430.584 441.367 429.71 441.423 428.751C441.423 427.793 441.423 426.552 441.423 425.03C441.423 424.522 441.564 424.128 441.846 423.846C442.128 423.564 442.467 423.282 442.862 423C443.2 422.774 444.16 422.041 445.739 420.801C447.263 419.504 449.209 417.925 451.579 416.064C453.892 414.147 456.431 412.061 459.195 409.806C461.904 407.55 464.64 405.295 467.404 403.039C470.113 400.784 472.651 398.698 475.021 396.781C477.334 394.864 479.253 393.285 480.776 392.044C482.299 390.747 483.202 389.986 483.484 389.761C483.71 389.535 484.048 389.225 484.5 388.83C484.951 388.379 485.177 387.985 485.177 387.646C485.177 387.139 484.584 386.857 483.399 386.8C482.61 386.8 481.114 386.8 478.914 386.8C476.657 386.744 473.949 386.716 470.79 386.716C467.574 386.66 464.104 386.631 460.38 386.631C456.656 386.631 452.848 386.631 448.955 386.631C447.827 386.688 446.811 387.28 445.909 388.407C445.006 389.535 444.47 390.578 444.301 391.537C444.131 392.495 443.906 393.369 443.624 394.159C443.341 394.948 443.003 395.343 442.608 395.343C442.269 395.343 442.044 394.948 441.931 394.159C441.762 393.369 441.677 392.608 441.677 391.875C441.677 391.311 441.677 390.776 441.677 390.268C441.677 389.704 441.677 389.169 441.677 388.661C441.677 388.097 441.677 387.562 441.677 387.054C441.677 385.701 441.677 384.63 441.677 383.84C441.621 383.051 441.564 382.205 441.508 381.303C441.451 380.344 441.423 379.019 441.423 377.328C441.423 376.595 441.508 376.003 441.677 375.552C441.79 375.101 442.016 374.875 442.354 374.875C443.144 374.875 443.708 375.805 444.047 377.666C444.442 379.752 444.949 381.134 445.57 381.81C446.191 382.487 447.206 382.882 448.617 382.994C448.899 382.994 449.999 383.023 451.917 383.079C453.835 383.079 456.262 383.079 459.195 383.079C462.129 383.079 465.289 383.107 468.674 383.164C472.059 383.164 475.444 383.164 478.829 383.164C482.158 383.164 485.148 383.164 487.8 383.164C489.154 383.164 490.395 383.135 491.524 383.079C492.596 382.966 493.527 382.882 494.317 382.825C495.05 382.769 495.614 382.741 496.009 382.741C496.912 382.741 497.476 382.938 497.702 383.333C497.984 383.671 498.125 384.066 498.125 384.517Z" fill="black"/>
<path d="M498.125 410.517C498.125 411.024 497.702 412.039 496.856 413.562C496.009 415.028 494.655 416.437 492.793 417.791C492.511 418.016 491.665 418.721 490.254 419.905C488.844 421.033 487.095 422.499 485.007 424.303C482.863 426.051 480.55 427.968 478.068 430.054C475.585 432.141 473.103 434.227 470.62 436.313C468.138 438.399 465.853 440.345 463.765 442.149C461.621 443.953 459.844 445.476 458.434 446.716C456.967 447.9 456.064 448.633 455.726 448.915C455.218 449.31 454.879 449.648 454.71 449.93C454.484 450.212 454.371 450.466 454.371 450.691C454.371 450.973 454.597 451.171 455.049 451.283C455.443 451.396 455.81 451.453 456.149 451.453C458.913 451.509 462.101 451.565 465.712 451.622C469.323 451.678 473.046 451.735 476.883 451.791C480.72 451.847 484.387 451.875 487.885 451.875C489.408 451.875 490.819 451.509 492.116 450.776C493.414 449.987 494.26 448.549 494.655 446.462C494.824 445.504 495.022 444.799 495.248 444.348C495.473 443.897 495.784 443.671 496.179 443.671C496.517 443.671 496.743 443.897 496.856 444.348C497.025 444.799 497.109 445.391 497.109 446.124C497.109 447.647 497.053 448.802 496.94 449.592C496.884 450.325 496.827 451.002 496.771 451.622C496.715 452.186 496.686 453.003 496.686 454.075C496.686 455.089 496.715 455.879 496.771 456.443C496.827 457.007 496.884 457.655 496.94 458.388C497.053 459.121 497.109 460.249 497.109 461.771C497.109 462.504 497.025 463.096 496.856 463.547C496.743 463.998 496.517 464.224 496.179 464.224C495.784 464.224 495.473 463.998 495.248 463.547C495.022 463.096 494.796 462.391 494.571 461.433C494.119 459.798 493.301 458.614 492.116 457.881C490.875 457.148 489.38 456.696 487.631 456.527C485.487 456.302 482.666 456.076 479.168 455.851C475.614 455.625 471.664 455.428 467.32 455.259C462.919 455.089 458.405 455.005 453.779 455.005C450.789 455.005 448.645 455.794 447.347 457.373C446.05 458.895 445.006 460.897 444.216 463.378C444.103 463.604 443.877 464.111 443.539 464.9C443.144 465.633 442.693 466 442.185 466C441.677 466 441.367 465.746 441.254 465.239C441.085 464.731 441 464.337 441 464.055C441.056 462.42 441.113 461.094 441.169 460.08C441.169 459.065 441.197 458.162 441.254 457.373C441.31 456.584 441.367 455.71 441.423 454.751C441.423 453.793 441.423 452.552 441.423 451.03C441.423 450.522 441.564 450.128 441.846 449.846C442.128 449.564 442.467 449.282 442.862 449C443.2 448.774 444.16 448.041 445.739 446.801C447.263 445.504 449.209 443.925 451.579 442.064C453.892 440.147 456.431 438.061 459.195 435.806C461.904 433.55 464.64 431.295 467.404 429.039C470.113 426.784 472.651 424.698 475.021 422.781C477.334 420.864 479.253 419.285 480.776 418.044C482.299 416.747 483.202 415.986 483.484 415.761C483.71 415.535 484.048 415.225 484.5 414.83C484.951 414.379 485.177 413.985 485.177 413.646C485.177 413.139 484.584 412.857 483.399 412.8C482.61 412.8 481.114 412.8 478.914 412.8C476.657 412.744 473.949 412.716 470.79 412.716C467.574 412.66 464.104 412.631 460.38 412.631C456.656 412.631 452.848 412.631 448.955 412.631C447.827 412.688 446.811 413.28 445.909 414.407C445.006 415.535 444.47 416.578 444.301 417.537C444.131 418.495 443.906 419.369 443.624 420.159C443.341 420.948 443.003 421.343 442.608 421.343C442.269 421.343 442.044 420.948 441.931 420.159C441.762 419.369 441.677 418.608 441.677 417.875C441.677 417.311 441.677 416.776 441.677 416.268C441.677 415.704 441.677 415.169 441.677 414.661C441.677 414.097 441.677 413.562 441.677 413.054C441.677 411.701 441.677 410.63 441.677 409.84C441.621 409.051 441.564 408.205 441.508 407.303C441.451 406.344 441.423 405.019 441.423 403.328C441.423 402.595 441.508 402.003 441.677 401.552C441.79 401.101 442.016 400.875 442.354 400.875C443.144 400.875 443.708 401.805 444.047 403.666C444.442 405.752 444.949 407.134 445.57 407.81C446.191 408.487 447.206 408.882 448.617 408.994C448.899 408.994 449.999 409.023 451.917 409.079C453.835 409.079 456.262 409.079 459.195 409.079C462.129 409.079 465.289 409.107 468.674 409.164C472.059 409.164 475.444 409.164 478.829 409.164C482.158 409.164 485.148 409.164 487.8 409.164C489.154 409.164 490.395 409.135 491.524 409.079C492.596 408.966 493.527 408.882 494.317 408.825C495.05 408.769 495.614 408.741 496.009 408.741C496.912 408.741 497.476 408.938 497.702 409.333C497.984 409.671 498.125 410.066 498.125 410.517Z" fill="black"/>
<path d="M498.125 358.642C498.125 359.149 497.702 360.164 496.856 361.687C496.009 363.153 494.655 364.562 492.793 365.916C492.511 366.141 491.665 366.846 490.254 368.03C488.844 369.158 487.095 370.624 485.007 372.428C482.863 374.176 480.55 376.093 478.068 378.179C475.585 380.266 473.103 382.352 470.62 384.438C468.138 386.524 465.853 388.47 463.765 390.274C461.621 392.078 459.844 393.601 458.434 394.841C456.967 396.025 456.064 396.758 455.726 397.04C455.218 397.435 454.879 397.773 454.71 398.055C454.484 398.337 454.371 398.591 454.371 398.816C454.371 399.098 454.597 399.296 455.049 399.408C455.443 399.521 455.81 399.578 456.149 399.578C458.913 399.634 462.101 399.69 465.712 399.747C469.323 399.803 473.046 399.86 476.883 399.916C480.72 399.972 484.387 400 487.885 400C489.408 400 490.819 399.634 492.116 398.901C493.414 398.112 494.26 396.674 494.655 394.587C494.824 393.629 495.022 392.924 495.248 392.473C495.473 392.022 495.784 391.796 496.179 391.796C496.517 391.796 496.743 392.022 496.856 392.473C497.025 392.924 497.109 393.516 497.109 394.249C497.109 395.772 497.053 396.927 496.94 397.717C496.884 398.45 496.827 399.127 496.771 399.747C496.715 400.311 496.686 401.128 496.686 402.2C496.686 403.214 496.715 404.004 496.771 404.568C496.827 405.132 496.884 405.78 496.94 406.513C497.053 407.246 497.109 408.374 497.109 409.896C497.109 410.629 497.025 411.221 496.856 411.672C496.743 412.123 496.517 412.349 496.179 412.349C495.784 412.349 495.473 412.123 495.248 411.672C495.022 411.221 494.796 410.516 494.571 409.558C494.119 407.923 493.301 406.739 492.116 406.006C490.875 405.273 489.38 404.821 487.631 404.652C485.487 404.427 482.666 404.201 479.168 403.976C475.614 403.75 471.664 403.553 467.32 403.384C462.919 403.214 458.405 403.13 453.779 403.13C450.789 403.13 448.645 403.919 447.347 405.498C446.05 407.02 445.006 409.022 444.216 411.503C444.103 411.729 443.877 412.236 443.539 413.025C443.144 413.758 442.693 414.125 442.185 414.125C441.677 414.125 441.367 413.871 441.254 413.364C441.085 412.856 441 412.462 441 412.18C441.056 410.545 441.113 409.219 441.169 408.205C441.169 407.19 441.197 406.287 441.254 405.498C441.31 404.709 441.367 403.835 441.423 402.876C441.423 401.918 441.423 400.677 441.423 399.155C441.423 398.647 441.564 398.253 441.846 397.971C442.128 397.689 442.467 397.407 442.862 397.125C443.2 396.899 444.16 396.166 445.739 394.926C447.263 393.629 449.209 392.05 451.579 390.189C453.892 388.272 456.431 386.186 459.195 383.931C461.904 381.675 464.64 379.42 467.404 377.164C470.113 374.909 472.651 372.823 475.021 370.906C477.334 368.989 479.253 367.41 480.776 366.169C482.299 364.872 483.202 364.111 483.484 363.886C483.71 363.66 484.048 363.35 484.5 362.955C484.951 362.504 485.177 362.11 485.177 361.771C485.177 361.264 484.584 360.982 483.399 360.925C482.61 360.925 481.114 360.925 478.914 360.925C476.657 360.869 473.949 360.841 470.79 360.841C467.574 360.785 464.104 360.756 460.38 360.756C456.656 360.756 452.848 360.756 448.955 360.756C447.827 360.813 446.811 361.405 445.909 362.532C445.006 363.66 444.47 364.703 444.301 365.662C444.131 366.62 443.906 367.494 443.624 368.284C443.341 369.073 443.003 369.468 442.608 369.468C442.269 369.468 442.044 369.073 441.931 368.284C441.762 367.494 441.677 366.733 441.677 366C441.677 365.436 441.677 364.901 441.677 364.393C441.677 363.829 441.677 363.294 441.677 362.786C441.677 362.222 441.677 361.687 441.677 361.179C441.677 359.826 441.677 358.755 441.677 357.965C441.621 357.176 441.564 356.33 441.508 355.428C441.451 354.469 441.423 353.144 441.423 351.453C441.423 350.72 441.508 350.128 441.677 349.677C441.79 349.226 442.016 349 442.354 349C443.144 349 443.708 349.93 444.047 351.791C444.442 353.877 444.949 355.259 445.57 355.935C446.191 356.612 447.206 357.007 448.617 357.119C448.899 357.119 449.999 357.148 451.917 357.204C453.835 357.204 456.262 357.204 459.195 357.204C462.129 357.204 465.289 357.232 468.674 357.289C472.059 357.289 475.444 357.289 478.829 357.289C482.158 357.289 485.148 357.289 487.8 357.289C489.154 357.289 490.395 357.26 491.524 357.204C492.596 357.091 493.527 357.007 494.317 356.95C495.05 356.894 495.614 356.866 496.009 356.866C496.912 356.866 497.476 357.063 497.702 357.458C497.984 357.796 498.125 358.191 498.125 358.642Z" fill="black"/>
<rect width="595" height="842" transform="translate(768 155)" fill="white"/>
</svg>
