<svg width="1536" height="1152" viewBox="0 0 1536 1152" fill="none" xmlns="http://www.w3.org/2000/svg">
<rect width="1536" height="1152" fill="#808080"/>
<rect width="595" height="842" transform="translate(768 155)" fill="white"/>
<path d="M1082.55 405C1081.52 405 1080.29 405.143 1078.85 405.43C1077.48 405.716 1075.87 405.859 1074.04 405.859H1068.53H1063.2H1058.13C1056.7 405.802 1055.24 405.744 1053.74 405.687C1052.31 405.63 1050.53 405.602 1048.41 405.602C1047.67 405.602 1047.07 405.687 1046.61 405.859C1046.15 405.974 1045.92 406.202 1045.92 406.546C1045.92 406.947 1046.15 407.291 1046.61 407.577C1047.07 407.864 1047.78 408.093 1048.76 408.265C1050.94 408.665 1052.34 409.553 1052.97 410.928C1053.66 412.302 1054 414.277 1054 416.854V431.084C1053.88 431.447 1053.63 431.63 1053.25 431.63C1051.41 431.63 1049.55 431.601 1047.66 431.544C1045.77 431.429 926.041 431.372 925.01 431.372C923.748 431.372 922.66 431.028 921.743 430.341C920.826 429.654 920.166 428.823 919.765 427.85C919.65 427.621 919.421 427.335 919.077 426.991C918.733 426.59 918.446 426.39 918.217 426.39C917.988 426.39 917.73 426.533 917.443 426.819C917.156 427.048 917.042 427.363 917.1 427.764C917.157 428.737 917.214 429.596 917.271 430.341C917.328 431.085 917.357 431.801 917.357 432.488C917.357 433.347 917.328 434.235 917.271 435.151C917.214 436.01 917.157 437.07 917.1 438.33C917.1 438.731 917.156 439.075 917.271 439.361C917.328 439.647 917.529 439.79 917.873 439.79C918.446 439.79 918.905 439.533 919.249 439.018C919.536 438.502 919.736 438.101 919.851 437.814C920.252 436.497 920.854 435.61 921.657 435.151C922.46 434.636 923.205 434.379 923.893 434.379H926.128C926.816 434.322 1045.77 434.293 1046.46 434.293H1049.29C1050.21 434.293 1051.13 434.35 1052.04 434.465C1052.62 434.522 1053.11 434.722 1053.51 435.066C1053.74 435.234 1053.91 435.481 1054 435.805V453.105C1054 455.224 1053.57 456.742 1052.71 457.658C1051.91 458.575 1050.42 459.233 1048.24 459.634C1046.35 459.977 1045.4 460.493 1045.4 461.18C1045.4 461.523 1045.63 461.753 1046.09 461.867C1046.55 462.039 1047.15 462.125 1047.9 462.125C1049.45 462.125 1050.76 462.068 1051.85 461.953C1052.94 461.839 1054 461.753 1055.03 461.695C1056.12 461.581 1057.36 461.523 1058.73 461.523C1059.82 461.523 1060.68 461.581 1061.31 461.695C1062 461.753 1062.75 461.839 1063.55 461.953C1064.41 462.068 1065.61 462.125 1067.16 462.125C1067.9 462.125 1068.51 462.039 1068.96 461.867C1069.42 461.753 1069.65 461.523 1069.65 461.18C1069.65 460.779 1069.42 460.464 1068.96 460.235C1068.51 460.006 1067.79 459.805 1066.82 459.634C1064.69 459.233 1063.23 458.488 1062.43 457.4C1061.68 456.312 1061.25 454.852 1061.14 453.02C1061.02 448.561 1060.84 420.433 1060.8 417.026C1060.8 415.423 1060.82 414.077 1060.88 412.989C1060.94 411.844 1061.11 410.841 1061.4 409.982C1061.68 409.123 1062.49 408.694 1063.81 408.694H1074.73C1075.82 408.694 1076.85 408.865 1077.82 409.209C1078.8 409.495 1079.69 410.097 1080.49 411.013C1080.89 411.414 1081.26 411.987 1081.61 412.731C1081.95 413.419 1082.24 414.249 1082.47 415.223C1082.58 415.509 1082.75 415.766 1082.98 415.995C1083.21 416.167 1083.47 416.253 1083.75 416.253C1084.27 416.253 1084.53 415.652 1084.53 414.449C1084.53 414.049 1084.5 413.275 1084.44 412.13C1084.44 410.984 1084.41 409.811 1084.36 408.608C1084.3 407.348 1084.21 406.403 1084.1 405.773C1084.04 405.487 1083.84 405.286 1083.5 405.172C1083.15 405.057 1082.84 405 1082.55 405Z" fill="black"/>
<path d="M1083.21 519C1082.18 519 1080.94 519.143 1079.51 519.43C1078.14 519.716 1076.53 519.859 1074.7 519.859H1069.19H1063.86H1058.79C1057.36 519.802 1055.89 519.744 1054.4 519.687C1052.97 519.63 1051.19 519.602 1049.07 519.602C1048.33 519.602 1047.72 519.687 1047.27 519.859C1046.81 519.974 1046.58 520.202 1046.58 520.546C1046.58 520.947 1046.81 521.291 1047.27 521.577C1047.72 521.864 1048.44 522.093 1049.42 522.265C1051.59 522.665 1053 523.553 1053.63 524.928C1054.32 526.302 1054.66 528.277 1054.66 530.854V545.084C1054.54 545.447 1054.29 545.63 1053.91 545.63C1052.07 545.63 1050.21 545.601 1048.32 545.544C1046.43 545.429 1042.16 545.372 1041.12 545.372C1039.86 545.372 1038.78 545.028 1037.86 544.341C1036.94 543.654 1036.28 542.823 1035.88 541.85C1035.77 541.621 1035.54 541.335 1035.19 540.991C1034.85 540.59 1034.56 540.39 1034.33 540.39C1034.1 540.39 1033.85 540.533 1033.56 540.819C1033.27 541.048 1033.16 541.363 1033.21 541.764C1033.27 542.737 1033.33 543.596 1033.39 544.341C1033.44 545.085 1033.47 545.801 1033.47 546.488C1033.47 547.347 1033.44 548.235 1033.39 549.151C1033.33 550.01 1033.27 551.07 1033.21 552.33C1033.21 552.731 1033.27 553.075 1033.39 553.361C1033.44 553.647 1033.64 553.79 1033.99 553.79C1034.56 553.79 1035.02 553.533 1035.36 553.018C1035.65 552.502 1035.85 552.101 1035.97 551.814C1036.37 550.497 1036.97 549.61 1037.77 549.151C1038.57 548.636 1039.32 548.379 1040.01 548.379H1042.24C1042.93 548.322 1046.43 548.293 1047.11 548.293H1049.95C1050.87 548.293 1051.79 548.35 1052.7 548.465C1053.28 548.522 1053.76 548.722 1054.16 549.066C1054.4 549.234 1054.56 549.481 1054.66 549.805V567.105C1054.66 569.224 1054.23 570.742 1053.37 571.658C1052.57 572.575 1051.08 573.233 1048.9 573.634C1047.01 573.977 1046.06 574.493 1046.06 575.18C1046.06 575.523 1046.29 575.753 1046.75 575.867C1047.21 576.039 1047.81 576.125 1048.56 576.125C1050.1 576.125 1051.42 576.068 1052.51 575.953C1053.6 575.839 1054.66 575.753 1055.69 575.695C1056.78 575.581 1058.01 575.523 1059.39 575.523C1060.48 575.523 1061.34 575.581 1061.97 575.695C1062.66 575.753 1063.4 575.839 1064.21 575.953C1065.07 576.068 1066.27 576.125 1067.82 576.125C1068.56 576.125 1069.16 576.039 1069.62 575.867C1070.08 575.753 1070.31 575.523 1070.31 575.18C1070.31 574.779 1070.08 574.464 1069.62 574.235C1069.16 574.006 1068.45 573.805 1067.47 573.634C1065.35 573.233 1063.89 572.488 1063.09 571.4C1062.34 570.312 1061.91 568.852 1061.8 567.02C1061.68 562.561 1061.49 534.433 1061.45 531.026C1061.45 529.423 1061.48 528.077 1061.54 526.989C1061.6 525.844 1061.77 524.841 1062.06 523.982C1062.34 523.123 1063.15 522.694 1064.46 522.694H1075.38C1076.47 522.694 1077.51 522.865 1078.48 523.209C1079.45 523.495 1080.34 524.097 1081.15 525.013C1081.55 525.414 1081.92 525.987 1082.26 526.731C1082.61 527.419 1082.89 528.249 1083.12 529.223C1083.24 529.509 1083.41 529.766 1083.64 529.995C1083.87 530.167 1084.13 530.253 1084.41 530.253C1084.93 530.253 1085.19 529.652 1085.19 528.449C1085.19 528.049 1085.16 527.275 1085.1 526.13C1085.1 524.984 1085.07 523.811 1085.02 522.608C1084.96 521.348 1084.87 520.403 1084.76 519.773C1084.7 519.487 1084.5 519.286 1084.16 519.172C1083.81 519.057 1083.5 519 1083.21 519Z" fill="black"/>
<path d="M1082.55 348C1081.52 348 1080.29 348.143 1078.85 348.43C1077.48 348.716 1075.87 348.859 1074.04 348.859H1068.53H1063.2H1058.13C1056.7 348.802 1055.24 348.744 1053.74 348.687C1052.31 348.63 1050.53 348.602 1048.41 348.602C1047.67 348.602 1047.07 348.687 1046.61 348.859C1046.15 348.974 1045.92 349.202 1045.92 349.546C1045.92 349.947 1046.15 350.291 1046.61 350.577C1047.07 350.864 1047.78 351.093 1048.76 351.265C1050.94 351.665 1052.34 352.553 1052.97 353.928C1053.66 355.302 1054 357.277 1054 359.854V374.084C1053.88 374.447 1053.63 374.63 1053.25 374.63C1051.41 374.63 1049.55 374.601 1047.66 374.544C1045.77 374.429 813.956 375.288 812.925 375.288C811.663 375.288 810.575 374.944 809.658 374.257C808.74 373.57 808.081 372.739 807.679 371.766C807.565 371.537 807.336 371.251 806.992 370.907C806.648 370.506 806.361 370.306 806.132 370.306C805.903 370.306 805.645 370.449 805.358 370.735C805.071 370.964 804.957 371.279 805.014 371.68C805.071 372.653 805.129 373.512 805.186 374.257C805.243 375.001 805.272 375.717 805.272 376.404C805.272 377.263 805.243 378.151 805.186 379.067C805.129 379.926 805.071 380.986 805.014 382.246C805.014 382.647 805.071 382.991 805.186 383.277C805.243 383.563 805.444 383.706 805.788 383.706C806.361 383.706 806.82 383.449 807.164 382.934C807.45 382.418 807.651 382.017 807.765 381.73C808.167 380.413 808.769 379.526 809.572 379.067C810.375 378.552 811.119 378.295 811.807 378.295H814.043C814.731 378.238 1045.77 377.293 1046.46 377.293H1049.29C1050.21 377.293 1051.13 377.35 1052.04 377.465C1052.62 377.522 1053.11 377.722 1053.51 378.066C1053.74 378.234 1053.91 378.481 1054 378.805V396.105C1054 398.224 1053.57 399.742 1052.71 400.658C1051.91 401.575 1050.42 402.233 1048.24 402.634C1046.35 402.977 1045.4 403.493 1045.4 404.18C1045.4 404.523 1045.63 404.753 1046.09 404.867C1046.55 405.039 1047.15 405.125 1047.9 405.125C1049.45 405.125 1050.76 405.068 1051.85 404.953C1052.94 404.839 1054 404.753 1055.03 404.695C1056.12 404.581 1057.36 404.523 1058.73 404.523C1059.82 404.523 1060.68 404.581 1061.31 404.695C1062 404.753 1062.75 404.839 1063.55 404.953C1064.41 405.068 1065.61 405.125 1067.16 405.125C1067.9 405.125 1068.51 405.039 1068.96 404.867C1069.42 404.753 1069.65 404.523 1069.65 404.18C1069.65 403.779 1069.42 403.464 1068.96 403.235C1068.51 403.006 1067.79 402.805 1066.82 402.634C1064.69 402.233 1063.23 401.488 1062.43 400.4C1061.68 399.312 1061.25 397.852 1061.14 396.02C1061.02 391.561 1060.84 363.433 1060.8 360.026C1060.8 358.423 1060.82 357.077 1060.88 355.989C1060.94 354.844 1061.11 353.841 1061.4 352.982C1061.68 352.123 1062.49 351.694 1063.81 351.694H1074.73C1075.82 351.694 1076.85 351.865 1077.82 352.209C1078.8 352.495 1079.69 353.097 1080.49 354.013C1080.89 354.414 1081.26 354.987 1081.61 355.731C1081.95 356.419 1082.24 357.249 1082.47 358.223C1082.58 358.509 1082.75 358.766 1082.98 358.995C1083.21 359.167 1083.47 359.253 1083.75 359.253C1084.27 359.253 1084.53 358.652 1084.53 357.449C1084.53 357.049 1084.5 356.275 1084.44 355.13C1084.44 353.984 1084.41 352.811 1084.36 351.608C1084.3 350.348 1084.21 349.403 1084.1 348.773C1084.04 348.487 1083.84 348.286 1083.5 348.172C1083.15 348.057 1082.84 348 1082.55 348Z" fill="black"/>
<path d="M1082.34 462C1081.31 462 1080.08 462.143 1078.65 462.43C1077.27 462.716 1075.67 462.859 1073.83 462.859H1068.33H1063H1057.92C1056.49 462.802 1055.03 462.744 1053.54 462.687C1052.1 462.63 1050.33 462.602 1048.21 462.602C1047.46 462.602 1046.86 462.687 1046.4 462.859C1045.94 462.974 1045.71 463.202 1045.71 463.546C1045.71 463.947 1045.94 464.291 1046.4 464.577C1046.86 464.864 1047.57 465.093 1048.55 465.265C1050.73 465.665 1052.13 466.553 1052.76 467.928C1053.45 469.302 1053.79 471.277 1053.79 473.854V488.084C1053.67 488.447 1053.42 488.63 1053.04 488.63C1051.21 488.63 1049.34 488.601 1047.45 488.544C1045.56 488.429 999.927 488.372 998.896 488.372C997.634 488.372 996.546 488.028 995.629 487.341C994.711 486.654 994.052 485.823 993.65 484.85C993.536 484.621 993.307 484.335 992.963 483.991C992.619 483.59 992.332 483.39 992.103 483.39C991.874 483.39 991.616 483.533 991.329 483.819C991.042 484.048 990.928 484.363 990.985 484.764C991.042 485.737 991.1 486.596 991.157 487.341C991.214 488.085 991.243 488.801 991.243 489.488C991.243 490.347 991.214 491.235 991.157 492.151C991.1 493.01 991.042 494.07 990.985 495.33C990.985 495.731 991.042 496.075 991.157 496.361C991.214 496.647 991.415 496.79 991.759 496.79C992.332 496.79 992.791 496.533 993.135 496.018C993.421 495.502 993.622 495.101 993.736 494.814C994.138 493.497 994.74 492.61 995.543 492.151C996.345 491.636 997.09 491.379 997.778 491.379H1000.01C1000.7 491.322 1045.56 491.293 1046.25 491.293H1049.08C1050 491.293 1050.92 491.35 1051.84 491.465C1052.41 491.522 1052.9 491.722 1053.3 492.066C1053.53 492.234 1053.7 492.481 1053.79 492.805V510.105C1053.79 512.224 1053.36 513.742 1052.5 514.658C1051.7 515.575 1050.21 516.233 1048.03 516.634C1046.14 516.977 1045.2 517.493 1045.2 518.18C1045.2 518.523 1045.43 518.753 1045.88 518.867C1046.34 519.039 1046.94 519.125 1047.69 519.125C1049.24 519.125 1050.56 519.068 1051.65 518.953C1052.73 518.839 1053.79 518.753 1054.83 518.695C1055.92 518.581 1057.15 518.523 1058.52 518.523C1059.61 518.523 1060.47 518.581 1061.1 518.695C1061.79 518.753 1062.54 518.839 1063.34 518.953C1064.2 519.068 1065.4 519.125 1066.95 519.125C1067.7 519.125 1068.3 519.039 1068.76 518.867C1069.21 518.753 1069.44 518.523 1069.44 518.18C1069.44 517.779 1069.21 517.464 1068.76 517.235C1068.3 517.006 1067.58 516.805 1066.61 516.634C1064.49 516.233 1063.02 515.488 1062.22 514.4C1061.48 513.312 1061.05 511.852 1060.93 510.02C1060.81 505.561 1060.63 477.433 1060.59 474.026C1060.59 472.423 1060.62 471.077 1060.67 469.989C1060.73 468.844 1060.9 467.841 1061.19 466.982C1061.48 466.123 1062.28 465.694 1063.6 465.694H1074.52C1075.61 465.694 1076.64 465.865 1077.61 466.209C1078.59 466.495 1079.48 467.097 1080.28 468.013C1080.68 468.414 1081.05 468.987 1081.4 469.731C1081.74 470.419 1082.03 471.249 1082.26 472.223C1082.37 472.509 1082.54 472.766 1082.77 472.995C1083 473.167 1083.26 473.253 1083.55 473.253C1084.06 473.253 1084.32 472.652 1084.32 471.449C1084.32 471.049 1084.29 470.275 1084.23 469.13C1084.23 467.984 1084.21 466.811 1084.15 465.608C1084.09 464.348 1084.01 463.403 1083.89 462.773C1083.83 462.487 1083.63 462.286 1083.29 462.172C1082.94 462.057 1082.63 462 1082.34 462Z" fill="black"/>
<path d="M1048.51 747C1047.76 747 1047.15 746.914 1046.69 746.743C1046.23 746.629 1046 746.4 1046 746.057C1046 745.372 1046.95 744.857 1048.86 744.514C1051.05 744.114 1052.55 743.457 1053.36 742.543C1054.22 741.629 1054.65 740.114 1054.65 738V701.829C1054.65 699.257 1054.31 697.286 1053.62 695.915C1052.98 694.543 1051.57 693.657 1049.37 693.257C1048.39 693.086 1047.67 692.857 1047.21 692.571C1046.75 692.285 1046.52 691.943 1046.52 691.543C1046.52 691.2 1046.75 690.971 1047.21 690.857C1047.67 690.686 1048.28 690.6 1049.03 690.6C1051.16 690.6 1052.95 690.629 1054.39 690.686C1055.89 690.743 1057.37 690.8 1058.81 690.857H1063.91H1069.28H1074.82C1076.66 690.857 1078.28 690.714 1079.66 690.429C1081.11 690.143 1082.35 690 1083.39 690C1083.67 690 1083.99 690.057 1084.34 690.172C1084.68 690.286 1084.88 690.486 1084.94 690.771C1085.06 691.4 1085.14 692.343 1085.2 693.6C1085.26 694.8 1085.29 695.971 1085.29 697.114C1085.35 698.257 1085.38 699.029 1085.38 699.428C1085.38 700.629 1085.12 701.228 1084.6 701.228C1084.31 701.228 1084.05 701.143 1083.82 700.971C1083.59 700.743 1083.41 700.486 1083.3 700.2C1083.07 699.229 1082.78 698.4 1082.43 697.714C1082.09 696.971 1081.71 696.4 1081.31 696C1080.5 695.086 1079.61 694.486 1078.63 694.2C1077.64 693.857 1076.61 693.686 1075.51 693.686H1064.52C1063.19 693.686 1062.38 694.114 1062.1 694.972C1061.81 695.829 1061.63 696.829 1061.58 697.972C1061.52 699.057 1061.49 700.4 1061.49 702V706.543V710.914C1061.49 712.4 1061.52 713.657 1061.58 714.686C1061.58 715.143 1061.61 715.571 1061.66 715.972C1061.78 716.372 1062.04 716.571 1062.44 716.571C1064.29 716.571 1066.16 716.543 1068.07 716.486C1069.97 716.372 1205.99 716.314 1207.02 716.314C1208.29 716.314 1209.39 715.972 1210.31 715.286C1211.24 714.6 1211.9 713.771 1212.3 712.8C1212.42 712.572 1212.65 712.286 1213 711.943C1213.34 711.543 1213.63 711.343 1213.86 711.343C1214.09 711.343 1214.35 711.486 1214.64 711.771C1214.93 712 1215.04 712.314 1214.99 712.714C1214.93 713.686 1214.87 714.543 1214.81 715.286C1214.76 716.028 1214.73 716.743 1214.73 717.428C1214.73 718.285 1214.76 719.172 1214.81 720.086C1214.87 720.943 1214.93 722 1214.99 723.257C1214.99 723.657 1214.93 724 1214.81 724.286C1214.76 724.571 1214.55 724.714 1214.21 724.714C1213.63 724.714 1213.17 724.457 1212.82 723.943C1212.53 723.429 1212.33 723.029 1212.22 722.743C1211.81 721.429 1211.21 720.543 1210.4 720.086C1209.59 719.572 1208.84 719.314 1208.15 719.314H1205.9C1205.21 719.257 1069.97 719.228 1069.28 719.228H1066.42C1065.5 719.228 1064.58 719.286 1063.65 719.4C1063.08 719.457 1062.59 719.657 1062.18 720C1061.78 720.286 1061.58 720.8 1061.58 721.543V729.6C1061.63 732.286 1061.72 735.057 1061.84 737.914C1061.95 739.743 1062.38 741.2 1063.13 742.286C1063.94 743.371 1065.41 744.114 1067.55 744.514C1068.53 744.686 1069.25 744.886 1069.71 745.114C1070.17 745.343 1070.4 745.657 1070.4 746.057C1070.4 746.4 1070.17 746.629 1069.71 746.743C1069.25 746.914 1068.64 747 1067.89 747C1066.34 747 1065.13 746.943 1064.26 746.828C1063.45 746.714 1062.7 746.629 1062.01 746.571C1061.38 746.457 1060.51 746.4 1059.41 746.4C1058.03 746.4 1056.79 746.457 1055.69 746.571C1054.65 746.629 1053.59 746.714 1052.49 746.828C1051.39 746.943 1050.07 747 1048.51 747Z" fill="black"/>
<path d="M1048.5 804C1047.75 804 1047.15 803.914 1046.69 803.743C1046.23 803.629 1046 803.4 1046 803.057C1046 802.372 1046.95 801.857 1048.84 801.514C1051.02 801.114 1052.51 800.457 1053.31 799.543C1054.18 798.629 1054.61 797.114 1054.61 795V758.829C1054.61 756.257 1054.26 754.286 1053.57 752.915C1052.94 751.543 1051.54 750.657 1049.36 750.257C1048.38 750.086 1047.66 749.857 1047.2 749.571C1046.75 749.285 1046.52 748.943 1046.52 748.543C1046.52 748.2 1046.75 747.971 1047.2 747.857C1047.66 747.686 1048.27 747.6 1049.01 747.6C1051.13 747.6 1052.91 747.629 1054.35 747.686C1055.84 747.743 1057.3 747.8 1058.74 747.857H1063.81H1069.15H1074.66C1076.49 747.857 1078.1 747.714 1079.48 747.429C1080.91 747.143 1082.14 747 1083.18 747C1083.46 747 1083.78 747.057 1084.12 747.172C1084.47 747.286 1084.67 747.486 1084.73 747.771C1084.84 748.4 1084.93 749.343 1084.98 750.6C1085.04 751.8 1085.07 752.971 1085.07 754.114C1085.13 755.257 1085.16 756.029 1085.16 756.428C1085.16 757.629 1084.9 758.228 1084.38 758.228C1084.1 758.228 1083.84 758.143 1083.61 757.971C1083.38 757.743 1083.21 757.486 1083.09 757.2C1082.86 756.229 1082.58 755.4 1082.23 754.714C1081.89 753.971 1081.51 753.4 1081.11 753C1080.31 752.086 1079.42 751.486 1078.44 751.2C1077.47 750.857 1076.44 750.686 1075.35 750.686H1064.42C1063.1 750.686 1062.29 751.114 1062.01 751.972C1061.72 752.829 1061.55 753.829 1061.49 754.972C1061.43 756.057 1061.4 757.4 1061.4 759V763.543V767.914C1061.4 769.4 1061.43 770.657 1061.49 771.686C1061.49 772.143 1061.52 772.571 1061.58 772.972C1061.69 773.372 1061.95 773.571 1062.35 773.571C1064.19 773.571 1066.05 773.543 1067.94 773.486C1069.84 773.372 1317.04 773.314 1318.07 773.314C1319.33 773.314 1320.42 772.972 1321.34 772.286C1322.26 771.6 1322.92 770.771 1323.32 769.8C1323.43 769.572 1323.66 769.286 1324.01 768.943C1324.35 768.543 1324.64 768.343 1324.87 768.343C1325.1 768.343 1325.35 768.486 1325.64 768.771C1325.93 769 1326.04 769.314 1325.99 769.714C1325.93 770.686 1325.87 771.543 1325.81 772.286C1325.76 773.028 1325.73 773.743 1325.73 774.428C1325.73 775.285 1325.76 776.172 1325.81 777.086C1325.87 777.943 1325.93 779 1325.99 780.257C1325.99 780.657 1325.93 781 1325.81 781.286C1325.76 781.571 1325.56 781.714 1325.21 781.714C1324.64 781.714 1324.18 781.457 1323.83 780.943C1323.55 780.429 1323.35 780.029 1323.23 779.743C1322.83 778.429 1322.23 777.543 1321.42 777.086C1320.62 776.572 1319.88 776.314 1319.19 776.314H1316.95C1316.26 776.257 1069.84 776.228 1069.15 776.228H1066.31C1065.39 776.228 1064.47 776.286 1063.56 776.4C1062.98 776.457 1062.49 776.657 1062.09 777C1061.69 777.286 1061.49 777.8 1061.49 778.543V786.6C1061.55 789.286 1061.63 792.057 1061.75 794.914C1061.86 796.743 1062.29 798.2 1063.04 799.286C1063.84 800.371 1065.31 801.114 1067.43 801.514C1068.4 801.686 1069.12 801.886 1069.58 802.114C1070.04 802.343 1070.27 802.657 1070.27 803.057C1070.27 803.4 1070.04 803.629 1069.58 803.743C1069.12 803.914 1068.52 804 1067.77 804C1066.22 804 1065.02 803.943 1064.16 803.828C1063.36 803.714 1062.61 803.629 1061.92 803.571C1061.29 803.457 1060.43 803.4 1059.34 803.4C1057.96 803.4 1056.73 803.457 1055.64 803.571C1054.61 803.629 1053.54 803.714 1052.45 803.828C1051.36 803.943 1050.04 804 1048.5 804Z" fill="black"/>
<path d="M1048.49 690C1047.75 690 1047.15 689.914 1046.69 689.743C1046.23 689.629 1046 689.4 1046 689.057C1046 688.372 1046.95 687.857 1048.84 687.514C1051.01 687.114 1052.5 686.457 1053.3 685.543C1054.16 684.629 1054.59 683.114 1054.59 681V644.829C1054.59 642.257 1054.25 640.286 1053.56 638.915C1052.93 637.543 1051.53 636.657 1049.35 636.257C1048.38 636.086 1047.66 635.857 1047.2 635.571C1046.74 635.285 1046.52 634.943 1046.52 634.543C1046.52 634.2 1046.74 633.971 1047.2 633.857C1047.66 633.685 1048.26 633.6 1049.01 633.6C1051.13 633.6 1052.9 633.629 1054.33 633.685C1055.82 633.743 1057.28 633.8 1058.72 633.857H1063.79H1069.11H1074.61C1076.45 633.857 1078.05 633.714 1079.42 633.429C1080.86 633.143 1082.09 633 1083.12 633C1083.41 633 1083.72 633.057 1084.06 633.172C1084.41 633.286 1084.61 633.486 1084.67 633.771C1084.78 634.4 1084.87 635.343 1084.92 636.6C1084.98 637.8 1085.01 638.971 1085.01 640.114C1085.07 641.257 1085.1 642.029 1085.1 642.428C1085.1 643.629 1084.84 644.228 1084.32 644.228C1084.04 644.228 1083.78 644.143 1083.55 643.971C1083.32 643.743 1083.15 643.485 1083.03 643.2C1082.8 642.229 1082.52 641.4 1082.17 640.714C1081.83 639.971 1081.46 639.4 1081.06 639C1080.25 638.086 1079.37 637.486 1078.39 637.2C1077.42 636.857 1076.39 636.686 1075.3 636.686H1064.39C1063.07 636.686 1062.27 637.114 1061.98 637.972C1061.7 638.829 1061.52 639.829 1061.47 640.972C1061.41 642.057 1061.38 643.4 1061.38 645V649.543V653.914C1061.38 655.4 1061.41 656.657 1061.47 657.686C1061.47 658.143 1061.49 658.571 1061.55 658.972C1061.67 659.372 1061.92 659.571 1062.33 659.571C1064.16 659.571 1066.02 659.543 1067.91 659.486C1069.8 659.372 1131.05 659.314 1132.08 659.314C1133.34 659.314 1134.43 658.972 1135.35 658.286C1136.26 657.6 1136.92 656.771 1137.32 655.8C1137.44 655.571 1137.67 655.286 1138.01 654.943C1138.35 654.543 1138.64 654.343 1138.87 654.343C1139.1 654.343 1139.36 654.486 1139.64 654.771C1139.93 655 1140.04 655.314 1139.99 655.714C1139.93 656.686 1139.87 657.543 1139.81 658.286C1139.76 659.028 1139.73 659.743 1139.73 660.428C1139.73 661.285 1139.76 662.172 1139.81 663.086C1139.87 663.943 1139.93 665 1139.99 666.257C1139.99 666.657 1139.93 667 1139.81 667.286C1139.76 667.571 1139.56 667.714 1139.21 667.714C1138.64 667.714 1138.18 667.457 1137.84 666.943C1137.55 666.429 1137.35 666.029 1137.24 665.743C1136.84 664.429 1136.23 663.543 1135.43 663.086C1134.63 662.572 1133.89 662.314 1133.2 662.314H1130.96C1130.28 662.257 1069.8 662.228 1069.11 662.228H1066.28C1065.36 662.228 1064.44 662.286 1063.53 662.4C1062.96 662.457 1062.47 662.657 1062.07 663C1061.67 663.286 1061.47 663.8 1061.47 664.543V672.6C1061.52 675.286 1061.61 678.057 1061.72 680.914C1061.84 682.743 1062.27 684.2 1063.01 685.286C1063.81 686.371 1065.28 687.114 1067.4 687.514C1068.37 687.686 1069.08 687.886 1069.54 688.114C1070 688.343 1070.23 688.657 1070.23 689.057C1070.23 689.4 1070 689.629 1069.54 689.743C1069.08 689.914 1068.48 690 1067.74 690C1066.19 690 1064.99 689.943 1064.13 689.828C1063.33 689.714 1062.58 689.629 1061.9 689.571C1061.27 689.457 1060.41 689.4 1059.32 689.4C1057.94 689.4 1056.71 689.457 1055.62 689.571C1054.59 689.629 1053.53 689.714 1052.44 689.828C1051.36 689.943 1050.04 690 1048.49 690Z" fill="black"/>
<path d="M1048.49 633C1047.74 633 1047.14 632.914 1046.69 632.743C1046.23 632.629 1046 632.4 1046 632.057C1046 631.371 1046.94 630.857 1048.83 630.514C1051 630.114 1052.49 629.457 1053.29 628.543C1054.14 627.629 1054.57 626.114 1054.57 624V587.829C1054.57 585.257 1054.23 583.286 1053.54 581.914C1052.91 580.543 1051.51 579.657 1049.34 579.257C1048.37 579.086 1047.66 578.857 1047.2 578.571C1046.74 578.286 1046.51 577.943 1046.51 577.543C1046.51 577.2 1046.74 576.971 1047.2 576.857C1047.66 576.686 1048.26 576.6 1049 576.6C1051.11 576.6 1052.89 576.629 1054.31 576.686C1055.8 576.743 1057.26 576.8 1058.69 576.857C1060.11 576.857 1061.8 576.857 1063.74 576.857C1065.4 576.857 1067.17 576.857 1069.06 576.857C1070.94 576.857 1072.77 576.857 1074.54 576.857C1076.37 576.857 1077.97 576.714 1079.34 576.429C1080.77 576.143 1082 576 1083.03 576C1083.31 576 1083.63 576.057 1083.97 576.171C1084.31 576.286 1084.51 576.486 1084.57 576.771C1084.69 577.4 1084.77 578.343 1084.83 579.6C1084.89 580.8 1084.91 581.971 1084.91 583.114C1084.97 584.257 1085 585.029 1085 585.429C1085 586.629 1084.74 587.229 1084.23 587.229C1083.94 587.229 1083.69 587.143 1083.46 586.971C1083.23 586.743 1083.06 586.486 1082.94 586.2C1082.71 585.229 1082.43 584.4 1082.09 583.714C1081.74 582.971 1081.37 582.4 1080.97 582C1080.17 581.086 1079.29 580.486 1078.31 580.2C1077.34 579.857 1076.31 579.686 1075.23 579.686H1064.34C1063.03 579.686 1062.23 580.114 1061.94 580.971C1061.66 581.829 1061.49 582.829 1061.43 583.971C1061.37 585.057 1061.34 586.4 1061.34 588C1061.34 589.543 1061.34 591.057 1061.34 592.543C1061.34 593.971 1061.34 595.429 1061.34 596.914C1061.34 598.4 1061.37 599.657 1061.43 600.686C1061.43 601.143 1061.46 601.571 1061.51 601.971C1061.63 602.371 1061.89 602.571 1062.29 602.571C1064.11 602.571 1065.97 602.543 1067.86 602.486C1069.74 602.371 1071.2 602.314 1072.23 602.314C1073.49 602.314 1074.57 601.971 1075.49 601.286C1076.4 600.6 1077.06 599.771 1077.46 598.8C1077.57 598.571 1077.8 598.286 1078.14 597.943C1078.49 597.543 1078.77 597.343 1079 597.343C1079.23 597.343 1079.49 597.486 1079.77 597.771C1080.06 598 1080.17 598.314 1080.11 598.714C1080.06 599.686 1080 600.543 1079.94 601.286C1079.89 602.029 1079.86 602.743 1079.86 603.429C1079.86 604.286 1079.89 605.171 1079.94 606.086C1080 606.943 1080.06 608 1080.11 609.257C1080.11 609.657 1080.06 610 1079.94 610.286C1079.89 610.571 1079.69 610.714 1079.34 610.714C1078.77 610.714 1078.31 610.457 1077.97 609.943C1077.69 609.429 1077.49 609.029 1077.37 608.743C1076.97 607.429 1076.37 606.543 1075.57 606.086C1074.77 605.571 1074.03 605.314 1073.34 605.314C1072.6 605.314 1071.86 605.314 1071.11 605.314C1070.43 605.257 1069.74 605.229 1069.06 605.229C1068.09 605.229 1067.14 605.229 1066.23 605.229C1065.31 605.229 1064.4 605.286 1063.49 605.4C1062.91 605.457 1062.43 605.657 1062.03 606C1061.63 606.286 1061.43 606.8 1061.43 607.543C1061.43 610.171 1061.43 612.857 1061.43 615.6C1061.49 618.286 1061.57 621.057 1061.69 623.914C1061.8 625.743 1062.23 627.2 1062.97 628.286C1063.77 629.371 1065.23 630.114 1067.34 630.514C1068.31 630.686 1069.03 630.886 1069.49 631.114C1069.94 631.343 1070.17 631.657 1070.17 632.057C1070.17 632.4 1069.94 632.629 1069.49 632.743C1069.03 632.914 1068.43 633 1067.69 633C1066.14 633 1064.94 632.943 1064.09 632.829C1063.29 632.714 1062.54 632.629 1061.86 632.571C1061.23 632.457 1060.37 632.4 1059.29 632.4C1057.91 632.4 1056.69 632.457 1055.6 632.571C1054.57 632.629 1053.51 632.714 1052.43 632.829C1051.34 632.943 1050.03 633 1048.49 633Z" fill="black"/>
<rect width="595" height="842" transform="translate(173 155)" fill="white"/>
<path d="M265.483 804.125C264.976 804.125 263.961 803.702 262.438 802.855C260.972 802.009 259.563 800.655 258.209 798.793C257.984 798.511 257.279 797.665 256.095 796.254C254.967 794.844 253.501 793.094 251.697 791.007C249.949 788.863 248.032 786.55 245.946 784.067C243.859 781.585 241.773 779.102 239.687 776.62C237.601 774.137 235.655 771.852 233.851 769.764C232.047 767.62 230.524 765.843 229.284 764.433C228.1 762.966 227.367 762.063 227.085 761.724C226.69 761.216 226.352 760.878 226.07 760.709C225.788 760.483 225.534 760.37 225.309 760.37C225.027 760.37 224.829 760.596 224.717 761.047C224.604 761.442 224.547 761.809 224.547 762.147C224.491 764.912 224.435 768.1 224.378 771.711C224.322 775.322 224.265 779.046 224.209 782.882C224.153 786.719 224.125 790.386 224.125 793.884C224.125 795.408 224.491 796.818 225.224 798.116C226.013 799.414 227.451 800.26 229.538 800.655C230.496 800.824 231.201 801.022 231.652 801.247C232.103 801.473 232.329 801.783 232.329 802.178C232.329 802.517 232.103 802.742 231.652 802.855C231.201 803.025 230.609 803.109 229.876 803.109C228.353 803.109 227.198 803.053 226.408 802.94C225.675 802.884 224.998 802.827 224.378 802.771C223.814 802.714 222.997 802.686 221.925 802.686C220.911 802.686 220.121 802.714 219.557 802.771C218.993 802.827 218.345 802.884 217.612 802.94C216.879 803.053 215.751 803.109 214.229 803.109C213.496 803.109 212.904 803.025 212.453 802.855C212.002 802.742 211.776 802.517 211.776 802.178C211.776 801.783 212.002 801.473 212.453 801.247C212.904 801.022 213.609 800.796 214.567 800.57C216.202 800.119 217.386 799.301 218.119 798.116C218.852 796.875 219.304 795.379 219.473 793.63C219.698 791.487 219.924 788.665 220.149 785.167C220.375 781.613 220.572 777.663 220.741 773.319C220.911 768.918 220.995 764.404 220.995 759.778C220.995 756.787 220.206 754.643 218.627 753.346C217.105 752.048 215.103 751.004 212.622 750.214C212.396 750.101 211.889 749.876 211.1 749.537C210.367 749.142 210 748.691 210 748.183C210 747.675 210.254 747.365 210.761 747.252C211.269 747.083 211.663 746.998 211.945 746.998C213.58 747.055 214.906 747.111 215.92 747.168C216.935 747.168 217.838 747.196 218.627 747.252C219.416 747.309 220.29 747.365 221.249 747.421C222.207 747.421 223.448 747.421 224.97 747.421C225.478 747.421 225.872 747.562 226.154 747.845C226.436 748.127 226.718 748.465 227 748.86C227.226 749.199 227.959 750.158 229.199 751.738C230.496 753.261 232.075 755.208 233.936 757.577C235.853 759.891 237.939 762.43 240.194 765.194C242.45 767.902 244.705 770.639 246.961 773.403C249.216 776.112 251.302 778.651 253.219 781.02C255.136 783.334 256.715 785.252 257.956 786.775C259.253 788.299 260.014 789.201 260.239 789.483C260.465 789.709 260.775 790.048 261.17 790.499C261.621 790.95 262.015 791.176 262.354 791.176C262.861 791.176 263.143 790.584 263.2 789.399C263.2 788.609 263.2 787.114 263.2 784.913C263.256 782.657 263.284 779.948 263.284 776.789C263.34 773.573 263.369 370.596 263.369 366.872C263.369 363.149 263.369 359.34 263.369 355.447C263.312 354.319 262.72 353.303 261.593 352.401C260.465 351.498 259.422 350.962 258.463 350.793C257.505 350.624 256.631 350.398 255.841 350.116C255.052 349.834 254.657 349.495 254.657 349.1C254.657 348.762 255.052 348.536 255.841 348.423C256.631 348.254 257.392 348.169 258.125 348.169C258.689 348.169 259.224 348.169 259.732 348.169C260.296 348.169 260.831 348.169 261.339 348.169C261.903 348.169 262.438 348.169 262.946 348.169C264.299 348.169 265.37 348.169 266.16 348.169C266.949 348.113 267.795 348.056 268.697 348C269.656 347.944 270.981 347.915 272.672 347.915C273.405 347.915 273.997 348 274.448 348.169C274.899 348.282 275.125 348.508 275.125 348.846C275.125 349.636 274.195 350.2 272.334 350.539C270.248 350.934 268.866 351.442 268.19 352.062C267.513 352.683 267.118 353.698 267.006 355.109C267.006 355.391 266.977 356.491 266.921 358.409C266.921 360.328 266.921 362.754 266.921 365.688C266.921 368.621 266.893 771.288 266.836 774.673C266.836 778.058 266.836 781.444 266.836 784.829C266.836 788.158 266.836 791.148 266.836 793.8C266.836 795.154 266.865 796.395 266.921 797.524C267.034 798.596 267.118 799.526 267.175 800.316C267.231 801.05 267.259 801.614 267.259 802.009C267.259 802.912 267.062 803.476 266.667 803.702C266.329 803.984 265.934 804.125 265.483 804.125Z" fill="black"/>
<path d="M265.483 804.124C264.976 804.124 263.961 803.701 262.438 802.855C260.972 802.008 259.563 800.654 258.209 798.793C257.984 798.51 257.279 797.664 256.095 796.254C254.967 794.843 253.501 793.094 251.697 791.006C249.949 788.862 248.032 786.549 245.946 784.067C243.859 781.584 241.773 779.102 239.687 776.619C237.601 774.137 235.655 771.852 233.851 769.764C232.047 767.62 230.524 765.843 229.284 764.433C228.1 762.966 227.367 762.063 227.085 761.724C226.69 761.217 226.352 760.878 226.07 760.709C225.788 760.483 225.534 760.37 225.309 760.37C225.027 760.37 224.829 760.596 224.717 761.047C224.604 761.442 224.547 761.809 224.547 762.148C224.491 764.912 224.435 768.1 224.378 771.711C224.322 775.322 224.265 779.045 224.209 782.882C224.153 786.718 224.125 790.386 224.125 793.884C224.125 795.407 224.491 796.818 225.224 798.115C226.013 799.413 227.451 800.259 229.538 800.654C230.496 800.824 231.201 801.021 231.652 801.247C232.103 801.472 232.329 801.783 232.329 802.178C232.329 802.516 232.103 802.742 231.652 802.855C231.201 803.024 230.609 803.109 229.876 803.109C228.353 803.109 227.198 803.052 226.408 802.939C225.675 802.883 224.998 802.827 224.378 802.77C223.814 802.714 222.997 802.686 221.925 802.686C220.911 802.686 220.121 802.714 219.557 802.77C218.993 802.827 218.345 802.883 217.612 802.939C216.879 803.052 215.751 803.109 214.229 803.109C213.496 803.109 212.904 803.024 212.453 802.855C212.002 802.742 211.776 802.516 211.776 802.178C211.776 801.783 212.002 801.472 212.453 801.247C212.904 801.021 213.609 800.795 214.567 800.57C216.202 800.118 217.386 799.3 218.119 798.115C218.852 796.874 219.304 795.379 219.473 793.63C219.698 791.486 219.924 788.665 220.149 785.167C220.375 781.612 220.572 777.663 220.741 773.319C220.911 768.918 220.995 764.404 220.995 759.778C220.995 756.788 220.206 754.644 218.627 753.346C217.105 752.048 215.103 751.004 212.622 750.215C212.396 750.102 211.889 749.876 211.1 749.538C210.367 749.143 210 748.691 210 748.183C210 747.676 210.254 747.365 210.761 747.252C211.269 747.083 211.663 746.998 211.945 746.998C213.58 747.055 214.906 747.111 215.92 747.168C216.935 747.168 217.838 747.196 218.627 747.252C219.416 747.309 220.29 747.365 221.249 747.422C222.207 747.422 223.448 747.422 224.97 747.422C225.478 747.422 225.872 747.563 226.154 747.845C226.436 748.127 226.718 748.465 227 748.86C227.226 749.199 227.959 750.158 229.199 751.738C230.496 753.261 232.075 755.208 233.936 757.577C235.853 759.891 237.939 762.43 240.194 765.194C242.45 767.902 244.705 770.639 246.961 773.403C249.216 776.112 251.302 778.65 253.219 781.02C255.136 783.333 256.715 785.252 257.956 786.775C259.253 788.298 260.014 789.201 260.239 789.483C260.465 789.709 260.775 790.047 261.17 790.499C261.621 790.95 262.015 791.176 262.354 791.176C262.861 791.176 263.143 790.583 263.2 789.398C263.2 788.609 263.2 787.113 263.2 784.913C263.256 782.656 263.284 779.948 263.284 776.789C263.34 773.573 263.369 598.557 263.369 594.834C263.369 591.11 263.369 587.301 263.369 583.409C263.312 582.28 262.72 581.265 261.593 580.362C260.465 579.459 259.422 578.923 258.463 578.754C257.505 578.585 256.631 578.359 255.841 578.077C255.052 577.795 254.657 577.456 254.657 577.061C254.657 576.723 255.052 576.497 255.841 576.384C256.631 576.215 257.392 576.13 258.125 576.13C258.689 576.13 259.224 576.13 259.732 576.13C260.296 576.13 260.831 576.13 261.339 576.13C261.903 576.13 262.438 576.13 262.946 576.13C264.299 576.13 265.37 576.13 266.16 576.13C266.949 576.074 267.795 576.018 268.697 575.961C269.656 575.905 270.981 575.876 272.672 575.876C273.405 575.876 273.997 575.961 274.448 576.13C274.899 576.243 275.125 576.469 275.125 576.807C275.125 577.597 274.195 578.161 272.334 578.5C270.248 578.895 268.866 579.403 268.19 580.023C267.513 580.644 267.118 581.66 267.006 583.07C267.006 583.352 266.977 584.452 266.921 586.371C266.921 588.289 266.921 590.715 266.921 593.649C266.921 596.583 266.893 771.288 266.836 774.673C266.836 778.058 266.836 781.443 266.836 784.828C266.836 788.157 266.836 791.147 266.836 793.799C266.836 795.153 266.865 796.395 266.921 797.523C267.034 798.595 267.118 799.526 267.175 800.316C267.231 801.049 267.259 801.614 267.259 802.008C267.259 802.911 267.062 803.475 266.667 803.701C266.329 803.983 265.934 804.124 265.483 804.124Z" fill="black"/>
<path d="M265.483 804.124C264.976 804.124 263.961 803.701 262.438 802.854C260.972 802.008 259.563 800.654 258.209 798.792C257.984 798.51 257.279 797.663 256.095 796.253C254.967 794.843 253.501 793.093 251.697 791.006C249.949 788.862 248.032 786.548 245.946 784.066C243.859 781.583 241.773 779.101 239.687 776.619C237.601 774.136 235.655 771.851 233.851 769.763C232.047 767.619 230.524 765.842 229.284 764.432C228.1 762.965 227.367 762.062 227.085 761.723C226.69 761.216 226.352 760.877 226.07 760.708C225.788 760.482 225.534 760.369 225.309 760.369C225.027 760.369 224.829 760.595 224.717 761.046C224.604 761.441 224.547 761.808 224.547 762.147C224.491 764.911 224.435 768.099 224.378 771.71C224.322 775.321 224.265 779.045 224.209 782.881C224.153 786.718 224.125 790.385 224.125 793.883C224.125 795.407 224.491 796.817 225.224 798.115C226.013 799.413 227.451 800.259 229.538 800.654C230.496 800.823 231.201 801.021 231.652 801.246C232.103 801.472 232.329 801.782 232.329 802.177C232.329 802.516 232.103 802.741 231.652 802.854C231.201 803.024 230.609 803.108 229.876 803.108C228.353 803.108 227.198 803.052 226.408 802.939C225.675 802.883 224.998 802.826 224.378 802.77C223.814 802.713 222.997 802.685 221.925 802.685C220.911 802.685 220.121 802.713 219.557 802.77C218.993 802.826 218.345 802.883 217.612 802.939C216.879 803.052 215.751 803.108 214.229 803.108C213.496 803.108 212.904 803.024 212.453 802.854C212.002 802.741 211.776 802.516 211.776 802.177C211.776 801.782 212.002 801.472 212.453 801.246C212.904 801.021 213.609 800.795 214.567 800.569C216.202 800.118 217.386 799.3 218.119 798.115C218.852 796.874 219.304 795.378 219.473 793.629C219.698 791.485 219.924 788.664 220.149 785.166C220.375 781.612 220.572 777.662 220.741 773.318C220.911 768.917 220.995 764.403 220.995 759.777C220.995 756.787 220.206 754.643 218.627 753.345C217.105 752.047 215.103 751.004 212.622 750.214C212.396 750.101 211.889 749.875 211.1 749.537C210.367 749.142 210 748.69 210 748.183C210 747.675 210.254 747.364 210.761 747.252C211.269 747.082 211.663 746.998 211.945 746.998C213.58 747.054 214.906 747.11 215.92 747.167C216.935 747.167 217.838 747.195 218.627 747.252C219.416 747.308 220.29 747.364 221.249 747.421C222.207 747.421 223.448 747.421 224.97 747.421C225.478 747.421 225.872 747.562 226.154 747.844C226.436 748.126 226.718 748.465 227 748.86C227.226 749.198 227.959 750.157 229.199 751.737C230.496 753.26 232.075 755.207 233.936 757.577C235.853 759.89 237.939 762.429 240.194 765.193C242.45 767.902 244.705 770.638 246.961 773.403C249.216 776.111 251.302 778.65 253.219 781.019C255.136 783.332 256.715 785.251 257.956 786.774C259.253 788.298 260.014 789.2 260.239 789.482C260.465 789.708 260.775 790.047 261.17 790.498C261.621 790.949 262.015 791.175 262.354 791.175C262.861 791.175 263.143 790.583 263.2 789.398C263.2 788.608 263.2 787.113 263.2 784.912C263.256 782.656 263.284 779.947 263.284 776.788C263.34 773.572 263.369 712.687 263.369 708.963C263.369 705.239 263.369 701.431 263.369 697.538C263.312 696.41 262.72 695.394 261.593 694.491C260.465 693.589 259.422 693.053 258.463 692.883C257.505 692.714 256.631 692.488 255.841 692.206C255.052 691.924 254.657 691.586 254.657 691.191C254.657 690.852 255.052 690.627 255.841 690.514C256.631 690.344 257.392 690.26 258.125 690.26C258.689 690.26 259.224 690.26 259.732 690.26C260.296 690.26 260.831 690.26 261.339 690.26C261.903 690.26 262.438 690.26 262.946 690.26C264.299 690.26 265.37 690.26 266.16 690.26C266.949 690.203 267.795 690.147 268.697 690.091C269.656 690.034 270.981 690.006 272.672 690.006C273.405 690.006 273.997 690.091 274.448 690.26C274.899 690.373 275.125 690.598 275.125 690.937C275.125 691.727 274.195 692.291 272.334 692.629C270.248 693.024 268.866 693.532 268.19 694.153C267.513 694.773 267.118 695.789 267.006 697.199C267.006 697.482 266.977 698.582 266.921 700.5C266.921 702.418 266.921 704.844 266.921 707.778C266.921 710.712 266.893 771.287 266.836 774.672C266.836 778.057 266.836 781.442 266.836 784.828C266.836 788.156 266.836 791.147 266.836 793.799C266.836 795.153 266.865 796.394 266.921 797.523C267.034 798.594 267.118 799.525 267.175 800.315C267.231 801.049 267.259 801.613 267.259 802.008C267.259 802.911 267.062 803.475 266.667 803.701C266.329 803.983 265.934 804.124 265.483 804.124Z" fill="black"/>
<path d="M265.483 804.125C264.976 804.125 263.961 803.702 262.438 802.856C260.972 802.009 259.563 800.655 258.209 798.793C257.984 798.511 257.279 797.665 256.095 796.254C254.967 794.844 253.501 793.095 251.697 791.007C249.949 788.863 248.032 786.55 245.946 784.068C243.859 781.585 241.773 779.103 239.687 776.62C237.601 774.138 235.655 771.853 233.851 769.765C232.047 767.621 230.524 765.844 229.284 764.434C228.1 762.967 227.367 762.064 227.085 761.726C226.69 761.218 226.352 760.879 226.07 760.71C225.788 760.484 225.534 760.371 225.309 760.371C225.027 760.371 224.829 760.597 224.717 761.049C224.604 761.443 224.547 761.81 224.547 762.149C224.491 764.913 224.435 768.101 224.378 771.712C224.322 775.323 224.265 779.046 224.209 782.883C224.153 786.72 224.125 790.387 224.125 793.885C224.125 795.408 224.491 796.819 225.224 798.116C226.013 799.414 227.451 800.26 229.538 800.655C230.496 800.824 231.201 801.022 231.652 801.248C232.103 801.473 232.329 801.784 232.329 802.179C232.329 802.517 232.103 802.743 231.652 802.856C231.201 803.025 230.609 803.109 229.876 803.109C228.353 803.109 227.198 803.053 226.408 802.94C225.675 802.884 224.998 802.827 224.378 802.771C223.814 802.715 222.997 802.686 221.925 802.686C220.911 802.686 220.121 802.715 219.557 802.771C218.993 802.827 218.345 802.884 217.612 802.94C216.879 803.053 215.751 803.109 214.229 803.109C213.496 803.109 212.904 803.025 212.453 802.856C212.002 802.743 211.776 802.517 211.776 802.179C211.776 801.784 212.002 801.473 212.453 801.248C212.904 801.022 213.609 800.796 214.567 800.571C216.202 800.119 217.386 799.301 218.119 798.116C218.852 796.875 219.304 795.38 219.473 793.631C219.698 791.487 219.924 788.666 220.149 785.168C220.375 781.614 220.572 777.664 220.741 773.32C220.911 768.919 220.995 764.405 220.995 759.779C220.995 756.789 220.206 754.645 218.627 753.347C217.105 752.05 215.103 751.006 212.622 750.216C212.396 750.103 211.889 749.877 211.1 749.539C210.367 749.144 210 748.693 210 748.185C210 747.677 210.254 747.367 210.761 747.254C211.269 747.085 211.663 747 211.945 747C213.58 747.056 214.906 747.113 215.92 747.169C216.935 747.169 217.838 747.197 218.627 747.254C219.416 747.31 220.29 747.367 221.249 747.423C222.207 747.423 223.448 747.423 224.97 747.423C225.478 747.423 225.872 747.564 226.154 747.846C226.436 748.128 226.718 748.467 227 748.862C227.226 749.2 227.959 750.16 229.199 751.739C230.496 753.263 232.075 755.209 233.936 757.579C235.853 759.892 237.939 762.431 240.194 765.195C242.45 767.904 244.705 770.64 246.961 773.404C249.216 776.113 251.302 778.651 253.219 781.021C255.136 783.334 256.715 785.253 257.956 786.776C259.253 788.299 260.014 789.202 260.239 789.484C260.465 789.71 260.775 790.048 261.17 790.5C261.621 790.951 262.015 791.177 262.354 791.177C262.861 791.177 263.143 790.584 263.2 789.399C263.2 788.61 263.2 787.114 263.2 784.914C263.256 782.657 263.284 779.949 263.284 776.79C263.34 773.574 263.369 784.576 263.369 780.852C263.369 777.128 263.369 773.32 263.369 769.427C263.312 768.298 262.72 767.283 261.593 766.38C260.465 765.477 259.422 764.941 258.463 764.772C257.505 764.603 256.631 764.377 255.841 764.095C255.052 763.813 254.657 763.475 254.657 763.08C254.657 762.741 255.052 762.515 255.841 762.403C256.631 762.233 257.392 762.149 258.125 762.149C258.689 762.149 259.224 762.149 259.732 762.149C260.296 762.149 260.831 762.149 261.339 762.149C261.903 762.149 262.438 762.149 262.946 762.149C264.299 762.149 265.37 762.149 266.16 762.149C266.949 762.092 267.795 762.036 268.697 761.979C269.656 761.923 270.981 761.895 272.672 761.895C273.405 761.895 273.997 761.979 274.448 762.149C274.899 762.262 275.125 762.487 275.125 762.826C275.125 763.616 274.195 764.18 272.334 764.518C270.248 764.913 268.866 765.421 268.19 766.042C267.513 766.662 267.118 767.678 267.006 769.088C267.006 769.37 266.977 770.471 266.921 772.389C266.921 774.307 266.921 776.733 266.921 779.667C266.921 782.601 266.893 771.289 266.836 774.674C266.836 778.059 266.836 781.444 266.836 784.829C266.836 788.158 266.836 791.148 266.836 793.8C266.836 795.154 266.865 796.395 266.921 797.524C267.034 798.596 267.118 799.527 267.175 800.317C267.231 801.05 267.259 801.614 267.259 802.009C267.259 802.912 267.062 803.476 266.667 803.702C266.329 803.984 265.934 804.125 265.483 804.125Z" fill="black"/>
</svg>
